<svg xmlns="http://www.w3.org/2000/svg" xmlns:xlink="http://www.w3.org/1999/xlink" width="400" height="569" viewBox="0 0 400 569">
  <defs>
    <clipPath id="clip-path">
      <rect id="Rectángulo_425579" data-name="Rectángulo 425579" width="400" height="569" transform="translate(1020 288)" fill="#fff" stroke="#707070" stroke-width="1"/>
    </clipPath>
    <linearGradient id="linear-gradient" x1="0.5" y1="0.2" x2="0.53" y2="0.99" gradientUnits="objectBoundingBox">
      <stop offset="0" stop-color="#8a23ea"/>
      <stop offset="1" stop-color="#3a1063"/>
    </linearGradient>
    <filter id="Elipse_13853" x="-9" y="35" width="116" height="116" filterUnits="userSpaceOnUse">
      <feOffset dy="3" input="SourceAlpha"/>
      <feGaussianBlur stdDeviation="3" result="blur"/>
      <feFlood flood-opacity="0.161"/>
      <feComposite operator="in" in2="blur"/>
      <feComposite in="SourceGraphic"/>
    </filter>
    <filter id="Elipse_13852" x="251" y="364" width="158" height="158" filterUnits="userSpaceOnUse">
      <feOffset dy="3" input="SourceAlpha"/>
      <feGaussianBlur stdDeviation="3" result="blur-2"/>
      <feFlood flood-opacity="0.161"/>
      <feComposite operator="in" in2="blur-2"/>
      <feComposite in="SourceGraphic"/>
    </filter>
  </defs>
  <g id="Enmascarar_grupo_1211617" data-name="Enmascarar grupo 1211617" transform="translate(-1020 -288)" clip-path="url(#clip-path)">
    <g id="Grupo_1233039" data-name="Grupo 1233039">
      <g id="Grupo_1233038" data-name="Grupo 1233038">
        <g id="Grupo_1233034" data-name="Grupo 1233034" transform="translate(-8 -2)">
          <rect id="Rectángulo_423448" data-name="Rectángulo 423448" width="278" height="569" rx="13" transform="translate(1080 290)" fill="url(#linear-gradient)"/>
          <g transform="matrix(1, 0, 0, 1, 1028, 290)" filter="url(#Elipse_13853)">
            <circle id="Elipse_13853-2" data-name="Elipse 13853" cx="49" cy="49" r="49" transform="translate(0 41)" fill="#f6ecfe"/>
          </g>
          <g transform="matrix(1, 0, 0, 1, 1028, 290)" filter="url(#Elipse_13852)">
            <circle id="Elipse_13852-2" data-name="Elipse 13852" cx="70" cy="70" r="70" transform="translate(260 370)" fill="#f6ecfe"/>
          </g>
        </g>
        <g id="_13585005_3567_REpWIE1BUiA1NDItMTc" data-name="13585005_3567_REpWIE1BUiA1NDItMTc" transform="translate(919.542 248.597)">
          <path id="Trazado_1066353" data-name="Trazado 1066353" d="M1437.3,258.429h-37.962a4.385,4.385,0,0,0-4.372,4.372v23.851a4.385,4.385,0,0,0,4.372,4.372H1437.3a4.385,4.385,0,0,0,4.373-4.372V262.8A4.384,4.384,0,0,0,1437.3,258.429Zm-29.843,20.386a7.92,7.92,0,0,0,3.239-.635l.385,1.586a9.705,9.705,0,0,1-4.032.724c-4.3,0-7.521-2.717-7.521-7.746a7.586,7.586,0,0,1,7.974-8.019,8.254,8.254,0,0,1,3.624.68l-.5,1.608a7,7,0,0,0-3.058-.635c-3.579,0-5.958,2.289-5.958,6.3C1401.614,276.436,1403.764,278.815,1407.458,278.815Zm16.985-3.941h-5.119v5.368h-1.45v-5.368h-5.119v-1.359h5.119v-5.323h1.45v5.323h5.119Zm13.5,0h-5.119v5.368h-1.45v-5.368h-5.12v-1.359h5.12v-5.323h1.45v5.323h5.119Z" transform="translate(-980.5 -142.891)" fill="#12abd7"/>
          <path id="Trazado_1066354" data-name="Trazado 1066354" d="M1423.2,287.955a6.994,6.994,0,0,1,3.058.635l.5-1.608a8.255,8.255,0,0,0-3.624-.68,7.585,7.585,0,0,0-7.974,8.019c0,5.029,3.217,7.746,7.521,7.746a9.7,9.7,0,0,0,4.032-.724l-.385-1.586a7.919,7.919,0,0,1-3.239.635c-3.693,0-5.844-2.379-5.844-6.139C1417.246,290.243,1419.625,287.955,1423.2,287.955Z" transform="translate(-996.132 -164.467)" fill="#fff"/>
          <path id="Trazado_1066355" data-name="Trazado 1066355" d="M1540.039,301.644h-1.45v5.323h-5.119v1.359h5.119v5.368h1.45v-5.368h5.119v-1.359h-5.119Z" transform="translate(-1087.715 -176.344)" fill="#fff"/>
          <path id="Trazado_1066356" data-name="Trazado 1066356" d="M1480.279,301.644h-1.448v5.323h-5.121v1.359h5.121v5.368h1.448v-5.368h5.119v-1.359h-5.119Z" transform="translate(-1041.455 -176.344)" fill="#fff"/>
          <path id="Trazado_1066357" data-name="Trazado 1066357" d="M910.74,119.42h53.084a6.132,6.132,0,0,0,6.114-6.115V79.954a6.132,6.132,0,0,0-6.114-6.114H910.74a6.132,6.132,0,0,0-6.115,6.114v33.351A6.133,6.133,0,0,0,910.74,119.42Zm30.222-22.993c-3.485-1.267-5.639-3.1-5.639-6.082,0-3.325,2.756-5.8,6.906-5.8a9.559,9.559,0,0,1,4.689,1.046l-.76,2.249a7.9,7.9,0,0,0-4.023-1.014c-2.914,0-4.023,1.742-4.023,3.2,0,2,1.3,2.978,4.244,4.117,3.611,1.394,5.417,3.137,5.417,6.273,0,3.294-2.407,6.177-7.444,6.177a11.018,11.018,0,0,1-5.448-1.394l.728-2.312a9.347,9.347,0,0,0,4.91,1.394c2.819,0,4.466-1.489,4.466-3.642C944.985,98.676,943.844,97.5,940.962,96.427Zm-18.624,7.413a6.615,6.615,0,0,0,2.344.412c2.471,0,3.9-1.108,3.9-5.29V84.9h2.787V99.183c0,5.67-2.787,7.413-6.462,7.413a8.631,8.631,0,0,1-2.946-.507Z" transform="translate(-600.925)" fill="#af6aa9"/>
          <path id="Trazado_1066358" data-name="Trazado 1066358" d="M990.76,137.072V122.785h-2.788V136.85c0,4.181-1.426,5.29-3.9,5.29a6.613,6.613,0,0,1-2.344-.412l-.38,2.249a8.632,8.632,0,0,0,2.946.507C987.973,144.484,990.76,142.742,990.76,137.072Z" transform="translate(-660.319 -37.888)" fill="#fff"/>
          <path id="Trazado_1066359" data-name="Trazado 1066359" d="M1044.2,140.975a9.345,9.345,0,0,1-4.91-1.394l-.728,2.312a11.018,11.018,0,0,0,5.448,1.394c5.037,0,7.444-2.883,7.444-6.177,0-3.136-1.805-4.878-5.417-6.273-2.946-1.14-4.244-2.122-4.244-4.117,0-1.457,1.108-3.2,4.023-3.2a7.9,7.9,0,0,1,4.023,1.014l.76-2.249a9.56,9.56,0,0,0-4.689-1.046c-4.15,0-6.906,2.472-6.906,5.8,0,2.978,2.154,4.815,5.639,6.082,2.882,1.077,4.023,2.249,4.023,4.214C1048.664,139.486,1047.018,140.975,1044.2,140.975Z" transform="translate(-704.604 -36.692)" fill="#fff"/>
          <path id="Trazado_1066360" data-name="Trazado 1066360" d="M1460.969,783.379a84.24,84.24,0,0,0-1.869,19.195,38.33,38.33,0,0,0,3.434,15.063,28.032,28.032,0,0,0,3.967-3.452q6.49,4.841,13.013,9.642c2.108,1.551,4.228,3.095,6.452,4.479a1.142,1.142,0,0,1,.4-1.133c4.439-3.961,10.392-4.612,16.076-5.085a1.358,1.358,0,0,1,1.348,1.348,1.383,1.383,0,0,1-1.348,1.348c-4.9.407-10.328.867-14.17,4.3a1.416,1.416,0,0,1-.447.27c1.823.909,3.735,1.61,5.493,2.613,1.232.7,2.7,1.417,4.155,2.225a59.382,59.382,0,0,1,15.934,8.616,1.391,1.391,0,0,1,.52.783c.059-.28.112-.561.163-.84a35.361,35.361,0,0,0,.7-5.933,11.121,11.121,0,0,0-2.34-7.56,19.02,19.02,0,0,0-5.385-3.94,3.707,3.707,0,0,1-1.492-1.223,3.137,3.137,0,0,1-.266-1.647c.237-13.01-2.579-27.793-14.48-36.737-5.861-4.405-13.285-6.637-20.65-7.943-.248-.044-.5-.08-.745-.122-.363.441-.739.872-1.138,1.281C1466.718,780.537,1463.679,783.224,1460.969,783.379Z" transform="translate(-1030.112 -544.812)" fill="#fff8dc"/>
          <path id="Trazado_1066361" data-name="Trazado 1066361" d="M1174.554,1932.159c-3.045,4.089-7.761,6.552-12.406,8.656-5.041,2.284-10.676,4.989-16.306,6.7v4.213a6.8,6.8,0,0,1-6.779,6.779h-58.858a6.8,6.8,0,0,1-6.779-6.779v-1.859c-1.978-.426-3.946-.9-5.9-1.454-7.716-2.173-21.392-6.426-27.572-14.019.185,32.262.479,82.693.619,106.777h69.115l4.679-66.46,15.121,66.46h67.8l-18.989-119.144A20.607,20.607,0,0,1,1174.554,1932.159Z" transform="translate(-705.683 -1430.69)" fill="#054840"/>
          <path id="Trazado_1066362" data-name="Trazado 1066362" d="M1261.11,857.708c.685-.362,1.367-.749,2.049-1.15,10.324-6.076,20.834-11.911,30.424-19.088.071-.053.142-.109.213-.162a38.322,38.322,0,0,1-3.434-15.063,84.247,84.247,0,0,1,1.869-19.195c-.026,0-.053.005-.079.006a23.908,23.908,0,0,1-1.286,2.4c-4.125,6.991-8.883,14.424-15.07,20.02a6.461,6.461,0,0,1-1.756,4.425,7.166,7.166,0,0,1-3.112,1.8c-.62.193-1.255.334-1.89.471-.3.064-.593.124-.891.174a.613.613,0,0,1-.43.167c-.211,0-.422-.01-.633-.011a14.838,14.838,0,0,1-8.549,5.261,54.063,54.063,0,0,1-11.908,1.365c.987,1.184,1.954,2.387,2.876,3.623-2.661,4.549-5.505,8.983-8.424,13.372a59.8,59.8,0,0,0,8.117,3.354C1253.526,860.9,1257.365,859.685,1261.11,857.708Z" transform="translate(-861.375 -564.483)" fill="#f39776"/>
          <path id="Trazado_1066363" data-name="Trazado 1066363" d="M1159.854,1641.494a4.443,4.443,0,0,1-.94.664,8.638,8.638,0,0,1-3.8.657c-3.18.064-6.365.127-9.55.158q3.007.29,6.017.554c1.717.151,1.727,2.846,0,2.695-9.243-.811-18.47-1.793-27.67-3q-23.1-3.038-45.871-8.064c-15.643-3.486-31.107-7.725-46.414-12.467a430.9,430.9,0,0,1-5.277,63.259c-.569,3.431-1.176,6.933-.6,10.362a13.633,13.633,0,0,0,3.03,6.367c6.179,7.593,19.855,11.846,27.571,14.019,1.954.55,3.923,1.029,5.9,1.454v-28.8q-9.807.447-19.628.05c-1.731-.073-1.734-2.767,0-2.7q9.811.408,19.628-.052v-3.62a6.8,6.8,0,0,1,6.779-6.78h51.1c2.385-.763,4.762-1.551,7.12-2.395q2.558-.914,5.094-1.891c1.186-.456,2.734-1.421,4.048-.97,2.929,1,.126,5.081-1.71,2.937l-.355.14-.843.33q-1.267.49-2.539.965c-.839.314-1.684.607-2.526.91a6.8,6.8,0,0,1,6.254,6.753V1715.8c5.63-1.715,11.265-4.42,16.306-6.7,4.644-2.1,9.36-4.567,12.406-8.656a20.63,20.63,0,0,0,3.74-10.126c.6-5.1-.049-10.6-.677-15.746a319.383,319.383,0,0,1-2.245-43.289c-.487,1.16-.962,2.324-1.4,3.5C1162,1636.927,1161.783,1640,1159.854,1641.494Z" transform="translate(-694.507 -1198.967)" fill="#fff8dc"/>
          <path id="Trazado_1066364" data-name="Trazado 1066364" d="M1145.525,1142.027q3.541-5.784,7.09-11.563-1.339,1.865-2.681,3.727c-1.11,1.535-3.033,3.366-3.718,5.12-.232.318-.462.642-.693.961Q1145.529,1141.149,1145.525,1142.027Z" transform="translate(-787.405 -817.935)" fill="#fff8dc"/>
          <path id="Trazado_1066365" data-name="Trazado 1066365" d="M1097.409,963.63c-.817,1.318-1.627,2.641-2.442,3.96,1.594.988,3.219,1.931,4.906,2.779,1.552.78.186,3.1-1.36,2.326-1.7-.856-3.347-1.81-4.962-2.808q-4.16,6.735-8.311,13.474-4.96,8.075-9.9,16.161a133.372,133.372,0,0,1-5.751,33.065c-1.013,3.284-2.21,6.628-4.528,9.168a24.7,24.7,0,0,1-6.737,4.724q-1.608.868-3.285,1.736a42.456,42.456,0,0,0,.725,7.9c.16-.485.323-.97.511-1.438a5.111,5.111,0,0,1,.225-.484,1.43,1.43,0,0,1,1.341-2.31q10.578,1.743,21.191,3.25c23.761,3.35,47.655,5.516,71.6,7.012q4.863-15.672,10.8-30.976a1.292,1.292,0,0,1-1.129-.635,83.985,83.985,0,0,1-4.926-11.137,1.36,1.36,0,0,1,.941-1.658,1.382,1.382,0,0,1,1.657.942,78.98,78.98,0,0,0,4.409,10.013q3.923-9.97,8.285-19.764a1.066,1.066,0,0,1,1.316-.654Q1179.114,991,1186,973.555q1.587-4,3.164-8.006c.161-.407-1.249-1.354-.844-1.519a.43.43,0,0,0,.17-.164,57.069,57.069,0,0,0-19.441-5.125c-1.72-.136-1.729-2.832,0-2.694a60.685,60.685,0,0,1,15.667,3.373c-1.451-.808-2.923-1.522-4.155-2.225-1.757-1-3.67-1.7-5.493-2.612a1.455,1.455,0,0,1-1.86-1.042c-2.224-1.385-4.344-2.928-6.452-4.479q-6.522-4.8-13.013-9.642a28.013,28.013,0,0,1-3.968,3.452c-.071.054-.142.109-.213.162-9.591,7.177-20.1,13.012-30.424,19.088-.682.4-1.364.788-2.049,1.15-3.747,1.976-7.583,3.189-11.913,1.768a59.766,59.766,0,0,1-8.117-3.354l-.114.171A1.233,1.233,0,0,1,1097.409,963.63Zm46.6,1.188a57.155,57.155,0,0,0,15.817-10.179c1.281-1.167,3.191.735,1.906,1.905a59.275,59.275,0,0,1-16.363,10.6,1.383,1.383,0,0,1-1.843-.484A1.354,1.354,0,0,1,1144.014,964.818Z" transform="translate(-717.359 -670.046)" fill="#fff8dc"/>
          <path id="Trazado_1066366" data-name="Trazado 1066366" d="M1231.844,1066.907c-1.687-.848-3.311-1.791-4.906-2.779q-.709,1.148-1.417,2.3c1.615,1,3.259,1.952,4.963,2.809C1232.03,1070.011,1233.4,1067.686,1231.844,1066.907Z" transform="translate(-849.332 -766.584)" fill="#f0d3ca"/>
          <path id="Trazado_1066367" data-name="Trazado 1066367" d="M1448.031,1018.063a59.278,59.278,0,0,0,16.363-10.6c1.285-1.171-.625-3.072-1.906-1.905a57.145,57.145,0,0,1-15.817,10.179,1.356,1.356,0,0,0-.483,1.843A1.384,1.384,0,0,0,1448.031,1018.063Z" transform="translate(-1020.016 -720.961)" fill="#f0d3ca"/>
          <path id="Trazado_1066368" data-name="Trazado 1066368" d="M1217,606.625a17.171,17.171,0,0,0,4.714,10.845c6.77,1.249,13.681,1.162,20.5,2.014,4.885.61,11.546,2.069,12.041,8.05.125.029.25.047.374.077l.012.006a.616.616,0,0,1,.252-.087c.2-.221.4-.44.6-.665a43.6,43.6,0,0,0,7.144-11.155,77.47,77.47,0,0,0,2.8-7.983c.705-2.269.546-6.724,1.252-8.994,0,.009,0,.023,0,.033a14.947,14.947,0,0,1,.355-3.033c.56-2.247,1.733-4.531,1.093-6.755-.465-1.613-1.792-2.8-2.754-4.177-1.331-1.9-1.261-4.046-1.282-6.253a25.658,25.658,0,0,0-1.3-7.641,1.872,1.872,0,0,0-.577-.987,1.913,1.913,0,0,0-1-.271c-8.718-.689-17.732.28-26.02-2.512a57.387,57.387,0,0,1-8.589-3.971,70.831,70.831,0,0,1-8.56,3.671,1.227,1.227,0,0,1-.417.078c-.063.32-.126.64-.18.962-.07.409-.13.819-.189,1.229-.119.835-.216,1.677-.3,2.506a223.39,223.39,0,0,0-.955,34.424A.7.7,0,0,1,1217,606.625Zm34.748-11.267a1.819,1.819,0,0,1,.208.392,4.084,4.084,0,0,1,.325.914c-.089-.092-.194-.165-.286-.253a1.17,1.17,0,0,1-.257.48,3,3,0,0,1-1.379.767,13.786,13.786,0,0,1-6.369.463c-1.339-.214-4.051-.731-5.107-1.943a5.245,5.245,0,0,1-.772-3.763,1.638,1.638,0,0,1-.217,0c.039-.449.091-.9.154-1.344l.064-.175.148-.073a13.167,13.167,0,0,1,6.62.029,12.363,12.363,0,0,1,5.382,2.783c-3.054-3.328-7.962-4.014-12.307-3.711-.867.06-.86-1.288,0-1.348,5.257-.366,10.978.757,14.22,5.291.406.567-.264,1.1-.8.931A6.279,6.279,0,0,1,1251.747,595.358Zm-15.842-19.2a5.069,5.069,0,0,1,1-1.271,6,6,0,0,1,3.1-1.415,11.155,11.155,0,0,1,5.932.889,23.025,23.025,0,0,1,11.405,10.725,32.584,32.584,0,0,0-4.87-3.243,33.534,33.534,0,0,0-11.857-3.81,27.165,27.165,0,0,0-5.274-.4A13.759,13.759,0,0,1,1235.9,576.161Zm-6.022,15.755a71.974,71.974,0,0,1-3.747,12.955c-.393,1.121-.777,2.245-1.13,3.379-.3.947-1.08,2.575-.761,3.561.333,1.029,1.875,1.369,2.758,1.688l3.234,1.17c.811.294.459,1.6-.358,1.3-1.347-.488-2.7-.959-4.043-1.464a5.513,5.513,0,0,1-2.348-1.373c-1.45-1.678-.042-4.465.54-6.245,1.662-5.078,3.751-10.013,4.556-15.328C1228.714,590.7,1230.011,591.067,1229.882,591.915Zm-12.887-10.653c.137-.159.388-.115.592-.067a13.328,13.328,0,0,0,2.907.163,8.476,8.476,0,0,0,2.9-.426c.649-.221,3.561-1.29,3.648-2.09a6.766,6.766,0,0,1-2.262,4.328c-1.193,1.038-3.406,2.242-5,1.5a5.714,5.714,0,0,1-2.707-2.532,2.376,2.376,0,0,1-.147-.486A.465.465,0,0,1,1216.995,581.262Zm.323,4.241a8.982,8.982,0,0,1,5.3,1.905,9.749,9.749,0,0,1,3.511,4.078.678.678,0,0,1-.471.829c-.019.005-.036,0-.055,0a3.564,3.564,0,0,1,.124.381c-.016-.032-.037-.062-.055-.094,0,0,0,0,0,0,.161,1.321-1.456,1.756-2.423,1.753a8.981,8.981,0,0,1-3.121-.513,2.873,2.873,0,0,1-1.125-.573,4.3,4.3,0,0,1-.809-1.192,8.1,8.1,0,0,1-.649-1.964,3.623,3.623,0,0,1-.436-1.665.577.577,0,0,1,.391-.507,3.865,3.865,0,0,1,2.284.1,8.891,8.891,0,0,1,3.406,1.542,12.556,12.556,0,0,0-1.368-1.1,7.7,7.7,0,0,0-4.509-1.639A.674.674,0,0,1,1217.318,585.5Z" transform="translate(-841.758 -378.79)" fill="#f39776"/>
          <path id="Trazado_1066369" data-name="Trazado 1066369" d="M1231.044,680.749a5.255,5.255,0,0,0-.261-.535,3.9,3.9,0,0,0-1.8-.84l-.113.014-.043.1a5.088,5.088,0,0,1-.636,1.8l-.065.107a1.886,1.886,0,0,1-.579.621,1.867,1.867,0,0,1-2.213-.553,3.038,3.038,0,0,1-.544-1.583c-.027-.282-.033-.564-.04-.847a2.736,2.736,0,0,0-.027-.788.432.432,0,0,0-.733-.046,1.582,1.582,0,0,0-.154.98c-.029-.049-.051-.1-.078-.152a8.1,8.1,0,0,0,.649,1.964,4.316,4.316,0,0,0,.809,1.192,2.869,2.869,0,0,0,1.125.573,8.981,8.981,0,0,0,3.121.513c.967,0,2.584-.432,2.424-1.753a.022.022,0,0,1,0,0c-.051-.094-.1-.188-.163-.28A.713.713,0,0,1,1231.044,680.749Z" transform="translate(-847.969 -467.695)" fill="#fff"/>
          <path id="Trazado_1066370" data-name="Trazado 1066370" d="M1222.494,673.693a.432.432,0,0,1,.733.046,2.736,2.736,0,0,1,.028.788c.007.283.012.565.039.847a3.038,3.038,0,0,0,.544,1.583,1.866,1.866,0,0,0,2.213.553,1.886,1.886,0,0,0,.579-.621l.065-.107a5.1,5.1,0,0,0,.636-1.8l.043-.1.113-.014a3.9,3.9,0,0,1,1.8.84,7.189,7.189,0,0,0-1.377-1.715,8.9,8.9,0,0,0-3.406-1.542,3.862,3.862,0,0,0-2.284-.1.576.576,0,0,0-.391.507,3.616,3.616,0,0,0,.436,1.665c.027.05.049.1.078.152A1.589,1.589,0,0,1,1222.494,673.693Zm2.79.87c-.007.168-.032.333-.055.5a14.868,14.868,0,0,0-.127,2.367l-.526-.112a3.689,3.689,0,0,1-.446-.259,1.524,1.524,0,0,1-.548-.819,6.225,6.225,0,0,1-.106-2.372l.038-.124c.089-.119.236-.018.34.01.155.042.319.05.475.1a3.433,3.433,0,0,1,.853.335C1225.316,674.27,1225.288,674.407,1225.284,674.564Z" transform="translate(-846.472 -463.191)" fill="#20315b"/>
          <path id="Trazado_1066371" data-name="Trazado 1066371" d="M1259.01,692.215c.061.092.113.186.163.28.017.032.039.062.055.094a3.526,3.526,0,0,0-.124-.381A.6.6,0,0,1,1259.01,692.215Z" transform="translate(-875.255 -478.681)" fill="#20315b"/>
          <path id="Trazado_1066372" data-name="Trazado 1066372" d="M1230.606,679.289a3.449,3.449,0,0,0-.854-.334c-.156-.046-.321-.054-.475-.1-.1-.029-.251-.13-.34-.011l-.038.124a6.223,6.223,0,0,0,.106,2.372,1.523,1.523,0,0,0,.548.819,3.727,3.727,0,0,0,.446.259l.526.112a14.9,14.9,0,0,1,.127-2.367c.022-.167.048-.333.055-.5S1230.742,679.373,1230.606,679.289Z" transform="translate(-851.898 -468.294)" fill="#0279bb"/>
          <path id="Trazado_1066373" data-name="Trazado 1066373" d="M1322.07,693a12.67,12.67,0,0,1-.543,1.427,5.518,5.518,0,0,1-1.012,1.768,2.423,2.423,0,0,1-1.638.835c-2.64.172-3.568-2.8-3.36-4.961-.325.04-.639.119-.967.128a5.246,5.246,0,0,0,.772,3.763c1.056,1.212,3.768,1.729,5.107,1.943a13.789,13.789,0,0,0,6.369-.463,3,3,0,0,0,1.379-.767,1.173,1.173,0,0,0,.257-.48,12.675,12.675,0,0,0-4.967-2.808C1323.007,693.241,1322.54,693.116,1322.07,693Z" transform="translate(-918.201 -478.574)" fill="#fff"/>
          <path id="Trazado_1066374" data-name="Trazado 1066374" d="M1375.14,705.667c.076.128.145.258.208.392A1.9,1.9,0,0,0,1375.14,705.667Z" transform="translate(-965.151 -489.099)" fill="#fff"/>
          <path id="Trazado_1066375" data-name="Trazado 1066375" d="M1326.17,687.005a12.361,12.361,0,0,0-5.382-2.783,13.167,13.167,0,0,0-6.62-.029l-.148.073-.063.175q-.1.669-.154,1.344a1.749,1.749,0,0,0,.217,0c.328-.009.642-.088.967-.128a5.268,5.268,0,0,1,.074-.531c.324-1.622,1.206-1.355,2.575-.9q.961.319,1.929.618a6.5,6.5,0,0,1,1.773.524c.335.268.327.731.2,1.22.47.114.937.239,1.4.386a12.674,12.674,0,0,1,4.967,2.808c.092.088.2.161.286.253a4.076,4.076,0,0,0-.325-.914q-.1-.2-.208-.392a5.862,5.862,0,0,0-.378-.558.666.666,0,0,1-.359-.252A9.6,9.6,0,0,0,1326.17,687.005Z" transform="translate(-917.67 -472.158)" fill="#20315b"/>
          <path id="Trazado_1066376" data-name="Trazado 1066376" d="M1322.308,690.938a2.424,2.424,0,0,0,1.637-.835,5.508,5.508,0,0,0,1.012-1.768,12.682,12.682,0,0,0,.543-1.427c.127-.489.135-.951-.2-1.22a6.5,6.5,0,0,0-1.773-.524q-.969-.3-1.93-.618c-1.369-.456-2.252-.722-2.575.9-.034.169-.056.348-.074.531C1318.739,688.137,1319.667,691.11,1322.308,690.938Zm-3.025-5.172.057,0a12.83,12.83,0,0,1,1.373.216,4.123,4.123,0,0,1,.835.16.31.31,0,0,1,.207.26,2.816,2.816,0,0,1-.145.668,10.535,10.535,0,0,0-.086,3.249c.014.108,0,.256-.1.275l-.092-.011a2.774,2.774,0,0,1-1.14-.669,3.535,3.535,0,0,1-.787-1.545,5.479,5.479,0,0,1-.272-1.33,7.477,7.477,0,0,1,.115-1.18Z" transform="translate(-921.631 -472.479)" fill="#20315b"/>
          <path id="Trazado_1066377" data-name="Trazado 1066377" d="M1319.833,692.394a5.494,5.494,0,0,0,.272,1.33,3.536,3.536,0,0,0,.787,1.545,2.776,2.776,0,0,0,1.14.669l.092.011c.107-.019.118-.168.1-.275a10.528,10.528,0,0,1,.086-3.249,2.81,2.81,0,0,0,.145-.668.31.31,0,0,0-.207-.26,4.111,4.111,0,0,0-.835-.16,12.822,12.822,0,0,0-1.373-.216l-.057,0-.04.091A7.129,7.129,0,0,0,1319.833,692.394Z" transform="translate(-922.334 -477.837)" fill="#0279bb"/>
          <path id="Trazado_1066378" data-name="Trazado 1066378" d="M1326.07,680.725c-3.242-4.534-8.964-5.657-14.22-5.291-.86.06-.867,1.408,0,1.348,4.345-.3,9.253.382,12.307,3.711a9.7,9.7,0,0,1,.751.912.667.667,0,0,0,.359.252C1325.806,681.824,1326.476,681.292,1326.07,680.725Z" transform="translate(-915.657 -465.645)" fill="#d46566"/>
          <path id="Trazado_1066379" data-name="Trazado 1066379" d="M1220.5,663.382a7.7,7.7,0,0,1,4.509,1.639,12.563,12.563,0,0,1,1.368,1.1,7.191,7.191,0,0,1,1.377,1.715,5.221,5.221,0,0,1,.261.535.716.716,0,0,0,.68.48.584.584,0,0,0,.094-.006c.019,0,.036,0,.055,0a.678.678,0,0,0,.471-.829,9.751,9.751,0,0,0-3.511-4.078,8.981,8.981,0,0,0-5.3-1.905A.674.674,0,0,0,1220.5,663.382Z" transform="translate(-844.938 -455.321)" fill="#d46566"/>
          <path id="Trazado_1066380" data-name="Trazado 1066380" d="M1393.233,754.583a10.246,10.246,0,0,1-1,4.026,4.15,4.15,0,0,1-1.989,2,6.134,6.134,0,0,1,.1,1.048c6.188-5.6,10.946-13.029,15.07-20.02a23.788,23.788,0,0,0,1.287-2.4,3.483,3.483,0,0,1-1.967-.472c-1.882-1.125-2.242-3.771-2.259-5.76a20.394,20.394,0,0,1,.283-3.517,13.294,13.294,0,0,1-1.847-6.353,23.41,23.41,0,0,1-.061-2.494c0-.01,0-.024,0-.033-.706,2.269-.547,6.724-1.252,8.994a77.525,77.525,0,0,1-2.8,7.982,43.6,43.6,0,0,1-7.144,11.155c-.2.224-.4.444-.6.665a.682.682,0,0,1,.25.007A5.152,5.152,0,0,1,1393.233,754.583Z" transform="translate(-975.918 -500.667)" fill="#20315b"/>
          <path id="Trazado_1066381" data-name="Trazado 1066381" d="M1201.028,460.461a70.821,70.821,0,0,0,8.56-3.672,57.382,57.382,0,0,0,8.589,3.971c8.287,2.793,17.3,1.823,26.019,2.512a1.912,1.912,0,0,1,1,.271,1.872,1.872,0,0,1,.577.987,25.658,25.658,0,0,1,1.3,7.641c.02,2.207-.049,4.351,1.282,6.253.962,1.375,2.289,2.564,2.754,4.177.641,2.224-.533,4.508-1.093,6.755a14.949,14.949,0,0,0-.355,3.033,23.507,23.507,0,0,0,.061,2.494,13.291,13.291,0,0,0,1.847,6.353,24.537,24.537,0,0,1,2.851-7.868,18.478,18.478,0,0,1,5.229-6.2,6.241,6.241,0,0,1,4.594-1.237,5.027,5.027,0,0,1,2.553,1.35c.448-.939.881-1.884,1.293-2.839a6,6,0,0,0,.685-3.781c-.2-.772-.691-1.438-.944-2.2-.579-1.735.165-3.6.895-5.279l2.949-6.76c.719-1.65,2.115-3.666,1.75-5.553a4.946,4.946,0,0,0-1.339-2.224,73.387,73.387,0,0,0-27.173-19.145c-9.571-3.886-20.345-5.175-28.325-12.365.33.3-.568,3.589-.642,4.033-.239,1.434-.531,2.875-.7,4.318A16.428,16.428,0,0,1,1210,433.8a51.257,51.257,0,0,1-5.832-3.753,11.971,11.971,0,0,1-3.978-4.3,27.12,27.12,0,0,0-2.311,8.347,26.1,26.1,0,0,0-.133,4.342c0,.043.1,3.169-.21,2.781-1.162-1.442-2.061-3.172-3.126-4.7.213.3-.454,2.532-.505,3a26.92,26.92,0,0,0-.156,3.312,27.986,27.986,0,0,0,3.281,12.744c.571,1.068,2.2,4.646,3.452,4.967a.529.529,0,0,0,.128,0A1.223,1.223,0,0,0,1201.028,460.461Zm-.7-2.128a1.769,1.769,0,0,1-.714-.545c-2.424-2.652-4-6.536-4.93-9.991-.561-2.084.35-4.178-.124-6.134.89,3.668,3.983,6.319,6.9,8.708a27.624,27.624,0,0,1,1.234-13.786c.369,2.3,1.979,4.2,3.708,5.762,4.113,3.712,9.17,6.178,14.155,8.6a19.541,19.541,0,0,1-3.159-12.991c1.265,2.92,4.089,4.838,6.91,6.313,7.3,3.815,15.782,5.956,21.44,11.937a21.276,21.276,0,0,1,4.926,8.555,1.871,1.871,0,0,0-1.153-.951c-5.385-2.264-11.452-1.879-17.277-2.312a59.871,59.871,0,0,1-23.266-6.656,17.919,17.919,0,0,1-7.806,3.489A1.75,1.75,0,0,1,1200.323,458.333Z" transform="translate(-824.735 -272.411)" fill="#20315b"/>
          <path id="Trazado_1066382" data-name="Trazado 1066382" d="M1211.518,491.98a59.868,59.868,0,0,0,23.266,6.656c5.826.434,11.892.049,17.277,2.312a1.872,1.872,0,0,1,1.153.951,21.271,21.271,0,0,0-4.926-8.555c-5.658-5.981-14.144-8.123-21.44-11.937-2.821-1.474-5.645-3.392-6.91-6.313a19.54,19.54,0,0,0,3.159,12.991c-4.984-2.419-10.042-4.886-14.155-8.6-1.729-1.56-3.338-3.462-3.708-5.762A27.628,27.628,0,0,0,1204,487.513c-2.922-2.389-6.015-5.04-6.9-8.708.474,1.956-.437,4.05.124,6.133.931,3.455,2.506,7.339,4.93,9.991a1.768,1.768,0,0,0,.714.545,1.748,1.748,0,0,0,.847-.007A17.914,17.914,0,0,0,1211.518,491.98Z" transform="translate(-827.277 -309.553)" fill="#2e5186"/>
          <path id="Trazado_1066383" data-name="Trazado 1066383" d="M1456.826,693.158a18.47,18.47,0,0,0-5.23,6.2,24.532,24.532,0,0,0-2.851,7.868,20.323,20.323,0,0,0-.283,3.517c.017,1.989.377,4.635,2.259,5.76a3.488,3.488,0,0,0,1.967.472c.026,0,.053,0,.079-.006,2.71-.155,5.748-2.843,7.325-4.46.4-.409.774-.84,1.138-1.281a22.236,22.236,0,0,0,4.39-8.782,14.866,14.866,0,0,0,.492-3.985,8.848,8.848,0,0,0-.365-2.307,6.7,6.7,0,0,0-1.775-2.883,5.028,5.028,0,0,0-2.553-1.35A6.24,6.24,0,0,0,1456.826,693.158Zm4.416,4.9c-1.8-1.139-3.294,1.948-4,3.124q-.756,1.27-1.423,2.591a21,21,0,0,1,4.743.289.68.68,0,0,1,.47.829.693.693,0,0,1-.829.471,19.406,19.406,0,0,0-4.913-.217.514.514,0,0,1-.105-.018c-.2.429-.409.854-.595,1.29a4.281,4.281,0,0,1,.947,4.139,7.442,7.442,0,0,1-3.212,3.254c-.732.472-1.407-.7-.68-1.163a6.976,6.976,0,0,0,2.469-2.221c.69-1.244.026-2.442-.771-3.449a.677.677,0,0,1-.173-.655,45.348,45.348,0,0,1,3.667-7.046c1.066-1.659,2.943-3.739,5.082-2.384C1462.654,697.353,1461.977,698.519,1461.243,698.054Z" transform="translate(-1021.91 -478.401)" fill="#f39776"/>
          <path id="Trazado_1066384" data-name="Trazado 1066384" d="M1466.7,715.054a45.4,45.4,0,0,0-3.667,7.046.677.677,0,0,0,.173.655c.8,1.007,1.462,2.2.771,3.449a6.973,6.973,0,0,1-2.47,2.221c-.727.467-.052,1.635.68,1.163a7.442,7.442,0,0,0,3.212-3.254,4.281,4.281,0,0,0-.947-4.139c.186-.436.395-.861.595-1.29a.669.669,0,0,1,.106-1.33c.176-.014.352-.015.528-.024q.67-1.318,1.423-2.591c.7-1.176,2.2-4.263,4-3.124.734.465,1.411-.7.68-1.164C1469.64,711.315,1467.763,713.4,1466.7,715.054Z" transform="translate(-1031.766 -494.182)" fill="#d46566"/>
          <path id="Trazado_1066385" data-name="Trazado 1066385" d="M1475.73,745.221a.686.686,0,0,0,.568.656.524.524,0,0,0,.105.018,19.412,19.412,0,0,1,4.913.217.693.693,0,0,0,.829-.471.68.68,0,0,0-.47-.829,21.01,21.01,0,0,0-4.743-.289c-.176.009-.352.01-.528.024A.692.692,0,0,0,1475.73,745.221Z" transform="translate(-1043.018 -519.154)" fill="#d46566"/>
          <path id="Trazado_1066386" data-name="Trazado 1066386" d="M1247.874,708.745a5.517,5.517,0,0,0,2.348,1.373c1.341.505,2.7.976,4.043,1.464.816.3,1.169-1.006.358-1.3l-3.234-1.17c-.883-.319-2.425-.659-2.758-1.688-.318-.986.465-2.614.761-3.561.353-1.134.738-2.258,1.13-3.379a72.034,72.034,0,0,0,3.747-12.955c.128-.848-1.17-1.213-1.3-.357-.8,5.316-2.893,10.25-4.556,15.328C1247.831,704.28,1246.424,707.066,1247.874,708.745Z" transform="translate(-866.143 -474.403)" fill="#d46566"/>
          <path id="Trazado_1066387" data-name="Trazado 1066387" d="M1307.777,612.982a33.532,33.532,0,0,1,11.857,3.81,32.6,32.6,0,0,1,4.87,3.242A23.024,23.024,0,0,0,1313.1,609.31a11.158,11.158,0,0,0-5.932-.889,6,6,0,0,0-3.1,1.415,5.069,5.069,0,0,0-1,1.271,14.031,14.031,0,0,0-.562,1.473A27.154,27.154,0,0,1,1307.777,612.982Z" transform="translate(-908.921 -413.735)" fill="#20315b"/>
          <path id="Trazado_1066388" data-name="Trazado 1066388" d="M1221.11,635.851a5.715,5.715,0,0,0,2.707,2.532c1.6.742,3.808-.462,5-1.5a6.766,6.766,0,0,0,2.262-4.328c-.087.8-3,1.869-3.648,2.09a8.473,8.473,0,0,1-2.9.426,13.3,13.3,0,0,1-2.907-.163c-.2-.049-.455-.092-.592.067a.466.466,0,0,0-.066.391A2.272,2.272,0,0,0,1221.11,635.851Z" transform="translate(-845.792 -432.502)" fill="#20315b"/>
          <path id="Trazado_1066389" data-name="Trazado 1066389" d="M992.21,1218.012c1.776-3.509,4.312-6.943,8.021-8.255.059-.021.122-.036.183-.056.1-.169.209-.337.313-.506q10.305-16.766,20.561-33.563.005-.878,0-1.755c-11.545,15.942-22.685,33.664-36.255,48.174h5.352C990.976,1220.682,991.555,1219.309,992.21,1218.012Z" transform="translate(-663.167 -851.542)" fill="#fff8dc"/>
          <path id="Trazado_1066390" data-name="Trazado 1066390" d="M782.826,1310.024a26.625,26.625,0,0,1,.537-10.987,39.478,39.478,0,0,1,1.979-5.962c.083-.2.183-.388.269-.585a26.218,26.218,0,0,0-5.091,9.114,12.739,12.739,0,0,0-.36,1.842c-.637,5.312,1.828,10.749,5.641,15.324h4.719C786.5,1316.329,783.73,1314.926,782.826,1310.024Z" transform="translate(-504.498 -943.36)" fill="#fff8dc"/>
          <path id="Trazado_1066391" data-name="Trazado 1066391" d="M1067.16,1331.979c.016.007.031.017.047.025l.037-.162C1067.216,1331.887,1067.187,1331.932,1067.16,1331.979Z" transform="translate(-726.744 -973.822)" fill="#fff8dc"/>
          <path id="Trazado_1066392" data-name="Trazado 1066392" d="M1065.057,1247.719c2.318-2.539,3.515-5.883,4.528-9.168a133.361,133.361,0,0,0,5.751-33.065q-7.283,11.91-14.578,23.814a1.361,1.361,0,0,1,.525,1.352,93.789,93.789,0,0,1-6.1,20.477q-.136,1.519-.145,3.05,1.674-.865,3.285-1.736A24.679,24.679,0,0,0,1065.057,1247.719Z" transform="translate(-717.358 -876.01)" fill="#fff8dc"/>
          <path id="Trazado_1066393" data-name="Trazado 1066393" d="M1167.847,750.237a88.08,88.08,0,0,1,18.5,16.179.625.625,0,0,1,.449-.19,57.255,57.255,0,0,0,11.362-1.16,14.631,14.631,0,0,0,7.932-4.162c-4.456-.1-8.909-.4-13.368-.28a.674.674,0,0,1,0-1.348c4.854-.125,9.7.243,14.551.3a.625.625,0,0,1,.309-.058,6.87,6.87,0,0,0,1.867-.228c.545-.118,1.088-.24,1.622-.4a6,6,0,0,0,2.637-1.428,5.032,5.032,0,0,0,1.32-4.581c-6.608-.886-13.339-.657-19.984-1.07-.863-.053-.866-1.4,0-1.347,6.8.421,13.668.21,20.428,1.127a.615.615,0,0,1,.209.074,2.9,2.9,0,0,0,1.647-1.72,9.165,9.165,0,0,0,.715-3.117,3.8,3.8,0,0,0-2.945-3.87l-.009,0a.64.64,0,0,1-.5.078c-6.97-1.67-14.067-1.394-21.177-1.455a.674.674,0,0,1,0-1.348c6.634.058,13.248-.137,19.767,1.138-.794-5.931-9.348-6.354-13.9-6.758-5.142-.456-10.311-.609-15.418-1.359q.384.3.787.576c.711.488.037,1.656-.68,1.164a18.576,18.576,0,0,1-7.991-14.245.563.563,0,0,1,.265-.534,23.018,23.018,0,0,0-.483-4.321c-.606-2.459-2.478-4.959-5.251-5.27a3.556,3.556,0,0,0-2.466.541c-2.151,1.577-1.309,7.519-1.207,9.784a121.6,121.6,0,0,1-.014,12.954,66.188,66.188,0,0,1-2.335,14.257A22.785,22.785,0,0,1,1167.847,750.237Z" transform="translate(-802.078 -492.916)" fill="#f39776"/>
          <path id="Trazado_1066394" data-name="Trazado 1066394" d="M1215.346,753.338a18.574,18.574,0,0,0,7.991,14.245c.717.492,1.391-.676.68-1.164q-.4-.276-.787-.576-1.111-.163-2.219-.366c-.853-.158-.489-1.458.358-1.3l.04.006a17.17,17.17,0,0,1-4.714-10.845.7.7,0,0,0-.99-.588.616.616,0,0,0-.093.054A.566.566,0,0,0,1215.346,753.338Z" transform="translate(-841.454 -525.502)" fill="#d46566"/>
          <path id="Trazado_1066395" data-name="Trazado 1066395" d="M1271.694,813.547c-.5-5.981-7.156-7.44-12.041-8.05-6.817-.852-13.728-.765-20.5-2.014l-.04-.007c-.847-.157-1.211,1.142-.358,1.3q1.108.2,2.22.366c5.107.75,10.277.9,15.418,1.359,4.557.4,13.111.827,13.9,6.758C1270.766,813.35,1271.231,813.44,1271.694,813.547Z" transform="translate(-859.201 -564.802)" fill="#d46566"/>
          <path id="Trazado_1066396" data-name="Trazado 1066396" d="M1311.87,843.3s-.007,0-.012-.006c-.124-.03-.25-.049-.374-.077-.464-.107-.929-.2-1.394-.288-6.52-1.275-13.134-1.081-19.767-1.138a.674.674,0,0,0,0,1.348c7.11.061,14.207-.216,21.177,1.454a.639.639,0,0,0,.5-.078A.663.663,0,0,1,1311.87,843.3Z" transform="translate(-898.99 -594.474)" fill="#d46566"/>
          <path id="Trazado_1066397" data-name="Trazado 1066397" d="M1317.913,888.4a2.1,2.1,0,0,0,.3-.109.617.617,0,0,0-.209-.074c-6.76-.917-13.629-.706-20.428-1.127-.867-.054-.863,1.294,0,1.347,6.645.413,13.376.184,19.984,1.07-.015-.069-.026-.139-.044-.207A.6.6,0,0,1,1317.913,888.4Z" transform="translate(-904.604 -629.535)" fill="#d46566"/>
          <path id="Trazado_1066398" data-name="Trazado 1066398" d="M1356.2,932.887c.211,0,.422.011.633.011a.615.615,0,0,0,.43-.167,6.16,6.16,0,0,1-1.009.088C1356.236,932.844,1356.216,932.864,1356.2,932.887Z" transform="translate(-950.49 -664.87)" fill="#d46566"/>
          <path id="Trazado_1066399" data-name="Trazado 1066399" d="M1301.34,926.786a.693.693,0,0,1,.232-.208.55.55,0,0,1,.273-.286c-4.851-.059-9.7-.427-14.551-.3a.674.674,0,0,0,0,1.348c4.459-.115,8.912.183,13.368.28A10.082,10.082,0,0,0,1301.34,926.786Z" transform="translate(-896.646 -659.631)" fill="#d46566"/>
          <path id="Trazado_1066400" data-name="Trazado 1066400" d="M1282.737,929.752c.017-.023.036-.044.054-.067-.086,0-.171.006-.257,0a.7.7,0,0,1-.582-1,.7.7,0,0,0-.232.208,9.785,9.785,0,0,1-.677.832,14.63,14.63,0,0,1-7.932,4.162,57.255,57.255,0,0,1-11.362,1.16.626.626,0,0,0-.449.19c.328.38.659.759.98,1.145a54.052,54.052,0,0,0,11.908-1.365A14.838,14.838,0,0,0,1282.737,929.752Z" transform="translate(-877.027 -661.735)" fill="#d46566"/>
          <path id="Trazado_1066401" data-name="Trazado 1066401" d="M1352.511,904.059a.7.7,0,0,0,.582,1c.086.005.172,0,.257,0a6.132,6.132,0,0,0,1.009-.088c.3-.049.6-.11.891-.173.635-.136,1.27-.277,1.889-.471a7.164,7.164,0,0,0,3.112-1.8,6.463,6.463,0,0,0,1.756-4.426,6.11,6.11,0,0,0-.1-1.048,3.125,3.125,0,0,1-.656.214.672.672,0,0,1-.759-.4c.018.068.029.138.044.207a5.034,5.034,0,0,1-1.32,4.581,6.006,6.006,0,0,1-2.637,1.428c-.534.157-1.078.279-1.623.4a6.858,6.858,0,0,1-1.867.228.628.628,0,0,0-.309.058A.553.553,0,0,0,1352.511,904.059Z" transform="translate(-947.588 -637.112)" fill="#d46566"/>
          <path id="Trazado_1066402" data-name="Trazado 1066402" d="M1386.818,859.078a.672.672,0,0,0,.759.4,3.13,3.13,0,0,0,.656-.214,4.152,4.152,0,0,0,1.989-2,10.237,10.237,0,0,0,1-4.026,5.153,5.153,0,0,0-3.934-5.169.686.686,0,0,0-.25-.008.616.616,0,0,0-.251.088.663.663,0,0,0,.134,1.215s.005,0,.009,0a3.8,3.8,0,0,1,2.945,3.87,9.157,9.157,0,0,1-.715,3.117,2.9,2.9,0,0,1-1.647,1.72,2.074,2.074,0,0,1-.3.109A.6.6,0,0,0,1386.818,859.078Z" transform="translate(-973.908 -599.317)" fill="#d46566"/>
          <path id="Trazado_1066403" data-name="Trazado 1066403" d="M855.981,940.837a3.386,3.386,0,0,1-3.372,3.382h-40.84c-1.795,2.192-3.608,4.368-5.388,6.572-4.74,5.871-9.466,11.887-12.494,18.788-.086.2-.186.387-.269.585a39.49,39.49,0,0,0-1.979,5.962,26.63,26.63,0,0,0-.537,10.988c.9,4.9,3.676,6.3,7.693,8.745H813.58v-1.553a3.356,3.356,0,0,1,3.346-3.346h17.711c13.57-14.51,24.71-32.231,36.255-48.174.231-.319.461-.643.693-.961.685-1.755,2.608-3.585,3.718-5.12q1.345-1.86,2.681-3.727,6.239-10.164,12.513-20.306a1.316,1.316,0,0,1,1.867-.414l.114-.171c2.919-4.389,5.763-8.822,8.424-13.371-.923-1.237-1.889-2.439-2.876-3.623-.322-.386-.652-.764-.98-1.145a88.081,88.081,0,0,0-18.5-16.178,22.868,22.868,0,0,0-3.368-2.074,3.82,3.82,0,0,0-2.753-.162c-1.9.606-4.712,4.988-6.114,6.48q-5.207,5.543-10.327,11.165v47.659Z" transform="translate(-512.775 -620.45)" fill="#fff8dc"/>
          <path id="Trazado_1066404" data-name="Trazado 1066404" d="M1053.439,1103.837c-.1.169-.209.337-.313.506a4.57,4.57,0,0,1,3.17,0l.084-.137c.3-1.358.585-2.721.826-4.093a1.228,1.228,0,0,1,2.074-.636q7.3-11.9,14.578-23.813,4.944-8.084,9.9-16.161,4.143-6.745,8.311-13.474.709-1.148,1.417-2.3c.816-1.319,1.625-2.642,2.442-3.959a1.231,1.231,0,0,0-.459-1.775,1.316,1.316,0,0,0-1.867.414q-6.282,10.137-12.513,20.306-3.548,5.78-7.09,11.563Q1063.723,1087.055,1053.439,1103.837Z" transform="translate(-715.88 -746.181)" fill="#f0d3ca"/>
          <path id="Trazado_1066405" data-name="Trazado 1066405" d="M1061.254,1309.752a1.227,1.227,0,0,0-2.074.636c-.241,1.372-.524,2.735-.826,4.093l-.037.162a2.481,2.481,0,0,1,.759.536,3.321,3.321,0,0,1,.66,2.905,11.6,11.6,0,0,1-1.156,2.86,29.757,29.757,0,0,0-2.9,10.636,93.8,93.8,0,0,0,6.1-20.477A1.36,1.36,0,0,0,1061.254,1309.752Z" transform="translate(-717.854 -956.463)" fill="#f0d3ca"/>
          <path id="Trazado_1066406" data-name="Trazado 1066406" d="M1016.225,1359.385a42.488,42.488,0,0,1-.725-7.9q.008-1.53.145-3.05a29.758,29.758,0,0,1,2.9-10.636,11.588,11.588,0,0,0,1.156-2.86,3.322,3.322,0,0,0-.66-2.905,2.48,2.48,0,0,0-.759-.536c-.016-.008-.031-.018-.047-.025a4.57,4.57,0,0,0-3.17,0c-.06.02-.124.035-.183.056-3.709,1.311-6.245,4.745-8.021,8.254-.656,1.3-1.232,2.67-1.827,4.04h5.987a3.356,3.356,0,0,1,3.346,3.346v18.251a3.356,3.356,0,0,1-3.346,3.346h-7.06v20.039h0c1.167.058,2.334.113,3.5.236a7.838,7.838,0,0,0,4.257-.656,105.075,105.075,0,0,1,2.915-22.991C1015.116,1363.424,1015.576,1361.35,1016.225,1359.385Z" transform="translate(-677.823 -973.321)" fill="#f39776"/>
          <path id="Trazado_1066407" data-name="Trazado 1066407" d="M1041.458,1484.36c8.791,2.728,17.632,5.3,26.533,7.644q22.457,5.926,45.371,9.873c13.808,2.357,27.707,4.125,41.649,5.469,3.185-.03,6.37-.094,9.55-.158a8.637,8.637,0,0,0,3.8-.657,4.438,4.438,0,0,0,.94-.664,3.9,3.9,0,0,1-1.23.646c-5.2,1.634-11.043-6.65-14.443-9.451-7.8-6.426-17.071-11.917-17.826-22.917-.357-5.2.784-10.367,2.118-15.411-.033-.035-.064-.071-.1-.106a1.387,1.387,0,0,1-.3-.478q-10.564-.658-21.117-1.486-36.526-2.914-72.689-8.892a1.2,1.2,0,0,1-.625-.289,4.973,4.973,0,0,0-.225.483c-.188.468-.35.953-.511,1.438-.649,1.964-1.109,4.04-1.587,6.019a105.089,105.089,0,0,0-2.915,22.991c-.008.528-.024,1.056-.025,1.585,0,1.366-.471,4.185.544,5.132a3.993,3.993,0,0,0,1.443.732A1.3,1.3,0,0,1,1041.458,1484.36Z" transform="translate(-703.953 -1063.34)" fill="#fff8dc"/>
          <path id="Trazado_1066408" data-name="Trazado 1066408" d="M1521.766,1054.137a58.24,58.24,0,0,0-10.8-6.5.43.43,0,0,1-.169.164c-.406.166,1,1.112.844,1.519q-1.577,4-3.164,8.007-6.9,17.411-14.021,34.716a1.479,1.479,0,0,1,1.011,2.014,475.97,475.97,0,0,0-19.915,53.038c0,.015-.012.027-.018.042.023.022.048.038.072.062a126.65,126.65,0,0,1,18.218,24.759,1.348,1.348,0,0,1-2.327,1.36,123.68,123.68,0,0,0-17.7-24.107c-1.334,5.044-2.475,10.213-2.118,15.411.755,11,10.024,16.491,17.826,22.917,3.4,2.8,9.245,11.085,14.443,9.451a3.894,3.894,0,0,0,1.23-.646c1.928-1.49,2.144-4.568,2.942-6.718.438-1.178.912-2.341,1.4-3.5,1.305-3.107,2.714-6.181,3.838-9.375q11.668-33.138,21.693-66.823c3.888-13.064,9.127-32.27.806-44.714-2.711-4.054-7.294-8.313-12.222-11.859A1.165,1.165,0,0,1,1521.766,1054.137Z" transform="translate(-1039.831 -753.821)" fill="#fff8dc"/>
          <path id="Trazado_1066409" data-name="Trazado 1066409" d="M1481,1488.874a1.131,1.131,0,0,1-1.2.736l-.271-.018a1.385,1.385,0,0,0,.3.478c.033.035.064.071.1.106a123.715,123.715,0,0,1,17.7,24.107,1.348,1.348,0,0,0,2.327-1.36,126.661,126.661,0,0,0-18.218-24.759c-.023-.025-.048-.04-.072-.062A1.267,1.267,0,0,1,1481,1488.874Z" transform="translate(-1045.958 -1094.783)" fill="#f0d3ca"/>
          <path id="Trazado_1066410" data-name="Trazado 1066410" d="M1498.242,1244.724q-4.36,9.791-8.285,19.764c.084.159.161.322.245.48a1.371,1.371,0,0,1-.483,1.843,1.318,1.318,0,0,1-.715.152q-5.922,15.3-10.8,30.976l.57.038a1.417,1.417,0,0,1,1.2,1.959,1.272,1.272,0,0,0,.666-.772c.005-.015.013-.026.017-.042a476.01,476.01,0,0,1,19.915-53.038,1.479,1.479,0,0,0-1.011-2.015A1.069,1.069,0,0,0,1498.242,1244.724Z" transform="translate(-1044.934 -905.844)" fill="#f0d3ca"/>
          <path id="Trazado_1066411" data-name="Trazado 1066411" d="M1505.771,1299.222a1.37,1.37,0,0,0,.483-1.843c-.085-.159-.161-.321-.245-.48a79.067,79.067,0,0,1-4.409-10.013,1.382,1.382,0,0,0-1.657-.942,1.36,1.36,0,0,0-.941,1.658,84.03,84.03,0,0,0,4.925,11.137,1.293,1.293,0,0,0,1.129.635A1.306,1.306,0,0,0,1505.771,1299.222Z" transform="translate(-1060.985 -938.255)" fill="#f0d3ca"/>
          <path id="Trazado_1066412" data-name="Trazado 1066412" d="M1156.219,1449.44a1.417,1.417,0,0,0-1.2-1.959l-.57-.037c-23.945-1.5-47.839-3.662-71.6-7.012q-10.615-1.5-21.191-3.25a1.43,1.43,0,0,0-1.341,2.31,1.2,1.2,0,0,0,.625.289q36.154,5.955,72.689,8.892,10.552.843,21.117,1.486l.271.018A1.128,1.128,0,0,0,1156.219,1449.44Z" transform="translate(-721.181 -1055.349)" fill="#f0d3ca"/>
          <path id="Trazado_1066413" data-name="Trazado 1066413" d="M1140.508,1633.739c9.2,1.21,18.427,2.191,27.67,3,1.727.151,1.717-2.544,0-2.695q-3.01-.264-6.017-.554c-13.941-1.344-27.84-3.112-41.648-5.469q-22.9-3.907-45.371-9.873c-8.9-2.349-17.741-4.917-26.533-7.645a1.3,1.3,0,0,0-1.642,1.5,1.267,1.267,0,0,0,.925,1.1l.332.1c15.307,4.741,30.771,8.981,46.414,12.467Q1117.38,1630.744,1140.508,1633.739Z" transform="translate(-711.103 -1189.485)" fill="#f0d3ca"/>
          <path id="Trazado_1066414" data-name="Trazado 1066414" d="M1096.787,1905.881c-1.734-.071-1.731,2.623,0,2.7q9.809.406,19.628-.05v-2.7Q1106.606,1906.277,1096.787,1905.881Z" transform="translate(-748.672 -1418.147)" fill="#f0d3ca"/>
          <path id="Trazado_1066415" data-name="Trazado 1066415" d="M1452.62,1841.407c.842-.3,1.688-.6,2.526-.91s1.695-.639,2.539-.966l.844-.33.355-.14c1.836,2.145,4.639-1.934,1.711-2.937-1.314-.451-2.863.514-4.049.97q-2.535.978-5.094,1.891c-2.358.843-4.735,1.632-7.12,2.394h7.761C1452.272,1841.38,1452.446,1841.393,1452.62,1841.407Z" transform="translate(-1018.713 -1364.098)" fill="#f0d3ca"/>
          <path id="Trazado_1066416" data-name="Trazado 1066416" d="M1586.931,1025a59.386,59.386,0,0,0-15.934-8.616,60.687,60.687,0,0,0-15.667-3.373c-1.729-.137-1.72,2.558,0,2.694a57.056,57.056,0,0,1,19.441,5.125,58.254,58.254,0,0,1,10.8,6.5,1.166,1.166,0,0,0,1.869-.779,1.521,1.521,0,0,0,.01-.766A1.376,1.376,0,0,0,1586.931,1025Z" transform="translate(-1103.636 -727.01)" fill="#f0d3ca"/>
          <path id="Trazado_1066417" data-name="Trazado 1066417" d="M1579.942,981.648a1.416,1.416,0,0,0,.447-.27c3.843-3.428,9.272-3.888,14.17-4.295a1.383,1.383,0,0,0,1.348-1.348,1.358,1.358,0,0,0-1.348-1.348c-5.684.473-11.637,1.123-16.076,5.085a1.142,1.142,0,0,0-.4,1.133A1.456,1.456,0,0,0,1579.942,981.648Z" transform="translate(-1122.228 -697.113)" fill="#f0d3ca"/>
          <path id="Trazado_1066418" data-name="Trazado 1066418" d="M187.165,358.17a.656.656,0,1,1,0-1.313h8.23V355.2h-8.23a.657.657,0,0,1,0-1.314h8.23v-1.654h-8.23a.657.657,0,0,1,0-1.314h8.23v-2.69h-8.23a.657.657,0,1,1,0-1.313h8.23v-1.654h-8.23a.657.657,0,0,1,0-1.314h8.23V342.3h-8.23a.657.657,0,0,1,0-1.314h8.23v-1.654h-8.23a.657.657,0,0,1,0-1.314h8.23v-1.654h-8.23a.657.657,0,0,1,0-1.314h8.23v-7.078h-8.23a.657.657,0,0,1,0-1.314h8.23V325h-8.23a.657.657,0,0,1,0-1.314h8.23v-1.653h-8.23a.657.657,0,0,1,0-1.314h8.23V318.24h-8.23a.657.657,0,0,1,0-1.314h8.23v-1.655h-8.23a.656.656,0,1,1,0-1.312h8.23V312.3h-8.23a.658.658,0,0,1,0-1.315h8.23v-1.654h-8.23a.657.657,0,0,1,0-1.314h8.23v-.1s0,0,0,0a3.33,3.33,0,0,1,.092-.747c.018-.078.047-.151.071-.227a3.347,3.347,0,0,1,.178-.468c.016-.035.023-.074.041-.108h-8.613a.657.657,0,0,1,0-1.313H197a3.37,3.37,0,0,1,.434-.225c.032-.014.066-.023.1-.036a3.289,3.289,0,0,1,.468-.146c.054-.013.108-.025.164-.035a3.287,3.287,0,0,1,.594-.061h77.393V255.434a3.336,3.336,0,0,0-.783-2.128,3.338,3.338,0,0,1,.783,2.128v10.992H128.339V255.434a3.363,3.363,0,0,1,.989-2.378,3.362,3.362,0,0,0-.989,2.378V403.888a3.386,3.386,0,0,0,3.372,3.382H195.4v-49.1Zm0-78.514h81.478a.657.657,0,1,1,0,1.314H187.165a.657.657,0,1,1,0-1.314Zm0,2.968h81.478a.657.657,0,1,1,0,1.314H187.165a.657.657,0,1,1,0-1.314Zm0,2.968h81.478a.657.657,0,1,1,0,1.313H187.165a.657.657,0,1,1,0-1.313Zm0,2.967h66.756a.657.657,0,1,1,0,1.314H187.165a.657.657,0,1,1,0-1.314Zm0,2.968h64.477a.657.657,0,0,1,0,1.314H187.165a.657.657,0,1,1,0-1.314Zm0,3.8h81.478a.657.657,0,1,1,0,1.313H187.165a.657.657,0,1,1,0-1.313Zm0,2.967h81.478a.657.657,0,0,1,0,1.314H187.165a.657.657,0,0,1,0-1.314Zm-8.652,59.881H134.452V279.656h44.061v78.515Zm8.652-56.912h81.478a.657.657,0,0,1,0,1.314H187.165a.657.657,0,0,1,0-1.314Z" transform="translate(0 -138.732)" fill="#8996cb"/>
          <path id="Trazado_1066419" data-name="Trazado 1066419" d="M128.339,263.024H276.151V252.032a3.422,3.422,0,0,0-3.371-3.371H131.71a3.383,3.383,0,0,0-3.371,3.371v10.992Zm60.034-9.6h79.062a1.865,1.865,0,0,1,0,3.731H188.374a1.865,1.865,0,1,1,0-3.731Zm-54.7.266a.661.661,0,0,1,.935-.935l2.151,2.151,2.151-2.151a.661.661,0,1,1,.935.935l-2.151,2.151,2.151,2.151a.661.661,0,1,1-.935.935l-2.151-2.151-2.151,2.151a.661.661,0,1,1-.935-.935l2.151-2.151Z" transform="translate(0 -135.329)" fill="#2a3466"/>
          <path id="Trazado_1066420" data-name="Trazado 1066420" d="M168.708,267.066a.661.661,0,0,0-.935-.935l-2.151,2.151.935.935Z" transform="translate(-28.861 -148.703)" fill="#fff"/>
          <path id="Trazado_1066421" data-name="Trazado 1066421" d="M151.3,283.538a.664.664,0,0,0,.935,0l2.151-2.151-.935-.935L151.3,282.6A.664.664,0,0,0,151.3,283.538Z" transform="translate(-17.626 -159.939)" fill="#fff"/>
          <path id="Trazado_1066422" data-name="Trazado 1066422" d="M156.538,272.3a.661.661,0,1,0,.935-.935l-2.151-2.151-.935-.935-2.151-2.151a.661.661,0,0,0-.935.935l2.151,2.151.935.935Z" transform="translate(-17.626 -148.703)" fill="#fff"/>
          <path id="Trazado_1066423" data-name="Trazado 1066423" d="M386.5,372.123h81.478a.657.657,0,0,0,0-1.314H386.5a.657.657,0,1,0,0,1.314Z" transform="translate(-199.332 -229.884)" fill="#fff"/>
          <path id="Trazado_1066424" data-name="Trazado 1066424" d="M386.5,385.262h81.478a.657.657,0,0,0,0-1.314H386.5a.657.657,0,1,0,0,1.314Z" transform="translate(-199.332 -240.055)" fill="#fff"/>
          <path id="Trazado_1066425" data-name="Trazado 1066425" d="M386.5,398.4h81.478a.657.657,0,1,0,0-1.313H386.5a.657.657,0,1,0,0,1.313Z" transform="translate(-199.332 -250.226)" fill="#fff"/>
          <path id="Trazado_1066426" data-name="Trazado 1066426" d="M386.5,411.536h66.756a.657.657,0,1,0,0-1.314H386.5a.657.657,0,1,0,0,1.314Z" transform="translate(-199.332 -260.394)" fill="#fff"/>
          <path id="Trazado_1066427" data-name="Trazado 1066427" d="M386.5,424.675h64.477a.657.657,0,0,0,0-1.314H386.5a.657.657,0,1,0,0,1.314Z" transform="translate(-199.332 -270.565)" fill="#fff"/>
          <path id="Trazado_1066428" data-name="Trazado 1066428" d="M386.5,441.475h81.478a.657.657,0,1,0,0-1.313H386.5a.657.657,0,1,0,0,1.313Z" transform="translate(-199.332 -283.571)" fill="#fff"/>
          <path id="Trazado_1066429" data-name="Trazado 1066429" d="M386.5,454.612h81.478a.657.657,0,0,0,0-1.314H386.5a.657.657,0,0,0,0,1.314Z" transform="translate(-199.332 -293.739)" fill="#fff"/>
          <path id="Trazado_1066430" data-name="Trazado 1066430" d="M386.5,467.75h81.478a.657.657,0,0,0,0-1.314H386.5a.657.657,0,0,0,0,1.314Z" transform="translate(-199.332 -303.909)" fill="#fff"/>
          <path id="Trazado_1066431" data-name="Trazado 1066431" d="M395.561,483.914c.038-.044.07-.091.11-.133a3.417,3.417,0,0,1,.619-.509c.016-.01.027-.025.043-.035H386.5a.657.657,0,0,0,0,1.313h8.613c.02-.039.054-.068.075-.106A3.351,3.351,0,0,1,395.561,483.914Z" transform="translate(-199.333 -316.915)" fill="#fff"/>
          <path id="Trazado_1066432" data-name="Trazado 1066432" d="M386.5,496.372a.657.657,0,0,0,0,1.314h8.23v-1.314Z" transform="translate(-199.333 -327.083)" fill="#fff"/>
          <path id="Trazado_1066433" data-name="Trazado 1066433" d="M386.5,509.511a.658.658,0,0,0,0,1.315h8.23v-1.315Z" transform="translate(-199.333 -337.254)" fill="#fff"/>
          <path id="Trazado_1066434" data-name="Trazado 1066434" d="M386.5,522.653a.656.656,0,1,0,0,1.312h8.23v-1.312Z" transform="translate(-199.333 -347.427)" fill="#fff"/>
          <path id="Trazado_1066435" data-name="Trazado 1066435" d="M386.5,535.788a.657.657,0,0,0,0,1.314h8.23v-1.314Z" transform="translate(-199.333 -357.595)" fill="#fff"/>
          <path id="Trazado_1066436" data-name="Trazado 1066436" d="M386.5,552.585a.657.657,0,0,0,0,1.314h8.23v-1.315H386.5Z" transform="translate(-199.333 -370.598)" fill="#fff"/>
          <path id="Trazado_1066437" data-name="Trazado 1066437" d="M386.5,565.721a.657.657,0,0,0,0,1.315h8.23v-1.315Z" transform="translate(-199.333 -380.766)" fill="#fff"/>
          <path id="Trazado_1066438" data-name="Trazado 1066438" d="M386.5,578.861a.657.657,0,0,0,0,1.314h8.23v-1.314Z" transform="translate(-199.333 -390.938)" fill="#fff"/>
          <path id="Trazado_1066439" data-name="Trazado 1066439" d="M386.5,616.009a.657.657,0,0,0,0,1.314h8.23v-1.314H386.5Z" transform="translate(-199.333 -419.694)" fill="#fff"/>
          <path id="Trazado_1066440" data-name="Trazado 1066440" d="M386.5,629.148a.657.657,0,0,0,0,1.314h8.23v-1.314Z" transform="translate(-199.333 -429.865)" fill="#fff"/>
          <path id="Trazado_1066441" data-name="Trazado 1066441" d="M386.5,642.284a.657.657,0,0,0,0,1.314h8.23v-1.314Z" transform="translate(-199.333 -440.034)" fill="#fff"/>
          <path id="Trazado_1066442" data-name="Trazado 1066442" d="M386.5,655.421a.657.657,0,0,0,0,1.314h8.23v-1.314H386.5Z" transform="translate(-199.333 -450.203)" fill="#fff"/>
          <path id="Trazado_1066443" data-name="Trazado 1066443" d="M386.5,668.561a.657.657,0,0,0,0,1.313h8.23v-1.313Z" transform="translate(-199.333 -460.375)" fill="#fff"/>
          <path id="Trazado_1066444" data-name="Trazado 1066444" d="M386.5,686.282a.657.657,0,0,0,0,1.314h8.23v-1.314Z" transform="translate(-199.333 -474.093)" fill="#fff"/>
          <path id="Trazado_1066445" data-name="Trazado 1066445" d="M386.5,699.421a.657.657,0,0,0,0,1.314h8.23v-1.314H386.5Z" transform="translate(-199.333 -484.264)" fill="#fff"/>
          <path id="Trazado_1066446" data-name="Trazado 1066446" d="M386.5,712.563a.656.656,0,1,0,0,1.313h8.23v-1.313Z" transform="translate(-199.333 -494.437)" fill="#fff"/>
          <path id="Trazado_1066447" data-name="Trazado 1066447" d="M387.706,273.485h79.062a1.865,1.865,0,0,0,0-3.731H387.706a1.865,1.865,0,1,0,0,3.731Z" transform="translate(-199.332 -151.657)" fill="#fff"/>
          <rect id="Rectángulo_425555" data-name="Rectángulo 425555" width="44.061" height="78.515" transform="translate(134.452 140.924)" fill="#2a3466"/>
          <path id="Trazado_1066448" data-name="Trazado 1066448" d="M782.669,711.839v1.244h5.439c.276-.417.559-.829.837-1.244Z" transform="translate(-506.518 -493.876)" fill="#c0aad3"/>
          <path id="Trazado_1066449" data-name="Trazado 1066449" d="M782.669,557.815h24.456q5.538-6.772,11.465-13.231H782.669Z" transform="translate(-506.518 -364.404)" fill="#c0aad3"/>
          <path id="Trazado_1066450" data-name="Trazado 1066450" d="M782.669,660.928H796.3c.3-.417.615-.828.92-1.244h-14.55Z" transform="translate(-506.518 -453.503)" fill="#c0aad3"/>
          <path id="Trazado_1066451" data-name="Trazado 1066451" d="M782.669,693.324h8.458c.286-.416.576-.829.864-1.244h-9.322Z" transform="translate(-506.518 -478.581)" fill="#c0aad3"/>
          <path id="Trazado_1066452" data-name="Trazado 1066452" d="M782.669,722.966h3.978c.271-.415.539-.831.812-1.244h-4.789Z" transform="translate(-506.518 -501.527)" fill="#c0aad3"/>
          <path id="Trazado_1066453" data-name="Trazado 1066453" d="M782.669,745.48h.719q.391-.623.787-1.244h-1.506Z" transform="translate(-506.518 -518.955)" fill="#c0aad3"/>
          <path id="Trazado_1066454" data-name="Trazado 1066454" d="M782.668,670.81H794.7q.445-.622.892-1.244H782.668v1.244Z" transform="translate(-506.518 -461.153)" fill="#c0aad3"/>
          <path id="Trazado_1066455" data-name="Trazado 1066455" d="M782.669,754.267l.094-.149h-.094Z" transform="translate(-506.518 -526.605)" fill="#c0aad3"/>
          <path id="Trazado_1066456" data-name="Trazado 1066456" d="M782.669,648.917h15.282c.461-.622.919-1.247,1.384-1.865H782.669Z" transform="translate(-506.518 -443.724)" fill="#c0aad3"/>
          <path id="Trazado_1066457" data-name="Trazado 1066457" d="M782.669,733.469H784.8q.6-.935,1.2-1.865h-3.333v1.865Z" transform="translate(-506.518 -509.177)" fill="#c0aad3"/>
          <path id="Trazado_1066458" data-name="Trazado 1066458" d="M782.669,638.413H800.09q.473-.623.95-1.244H782.669Z" transform="translate(-506.518 -436.074)" fill="#c0aad3"/>
          <path id="Trazado_1066459" data-name="Trazado 1066459" d="M782.669,607.528v1.244h22.638c.334-.417.676-.828,1.013-1.244Z" transform="translate(-506.518 -413.129)" fill="#c0aad3"/>
          <path id="Trazado_1066460" data-name="Trazado 1066460" d="M782.669,681.313h10.009q.654-.934,1.312-1.865H782.669v1.865Z" transform="translate(-506.518 -468.803)" fill="#c0aad3"/>
          <path id="Trazado_1066461" data-name="Trazado 1066461" d="M782.669,703.206h6.941c.28-.414.556-.831.837-1.244h-7.779Z" transform="translate(-506.518 -486.231)" fill="#c0aad3"/>
          <path id="Trazado_1066462" data-name="Trazado 1066462" d="M782.669,618.653h20.875c.326-.414.652-.83.98-1.243H782.669Z" transform="translate(-506.518 -420.779)" fill="#c0aad3"/>
          <path id="Trazado_1066463" data-name="Trazado 1066463" d="M782.669,628.532H801.8q.482-.624.969-1.244h-20.1Z" transform="translate(-506.518 -428.425)" fill="#c0aad3"/>
          <path id="Trazado_1066464" data-name="Trazado 1066464" d="M466,981.481H431.294V935.73h-6.113v51.849a3.386,3.386,0,0,0,3.372,3.382h34.413C463.941,987.788,464.961,984.63,466,981.481Z" transform="translate(-229.786 -667.191)" fill="#c0aad3"/>
          <path id="Trazado_1066465" data-name="Trazado 1066465" d="M700,592.129q1.232-1.353,2.468-2.7V485.92a3.368,3.368,0,0,0-1.725-2.92,3.369,3.369,0,0,1,1.724,2.921v10.991H671.339q-5.931,6.453-11.465,13.231h35.255a.494.494,0,1,1,0,.989h-36.06c-.337.415-.679.827-1.013,1.244h37.073a.494.494,0,1,1,0,.988H657.272c-.328.413-.654.828-.98,1.243h38.837a.494.494,0,1,1,0,.988H655.512q-.485.621-.969,1.244h29.512a.494.494,0,1,1,0,.988H653.789q-.476.621-.95,1.244h29.5a.494.494,0,1,1,0,.989H652.083c-.465.619-.923,1.244-1.384,1.865h44.43a.494.494,0,0,1,0,.989H649.967c-.306.415-.616.827-.92,1.244h46.082a.494.494,0,1,1,0,.988h-46.79q-.448.62-.892,1.244h47.682a.494.494,0,1,1,0,.988H646.738q-.66.93-1.312,1.865h49.7a.494.494,0,1,1,0,.989h-50.39c-.288.415-.578.828-.864,1.244h51.254a.494.494,0,1,1,0,.988H643.2c-.282.413-.558.83-.837,1.244h52.771a.494.494,0,1,1,0,.987H641.693c-.278.415-.561.827-.837,1.244h43.2a.494.494,0,1,1,0,.989h-43.85c-.272.413-.541.829-.812,1.244h42.947a.494.494,0,1,1,0,.988H638.75q-.6.931-1.2,1.865h57.581a.494.494,0,1,1,0,.989H636.923q-.394.622-.786,1.244h58.992a.494.494,0,0,1,0,.989H635.511l-.094.149v1.094h59.712a.494.494,0,0,1,0,.989H635.417V551.8h59.712a.494.494,0,1,1,0,.989H635.417v1.244h59.712a.494.494,0,1,1,0,.988H635.417v1.243h59.712a.494.494,0,1,1,0,.988H635.417V558.5h48.639a.5.5,0,0,1,.494.494h0a.5.5,0,0,1-.494.494H635.417v1.244h46.925a.494.494,0,1,1,0,.989H635.417v2.023h59.712a.494.494,0,1,1,0,.989H635.417v1.244h59.712a.494.494,0,1,1,0,.988H635.417V568.2h59.712a.494.494,0,1,1,0,.989H635.417v12.7a3.386,3.386,0,0,1-3.371,3.382h-3.436v45.751H595.482c-1.041,3.15-2.061,6.308-3.036,9.48h65.772Q678.472,615.774,700,592.129Z" transform="translate(-359.266 -316.732)" fill="#d4b6d8"/>
          <path id="Trazado_1066466" data-name="Trazado 1066466" d="M883.6,1005.205h40.883a3.386,3.386,0,0,0,3.372-3.382V954.13q-1.236,1.349-2.468,2.7Q903.87,980.466,883.6,1005.205Z" transform="translate(-584.653 -681.434)" fill="#d5b4ca"/>
          <path id="Trazado_1066467" data-name="Trazado 1066467" d="M434.639,481.581a3.294,3.294,0,0,1,.468-.146A3.3,3.3,0,0,0,434.639,481.581Z" transform="translate(-237.108 -315.52)" fill="#9e82bb"/>
          <path id="Trazado_1066468" data-name="Trazado 1066468" d="M437.437,481.071a3.286,3.286,0,0,1,.594-.061A3.3,3.3,0,0,0,437.437,481.071Z" transform="translate(-239.273 -315.191)" fill="#9e82bb"/>
          <rect id="Rectángulo_425556" data-name="Rectángulo 425556" height="1.655" transform="translate(195.395 176.538)" fill="#9e82bb"/>
          <path id="Trazado_1066469" data-name="Trazado 1066469" d="M432.719,482.242a3.365,3.365,0,0,0-.434.225h.022A3.37,3.37,0,0,1,432.719,482.242Z" transform="translate(-235.285 -316.145)" fill="#9e82bb"/>
          <path id="Trazado_1066470" data-name="Trazado 1066470" d="M425.589,491.828c.018-.078.047-.151.071-.227C425.636,491.677,425.607,491.75,425.589,491.828Z" transform="translate(-230.102 -323.39)" fill="#9e82bb"/>
          <rect id="Rectángulo_425557" data-name="Rectángulo 425557" width="6.113" height="1.654" transform="translate(195.395 197.629)" fill="#9e82bb"/>
          <rect id="Rectángulo_425558" data-name="Rectángulo 425558" width="6.113" height="1.654" transform="translate(195.395 213.504)" fill="#9e82bb"/>
          <rect id="Rectángulo_425559" data-name="Rectángulo 425559" width="6.113" height="1.654" transform="translate(195.395 203.564)" fill="#9e82bb"/>
          <rect id="Rectángulo_425560" data-name="Rectángulo 425560" height="1.654" transform="translate(195.395 170.603)" fill="#9e82bb"/>
          <rect id="Rectángulo_425561" data-name="Rectángulo 425561" width="6.113" height="1.654" transform="translate(195.395 200.597)" fill="#9e82bb"/>
          <rect id="Rectángulo_425562" data-name="Rectángulo 425562" width="6.113" height="1.654" transform="translate(195.395 206.533)" fill="#9e82bb"/>
          <rect id="Rectángulo_425563" data-name="Rectángulo 425563" height="1.654" transform="translate(195.395 173.572)" fill="#9e82bb"/>
          <rect id="Rectángulo_425564" data-name="Rectángulo 425564" width="6.113" height="1.655" transform="translate(195.395 216.471)" fill="#9e82bb"/>
          <rect id="Rectángulo_425565" data-name="Rectángulo 425565" width="6.113" height="49.1" transform="translate(195.395 219.439)" fill="#9e82bb"/>
          <rect id="Rectángulo_425566" data-name="Rectángulo 425566" width="6.113" height="2.69" transform="translate(195.395 209.5)" fill="#9e82bb"/>
          <path id="Trazado_1066471" data-name="Trazado 1066471" d="M426.734,489.051c-.018.034-.024.073-.041.108.018-.037.04-.072.059-.108Z" transform="translate(-230.957 -321.416)" fill="#9e82bb"/>
          <path id="Trazado_1066472" data-name="Trazado 1066472" d="M504.37,589.613a.494.494,0,1,1,0-.989h1.566v-1.244H504.37a.494.494,0,1,1,0-.988h1.566v-1.865H504.37a.494.494,0,1,1,0-.988h1.566v-1.244H504.37a.494.494,0,1,1,0-.989h1.566v-1.244H504.37a.494.494,0,1,1,0-.987h1.566v-1.244H504.37a.494.494,0,1,1,0-.989h1.566V575.6H504.37a.494.494,0,1,1,0-.988h1.566v-1.865H504.37a.494.494,0,1,1,0-.988h1.566v-1.244H504.37a.494.494,0,1,1,0-.988h1.566v-1.244H504.37a.494.494,0,1,1,0-.989h1.566v-1.865H504.37a.494.494,0,1,1,0-.988h1.566v-1.244H504.37a.494.494,0,1,1,0-.988h1.566v-1.244H504.37a.494.494,0,1,1,0-.988h1.566v-1.243H504.37a.494.494,0,1,1,0-.988h1.566V556.5H504.37a.494.494,0,1,1,0-.989h1.566V542.28H425.18v-.673h0v2.481h73.248a.657.657,0,1,1,0,1.314H425.18v1.653h73.248a.657.657,0,1,1,0,1.314H425.18v1.654h73.248a.657.657,0,1,1,0,1.314H425.18v7.078h6.113v-2.9h67.836v45.682q2.7-4.719,5.535-9.347h-.293a.494.494,0,0,1,0-.988h.9c.224-.363.443-.731.669-1.094v-.149H504.37Z" transform="translate(-229.785 -362.1)" fill="#9e82bb"/>
          <path id="Trazado_1066473" data-name="Trazado 1066473" d="M425.181,495.915s0,0,0,0,0,0,0,0v.1h0v-.1Z" transform="translate(-229.786 -326.726)" fill="#9e82bb"/>
          <path id="Trazado_1066474" data-name="Trazado 1066474" d="M780.378,755.873v-1.094c-.226.363-.444.731-.669,1.094Z" transform="translate(-504.227 -527.116)" fill="#a988be"/>
          <path id="Trazado_1066475" data-name="Trazado 1066475" d="M752.533,773.346v29.447h3.436a3.386,3.386,0,0,0,3.371-3.382v-12.7h-1.566a.494.494,0,1,1,0-.988h1.566v-1.243h-1.566a.494.494,0,1,1,0-.988h1.566V782.25h-1.566a.494.494,0,1,1,0-.989h1.566v-2.023h-1.566a.494.494,0,1,1,0-.988h1.566v-1.244h-1.566a.5.5,0,0,1-.494-.494h0a.5.5,0,0,1,.494-.494h1.566v-1.244h-1.566a.494.494,0,1,1,0-.989h1.566v-1.243h-1.566a.494.494,0,1,1,0-.989h1.566V770.31h-1.566a.494.494,0,1,1,0-.989h1.566V764h-1.273Q755.232,768.628,752.533,773.346Z" transform="translate(-483.19 -534.254)" fill="#a988be"/>
          <path id="Trazado_1066476" data-name="Trazado 1066476" d="M426.951,488.58c-.022.038-.055.068-.075.106h.017C426.912,488.651,426.931,488.615,426.951,488.58Z" transform="translate(-231.098 -321.051)" fill="#d4b6d8"/>
          <path id="Trazado_1066477" data-name="Trazado 1066477" d="M428.871,485.779c.038-.044.07-.091.11-.133C428.941,485.688,428.909,485.735,428.871,485.779Z" transform="translate(-232.642 -318.78)" fill="#d4b6d8"/>
          <path id="Trazado_1066478" data-name="Trazado 1066478" d="M432.16,483.237h-.022c-.016.01-.027.025-.043.035C432.117,483.259,432.14,483.25,432.16,483.237Z" transform="translate(-235.139 -316.915)" fill="#d4b6d8"/>
          <rect id="Rectángulo_425567" data-name="Rectángulo 425567" height="1.314" transform="translate(195.395 169.289)" fill="#d4b6d8"/>
          <rect id="Rectángulo_425568" data-name="Rectángulo 425568" height="1.315" transform="translate(195.395 172.257)" fill="#d4b6d8"/>
          <rect id="Rectángulo_425569" data-name="Rectángulo 425569" height="1.312" transform="translate(195.395 175.226)" fill="#d4b6d8"/>
          <rect id="Rectángulo_425570" data-name="Rectángulo 425570" height="1.314" transform="translate(195.395 178.193)" fill="#d4b6d8"/>
          <path id="Trazado_1066479" data-name="Trazado 1066479" d="M499.087,553.244a.659.659,0,0,0-.658-.657H425.181V553.9H498.43A.66.66,0,0,0,499.087,553.244Z" transform="translate(-229.786 -370.599)" fill="#d4b6d8"/>
          <path id="Trazado_1066480" data-name="Trazado 1066480" d="M499.087,566.379a.66.66,0,0,0-.658-.658H425.181v1.315H498.43A.659.659,0,0,0,499.087,566.379Z" transform="translate(-229.786 -380.766)" fill="#d4b6d8"/>
          <path id="Trazado_1066481" data-name="Trazado 1066481" d="M499.087,579.518a.659.659,0,0,0-.658-.657H425.181v1.314H498.43A.659.659,0,0,0,499.087,579.518Z" transform="translate(-229.786 -390.938)" fill="#d4b6d8"/>
          <rect id="Rectángulo_425571" data-name="Rectángulo 425571" width="6.113" height="1.314" transform="translate(195.395 196.315)" fill="#d4b6d8"/>
          <rect id="Rectángulo_425572" data-name="Rectángulo 425572" width="6.113" height="1.314" transform="translate(195.395 199.283)" fill="#d4b6d8"/>
          <rect id="Rectángulo_425573" data-name="Rectángulo 425573" width="6.113" height="1.314" transform="translate(195.395 202.25)" fill="#d4b6d8"/>
          <rect id="Rectángulo_425574" data-name="Rectángulo 425574" width="6.113" height="1.314" transform="translate(195.395 205.218)" fill="#d4b6d8"/>
          <rect id="Rectángulo_425575" data-name="Rectángulo 425575" width="6.113" height="1.313" transform="translate(195.395 208.186)" fill="#d4b6d8"/>
          <rect id="Rectángulo_425576" data-name="Rectángulo 425576" width="6.113" height="1.314" transform="translate(195.395 212.189)" fill="#d4b6d8"/>
          <rect id="Rectángulo_425577" data-name="Rectángulo 425577" width="6.113" height="1.314" transform="translate(195.395 215.157)" fill="#d4b6d8"/>
          <rect id="Rectángulo_425578" data-name="Rectángulo 425578" width="6.113" height="1.313" transform="translate(195.395 218.126)" fill="#d4b6d8"/>
          <path id="Trazado_1066482" data-name="Trazado 1066482" d="M428.545,481.007a3.308,3.308,0,0,0-.594.061c-.055.01-.109.022-.164.035a3.347,3.347,0,0,0-.468.146c-.033.013-.066.022-.1.036a3.37,3.37,0,0,0-.412.225c-.021.013-.044.022-.064.035a3.405,3.405,0,0,0-.619.509c-.04.042-.072.09-.11.133a3.359,3.359,0,0,0-.375.53c-.02.035-.039.07-.058.106s-.041.071-.059.108a3.345,3.345,0,0,0-.178.468c-.023.076-.053.149-.071.227a3.33,3.33,0,0,0-.092.747s0,0,0,0v10.991H572.994v-10.99a3.369,3.369,0,0,0-1.724-2.921,3.322,3.322,0,0,0-1.647-.45H428.545Zm1.973,9.33,2.151-2.15-2.151-2.15a.661.661,0,0,1,.935-.935l2.151,2.15,2.151-2.15a.661.661,0,0,1,.935.935l-2.151,2.15,2.151,2.15a.661.661,0,0,1-.935.935l-2.151-2.15-2.151,2.15a.661.661,0,0,1-.935-.935Zm133.76-.836H485.216a1.866,1.866,0,0,1,0-3.732h79.062a1.866,1.866,0,0,1,0,3.732Z" transform="translate(-229.787 -315.188)" fill="#2a3466"/>
          <path id="Trazado_1066483" data-name="Trazado 1066483" d="M463.4,501.561l2.151-2.15a.661.661,0,0,0-.935-.935l-2.151,2.15Z" transform="translate(-258.647 -328.562)" fill="#fff"/>
          <path id="Trazado_1066484" data-name="Trazado 1066484" d="M448.144,515.88a.663.663,0,0,0,.935,0l2.151-2.15-.935-.935-2.151,2.15A.664.664,0,0,0,448.144,515.88Z" transform="translate(-247.412 -339.796)" fill="#fff"/>
          <path id="Trazado_1066485" data-name="Trazado 1066485" d="M451.229,502.5l2.151,2.15a.661.661,0,0,0,.935-.935l-2.151-2.15-.935-.935-2.151-2.15a.661.661,0,0,0-.935.935l2.151,2.15Z" transform="translate(-247.412 -328.562)" fill="#fff"/>
          <path id="Trazado_1066486" data-name="Trazado 1066486" d="M775.608,603.153h-1.566a.494.494,0,1,0,0,.989H835.32a.494.494,0,1,0,0-.989H775.608Z" transform="translate(-499.458 -409.742)" fill="#fff"/>
          <path id="Trazado_1066487" data-name="Trazado 1066487" d="M774.042,613.034a.494.494,0,1,0,0,.988H835.32a.494.494,0,1,0,0-.988H774.042Z" transform="translate(-499.458 -417.391)" fill="#fff"/>
          <path id="Trazado_1066488" data-name="Trazado 1066488" d="M774.042,622.912a.494.494,0,1,0,0,.988H835.32a.494.494,0,1,0,0-.988H774.042Z" transform="translate(-499.458 -425.038)" fill="#fff"/>
          <path id="Trazado_1066489" data-name="Trazado 1066489" d="M774.042,632.794a.494.494,0,1,0,0,.988h50.205a.494.494,0,0,0,0-.988H774.042Z" transform="translate(-499.458 -432.688)" fill="#fff"/>
          <path id="Trazado_1066490" data-name="Trazado 1066490" d="M774.042,642.675a.494.494,0,1,0,0,.989h48.491a.494.494,0,0,0,0-.989H774.042Z" transform="translate(-499.458 -440.336)" fill="#fff"/>
          <path id="Trazado_1066491" data-name="Trazado 1066491" d="M775.608,655.309h-1.566a.494.494,0,1,0,0,.988H835.32a.494.494,0,1,0,0-.988H775.608Z" transform="translate(-499.458 -450.117)" fill="#fff"/>
          <path id="Trazado_1066492" data-name="Trazado 1066492" d="M774.042,665.19a.494.494,0,1,0,0,.988H835.32a.494.494,0,1,0,0-.988H774.042Z" transform="translate(-499.458 -457.765)" fill="#fff"/>
          <path id="Trazado_1066493" data-name="Trazado 1066493" d="M774.042,675.072a.494.494,0,1,0,0,.988H835.32a.494.494,0,1,0,0-.988H774.042Z" transform="translate(-499.458 -465.415)" fill="#fff"/>
          <path id="Trazado_1066494" data-name="Trazado 1066494" d="M774.042,687.7a.494.494,0,1,0,0,.989H835.32a.494.494,0,1,0,0-.989H774.042Z" transform="translate(-499.458 -475.194)" fill="#fff"/>
          <path id="Trazado_1066495" data-name="Trazado 1066495" d="M774.042,697.586a.494.494,0,1,0,0,.988H835.32a.494.494,0,1,0,0-.988H774.042Z" transform="translate(-499.458 -482.843)" fill="#fff"/>
          <path id="Trazado_1066496" data-name="Trazado 1066496" d="M775.608,707.468h-1.566a.494.494,0,1,0,0,.987H835.32a.494.494,0,1,0,0-.987H775.608Z" transform="translate(-499.458 -490.493)" fill="#fff"/>
          <path id="Trazado_1066497" data-name="Trazado 1066497" d="M774.042,717.346a.494.494,0,1,0,0,.989h50.205a.494.494,0,1,0,0-.989H774.042Z" transform="translate(-499.458 -498.139)" fill="#fff"/>
          <path id="Trazado_1066498" data-name="Trazado 1066498" d="M774.042,727.228a.494.494,0,1,0,0,.988h48.491a.494.494,0,1,0,0-.988H774.042Z" transform="translate(-499.458 -505.789)" fill="#fff"/>
          <path id="Trazado_1066499" data-name="Trazado 1066499" d="M774.042,739.861a.494.494,0,0,0,0,.989H835.32a.494.494,0,0,0,0-.989H774.042Z" transform="translate(-499.458 -515.568)" fill="#fff"/>
          <path id="Trazado_1066500" data-name="Trazado 1066500" d="M774.042,749.742a.494.494,0,1,0,0,.988H835.32a.494.494,0,1,0,0-.988H774.042Z" transform="translate(-499.458 -523.217)" fill="#fff"/>
          <path id="Trazado_1066501" data-name="Trazado 1066501" d="M774.94,759.624h-.9a.494.494,0,1,0,0,.988H835.32a.494.494,0,1,0,0-.988H774.94Z" transform="translate(-499.458 -530.867)" fill="#fff"/>
          <path id="Trazado_1066502" data-name="Trazado 1066502" d="M773.548,788.054a.5.5,0,0,0,.494.495H835.32a.494.494,0,1,0,0-.989H774.042A.5.5,0,0,0,773.548,788.054Z" transform="translate(-499.458 -552.492)" fill="#fff"/>
          <path id="Trazado_1066503" data-name="Trazado 1066503" d="M773.548,797.936a.5.5,0,0,0,.494.495H835.32a.494.494,0,1,0,0-.989H774.042A.5.5,0,0,0,773.548,797.936Z" transform="translate(-499.458 -560.142)" fill="#fff"/>
          <path id="Trazado_1066504" data-name="Trazado 1066504" d="M773.548,807.815a.5.5,0,0,0,.494.494H835.32a.494.494,0,1,0,0-.989H774.042A.5.5,0,0,0,773.548,807.815Z" transform="translate(-499.458 -567.789)" fill="#fff"/>
          <path id="Trazado_1066505" data-name="Trazado 1066505" d="M773.548,817.7h0a.5.5,0,0,0,.494.494h50.2a.5.5,0,0,0,.494-.494h0a.5.5,0,0,0-.494-.494h-50.2A.5.5,0,0,0,773.548,817.7Z" transform="translate(-499.458 -575.438)" fill="#fff"/>
          <path id="Trazado_1066506" data-name="Trazado 1066506" d="M773.548,827.577a.5.5,0,0,0,.494.495h48.491a.494.494,0,1,0,0-.989H774.042A.5.5,0,0,0,773.548,827.577Z" transform="translate(-499.458 -583.087)" fill="#fff"/>
          <path id="Trazado_1066507" data-name="Trazado 1066507" d="M773.548,840.907a.5.5,0,0,0,.494.494H835.32a.494.494,0,1,0,0-.988H774.042A.5.5,0,0,0,773.548,840.907Z" transform="translate(-499.458 -593.405)" fill="#fff"/>
          <path id="Trazado_1066508" data-name="Trazado 1066508" d="M773.548,850.788a.5.5,0,0,0,.494.495H835.32a.494.494,0,1,0,0-.988H774.042A.5.5,0,0,0,773.548,850.788Z" transform="translate(-499.458 -601.056)" fill="#fff"/>
          <path id="Trazado_1066509" data-name="Trazado 1066509" d="M773.548,860.667a.5.5,0,0,0,.494.494H835.32a.494.494,0,1,0,0-.989H774.042A.5.5,0,0,0,773.548,860.667Z" transform="translate(-499.458 -608.701)" fill="#fff"/>
          <path id="Trazado_1066510" data-name="Trazado 1066510" d="M763.609,502.094H684.547a1.866,1.866,0,0,0,0,3.732h79.062a1.866,1.866,0,0,0,0-3.732Z" transform="translate(-429.118 -331.512)" fill="#fff"/>
          <path id="Trazado_1066511" data-name="Trazado 1066511" d="M520.076,648.835V603.153H452.24V724.032h67.836v-75.2Zm-57.907-32.56h47.978v34.107H462.169Z" transform="translate(-250.733 -409.742)" fill="#795e9f"/>
          <path id="Trazado_1066512" data-name="Trazado 1066512" d="M544.17,695.348V661.241H496.192v34.107Zm-29.826-31.075,19.183,13.605-19.183,13.606Z" transform="translate(-284.756 -454.708)" fill="#2a3466"/>
          <path id="Trazado_1066513" data-name="Trazado 1066513" d="M576.545,701.878l19.183-13.606-19.183-13.605Z" transform="translate(-346.957 -465.101)" fill="#fff"/>
          <path id="Trazado_1066514" data-name="Trazado 1066514" d="M211.854,1426.577h55.661q1.448-8.918,3.194-17.755H197.066a3.553,3.553,0,0,0-3.549,3.538v17.557h18.337Z" transform="translate(-50.454 -1033.413)" fill="#8996cb"/>
          <path id="Trazado_1066515" data-name="Trazado 1066515" d="M521.088,1426.576H595.4c-.016-.041-.033-.082-.051-.123-.824-1.918-2.891-3.151-3.926-5.014-1-1.8-.932-3.983-.835-6.042.017-.371.073-.806.4-.985a.582.582,0,0,1,.122-.05,36.849,36.849,0,0,1-5.782-5.542H524.282Q522.538,1417.664,521.088,1426.576Z" transform="translate(-304.028 -1033.412)" fill="#8996cb"/>
          <path id="Trazado_1066516" data-name="Trazado 1066516" d="M264.319,1710.474H213.013a1.159,1.159,0,1,1,0-2.318h51.014q-.8-6.578-1.357-13.2H211.854v-73.887H193.517v103.621a3.552,3.552,0,0,0,3.549,3.538h70.045Q265.469,1719.4,264.319,1710.474Z" transform="translate(-50.454 -1197.715)" fill="#8996cb"/>
          <path id="Trazado_1066517" data-name="Trazado 1066517" d="M568.874,1961.352a3.826,3.826,0,0,1-1.147-2.727v-10.471H499.642q.553,6.613,1.357,13.2Z" transform="translate(-287.427 -1450.91)" fill="#8996cb"/>
          <path id="Trazado_1066518" data-name="Trazado 1066518" d="M619.219,1684.772V1573.289h0a44.452,44.452,0,0,1-4.693-.4,96.064,96.064,0,0,1-13.644-3.384v71.227h9.667a3.851,3.851,0,0,1,3.839,3.839v20.943a3.851,3.851,0,0,1-3.839,3.839h-9.677c0,.016.01.03.01.047a1.162,1.162,0,0,1-1.159,1.159H506.942q1.154,8.917,2.792,17.755H615.681A3.551,3.551,0,0,0,619.219,1684.772Z" transform="translate(-293.077 -1157.795)" fill="#8996cb"/>
          <path id="Trazado_1066519" data-name="Trazado 1066519" d="M811.426,1414.343a1.717,1.717,0,0,1,.586.139c2.171.822,4.153,2.2,6.432,2.633a44.794,44.794,0,0,0,6.519.726V1414.7c-5.1-.716-10.221-3.09-14.6-5.763l-.18-.11h-4.723a36.871,36.871,0,0,0,5.782,5.542A.663.663,0,0,1,811.426,1414.343Z" transform="translate(-524.158 -1033.415)" fill="#a2a0c3"/>
          <path id="Trazado_1066520" data-name="Trazado 1066520" d="M841.15,1414.693v-5.873H826.366l.181.11C830.929,1411.6,836.048,1413.977,841.15,1414.693Z" transform="translate(-540.344 -1033.411)" fill="#a2a0c3"/>
          <path id="Trazado_1066521" data-name="Trazado 1066521" d="M842.818,1444.427v-7.682a44.843,44.843,0,0,1-6.519-.726c-2.279-.43-4.26-1.811-6.431-2.633a1.726,1.726,0,0,0-.587-.139.685.685,0,0,0-.188.025.584.584,0,0,0-.122.05c-.325.179-.381.614-.4.985-.1,2.059-.166,4.241.835,6.042,1.034,1.863,3.1,3.1,3.926,5.014q.026.061.051.123h9.623A3.284,3.284,0,0,1,842.818,1444.427Z" transform="translate(-542.011 -1052.319)" fill="#a47392"/>
          <path id="Trazado_1066522" data-name="Trazado 1066522" d="M922.8,1497.56v16.252a96.064,96.064,0,0,0,13.644,3.384,44.425,44.425,0,0,0,4.693.4V1497.56H922.8Z" transform="translate(-614.99 -1102.105)" fill="#a47392"/>
          <path id="Trazado_1066523" data-name="Trazado 1066523" d="M421.1,1489.714h-3.653a3.346,3.346,0,0,1-3.158-2.289H274.69v3.34h6.555a3.551,3.551,0,0,1,3.541,3.541v19.769a3.551,3.551,0,0,1-3.541,3.542H274.69V1591.5h118.9v-10.471a3.851,3.851,0,0,1,3.839-3.839H421.1v-87.479Zm-91.016,90v-83.033l58.537,41.517Z" transform="translate(-113.291 -1094.259)" fill="#43529f"/>
          <path id="Trazado_1066524" data-name="Trazado 1066524" d="M519.887,1611.433l58.537-41.515L519.887,1528.4Z" transform="translate(-303.098 -1125.978)" fill="#fff"/>
          <path id="Trazado_1066525" data-name="Trazado 1066525" d="M275.85,2006.58a1.159,1.159,0,1,0,0,2.318h42.9v-2.318Z" transform="translate(-113.291 -1496.138)" fill="#fff"/>
          <path id="Trazado_1066526" data-name="Trazado 1066526" d="M477.83,2006.58h-8.118v2.317h8.41C478.022,2008.125,477.925,2007.355,477.83,2006.58Z" transform="translate(-264.258 -1496.138)" fill="#414661"/>
          <path id="Trazado_1066527" data-name="Trazado 1066527" d="M573.525,2006.58H505.65c.095.774.192,1.543.292,2.317h92.782a1.162,1.162,0,0,0,1.159-1.159c0-.016-.009-.03-.01-.047H576.217A3.813,3.813,0,0,1,573.525,2006.58Z" transform="translate(-292.077 -1496.138)" fill="#494963"/>
          <path id="Trazado_1066528" data-name="Trazado 1066528" d="M891.813,1401.046v7.682a3.288,3.288,0,0,0,.188,1.057,3.347,3.347,0,0,0,3.158,2.289h29.05a3.356,3.356,0,0,0,3.346-3.346v-18.251a3.356,3.356,0,0,0-3.346-3.347h-29.05a3.356,3.356,0,0,0-3.346,3.347v10.568Zm24.916-8.487a1.513,1.513,0,0,1,0,2.134l-4.91,4.91,4.91,4.91a1.509,1.509,0,1,1-2.135,2.134l-4.909-4.909-4.909,4.909a1.509,1.509,0,0,1-2.135-2.134l4.91-4.91-4.91-4.91a1.509,1.509,0,1,1,2.135-2.134l4.909,4.909,4.909-4.909A1.513,1.513,0,0,1,916.729,1392.559Z" transform="translate(-591.007 -1016.622)" fill="#af6aa9"/>
          <path id="Trazado_1066529" data-name="Trazado 1066529" d="M975.834,1409.651l-4.909,4.909,2.134,2.134,4.91-4.91a1.509,1.509,0,0,0-2.135-2.134Z" transform="translate(-652.248 -1033.713)" fill="#fff"/>
          <path id="Trazado_1066530" data-name="Trazado 1066530" d="M938.234,1447.256a1.509,1.509,0,0,0,2.135,2.134l4.909-4.909-2.134-2.134Z" transform="translate(-626.601 -1059.364)" fill="#fff"/>
          <path id="Trazado_1066531" data-name="Trazado 1066531" d="M940.369,1409.651a1.509,1.509,0,0,0-2.135,2.134l4.91,4.91,2.134,2.134,4.909,4.909a1.509,1.509,0,0,0,2.135-2.134l-4.91-4.91-2.134-2.134Z" transform="translate(-626.601 -1033.714)" fill="#fff"/>
          <path id="Trazado_1066532" data-name="Trazado 1066532" d="M801.04,1888.643v20.943a3.857,3.857,0,0,0,3.839,3.839h33.333a3.851,3.851,0,0,0,3.839-3.839v-20.943a3.851,3.851,0,0,0-3.839-3.839H804.879A3.853,3.853,0,0,0,801.04,1888.643Zm24.718,1.622v-2.345H831.6a3.7,3.7,0,0,1,3.688,3.689v15.011a3.694,3.694,0,0,1-3.688,3.688h-5.729v-2.345H831.6a1.351,1.351,0,0,0,1.344-1.343v-15.011a1.352,1.352,0,0,0-1.344-1.344Zm-14.271-2.345h6.86v2.344h-6.86a1.351,1.351,0,0,0-1.344,1.344v15.011a1.351,1.351,0,0,0,1.344,1.343h6.494v2.344h-6.494a3.694,3.694,0,0,1-3.688-3.687v-15.011A3.7,3.7,0,0,1,811.488,1887.92Z" transform="translate(-520.739 -1401.871)" fill="#af6aa9"/>
          <line id="Línea_4339" data-name="Línea 4339" transform="translate(305.019 488.394)" fill="none" stroke="#fff" stroke-linecap="round" stroke-linejoin="round" stroke-width="0"/>
          <path id="Trazado_1066533" data-name="Trazado 1066533" d="M916.309,1900.946a1.352,1.352,0,0,1,1.344,1.344V1917.3a1.352,1.352,0,0,1-1.344,1.343h-5.729v2.345h5.729A3.694,3.694,0,0,0,920,1917.3V1902.29a3.7,3.7,0,0,0-3.688-3.689h-5.845v2.345Z" transform="translate(-605.445 -1412.552)" fill="#fff"/>
          <path id="Trazado_1066534" data-name="Trazado 1066534" d="M830.964,1917.3a3.7,3.7,0,0,0,3.688,3.688h6.494v-2.344h-6.494a1.351,1.351,0,0,1-1.344-1.343v-15.011a1.352,1.352,0,0,1,1.344-1.344h6.86V1898.6h-6.86a3.7,3.7,0,0,0-3.688,3.689V1917.3Z" transform="translate(-543.904 -1412.551)" fill="#fff"/>
          <path id="Trazado_1066535" data-name="Trazado 1066535" d="M160.9,1516.834l-.257-.477.257-.476c.834-1.543,1.7-3.056,2.594-4.547v-9.128h-5.219a3.551,3.551,0,0,0-3.542,3.541v19.769a3.552,3.552,0,0,0,3.542,3.542H163.5v-7.819C162.587,1519.813,161.717,1518.347,160.9,1516.834Z" transform="translate(-20.433 -1105.701)" fill="#91c7e6"/>
          <path id="Trazado_1066536" data-name="Trazado 1066536" d="M191.6,1562.49v-1.97c-.184.329-.378.649-.559.98C191.225,1561.835,191.413,1562.163,191.6,1562.49Z" transform="translate(-48.539 -1150.843)" fill="#91c7e6"/>
          <path id="Trazado_1066537" data-name="Trazado 1066537" d="M211.853,1523.253c-.685,1-1.384,1.975-2.113,2.919l-1.587-1.226a64.815,64.815,0,0,0,3.7-5.354v-6.549c-1.137-1.932-2.3-3.835-3.533-5.674h0l1.667-1.115c.642.961,1.249,1.956,1.867,2.942v-6.987H193.516v9.128c1.032-1.729,2.1-3.429,3.2-5.084h0l1.667,1.114c-1.72,2.573-3.331,5.261-4.869,8.016v1.969a65.732,65.732,0,0,0,5.036,7.592l-1.587,1.225c-1.213-1.57-2.36-3.22-3.449-4.929v7.82h18.337v-5.81Zm-10.368-.02-1.655-.647q2.43-6.215,5.426-12.187h0l1.588.8Q203.888,1517.087,201.485,1523.233Z" transform="translate(-50.454 -1105.705)" fill="#63a3d3"/>
          <path id="Trazado_1066538" data-name="Trazado 1066538" d="M274.69,1550.16v6.549q.983-1.578,1.895-3.227C275.971,1552.358,275.334,1551.256,274.69,1550.16Z" transform="translate(-113.291 -1142.822)" fill="#3081be"/>
          <path id="Trazado_1066539" data-name="Trazado 1066539" d="M284.786,1525.522v-19.769a3.551,3.551,0,0,0-3.541-3.541H274.69v6.986c1.364,2.178,2.69,4.4,3.93,6.689l.257.476-.257.477a69.46,69.46,0,0,1-3.93,6.415v5.809h6.555A3.553,3.553,0,0,0,284.786,1525.522Z" transform="translate(-113.291 -1105.706)" fill="#3081be"/>
          <path id="Trazado_1066540" data-name="Trazado 1066540" d="M180.9,1530.217l.257.477c.816,1.513,1.685,2.979,2.594,4.405,1.089,1.709,2.236,3.358,3.449,4.928l1.587-1.226a65.716,65.716,0,0,1-5.036-7.592c-.188-.329-.376-.656-.559-.99.181-.331.375-.651.559-.98,1.538-2.755,3.149-5.442,4.869-8.016l-1.667-1.114h0c-1.106,1.655-2.17,3.354-3.2,5.084-.891,1.492-1.76,3-2.594,4.548Z" transform="translate(-40.685 -1119.561)" fill="#fff"/>
          <path id="Trazado_1066541" data-name="Trazado 1066541" d="M259.047,1525.04Z" transform="translate(-101.181 -1123.377)" fill="#fff"/>
          <path id="Trazado_1066542" data-name="Trazado 1066542" d="M266.2,1530.216l-.257-.476c-1.239-2.294-2.565-4.511-3.929-6.689-.617-.986-1.225-1.982-1.867-2.942l-1.667,1.115c1.229,1.838,2.4,3.741,3.533,5.674.644,1.1,1.281,2.2,1.895,3.322q-.908,1.652-1.895,3.227a64.744,64.744,0,0,1-3.7,5.354l1.587,1.226c.729-.944,1.429-1.924,2.114-2.919a69.457,69.457,0,0,0,3.93-6.414Z" transform="translate(-100.61 -1119.56)" fill="#fff"/>
          <path id="Trazado_1066543" data-name="Trazado 1066543" d="M226.893,1538.45q-2.992,5.964-5.426,12.187l1.655.647q2.4-6.138,5.359-12.038l-1.588-.8Z" transform="translate(-72.091 -1133.758)" fill="#fff"/>
          <path id="Trazado_1066544" data-name="Trazado 1066544" d="M1254.292,1859.819c-.174-.014-.349-.027-.526-.027h-58.858a6.8,6.8,0,0,0-6.779,6.78v36.979a6.8,6.8,0,0,0,6.779,6.779h58.858a6.8,6.8,0,0,0,6.779-6.779v-36.979A6.8,6.8,0,0,0,1254.292,1859.819Zm-11.627,25.02c-3.863-1.4-6.251-3.441-6.251-6.742,0-3.687,3.055-6.426,7.656-6.426a10.6,10.6,0,0,1,5.2,1.159l-.843,2.494a8.759,8.759,0,0,0-4.46-1.124c-3.231,0-4.46,1.931-4.46,3.547,0,2.212,1.44,3.3,4.706,4.566,4,1.545,6.005,3.476,6.005,6.953,0,3.652-2.669,6.848-8.253,6.848a12.222,12.222,0,0,1-6.04-1.545l.808-2.563a10.36,10.36,0,0,0,5.443,1.545c3.125,0,4.952-1.651,4.952-4.038C1247.125,1887.331,1245.859,1886.032,1242.665,1884.839Zm-32.342,8.672a12.272,12.272,0,0,0,5.022-.984l.6,2.458a15.025,15.025,0,0,1-6.251,1.124c-6.672,0-11.659-4.214-11.659-12.01,0-7.445,5.022-12.432,12.361-12.432a12.826,12.826,0,0,1,5.619,1.053l-.772,2.493a10.848,10.848,0,0,0-4.741-.983c-5.549,0-9.236,3.547-9.236,9.762C1201.263,1889.825,1204.6,1893.511,1210.324,1893.511Zm14.326,2.6a12.223,12.223,0,0,1-6.04-1.545l.808-2.563a10.361,10.361,0,0,0,5.443,1.545c3.125,0,4.952-1.651,4.952-4.038,0-2.178-1.264-3.477-4.46-4.672-3.863-1.4-6.251-3.441-6.251-6.742,0-3.687,3.055-6.426,7.656-6.426a10.6,10.6,0,0,1,5.2,1.159l-.843,2.493a8.762,8.762,0,0,0-4.46-1.124c-3.231,0-4.46,1.931-4.46,3.547,0,2.212,1.44,3.3,4.706,4.566,4,1.545,6.005,3.476,6.005,6.953C1232.9,1892.915,1230.234,1896.111,1224.65,1896.111Z" transform="translate(-820.386 -1382.509)" fill="#12abd7"/>
          <path id="Trazado_1066545" data-name="Trazado 1066545" d="M1405.95,1934.247a10.36,10.36,0,0,1-5.443-1.545l-.808,2.563a12.22,12.22,0,0,0,6.04,1.545c5.584,0,8.253-3.2,8.253-6.847,0-3.477-2-5.408-6.005-6.953-3.266-1.265-4.706-2.353-4.706-4.565,0-1.615,1.229-3.547,4.46-3.547a8.762,8.762,0,0,1,4.46,1.124l.843-2.493a10.6,10.6,0,0,0-5.2-1.159c-4.6,0-7.656,2.74-7.656,6.426,0,3.3,2.388,5.339,6.251,6.743,3.2,1.194,4.46,2.493,4.46,4.671C1410.9,1932.6,1409.075,1934.247,1405.95,1934.247Z" transform="translate(-984.163 -1423.209)" fill="#fff"/>
          <path id="Trazado_1066546" data-name="Trazado 1066546" d="M1244.44,1914.934a10.849,10.849,0,0,1,4.741.983l.772-2.493a12.819,12.819,0,0,0-5.619-1.053c-7.34,0-12.361,4.987-12.361,12.432,0,7.8,4.986,12.01,11.659,12.01a15.031,15.031,0,0,0,6.251-1.124l-.6-2.458a12.272,12.272,0,0,1-5.022.984c-5.724,0-9.06-3.688-9.06-9.517C1235.2,1918.481,1238.892,1914.934,1244.44,1914.934Z" transform="translate(-854.326 -1423.21)" fill="#fff"/>
          <path id="Trazado_1066547" data-name="Trazado 1066547" d="M1331.352,1923.005c-3.266-1.265-4.706-2.353-4.706-4.566,0-1.615,1.229-3.546,4.46-3.546a8.762,8.762,0,0,1,4.46,1.124l.843-2.493a10.6,10.6,0,0,0-5.2-1.159c-4.6,0-7.656,2.739-7.656,6.426,0,3.3,2.388,5.339,6.251,6.743,3.2,1.194,4.46,2.493,4.46,4.671,0,2.387-1.826,4.038-4.952,4.038a10.36,10.36,0,0,1-5.443-1.545l-.808,2.563a12.222,12.222,0,0,0,6.04,1.545c5.584,0,8.253-3.2,8.253-6.847C1337.356,1926.482,1335.355,1924.55,1331.352,1923.005Z" transform="translate(-924.84 -1423.206)" fill="#fff"/>
        </g>
      </g>
    </g>
  </g>
</svg>
