<svg xmlns="http://www.w3.org/2000/svg" xmlns:xlink="http://www.w3.org/1999/xlink" width="108" height="108" viewBox="0 0 108 108">
  <defs>
    <filter id="Trazado_904820" x="0" y="0" width="108" height="108" filterUnits="userSpaceOnUse">
      <feOffset dy="3" input="SourceAlpha"/>
      <feGaussianBlur stdDeviation="3" result="blur"/>
      <feFlood flood-opacity="0.161"/>
      <feComposite operator="in" in2="blur"/>
      <feComposite in="SourceGraphic"/>
    </filter>
  </defs>
  <g id="Grupo_1233036" data-name="Grupo 1233036" transform="translate(-199.999 -570)">
    <g id="Grupo_1226088" data-name="Grupo 1226088" transform="translate(208.999 576)">
      <g id="Grupo_1173585" data-name="Grupo 1173585" transform="translate(0 0)">
        <g id="Grupo_1173428" data-name="Grupo 1173428">
          <g id="Grupo_1171958" data-name="Grupo 1171958">
            <g id="Grupo_1167341" data-name="Grupo 1167341">
              <g id="Grupo_1166792" data-name="Grupo 1166792">
                <g transform="matrix(1, 0, 0, 1, -9, -6)" filter="url(#Trazado_904820)">
                  <g id="Trazado_904820-2" data-name="Trazado 904820" transform="translate(9 6)" fill="#e5fdfa">
                    <path d="M 44.99999618530273 88.50002288818359 C 39.12687301635742 88.50002288818359 33.43022155761719 87.35009765625 28.06829643249512 85.08218383789062 C 22.88852119445801 82.89133453369141 18.23629570007324 79.75460815429688 14.24084663391113 75.7591552734375 C 10.24540901184082 71.76371002197266 7.108683586120605 67.11148071289062 4.917821407318115 61.93170928955078 C 2.649921178817749 56.56978225708008 1.499996185302734 50.87313079833984 1.499996185302734 45.00000762939453 C 1.499996185302734 39.12688446044922 2.649921178817749 33.43023300170898 4.917821407318115 28.06830787658691 C 7.108683586120605 22.8885326385498 10.24540901184082 18.23630714416504 14.24084663391113 14.24085807800293 C 18.23629570007324 10.24542045593262 22.88852119445801 7.108695030212402 28.06829643249512 4.917832851409912 C 33.43022155761719 2.649932622909546 39.12687301635742 1.500007629394531 44.99999618530273 1.500007629394531 C 50.87311935424805 1.500007629394531 56.56977081298828 2.649932622909546 61.93169784545898 4.917832851409912 C 67.11147308349609 7.108695030212402 71.76369476318359 10.24542045593262 75.75914764404297 14.24085807800293 C 79.75458526611328 18.23630714416504 82.89131164550781 22.8885326385498 85.08216857910156 28.06830787658691 C 87.35007476806641 33.43023300170898 88.5 39.12688446044922 88.5 45.00000762939453 C 88.5 50.87313079833984 87.35007476806641 56.56978225708008 85.08216857910156 61.93170928955078 C 82.89131164550781 67.11148071289062 79.75458526611328 71.76371002197266 75.75914764404297 75.7591552734375 C 71.76369476318359 79.75460815429688 67.11147308349609 82.89133453369141 61.93169784545898 85.08218383789062 C 56.56977081298828 87.35009765625 50.87311935424805 88.50002288818359 44.99999618530273 88.50002288818359 Z" stroke="none"/>
                    <path d="M 44.99999618530273 2.999992370605469 C 39.32870864868164 2.999992370605469 33.82865142822266 4.110054016113281 28.65262603759766 6.299339294433594 C 23.65165710449219 8.414566040039062 19.15968322753906 11.44333648681641 15.301513671875 15.30150604248047 C 11.44333648681641 19.15967559814453 8.414566040039062 23.65164947509766 6.299339294433594 28.65262222290039 C 4.110054016113281 33.82866287231445 2.999992370605469 39.32872009277344 2.999992370605469 45.00000762939453 C 2.999992370605469 50.67129516601562 4.110054016113281 56.17133712768555 6.299339294433594 61.34738159179688 C 8.414566040039062 66.34835052490234 11.44333648681641 70.84030914306641 15.301513671875 74.69849395751953 C 19.15968322753906 78.55666351318359 23.65165710449219 81.58543395996094 28.65262603759766 83.70066833496094 C 33.82865142822266 85.88995361328125 39.32870864868164 87.00000762939453 44.99999618530273 87.00000762939453 C 50.67128372192383 87.00000762939453 56.17134094238281 85.88995361328125 61.34736633300781 83.70066833496094 C 66.34834289550781 81.58543395996094 70.84030914306641 78.55666351318359 74.69847869873047 74.69849395751953 C 78.55665588378906 70.84030914306641 81.58542633056641 66.34835052490234 83.70065307617188 61.34738159179688 C 85.88993835449219 56.17133712768555 87 50.67129516601562 87 45.00000762939453 C 87 39.32872009277344 85.88993835449219 33.82866287231445 83.70065307617188 28.65262222290039 C 81.58542633056641 23.65164947509766 78.55665588378906 19.15967559814453 74.69847869873047 15.30150604248047 C 70.84030914306641 11.44333648681641 66.34834289550781 8.414566040039062 61.34736633300781 6.299339294433594 C 56.17134094238281 4.110054016113281 50.67128372192383 2.999992370605469 44.99999618530273 2.999992370605469 M 44.99999618530273 -7.62939453125e-06 C 69.85281372070312 -7.62939453125e-06 90 20.14717864990234 90 45.00000762939453 C 90 69.85280609130859 69.85281372070312 90.00000762939453 44.99999618530273 90.00000762939453 C 20.14717864990234 90.00000762939453 -7.62939453125e-06 69.85280609130859 -7.62939453125e-06 45.00000762939453 C -7.62939453125e-06 20.14717864990234 20.14717864990234 -7.62939453125e-06 44.99999618530273 -7.62939453125e-06 Z" stroke="none" fill="#098576"/>
                  </g>
                </g>
              </g>
            </g>
          </g>
        </g>
      </g>
    </g>
    <g id="desarrollo-de-aplicaciones_9_" data-name="desarrollo-de-aplicaciones (9)" transform="translate(226.66 595.942)">
      <rect id="Rectángulo_425554" data-name="Rectángulo 425554" width="50.281" height="40.653" rx="2" transform="translate(2.328 2.328)" fill="#e2e7f6"/>
      <path id="Trazado_1066313" data-name="Trazado 1066313" d="M3.7,2A1.7,1.7,0,0,0,2,3.7V40.235H47.881a1.7,1.7,0,0,0,1.7-1.7V2Z" transform="translate(-0.15 -0.15)" fill="#f7fafd"/>
      <path id="Trazado_1066314" data-name="Trazado 1066314" d="M51.28,2H3.7A1.7,1.7,0,0,0,2,3.7V8.8H52.979V3.7A1.7,1.7,0,0,0,51.28,2Z" transform="translate(-0.15 -0.15)" fill="#5e87ca"/>
      <path id="Trazado_1066315" data-name="Trazado 1066315" d="M49.581,2H3.7A1.7,1.7,0,0,0,2,3.7V8.8H49.581Z" transform="translate(-0.15 -0.15)" fill="#78a0d4"/>
      <path id="Trazado_1066316" data-name="Trazado 1066316" d="M51.28,48.8H3.7A1.7,1.7,0,0,1,2,47.1V42H52.979v5.1A1.7,1.7,0,0,1,51.28,48.8Z" transform="translate(-0.15 -6.164)" fill="#5e87ca"/>
      <path id="Trazado_1066317" data-name="Trazado 1066317" d="M2,42v4.248H47.881a1.7,1.7,0,0,0,1.7-1.7V42Z" transform="translate(-0.15 -6.164)" fill="#78a0d4"/>
      <path id="Trazado_1066318" data-name="Trazado 1066318" d="M5,45h6.8v1.7H5Z" transform="translate(-0.601 -6.615)" fill="#f7fafd"/>
      <path id="Trazado_1066319" data-name="Trazado 1066319" d="M15,45h1.7v1.7H15Z" transform="translate(-2.105 -6.615)" fill="#f7fafd"/>
      <path id="Trazado_1066320" data-name="Trazado 1066320" d="M41.139,58H17.749a1.7,1.7,0,0,0-1.52.94L15,61.4H43.888L42.659,58.94A1.7,1.7,0,0,0,41.139,58Z" transform="translate(-2.105 -8.57)" fill="#3b5892"/>
      <path id="Trazado_1066321" data-name="Trazado 1066321" d="M37.595,56.8,35.9,50H25.7L24,56.8Z" transform="translate(-3.458 -7.367)" fill="#c8cded"/>
      <path id="Trazado_1066322" data-name="Trazado 1066322" d="M40.64,58.85V58H17.9a1.7,1.7,0,0,0-1.52.94L16,59.7H39.79A.85.85,0,0,0,40.64,58.85Z" transform="translate(-2.255 -8.57)" fill="#4c6cb5"/>
      <g id="Grupo_1233035" data-name="Grupo 1233035" transform="translate(22.241 4.399)">
        <path id="Trazado_1066323" data-name="Trazado 1066323" d="M30,5h3.4V6.7H30Z" transform="translate(-26.601 -5)" fill="#f7fafd"/>
        <path id="Trazado_1066324" data-name="Trazado 1066324" d="M36,5h1.7V6.7H36Z" transform="translate(-27.503 -5)" fill="#f7fafd"/>
        <path id="Trazado_1066325" data-name="Trazado 1066325" d="M26,5h1.7V6.7H26Z" transform="translate(-26 -5)" fill="#f7fafd"/>
      </g>
      <path id="Trazado_1066326" data-name="Trazado 1066326" d="M22.993,26.2V22.8H21.071a6.77,6.77,0,0,0-.724-1.749l1.359-1.359-2.4-2.4-1.359,1.359a6.77,6.77,0,0,0-1.749-.724V16H12.8v1.922a6.77,6.77,0,0,0-1.749.724L9.689,17.286l-2.4,2.4L8.647,21.05A6.77,6.77,0,0,0,7.922,22.8H6v3.4H7.922a6.77,6.77,0,0,0,.724,1.749L7.286,29.3l2.4,2.4,1.359-1.359a6.77,6.77,0,0,0,1.749.724v1.922h3.4V31.071a6.77,6.77,0,0,0,1.749-.724L19.3,31.707l2.4-2.4-1.359-1.359a6.77,6.77,0,0,0,.724-1.749Z" transform="translate(-0.752 -2.255)" fill="#939393"/>
      <circle id="Elipse_13957" data-name="Elipse 13957" cx="3.744" cy="3.744" r="3.744" transform="translate(9.817 18.375)" fill="#f2f2f2"/>
      <path id="Trazado_1066327" data-name="Trazado 1066327" d="M16.2,16H12.8v1.922a6.77,6.77,0,0,0-1.749.724L9.689,17.286l-2.4,2.4L8.647,21.05A6.77,6.77,0,0,0,7.922,22.8H6v3.4H7.922a6.77,6.77,0,0,0,.724,1.749l-.614.614a8.412,8.412,0,0,0,9.792-8.346A8.5,8.5,0,0,0,17.65,18.5a6.753,6.753,0,0,0-1.454-.577Z" transform="translate(-0.752 -2.255)" fill="#b5b5b5"/>
      <path id="Trazado_1066328" data-name="Trazado 1066328" d="M40,14H55.294v5.1H40Z" transform="translate(-5.863 -1.954)" fill="#f0ae42"/>
      <path id="Trazado_1066329" data-name="Trazado 1066329" d="M53.595,16.549V14H40v3.4H52.745A.85.85,0,0,0,53.595,16.549Z" transform="translate(-5.863 -1.954)" fill="#f9d266"/>
      <path id="Trazado_1066330" data-name="Trazado 1066330" d="M40,24H55.294v3.4H40Z" transform="translate(-5.863 -3.458)" fill="#f0ae42"/>
      <path id="Trazado_1066331" data-name="Trazado 1066331" d="M53.595,24.85V24H40v1.7H52.745A.85.85,0,0,0,53.595,24.85Z" transform="translate(-5.863 -3.458)" fill="#f9d266"/>
      <path id="Trazado_1066332" data-name="Trazado 1066332" d="M40,32H55.294v5.1H40Z" transform="translate(-5.863 -4.661)" fill="#f0ae42"/>
      <path id="Trazado_1066333" data-name="Trazado 1066333" d="M53.595,34.549V32H40v3.4H52.745A.85.85,0,0,0,53.595,34.549Z" transform="translate(-5.863 -4.661)" fill="#f9d266"/>
      <path id="Trazado_1066334" data-name="Trazado 1066334" d="M37.9,17.7V16H31.1a.85.85,0,0,0-.85.85v6.8H26v1.7h4.248v6.8a.85.85,0,0,0,.85.85h6.8v-1.7H31.948V25.346H37.9v-1.7H31.948V17.7Z" transform="translate(-3.759 -2.255)" fill="#3b5892"/>
      <path id="Trazado_1066335" data-name="Trazado 1066335" d="M18.322,23.694a3.389,3.389,0,1,0-4.078,4.888A8.477,8.477,0,0,0,18.322,23.694Z" transform="translate(-1.654 -3.158)" fill="#f7fafd"/>
      <path id="Trazado_1066336" data-name="Trazado 1066336" d="M51.13,1H3.549A2.549,2.549,0,0,0,1,3.549V40.934a2.549,2.549,0,0,0,2.549,2.549h17.6l-1.274,5.1H15.645a2.535,2.535,0,0,0-2.28,1.409l-1.23,2.46a.85.85,0,0,0,.76,1.229H41.784a.85.85,0,0,0,.765-1.229l-1.23-2.46a2.535,2.535,0,0,0-2.284-1.409H34.8l-1.274-5.1h17.6a2.549,2.549,0,0,0,2.549-2.549V3.549A2.549,2.549,0,0,0,51.13,1ZM3.549,2.7H51.13a.85.85,0,0,1,.85.85V7.8H2.7V3.549A.85.85,0,0,1,3.549,2.7Zm48.43,6.8v25.49H2.7V9.5ZM39.794,50.75l.615,1.229H14.27l.615-1.229a.845.845,0,0,1,.76-.47H39.034a.845.845,0,0,1,.76.47Zm-6.745-2.169H21.631l1.274-5.1h8.869Zm18.082-6.8H3.549a.85.85,0,0,1-.85-.85V36.686h49.28v4.248A.85.85,0,0,1,51.13,41.784Z" transform="translate(0)"/>
      <path id="Trazado_1066337" data-name="Trazado 1066337" d="M30,5h3.4V6.7H30Z" transform="translate(-4.36 -0.601)"/>
      <path id="Trazado_1066338" data-name="Trazado 1066338" d="M36,5h1.7V6.7H36Z" transform="translate(-5.262 -0.601)"/>
      <path id="Trazado_1066339" data-name="Trazado 1066339" d="M26,5h1.7V6.7H26Z" transform="translate(-3.759 -0.601)"/>
      <path id="Trazado_1066340" data-name="Trazado 1066340" d="M5,45h6.8v1.7H5Z" transform="translate(-0.601 -6.615)"/>
      <path id="Trazado_1066341" data-name="Trazado 1066341" d="M15,45h1.7v1.7H15Z" transform="translate(-2.105 -6.615)"/>
      <path id="Trazado_1066342" data-name="Trazado 1066342" d="M5.85,26.595H7.143a7.873,7.873,0,0,0,.308.742l-.914.915a.85.85,0,0,0,0,1.2l2.4,2.4a.85.85,0,0,0,1.2,0l.915-.914a7.872,7.872,0,0,0,.742.308v1.293a.85.85,0,0,0,.85.85h3.4a.85.85,0,0,0,.85-.85V31.249a7.873,7.873,0,0,0,.742-.308l.915.914a.85.85,0,0,0,1.2,0l2.4-2.4a.85.85,0,0,0,0-1.2l-.914-.915a7.874,7.874,0,0,0,.308-.742h1.293a.85.85,0,0,0,.85-.85V24.9h3.4v6.8a.85.85,0,0,0,.85.85h5.948v1.7a.85.85,0,0,0,.85.85H50.032a.85.85,0,0,0,.85-.85v-5.1a.85.85,0,0,0-.85-.85H34.738a.85.85,0,0,0-.85.85v1.7h-5.1V24.9h5.1v.85a.85.85,0,0,0,.85.85H50.032a.85.85,0,0,0,.85-.85v-3.4a.85.85,0,0,0-.85-.85H34.738a.85.85,0,0,0-.85.85v.85h-5.1V17.248h5.1v1.7a.85.85,0,0,0,.85.85H50.032a.85.85,0,0,0,.85-.85v-5.1a.85.85,0,0,0-.85-.85H34.738a.85.85,0,0,0-.85.85v1.7H27.941a.85.85,0,0,0-.85.85v6.8h-3.4v-.85a.85.85,0,0,0-.85-.85H21.55a7.874,7.874,0,0,0-.308-.742l.914-.915a.85.85,0,0,0,0-1.2l-2.4-2.4a.85.85,0,0,0-1.2,0l-.915.914a7.871,7.871,0,0,0-.742-.308V15.549a.85.85,0,0,0-.85-.85h-3.4a.85.85,0,0,0-.85.85v1.293a7.872,7.872,0,0,0-.742.308l-.915-.914a.85.85,0,0,0-1.2,0l-2.4,2.4a.85.85,0,0,0,0,1.2l.914.915a7.872,7.872,0,0,0-.308.742H5.85a.85.85,0,0,0-.85.85v3.4A.85.85,0,0,0,5.85,26.595Zm29.738,3.4H49.182v3.4H35.588Zm0-6.8H49.182v1.7H35.588Zm0-8.5H49.182v3.4H35.588ZM6.7,23.2H7.772a.85.85,0,0,0,.822-.637,5.948,5.948,0,0,1,.633-1.529A.85.85,0,0,0,9.1,20l-.758-.758,1.2-1.2.758.758a.85.85,0,0,0,1.033.131,5.948,5.948,0,0,1,1.529-.633.85.85,0,0,0,.637-.822V16.4h1.7v1.072a.85.85,0,0,0,.637.822,5.948,5.948,0,0,1,1.529.633A.85.85,0,0,0,18.4,18.8l.758-.758,1.2,1.2L19.6,20a.85.85,0,0,0-.131,1.033,5.948,5.948,0,0,1,.633,1.529.85.85,0,0,0,.822.637h1.071v1.7H20.921a.85.85,0,0,0-.822.637,5.947,5.947,0,0,1-.633,1.529A.85.85,0,0,0,19.6,28.1l.758.758-1.2,1.2-.758-.758a.85.85,0,0,0-1.033-.131,5.948,5.948,0,0,1-1.529.633.85.85,0,0,0-.637.822v1.071H13.5V30.62a.85.85,0,0,0-.637-.822,5.947,5.947,0,0,1-1.529-.633A.85.85,0,0,0,10.3,29.3l-.758.758-1.2-1.2.758-.758a.85.85,0,0,0,.131-1.033,5.948,5.948,0,0,1-.633-1.529.85.85,0,0,0-.822-.636H6.7Z" transform="translate(-0.601 -1.804)"/>
      <path id="Trazado_1066343" data-name="Trazado 1066343" d="M15.248,29.5A4.248,4.248,0,1,0,11,25.248,4.248,4.248,0,0,0,15.248,29.5Zm0-6.8A2.549,2.549,0,1,1,12.7,25.248,2.549,2.549,0,0,1,15.248,22.7Z" transform="translate(-1.503 -3.007)"/>
    </g>
  </g>
</svg>
