<svg xmlns="http://www.w3.org/2000/svg" xmlns:xlink="http://www.w3.org/1999/xlink" width="108" height="108" viewBox="0 0 108 108">
  <defs>
    <filter id="Trazado_904820" x="0" y="0" width="108" height="108" filterUnits="userSpaceOnUse">
      <feOffset dy="3" input="SourceAlpha"/>
      <feGaussianBlur stdDeviation="3" result="blur"/>
      <feFlood flood-opacity="0.161"/>
      <feComposite operator="in" in2="blur"/>
      <feComposite in="SourceGraphic"/>
    </filter>
  </defs>
  <g id="Grupo_1230674" data-name="Grupo 1230674" transform="translate(-199.999 -3420.047)">
    <g id="Grupo_1227790" data-name="Grupo 1227790" transform="translate(208.999 3426.047)">
      <g id="Grupo_1173585" data-name="Grupo 1173585" transform="translate(0 0)">
        <g id="Grupo_1173428" data-name="Grupo 1173428">
          <g id="Grupo_1171958" data-name="Grupo 1171958">
            <g id="Grupo_1167341" data-name="Grupo 1167341">
              <g id="Grupo_1166792" data-name="Grupo 1166792">
                <g transform="matrix(1, 0, 0, 1, -9, -6)" filter="url(#Trazado_904820)">
                  <g id="Trazado_904820-2" data-name="Trazado 904820" transform="translate(9 6)" fill="#fef9e5">
                    <path d="M 44.99999618530273 88.5 C 39.12687301635742 88.5 33.43022155761719 87.35008239746094 28.06829643249512 85.08216857910156 C 22.88852119445801 82.89131927490234 18.23629570007324 79.75459289550781 14.24084663391113 75.75914001464844 C 10.24540901184082 71.76369476318359 7.108683586120605 67.11146545410156 4.917821407318115 61.93170547485352 C 2.649921178817749 56.56976699829102 1.499996185302734 50.87312698364258 1.499996185302734 45.00000381469727 C 1.499996185302734 39.12688064575195 2.649921178817749 33.43022918701172 4.917821407318115 28.06830406188965 C 7.108683586120605 22.88852882385254 10.24540901184082 18.23630332946777 14.24084663391113 14.24085426330566 C 18.23629570007324 10.24541664123535 22.88852119445801 7.108691215515137 28.06829643249512 4.917829036712646 C 33.43022155761719 2.64992880821228 39.12687301635742 1.500003814697266 44.99999618530273 1.500003814697266 C 50.87311935424805 1.500003814697266 56.56977081298828 2.64992880821228 61.93169784545898 4.917829036712646 C 67.11147308349609 7.108691215515137 71.76369476318359 10.24541664123535 75.75914764404297 14.24085426330566 C 79.75458526611328 18.23630332946777 82.89131164550781 22.88852882385254 85.08216857910156 28.06830406188965 C 87.35007476806641 33.43022918701172 88.5 39.12688064575195 88.5 45.00000381469727 C 88.5 50.87312698364258 87.35007476806641 56.56976699829102 85.08216857910156 61.93170547485352 C 82.89131164550781 67.11146545410156 79.75458526611328 71.76369476318359 75.75914764404297 75.75914001464844 C 71.76369476318359 79.75459289550781 67.11147308349609 82.89131927490234 61.93169784545898 85.08216857910156 C 56.56977081298828 87.35008239746094 50.87311935424805 88.5 44.99999618530273 88.5 Z" stroke="none"/>
                    <path d="M 44.99999618530273 3.000007629394531 C 39.32870864868164 3.000007629394531 33.82865142822266 4.110061645507812 28.65262603759766 6.299346923828125 C 23.65165710449219 8.414573669433594 19.15968322753906 11.44334411621094 15.301513671875 15.30152130126953 C 11.44333648681641 19.15969085693359 8.414566040039062 23.65166473388672 6.299339294433594 28.65263366699219 C 4.110054016113281 33.82865905761719 2.999992370605469 39.32871627807617 2.999992370605469 45.00000381469727 C 2.999992370605469 50.67129135131836 4.110054016113281 56.17133331298828 6.299339294433594 61.34737396240234 C 8.414566040039062 66.34834289550781 11.44333648681641 70.84030151367188 15.301513671875 74.698486328125 C 19.15968322753906 78.55666351318359 23.65165710449219 81.58543395996094 28.65262603759766 83.70066070556641 C 33.82865142822266 85.88994598388672 39.32870864868164 87 44.99999618530273 87 C 50.67128372192383 87 56.17134094238281 85.88994598388672 61.34736633300781 83.70066070556641 C 66.34834289550781 81.58543395996094 70.84030914306641 78.55666351318359 74.69847869873047 74.698486328125 C 78.55665588378906 70.84030151367188 81.58542633056641 66.34834289550781 83.70065307617188 61.34737396240234 C 85.88993835449219 56.17133331298828 87 50.67129135131836 87 45.00000381469727 C 87 39.32871627807617 85.88993835449219 33.82865905761719 83.70065307617188 28.65263366699219 C 81.58542633056641 23.65166473388672 78.55665588378906 19.15969085693359 74.69847869873047 15.30152130126953 C 70.84030914306641 11.44334411621094 66.34834289550781 8.414573669433594 61.34736633300781 6.299346923828125 C 56.17134094238281 4.110061645507812 50.67128372192383 3.000007629394531 44.99999618530273 3.000007629394531 M 44.99999618530273 7.62939453125e-06 C 69.85281372070312 7.62939453125e-06 90 20.14718627929688 90 45.00000381469727 C 90 69.85280609130859 69.85281372070312 90 44.99999618530273 90 C 20.14717864990234 90 -7.62939453125e-06 69.85280609130859 -7.62939453125e-06 45.00000381469727 C -7.62939453125e-06 20.14718627929688 20.14717864990234 7.62939453125e-06 44.99999618530273 7.62939453125e-06 Z" stroke="none" fill="#866d08"/>
                  </g>
                </g>
              </g>
            </g>
          </g>
        </g>
      </g>
    </g>
    <g id="Filled-Outline" transform="translate(209.422 3426.487)">
      <g id="Hosting-server-cloud_copy" data-name="Hosting-server-cloud copy" transform="translate(16 15.981)">
        <circle id="Elipse_13863" data-name="Elipse 13863" cx="2.858" cy="2.858" r="2.858" transform="translate(50.487 40.011)" fill="#ffd648"/>
        <circle id="Elipse_13864" data-name="Elipse 13864" cx="2.858" cy="2.858" r="2.858" transform="translate(40.009 50.489)" fill="#ffd648"/>
        <circle id="Elipse_13865" data-name="Elipse 13865" cx="2.858" cy="2.858" r="2.858" transform="translate(25.72 48.584)" fill="#ffd648"/>
        <circle id="Elipse_13866" data-name="Elipse 13866" cx="2.858" cy="2.858" r="2.858" transform="translate(11.431 50.489)" fill="#ffd648"/>
        <circle id="Elipse_13867" data-name="Elipse 13867" cx="2.858" cy="2.858" r="2.858" transform="translate(0.953 40.011)" fill="#ffd648"/>
        <path id="Trazado_1064605" data-name="Trazado 1064605" d="M176.767,265.905v3.81a1.905,1.905,0,0,1-1.905,1.905H153.905A1.905,1.905,0,0,1,152,269.716v-3.81A1.905,1.905,0,0,1,153.905,264h20.957A1.905,1.905,0,0,1,176.767,265.905Z" transform="translate(-135.806 -234.468)" fill="#ffd648"/>
        <rect id="Rect치ngulo_424255" data-name="Rect치ngulo 424255" width="24.767" height="7.621" rx="3.81" transform="translate(16.194 21.912)" fill="#ffd648"/>
        <rect id="Rect치ngulo_424256" data-name="Rect치ngulo 424256" width="24.767" height="7.621" rx="3.81" transform="translate(16.194 14.291)" fill="#ffd648"/>
        <path id="Trazado_1064606" data-name="Trazado 1064606" d="M160.573,271.621h-6.668A1.905,1.905,0,0,1,152,269.716v-3.81A1.905,1.905,0,0,1,153.905,264h6.668a1.905,1.905,0,0,0-1.905,1.905v3.81A1.905,1.905,0,0,0,160.573,271.621Z" transform="translate(-135.806 -234.468)" fill="#ffb300"/>
        <path id="Trazado_1064607" data-name="Trazado 1064607" d="M160.573,207.621h-6.668A1.905,1.905,0,0,1,152,205.716v-3.81A1.905,1.905,0,0,1,153.905,200h6.668a1.905,1.905,0,0,0-1.905,1.905v3.81A1.905,1.905,0,0,0,160.573,207.621Z" transform="translate(-135.806 -178.088)" fill="#ffb300"/>
        <path id="Trazado_1064608" data-name="Trazado 1064608" d="M160.573,143.621h-6.668A1.905,1.905,0,0,1,152,141.716v-3.81A1.905,1.905,0,0,1,153.905,136h6.668a1.905,1.905,0,0,0-1.905,1.905v3.81A1.905,1.905,0,0,0,160.573,143.621Z" transform="translate(-135.806 -121.709)" fill="#ffb300"/>
        <path id="Trazado_1064609" data-name="Trazado 1064609" d="M70.763,37.331a8.573,8.573,0,0,1,0,17.147H64.095a1.905,1.905,0,0,0-1.905-1.905,1.905,1.905,0,0,0,1.905-1.905v-3.81a1.905,1.905,0,0,0-1.905-1.905,1.905,1.905,0,0,0,1.905-1.905v-3.81a1.905,1.905,0,0,0-1.905-1.905H41.233a1.905,1.905,0,0,0-1.905,1.905v3.81a1.905,1.905,0,0,0,1.905,1.905,1.905,1.905,0,0,0-1.905,1.905v3.81a1.905,1.905,0,0,0,1.905,1.905,1.905,1.905,0,0,0-1.905,1.905H34.565A10.478,10.478,0,1,1,36.279,33.66,17.151,17.151,0,0,1,68.5,37.635a8.515,8.515,0,0,1,2.265-.3Z" transform="translate(-23.134 -23.04)" fill="#00d0ce"/>
        <path id="Trazado_1064610" data-name="Trazado 1064610" d="M51.711,24a17.177,17.177,0,0,1,3.812.425A17.176,17.176,0,0,0,43.9,33.665,10.48,10.48,0,0,0,39.366,54.1a1.96,1.96,0,0,0-.038.385H34.565a10.478,10.478,0,1,1,1.715-20.818A17.146,17.146,0,0,1,51.711,24Z" transform="translate(-23.134 -23.045)" fill="#00a5ab"/>
        <path id="Trazado_1064611" data-name="Trazado 1064611" d="M348.763,143.621a1.905,1.905,0,0,1,1.905,1.905v3.81a1.905,1.905,0,0,1-1.905,1.905,1.9,1.9,0,0,1,1.9,1.853,8.65,8.65,0,0,1-.951.052h-3.81A1.905,1.905,0,0,0,344,151.241a1.905,1.905,0,0,0,1.905-1.905v-3.81A1.905,1.905,0,0,0,344,143.621a1.905,1.905,0,0,0,1.905-1.905v-3.81A1.905,1.905,0,0,0,344,136s4.514.065,5.069.024a1.905,1.905,0,0,1,1.6,1.881v3.81A1.905,1.905,0,0,1,348.763,143.621Z" transform="translate(-304.944 -121.709)" fill="#00a5ab"/>
        <g id="Grupo_1230673" data-name="Grupo 1230673" transform="translate(0 0)">
          <path id="Trazado_1064612" data-name="Trazado 1064612" d="M176,160h11.431v1.905H176Z" transform="translate(-156.948 -142.851)" fill="#00074e"/>
          <path id="Trazado_1064613" data-name="Trazado 1064613" d="M288,160h1.905v1.905H288Z" transform="translate(-255.612 -142.851)" fill="#00074e"/>
          <path id="Trazado_1064614" data-name="Trazado 1064614" d="M320,160h1.905v1.905H320Z" transform="translate(-283.802 -142.851)" fill="#00074e"/>
          <path id="Trazado_1064615" data-name="Trazado 1064615" d="M176,224h11.431v1.905H176Z" transform="translate(-156.948 -199.231)" fill="#00074e"/>
          <path id="Trazado_1064616" data-name="Trazado 1064616" d="M288,224h1.905v1.905H288Z" transform="translate(-255.612 -199.231)" fill="#00074e"/>
          <path id="Trazado_1064617" data-name="Trazado 1064617" d="M320,224h1.905v1.905H320Z" transform="translate(-283.802 -199.231)" fill="#00074e"/>
          <path id="Trazado_1064618" data-name="Trazado 1064618" d="M176,288h11.431v1.905H176Z" transform="translate(-156.948 -255.61)" fill="#00074e"/>
          <path id="Trazado_1064619" data-name="Trazado 1064619" d="M288,288h1.905v1.905H288Z" transform="translate(-255.612 -255.61)" fill="#00074e"/>
          <path id="Trazado_1064620" data-name="Trazado 1064620" d="M320,288h1.905v1.905H320Z" transform="translate(-283.802 -255.61)" fill="#00074e"/>
          <path id="Trazado_1064621" data-name="Trazado 1064621" d="M69.345,55.04a3.817,3.817,0,0,0-3.69,2.858h-10.6v-3.81a2.861,2.861,0,0,0,2.858-2.858V48.372h5.716a9.526,9.526,0,1,0-1.553-18.925A18.1,18.1,0,0,0,28.6,25.569a11.582,11.582,0,0,0-1.172-.06,11.431,11.431,0,1,0,0,22.862h3.81v2.858A2.861,2.861,0,0,0,34.1,54.087V57.9H23.5a3.81,3.81,0,1,0,0,1.905H35.052A.953.953,0,0,0,36,58.85V54.087H37.91v7.621H30.289a.953.953,0,0,0-.953.953v2.978a3.81,3.81,0,1,0,1.905,0V63.613h7.621a.953.953,0,0,0,.953-.953V54.087h3.81v9.646a3.81,3.81,0,1,0,1.905,0V54.087h3.81V62.66a.953.953,0,0,0,.953.953h7.621v2.026a3.81,3.81,0,1,0,1.905,0V62.66a.953.953,0,0,0-.953-.953H51.246V54.087h1.905V58.85a.953.953,0,0,0,.953.953H65.655a3.81,3.81,0,1,0,3.69-4.763ZM19.81,60.755a1.905,1.905,0,1,1,1.905-1.905A1.905,1.905,0,0,1,19.81,60.755Zm12.384,8.573a1.905,1.905,0,1,1-1.905-1.905A1.905,1.905,0,0,1,32.194,69.328Zm14.289-1.905a1.905,1.905,0,1,1-1.905-1.905A1.905,1.905,0,0,1,46.483,67.423Zm14.289,1.905a1.905,1.905,0,1,1-1.905-1.905A1.905,1.905,0,0,1,60.772,69.328ZM33.147,35.988v-3.81a.954.954,0,0,1,.953-.953H55.056a.954.954,0,0,1,.953.953v3.81a.954.954,0,0,1-.953.953H34.1A.954.954,0,0,1,33.147,35.988Zm0,7.621V39.8a.954.954,0,0,1,.953-.953H55.056a.954.954,0,0,1,.953.953v3.81a.954.954,0,0,1-.953.953H34.1A.954.954,0,0,1,33.147,43.609ZM17.905,36.94a9.537,9.537,0,0,1,9.526-9.526,9.645,9.645,0,0,1,1.562.127A.952.952,0,0,0,30,27.017,16.2,16.2,0,0,1,60.432,30.77a.953.953,0,0,0,1.186.725,7.621,7.621,0,1,1,2.011,14.972H57.75a2.86,2.86,0,0,0-.566-.953,2.846,2.846,0,0,0,.73-1.905V39.8a2.846,2.846,0,0,0-.73-1.905,2.846,2.846,0,0,0,.73-1.905v-3.81a2.861,2.861,0,0,0-2.858-2.858H34.1a2.861,2.861,0,0,0-2.858,2.858v3.81a2.846,2.846,0,0,0,.73,1.905,2.846,2.846,0,0,0-.73,1.905v3.81a2.846,2.846,0,0,0,.73,1.905,2.86,2.86,0,0,0-.566.953H27.431a9.537,9.537,0,0,1-9.526-9.526ZM33.147,51.229v-3.81a.954.954,0,0,1,.953-.953H55.056a.954.954,0,0,1,.953.953v3.81a.954.954,0,0,1-.953.953H34.1a.954.954,0,0,1-.953-.953Zm36.2,9.526A1.905,1.905,0,1,1,71.25,58.85,1.905,1.905,0,0,1,69.345,60.755Z" transform="translate(-16 -15.981)" fill="#00074e"/>
        </g>
      </g>
    </g>
  </g>
</svg>
