<svg xmlns="http://www.w3.org/2000/svg" xmlns:xlink="http://www.w3.org/1999/xlink" width="108" height="108" viewBox="0 0 108 108">
  <defs>
    <filter id="Trazado_904820" x="0" y="0" width="108" height="108" filterUnits="userSpaceOnUse">
      <feOffset dy="3" input="SourceAlpha"/>
      <feGaussianBlur stdDeviation="3" result="blur"/>
      <feFlood flood-opacity="0.161"/>
      <feComposite operator="in" in2="blur"/>
      <feComposite in="SourceGraphic"/>
    </filter>
  </defs>
  <g id="Grupo_1232652" data-name="Grupo 1232652" transform="translate(-623 -6433.146)">
    <g id="Grupo_1228377" data-name="Grupo 1228377" transform="translate(632 6439.146)">
      <g id="Grupo_1173585" data-name="Grupo 1173585" transform="translate(0 0)">
        <g id="Grupo_1173428" data-name="Grupo 1173428">
          <g id="Grupo_1171958" data-name="Grupo 1171958">
            <g id="Grupo_1167341" data-name="Grupo 1167341">
              <g id="Grupo_1166792" data-name="Grupo 1166792">
                <g transform="matrix(1, 0, 0, 1, -9, -6)" filter="url(#Trazado_904820)">
                  <g id="Trazado_904820-2" data-name="Trazado 904820" transform="translate(9 6)" fill="#fef9e5">
                    <path d="M 44.99999618530273 88.50002288818359 C 39.12687301635742 88.50002288818359 33.43022155761719 87.35009765625 28.06829643249512 85.08218383789062 C 22.88852119445801 82.89133453369141 18.23629570007324 79.75460815429688 14.24084663391113 75.7591552734375 C 10.24540901184082 71.76371002197266 7.108683586120605 67.11148071289062 4.917821407318115 61.93170928955078 C 2.649921178817749 56.56978225708008 1.499996185302734 50.87313079833984 1.499996185302734 45.00000762939453 C 1.499996185302734 39.12688446044922 2.649921178817749 33.43023300170898 4.917821407318115 28.06830787658691 C 7.108683586120605 22.8885326385498 10.24540901184082 18.23630714416504 14.24084663391113 14.24085807800293 C 18.23629570007324 10.24542045593262 22.88852119445801 7.108695030212402 28.06829643249512 4.917832851409912 C 33.43022155761719 2.649932622909546 39.12687301635742 1.500007629394531 44.99999618530273 1.500007629394531 C 50.87311935424805 1.500007629394531 56.56977081298828 2.649932622909546 61.93169784545898 4.917832851409912 C 67.11147308349609 7.108695030212402 71.76369476318359 10.24542045593262 75.75914764404297 14.24085807800293 C 79.75458526611328 18.23630714416504 82.89131164550781 22.8885326385498 85.08216857910156 28.06830787658691 C 87.35007476806641 33.43023300170898 88.5 39.12688446044922 88.5 45.00000762939453 C 88.5 50.87313079833984 87.35007476806641 56.56978225708008 85.08216857910156 61.93170928955078 C 82.89131164550781 67.11148071289062 79.75458526611328 71.76371002197266 75.75914764404297 75.7591552734375 C 71.76369476318359 79.75460815429688 67.11147308349609 82.89133453369141 61.93169784545898 85.08218383789062 C 56.56977081298828 87.35009765625 50.87311935424805 88.50002288818359 44.99999618530273 88.50002288818359 Z" stroke="none"/>
                    <path d="M 44.99999618530273 2.999992370605469 C 39.32870864868164 2.999992370605469 33.82865142822266 4.110054016113281 28.65262603759766 6.299339294433594 C 23.65165710449219 8.414566040039062 19.15968322753906 11.44333648681641 15.301513671875 15.30150604248047 C 11.44333648681641 19.15967559814453 8.414566040039062 23.65164947509766 6.299339294433594 28.65262222290039 C 4.110054016113281 33.82866287231445 2.999992370605469 39.32872009277344 2.999992370605469 45.00000762939453 C 2.999992370605469 50.67129516601562 4.110054016113281 56.17133712768555 6.299339294433594 61.34738159179688 C 8.414566040039062 66.34835052490234 11.44333648681641 70.84030914306641 15.301513671875 74.69849395751953 C 19.15968322753906 78.55666351318359 23.65165710449219 81.58543395996094 28.65262603759766 83.70066833496094 C 33.82865142822266 85.88995361328125 39.32870864868164 87.00000762939453 44.99999618530273 87.00000762939453 C 50.67128372192383 87.00000762939453 56.17134094238281 85.88995361328125 61.34736633300781 83.70066833496094 C 66.34834289550781 81.58543395996094 70.84030914306641 78.55666351318359 74.69847869873047 74.69849395751953 C 78.55665588378906 70.84030914306641 81.58542633056641 66.34835052490234 83.70065307617188 61.34738159179688 C 85.88993835449219 56.17133712768555 87 50.67129516601562 87 45.00000762939453 C 87 39.32872009277344 85.88993835449219 33.82866287231445 83.70065307617188 28.65262222290039 C 81.58542633056641 23.65164947509766 78.55665588378906 19.15967559814453 74.69847869873047 15.30150604248047 C 70.84030914306641 11.44333648681641 66.34834289550781 8.414566040039062 61.34736633300781 6.299339294433594 C 56.17134094238281 4.110054016113281 50.67128372192383 2.999992370605469 44.99999618530273 2.999992370605469 M 44.99999618530273 -7.62939453125e-06 C 69.85281372070312 -7.62939453125e-06 90 20.14717864990234 90 45.00000762939453 C 90 69.85280609130859 69.85281372070312 90.00000762939453 44.99999618530273 90.00000762939453 C 20.14717864990234 90.00000762939453 -7.62939453125e-06 69.85280609130859 -7.62939453125e-06 45.00000762939453 C -7.62939453125e-06 20.14717864990234 20.14717864990234 -7.62939453125e-06 44.99999618530273 -7.62939453125e-06 Z" stroke="none" fill="#866d08"/>
                  </g>
                </g>
              </g>
            </g>
          </g>
        </g>
      </g>
    </g>
    <g id="sql_1_" data-name="sql (1)" transform="translate(645.999 6438.285)">
      <g id="Grupo_1232650" data-name="Grupo 1232650" transform="translate(0.811 21.275)">
        <path id="Trazado_1065875" data-name="Trazado 1065875" d="M190,77.139H160.031l-6.1-6.1V29.693a1.725,1.725,0,0,1,1.725-1.725H190a1.725,1.725,0,0,1,1.725,1.725V75.414A1.725,1.725,0,0,1,190,77.139Z" transform="translate(-138.145 -27.968)" fill="#dff6fd"/>
        <path id="Trazado_1065876" data-name="Trazado 1065876" d="M467.933,29.691V75.413a1.725,1.725,0,0,1-1.725,1.725h-2.7a1.725,1.725,0,0,0,1.725-1.725V29.691a1.725,1.725,0,0,0-1.725-1.725h2.7a1.725,1.725,0,0,1,1.725,1.725Z" transform="translate(-414.35 -27.966)" fill="#d8ecfe"/>
        <path id="Trazado_1065877" data-name="Trazado 1065877" d="M153.931,427.468h5.653a.447.447,0,0,1,.447.447v5.653Z" transform="translate(-138.145 -384.396)" fill="#d8ecfe"/>
        <path id="Trazado_1065878" data-name="Trazado 1065878" d="M158.571,75.743h-26.1a1.509,1.509,0,0,1-1.509-1.509V64.12a1.509,1.509,0,0,1,1.509-1.509h26.1a1.509,1.509,0,0,1,1.509,1.509V74.234A1.509,1.509,0,0,1,158.571,75.743Z" transform="translate(-117.648 -58.876)" fill="#fe5694"/>
        <path id="Trazado_1065879" data-name="Trazado 1065879" d="M366.288,64.117V74.231a1.509,1.509,0,0,1-1.509,1.509h-2.7a1.509,1.509,0,0,0,1.509-1.509V64.117a1.509,1.509,0,0,0-1.509-1.509h2.7A1.509,1.509,0,0,1,366.288,64.117Z" transform="translate(-323.855 -58.873)" fill="#fd3581"/>
        <path id="Trazado_1065880" data-name="Trazado 1065880" d="M29.284,333.015v4.651c0,2.094-4.873,3.791-10.885,3.791s-10.884-1.7-10.884-3.791v-4.651Z" transform="translate(-7.515 -300.127)" fill="#3692bc"/>
        <path id="Trazado_1065881" data-name="Trazado 1065881" d="M171.926,333.015v4.651c0,1.268-1.786,2.39-4.531,3.078,1.16-.6,1.836-1.328,1.836-2.108v-5.621Z" transform="translate(-150.157 -300.127)" fill="#0681af"/>
        <path id="Trazado_1065882" data-name="Trazado 1065882" d="M29.284,291.015v4.651c0,2.094-4.873,3.791-10.885,3.791s-10.884-1.7-10.884-3.791v-4.651Z" transform="translate(-7.515 -262.655)" fill="#8abbd5"/>
        <path id="Trazado_1065883" data-name="Trazado 1065883" d="M187.12,291.015v4.651c0,.956-1.017,1.831-2.7,2.5v-7.148Z" transform="translate(-165.351 -262.655)" fill="#6cabca"/>
        <path id="Trazado_1065884" data-name="Trazado 1065884" d="M29.284,250.149H7.515v4.529c0,2.093,4.873,3.79,10.884,3.79s10.885-1.7,10.885-3.79Z" transform="translate(-7.515 -226.195)" fill="#3692bc"/>
        <path id="Trazado_1065885" data-name="Trazado 1065885" d="M187.12,250.145v4.529c0,.955-1.017,1.83-2.7,2.5v-7.025Z" transform="translate(-165.351 -226.191)" fill="#0681af"/>
        <ellipse id="Elipse_13956" data-name="Elipse 13956" cx="10.884" cy="3.79" rx="10.884" ry="3.79" transform="translate(0 20.164)" fill="#8abbd5"/>
        <path id="Trazado_1065886" data-name="Trazado 1065886" d="M187.121,229.491c0,.956-1.017,1.831-2.7,2.5h0a9.33,9.33,0,0,0,0-4.992C186.1,227.661,187.121,228.535,187.121,229.491Z" transform="translate(-165.352 -205.537)" fill="#6cabca"/>
      </g>
      <g id="Grupo_1232651" data-name="Grupo 1232651" transform="translate(0.001 20.466)">
        <path id="Trazado_1065887" data-name="Trazado 1065887" d="M52.669,20.466H18.322A2.536,2.536,0,0,0,15.788,23v1.2h-.159a2.321,2.321,0,0,0-2.318,2.318V36.632a2.321,2.321,0,0,0,2.318,2.318h.159V40.9C10.682,40.012-.134,41.176,0,45.227H0V58.814c-.138,4.053,10.678,5.217,15.786,4.331v1.2c0,.005,0,.01,0,.015a.807.807,0,0,0,.235.557l6.1,6.1a.808.808,0,0,0,.561.236H52.669A2.536,2.536,0,0,0,55.2,68.721V23a2.536,2.536,0,0,0-2.534-2.534ZM14.928,36.632V26.519a.7.7,0,0,1,.7-.7H41.734a.7.7,0,0,1,.7.7V36.632a.7.7,0,0,1-.7.7h-26.1a.7.7,0,0,1-.7-.7ZM11.7,42.247c6.149,0,10.073,1.765,10.076,2.981h0v0c0,1.216-3.928,2.98-10.076,2.98S1.619,46.445,1.619,45.229,5.545,42.247,11.7,42.247Zm10.076,7.511c-.569,2.233-7.2,3.042-10.075,2.981-2.883.06-9.5-.746-10.076-2.981V47.683c4.312,2.853,15.839,2.853,20.151,0ZM1.619,52.212c4.566,2.81,15.219,2.967,20.151-.009v2.083c-.569,2.233-7.2,3.042-10.075,2.981-2.883.06-9.5-.746-10.076-2.981Zm0,6.6V56.74c4.566,2.81,15.219,2.967,20.151-.009v2.083c0,1.216-3.925,2.982-10.075,2.982S1.619,60.03,1.619,58.814Zm20.268,9.68-3.339-3.339h3.339Zm31.7.227a.917.917,0,0,1-.916.916H23.5V64.793a1.257,1.257,0,0,0-1.256-1.256H17.406v-.665c3.416-.7,5.983-2.064,5.983-4.058V45.234c0-2-2.564-3.364-5.983-4.063V38.95H41.734a2.321,2.321,0,0,0,2.318-2.318V26.519A2.321,2.321,0,0,0,41.734,24.2H17.405V23a.917.917,0,0,1,.916-.916H52.669a.917.917,0,0,1,.916.916Z" transform="translate(-0.001 -20.466)"/>
        <path id="Trazado_1065888" data-name="Trazado 1065888" d="M329.654,93.111h0c-.427,0-.963,0-1.4.005v-5.5a.809.809,0,0,0-1.617,0v6.3a.809.809,0,0,0,.672.8c.415.037,1.464.009,2.35.012a.809.809,0,0,0,0-1.617Z" transform="translate(-291.421 -79.661)"/>
        <path id="Trazado_1065889" data-name="Trazado 1065889" d="M173.753,90.015c-.771-.285-1.49-.594-1.714-.692-.292-.262-.156-.73.343-.879a2.081,2.081,0,0,1,1.717.4.809.809,0,0,0,1.036-1.241,3.7,3.7,0,0,0-3.22-.7,2.127,2.127,0,0,0-.719,3.812.807.807,0,0,0,.112.061c.037.016.906.4,1.884.764.272.1.9.382.814.836-.3,1.074-2.081.764-2.681.031a.809.809,0,1,0-1.2,1.086,3.816,3.816,0,0,0,2.8,1.2C175.69,94.682,176.933,91.184,173.753,90.015Z" transform="translate(-151.6 -79.614)"/>
        <path id="Trazado_1065890" data-name="Trazado 1065890" d="M245.2,92.86a3.961,3.961,0,1,0-1.133,1.154l.406.406a.809.809,0,0,0,1.144-1.143Zm-3.333.206a2.345,2.345,0,1,1,2.143-1.4l-.411-.411a.809.809,0,0,0-1.144,1.143l.43.43A2.33,2.33,0,0,1,241.87,93.066Z" transform="translate(-212.258 -79.611)"/>
        <path id="Trazado_1065891" data-name="Trazado 1065891" d="M337.159,230.563a.81.81,0,0,0,1.05-.452l2.881-7.242a.809.809,0,1,0-1.5-.6l-2.881,7.242A.809.809,0,0,0,337.159,230.563Z" transform="translate(-300.354 -200.058)"/>
        <path id="Trazado_1065892" data-name="Trazado 1065892" d="M395.77,233.039a.808.808,0,0,0,1.1-.294l1.934-3.339a.809.809,0,0,0-.007-.823l-1.934-3.208a.809.809,0,0,0-1.385.835l1.688,2.8-1.695,2.926A.809.809,0,0,0,395.77,233.039Z" transform="translate(-352.741 -202.933)"/>
        <path id="Trazado_1065893" data-name="Trazado 1065893" d="M288.751,232.745a.809.809,0,0,0,1.4-.811l-1.695-2.926,1.688-2.8a.809.809,0,0,0-1.385-.835l-1.934,3.208a.809.809,0,0,0-.007.823Z" transform="translate(-255.797 -202.933)"/>
        <path id="Trazado_1065894" data-name="Trazado 1065894" d="M269.071,321.937H246.584a.809.809,0,0,0,0,1.617h22.486A.809.809,0,0,0,269.071,321.937Z" transform="translate(-219.283 -289.434)"/>
        <path id="Trazado_1065895" data-name="Trazado 1065895" d="M269.071,354.937H246.584a.809.809,0,0,0,0,1.617h22.486A.809.809,0,0,0,269.071,354.937Z" transform="translate(-219.283 -318.876)"/>
        <path id="Trazado_1065896" data-name="Trazado 1065896" d="M269.071,387.937H246.584a.809.809,0,0,0,0,1.617h22.486A.809.809,0,0,0,269.071,387.937Z" transform="translate(-219.283 -348.319)"/>
        <path id="Trazado_1065897" data-name="Trazado 1065897" d="M269.071,420.937H246.584a.809.809,0,0,0,0,1.617h22.486A.809.809,0,0,0,269.071,420.937Z" transform="translate(-219.283 -377.761)"/>
      </g>
    </g>
  </g>
</svg>
