<svg xmlns="http://www.w3.org/2000/svg" xmlns:xlink="http://www.w3.org/1999/xlink" width="400" height="517" viewBox="0 0 400 517">
  <defs>
    <clipPath id="clip-path">
      <rect id="Rect치ngulo_424530" data-name="Rect치ngulo 424530" width="400" height="517" fill="#fff" stroke="#707070" stroke-width="1"/>
    </clipPath>
    <linearGradient id="linear-gradient" x1="0.5" x2="0.5" y2="1" gradientUnits="objectBoundingBox">
      <stop offset="0" stop-color="#903cdf"/>
      <stop offset="1" stop-color="#481e70"/>
    </linearGradient>
    <filter id="Elipse_13846" x="280" y="338" width="116" height="116" filterUnits="userSpaceOnUse">
      <feOffset dy="3" input="SourceAlpha"/>
      <feGaussianBlur stdDeviation="3" result="blur"/>
      <feFlood flood-opacity="0.161"/>
      <feComposite operator="in" in2="blur"/>
      <feComposite in="SourceGraphic"/>
    </filter>
    <filter id="Elipse_13847" x="-8" y="32" width="144" height="144" filterUnits="userSpaceOnUse">
      <feOffset dy="3" input="SourceAlpha"/>
      <feGaussianBlur stdDeviation="3" result="blur-2"/>
      <feFlood flood-opacity="0.161"/>
      <feComposite operator="in" in2="blur-2"/>
      <feComposite in="SourceGraphic"/>
    </filter>
  </defs>
  <g id="Enmascarar_grupo_1211608" data-name="Enmascarar grupo 1211608" clip-path="url(#clip-path)">
    <g id="Grupo_1231363" data-name="Grupo 1231363" transform="translate(-31.28)">
      <rect id="Rect치ngulo_423369" data-name="Rect치ngulo 423369" width="278" height="517" rx="13" transform="translate(94.28)" fill="url(#linear-gradient)"/>
      <g transform="matrix(1, 0, 0, 1, 31.28, 0)" filter="url(#Elipse_13846)">
        <circle id="Elipse_13846-2" data-name="Elipse 13846" cx="49" cy="49" r="49" transform="translate(289 344)" fill="#f6ecfe"/>
      </g>
      <g transform="matrix(1, 0, 0, 1, 31.28, 0)" filter="url(#Elipse_13847)">
        <circle id="Elipse_13847-2" data-name="Elipse 13847" cx="63" cy="63" r="63" transform="translate(1 38)" fill="#f6ecfe"/>
      </g>
      <g id="OBJECTS" transform="translate(0 58.762)">
        <g id="Grupo_1231362" data-name="Grupo 1231362">
          <path id="Trazado_1065269" data-name="Trazado 1065269" d="M355.649,271.215A33.8,33.8,0,0,0,314.995,244.4a33.856,33.856,0,0,0-67.432-2.369,16.244,16.244,0,0,0-26.916,12.265,16.853,16.853,0,0,0,.154,2.134c-.51-.023-1.008-.079-1.521-.079a33.848,33.848,0,0,0-28.048,14.868Z" transform="translate(-81.241 -41.717)" fill="#00a8ff"/>
          <path id="Trazado_1065270" data-name="Trazado 1065270" d="M346.515,479.831a41.8,41.8,0,0,0-50.292-33.175,41.883,41.883,0,0,0-83.418-2.932,20.094,20.094,0,0,0-33.3,15.172,20.517,20.517,0,0,0,.19,2.64c-.629-.028-1.245-.1-1.881-.1a41.873,41.873,0,0,0-34.7,18.394H346.515Z" transform="translate(-23.995 -41.717)" fill="#132fa9" opacity="0.4"/>
          <path id="Trazado_1065271" data-name="Trazado 1065271" d="M182.18,84.065a24.251,24.251,0,0,0-29.171-19.243,24.293,24.293,0,0,0-48.385-1.7,11.656,11.656,0,0,0-19.314,8.8,12.058,12.058,0,0,0,.11,1.531c-.364-.017-.722-.057-1.091-.057A24.286,24.286,0,0,0,64.2,84.064H182.18Z" transform="translate(219.256 -41.717)" fill="#132fa9" opacity="0.4"/>
          <g id="Grupo_1231344" data-name="Grupo 1231344" transform="translate(40.342 60.371)">
            <path id="Trazado_1065272" data-name="Trazado 1065272" d="M416.22,133.5c-8-6.375-22.183-5.05-29.125,2.416-7.75,8.334-8.375,20.209-6.75,39.584s.625,39.75-3,51.625-2,33.1,7.625,40.989,36.455,10.419,39.415-5.66-2.04-34.454-4.165-47.079S416.22,133.5,416.22,133.5Z" transform="translate(-375.568 -102.088)" fill="#aa7b72"/>
            <g id="Grupo_1231334" data-name="Grupo 1231334" transform="translate(47.568 102.723)">
              <g id="Grupo_1231332" data-name="Grupo 1231332" transform="translate(155.621)">
                <path id="Trazado_1065273" data-name="Trazado 1065273" d="M135.537,239.685a26.2,26.2,0,0,1-11.983,2.9s9.385-15.621,10.7-17.977,13.335-14.854,15.237-17.28,4.088,1.4,3.254,5.3-6.4,10.866-8.25,13.227a36.774,36.774,0,0,0-3.541,5.06c-.5.9-1.508,3.246-2.276,5.094,1.477-1.731,2.652-3.119,3.1-3.678,1.7-2.1,15.661-12.377,17.948-14.445s3.788,2.078,2.307,5.779-8.15,9.623-10.374,11.637a36.764,36.764,0,0,0-4.348,4.386c-.737.906-2.068,4.3-2.911,6.575,1.99-1.9,4.939-4.667,5.65-5.121,1.1-.7,7.909-3.349,9.992-4.509s2.922.8,2.552,3.018a8.555,8.555,0,0,1-4.572,6.133c-2.589,1.178-4.132,2.071-4.132,2.071l-3.9,10c-.565,4.381-1.138,14.726-1.557,17.949s-.772,6.73-5.144,10.271l-15.586-2.011-2.5-38.565,4.726.7C131.366,244.541,133.477,242.088,135.537,239.685Z" transform="translate(-64.13 -204.811)" fill="#e98f80"/>
                <path id="Trazado_1065274" data-name="Trazado 1065274" d="M153,249.821s.083-18.223.011-20.921,3.869-19.583,4.264-22.641,4.232-.882,5.51,2.9.053,12.61-.331,15.585a36.832,36.832,0,0,0-.458,6.158c.043,1.8,1.043,8.2,1.043,8.2A27.169,27.169,0,0,1,153,249.821Z" transform="translate(-94.241 -204.811)" fill="#e98f80"/>
                <path id="Trazado_1065275" data-name="Trazado 1065275" d="M196.723,275.922a11.654,11.654,0,0,0,2.037-7.972c-.389-3.495-.308-16.508-.4-18.369s1.571-7.779,2.788-9.639a61.38,61.38,0,0,1,5.218-6.175,32.626,32.626,0,0,0,4.608-3.481c.944-1.139,1.888-1.94,2.857-1.312s2.367,3.793,1.566,6.42-3.4,4.9-4.281,5.834a15.23,15.23,0,0,0-1.757,2.546l.192,3.07c.63,1.468,4.709,8.926,7.057,13.2s8.921,19.275,3.272,25.44c-4.172,4.551-7.33,6.511-10.125,9.932s-49.276,62.005-49.276,62.005l-20.32-30.189S188.624,285.3,196.723,275.922Z" transform="translate(-140.156 -204.811)" fill="#ffcfbb"/>
              </g>
              <g id="Grupo_1231333" data-name="Grupo 1231333" transform="translate(0 61.648)">
                <path id="Trazado_1065276" data-name="Trazado 1065276" d="M196.038,331.3s12.938-7.75,14.25-8.188a4.106,4.106,0,0,1,2.938,0c1.023.283,13,11.125,21.313,27.813,1.109,2.228.438,2.75,0,3.375s-13.75,13.375-13.75,13.375Z" transform="translate(-53.452 -266.459)" fill="#20364f"/>
                <path id="Trazado_1065277" data-name="Trazado 1065277" d="M215.105,273.982c6.927-7.916,29.75-10.75,41.25-2.75s33.875,38.875,33.875,38.875c13.375,7.875,38.25,23,38.25,23s2.5-1.75,4.25-1.25a4.286,4.286,0,0,1,2.5,2.25s.924-1.505,1.967-1.122a21.918,21.918,0,0,1,3.283,2s2-5.5,4.5-5.625a57.005,57.005,0,0,1,8,.75,115.774,115.774,0,0,1,24.75,37.75c-.375,7-.75,9-2.5,9.625s-8,0-8,0-12.5,10.125-19.375,12.5-8.75,2.5-12.625,1.375-34.75-13.248-51-20a186.526,186.526,0,0,0-26.75-9.251c-5.375-1.625-19.875-4.625-24.75-8.375s-19-13.375-22.75-41S210.73,278.982,215.105,273.982Z" transform="translate(-208.581 -266.459)" fill="#dbe2eb"/>
              </g>
              <path id="Trazado_1065278" data-name="Trazado 1065278" d="M122.689,247.966c3.6-2.31,11.705.975,21.29,7.921.021,2.534.05,5.385.113,7.77-3.8-2.063-6.9-2.784-8.564-1.714-3.831,2.459,1.3,13.438,11.432,24.47s21.5,18.009,25.328,15.55c3.013-1.934.465-9.146-5.687-17.505a11.661,11.661,0,0,0,2.682-4.664c14.343,16.941,21.394,32.585,15.845,36.146-6.086,3.9-25.043-8.166-42.255-26.9S116.6,251.871,122.689,247.966Z" transform="translate(69.914 -204.811)" fill="#fff" opacity="0.6"/>
            </g>
            <path id="Trazado_1065279" data-name="Trazado 1065279" d="M375.129,152.436c-.085,2.969,10.376,14.9,11.667,16.564s1.249,2.917.541,4.125-2.5,2.416-3.166,3.333a3.132,3.132,0,0,0-.7,2.682,16.78,16.78,0,0,0,1.094,2.813,11.6,11.6,0,0,1-2.437,2.625c.562,1.078,1.047,3.516.625,4.25s-2.25,2.234-2.219,3.953.281,9.563.469,12.5-.813,6.094-7.688,5.844-11.75-.5-15.812,5.125-4.083,13,0,21.333v18.75H302.838V228s7.5-17,2.667-22.333-26.833-22.334-25.5-47.334,17.75-45.083,45.5-47.75C349.219,108.3,376.086,119.082,375.129,152.436Z" transform="translate(-242.477 -102.088)" fill="#ffcfbb"/>
            <path id="Trazado_1065280" data-name="Trazado 1065280" d="M313.531,174.209c-2.515.732-5.611,1.624-6.961,1.971a9.5,9.5,0,0,1-6.517-.841c-1.75-.847-6.971-3.054-7.95-3.718a7.367,7.367,0,0,1-2.523-3.705c-.461-1.549-4.791-12.452-5.379-14.324s-1.158-4.5,1-5.613c1.452-.75,9.8-3.484,15.113-5.194a6.932,6.932,0,0,1,2.521-5.243c2.409-2,17.885-7.165,31.568-9.7,4.053,6.259,6.388,14.361,6.094,24.6-.063,2.163,5.471,9.078,8.98,13.319a5.876,5.876,0,0,0-3.935,0c-2.915,1.078-20.738,7.329-24.938,8.775C317.771,175.507,315.3,175.444,313.531,174.209Z" transform="translate(-207.844 -102.088)" fill="#e98f80" opacity="0.7"/>
            <path id="Trazado_1065281" data-name="Trazado 1065281" d="M380.495,193.3c6.2-9.637,7.455-10.109,6.845-16.791s-3.841-16.488-2.742-26.44c.546-4.945,3.509-12.46,9-19.523a17.933,17.933,0,0,1,5.617,2.954s1.875,69.25,4,81.875c.564,3.355,1.332,7.123,2.1,11.138a34.873,34.873,0,0,1-8.637-1.649C383.749,220.751,374.3,202.935,380.495,193.3Z" transform="translate(-358.561 -102.088)" fill="#aa7b72" opacity="0.5"/>
            <path id="Trazado_1065282" data-name="Trazado 1065282" d="M370.506,108c15.125-.375,20.687,1.188,25.062,11s-.125,19.062-7.187,21.125c0,0-6.625,1.938-8.938,2.438.188-1.688.563-5.875.563-5.875s-2.75,4.938-7.5,7a123.178,123.178,0,0,1-20.313,7.125s-3.125,12.188-6.5,17c6.188,0,18.938,8.375,9.938,20.25-1.125-7-6.688-17.813-14.125-17.938l1.458,19.626s1.417,15-2,22.25-12.083,12.5-25.5,10.5-25.585-18.084-21-28.584,5.751-11.166,4.084-17.666-6.417-15.667-6.917-25.667,7-31.833,27.333-41.333S368.714,100.081,370.506,108Z" transform="translate(-263.604 -102.088)" fill="#aa7b72"/>
            <path id="Trazado_1065283" data-name="Trazado 1065283" d="M340.557,160.18a240.871,240.871,0,0,1,50.611-16.623l6.171,20.519A240.851,240.851,0,0,0,346.728,180.7c-1.1-.051-1.46-.137-1.773-.949s-4.312-13.688-4.75-15.313S339.185,161.832,340.557,160.18Z" transform="translate(-311.741 -102.088)" fill="#20364f"/>
            <path id="Trazado_1065284" data-name="Trazado 1065284" d="M353.43,165.21,339.7,146.6c7.8-2.1,12.783-3.04,12.783-3.04l6.171,20.519S356.738,164.438,353.43,165.21Z" transform="translate(-273.058 -102.088)" fill="#20364f" opacity="0.4"/>
            <path id="Trazado_1065285" data-name="Trazado 1065285" d="M348.823,168.665s-8.417,1.682-10.917,2.091a9.515,9.515,0,0,1-6.416-1.424c-1.667-1-6.668-3.667-7.584-4.417a7.371,7.371,0,0,1-2.18-3.916c-.32-1.584-3.653-12.833-4.07-14.75s-.75-4.583,1.5-5.5,20.083-4.834,20.083-4.834Z" transform="translate(-240.879 -102.088)" fill="#20364f"/>
            <path id="Trazado_1065286" data-name="Trazado 1065286" d="M321.012,124.687a4.387,4.387,0,0,1,4.125,2.625c.625,1.5,6,28.062,6.375,30.812s-1.856,5.479-5.178,6.833c0,0-1.2-1.9-4.2-1.083s-21.313,5.438-25.625,6.5-7.625-.063-8.813-3.75-7.812-25.375-8.375-27.25a6.97,6.97,0,0,1,2.813-7.438C285.137,129.873,306.137,125.124,321.012,124.687Z" transform="translate(-185.36 -102.088)" fill="#fff"/>
            <path id="Trazado_1065287" data-name="Trazado 1065287" d="M359.664,170.957c-3.125-3.75-8.833-7.041-13.25-4.916s-3.958,11.459,0,16.875,7.583,7.166,10.333,7.708a55.152,55.152,0,0,0,6.125.75Z" transform="translate(-280.845 -102.088)" fill="#ffcfbb"/>
            <path id="Trazado_1065288" data-name="Trazado 1065288" d="M305.949,184.416a6.875,6.875,0,0,0-2.542-.791c-1.292-.084-9.917-1.042-11.792-1.417s-1.916-1.251-2.333-1.667-2.791-.249-2.958.334,1.667,2.542,5.75,3S305.949,184.416,305.949,184.416Z" transform="translate(-166.965 -102.088)" fill="#e98f80"/>
            <path id="Trazado_1065289" data-name="Trazado 1065289" d="M297.327,204.374c.75-2,24,6.25,28.756,6.661h0c-5.433-.112-9.521.387-13.006,5.213-3.871,5.359-4.063,12.31-.541,20.162C302.272,227.393,296.6,206.3,297.327,204.374Z" transform="translate(-198.05 -102.088)" fill="#e98f80" opacity="0.7"/>
            <g id="Grupo_1231338" data-name="Grupo 1231338" transform="translate(11.441 116.619)">
              <path id="Trazado_1065290" data-name="Trazado 1065290" d="M264.6,475.666H400.771s2.667,14.168,3,24.334h-144A115.522,115.522,0,0,1,264.6,475.666Z" transform="translate(-249.685 -218.707)" fill="#098576"/>
              <path id="Trazado_1065291" data-name="Trazado 1065291" d="M359.561,239.735s25.832,15.764,28.916,17.931,4.416,3.251,5.5,7.584,6.167,27.917,6.167,27.917,12.667,26.666,13.5,29.666-.667,25.834-6.5,42.167c-.833,12.167-1.791,83.374-1.541,88s2.375,6.25,2.25,8.375-2.625,5.5-2.625,5.5V488.5c0,1.75-2,3.25-4.125,3.375s-20.542,6.292-135.542-2.542c-3.2-.245-4-2.167-4-4s.916-19.833.916-19.833-5.75-7.667-4.333-9.917S270.4,437,277.061,429c-4.5-25.334-18.334-85.667-22.334-105.167s-8.167-46.334,3.833-59.167,34.584-25.248,34.584-25.248L352.826,255.5Z" transform="translate(-250.643 -218.707)" fill="#ffb10a"/>
              <g id="Grupo_1231335" data-name="Grupo 1231335" transform="translate(30.048 22.824)">
                <path id="Trazado_1065292" data-name="Trazado 1065292" d="M353.406,272.109c14.855-17.632,30.25-26.1,30.4-26.18l-2.38-4.4c-.66.357-16.345,8.955-31.848,27.357Z" transform="translate(-349.581 -241.531)" fill="#20364f"/>
              </g>
              <g id="Grupo_1231336" data-name="Grupo 1231336" transform="translate(18.997 18.829)">
                <path id="Trazado_1065293" data-name="Trazado 1065293" d="M364.457,268.113c14.854-17.632,30.25-26.1,30.4-26.18l-2.38-4.4c-.66.357-16.345,8.955-31.848,27.357Z" transform="translate(-360.632 -237.536)" fill="#20364f"/>
              </g>
              <path id="Trazado_1065294" data-name="Trazado 1065294" d="M295.671,361.2c-5.063-2.43-18.931-7.62-23.172-12.074s-16.724-16.131-16.189-44.005,5.919-33.235,11.01-37.505c8.06-6.759,25.333-1.677,35.469,7.993s33.223,39.232,33.223,39.232c12.009,9.834,34.268,28.6,34.268,28.6s2.739-1.346,4.393-.583a4.288,4.288,0,0,1,2.125,2.607s1.143-1.345,2.116-.807a21.871,21.871,0,0,1,2.938,2.477s2.82-5.128,5.31-4.867a57,57,0,0,1,7.79,1.969,109.132,109.132,0,0,1,10.4,17.58q-.506,1.627-1.061,3.189c-.288,4.21-.592,15.49-.854,28.634-.98-.224-1.674-.4-1.674-.4s-13.906,8.088-21.064,9.379-9.03,1.127-12.686-.578-32.307-18.424-47.328-27.588A186.452,186.452,0,0,0,295.671,361.2Z" transform="translate(-247.788 -218.707)" fill="#ff7c0a" opacity="0.5"/>
              <path id="Trazado_1065295" data-name="Trazado 1065295" d="M259.07,466.039c.017-.342.027-.54.027-.54s-.119-.16-.307-.422l.241-.085.107.009c33.965,2.838,104.308,4.788,119.709,4.346V452.832c0-.842-.1-86.042-1.332-109.307-1.146-21.616-2.578-31.2-9.3-49.017-5.125-13.58-15.257-31.748-19.547-39.22l.779.21.211-.493c4.37,7.622,14.391,25.63,19.492,39.149,6.772,17.944,8.214,27.582,9.365,49.317,1.234,23.289,1.334,108.518,1.334,109.359v16.478c13.768-.533,21.775-2.89,21.835-2.907l.649-.228c-.285.428-.484.7-.484.7v.52c-1.1.309-8.873,2.371-21.579,2.9a8.334,8.334,0,0,1,1.079,4.207V490.33a10.21,10.21,0,0,1-.559,3.321l-1.08.053a9.2,9.2,0,0,0,.639-3.374V474.5a7.106,7.106,0,0,0-1.24-4.159c-1.5.047-3.547.07-6.073.07-7.124,0-17.972-.182-30.452-.51a8.056,8.056,0,0,1,1.1,4.6V490.83a10.018,10.018,0,0,1-.425,3.006l-1.033-.026a8.839,8.839,0,0,0,.458-2.979V474.5c0-3.369-1.159-4.414-1.474-4.636-27.055-.729-61.288-2.128-82.045-3.857Z" transform="translate(-247.263 -218.707)" fill="#ff7c0a"/>
              <path id="Trazado_1065296" data-name="Trazado 1065296" d="M310.458,239.417s4.583-17,5.833-18.834a4.322,4.322,0,0,1,4.75-1.75c1.667.334,23.5,9.917,33,15.667s14.111,10.613,17.25,24.75c.333,1.5-.666,1.749-2.083,1.333S327.542,245.084,310.458,239.417Z" transform="translate(-267.955 -218.707)" fill="#20364f"/>
              <path id="Trazado_1065297" data-name="Trazado 1065297" d="M305.143,226s-1.871,12.417-1.871,18.167,4.008,17.1,4.365,16.419,4.719-5.335,7.552-20.169c0,0-6.5-11.5-7.833-13.167S305.143,226,305.143,226Z" transform="translate(-204.604 -218.707)" fill="#20364f"/>
              <path id="Trazado_1065298" data-name="Trazado 1065298" d="M265.8,259.952a10.47,10.47,0,0,1,2.617,5.3c1.06,4.235,5.937,26.849,6.156,27.868-1.3-2.939-9.694-21.87-10.155-23.369C264.142,268.84,265,264.022,265.8,259.952Z" transform="translate(-125.086 -218.707)" fill="#ff7c0a"/>
              <g id="Grupo_1231337" data-name="Grupo 1231337" transform="translate(52 182.292)">
                <path id="Trazado_1065299" data-name="Trazado 1065299" d="M325.021,456.749a2.987,2.987,0,0,0,1.916-.693c26.584-22.1,34.488-50.083,34.812-51.264a3,3,0,0,0-5.787-1.588h0c-.075.272-7.787,27.4-32.861,48.239a3,3,0,0,0,1.92,5.306Z" transform="translate(-322.02 -400.999)" fill="#fff"/>
              </g>
            </g>
            <g id="Grupo_1231343" data-name="Grupo 1231343" transform="translate(12.003 105.716)">
              <g id="Grupo_1231339" data-name="Grupo 1231339" transform="translate(152.522)">
                <path id="Trazado_1065300" data-name="Trazado 1065300" d="M192,253.17l-3.188-15.313c2.125-6.313,5.875-15.5,6.875-16.75s4.25-6.25,4.125-8.75-1.939-6.125-3.626-3.813-6.562,9.313-8.124,11.5a40.147,40.147,0,0,0-3.75,6.625c-.625,1.5-4.813,13.375-4.813,13.375l-8.375,6.875,4.688,28.687,10.813-3.563Z" transform="translate(-110.157 -207.805)" fill="#e98f80"/>
                <path id="Trazado_1065301" data-name="Trazado 1065301" d="M178.237,242.42s2.625-14.125,3.188-15.875,6.291-7.75,6.583-8.375,6.292-5.5,7.042-6.313,3.625,1.188,3.063,4.688-5.75,7.563-6.813,9-4.375,11.25-4.375,11.25A14.8,14.8,0,0,1,178.237,242.42Z" transform="translate(-115.649 -207.805)" fill="#e98f80"/>
                <path id="Trazado_1065302" data-name="Trazado 1065302" d="M194.819,218.92c2-2.875,2.938-4.5,3.563-5.125s3.313,1.063,3.188,4.125a21.573,21.573,0,0,1-3,9.438,13.332,13.332,0,0,0-2.063,5.563c-.25,1.438-1.688,8.813-1.688,8.813l-8.369,5.5s1.682-13.664,1.932-15.363a17.775,17.775,0,0,1,1.875-5.32C190.756,225.92,194.819,218.92,194.819,218.92Z" transform="translate(-127.251 -207.805)" fill="#e98f80"/>
                <path id="Trazado_1065303" data-name="Trazado 1065303" d="M167.609,273.087c-.75-7.75,1.834-20.083,12.417-25.083,1-5.75.979-8.771,4.167-12.271,2.321-2.549,6.063-3.438,7.25-3s.689,2,.438,2.875a122.541,122.541,0,0,0-2.688,17.249c-.375,5-.875,16.438-3.563,20.751S168.317,294.3,168.317,294.3Z" transform="translate(-98.917 -207.805)" fill="#e98f80"/>
                <path id="Trazado_1065304" data-name="Trazado 1065304" d="M248.91,234.712a43.364,43.364,0,0,0,7.834-5.542c1.523-1.48,2.105-.951,2.5.584.375,1.458.458,4.165-2.667,7.124-2.712,2.568-4,3.459-4.25,3.959s-1.25,7.083-1.25,7.083,2.055,10.417,2.652,11.167A61.814,61.814,0,0,1,259.3,272.17c1.611,5.583,3.112,11.333-2.472,16.75s-47.692,60.329-56.108,65.912l-18.167-31s48.667-40.346,56.775-48.578c1.705-1.73,3.332-3.667,3.166-5.917s-.77-20.313-.77-21.5a7.887,7.887,0,0,1,.938-3.688c.625-1.125,4.124-7.146,4.541-7.771A6.29,6.29,0,0,1,248.91,234.712Z" transform="translate(-182.551 -207.805)" fill="#ffcfbb"/>
              </g>
              <path id="Trazado_1065305" data-name="Trazado 1065305" d="M231.6,326.686s12.938-7.75,14.25-8.188a4.106,4.106,0,0,1,2.938,0c1.023.283,13,11.125,21.313,27.813,1.109,2.228.438,2.75,0,3.375s-13.75,13.375-13.75,13.375Z" transform="translate(-89.017 -207.805)" fill="#20364f"/>
              <path id="Trazado_1065306" data-name="Trazado 1065306" d="M250.67,269.374c6.927-7.916,29.75-10.75,41.25-2.75S325.8,305.5,325.8,305.5c13.375,7.875,38.25,23,38.25,23s2.5-1.75,4.25-1.25a4.286,4.286,0,0,1,2.5,2.25s.924-1.505,1.967-1.122a21.918,21.918,0,0,1,3.283,2s2-5.5,4.5-5.625a57.005,57.005,0,0,1,8,.75,115.774,115.774,0,0,1,24.75,37.75c-.375,7-.75,9-2.5,9.625s-8,0-8,0S390.3,383,383.42,385.374s-8.75,2.5-12.625,1.375-34.75-13.248-51-20a186.526,186.526,0,0,0-26.75-9.251c-5.375-1.625-19.875-4.625-24.75-8.375s-19-13.375-22.75-41S246.3,274.374,250.67,269.374Z" transform="translate(-244.146 -207.805)" fill="#fff"/>
              <circle id="Elipse_13888" data-name="Elipse 13888" cx="18.914" cy="18.914" r="18.914" transform="translate(35.529 126.693) rotate(-135)" fill="#20364f"/>
              <g id="Grupo_1231342" data-name="Grupo 1231342" transform="translate(24.134 89.896)">
                <path id="Trazado_1065307" data-name="Trazado 1065307" d="M367.7,314.541c-2.063-.223-2.717-1.749-1.452-3.394l3.331-4.334-1.121-5.352c-.426-2.03.825-3.123,2.779-2.429l5.152,1.828,4.741-2.72c1.8-1.033,3.227-.18,3.171,1.894l-.148,5.465,4.057,3.673c1.534,1.391,1.163,3.008-.824,3.6l-1.626.48s-3.617,1.069-3.617,1.069l-2.238,4.989c-.848,1.89-2.5,2.04-3.673.334l-3.1-4.512Z" transform="translate(-365.608 -297.701)" fill="#cf4731"/>
                <g id="Grupo_1231340" data-name="Grupo 1231340" transform="translate(7.264 6.713)">
                  <path id="Trazado_1065308" data-name="Trazado 1065308" d="M375.612,306.469a1.175,1.175,0,1,0-.045-1.808A1.288,1.288,0,0,0,375.612,306.469Z" transform="translate(-371.066 -304.414)" fill="#20364f"/>
                  <path id="Trazado_1065309" data-name="Trazado 1065309" d="M379.766,310.1a1.175,1.175,0,1,0-.046-1.808A1.288,1.288,0,0,0,379.766,310.1Z" transform="translate(-379.372 -304.414)" fill="#20364f"/>
                </g>
                <g id="Grupo_1231341" data-name="Grupo 1231341" transform="translate(11.299 11.069)">
                  <path id="Trazado_1065310" data-name="Trazado 1065310" d="M376.8,311.515a3.108,3.108,0,0,0,1.061-2.142.565.565,0,1,0-1.128-.075,1.993,1.993,0,0,1-2.122,1.852.566.566,0,0,0-.076,1.129A3.111,3.111,0,0,0,376.8,311.515Z" transform="translate(-374.008 -308.77)" fill="#20364f"/>
                </g>
              </g>
              <path id="Trazado_1065311" data-name="Trazado 1065311" d="M306.583,330s-4.333,7.583-4.583,9.833-3.916,19.417-5.083,26.167-2.25-9.5-1.667-12.667,3.75-8.166,4.25-9.833,2.916-6.833,2.333-6.75-5.083,4.249-5.583,5.166-6.5,14.5-7.5,17.084-2.083-1.084-1.75-5.584,2.5-9.75,2.833-9.75-.834,8.25,0,7.667,3.918-9.667,5.334-11.25a109.567,109.567,0,0,1,8.541-7.25A30.918,30.918,0,0,0,306.583,330Z" transform="translate(-180.227 -207.805)" fill="#dbe2eb"/>
              <path id="Trazado_1065312" data-name="Trazado 1065312" d="M355.648,305.5s-24.25-17.125-24-17.625,16.322,7.444,16.322,7.444S351.523,299.624,355.648,305.5Z" transform="translate(-273.999 -207.805)" fill="#dbe2eb"/>
              <path id="Trazado_1065313" data-name="Trazado 1065313" d="M406.974,363.5h0a181.209,181.209,0,0,0-18.625-6c-5.375-1.625-19.875-4.625-24.75-8.375a50.705,50.705,0,0,1-17.828-22.337C351.5,339.622,387.88,354.889,406.974,363.5Z" transform="translate(-339.45 -207.805)" fill="#dbe2eb"/>
              <path id="Trazado_1065314" data-name="Trazado 1065314" d="M166.857,247.054c4.426-2.841,15.667,2.78,28.091,13.267.1,2.761.2,5.372.274,7.112-6.822-5.37-12.92-8.074-15.526-6.4-3.831,2.459,1.3,13.438,11.432,24.47s21.5,18.009,25.328,15.55c2.749-1.765.865-7.925-4.154-15.338,1.147-1.331,2.321-2.7,3.45-4.045,12.777,15.842,18.786,29.995,13.544,33.36-6.086,3.9-25.043-8.166-42.255-26.9S160.772,250.959,166.857,247.054Z" transform="translate(17.144 -207.805)" fill="#fff" opacity="0.6"/>
            </g>
          </g>
          <path id="Trazado_1065315" data-name="Trazado 1065315" d="M337.4,406.9a19.93,19.93,0,0,1,23.976-15.815,19.967,19.967,0,0,1,39.767-1.4,9.58,9.58,0,0,1,15.873,7.233,9.784,9.784,0,0,1-.091,1.259c.3-.014.594-.047.9-.047A19.963,19.963,0,0,1,434.36,406.9H337.4Z" transform="translate(-306.117 -41.717)" fill="#ff638d"/>
          <path id="Trazado_1065316" data-name="Trazado 1065316" d="M337.63,83.67a15.45,15.45,0,0,1,18.589-12.262,15.481,15.481,0,0,1,30.833-1.084,7.427,7.427,0,0,1,12.307,5.609,7.668,7.668,0,0,1-.069.976c.232-.011.46-.036.694-.036a15.476,15.476,0,0,1,12.825,6.8H337.63Z" transform="translate(-284.566 -35.51)" fill="#fff"/>
          <g id="Grupo_1231345" data-name="Grupo 1231345" transform="translate(287.906 28.461)">
            <path id="Trazado_1065317" data-name="Trazado 1065317" d="M36.514,292.375C34.92,304.98,40.14,312.3,47.757,308.852l114.179-51.635c2.247-1.016,4.522-7,5.145-13.385l10.492-107.5c.591-6.051-.49-11.773-2.468-12.831L77.112,71.1c-6.373-3.4-12.966,2.854-14.4,14.224Z" transform="translate(-36.227 -70.178)" fill="#ff638d" opacity="0.3"/>
            <path id="Trazado_1065318" data-name="Trazado 1065318" d="M36.514,292.375C34.92,304.98,40.14,312.3,47.757,308.852l114.179-51.635c2.247-1.016,4.522-7,5.145-13.385l10.492-107.5c.591-6.051-.49-11.773-2.468-12.831L77.112,71.1c-6.373-3.4-12.966,2.854-14.4,14.224Z" transform="translate(-36.227 -70.178)" fill="none" stroke="#ff638d" stroke-miterlimit="10" stroke-width="1"/>
            <path id="Trazado_1065319" data-name="Trazado 1065319" d="M87.094,76.441l-29.75,51.313L36.514,292.375C34.92,304.98,40.14,312.3,47.757,308.852l9.791-4.427,84.559-198.566Zm37.2,197.8,51.294-150.35c1.659,1.669,2.522,6.911,1.98,12.447l-6.942,71.121-15.9,53.016Z" transform="translate(-36.227 -70.178)" fill="#fff" opacity="0.2"/>
          </g>
          <path id="Trazado_1065320" data-name="Trazado 1065320" d="M76.637,446.721,82,441.353l-5.367-5.369a3.4,3.4,0,0,1,4.815-4.814l5.368,5.368,5.367-5.368A3.405,3.405,0,1,1,97,435.984l-5.367,5.369L97,446.721a3.405,3.405,0,1,1-4.816,4.815l-5.369-5.367-5.368,5.367a3.4,3.4,0,1,1-4.814-4.815Z" transform="translate(291.999 -41.717)" fill="#ffa821"/>
          <path id="Trazado_1065321" data-name="Trazado 1065321" d="M441.283,330.013s0-.01,0-.015,0-.01,0-.015c-26.238-.347-10.912-26.883,2.507-4.307l.026-.016c-12.847-22.914,17.821-22.914,4.977,0,.008.006.015.008.022.013,13.419-22.573,28.747,3.963,2.509,4.31v.03c26.234.349,10.91,26.882-2.505,4.31a.118.118,0,0,0-.026.016c12.841,22.913-17.821,22.913-4.977,0a.1.1,0,0,1-.026-.016C430.371,356.9,415.045,330.361,441.283,330.013Z" transform="translate(-426.966 -41.717)" fill="#fff"/>
          <path id="Trazado_1065322" data-name="Trazado 1065322" d="M205.995,437.652a3.361,3.361,0,0,1,4.653-.995l10.045,6.507,10.047-6.507a3.363,3.363,0,0,1,3.66,0l10.037,6.506,10.04-6.506a3.363,3.363,0,0,1,3.66,0l10.037,6.506,10.033-6.506a3.361,3.361,0,0,1,3.66,0l10.037,6.506,10.037-6.506a3.365,3.365,0,1,1,3.66,5.648L293.735,450a3.363,3.363,0,0,1-3.66,0l-10.037-6.506L270,449.995a3.357,3.357,0,0,1-3.659,0l-10.038-6.506L246.266,450a3.363,3.363,0,0,1-3.66,0l-10.037-6.506L222.522,450a3.362,3.362,0,0,1-3.658,0L206.991,442.3A3.365,3.365,0,0,1,205.995,437.652Z" transform="translate(-46.951 -41.717)" fill="#00a8ff"/>
          <path id="Trazado_1065323" data-name="Trazado 1065323" d="M362.837,195.337a2.377,2.377,0,0,1,3.29-.7l7.1,4.6,7.1-4.6a2.378,2.378,0,0,1,2.588,0l7.1,4.6,7.1-4.6a2.378,2.378,0,0,1,2.588,0l7.1,4.6,7.095-4.6a2.377,2.377,0,0,1,2.588,0l7.1,4.6,7.1-4.6a2.38,2.38,0,1,1,2.588,3.994l-8.391,5.439a2.378,2.378,0,0,1-2.588,0l-7.1-4.6-7.1,4.6a2.374,2.374,0,0,1-2.587,0l-7.1-4.6-7.1,4.6a2.378,2.378,0,0,1-2.588,0l-7.1-4.6-7.1,4.6a2.378,2.378,0,0,1-2.587,0l-8.4-5.439A2.38,2.38,0,0,1,362.837,195.337Z" transform="translate(-331.175 -37.493)" fill="#75c038"/>
          <g id="Grupo_1231358" data-name="Grupo 1231358" transform="translate(396.665 196.306)">
            <g id="Grupo_1231346" data-name="Grupo 1231346">
              <path id="Trazado_1065324" data-name="Trazado 1065324" d="M68.975,239.771a1.752,1.752,0,1,0-1.752,1.752A1.753,1.753,0,0,0,68.975,239.771Z" transform="translate(-65.471 -238.023)" fill="#fff"/>
            </g>
            <g id="Grupo_1231347" data-name="Grupo 1231347" transform="translate(0 15.789)">
              <path id="Trazado_1065325" data-name="Trazado 1065325" d="M68.975,255.564a1.752,1.752,0,1,0-1.752,1.751A1.756,1.756,0,0,0,68.975,255.564Z" transform="translate(-65.471 -253.812)" fill="#fff"/>
            </g>
            <g id="Grupo_1231348" data-name="Grupo 1231348" transform="translate(0 31.581)">
              <path id="Trazado_1065326" data-name="Trazado 1065326" d="M68.975,271.356a1.752,1.752,0,1,0-1.752,1.752A1.755,1.755,0,0,0,68.975,271.356Z" transform="translate(-65.471 -269.604)" fill="#fff"/>
            </g>
            <g id="Grupo_1231349" data-name="Grupo 1231349" transform="translate(0 47.374)">
              <path id="Trazado_1065327" data-name="Trazado 1065327" d="M68.975,287.147a1.752,1.752,0,1,0-1.752,1.75A1.753,1.753,0,0,0,68.975,287.147Z" transform="translate(-65.471 -285.397)" fill="#fff"/>
            </g>
            <g id="Grupo_1231350" data-name="Grupo 1231350" transform="translate(15.558)">
              <path id="Trazado_1065328" data-name="Trazado 1065328" d="M53.417,239.771a1.751,1.751,0,1,0-1.751,1.752A1.752,1.752,0,0,0,53.417,239.771Z" transform="translate(-49.915 -238.023)" fill="#fff"/>
            </g>
            <g id="Grupo_1231351" data-name="Grupo 1231351" transform="translate(15.558 15.789)">
              <path id="Trazado_1065329" data-name="Trazado 1065329" d="M53.417,255.564a1.751,1.751,0,1,0-1.751,1.751A1.755,1.755,0,0,0,53.417,255.564Z" transform="translate(-49.915 -253.812)" fill="#fff"/>
            </g>
            <g id="Grupo_1231352" data-name="Grupo 1231352" transform="translate(15.558 31.581)">
              <path id="Trazado_1065330" data-name="Trazado 1065330" d="M53.417,271.356a1.751,1.751,0,1,0-1.751,1.752A1.755,1.755,0,0,0,53.417,271.356Z" transform="translate(-49.915 -269.604)" fill="#fff"/>
            </g>
            <g id="Grupo_1231353" data-name="Grupo 1231353" transform="translate(15.559 47.374)">
              <circle id="Elipse_13889" data-name="Elipse 13889" cx="1.75" cy="1.75" r="1.75" fill="#fff"/>
            </g>
            <g id="Grupo_1231354" data-name="Grupo 1231354" transform="translate(31.112)">
              <path id="Trazado_1065331" data-name="Trazado 1065331" d="M37.863,239.771a1.751,1.751,0,1,0-1.75,1.752A1.752,1.752,0,0,0,37.863,239.771Z" transform="translate(-34.36 -238.023)" fill="#fff"/>
            </g>
            <g id="Grupo_1231355" data-name="Grupo 1231355" transform="translate(31.112 15.789)">
              <path id="Trazado_1065332" data-name="Trazado 1065332" d="M37.863,255.564a1.751,1.751,0,1,0-1.75,1.751A1.756,1.756,0,0,0,37.863,255.564Z" transform="translate(-34.36 -253.812)" fill="#fff"/>
            </g>
            <g id="Grupo_1231356" data-name="Grupo 1231356" transform="translate(31.112 31.581)">
              <path id="Trazado_1065333" data-name="Trazado 1065333" d="M37.863,271.356a1.751,1.751,0,1,0-1.75,1.752A1.755,1.755,0,0,0,37.863,271.356Z" transform="translate(-34.36 -269.604)" fill="#fff"/>
            </g>
            <g id="Grupo_1231357" data-name="Grupo 1231357" transform="translate(31.112 47.374)">
              <path id="Trazado_1065334" data-name="Trazado 1065334" d="M37.863,287.147a1.751,1.751,0,1,0-1.75,1.75A1.753,1.753,0,0,0,37.863,287.147Z" transform="translate(-34.36 -285.397)" fill="#fff"/>
            </g>
          </g>
          <path id="Trazado_1065335" data-name="Trazado 1065335" d="M266.308,86.592c-1.8-.054-2.475-1.335-1.489-2.849l2.6-3.986-1.334-4.569c-.507-1.732.505-2.766,2.248-2.295l4.6,1.237,3.932-2.681c1.492-1.018,2.787-.374,2.879,1.429l.241,4.754,3.77,2.912c1.425,1.1,1.213,2.532-.473,3.177l-1.379.526-3.066,1.172L277.223,89.9c-.607,1.7-2.031,1.94-3.166.538l-2.99-3.706Z" transform="translate(-76.415 -46.49)" fill="#ff638d"/>
          <g id="Grupo_1231360" data-name="Grupo 1231360" transform="translate(288.74 303.536)">
            <path id="Trazado_1065336" data-name="Trazado 1065336" d="M164.132,389.772l-3.146,18.338-26.912,10.634-3.364-1.411,16.168-17.107Z" transform="translate(-117.942 -345.253)" fill="#ff638d"/>
            <path id="Trazado_1065337" data-name="Trazado 1065337" d="M176.9,372.554,158.561,375.7l-10.633,26.91,1.41,3.364,17.108-16.167Z" transform="translate(-147.928 -345.253)" fill="#ff638d"/>
            <g id="Grupo_1231359" data-name="Grupo 1231359" transform="translate(13.292)">
              <path id="Trazado_1065338" data-name="Trazado 1065338" d="M159.068,370.246a36.16,36.16,0,0,1-5.284,8.419c-8.987,10.691-21.348,18-30.128,22.246L106.98,384.235c4.249-8.78,11.556-21.14,22.247-30.127a36.046,36.046,0,0,1,8.419-5.283,44.141,44.141,0,0,0,21.422,21.421Z" transform="translate(-102.44 -345.253)" fill="#fff"/>
              <path id="Trazado_1065339" data-name="Trazado 1065339" d="M152.81,405.452l-5.209-5.209-5.209-5.209a98.75,98.75,0,0,1,4.54-10.8l16.676,16.676A98.443,98.443,0,0,1,152.81,405.452Z" transform="translate(-142.392 -345.253)" fill="#cf4731"/>
              <path id="Trazado_1065340" data-name="Trazado 1065340" d="M127.811,345.842a43.525,43.525,0,0,1-2.982,24.4,44.138,44.138,0,0,1-21.421-21.42A43.522,43.522,0,0,1,127.811,345.842Z" transform="translate(-68.201 -345.253)" fill="#00a8ff"/>
            </g>
            <path id="Trazado_1065341" data-name="Trazado 1065341" d="M121.956,363.8a11.843,11.843,0,1,0,16.748,0A11.842,11.842,0,0,0,121.956,363.8Z" transform="translate(-83.76 -345.253)" fill="#ffa821"/>
            <path id="Trazado_1065342" data-name="Trazado 1065342" d="M123.494,365.337a9.668,9.668,0,1,0,13.673,0A9.669,9.669,0,0,0,123.494,365.337Z" transform="translate(-83.76 -345.253)" fill="#20364f"/>
            <path id="Trazado_1065343" data-name="Trazado 1065343" d="M127.726,365.337a2.992,2.992,0,1,0,4.231,0A2.993,2.993,0,0,0,127.726,365.337Z" transform="translate(-82.784 -345.253)" fill="#fff"/>
          </g>
          <g id="Grupo_1231361" data-name="Grupo 1231361" transform="translate(220.736 82.968)">
            <path id="Trazado_1065344" data-name="Trazado 1065344" d="M179.291,149.564l4.879-3.967q.03-3.147.06-6.291a3.1,3.1,0,0,1,2.257-2.832l6.122-1.458,1.017-2.063h0l1.766-3.579a3.1,3.1,0,0,1,3.262-1.571q3.075.669,6.148,1.342l4.958-3.878a3.105,3.105,0,0,1,3.622,0l4.954,3.875q3.073-.671,6.147-1.342a3.1,3.1,0,0,1,3.262,1.57l2.783,5.644,6.12,1.457a3.1,3.1,0,0,1,2.259,2.833q.03,3.147.059,6.291l4.88,3.967a3.1,3.1,0,0,1,.807,3.534q-1.337,2.846-2.675,5.692,1.338,2.847,2.675,5.692a3.1,3.1,0,0,1-.807,3.533l-4.88,3.968q-.03,3.147-.059,6.291a3.1,3.1,0,0,1-2.259,2.832l-6.12,1.458q-1.392,2.823-2.783,5.644a3.1,3.1,0,0,1-3.262,1.57q-3.073-.669-6.147-1.342l-4.954,3.875a3.105,3.105,0,0,1-3.622,0l-4.958-3.878-6.148,1.342a3.1,3.1,0,0,1-3.262-1.571l-1.766-3.579h0l-1.017-2.063-6.122-1.458a3.1,3.1,0,0,1-2.257-2.832l-.06-6.291q-2.44-1.983-4.879-3.968a3.1,3.1,0,0,1-.807-3.532l2.674-5.693-2.674-5.693A3.1,3.1,0,0,1,179.291,149.564Z" transform="translate(-178.235 -124.685)" fill="#ff7c0a"/>
            <circle id="Elipse_13890" data-name="Elipse 13890" cx="26" cy="26" r="26" transform="translate(7.334 8.106)" fill="#ffb10a"/>
          </g>
        </g>
      </g>
    </g>
  </g>
</svg>
