<svg xmlns="http://www.w3.org/2000/svg" xmlns:xlink="http://www.w3.org/1999/xlink" width="400" height="625" viewBox="0 0 400 625">
  <defs>
    <clipPath id="clip-path">
      <rect id="Rectángulo_425581" data-name="Rectángulo 425581" width="400" height="625" transform="translate(180 3761)" fill="#fff" stroke="#707070" stroke-width="1"/>
    </clipPath>
    <linearGradient id="linear-gradient" x1="0.5" x2="0.5" y2="1" gradientUnits="objectBoundingBox">
      <stop offset="0" stop-color="#903cdf"/>
      <stop offset="1" stop-color="#481e70"/>
    </linearGradient>
    <filter id="Elipse_13857" x="-9" y="417" width="171" height="171" filterUnits="userSpaceOnUse">
      <feOffset dy="3" input="SourceAlpha"/>
      <feGaussianBlur stdDeviation="3" result="blur"/>
      <feFlood flood-opacity="0.161"/>
      <feComposite operator="in" in2="blur"/>
      <feComposite in="SourceGraphic"/>
    </filter>
  </defs>
  <g id="Enmascarar_grupo_1211618" data-name="Enmascarar grupo 1211618" transform="translate(-180 -3761)" clip-path="url(#clip-path)">
    <g id="Grupo_1233040" data-name="Grupo 1233040">
      <path id="Trazado_1066722" data-name="Trazado 1066722" d="M13,0H265a13,13,0,0,1,13,13V607a13,13,0,0,1-13,13H13A13,13,0,0,1,0,607V13A13,13,0,0,1,13,0Z" transform="translate(230 3766)" fill="url(#linear-gradient)"/>
      <g transform="matrix(1, 0, 0, 1, 180, 3761)" filter="url(#Elipse_13857)">
        <circle id="Elipse_13857-2" data-name="Elipse 13857" cx="76.5" cy="76.5" r="76.5" transform="translate(0 423)" fill="#f6ecfe"/>
      </g>
    </g>
    <g id="OBJECTS" transform="translate(-49.89 3749.827)">
      <g id="Grupo_1233109" data-name="Grupo 1233109" transform="translate(49.89 71.299)">
        <g id="Grupo_1233053" data-name="Grupo 1233053" transform="translate(123.928 19.091)">
          <g id="Grupo_1233046" data-name="Grupo 1233046" transform="translate(69.52 45.871)">
            <path id="Trazado_1066566" data-name="Trazado 1066566" d="M304.441,183.376v-14.5a2.568,2.568,0,0,0-2.568-2.568H298.14a2.357,2.357,0,0,1-2.3-1.808,51.3,51.3,0,0,0-6.461-15.679,2.393,2.393,0,0,1,.311-2.969l2.625-2.625a2.568,2.568,0,0,0,0-3.632l-10.254-10.254a2.568,2.568,0,0,0-3.632,0l-2.622,2.622a2.391,2.391,0,0,1-2.969.311A51.35,51.35,0,0,0,257.15,125.8a2.354,2.354,0,0,1-1.807-2.3v-3.721a2.568,2.568,0,0,0-2.568-2.568h-14.5a2.568,2.568,0,0,0-2.568,2.568V123.5a2.357,2.357,0,0,1-1.808,2.3,51.32,51.32,0,0,0-15.685,6.466,2.391,2.391,0,0,1-2.969-.311l-2.619-2.619a2.568,2.568,0,0,0-3.632,0l-10.254,10.254a2.568,2.568,0,0,0,0,3.632l2.622,2.622a2.391,2.391,0,0,1,.311,2.969,51.374,51.374,0,0,0-6.462,15.682,2.356,2.356,0,0,1-2.3,1.808h-3.728a2.568,2.568,0,0,0-2.568,2.568v14.5a2.568,2.568,0,0,0,2.568,2.568h3.73a2.354,2.354,0,0,1,2.3,1.807,51.372,51.372,0,0,0,6.464,15.679,2.392,2.392,0,0,1-.311,2.969l-2.626,2.626a2.568,2.568,0,0,0,0,3.632l10.254,10.256a2.568,2.568,0,0,0,3.632,0l2.628-2.628a2.392,2.392,0,0,1,2.967-.313,51.365,51.365,0,0,0,15.678,6.457,2.356,2.356,0,0,1,1.808,2.3v3.741a2.568,2.568,0,0,0,2.568,2.568h14.5a2.568,2.568,0,0,0,2.568-2.568v-3.741a2.356,2.356,0,0,1,1.808-2.3,51.314,51.314,0,0,0,15.675-6.457,2.391,2.391,0,0,1,2.967.313l2.629,2.629a2.568,2.568,0,0,0,3.632,0l10.254-10.256a2.568,2.568,0,0,0,0-3.632l-2.628-2.626a2.392,2.392,0,0,1-.311-2.969,51.339,51.339,0,0,0,6.461-15.678,2.356,2.356,0,0,1,2.3-1.808h3.736A2.576,2.576,0,0,0,304.441,183.376Zm-58.922,33.64a40.886,40.886,0,1,1,40.869-40.9A40.881,40.881,0,0,1,245.519,217.015Z" transform="translate(-186.605 -117.209)" fill="none" stroke="#dee3fc" stroke-miterlimit="10" stroke-width="0.79"/>
            <path id="Trazado_1066567" data-name="Trazado 1066567" d="M340.576,211.891v-9.884a1.751,1.751,0,0,0-1.75-1.75h-2.544a1.605,1.605,0,0,1-1.571-1.232,34.96,34.96,0,0,0-4.4-10.686,1.63,1.63,0,0,1,.212-2.022l1.789-1.789a1.752,1.752,0,0,0,0-2.476l-6.989-6.989a1.752,1.752,0,0,0-2.476,0l-1.787,1.787a1.631,1.631,0,0,1-2.023.212,34.961,34.961,0,0,0-10.687-4.408,1.6,1.6,0,0,1-1.231-1.571v-2.536a1.751,1.751,0,0,0-1.75-1.75h-9.884a1.751,1.751,0,0,0-1.75,1.75v2.536a1.606,1.606,0,0,1-1.232,1.571,35,35,0,0,0-10.69,4.406,1.633,1.633,0,0,1-2.023-.212L278,175.065a1.752,1.752,0,0,0-2.476,0l-6.989,6.989a1.752,1.752,0,0,0,0,2.476l1.787,1.787a1.632,1.632,0,0,1,.212,2.023,34.968,34.968,0,0,0-4.4,10.687,1.605,1.605,0,0,1-1.571,1.232h-2.541a1.751,1.751,0,0,0-1.75,1.75v9.884a1.751,1.751,0,0,0,1.75,1.75h2.543a1.606,1.606,0,0,1,1.571,1.232,35,35,0,0,0,4.4,10.686,1.633,1.633,0,0,1-.212,2.023l-1.789,1.79a1.75,1.75,0,0,0,0,2.475l6.989,6.989a1.752,1.752,0,0,0,2.476,0l1.791-1.791a1.629,1.629,0,0,1,2.022-.212,34.984,34.984,0,0,0,10.684,4.4,1.605,1.605,0,0,1,1.232,1.571v2.55a1.751,1.751,0,0,0,1.75,1.75h9.884a1.751,1.751,0,0,0,1.75-1.75v-2.55a1.605,1.605,0,0,1,1.232-1.571,34.99,34.99,0,0,0,10.683-4.4,1.63,1.63,0,0,1,2.022.212l1.791,1.793a1.752,1.752,0,0,0,2.476,0l6.989-6.989a1.752,1.752,0,0,0,0-2.476l-1.791-1.79a1.629,1.629,0,0,1-.212-2.023,34.992,34.992,0,0,0,4.4-10.684,1.605,1.605,0,0,1,1.571-1.232h2.546A1.755,1.755,0,0,0,340.576,211.891Zm-40.154,21.355a26.292,26.292,0,1,1,26.28-26.3A26.288,26.288,0,0,1,300.422,233.246Z" transform="translate(-156.036 -96.631)" fill="#dee3fc"/>
          </g>
          <g id="Grupo_1233047" data-name="Grupo 1233047" transform="translate(14.218)">
            <circle id="Elipse_13958" data-name="Elipse 13958" cx="4.791" cy="4.791" r="4.791" transform="translate(48.934 413.245)" fill="#a4afff"/>
            <circle id="Elipse_13959" data-name="Elipse 13959" cx="4.791" cy="4.791" r="4.791" transform="translate(690.811 282.331)" fill="#a4afff"/>
            <circle id="Elipse_13960" data-name="Elipse 13960" cx="4.791" cy="4.791" r="4.791" transform="translate(681.228 111.248)" fill="#a4afff"/>
            <circle id="Elipse_13961" data-name="Elipse 13961" cx="3.005" cy="3.005" r="3.005" transform="translate(510.75 54.884)" fill="#a4afff"/>
            <path id="Trazado_1066568" data-name="Trazado 1066568" d="M200.509,98.291a3.005,3.005,0,1,1-3.005-3.005A3.005,3.005,0,0,1,200.509,98.291Z" transform="translate(-128.027 -80.436)" fill="#a4afff"/>
            <path id="Trazado_1066569" data-name="Trazado 1066569" d="M247.519,229.087a3.005,3.005,0,1,1-3.005-3.005A3.005,3.005,0,0,1,247.519,229.087Z" transform="translate(-108.519 -26.159)" fill="#a4afff"/>
            <path id="Trazado_1066570" data-name="Trazado 1066570" d="M169.6,384.5a3.005,3.005,0,1,1-3.005-3.005A3.006,3.006,0,0,1,169.6,384.5Z" transform="translate(-140.854 38.332)" fill="#a4afff"/>
            <circle id="Elipse_13962" data-name="Elipse 13962" cx="4.791" cy="4.791" r="4.791" transform="translate(620.528 416.077)" fill="#a4afff"/>
            <circle id="Elipse_13963" data-name="Elipse 13963" cx="4.791" cy="4.791" r="4.791" transform="translate(722.406 416.077)" fill="#a4afff"/>
            <circle id="Elipse_13964" data-name="Elipse 13964" cx="4.791" cy="4.791" r="4.791" transform="translate(204.294 -34)" fill="#a4afff"/>
            <path id="Trazado_1066571" data-name="Trazado 1066571" d="M494.51,244.116A6.411,6.411,0,1,1,488.1,237.7,6.412,6.412,0,0,1,494.51,244.116Z" transform="translate(-8.851 -21.336)" fill="#a4afff"/>
            <path id="Trazado_1066572" data-name="Trazado 1066572" d="M160.343,188.09a6.411,6.411,0,1,1-6.411-6.411A6.411,6.411,0,0,1,160.343,188.09Z" transform="translate(-84.456 24.254)" fill="#a4afff"/>
          </g>
          <g id="Grupo_1233048" data-name="Grupo 1233048" transform="translate(334.535 -29.13)">
            <path id="Trazado_1066573" data-name="Trazado 1066573" d="M146.475,121.5h-8.063a.939.939,0,0,1-.94-.94v-8.061a.939.939,0,0,1,.94-.94h8.063a.939.939,0,0,1,.94.94v8.061A.939.939,0,0,1,146.475,121.5Z" transform="translate(-137.473 -111.555)" fill="#fff"/>
            <path id="Trazado_1066574" data-name="Trazado 1066574" d="M155.873,121.5h-8.062a.939.939,0,0,1-.94-.94v-8.061a.939.939,0,0,1,.94-.94h8.063a.939.939,0,0,1,.94.94v8.061A.939.939,0,0,1,155.873,121.5Z" transform="translate(-133.573 -111.555)" fill="#fff"/>
            <path id="Trazado_1066575" data-name="Trazado 1066575" d="M165.271,121.5H157.21a.939.939,0,0,1-.94-.94v-8.061a.939.939,0,0,1,.94-.94h8.061a.939.939,0,0,1,.94.94v8.061A.939.939,0,0,1,165.271,121.5Z" transform="translate(-129.673 -111.555)" fill="#fff"/>
          </g>
          <g id="Grupo_1233050" data-name="Grupo 1233050" transform="translate(677.176 386.991)">
            <g id="Grupo_1233049" data-name="Grupo 1233049" transform="translate(0)">
              <path id="Trazado_1066576" data-name="Trazado 1066576" d="M625.054,368.228h-8.062a.939.939,0,0,1-.94-.94v-8.061a.939.939,0,0,1,.94-.94h8.063a.939.939,0,0,1,.939.94v8.061A.939.939,0,0,1,625.054,368.228Z" transform="translate(-616.052 -358.288)" fill="#dee3fc"/>
              <path id="Trazado_1066577" data-name="Trazado 1066577" d="M634.452,368.228H626.39a.939.939,0,0,1-.939-.94v-8.061a.939.939,0,0,1,.939-.94h8.063a.939.939,0,0,1,.94.94v8.061A.939.939,0,0,1,634.452,368.228Z" transform="translate(-612.152 -358.288)" fill="#dee3fc"/>
              <path id="Trazado_1066578" data-name="Trazado 1066578" d="M643.85,368.228h-8.062a.939.939,0,0,1-.94-.94v-8.061a.939.939,0,0,1,.94-.94h8.063a.939.939,0,0,1,.94.94v8.061A.939.939,0,0,1,643.85,368.228Z" transform="translate(-608.252 -358.288)" fill="#dee3fc"/>
            </g>
          </g>
          <g id="Grupo_1233052" data-name="Grupo 1233052" transform="translate(62.42 381.543)">
            <g id="Grupo_1233051" data-name="Grupo 1233051">
              <path id="Trazado_1066579" data-name="Trazado 1066579" d="M190.589,364.378h-8.062a.939.939,0,0,1-.94-.94v-8.061a.939.939,0,0,1,.94-.94h8.063a.939.939,0,0,1,.94.94v8.061A.941.941,0,0,1,190.589,364.378Z" transform="translate(-181.587 -354.438)" fill="#dee3fc"/>
              <path id="Trazado_1066580" data-name="Trazado 1066580" d="M199.986,364.378h-8.062a.939.939,0,0,1-.94-.94v-8.061a.939.939,0,0,1,.94-.94h8.063a.939.939,0,0,1,.94.94v8.061A.94.94,0,0,1,199.986,364.378Z" transform="translate(-177.688 -354.438)" fill="#dee3fc"/>
              <path id="Trazado_1066581" data-name="Trazado 1066581" d="M209.384,364.378h-8.061a.939.939,0,0,1-.94-.94v-8.061a.939.939,0,0,1,.94-.94h8.061a.939.939,0,0,1,.94.94v8.061A.94.94,0,0,1,209.384,364.378Z" transform="translate(-173.787 -354.438)" fill="#dee3fc"/>
            </g>
          </g>
          <g id="Grupo_1233110" data-name="Grupo 1233110" transform="translate(124.535 520.87)">
            <path id="Trazado_1066573-2" data-name="Trazado 1066573" d="M146.475,121.5h-8.063a.939.939,0,0,1-.94-.94v-8.061a.939.939,0,0,1,.94-.94h8.063a.939.939,0,0,1,.94.94v8.061A.939.939,0,0,1,146.475,121.5Z" transform="translate(-137.473 -111.555)" fill="#fff"/>
            <path id="Trazado_1066574-2" data-name="Trazado 1066574" d="M155.873,121.5h-8.062a.939.939,0,0,1-.94-.94v-8.061a.939.939,0,0,1,.94-.94h8.063a.939.939,0,0,1,.94.94v8.061A.939.939,0,0,1,155.873,121.5Z" transform="translate(-133.573 -111.555)" fill="#fff"/>
            <path id="Trazado_1066575-2" data-name="Trazado 1066575" d="M165.271,121.5H157.21a.939.939,0,0,1-.94-.94v-8.061a.939.939,0,0,1,.94-.94h8.061a.939.939,0,0,1,.94.94v8.061A.939.939,0,0,1,165.271,121.5Z" transform="translate(-129.673 -111.555)" fill="#fff"/>
          </g>
        </g>
        <g id="Grupo_1233062" data-name="Grupo 1233062" transform="translate(319.316 37.489)">
          <g id="Grupo_1233054" data-name="Grupo 1233054">
            <path id="Trazado_1066582" data-name="Trazado 1066582" d="M494.89,536.518H314.468A28.468,28.468,0,0,1,286,508.05V106.457a28.468,28.468,0,0,1,28.468-28.468H494.89a28.468,28.468,0,0,1,28.468,28.468V508.05A28.468,28.468,0,0,1,494.89,536.518Z" transform="translate(-286 -77.989)" fill="#3945ba"/>
            <path id="Trazado_1066583" data-name="Trazado 1066583" d="M492.867,529h-178.6a24.936,24.936,0,0,1-24.936-24.936V105.936A24.936,24.936,0,0,1,314.269,81h178.6A24.936,24.936,0,0,1,517.8,105.936V504.062A24.937,24.937,0,0,1,492.867,529Z" transform="translate(-284.888 -76.985)" fill="#fff"/>
            <path id="Trazado_1066584" data-name="Trazado 1066584" d="M505.3,103.337V501a16.887,16.887,0,0,1-16.887,16.887H313.72A16.887,16.887,0,0,1,296.833,501V103.337A16.887,16.887,0,0,1,313.72,86.45h29.131a4.273,4.273,0,0,1,3.819,2.359l3.094,6.175a8.344,8.344,0,0,0,7.483,4.634h87.639a8.344,8.344,0,0,0,7.484-4.634l3.094-6.175a4.271,4.271,0,0,1,3.819-2.359h29.131A16.887,16.887,0,0,1,505.3,103.337Z" transform="translate(-282.387 -75.167)" fill="#dee3fc"/>
            <path id="Trazado_1066585" data-name="Trazado 1066585" d="M420.977,92.394H350.39a2.972,2.972,0,0,1-2.972-2.972h0a2.972,2.972,0,0,1,2.972-2.972h70.586a2.972,2.972,0,0,1,2.972,2.972h0A2.972,2.972,0,0,1,420.977,92.394Z" transform="translate(-265.518 -75.168)" fill="#dee3fc"/>
          </g>
          <path id="Trazado_1066586" data-name="Trazado 1066586" d="M474.446,419.1H317.373A11.173,11.173,0,0,1,306.2,407.927V352.465a11.172,11.172,0,0,1,11.173-11.173H474.446a11.172,11.172,0,0,1,11.173,11.173v55.462A11.173,11.173,0,0,1,474.446,419.1Z" transform="translate(-279.264 9.816)" fill="none" stroke="#698bd1" stroke-linecap="round" stroke-linejoin="round" stroke-miterlimit="10" stroke-width="1" stroke-dasharray="2.837"/>
          <path id="Trazado_1066587" data-name="Trazado 1066587" d="M447.9,270.118H369.984a8.06,8.06,0,0,1-8.06-8.06V223.548a8.06,8.06,0,0,1,8.06-8.06H447.9a8.059,8.059,0,0,1,8.059,8.06v38.511A8.059,8.059,0,0,1,447.9,270.118Z" transform="translate(-260.681 -32.136)" fill="none" stroke="#698bd1" stroke-linecap="round" stroke-linejoin="round" stroke-miterlimit="10" stroke-width="1" stroke-dasharray="2.837"/>
          <g id="Grupo_1233058" data-name="Grupo 1233058" transform="translate(26.936 244.041)">
            <path id="Trazado_1066588" data-name="Trazado 1066588" d="M481.627,353.363H320.7a9.6,9.6,0,0,1-9.6-9.6V275.885a9.6,9.6,0,0,1,9.6-9.6H481.627a9.6,9.6,0,0,1,9.6,9.6v67.875A9.6,9.6,0,0,1,481.627,353.363Z" transform="translate(-304.567 -259.238)" fill="#4b5a9b"/>
            <path id="Trazado_1066589" data-name="Trazado 1066589" d="M485.619,270.588V338.5a9.578,9.578,0,0,1-9.588,9.574H315.788A9.578,9.578,0,0,1,306.2,338.5V270.588A9.589,9.589,0,0,1,315.788,261H476.032A9.589,9.589,0,0,1,485.619,270.588Z" transform="translate(-306.2 -261)" fill="#7f95f4"/>
            <path id="Trazado_1066590" data-name="Trazado 1066590" d="M366.107,336.041H318.9a6.481,6.481,0,0,1-6.482-6.482V282.35a6.482,6.482,0,0,1,6.482-6.482h47.209a6.481,6.481,0,0,1,6.482,6.482v47.209A6.481,6.481,0,0,1,366.107,336.041Z" transform="translate(-304.127 -256.042)" fill="#fff"/>
            <g id="Grupo_1233055" data-name="Grupo 1233055" transform="translate(74.307 23.347)">
              <path id="Trazado_1066591" data-name="Trazado 1066591" d="M405.547,282.6H363.971a2.047,2.047,0,0,1-2.047-2.047h0a2.046,2.046,0,0,1,2.047-2.047h41.577a2.047,2.047,0,0,1,2.047,2.047h0A2.046,2.046,0,0,1,405.547,282.6Z" transform="translate(-361.924 -278.508)" fill="#b2c1f9"/>
              <path id="Trazado_1066592" data-name="Trazado 1066592" d="M386.6,288.732h-22.63a2.046,2.046,0,0,1-2.047-2.047h0a2.046,2.046,0,0,1,2.047-2.047H386.6a2.047,2.047,0,0,1,2.047,2.047h0A2.047,2.047,0,0,1,386.6,288.732Z" transform="translate(-361.924 -276.464)" fill="#b2c1f9"/>
              <path id="Trazado_1066593" data-name="Trazado 1066593" d="M448.424,288.732H387.188a2.046,2.046,0,0,1-2.047-2.047h0a2.046,2.046,0,0,1,2.047-2.047h61.236a2.046,2.046,0,0,1,2.047,2.047h0A2.048,2.048,0,0,1,448.424,288.732Z" transform="translate(-354.182 -276.464)" fill="#b2c1f9"/>
              <path id="Trazado_1066594" data-name="Trazado 1066594" d="M398.985,294.861H363.972a2.046,2.046,0,0,1-2.047-2.047h0a2.047,2.047,0,0,1,2.047-2.047h35.013a2.047,2.047,0,0,1,2.047,2.047h0A2.047,2.047,0,0,1,398.985,294.861Z" transform="translate(-361.924 -274.42)" fill="#b2c1f9"/>
              <path id="Trazado_1066595" data-name="Trazado 1066595" d="M418.022,294.861H396.01a2.046,2.046,0,0,1-2.047-2.047h0a2.047,2.047,0,0,1,2.047-2.047h22.012a2.047,2.047,0,0,1,2.047,2.047h0A2.047,2.047,0,0,1,418.022,294.861Z" transform="translate(-351.24 -274.42)" fill="#b2c1f9"/>
              <path id="Trazado_1066596" data-name="Trazado 1066596" d="M438.179,294.861h-20.27a2.046,2.046,0,0,1-2.047-2.047h0a2.047,2.047,0,0,1,2.047-2.047h20.27a2.047,2.047,0,0,1,2.047,2.047h0A2.047,2.047,0,0,1,438.179,294.861Z" transform="translate(-343.937 -274.42)" fill="#b2c1f9"/>
              <path id="Trazado_1066597" data-name="Trazado 1066597" d="M456.166,300.99h-92.2a2.047,2.047,0,0,1-2.047-2.047h0a2.046,2.046,0,0,1,2.047-2.047h92.2a2.047,2.047,0,0,1,2.047,2.047h0A2.047,2.047,0,0,1,456.166,300.99Z" transform="translate(-361.924 -272.376)" fill="#b2c1f9"/>
              <path id="Trazado_1066598" data-name="Trazado 1066598" d="M414.712,307.119h-50.74a2.046,2.046,0,0,1-2.047-2.047h0a2.046,2.046,0,0,1,2.047-2.047h50.74a2.046,2.046,0,0,1,2.047,2.047h0A2.047,2.047,0,0,1,414.712,307.119Z" transform="translate(-361.924 -270.332)" fill="#b2c1f9"/>
              <path id="Trazado_1066599" data-name="Trazado 1066599" d="M441.431,307.119H408.158a2.047,2.047,0,0,1-2.047-2.047h0a2.046,2.046,0,0,1,2.047-2.047h33.273a2.046,2.046,0,0,1,2.047,2.047h0A2.047,2.047,0,0,1,441.431,307.119Z" transform="translate(-347.189 -270.332)" fill="#b2c1f9"/>
              <path id="Trazado_1066600" data-name="Trazado 1066600" d="M393.783,313.248H363.971a2.047,2.047,0,0,1-2.047-2.047h0a2.046,2.046,0,0,1,2.047-2.047h29.813a2.046,2.046,0,0,1,2.047,2.047h0A2.047,2.047,0,0,1,393.783,313.248Z" transform="translate(-361.924 -268.288)" fill="#b2c1f9"/>
              <path id="Trazado_1066601" data-name="Trazado 1066601" d="M422.191,313.248H392.379a2.046,2.046,0,0,1-2.047-2.047h0a2.046,2.046,0,0,1,2.047-2.047h29.813a2.046,2.046,0,0,1,2.047,2.047h0A2.047,2.047,0,0,1,422.191,313.248Z" transform="translate(-352.451 -268.288)" fill="#b2c1f9"/>
              <path id="Trazado_1066602" data-name="Trazado 1066602" d="M437.436,313.248h-17.3a2.046,2.046,0,0,1-2.047-2.047h0a2.046,2.046,0,0,1,2.047-2.047h17.3a2.046,2.046,0,0,1,2.047,2.047h0A2.047,2.047,0,0,1,437.436,313.248Z" transform="translate(-343.194 -268.288)" fill="#b2c1f9"/>
              <path id="Trazado_1066603" data-name="Trazado 1066603" d="M405.547,319.378H363.971a2.047,2.047,0,0,1-2.047-2.047h0a2.046,2.046,0,0,1,2.047-2.047h41.577a2.047,2.047,0,0,1,2.047,2.047h0A2.047,2.047,0,0,1,405.547,319.378Z" transform="translate(-361.924 -266.244)" fill="#b2c1f9"/>
              <path id="Trazado_1066604" data-name="Trazado 1066604" d="M443.507,282.6H401.931a2.047,2.047,0,0,1-2.047-2.047h0a2.046,2.046,0,0,1,2.047-2.047h41.577a2.047,2.047,0,0,1,2.047,2.047h0A2.047,2.047,0,0,1,443.507,282.6Z" transform="translate(-349.265 -278.508)" fill="#b2c1f9"/>
            </g>
            <g id="Grupo_1233057" data-name="Grupo 1233057">
              <path id="Trazado_1066605" data-name="Trazado 1066605" d="M485.619,270.588v2.854H306.2v-2.854A9.589,9.589,0,0,1,315.788,261H476.032A9.589,9.589,0,0,1,485.619,270.588Z" transform="translate(-306.2 -261)" fill="#3052ce"/>
              <g id="Grupo_1233056" data-name="Grupo 1233056" transform="translate(141.155 4.222)">
                <path id="Trazado_1066606" data-name="Trazado 1066606" d="M416.5,266.389a2.223,2.223,0,1,1-2.223-2.223A2.222,2.222,0,0,1,416.5,266.389Z" transform="translate(-412.055 -264.166)" fill="#dee3fc"/>
                <path id="Trazado_1066607" data-name="Trazado 1066607" d="M425.029,266.389a2.223,2.223,0,1,1-2.223-2.223A2.222,2.222,0,0,1,425.029,266.389Z" transform="translate(-409.211 -264.166)" fill="#dee3fc"/>
                <path id="Trazado_1066608" data-name="Trazado 1066608" d="M433.557,266.389a2.223,2.223,0,1,1-2.223-2.223A2.222,2.222,0,0,1,433.557,266.389Z" transform="translate(-406.367 -264.166)" fill="#dee3fc"/>
              </g>
            </g>
          </g>
          <g id="Grupo_1233060" data-name="Grupo 1233060" transform="translate(37.44 183.401)">
            <path id="Trazado_1066609" data-name="Trazado 1066609" d="M359.122,270.106H323.613a9.536,9.536,0,0,1-9.536-9.536V225.061a9.536,9.536,0,0,1,9.536-9.536h35.509a9.535,9.535,0,0,1,9.536,9.536V260.57A9.536,9.536,0,0,1,359.122,270.106Z" transform="translate(-314.077 -215.525)" fill="none" stroke="#495ad6" stroke-miterlimit="10" stroke-width="0.896"/>
            <g id="Grupo_1233059" data-name="Grupo 1233059" transform="translate(10.912 19.397)">
              <path id="Trazado_1066610" data-name="Trazado 1066610" d="M330.124,230.071l-7.864,7.864,7.926,7.925" transform="translate(-322.26 -230.071)" fill="none" stroke="#495ad6" stroke-linecap="round" stroke-linejoin="round" stroke-miterlimit="10" stroke-width="1.672"/>
              <path id="Trazado_1066611" data-name="Trazado 1066611" d="M340.941,230.071l7.864,7.864-7.925,7.925" transform="translate(-316.051 -230.071)" fill="none" stroke="#495ad6" stroke-linecap="round" stroke-linejoin="round" stroke-miterlimit="10" stroke-width="1.672"/>
              <line id="Línea_4340" data-name="Línea 4340" x1="7.363" y2="15.788" transform="translate(12.696)" fill="none" stroke="#495ad6" stroke-linecap="round" stroke-linejoin="round" stroke-miterlimit="10" stroke-width="1.672"/>
            </g>
          </g>
          <g id="Grupo_1233061" data-name="Grupo 1233061" transform="translate(26.936 39.272)">
            <path id="Trazado_1066612" data-name="Trazado 1066612" d="M485.619,118.348V229.386a10.9,10.9,0,0,1-10.908,10.908h-157.6A10.912,10.912,0,0,1,306.2,229.386V118.348a10.912,10.912,0,0,1,10.908-10.908h157.6A10.9,10.9,0,0,1,485.619,118.348Z" transform="translate(-306.2 -107.44)" fill="#b2c1f9"/>
            <circle id="Elipse_13965" data-name="Elipse 13965" cx="26.003" cy="26.003" r="26.003" transform="translate(117.079 9.081)" fill="#f0f4ff"/>
            <path id="Trazado_1066613" data-name="Trazado 1066613" d="M411.665,232.8H317.108A10.912,10.912,0,0,1,306.2,221.889V204.407l41.378-71.674a5.62,5.62,0,0,1,9.734,0l31.243,54.112,23.2,40.191A5.514,5.514,0,0,1,411.665,232.8Z" transform="translate(-306.2 -99.943)" fill="#fff"/>
            <path id="Trazado_1066614" data-name="Trazado 1066614" d="M438.483,225.387H348.06L374.6,179.435l14.295-24.763a5.057,5.057,0,0,1,8.761,0Z" transform="translate(-292.241 -92.533)" fill="#f0f4ff"/>
          </g>
        </g>
        <g id="Grupo_1233076" data-name="Grupo 1233076" transform="translate(190.178 278.239)">
          <path id="Trazado_1066646" data-name="Trazado 1066646" d="M298.064,323.074l9.643-9.886s.334-4.409.859-5.339,1.882-4.374,2.557-4.749a3.506,3.506,0,0,1,2.028,0,9.307,9.307,0,0,1,1.94-.45,5.689,5.689,0,0,1,1.725.549s1.442-.1,2.042-.1a1.282,1.282,0,0,1,.794.168A42.409,42.409,0,0,1,323.1,299.7c1.126-.9,2.848-2.56,3.359-2.554.481.006.693.852.342,1.753a10.02,10.02,0,0,1-1.876,2.354l-4.394,6.659a9.425,9.425,0,0,0,1.152-.55c.4-.25,3.08-2.754,3.242-2.854s1.364-.9,2.064-.1-4.6,7.151-5.452,8-5.724,3.318-5.724,3.318-5.145,9.254-5.646,9.855S298.064,323.074,298.064,323.074Z" transform="translate(-137.082 -255.819)" fill="#e49191"/>
          <path id="Trazado_1066647" data-name="Trazado 1066647" d="M314.984,288s-5.387,31.2-10.457,31.927c0,0-20.241.816-24.749-23.738-3.911-21.294,11.774-25.836,19.111-24.206S316.559,274.674,314.984,288Z" transform="translate(-144.926 -266.383)" fill="#e49191"/>
          <path id="Trazado_1066648" data-name="Trazado 1066648" d="M297.711,307.226s-2.837,3.823-3.83,13.081a30.044,30.044,0,0,1-16.2-2.8,114.676,114.676,0,0,0,4.7-27.238" transform="translate(-145.542 -258.67)" fill="#e49191"/>
          <path id="Trazado_1066649" data-name="Trazado 1066649" d="M292.618,268.316c-11.061,2.444-10.176,9.335-10.176,9.335-5.179,1.282-6.291,3.42-6.248,12.978s3.5,21.036,5.409,21.97,12.721.979,13.623.651,4.686-9.1,3.8-10.641.044-7.61,2.563-7.839,2.025,3.675,2.025,3.675l2.07-.454,1.6-3.919c14.617.87,18.393-15.787,18.393-15.787C322.169,275.995,303.681,265.872,292.618,268.316Z" transform="translate(-146.159 -267.938)" fill="#002c54"/>
          <path id="Trazado_1066650" data-name="Trazado 1066650" d="M202.855,417.531l11.184,1.617-3.7,13.059-12.112-3.055s-4.928-6.68,2.513-11.621A4.068,4.068,0,0,1,202.855,417.531Z" transform="translate(-179.178 -205.92)" fill="#e5918f"/>
          <path id="Trazado_1066651" data-name="Trazado 1066651" d="M283.245,408.653,266.76,358.741s-5-1.78-7.556,0c0,0-17.172,9.234-15.34,35.564,1.381,19.849,5.572,41.377,7.27,50.011l-43.98-1.626a14.985,14.985,0,0,0-1.916,14.844S260.5,472.4,268.286,473.77c6.326,1.116,13.251,1.977,16.595-.887C290.772,467.835,283.245,408.653,283.245,408.653Z" transform="translate(-176.093 -230.586)"/>
          <path id="Trazado_1066652" data-name="Trazado 1066652" d="M239.656,417.531l11.184,1.617-3.7,13.059-12.112-3.055s-4.928-6.68,2.513-11.621A4.068,4.068,0,0,1,239.656,417.531Z" transform="translate(-163.907 -205.92)" fill="#e5918f"/>
          <path id="Trazado_1066653" data-name="Trazado 1066653" d="M240.714,425.361c-.25,2.571,2,4.887,1.588,5.528s-7.93,13.254-7.93,13.254,5.675,2.472,4.76,6.042H224.758S221,446.8,221.1,441.946a41.7,41.7,0,0,1,3.54-10.529c2.564-4.944,8.391-16.105,8.391-16.105a8.135,8.135,0,0,1,4.791.092,29.057,29.057,0,0,1,6.953,3.11S241.332,419.008,240.714,425.361Z" transform="translate(-169.022 -206.903)" fill="#467cdb"/>
          <path id="Trazado_1066654" data-name="Trazado 1066654" d="M348.026,462.164c-3.549-13.241-36.938-69.771-48.234-85.034-23.2-10.073-47.928-18.621-47.928-18.621-10.226,2.442-15.263,23.049-9.463,36.785,3.979,9.425,29.222,33.144,44.681,47.109l-42.9-.052s-5.053,7.555-.474,14.728c0,0,71.346,16.223,77.6,17.138s20.3,0,20.3,0S351.013,473.311,348.026,462.164Z" transform="translate(-161.197 -230.354)" fill="#002c54"/>
          <path id="Trazado_1066655" data-name="Trazado 1066655" d="M203.913,425.361c-.25,2.571,2,4.887,1.588,5.528s-7.93,13.254-7.93,13.254,5.675,2.472,4.76,6.042H187.957s-3.754-3.387-3.662-8.239a41.7,41.7,0,0,1,3.54-10.529c2.564-4.944,8.391-16.105,8.391-16.105a8.136,8.136,0,0,1,4.791.092,29.089,29.089,0,0,1,6.953,3.11S204.531,419.008,203.913,425.361Z" transform="translate(-184.294 -206.903)" fill="#467cdb"/>
          <path id="Trazado_1066656" data-name="Trazado 1066656" d="M369.871,308.679l-23.009,40.472-16.477-16.425-13.639,20.3,3.961,1.9-1.425,1.186s31.8,15.487,35.611,12.07,21.566-54.907,21.566-54.907Z" transform="translate(-129.33 -251.032)" fill="#e49191"/>
          <path id="Trazado_1066657" data-name="Trazado 1066657" d="M365.259,337.467s-4.344,18.324-13.032,27.012L330,356.018s-10.315,17.348-20.4,30.648c-3.877,5.136-5.165,12.367-9.721,13.315-.283-.1-.552-.184-.835-.255-12.353-3.707-30.578.226-45.619-5.363-16.612-6.183-13.386-9.664-13.386-9.664s10.075-18.154,15.791-37.384a229.208,229.208,0,0,0,5.49-22.54,25.953,25.953,0,0,1,21.847-20.9c.127-.014.241-.042.368-.057,12.593-1.6,45.562,2.292,51.972,5.037S365.259,337.467,365.259,337.467Z" transform="translate(-161.268 -253.203)" fill="#467cdb"/>
          <path id="Trazado_1066658" data-name="Trazado 1066658" d="M312.375,341.463s-10.315,17.348-20.4,30.648c-3.877,5.136-5.165,12.367-9.721,13.315,2-.708,5.306-11.207,6.481-13.57s3.071-4.712,7.146-12.961,9.574-20.374,9.574-20.374Z" transform="translate(-143.645 -238.648)" fill="#5996ef"/>
          <g id="Grupo_1233075" data-name="Grupo 1233075" transform="translate(125.885 211.611)">
            <path id="Trazado_1066659" data-name="Trazado 1066659" d="M273.26,417.928s.349-.078.966-.157c.617-.064,1.5-.192,2.564-.234a42.608,42.608,0,0,1,7.788.359,40.939,40.939,0,0,1,4.1.778,31.08,31.08,0,0,1,3.492,1.034,25.734,25.734,0,0,1,2.384.981c.566.259.88.426.88.426s-.358-.041-.968-.146c-.6-.129-1.48-.246-2.516-.423-2.073-.347-4.819-.788-7.579-1.157-1.375-.214-2.761-.364-4.057-.545l-3.557-.446Z" transform="translate(-273.26 -417.489)"/>
          </g>
          <path id="Trazado_1066660" data-name="Trazado 1066660" d="M371.878,300.276c-.371-.037-2.729,1.856-3.869,2.792l1.312-2.513a24.719,24.719,0,0,0,2.359-2.6c.624-.92.3-1.839-.2-1.889-.347-.035-2.422,1.612-3.624,2.592l.265-.505a24.719,24.719,0,0,0,2.359-2.6c.624-.92.3-1.839-.2-1.889s-4.484,3.3-4.484,3.3l-1.944,2.6,1.466-2.847a12.218,12.218,0,0,0,1.286-1.973c.515-1.029.143-1.343-.143-1.687s-2.973,1.658-3.659,2.458a41.357,41.357,0,0,0-3.029,4.5l-2.246,4.645c-.143-1.346-.369-3.649-.528-5.117-.229-2.115-2.144-2.615-2.21-1.586s-1.133,6.089-.891,8.832.7,4.545.873,6.089-1.429,4.628-1.429,4.628,6.4,3.976,7.461,2.786a49.879,49.879,0,0,0,4.4-5.613,29.892,29.892,0,0,0,2.506-5.66l2-4.275a24.719,24.719,0,0,0,2.359-2.6C372.7,301.245,372.371,300.324,371.878,300.276Z" transform="translate(-114.141 -257.525)" fill="#e49191"/>
        </g>
        <g id="Grupo_1233080" data-name="Grupo 1233080" transform="translate(213.439 269.88)">
          <path id="Trazado_1066667" data-name="Trazado 1066667" d="M209.446,262.031h75.084a8.713,8.713,0,0,1,8.713,8.713v17.738a8.714,8.714,0,0,1-7.614,8.644,1.256,1.256,0,0,0-1.1,1.248v9.71a.577.577,0,0,1-1.047.335l-7.648-10.694a1.266,1.266,0,0,0-1.03-.529H209.446a8.713,8.713,0,0,1-8.713-8.713V270.744A8.713,8.713,0,0,1,209.446,262.031Z" transform="translate(-200.733 -262.031)" fill="none" stroke="#fff" stroke-miterlimit="10" stroke-width="0.896"/>
          <g id="Grupo_1233079" data-name="Grupo 1233079" transform="translate(14.495 14.687)">
            <path id="Trazado_1066668" data-name="Trazado 1066668" d="M251.814,275.279a2.869,2.869,0,1,0,2.868-2.868A2.868,2.868,0,0,0,251.814,275.279Z" transform="translate(-194.031 -272.411)" fill="none" stroke="#fff" stroke-miterlimit="10" stroke-width="0.896"/>
            <path id="Trazado_1066669" data-name="Trazado 1066669" d="M241.6,275.279a2.868,2.868,0,1,0,2.868-2.868A2.868,2.868,0,0,0,241.6,275.279Z" transform="translate(-198.267 -272.411)" fill="none" stroke="#fff" stroke-miterlimit="10" stroke-width="0.896"/>
            <path id="Trazado_1066670" data-name="Trazado 1066670" d="M231.4,275.279a2.868,2.868,0,1,0,2.868-2.868A2.868,2.868,0,0,0,231.4,275.279Z" transform="translate(-202.504 -272.411)" fill="none" stroke="#fff" stroke-miterlimit="10" stroke-width="0.896"/>
            <path id="Trazado_1066671" data-name="Trazado 1066671" d="M221.186,275.279a2.868,2.868,0,1,0,2.868-2.868A2.868,2.868,0,0,0,221.186,275.279Z" transform="translate(-206.741 -272.411)" fill="none" stroke="#fff" stroke-miterlimit="10" stroke-width="0.896"/>
            <path id="Trazado_1066672" data-name="Trazado 1066672" d="M210.977,275.279a2.869,2.869,0,1,0,2.87-2.868A2.868,2.868,0,0,0,210.977,275.279Z" transform="translate(-210.977 -272.411)" fill="none" stroke="#fff" stroke-miterlimit="10" stroke-width="0.896"/>
          </g>
        </g>
        <g id="Grupo_1233082" data-name="Grupo 1233082" transform="translate(265 123.865)">
          <path id="Trazado_1066673" data-name="Trazado 1066673" d="M571.5,186.17H434.65A13.666,13.666,0,0,1,420.984,172.5h0a13.666,13.666,0,0,1,13.666-13.666H571.5A13.666,13.666,0,0,1,585.166,172.5h0A13.666,13.666,0,0,1,571.5,186.17Z" transform="translate(-420.984 -158.838)" fill="#fff" stroke="#495ad6" stroke-miterlimit="10" stroke-width="0.896"/>
          <g id="Grupo_1233081" data-name="Grupo 1233081" transform="translate(133.977 5.458)">
            <path id="Trazado_1066674" data-name="Trazado 1066674" d="M530.2,169.962a7.267,7.267,0,1,1-7.267-7.267A7.266,7.266,0,0,1,530.2,169.962Z" transform="translate(-515.669 -162.695)" fill="none" stroke="#495ad6" stroke-miterlimit="10" stroke-width="1.672"/>
            <line id="Línea_4342" data-name="Línea 4342" x2="4.013" y2="4.013" transform="translate(12.405 12.405)" fill="none" stroke="#495ad6" stroke-linecap="round" stroke-miterlimit="10" stroke-width="1.672"/>
          </g>
        </g>
        <g id="Grupo_1233105" data-name="Grupo 1233105" transform="translate(120.632)">
          <g id="Grupo_1233083" data-name="Grupo 1233083" transform="translate(292.084 466.634)">
            <path id="Trazado_1066675" data-name="Trazado 1066675" d="M394.146,457.323H359.719a10.907,10.907,0,0,1-10.907-10.907V411.989a10.907,10.907,0,0,1,10.907-10.907h34.428a10.907,10.907,0,0,1,10.907,10.907v34.428A10.907,10.907,0,0,1,394.146,457.323Z" transform="translate(-338.562 -401.082)" fill="#193091"/>
            <path id="Trazado_1066676" data-name="Trazado 1066676" d="M386.9,457.323H352.475a10.907,10.907,0,0,1-10.907-10.907V411.989a10.907,10.907,0,0,1,10.907-10.907H386.9a10.907,10.907,0,0,1,10.907,10.907v34.428A10.907,10.907,0,0,1,386.9,457.323Z" transform="translate(-341.568 -401.082)" fill="#495ad6"/>
            <path id="Trazado_1066677" data-name="Trazado 1066677" d="M357.4,413.512l16.143,9.32a1.5,1.5,0,0,1,0,2.589l-16.143,9.32a1.5,1.5,0,0,1-2.243-1.295V414.807A1.5,1.5,0,0,1,357.4,413.512Z" transform="translate(-335.927 -396.008)" fill="#fff"/>
          </g>
          <g id="Grupo_1233085" data-name="Grupo 1233085" transform="translate(472.398 162.597)">
            <path id="Trazado_1066682" data-name="Trazado 1066682" d="M500.079,190.555H471.173A2.172,2.172,0,0,1,469,188.383h0a2.171,2.171,0,0,1,2.172-2.172h28.906a2.172,2.172,0,0,1,2.172,2.172h0A2.173,2.173,0,0,1,500.079,190.555Z" transform="translate(-469.001 -186.211)" fill="#f0f4ff"/>
            <path id="Trazado_1066683" data-name="Trazado 1066683" d="M518.174,190.555H497.255a2.172,2.172,0,0,1-2.172-2.172h0a2.172,2.172,0,0,1,2.172-2.172h20.919a2.172,2.172,0,0,1,2.172,2.172h0A2.172,2.172,0,0,1,518.174,190.555Z" transform="translate(-458.178 -186.211)" fill="#f0f4ff"/>
            <path id="Trazado_1066684" data-name="Trazado 1066684" d="M483.455,197.3H471.174A2.172,2.172,0,0,1,469,195.133h0a2.172,2.172,0,0,1,2.172-2.172h12.281a2.172,2.172,0,0,1,2.172,2.172h0A2.173,2.173,0,0,1,483.455,197.3Z" transform="translate(-469.001 -183.41)" fill="#f0f4ff"/>
            <path id="Trazado_1066685" data-name="Trazado 1066685" d="M523.257,197.3H485a2.172,2.172,0,0,1-2.172-2.172h0A2.172,2.172,0,0,1,485,192.961h38.252a2.172,2.172,0,0,1,2.172,2.172h0A2.172,2.172,0,0,1,523.257,197.3Z" transform="translate(-463.261 -183.41)" fill="#f0f4ff"/>
            <path id="Trazado_1066686" data-name="Trazado 1066686" d="M509.277,204.055h-38.1A2.172,2.172,0,0,1,469,201.883h0a2.172,2.172,0,0,1,2.172-2.172h38.1a2.172,2.172,0,0,1,2.172,2.172h0A2.173,2.173,0,0,1,509.277,204.055Z" transform="translate(-469.001 -180.609)" fill="#f0f4ff"/>
            <path id="Trazado_1066687" data-name="Trazado 1066687" d="M515.641,204.055H503.359a2.172,2.172,0,0,1-2.172-2.172h0a2.172,2.172,0,0,1,2.172-2.172h12.282a2.172,2.172,0,0,1,2.172,2.172h0A2.172,2.172,0,0,1,515.641,204.055Z" transform="translate(-455.645 -180.609)" fill="#f0f4ff"/>
          </g>
          <g id="Grupo_1233089" data-name="Grupo 1233089" transform="translate(59.368 327.04)">
            <path id="Trazado_1066688" data-name="Trazado 1066688" d="M263.459,364.185H162.55a5.41,5.41,0,0,1-5.409-5.409V307.836a5.409,5.409,0,0,1,5.409-5.409H263.459a5.41,5.41,0,0,1,5.409,5.409v50.939A5.407,5.407,0,0,1,263.459,364.185Z" transform="translate(-157.141 -302.427)" fill="#193091"/>
            <line id="Línea_4343" data-name="Línea 4343" x2="102.232" transform="translate(4.749 8.343)" fill="none" stroke="#fff" stroke-linecap="round" stroke-miterlimit="10" stroke-width="0.896"/>
            <circle id="Elipse_13966" data-name="Elipse 13966" cx="1.238" cy="1.238" r="1.238" transform="translate(103.044 2.86)" fill="#fff"/>
            <circle id="Elipse_13967" data-name="Elipse 13967" cx="1.238" cy="1.238" r="1.238" transform="translate(96.587 2.86)" fill="#fff"/>
            <circle id="Elipse_13968" data-name="Elipse 13968" cx="1.238" cy="1.238" r="1.238" transform="translate(90.132 2.86)" fill="#fff"/>
            <g id="Grupo_1233088" data-name="Grupo 1233088" transform="translate(4.749 13.237)">
              <g id="Grupo_1233086" data-name="Grupo 1233086">
                <path id="Trazado_1066689" data-name="Trazado 1066689" d="M179.554,315.2H162.206a1.71,1.71,0,0,1-1.709-1.709h0a1.71,1.71,0,0,1,1.709-1.709h17.348a1.71,1.71,0,0,1,1.709,1.709h0A1.71,1.71,0,0,1,179.554,315.2Z" transform="translate(-160.497 -311.782)" fill="#6589d1"/>
                <path id="Trazado_1066690" data-name="Trazado 1066690" d="M179.554,320.784H162.206a1.71,1.71,0,0,1-1.709-1.709h0a1.71,1.71,0,0,1,1.709-1.709h17.348a1.71,1.71,0,0,1,1.709,1.709h0A1.709,1.709,0,0,1,179.554,320.784Z" transform="translate(-160.497 -309.465)" fill="#6589d1"/>
                <path id="Trazado_1066691" data-name="Trazado 1066691" d="M179.554,326.368H162.206a1.71,1.71,0,0,1-1.709-1.709h0a1.71,1.71,0,0,1,1.709-1.709h17.348a1.71,1.71,0,0,1,1.709,1.709h0A1.71,1.71,0,0,1,179.554,326.368Z" transform="translate(-160.497 -307.148)" fill="#6589d1"/>
                <path id="Trazado_1066692" data-name="Trazado 1066692" d="M179.554,331.951H162.206a1.71,1.71,0,0,1-1.709-1.709h0a1.71,1.71,0,0,1,1.709-1.709h17.348a1.71,1.71,0,0,1,1.709,1.709h0A1.71,1.71,0,0,1,179.554,331.951Z" transform="translate(-160.497 -304.831)" fill="#6589d1"/>
                <path id="Trazado_1066693" data-name="Trazado 1066693" d="M179.554,337.534H162.206a1.71,1.71,0,0,1-1.709-1.709h0a1.71,1.71,0,0,1,1.709-1.709h17.348a1.71,1.71,0,0,1,1.709,1.709h0A1.709,1.709,0,0,1,179.554,337.534Z" transform="translate(-160.497 -302.514)" fill="#6589d1"/>
                <path id="Trazado_1066694" data-name="Trazado 1066694" d="M179.554,343.118H162.206a1.71,1.71,0,0,1-1.709-1.709h0a1.71,1.71,0,0,1,1.709-1.709h17.348a1.71,1.71,0,0,1,1.709,1.709h0A1.71,1.71,0,0,1,179.554,343.118Z" transform="translate(-160.497 -300.197)" fill="#6589d1"/>
              </g>
              <g id="Grupo_1233087" data-name="Grupo 1233087" transform="translate(24.055)">
                <path id="Trazado_1066695" data-name="Trazado 1066695" d="M253.963,315.2H179.206a1.71,1.71,0,0,1-1.709-1.709h0a1.71,1.71,0,0,1,1.709-1.709h74.757a1.71,1.71,0,0,1,1.709,1.709h0A1.708,1.708,0,0,1,253.963,315.2Z" transform="translate(-177.497 -311.782)" fill="#3b5fb7"/>
                <path id="Trazado_1066696" data-name="Trazado 1066696" d="M253.963,320.784H179.206a1.71,1.71,0,0,1-1.709-1.709h0a1.71,1.71,0,0,1,1.709-1.709h74.757a1.71,1.71,0,0,1,1.709,1.709h0A1.707,1.707,0,0,1,253.963,320.784Z" transform="translate(-177.497 -309.465)" fill="#3b5fb7"/>
                <path id="Trazado_1066697" data-name="Trazado 1066697" d="M253.963,326.368H179.206a1.71,1.71,0,0,1-1.709-1.709h0a1.71,1.71,0,0,1,1.709-1.709h74.757a1.71,1.71,0,0,1,1.709,1.709h0A1.708,1.708,0,0,1,253.963,326.368Z" transform="translate(-177.497 -307.148)" fill="#3b5fb7"/>
                <path id="Trazado_1066698" data-name="Trazado 1066698" d="M253.963,331.951H179.206a1.71,1.71,0,0,1-1.709-1.709h0a1.71,1.71,0,0,1,1.709-1.709h74.757a1.71,1.71,0,0,1,1.709,1.709h0A1.708,1.708,0,0,1,253.963,331.951Z" transform="translate(-177.497 -304.831)" fill="#3b5fb7"/>
                <path id="Trazado_1066699" data-name="Trazado 1066699" d="M253.963,337.534H179.206a1.71,1.71,0,0,1-1.709-1.709h0a1.71,1.71,0,0,1,1.709-1.709h74.757a1.71,1.71,0,0,1,1.709,1.709h0A1.707,1.707,0,0,1,253.963,337.534Z" transform="translate(-177.497 -302.514)" fill="#3b5fb7"/>
                <path id="Trazado_1066700" data-name="Trazado 1066700" d="M253.963,343.118H179.206a1.71,1.71,0,0,1-1.709-1.709h0a1.71,1.71,0,0,1,1.709-1.709h74.757a1.71,1.71,0,0,1,1.709,1.709h0A1.708,1.708,0,0,1,253.963,343.118Z" transform="translate(-177.497 -300.197)" fill="#3b5fb7"/>
              </g>
            </g>
          </g>
          <g id="Grupo_1233096" data-name="Grupo 1233096" transform="translate(88.059 -42.383)">
            <path id="Trazado_1066704" data-name="Trazado 1066704" d="M203.441,296.832H152.934a13.54,13.54,0,0,1-13.54-13.54V232.785a13.54,13.54,0,0,1,13.54-13.54h50.507a13.54,13.54,0,0,1,13.54,13.54v50.507A13.54,13.54,0,0,1,203.441,296.832Z" transform="translate(-133.38 -212.522)" fill="#193091"/>
            <path id="Trazado_1066705" data-name="Trazado 1066705" d="M201.884,292.083H145.993a10.848,10.848,0,0,1-10.849-10.849V225.343a10.848,10.848,0,0,1,10.849-10.849h55.891a10.848,10.848,0,0,1,10.849,10.849v55.891A10.85,10.85,0,0,1,201.884,292.083Z" transform="translate(-135.144 -214.494)" fill="#7e89fd" stroke="#dee3fc" stroke-miterlimit="10" stroke-width="1"/>
            <g id="Grupo_1233095" data-name="Grupo 1233095" transform="translate(21.564 12.237)">
              <g id="Grupo_1233094" data-name="Grupo 1233094">
                <path id="Trazado_1066706" data-name="Trazado 1066706" d="M181.048,240.816h-.4v-4.444a13.229,13.229,0,1,0-26.457,0v4.444H154.1a3.713,3.713,0,0,0-3.713,3.713v16.749a3.713,3.713,0,0,0,3.713,3.713h26.951a3.713,3.713,0,0,0,3.713-3.713V244.529A3.712,3.712,0,0,0,181.048,240.816Zm-23.511-4.444a9.878,9.878,0,1,1,19.756,0v4.444H157.535v-4.444Z" transform="translate(-150.384 -223.142)" fill="#dee3fc"/>
                <path id="Trazado_1066707" data-name="Trazado 1066707" d="M168.143,242.983a4.317,4.317,0,1,0-6.493,3.721.775.775,0,0,1,.392.866l-.751,2.772a2.592,2.592,0,1,0,5,0l-.743-2.742a.776.776,0,0,1,.4-.873A4.3,4.3,0,0,0,168.143,242.983Z" transform="translate(-146.597 -216.7)" fill="#7e89fd"/>
              </g>
              <path id="Trazado_1066708" data-name="Trazado 1066708" d="M183.168,257.8H151.977a1.592,1.592,0,0,1-1.592-1.592h0a1.592,1.592,0,0,1,1.592-1.592h31.192a1.592,1.592,0,0,1,1.592,1.592h0A1.592,1.592,0,0,1,183.168,257.8Z" transform="translate(-150.384 -210.08)" fill="#dee3fc"/>
              <path id="Trazado_1066709" data-name="Trazado 1066709" d="M183.168,261.615H151.977a1.592,1.592,0,0,1-1.592-1.592h0a1.592,1.592,0,0,1,1.592-1.592h31.192a1.592,1.592,0,0,1,1.592,1.592h0A1.592,1.592,0,0,1,183.168,261.615Z" transform="translate(-150.384 -208.498)" fill="#dee3fc"/>
            </g>
          </g>
          <g id="Grupo_1233104" data-name="Grupo 1233104" transform="translate(110.171 229.157)">
            <path id="Trazado_1066716" data-name="Trazado 1066716" d="M232.628,237.128H214.943A1.939,1.939,0,0,1,213,235.19h0a1.939,1.939,0,0,1,1.939-1.939h17.684a1.939,1.939,0,0,1,1.939,1.939h0A1.939,1.939,0,0,1,232.628,237.128Z" transform="translate(-213.005 -233.251)" fill="#f0f4ff"/>
            <path id="Trazado_1066717" data-name="Trazado 1066717" d="M250.442,243.211h-35.5A1.939,1.939,0,0,1,213,241.273h0a1.939,1.939,0,0,1,1.939-1.939h35.5a1.939,1.939,0,0,1,1.938,1.939h0A1.938,1.938,0,0,1,250.442,243.211Z" transform="translate(-213.005 -230.727)" fill="#f0f4ff"/>
            <path id="Trazado_1066718" data-name="Trazado 1066718" d="M219.136,249.3h-4.193A1.938,1.938,0,0,1,213,247.357h0a1.939,1.939,0,0,1,1.939-1.939h4.193a1.938,1.938,0,0,1,1.939,1.939h0A1.939,1.939,0,0,1,219.136,249.3Z" transform="translate(-213.005 -228.202)" fill="#f0f4ff"/>
            <path id="Trazado_1066719" data-name="Trazado 1066719" d="M247.281,249.3H222.563a1.938,1.938,0,0,1-1.939-1.939h0a1.939,1.939,0,0,1,1.939-1.939h24.718a1.938,1.938,0,0,1,1.938,1.939h0A1.939,1.939,0,0,1,247.281,249.3Z" transform="translate(-209.843 -228.202)" fill="#f0f4ff"/>
            <path id="Trazado_1066720" data-name="Trazado 1066720" d="M243.175,237.128h-10.72a1.939,1.939,0,0,1-1.939-1.938h0a1.939,1.939,0,0,1,1.939-1.939h10.72a1.939,1.939,0,0,1,1.938,1.939h0A1.939,1.939,0,0,1,243.175,237.128Z" transform="translate(-205.738 -233.251)" fill="#f0f4ff"/>
          </g>
          <path id="Trazado_1066721" data-name="Trazado 1066721" d="M182.051,425.85a12.279,12.279,0,0,0-6.305,1.732,13.224,13.224,0,0,0-26.284,2.939,10.1,10.1,0,1,0-1.871,20.022h34.462a12.346,12.346,0,1,0,0-24.693Z" transform="translate(-124.144 71.678)" fill="#fff"/>
        </g>
        <line id="Línea_4356" data-name="Línea 4356" x2="400" transform="translate(180.5 522.215)" fill="none" stroke="#fff" stroke-linecap="round" stroke-miterlimit="10" stroke-width="1.114"/>
      </g>
    </g>
  </g>
</svg>
