<svg xmlns="http://www.w3.org/2000/svg" xmlns:xlink="http://www.w3.org/1999/xlink" width="295" height="286" viewBox="0 0 295 286">
  <defs>
    <clipPath id="clip-path">
      <rect id="Rect치ngulo_425268" data-name="Rect치ngulo 425268" width="295" height="286" transform="translate(5137 4735)" fill="#fff" stroke="#707070" stroke-width="1"/>
    </clipPath>
    <linearGradient id="linear-gradient" x1="0.5" x2="0.5" y2="1" gradientUnits="objectBoundingBox">
      <stop offset="0" stop-color="#903cdf"/>
      <stop offset="1" stop-color="#481e70"/>
    </linearGradient>
  </defs>
  <g id="Enmascarar_grupo_1211612" data-name="Enmascarar grupo 1211612" transform="translate(-5137 -4735)" clip-path="url(#clip-path)">
    <g id="Grupo_1232596" data-name="Grupo 1232596" transform="translate(-14)">
      <rect id="Rect치ngulo_423022" data-name="Rect치ngulo 423022" width="155" height="286" rx="13" transform="translate(5221 4735)" fill="url(#linear-gradient)"/>
      <g id="Grupo_1232595" data-name="Grupo 1232595" transform="translate(-1187.675 -630)">
        <g id="Grupo_1232572" data-name="Grupo 1232572" transform="translate(6384.483 5408.146)">
          <g id="Grupo_1232570" data-name="Grupo 1232570" transform="translate(0 0)">
            <path id="Trazado_1065690" data-name="Trazado 1065690" d="M125.052,75.1q-.065-2.356-.132-4.712a4.6,4.6,0,0,0-.209-1.328c-.122-.253-25.024-.019-29.916-.054-4.8-.034-28.732.064-28.869.066-.639.012-.524.745-.539.745,0,.111-.032,21.007-.009,31.491.144.137,10.32.1,15.042.108,4.912.006,9.824-.016,14.735-.024,4.823-.008,26.7.079,29.079-.154a1.624,1.624,0,0,0,.186-.041,1.541,1.541,0,0,0,.541-.148c.074-4.92.1-9.846.023-14.72C124.925,82.566,124.98,78.83,125.052,75.1Z" transform="translate(-65.371 -68.941)" fill="#ffbb39"/>
            <path id="Trazado_1065691" data-name="Trazado 1065691" d="M125.06,75.067q-.064-2.339-.13-4.679a4.6,4.6,0,0,0-.209-1.328c-.122-.253-25.024-.019-29.916-.054-4.8-.034-28.732.064-28.869.066-.639.012-.524.745-.539.745,0,.035,0,2.109-.006,5.263,3.633.012,10.14.008,13.739.011q8.02,0,16.039,0C99.795,75.085,118.833,75.11,125.06,75.067Z" transform="translate(-65.38 -68.941)" fill="#b345b5"/>
            <path id="Trazado_1065692" data-name="Trazado 1065692" d="M164.716,74.177a1.589,1.589,0,0,1-.1-1.434,1.824,1.824,0,0,1,.274-.418,1.66,1.66,0,0,1,.228-.213,1.629,1.629,0,0,1,.513-.253,1.859,1.859,0,0,1,.362-.082,2.1,2.1,0,0,1,.373.015,1.558,1.558,0,0,1,.938.494,1.616,1.616,0,1,1-2.591,1.89Z" transform="translate(-109.693 -70.208)" fill="#ffd075"/>
            <path id="Trazado_1065693" data-name="Trazado 1065693" d="M156.044,74.177a1.591,1.591,0,0,1-.1-1.434,1.823,1.823,0,0,1,.274-.418,1.662,1.662,0,0,1,.228-.213,1.629,1.629,0,0,1,.513-.253,1.868,1.868,0,0,1,.362-.082,2.1,2.1,0,0,1,.373.015,1.558,1.558,0,0,1,.938.494,1.616,1.616,0,1,1-2.591,1.89Z" transform="translate(-105.815 -70.208)" fill="#fff"/>
            <path id="Trazado_1065694" data-name="Trazado 1065694" d="M147.372,74.177a1.589,1.589,0,0,1-.1-1.434,1.824,1.824,0,0,1,.274-.418,1.661,1.661,0,0,1,.228-.213,1.629,1.629,0,0,1,.513-.253,1.868,1.868,0,0,1,.362-.082,2.1,2.1,0,0,1,.373.015,1.558,1.558,0,0,1,.938.494,1.616,1.616,0,1,1-2.591,1.89Z" transform="translate(-101.938 -70.208)" fill="#fff"/>
          </g>
          <g id="Grupo_1232571" data-name="Grupo 1232571" transform="translate(3.264 9.311)">
            <path id="Trazado_1065695" data-name="Trazado 1065695" d="M124.426,89.6c-.039-.974-.076-1.947-.118-2.92,0-.1-.071-.752-.186-.823-.108-.157-22.286-.014-26.643-.036-4.277-.022-25.589.037-25.71.039-.569.007-.467.462-.48.462,0,.069-.027,13.019-.006,19.516.128.085,9.191.064,13.4.068,4.375,0,8.749-.009,13.123-.014,4.3,0,23.779.051,25.9-.093.063,0,.109-.018.166-.025a1.883,1.883,0,0,0,.482-.092c.066-3.05.09-6.1.019-9.122C124.314,94.227,124.362,91.912,124.426,89.6Z" transform="translate(-71.276 -85.783)" fill="#fff"/>
            <text id="_..._..._" data-name="{...}/&lt;...&gt;" transform="translate(5.77 11.24)" fill="#4c5980" font-size="8" font-family="SegoeUI, Segoe UI"><tspan x="0" y="0">{...}/&lt;...&gt;</tspan></text>
          </g>
        </g>
        <g id="Grupo_1232575" data-name="Grupo 1232575" transform="translate(6379.675 5508.317)">
          <g id="Grupo_1232573" data-name="Grupo 1232573" transform="translate(0 0)">
            <path id="Trazado_1065696" data-name="Trazado 1065696" d="M131.486,270.476q-.08-7.784-.162-15.569a38.633,38.633,0,0,0-.262-4.387c-.153-.835-31.363-.05-37.494-.161-6.019-.11-36.01.228-36.181.237-.8.038-.657,2.463-.676,2.462,0,.366-.053,69.412-.03,104.053.18.454,12.934.331,18.852.347,6.156.017,12.312-.059,18.468-.088,6.044-.029,33.463.245,36.446-.528a1.2,1.2,0,0,0,.233-.135,1.267,1.267,0,0,0,.678-.49c.1-16.258.133-32.532.038-48.637C131.322,295.145,131.393,282.8,131.486,270.476Z" transform="translate(-56.675 -250.131)" fill="#4c5980"/>
            <path id="Trazado_1065697" data-name="Trazado 1065697" d="M131.372,256.984q-.012-1.038-.022-2.077a38.507,38.507,0,0,0-.262-4.387c-.153-.835-31.363-.05-37.494-.161-6.019-.11-36.01.228-36.181.237-.8.038-.657,2.463-.676,2.462,0,.051,0,1.459,0,3.936,4.63.012,12.622.009,17.078.011q10.119,0,20.237,0C99.793,257,123.128,257.026,131.372,256.984Z" transform="translate(-56.702 -250.13)" fill="#b345b5"/>
            <path id="Trazado_1065698" data-name="Trazado 1065698" d="M181.6,255.809a1.588,1.588,0,0,1-.1-1.434,1.838,1.838,0,0,1,.274-.419,1.663,1.663,0,0,1,.228-.213,1.628,1.628,0,0,1,.513-.253,1.869,1.869,0,0,1,.362-.082,2.1,2.1,0,0,1,.373.015,1.558,1.558,0,0,1,.938.494,1.616,1.616,0,1,1-2.591,1.891Z" transform="translate(-112.437 -251.595)" fill="#ffd075"/>
            <path id="Trazado_1065699" data-name="Trazado 1065699" d="M172.933,255.809a1.591,1.591,0,0,1-.1-1.434,1.839,1.839,0,0,1,.274-.419,1.663,1.663,0,0,1,.228-.213,1.631,1.631,0,0,1,.512-.253,1.869,1.869,0,0,1,.362-.082,2.1,2.1,0,0,1,.373.015,1.558,1.558,0,0,1,.938.494,1.616,1.616,0,1,1-2.59,1.891Z" transform="translate(-108.56 -251.595)" fill="#fff"/>
            <path id="Trazado_1065700" data-name="Trazado 1065700" d="M164.26,255.809a1.588,1.588,0,0,1-.1-1.434,1.838,1.838,0,0,1,.274-.419,1.662,1.662,0,0,1,.228-.213,1.628,1.628,0,0,1,.513-.253,1.859,1.859,0,0,1,.362-.082,2.1,2.1,0,0,1,.373.015,1.558,1.558,0,0,1,.938.494,1.616,1.616,0,1,1-2.591,1.891Z" transform="translate(-104.682 -251.595)" fill="#fff"/>
          </g>
          <g id="Grupo_1232574" data-name="Grupo 1232574" transform="translate(4.996 12.03)">
            <path id="Trazado_1065701" data-name="Trazado 1065701" d="M94.5,271.89c-3.674.1-12.183.051-14.36.057-2.694.008-5.389.029-8.083.024-1.615,0-4.389.009-6.27-.013a1.606,1.606,0,0,0-.072.552c0,.02,0,.781,0,2.062,1.823.03,4.834.016,6.531.019,2.632,0,5.264-.016,7.9-.024,2.215-.007,11.148.051,14.455-.071q-.01-.725-.02-1.45C94.573,272.911,94.546,272.175,94.5,271.89Z" transform="translate(-65.713 -271.89)" fill="#d66ec0"/>
            <path id="Trazado_1065702" data-name="Trazado 1065702" d="M91.8,285.536c-1.762.1-5.844.051-6.889.057-1.293.008-2.585.029-3.878.024-.775,0-2.105.009-3.008-.013a3.228,3.228,0,0,0-.034.552c0,.02,0,.781,0,2.062.874.029,2.319.015,3.133.019,1.263.006,2.525-.016,3.788-.024,1.063-.007,5.348.051,6.934-.071q0-.725-.01-1.45C91.839,286.557,91.826,285.821,91.8,285.536Z" transform="translate(-71.205 -277.992)" fill="#ffd075"/>
            <path id="Trazado_1065703" data-name="Trazado 1065703" d="M102.414,421.96c-3.116.1-10.334.051-12.182.058-2.285.008-4.571.029-6.857.024-1.369,0-3.723.009-5.32-.013a1.881,1.881,0,0,0-.061.552c0,.02,0,.781,0,2.062,1.546.029,4.1.015,5.541.019,2.233.005,4.465-.016,6.7-.024,1.88-.007,9.457.051,12.262-.071q-.008-.725-.018-1.45C102.476,422.981,102.454,422.244,102.414,421.96Z" transform="translate(-71.204 -338.994)" fill="#ffd075"/>
            <path id="Trazado_1065704" data-name="Trazado 1065704" d="M115.269,285.536c-1.189.1-3.942.051-4.647.057-.872.008-1.744.029-2.616.024-.522,0-1.42.009-2.03-.013a4.817,4.817,0,0,0-.023.552c0,.02,0,.781,0,2.062.59.029,1.564.015,2.114.019.852.006,1.7-.016,2.555-.024.717-.007,3.607.051,4.678-.071l-.007-1.45C115.292,286.557,115.283,285.821,115.269,285.536Z" transform="translate(-83.706 -277.992)" fill="#7991d1"/>
            <path id="Trazado_1065705" data-name="Trazado 1065705" d="M123.127,340.675c-1.762.1-5.844.051-6.888.057-1.293.008-2.585.029-3.878.024-.775,0-2.105.009-3.008-.013a3.226,3.226,0,0,0-.034.552c0,.02,0,.781,0,2.062.874.029,2.319.016,3.133.019,1.263.006,2.525-.016,3.788-.024,1.063-.007,5.348.051,6.934-.071q0-.725-.01-1.45C123.162,341.7,123.149,340.96,123.127,340.675Z" transform="translate(-85.211 -302.647)" fill="#ffd075"/>
            <path id="Trazado_1065706" data-name="Trazado 1065706" d="M146.592,340.675c-1.189.1-3.942.051-4.647.057-.872.008-1.744.029-2.616.024-.522,0-1.42.009-2.029-.013a4.819,4.819,0,0,0-.023.552c0,.02,0,.781,0,2.062.59.029,1.564.016,2.114.019.852.006,1.7-.016,2.555-.024.717-.007,3.607.051,4.678-.071q0-.725-.007-1.45C146.616,341.7,146.607,340.96,146.592,340.675Z" transform="translate(-97.713 -302.647)" fill="#7991d1"/>
            <path id="Trazado_1065707" data-name="Trazado 1065707" d="M123.553,381.835c-1.189.1-3.942.051-4.647.058-.872.008-1.744.029-2.616.024-.522,0-1.42.009-2.029-.013a4.815,4.815,0,0,0-.023.552c0,.02,0,.781,0,2.062.59.029,1.564.016,2.114.019.852,0,1.7-.016,2.555-.024.717-.007,3.607.051,4.678-.071q0-.725-.007-1.45C123.576,382.856,123.568,382.119,123.553,381.835Z" transform="translate(-87.411 -321.052)" fill="#7991d1"/>
            <path id="Trazado_1065708" data-name="Trazado 1065708" d="M123.553,390.766c-1.189.1-3.942.051-4.647.057-.872.008-1.744.029-2.616.024-.522,0-1.42.009-2.029-.013a4.814,4.814,0,0,0-.023.552c0,.02,0,.781,0,2.062.59.03,1.564.016,2.114.019.852.005,1.7-.016,2.555-.024.717-.007,3.607.051,4.678-.071q0-.725-.007-1.45C123.576,391.787,123.568,391.05,123.553,390.766Z" transform="translate(-87.411 -325.045)" fill="#7991d1"/>
            <path id="Trazado_1065709" data-name="Trazado 1065709" d="M143.069,285.536c-2.17.1-7.2.051-8.482.057-1.592.008-3.183.029-4.774.024-.954,0-2.592.009-3.7-.013a2.649,2.649,0,0,0-.042.552c0,.02,0,.781,0,2.062,1.076.029,2.855.015,3.858.019,1.555.006,3.109-.016,4.664-.024,1.309-.007,6.584.051,8.538-.071q-.006-.725-.012-1.45C143.113,286.557,143.1,285.821,143.069,285.536Z" transform="translate(-92.7 -277.992)" fill="#7991d1"/>
            <path id="Trazado_1065710" data-name="Trazado 1065710" d="M138.9,299.265c-4.985.112-16.528.055-19.481.062-3.655.008-7.31.031-10.966.025-2.19,0-5.954.009-8.507-.014a1.388,1.388,0,0,0-.1.593c0,.022,0,.839,0,2.215,2.472.032,6.558.017,8.861.02,3.571.006,7.141-.017,10.712-.025,3.006-.007,15.124.055,19.61-.077-.009-.519-.018-1.038-.028-1.558A10.783,10.783,0,0,0,138.9,299.265Z" transform="translate(-80.975 -284.131)" fill="#ffd075"/>
            <path id="Trazado_1065711" data-name="Trazado 1065711" d="M138.9,308.584c-4.985.112-16.528.055-19.481.062-3.655.008-7.31.031-10.966.025-2.19,0-5.954.009-8.507-.014a1.387,1.387,0,0,0-.1.593c0,.022,0,.839,0,2.215,2.472.031,6.558.017,8.861.02,3.571.006,7.141-.017,10.712-.025,3.006-.007,15.124.055,19.61-.077-.009-.519-.018-1.039-.028-1.558A10.794,10.794,0,0,0,138.9,308.584Z" transform="translate(-80.975 -288.298)" fill="#fff"/>
            <path id="Trazado_1065712" data-name="Trazado 1065712" d="M129.056,317.9c-3.728.112-12.362.055-14.571.062-2.734.008-5.468.032-8.2.026-1.639,0-4.454.009-6.363-.014a1.83,1.83,0,0,0-.073.593c0,.022,0,.839,0,2.215,1.849.032,4.9.017,6.628.02,2.671.005,5.342-.017,8.012-.025,2.248-.007,11.312.055,14.668-.077-.007-.519-.013-1.038-.021-1.558C129.13,319,129.1,318.209,129.056,317.9Z" transform="translate(-80.975 -292.465)" fill="#fff"/>
            <path id="Trazado_1065713" data-name="Trazado 1065713" d="M129.056,410.837c-3.728.112-12.362.055-14.571.062-2.734.008-5.468.031-8.2.025-1.639,0-4.454.009-6.363-.014a1.828,1.828,0,0,0-.073.593c0,.022,0,.839,0,2.215,1.849.031,4.9.017,6.628.02,2.671.005,5.342-.017,8.012-.025,2.248-.007,11.312.055,14.668-.077-.007-.519-.013-1.038-.021-1.558C129.13,411.934,129.1,411.142,129.056,410.837Z" transform="translate(-80.975 -334.02)" fill="#ffd075"/>
            <path id="Trazado_1065714" data-name="Trazado 1065714" d="M153.135,353.886c-4.984.112-16.527.055-19.481.062-3.655.008-7.31.032-10.966.025-2.19,0-5.954.009-8.507-.014a1.387,1.387,0,0,0-.1.593c0,.022,0,.839,0,2.215,2.472.032,6.558.017,8.861.02,3.571.006,7.141-.017,10.712-.025,3.006-.007,15.124.055,19.61-.077q-.014-.779-.028-1.558A10.529,10.529,0,0,0,153.135,353.886Z" transform="translate(-87.341 -308.554)" fill="#fff"/>
            <path id="Trazado_1065715" data-name="Trazado 1065715" d="M153.135,363.2c-4.984.112-16.527.055-19.481.062-3.655.008-7.31.032-10.966.025-2.19,0-5.954.009-8.507-.014a1.387,1.387,0,0,0-.1.593c0,.022,0,.839,0,2.215,2.472.032,6.558.017,8.861.02,3.571.006,7.141-.017,10.712-.026,3.006-.007,15.124.055,19.61-.077q-.014-.779-.028-1.558A10.539,10.539,0,0,0,153.135,363.2Z" transform="translate(-87.341 -312.721)" fill="#fff"/>
            <path id="Trazado_1065716" data-name="Trazado 1065716" d="M143.294,372.524c-3.728.112-12.362.055-14.571.062-2.734.008-5.468.032-8.2.025-1.639,0-4.454.009-6.363-.014a1.805,1.805,0,0,0-.072.593c0,.022,0,.839,0,2.215,1.849.032,4.9.017,6.628.02,2.671.006,5.342-.017,8.012-.025,2.248-.007,11.312.055,14.668-.077-.007-.519-.013-1.039-.021-1.558C143.368,373.621,143.341,372.83,143.294,372.524Z" transform="translate(-87.342 -316.889)" fill="#fff"/>
            <path id="Trazado_1065717" data-name="Trazado 1065717" d="M129.565,399.511c-1.976.112-6.552.055-7.723.062-1.449.008-2.9.032-4.347.025-.869,0-2.361.009-3.372-.014a3.348,3.348,0,0,0-.039.593c0,.022,0,.839,0,2.215.98.032,2.6.017,3.513.02,1.416.006,2.831-.017,4.246-.025,1.191-.007,6,.055,7.774-.077q-.006-.779-.011-1.558C129.6,400.608,129.59,399.817,129.565,399.511Z" transform="translate(-87.342 -328.956)" fill="#fff"/>
            <path id="Trazado_1065718" data-name="Trazado 1065718" d="M163.2,399.511c-2.394.112-7.938.055-9.357.062-1.756.008-3.511.032-5.267.025-1.052,0-2.86.009-4.086-.014a2.8,2.8,0,0,0-.046.593c0,.022,0,.839,0,2.215,1.188.032,3.15.017,4.256.02,1.715.006,3.43-.017,5.145-.025,1.443-.007,7.264.055,9.419-.077l-.013-1.558C163.25,400.608,163.232,399.817,163.2,399.511Z" transform="translate(-100.918 -328.956)" fill="#fff"/>
            <path id="Trazado_1065719" data-name="Trazado 1065719" d="M79.163,355.652q-.018-3.189-.037-6.377-.037-6.377-.074-12.754-.075-12.892-.15-25.784-.043-7.347-.078-14.694a.241.241,0,0,0-.481,0q.176,25.784.284,51.569.019,3.6.039,7.209c.013,2.477-.111,5.02.145,7.486a.143.143,0,0,0,.286,0C79.3,360.111,79.176,357.855,79.163,355.652Z" transform="translate(-71.36 -282.586)" fill="#7991d1"/>
            <path id="Trazado_1065720" data-name="Trazado 1065720" d="M100.765,337.4c.021-3.08.053-6.161.052-9.242a.221.221,0,0,0-.442-.006c-.166,10.9-.178,21.794-.254,32.691-.022,3.081-.061,6.162-.027,9.242a.189.189,0,0,0,.377,0C100.756,359.2,100.69,348.3,100.765,337.4Z" transform="translate(-81.081 -296.955)" fill="#7991d1"/>
          </g>
        </g>
        <g id="Grupo_1232583" data-name="Grupo 1232583" transform="translate(6448.588 5443.656)">
          <g id="Grupo_1232576" data-name="Grupo 1232576" transform="translate(0 0)">
            <path id="Trazado_1065721" data-name="Trazado 1065721" d="M325.732,154.435q-.155-8.134-.317-16.269c-.012-.576-.191-4.193-.506-4.585-.295-.873-60.548-.06-72.382-.179-11.62-.117-69.519.229-69.849.238-1.546.04-1.268,2.574-1.3,2.572,0,.382-.083,72.534-.032,108.732.348.474,60.163.31,72.047.281,11.668-.029,64.6.264,70.359-.542a3.226,3.226,0,0,0,.451-.141,2.94,2.94,0,0,0,1.309-.512c.181-16.99.249-34,.06-50.825C325.421,180.213,325.556,167.313,325.732,154.435Z" transform="translate(-181.326 -133.171)" fill="#f6ecfe"/>
            <path id="Trazado_1065722" data-name="Trazado 1065722" d="M253.412,140.056c10.838-.029,51.972.2,72.073-.21-.012-.561-.021-1.121-.033-1.681s-.191-4.193-.505-4.585c-.295-.873-60.548-.06-72.382-.179-11.62-.117-69.519.229-69.849.238-1.546.04-1.268,2.574-1.3,2.572,0,.051,0,1.416,0,3.811C202.4,140.2,243.139,140.082,253.412,140.056Z" transform="translate(-181.363 -133.171)" fill="#b345b5"/>
            <path id="Trazado_1065723" data-name="Trazado 1065723" d="M426.056,204.486q-.015,14-.022,28t0,28c.006,5.15-.081,10.312.061,15.461-6.432.276-12.88.51-19.3.989-.169.013-.174.268,0,.266,6.435-.072,12.875-.391,19.3-.667a.3.3,0,0,0,.13-.036.2.2,0,0,0,.272-.181c.15-4.682.081-9.376.1-14.06q.022-6.971.031-13.942c.014-9.334.072-18.668.06-28-.007-5.278.012-10.555.017-15.833A.327.327,0,0,0,426.056,204.486Z" transform="translate(-282.089 -164.918)" fill="#d5dfe9"/>
            <path id="Trazado_1065724" data-name="Trazado 1065724" d="M442.311,156.572c-.027-.352-.564-.361-.555,0,.093,3.667.259,7.326.257,11s-.108,7.332-.261,11c-.015.373.556.369.577,0,.214-3.662.3-7.328.291-11S442.588,160.222,442.311,156.572Z" transform="translate(-297.775 -143.515)" fill="#d5dfe9"/>
            <path id="Trazado_1065725" data-name="Trazado 1065725" d="M431.745,139.38a1.357,1.357,0,0,1-.082-1.224,1.561,1.561,0,0,1,.234-.357,1.441,1.441,0,0,1,.195-.182,1.378,1.378,0,0,1,.438-.216,1.615,1.615,0,0,1,.309-.07,1.8,1.8,0,0,1,.318.013,1.331,1.331,0,0,1,.8.421,1.38,1.38,0,1,1-2.211,1.614Z" transform="translate(-293.216 -135.03)" fill="#ffd075"/>
            <path id="Trazado_1065726" data-name="Trazado 1065726" d="M424.342,139.38a1.357,1.357,0,0,1-.082-1.224,1.561,1.561,0,0,1,.234-.357,1.443,1.443,0,0,1,.195-.182,1.384,1.384,0,0,1,.438-.216,1.614,1.614,0,0,1,.309-.07,1.8,1.8,0,0,1,.318.013,1.33,1.33,0,0,1,.8.421,1.38,1.38,0,1,1-2.211,1.614Z" transform="translate(-289.905 -135.03)" fill="#fff"/>
            <path id="Trazado_1065727" data-name="Trazado 1065727" d="M416.94,139.38a1.355,1.355,0,0,1-.082-1.224,1.563,1.563,0,0,1,.234-.357,1.445,1.445,0,0,1,.195-.182,1.384,1.384,0,0,1,.438-.216,1.614,1.614,0,0,1,.309-.07,1.8,1.8,0,0,1,.318.013,1.33,1.33,0,0,1,.8.421,1.38,1.38,0,1,1-2.211,1.614Z" transform="translate(-286.595 -135.03)" fill="#fff"/>
          </g>
          <g id="Grupo_1232582" data-name="Grupo 1232582" transform="translate(15.143 20.203)">
            <g id="Grupo_1232581" data-name="Grupo 1232581">
              <g id="Grupo_1232577" data-name="Grupo 1232577">
                <path id="Trazado_1065728" data-name="Trazado 1065728" d="M209.3,176.918v-6.331a.7.7,0,0,1,.738-.65l7.93-.115,7.466-.108a17.367,17.367,0,0,1,3.639,6.95c-4.978.577-9.983.727-14.982.876a13.252,13.252,0,0,1-4.634-.41C209.422,176.978,209.3,177.077,209.3,176.918Z" transform="translate(-208.979 -169.714)" fill="#ffbb39"/>
                <path id="Trazado_1065729" data-name="Trazado 1065729" d="M257.191,209.5c.138-8.822.04-17.492-.048-26.253a5.562,5.562,0,0,0-.374-2.48,2.014,2.014,0,0,0-1.885-.835q-22.235-.474-44.472.419a2.024,2.024,0,0,0-1.353.336c-.4.34-.348.691-.331,1.607q.192,14.117.383,28.233a2.4,2.4,0,0,0,2.346,2.292c14.479-.021,29.046-.923,43.525-.944a2.37,2.37,0,0,0,1.655-.432A2.133,2.133,0,0,0,257.191,209.5Z" transform="translate(-208.717 -174.208)" fill="#eb9921"/>
              </g>
              <g id="Grupo_1232578" data-name="Grupo 1232578" transform="translate(64.323)">
                <path id="Trazado_1065730" data-name="Trazado 1065730" d="M325.652,176.918v-6.331a.7.7,0,0,1,.738-.65l7.93-.115,7.466-.108a17.367,17.367,0,0,1,3.639,6.95c-4.978.577-9.983.727-14.982.876a13.252,13.252,0,0,1-4.634-.41C325.77,176.978,325.652,177.077,325.652,176.918Z" transform="translate(-325.327 -169.714)" fill="#ffbb39"/>
                <path id="Trazado_1065731" data-name="Trazado 1065731" d="M373.539,209.5c.138-8.822.039-17.492-.048-26.253a5.562,5.562,0,0,0-.374-2.48,2.014,2.014,0,0,0-1.885-.835q-22.235-.474-44.472.419a2.024,2.024,0,0,0-1.353.336c-.4.34-.348.691-.331,1.607l.383,28.233a2.4,2.4,0,0,0,2.346,2.292c14.479-.021,29.046-.923,43.525-.944a2.37,2.37,0,0,0,1.655-.432A2.134,2.134,0,0,0,373.539,209.5Z" transform="translate(-325.065 -174.208)" fill="#eb9921"/>
              </g>
              <g id="Grupo_1232579" data-name="Grupo 1232579" transform="translate(0 45.081)">
                <path id="Trazado_1065732" data-name="Trazado 1065732" d="M209.3,258.461V252.13a.7.7,0,0,1,.738-.65l7.93-.115,7.466-.108a17.367,17.367,0,0,1,3.639,6.95c-4.978.577-9.983.727-14.982.876a13.252,13.252,0,0,1-4.634-.41C209.422,258.521,209.3,258.62,209.3,258.461Z" transform="translate(-208.979 -251.257)" fill="#ffbb39"/>
                <path id="Trazado_1065733" data-name="Trazado 1065733" d="M257.191,291.039c.138-8.822.04-17.492-.048-26.253a5.562,5.562,0,0,0-.374-2.48,2.014,2.014,0,0,0-1.885-.835q-22.235-.474-44.472.419a2.024,2.024,0,0,0-1.353.336c-.4.34-.348.691-.331,1.607q.192,14.117.383,28.233a2.4,2.4,0,0,0,2.346,2.292c14.479-.021,29.046-.923,43.525-.944a2.37,2.37,0,0,0,1.655-.432A2.133,2.133,0,0,0,257.191,291.039Z" transform="translate(-208.717 -255.751)" fill="#eb9921"/>
              </g>
              <g id="Grupo_1232580" data-name="Grupo 1232580" transform="translate(64.323 45.081)">
                <path id="Trazado_1065734" data-name="Trazado 1065734" d="M325.652,258.461V252.13a.7.7,0,0,1,.738-.65l7.93-.115,7.466-.108a17.367,17.367,0,0,1,3.639,6.95c-4.978.577-9.983.727-14.982.876a13.252,13.252,0,0,1-4.634-.41C325.77,258.521,325.652,258.62,325.652,258.461Z" transform="translate(-325.327 -251.257)" fill="#ffbb39"/>
                <path id="Trazado_1065735" data-name="Trazado 1065735" d="M373.539,291.039c.138-8.822.039-17.492-.048-26.253a5.562,5.562,0,0,0-.374-2.48,2.014,2.014,0,0,0-1.885-.835Q349,261,326.76,261.89a2.024,2.024,0,0,0-1.353.336c-.4.34-.348.691-.331,1.607l.383,28.233a2.4,2.4,0,0,0,2.346,2.292c14.479-.021,29.046-.923,43.525-.944a2.37,2.37,0,0,0,1.655-.432A2.134,2.134,0,0,0,373.539,291.039Z" transform="translate(-325.065 -255.751)" fill="#eb9921"/>
              </g>
            </g>
            <path id="Trazado_1065736" data-name="Trazado 1065736" d="M385.412,213.906q-.037-.812-.076-1.624a1.319,1.319,0,0,0-.094-.457c-.053-.087-10.579.124-12.647.138-2.031.013-12.146.172-12.2.174a.218.218,0,0,0-.224.26c0,.038.077,7.245.131,10.86.061.046,4.363-.019,6.359-.041,2.077-.024,4.153-.057,6.229-.085,2.039-.028,11.288-.112,12.293-.205.03,0,.051-.01.078-.015a.764.764,0,0,0,.228-.054c.011-1.7,0-3.4-.054-5.076C385.39,216.481,385.4,215.193,385.412,213.906Z" transform="translate(-276.437 -188.535)" fill="#4c5980"/>
            <text id="SQL" transform="translate(87.365 30.194) rotate(-0.711)" fill="#fff" font-size="7" font-family="SegoeUI, Segoe UI"><tspan x="0" y="0">SQL</tspan></text>
          </g>
        </g>
        <g id="Grupo_1232584" data-name="Grupo 1232584" transform="translate(6393.762 5459.282)">
          <path id="Trazado_1065737" data-name="Trazado 1065737" d="M117.342,224.191q.029-5.418.057-10.835a.545.545,0,0,0-.067-.326.554.554,0,0,0-.458-.157c-.438-.011-.989.193-1.446.217a.158.158,0,0,0,.04-.212.428.428,0,0,0-.387-.079c-3.139.38-6.288-.365-9.424-.764a66.565,66.565,0,0,0-13.837-.048,39.6,39.6,0,0,0-9.034,1.551.926.926,0,0,0-.463.261.939.939,0,0,0-.135.587q-.043,5.133.007,10.268a1.211,1.211,0,0,0,0,.631c.369,1.354,3.408,1.591,4.6,1.689,2.57.213,5.179.205,7.756.194,5.132-.023,10.257-.3,15.379-.582,2.327-.127,4.748-.28,6.778-1.425a1.2,1.2,0,0,0,.634-.647A.647.647,0,0,0,117.342,224.191Z" transform="translate(-82.155 -183.888)" fill="#d66ec0"/>
          <path id="Trazado_1065738" data-name="Trazado 1065738" d="M82.351,213.229c-.29-1.063.883-1.924,1.919-2.3a25.146,25.146,0,0,1,6.706-1.218,102.717,102.717,0,0,1,21.271.554,17.143,17.143,0,0,1,4.255.961c.537.218,1.146.674.992,1.233a1.2,1.2,0,0,1-.634.647c-2.03,1.145-4.45,1.3-6.777,1.425-5.123.28-10.248.559-15.38.582-2.577.011-5.186.019-7.756-.194C85.759,214.819,82.72,214.583,82.351,213.229Z" transform="translate(-82.223 -182.882)" fill="#eba7dc"/>
          <path id="Trazado_1065739" data-name="Trazado 1065739" d="M117.377,202.589l.058-10.835a.565.565,0,0,0-.064-.326.521.521,0,0,0-.44-.157c-.421-.01-.951.193-1.39.217a.162.162,0,0,0,.038-.212.4.4,0,0,0-.372-.079c-3.017.381-6.045-.363-9.06-.761a61.536,61.536,0,0,0-13.3-.044,36.719,36.719,0,0,0-8.686,1.553.88.88,0,0,0-.444.262.974.974,0,0,0-.13.587q-.043,5.133,0,10.268a1.266,1.266,0,0,0,0,.631c.354,1.354,3.276,1.589,4.418,1.688,2.471.212,4.979.2,7.456.191,4.934-.024,9.861-.305,14.786-.587,2.237-.128,4.565-.282,6.516-1.427a1.179,1.179,0,0,0,.61-.647A.681.681,0,0,0,117.377,202.589Z" transform="translate(-82.779 -174.231)" fill="#b345b5"/>
          <path id="Trazado_1065740" data-name="Trazado 1065740" d="M117.525,200.21q.028-5.418.057-10.835a.545.545,0,0,0-.067-.326.554.554,0,0,0-.458-.157c-.438-.011-.989.193-1.446.217a.158.158,0,0,0,.04-.212.426.426,0,0,0-.386-.079c-3.139.38-6.288-.365-9.424-.764A66.562,66.562,0,0,0,92,188.006a39.6,39.6,0,0,0-9.034,1.551.926.926,0,0,0-.463.261.943.943,0,0,0-.136.587q-.043,5.133.007,10.268a1.211,1.211,0,0,0,0,.631c.369,1.354,3.408,1.591,4.6,1.689,2.57.213,5.179.205,7.756.194,5.132-.023,10.257-.3,15.38-.582,2.327-.127,4.748-.28,6.777-1.425a1.2,1.2,0,0,0,.634-.647A.641.641,0,0,0,117.525,200.21Z" transform="translate(-82.237 -173.165)" fill="#d66ec0"/>
          <path id="Trazado_1065741" data-name="Trazado 1065741" d="M82.533,189.248c-.29-1.063.883-1.924,1.919-2.3a25.144,25.144,0,0,1,6.706-1.218,102.72,102.72,0,0,1,21.271.554,17.142,17.142,0,0,1,4.255.961c.537.218,1.146.674.992,1.233a1.2,1.2,0,0,1-.634.647c-2.03,1.145-4.45,1.3-6.778,1.425-5.123.28-10.248.559-15.379.582-2.577.011-5.186.019-7.756-.194C85.941,190.838,82.9,190.6,82.533,189.248Z" transform="translate(-82.304 -172.159)" fill="#eba7dc"/>
          <path id="Trazado_1065742" data-name="Trazado 1065742" d="M117.56,178.608l.058-10.835a.565.565,0,0,0-.064-.326.52.52,0,0,0-.44-.157c-.421-.01-.951.193-1.39.217a.162.162,0,0,0,.038-.212.4.4,0,0,0-.372-.079c-3.017.381-6.045-.363-9.06-.761a61.571,61.571,0,0,0-13.3-.044,36.719,36.719,0,0,0-8.686,1.554.88.88,0,0,0-.444.261.974.974,0,0,0-.13.587q-.043,5.133,0,10.268a1.266,1.266,0,0,0,0,.631c.354,1.354,3.276,1.589,4.418,1.688,2.471.212,4.979.2,7.456.192,4.933-.024,9.861-.306,14.786-.587,2.237-.128,4.565-.282,6.516-1.427a1.179,1.179,0,0,0,.61-.647A.682.682,0,0,0,117.56,178.608Z" transform="translate(-82.86 -163.508)" fill="#b345b5"/>
          <path id="Trazado_1065743" data-name="Trazado 1065743" d="M117.708,176.229q.029-5.418.058-10.835a.545.545,0,0,0-.067-.326.554.554,0,0,0-.458-.157c-.438-.01-.989.193-1.446.217a.158.158,0,0,0,.04-.212.428.428,0,0,0-.387-.079c-3.139.38-6.288-.365-9.424-.764a66.565,66.565,0,0,0-13.837-.048,39.6,39.6,0,0,0-9.034,1.551.7.7,0,0,0-.6.848q-.043,5.133.007,10.267a1.211,1.211,0,0,0,0,.631c.369,1.354,3.408,1.591,4.6,1.689,2.57.213,5.179.205,7.756.194,5.132-.023,10.257-.3,15.379-.582,2.327-.127,4.748-.28,6.778-1.425a1.2,1.2,0,0,0,.634-.647A.644.644,0,0,0,117.708,176.229Z" transform="translate(-82.319 -162.442)" fill="#d66ec0"/>
          <path id="Trazado_1065744" data-name="Trazado 1065744" d="M82.716,165.266c-.29-1.063.883-1.923,1.919-2.3a25.145,25.145,0,0,1,6.706-1.218,102.721,102.721,0,0,1,21.271.554,17.142,17.142,0,0,1,4.255.961c.537.218,1.146.674.992,1.233a1.2,1.2,0,0,1-.634.647c-2.03,1.145-4.45,1.3-6.777,1.425-5.123.28-10.248.559-15.38.582-2.577.011-5.186.019-7.756-.194C86.124,166.856,83.085,166.62,82.716,165.266Z" transform="translate(-82.386 -161.435)" fill="#eba7dc"/>
        </g>
        <g id="Grupo_1232588" data-name="Grupo 1232588" transform="translate(6485.663 5571.359)">
          <g id="Grupo_1232585" data-name="Grupo 1232585" transform="translate(0 0)">
            <path id="Trazado_1065745" data-name="Trazado 1065745" d="M330.266,374.046q-.089-3.782-.18-7.563a8.557,8.557,0,0,0-.287-2.131c-.167-.406-34.332-.03-41.042-.085-6.589-.055-39.419.1-39.606.108-.877.018-.719,1.2-.74,1.2,0,.177-.045,33.719-.014,50.547.2.221,14.158.163,20.636.172,6.739.009,13.477-.027,20.216-.039,6.616-.013,36.63.125,39.895-.25a2.242,2.242,0,0,0,.256-.065,1.893,1.893,0,0,0,.742-.238c.1-7.9.14-15.8.033-23.627C330.091,386.029,330.167,380.033,330.266,374.046Z" transform="translate(-248.387 -364.161)" fill="#ffbb39"/>
            <path id="Trazado_1065746" data-name="Trazado 1065746" d="M268.219,370.361q10.529,0,21.057,0c6.577,0,35.349.028,40.918-.025q-.046-1.926-.092-3.852a8.56,8.56,0,0,0-.287-2.131c-.167-.406-34.332-.03-41.042-.085-6.589-.055-39.419.1-39.606.109-.877.018-.719,1.2-.74,1.2,0,.041,0,1.835,0,4.773C252.484,370.362,262.832,370.358,268.219,370.361Z" transform="translate(-248.403 -364.161)" fill="#b345b5"/>
            <path id="Trazado_1065747" data-name="Trazado 1065747" d="M387.194,369.433a1.589,1.589,0,0,1-.1-1.434,1.824,1.824,0,0,1,.274-.418,1.689,1.689,0,0,1,.228-.213,1.621,1.621,0,0,1,.513-.253,1.859,1.859,0,0,1,.362-.082,2.15,2.15,0,0,1,.373.015,1.557,1.557,0,0,1,.938.494,1.616,1.616,0,1,1-2.59,1.891Z" transform="translate(-310.355 -365.444)" fill="#ffd075"/>
            <path id="Trazado_1065748" data-name="Trazado 1065748" d="M378.522,369.433a1.589,1.589,0,0,1-.1-1.434,1.823,1.823,0,0,1,.274-.418,1.661,1.661,0,0,1,.228-.213,1.616,1.616,0,0,1,.513-.253,1.859,1.859,0,0,1,.362-.082,2.149,2.149,0,0,1,.373.015,1.557,1.557,0,0,1,.938.494,1.616,1.616,0,1,1-2.591,1.891Z" transform="translate(-306.477 -365.444)" fill="#fff"/>
            <path id="Trazado_1065749" data-name="Trazado 1065749" d="M369.851,369.433a1.592,1.592,0,0,1-.1-1.434,1.822,1.822,0,0,1,.274-.418,1.66,1.66,0,0,1,.228-.213,1.618,1.618,0,0,1,.512-.253,1.868,1.868,0,0,1,.362-.082,2.149,2.149,0,0,1,.373.015,1.557,1.557,0,0,1,.938.494,1.616,1.616,0,1,1-2.59,1.891Z" transform="translate(-302.6 -365.444)" fill="#fff"/>
          </g>
          <g id="Grupo_1232587" data-name="Grupo 1232587" transform="translate(6.986 13.877)">
            <path id="Trazado_1065750" data-name="Trazado 1065750" d="M315.565,414.8q-3.443.246-6.9.213c-.223,0-.557-.008-.583-.229a23.759,23.759,0,0,1,.013-5.664.928.928,0,0,1,.1-.381.239.239,0,0,1,.258-.133q3.519.051,7.037-.077c.023-1.133-.014-2.388-.082-3.519.32-.288.861-.025,1.2.245a49.281,49.281,0,0,1,6.742,5.933c.492.577.132,1.191-.384,1.747s-1.936,1.769-2.5,2.273c-.971.864-2.524,2.385-4.194,3.757-.149.123-.522-.285-.537-.477C315.632,417.19,315.666,416.1,315.565,414.8Z" transform="translate(-281.993 -396.247)" fill="#4c5980"/>
            <g id="Grupo_1232586" data-name="Grupo 1232586">
              <path id="Trazado_1065751" data-name="Trazado 1065751" d="M281.9,394.365c-2.184-1.688-4.5-3.424-6.724-5.066-1.2,0-2.58.007-3.777-.023-2.609-.066-9.725.093-9.97.311a1.167,1.167,0,0,0-.333.9c.155,9.393-.207,16.227-.022,28.12a.756.756,0,0,0,.7.839c6.9.116,12.2.193,18.288-.114.249-.013,1.673.045,1.81-.163a1.307,1.307,0,0,0,.224-.707c0-3.779-.1-8.368-.117-12.495C281.962,402.124,282.053,398.1,281.9,394.365Z" transform="translate(-261.023 -389.261)" fill="#fff"/>
              <path id="Trazado_1065752" data-name="Trazado 1065752" d="M293.461,394.341q-2.122.975-4.182,2.08a2.91,2.91,0,0,1-.757.32.805.805,0,0,1-.721-.1,73.2,73.2,0,0,1-1.092-7.341,4.334,4.334,0,0,1,1.171.468,38.62,38.62,0,0,1,5.448,4.272C293.426,394.131,293.582,394.285,293.461,394.341Z" transform="translate(-272.509 -389.278)" fill="#d5dfe9"/>
              <path id="Trazado_1065753" data-name="Trazado 1065753" d="M281.467,408.1c-2.117.086-7.02.042-8.275.048-1.552.007-3.105.024-4.658.02-.93,0-2.529.007-3.613-.011a1.9,1.9,0,0,0-.041.457c0,.017,0,.646,0,1.706,1.05.024,2.785.013,3.764.015,1.516,0,3.033-.013,4.55-.02,1.277-.006,6.424.043,8.329-.059q-.006-.6-.012-1.2C281.509,408.942,281.493,408.333,281.467,408.1Z" transform="translate(-262.747 -397.684)" fill="#a1b0ba"/>
              <path id="Trazado_1065754" data-name="Trazado 1065754" d="M281.467,415.884c-2.117.086-7.02.043-8.275.048-1.552.007-3.105.024-4.658.02-.93,0-2.529.007-3.613-.011a1.9,1.9,0,0,0-.041.457c0,.017,0,.646,0,1.706,1.05.024,2.785.013,3.764.015,1.516,0,3.033-.013,4.55-.02,1.277-.006,6.424.043,8.329-.059q-.006-.6-.012-1.2C281.509,416.728,281.493,416.119,281.467,415.884Z" transform="translate(-262.747 -401.165)" fill="#a1b0ba"/>
              <path id="Trazado_1065755" data-name="Trazado 1065755" d="M281.467,423.67c-2.117.086-7.02.042-8.275.048-1.552.007-3.105.024-4.658.02-.93,0-2.529.007-3.613-.011a1.9,1.9,0,0,0-.041.457c0,.017,0,.646,0,1.706,1.05.024,2.785.013,3.764.015,1.516,0,3.033-.013,4.55-.02,1.277-.006,6.424.043,8.329-.059q-.006-.6-.012-1.2C281.509,424.515,281.493,423.906,281.467,423.67Z" transform="translate(-262.747 -404.647)" fill="#a1b0ba"/>
              <path id="Trazado_1065756" data-name="Trazado 1065756" d="M276.767,431.457c-1.518.086-5.032.042-5.93.048-1.113.007-2.225.024-3.338.02-.667,0-1.813.007-2.59-.011a2.612,2.612,0,0,0-.03.457c0,.017,0,.646,0,1.706.753.024,2,.013,2.7.015,1.087,0,2.174-.013,3.261-.02.915-.006,4.6.043,5.97-.059q0-.6-.008-1.2C276.8,432.3,276.787,431.692,276.767,431.457Z" transform="translate(-262.747 -408.129)" fill="#a1b0ba"/>
            </g>
            <path id="Trazado_1065757" data-name="Trazado 1065757" d="M367.9,411.1l0-1.527c0-3.187-.031-6.367-.086-9.454-.038-2.116-.08-3.841-.133-5.428a.3.3,0,0,0-.1-.214c-.242-1.278-1.974-1.478-2.548-1.544-1.827-.212-3.514-.355-5.159-.441a58.852,58.852,0,0,0-10.42.315l-.123.016c-1.181.147-2.52.312-3.257,1.492a.664.664,0,0,0-.153.38c.035,2.038.025,4.113.015,6.119-.006,1.075-.011,2.149-.01,3.223l.009,9.439v.644c-.065.7-.078,1.406-.09,2.093-.008.45-.014.9-.012,1.35a6.77,6.77,0,0,0,.09,1.478,5.132,5.132,0,0,0,3.239,1.425,33.628,33.628,0,0,0,3.653.256l.608.021c1,.036,1.95.055,2.857.055a49.522,49.522,0,0,0,6.209-.355,34.339,34.339,0,0,0,4.956-.986.3.3,0,0,0,.209-.19.278.278,0,0,0,.143-.238C367.91,416.392,367.9,413.7,367.9,411.1Zm-18.414-17.688c1.445-.181,2.966-.3,4.523-.365a71.981,71.981,0,0,1,8.9.244l.187.016c.747.062,1.519.127,2.272.226a2.148,2.148,0,0,1,1.674.9,37.485,37.485,0,0,1-10.274,1.437h-.022a37.156,37.156,0,0,1-5.31-.38c-.86-.125-1.737-.285-2.607-.475-.3-.066-.6-.143-.9-.221-.4-.105-.818-.213-1.233-.29A4.31,4.31,0,0,1,349.483,393.412Zm-2.931,1.67a12.2,12.2,0,0,0,1.432.4l.208.049c.63.15,1.3.286,2.044.417a39.115,39.115,0,0,0,4.1.5,37.5,37.5,0,0,0,8.354-.38,38.091,38.091,0,0,0,4.4-.967c.049,2.588.088,5.007.119,7.382-.457.069-.916.164-1.361.257-.39.081-.794.164-1.192.229-.857.141-1.734.258-2.6.347a46.585,46.585,0,0,1-5.179.237,44.256,44.256,0,0,1-5.172-.357c-1.069-.137-2.144-.344-3.184-.546-.636-.123-1.293-.25-1.963-.36v-.857q0-.7,0-1.41,0-.771-.007-1.541C346.544,397.365,346.538,396.215,346.552,395.083Zm20.715,16.786c0,.576,0,1.152,0,1.728s-.01,1.179-.018,1.769c-.014,1.132-.028,2.3-.014,3.455-5.991,1.666-12.256,1.477-17.049,1.124a10.511,10.511,0,0,1-2.041-.32,6.424,6.424,0,0,1-1.651-.782.329.329,0,0,0,0-.033c.1-2.264.083-4.573.07-6.806l-.006-1.211a9.356,9.356,0,0,0,3.457,1.086,35.47,35.47,0,0,0,4.037.414,51.29,51.29,0,0,0,8.658-.273c1.476-.17,3.007-.42,4.555-.746v.594ZM356.63,411.7c-1.89-.033-3.606-.141-5.248-.331a18.661,18.661,0,0,1-2.54-.447,13.8,13.8,0,0,1-1.394-.468c-.29-.109-.59-.221-.892-.321l0-.677q0-3.3,0-6.6a28.168,28.168,0,0,0,4.946,1,45.313,45.313,0,0,0,5.37.385,43.316,43.316,0,0,0,5.376-.272c.853-.1,1.711-.218,2.551-.362l.354-.06a18.63,18.63,0,0,0,2.065-.428c.031,2.572.047,5.1.048,7.514A48.166,48.166,0,0,1,356.63,411.7Z" transform="translate(-298.944 -390.664)" fill="#4c5980"/>
          </g>
        </g>
        <g id="Grupo_1232590" data-name="Grupo 1232590" transform="translate(6410.175 5407.611)">
          <g id="Grupo_1232589" data-name="Grupo 1232589" transform="translate(160.361 151.768)">
            <path id="Trazado_1065758" data-name="Trazado 1065758" d="M420.282,367.747c-.044-5.046-.147-17.83-.349-22.872-.013-.333-.528-.336-.52,0,.127,5.043.233,17.828.269,22.872.036,5.025-.051,10.05-.028,15.075a5.756,5.756,0,0,0-1.441-.028l-1.932.019-4,.039c-1.334.013-2.668.023-4,.04a28.012,28.012,0,0,0-3.921.131c-.2.031-.207.386,0,.413a28.025,28.025,0,0,0,3.921.051c1.334-.01,2.668-.028,4-.042l4-.043,1.932-.021a3.679,3.679,0,0,0,1.738-.17.149.149,0,0,0,.07-.1.245.245,0,0,0,.153-.226C420.366,377.843,420.326,372.789,420.282,367.747Z" transform="translate(-402.933 -343.444)" fill="#4c5980"/>
            <path id="Trazado_1065759" data-name="Trazado 1065759" d="M431.923,342.687a1.412,1.412,0,0,0-1.84.346,1.333,1.333,0,0,0-.169,1.1,1.433,1.433,0,0,0,.116.288,1.164,1.164,0,0,0,.323.445,1.328,1.328,0,0,0,1.945-.3A1.379,1.379,0,0,0,431.923,342.687Z" transform="translate(-414.407 -342.49)" fill="#4c5980"/>
            <path id="Trazado_1065760" data-name="Trazado 1065760" d="M403.965,412.214a1.412,1.412,0,0,0-1.84.346,1.333,1.333,0,0,0-.169,1.1,1.432,1.432,0,0,0,.116.288,1.164,1.164,0,0,0,.323.445,1.328,1.328,0,0,0,1.945-.3A1.379,1.379,0,0,0,403.965,412.214Z" transform="translate(-401.906 -373.579)" fill="#4c5980"/>
          </g>
          <path id="Trazado_1065761" data-name="Trazado 1065761" d="M214.025,68.168a1.412,1.412,0,0,0-1.84.346,1.266,1.266,0,0,0-.211.683c-.414,0-.828.006-1.235,0l-2.444-.043c-.814-.014-1.629-.035-2.444-.038a7.892,7.892,0,0,0-2.439.255c-.211,2.478-.089,5.027-.123,7.514-.034,2.433-.139,4.882-.044,7.314q-6.119-.242-12.243-.249c-2.028,0-4.058.012-6.086.056-1.688.036-3.4.028-5.094.149a1.234,1.234,0,0,0-.574-.957,1.412,1.412,0,0,0-1.84.346,1.331,1.331,0,0,0-.169,1.1,1.432,1.432,0,0,0,.116.288,1.17,1.17,0,0,0,.323.445,1.328,1.328,0,0,0,1.945-.3,1.435,1.435,0,0,0,.177-.459c1.657.007,3.324-.093,4.977-.119,2.075-.032,4.149-.056,6.225-.056q6.156,0,12.308.226a.2.2,0,0,0,.213-.146.168.168,0,0,0,.066-.125c.178-2.493.134-5.014.169-7.514.033-2.4.208-4.855.091-7.256a10.146,10.146,0,0,0,2,.079c.814.017,1.629.015,2.444.021l2.444.016c.441,0,.892.023,1.341.029.018.043.03.089.052.129a1.17,1.17,0,0,0,.323.445,1.328,1.328,0,0,0,1.945-.3A1.379,1.379,0,0,0,214.025,68.168Z" transform="translate(-141.062 -67.971)" fill="#4c5980"/>
          <path id="Trazado_1065762" data-name="Trazado 1065762" d="M222.107,412.214a1.412,1.412,0,0,0-1.84.346,1.254,1.254,0,0,0-.207.606c-1.984-.017-10.05-.032-12.034-.046-1.193-.008-6.808-.017-8-.025-.723,0-1.492-.058-2.242-.034a1.219,1.219,0,0,0-.563-.847,1.412,1.412,0,0,0-1.84.346,1.333,1.333,0,0,0-.169,1.1,1.4,1.4,0,0,0,.116.288,1.164,1.164,0,0,0,.323.445,1.327,1.327,0,0,0,1.945-.3,1.444,1.444,0,0,0,.19-.527c.7.029,1.423-.01,2.1-.006,1.238.007,6.9.014,8.138.021,1.995.012,10.07.022,12.065.03,0,.016,0,.032.008.046a1.431,1.431,0,0,0,.116.288,1.17,1.17,0,0,0,.323.445,1.327,1.327,0,0,0,1.945-.3A1.377,1.377,0,0,0,222.107,412.214Z" transform="translate(-149.098 -221.811)" fill="#4c5980"/>
          <path id="Trazado_1065763" data-name="Trazado 1065763" d="M113.9,141.472a1.4,1.4,0,0,0-.565-.183c.01-.477,0-.958,0-1.422l-.009-2.722q-.007-2.186-.014-4.372a1.274,1.274,0,0,0,.967-.583,1.379,1.379,0,0,0-.375-1.88,1.412,1.412,0,0,0-1.84.346,1.333,1.333,0,0,0-.169,1.1,1.4,1.4,0,0,0,.116.288,1.164,1.164,0,0,0,.323.445,1.239,1.239,0,0,0,.563.265q.007,2.2.014,4.392l.009,2.722c0,.466-.007.949.007,1.429a1.289,1.289,0,0,0-.863.522,1.333,1.333,0,0,0-.169,1.1,1.4,1.4,0,0,0,.116.288,1.164,1.164,0,0,0,.323.445,1.328,1.328,0,0,0,1.945-.3A1.38,1.38,0,0,0,113.9,141.472Z" transform="translate(-111.843 -95.758)" fill="#4c5980"/>
        </g>
        <g id="Grupo_1232594" data-name="Grupo 1232594" transform="translate(6485.664 5393)">
          <g id="Grupo_1232591" data-name="Grupo 1232591" transform="translate(0 0)">
            <path id="Trazado_1065764" data-name="Trazado 1065764" d="M319.024,51.93q-.076-3.973-.155-7.946a10.833,10.833,0,0,0-.247-2.24c-.144-.426-29.617-.029-35.406-.087-5.684-.057-34.005.112-34.167.116-.756.019-.62,1.257-.638,1.257,0,.187-.04,35.428-.015,53.108.17.232,12.214.171,17.8.18,5.813.009,11.626-.028,17.44-.043,5.708-.014,31.6.129,34.416-.265a1.656,1.656,0,0,0,.221-.069,1.438,1.438,0,0,0,.64-.25c.088-8.3.122-16.6.029-24.824C318.872,64.521,318.938,58.22,319.024,51.93Z" transform="translate(-248.389 -41.544)" fill="#ffbb39"/>
            <path id="Trazado_1065765" data-name="Trazado 1065765" d="M356.713,43.984a10.835,10.835,0,0,0-.247-2.24c-.1-.282-13.011-.2-23.426-.135,0,8.356-.019,36.817-.017,54.68,9.453.007,21.044-.022,22.876-.278a1.656,1.656,0,0,0,.221-.069,1.438,1.438,0,0,0,.64-.25c.088-8.3.122-16.6.029-24.824-.071-6.346-.006-12.647.08-18.937Q356.792,47.957,356.713,43.984Z" transform="translate(-286.232 -41.544)" fill="#4c5980"/>
            <path id="Trazado_1065766" data-name="Trazado 1065766" d="M264.586,48.029q9.538,0,19.076,0c5.44,0,27.642.022,35.3-.013q-.039-2.016-.078-4.031a10.835,10.835,0,0,0-.247-2.24c-.144-.426-29.617-.029-35.406-.087-5.684-.057-34.005.112-34.167.116-.756.019-.62,1.257-.638,1.257,0,.043,0,1.917,0,4.989C252.774,48.029,260.364,48.027,264.586,48.029Z" transform="translate(-248.404 -41.543)" fill="#b345b5"/>
            <path id="Trazado_1065767" data-name="Trazado 1065767" d="M367.569,47a1.591,1.591,0,0,1-.1-1.434,1.823,1.823,0,0,1,.274-.418,1.661,1.661,0,0,1,.228-.213,1.622,1.622,0,0,1,.513-.253,1.858,1.858,0,0,1,.362-.082,2.1,2.1,0,0,1,.373.015,1.558,1.558,0,0,1,.938.494,1.618,1.618,0,0,1-2.06,2.461A1.606,1.606,0,0,1,367.569,47Z" transform="translate(-301.58 -42.909)" fill="#ffd075"/>
            <path id="Trazado_1065768" data-name="Trazado 1065768" d="M358.9,47a1.589,1.589,0,0,1-.1-1.434,1.823,1.823,0,0,1,.274-.418,1.663,1.663,0,0,1,.228-.213,1.616,1.616,0,0,1,.513-.253,1.859,1.859,0,0,1,.362-.082,2.1,2.1,0,0,1,.373.015,1.558,1.558,0,0,1,.938.494,1.618,1.618,0,0,1-2.06,2.461A1.606,1.606,0,0,1,358.9,47Z" transform="translate(-297.702 -42.909)" fill="#fff"/>
            <path id="Trazado_1065769" data-name="Trazado 1065769" d="M350.225,47a1.591,1.591,0,0,1-.1-1.434,1.822,1.822,0,0,1,.274-.418,1.662,1.662,0,0,1,.228-.213,1.619,1.619,0,0,1,.513-.253,1.869,1.869,0,0,1,.362-.082,2.1,2.1,0,0,1,.373.015,1.558,1.558,0,0,1,.938.494,1.618,1.618,0,0,1-2.06,2.461A1.6,1.6,0,0,1,350.225,47Z" transform="translate(-293.824 -42.909)" fill="#fff"/>
          </g>
          <g id="Grupo_1232592" data-name="Grupo 1232592" transform="translate(3.144 11.428)">
            <path id="Trazado_1065770" data-name="Trazado 1065770" d="M275.5,99.789c-.878-.023-1.753-.048-2.631-.031.093-2.4.022-4.811,0-7.212q-.023-3.116-.046-6.233c.051,0,.1,0,.154,0l.373.012c.24.008.48.017.719.023s.48.006.72.008a1.761,1.761,0,0,0,.75-.054.241.241,0,0,0,0-.4,1.77,1.77,0,0,0-.75-.067c-.24,0-.48-.008-.72-.006l-.719.009-.373,0c-.051,0-.106,0-.158,0q0-.225,0-.449-.053-7.2-.105-14.4c.442.016.882.026,1.325.018l.739-.014a1.937,1.937,0,0,0,.765-.067c.192-.09.1-.362-.052-.426a.991.991,0,0,0-.4-.022l-.341.01-.739.022c-.5.014-.985.047-1.478.092a.178.178,0,0,0-.114.055.191.191,0,0,0-.111.185q.065,7.272.127,14.544c0,.151,0,.3,0,.454-.759-.01-1.518-.023-2.277-.019l-1.186.007a3.42,3.42,0,0,0-1.121.106.108.108,0,0,0,0,.2,3.408,3.408,0,0,0,1.121.121l1.186.024c.76.015,1.52.013,2.281.013q.027,3.121.054,6.24c.021,2.462-.016,4.938.127,7.4a.124.124,0,0,0,.051.1.181.181,0,0,0,.16.116c.888.058,1.776.072,2.665.09C275.779,100.249,275.779,99.8,275.5,99.789Z" transform="translate(-260.208 -65.91)" fill="#b345b5"/>
            <path id="Trazado_1065771" data-name="Trazado 1065771" d="M303.86,99.789c-.878-.023-1.753-.048-2.631-.031.093-2.4.022-4.811,0-7.212q-.023-3.116-.046-6.233c.051,0,.1,0,.154,0l.373.012c.24.008.48.017.72.023s.48.006.72.008a1.761,1.761,0,0,0,.75-.054.241.241,0,0,0,0-.4,1.769,1.769,0,0,0-.75-.067c-.24,0-.48-.008-.72-.006l-.72.009-.373,0c-.051,0-.106,0-.158,0q0-.225,0-.449-.053-7.2-.105-14.4c.442.016.882.026,1.325.018l.739-.014a1.937,1.937,0,0,0,.765-.067c.192-.09.1-.362-.052-.426a.991.991,0,0,0-.4-.022l-.341.01-.739.022c-.5.014-.985.047-1.478.092a.178.178,0,0,0-.114.055.191.191,0,0,0-.111.185q.065,7.272.127,14.544c0,.151,0,.3,0,.454-.759-.01-1.518-.023-2.277-.019l-1.186.007a3.421,3.421,0,0,0-1.121.106.108.108,0,0,0,0,.2,3.407,3.407,0,0,0,1.121.121l1.186.024c.76.015,1.52.013,2.281.013q.027,3.121.054,6.24c.021,2.462-.016,4.938.127,7.4a.124.124,0,0,0,.051.1.181.181,0,0,0,.16.116c.888.058,1.776.072,2.665.09C304.136,100.249,304.135,99.8,303.86,99.789Z" transform="translate(-272.887 -65.91)" fill="#b345b5"/>
            <path id="Trazado_1065772" data-name="Trazado 1065772" d="M311.068,62.215l-1.341.023a2.052,2.052,0,0,0-.378.038c-.072.022-.005,4.464-.014,5.336-.009.857.019,5.125.02,5.149,0,.114.212.093.212.1.032,0,5.981.007,8.966,0,.039-.025.029-1.841.03-2.683,0-.876,0-1.753-.007-2.628,0-.86.022-4.763-.045-5.187a.306.306,0,0,0-.012-.033.207.207,0,0,0-.042-.1c-1.4-.013-2.8-.018-4.191,0C313.193,62.238,312.13,62.228,311.068,62.215Z" transform="translate(-278.776 -62.215)" fill="#fff"/>
            <path id="Trazado_1065773" data-name="Trazado 1065773" d="M311.068,87.6l-1.341.023a2.052,2.052,0,0,0-.378.038c-.072.022-.005,4.464-.014,5.336-.009.857.019,5.125.02,5.149,0,.114.212.093.212.1.032,0,5.981.007,8.966,0,.039-.025.029-1.841.03-2.683,0-.876,0-1.753-.007-2.628,0-.86.022-4.763-.045-5.187a.305.305,0,0,0-.012-.033.2.2,0,0,0-.042-.1c-1.4-.013-2.8-.019-4.191,0C313.193,87.619,312.13,87.609,311.068,87.6Z" transform="translate(-278.776 -73.564)" fill="#fff"/>
            <path id="Trazado_1065774" data-name="Trazado 1065774" d="M311.068,112.977l-1.341.023a2.054,2.054,0,0,0-.378.037c-.072.022-.005,4.464-.014,5.336-.009.857.019,5.125.02,5.149,0,.114.212.093.212.1.032,0,5.981.006,8.966,0,.039-.025.029-1.841.03-2.683,0-.876,0-1.753-.007-2.628,0-.86.022-4.763-.045-5.187a.27.27,0,0,0-.012-.033.207.207,0,0,0-.042-.1c-1.4-.013-2.8-.019-4.191,0C313.193,113,312.13,112.99,311.068,112.977Z" transform="translate(-278.776 -84.913)" fill="#fff"/>
            <path id="Trazado_1065775" data-name="Trazado 1065775" d="M282.711,62.215l-1.341.023a2.052,2.052,0,0,0-.378.038c-.072.022,0,4.464-.014,5.336-.009.857.019,5.125.02,5.149,0,.114.212.093.212.1.032,0,5.981.007,8.966,0,.039-.025.029-1.841.03-2.683,0-.876-.005-1.753-.007-2.628,0-.86.022-4.763-.045-5.187a.294.294,0,0,0-.012-.033.208.208,0,0,0-.042-.1c-1.4-.013-2.8-.018-4.191,0C284.836,62.238,283.773,62.228,282.711,62.215Z" transform="translate(-266.096 -62.215)" fill="#fff"/>
            <path id="Trazado_1065776" data-name="Trazado 1065776" d="M282.711,87.6l-1.341.023a2.052,2.052,0,0,0-.378.038c-.072.022,0,4.464-.014,5.336-.009.857.019,5.125.02,5.149,0,.114.212.093.212.1.032,0,5.981.007,8.966,0,.039-.025.029-1.841.03-2.683,0-.876-.005-1.753-.007-2.628,0-.86.022-4.763-.045-5.187a.293.293,0,0,0-.012-.033.2.2,0,0,0-.042-.1c-1.4-.013-2.8-.019-4.191,0C284.836,87.619,283.773,87.609,282.711,87.6Z" transform="translate(-266.096 -73.564)" fill="#fff"/>
            <path id="Trazado_1065777" data-name="Trazado 1065777" d="M282.711,112.977,281.37,113a2.054,2.054,0,0,0-.378.037c-.072.022,0,4.464-.014,5.336-.009.857.019,5.125.02,5.149,0,.114.212.093.212.1.032,0,5.981.006,8.966,0,.039-.025.029-1.841.03-2.683,0-.876-.005-1.753-.007-2.628,0-.86.022-4.763-.045-5.187a.26.26,0,0,0-.012-.033.208.208,0,0,0-.042-.1c-1.4-.013-2.8-.019-4.191,0C284.836,113,283.773,112.99,282.711,112.977Z" transform="translate(-266.096 -84.913)" fill="#fff"/>
            <path id="Trazado_1065778" data-name="Trazado 1065778" d="M255.829,86.379l-1.341.029a1.659,1.659,0,0,0-.378.046c-.072.027,0,5.511-.015,6.589-.009,1.058.019,6.328.019,6.358,0,.141.212.116.212.119.032,0,5.981.008,8.966,0,.039-.032.029-2.273.03-3.313,0-1.082,0-2.163-.007-3.245,0-1.062.022-5.881-.045-6.4a.4.4,0,0,0-.012-.041.289.289,0,0,0-.042-.119c-1.4-.017-2.8-.023-4.191-.006C257.954,86.407,256.891,86.4,255.829,86.379Z" transform="translate(-254.076 -73.02)" fill="#fff"/>
          </g>
          <g id="Grupo_1232593" data-name="Grupo 1232593" transform="translate(48.924 8.63)">
            <path id="Trazado_1065779" data-name="Trazado 1065779" d="M348.1,57.153c-1.431.076-4.746.038-5.594.042-1.049.006-2.1.022-3.149.018-.629,0-1.709.007-2.443-.009a2.108,2.108,0,0,0-.028.4c0,.015,0,.571,0,1.508.71.022,1.883.011,2.544.014,1.026,0,2.051-.012,3.076-.018.863,0,4.343.038,5.631-.052q0-.53-.008-1.06C348.125,57.9,348.115,57.361,348.1,57.153Z" transform="translate(-336.883 -57.153)" fill="#d66ec0"/>
            <path id="Trazado_1065780" data-name="Trazado 1065780" d="M352.844,65.308c-.637.074-2.112.036-2.49.041-.467.006-.934.021-1.4.017-.28,0-.761.006-1.087-.009-.016.148-.012.393-.012.393v1.467c.316.021.838.011,1.132.013.457,0,.913-.012,1.369-.017.384,0,1.933.036,2.506-.051q0-.516,0-1.032C352.857,66.034,352.852,65.51,352.844,65.308Z" transform="translate(-341.789 -60.8)" fill="#7991d1"/>
            <path id="Trazado_1065781" data-name="Trazado 1065781" d="M360.814,70.938c-1.654.074-5.485.036-6.466.041-1.213.006-2.426.02-3.639.017-.727,0-1.976.006-2.823-.009a1.762,1.762,0,0,0-.032.393c0,.014,0,.555,0,1.467.82.021,2.177.011,2.941.013,1.185,0,2.37-.012,3.555-.017,1,0,5.019.036,6.508-.051q-.005-.516-.009-1.032C360.847,71.664,360.835,71.14,360.814,70.938Z" transform="translate(-341.788 -63.317)" fill="#fff"/>
            <path id="Trazado_1065782" data-name="Trazado 1065782" d="M360.814,76.277c-1.654.074-5.485.036-6.466.041-1.213.006-2.426.02-3.639.017-.727,0-1.976.006-2.823-.009a1.762,1.762,0,0,0-.032.393c0,.014,0,.555,0,1.467.82.021,2.177.011,2.941.013,1.185,0,2.37-.012,3.555-.017,1,0,5.019.036,6.508-.051q-.005-.516-.009-1.032C360.847,77,360.835,76.479,360.814,76.277Z" transform="translate(-341.788 -65.704)" fill="#fff"/>
            <path id="Trazado_1065783" data-name="Trazado 1065783" d="M360.814,81.617c-1.654.074-5.485.036-6.466.041-1.213.006-2.426.021-3.639.017-.727,0-1.976.007-2.823-.009a1.762,1.762,0,0,0-.032.393c0,.014,0,.555,0,1.467.82.021,2.177.011,2.941.013,1.185,0,2.37-.012,3.555-.017,1,0,5.019.036,6.508-.051q-.005-.516-.009-1.032C360.847,82.343,360.835,81.819,360.814,81.617Z" transform="translate(-341.788 -68.092)" fill="#fff"/>
            <path id="Trazado_1065784" data-name="Trazado 1065784" d="M364.668,65.308c-.746.074-2.475.036-2.917.041-.547.006-1.095.021-1.642.017-.328,0-.891.006-1.274-.009a3.857,3.857,0,0,0-.014.393c0,.014,0,.555,0,1.467.37.021.982.011,1.327.013.535,0,1.069-.012,1.6-.017.45,0,2.264.036,2.936-.051q0-.516,0-1.032C364.683,66.034,364.678,65.51,364.668,65.308Z" transform="translate(-346.693 -60.8)" fill="#7991d1"/>
            <path id="Trazado_1065785" data-name="Trazado 1065785" d="M348.1,91.065c-1.431.076-4.746.038-5.594.042-1.049.006-2.1.022-3.149.018-.629,0-1.709.007-2.443-.009a2.108,2.108,0,0,0-.028.4c0,.015,0,.571,0,1.508.71.022,1.883.011,2.544.014,1.026,0,2.051-.012,3.076-.017.863,0,4.343.038,5.631-.053q0-.53-.008-1.06C348.125,91.812,348.115,91.273,348.1,91.065Z" transform="translate(-336.883 -72.317)" fill="#d66ec0"/>
            <path id="Trazado_1065786" data-name="Trazado 1065786" d="M352.844,99.219c-.637.074-2.112.036-2.49.041-.467.006-.934.02-1.4.017-.28,0-.761.006-1.087-.009-.016.148-.012.393-.012.393v1.467c.316.021.838.011,1.132.013.457,0,.913-.012,1.369-.017.384,0,1.933.036,2.506-.051q0-.516,0-1.032C352.857,99.945,352.852,99.421,352.844,99.219Z" transform="translate(-341.789 -75.963)" fill="#7991d1"/>
            <path id="Trazado_1065787" data-name="Trazado 1065787" d="M360.814,104.85c-1.654.074-5.485.036-6.466.041-1.213.006-2.426.02-3.639.017-.727,0-1.976.007-2.823-.009a1.762,1.762,0,0,0-.032.393c0,.014,0,.555,0,1.467.82.021,2.177.011,2.941.013,1.185,0,2.37-.012,3.555-.017,1,0,5.019.036,6.508-.051q-.005-.516-.009-1.032C360.847,105.576,360.835,105.052,360.814,104.85Z" transform="translate(-341.788 -78.481)" fill="#fff"/>
            <path id="Trazado_1065788" data-name="Trazado 1065788" d="M360.814,110.189c-1.654.074-5.485.036-6.466.041-1.213.006-2.426.02-3.639.017-.727,0-1.976.006-2.823-.009a1.762,1.762,0,0,0-.032.393c0,.014,0,.555,0,1.467.82.021,2.177.011,2.941.013,1.185,0,2.37-.012,3.555-.017,1,0,5.019.036,6.508-.051q-.005-.516-.009-1.032C360.847,110.915,360.835,110.391,360.814,110.189Z" transform="translate(-341.788 -80.868)" fill="#fff"/>
            <path id="Trazado_1065789" data-name="Trazado 1065789" d="M360.814,115.528c-1.654.074-5.485.036-6.466.041-1.213.006-2.426.02-3.639.017-.727,0-1.976.006-2.823-.009a1.762,1.762,0,0,0-.032.393c0,.014,0,.555,0,1.467.82.021,2.177.011,2.941.013,1.185,0,2.37-.012,3.555-.017,1,0,5.019.036,6.508-.051q-.005-.516-.009-1.032C360.847,116.254,360.835,115.73,360.814,115.528Z" transform="translate(-341.788 -83.255)" fill="#fff"/>
            <path id="Trazado_1065790" data-name="Trazado 1065790" d="M364.668,99.219c-.746.074-2.475.036-2.917.041-.547.006-1.095.02-1.642.017-.328,0-.891.006-1.274-.009a3.857,3.857,0,0,0-.014.393c0,.014,0,.555,0,1.467.37.021.982.011,1.327.013.535,0,1.069-.012,1.6-.017.45,0,2.264.036,2.936-.051q0-.516,0-1.032C364.683,99.945,364.678,99.421,364.668,99.219Z" transform="translate(-346.693 -75.963)" fill="#7991d1"/>
            <path id="Trazado_1065791" data-name="Trazado 1065791" d="M348.1,124.977c-1.431.076-4.746.037-5.594.042-1.049.006-2.1.021-3.149.018-.629,0-1.709.007-2.443-.009a2.108,2.108,0,0,0-.028.4c0,.015,0,.571,0,1.508.71.022,1.883.011,2.544.014,1.026,0,2.051-.012,3.076-.017.863,0,4.343.038,5.631-.052q0-.53-.008-1.06C348.125,125.723,348.115,125.185,348.1,124.977Z" transform="translate(-336.883 -87.48)" fill="#d66ec0"/>
            <path id="Trazado_1065792" data-name="Trazado 1065792" d="M352.844,133.131c-.637.074-2.112.036-2.49.041-.467.006-.934.021-1.4.017-.28,0-.761.007-1.087-.009-.016.148-.012.393-.012.393v1.467c.316.021.838.011,1.132.013.457,0,.913-.011,1.369-.017.384,0,1.933.036,2.506-.051q0-.516,0-1.032C352.857,133.857,352.852,133.333,352.844,133.131Z" transform="translate(-341.789 -91.127)" fill="#7991d1"/>
            <path id="Trazado_1065793" data-name="Trazado 1065793" d="M364.668,133.131c-.746.074-2.475.036-2.917.041-.547.006-1.095.021-1.642.017-.328,0-.891.007-1.274-.009a3.857,3.857,0,0,0-.014.393c0,.014,0,.555,0,1.467.37.021.982.011,1.327.013.535,0,1.069-.011,1.6-.017.45,0,2.264.036,2.936-.051q0-.516,0-1.032C364.683,133.857,364.678,133.333,364.668,133.131Z" transform="translate(-346.693 -91.127)" fill="#7991d1"/>
          </g>
        </g>
      </g>
    </g>
  </g>
</svg>
