<svg xmlns="http://www.w3.org/2000/svg" xmlns:xlink="http://www.w3.org/1999/xlink" width="310" height="256" viewBox="0 0 310 256">
  <defs>
    <linearGradient id="linear-gradient" x1="0.5" x2="0.5" y2="1" gradientUnits="objectBoundingBox">
      <stop offset="0" stop-color="#903cdf"/>
      <stop offset="1" stop-color="#481e70"/>
    </linearGradient>
    <clipPath id="clip-path">
      <rect id="Rect치ngulo_426545" data-name="Rect치ngulo 426545" width="269" height="256" transform="translate(279.726 3789.391)" fill="#fff" stroke="#707070" stroke-width="1"/>
    </clipPath>
    <clipPath id="clip-path-2">
      <path id="Trazado_1070993" data-name="Trazado 1070993" d="M-642.91,1053.9a1.414,1.414,0,0,0-.237,1.72l.753,1.3a1.414,1.414,0,0,1-.092,1.555,18.913,18.913,0,0,0-1.278,1.94,1.414,1.414,0,0,1-1.391.7l-1.494-.176a1.414,1.414,0,0,0-1.487.9q-.378.983-.663,2a1.414,1.414,0,0,0,.655,1.609l1.3.752a1.414,1.414,0,0,1,.7,1.392,18.906,18.906,0,0,0-.136,2.319,1.414,1.414,0,0,1-.856,1.3l-1.382.595a1.414,1.414,0,0,0-.838,1.521q.164,1.041.425,2.062a1.414,1.414,0,0,0,1.371,1.066h1.5a1.414,1.414,0,0,1,1.3.857,18.9,18.9,0,0,0,1.042,2.077,1.414,1.414,0,0,1-.09,1.554l-.9,1.206a1.414,1.414,0,0,0,.035,1.737q.662.819,1.4,1.573a1.414,1.414,0,0,0,1.72.237l1.3-.753a1.414,1.414,0,0,1,1.555.092,18.9,18.9,0,0,0,1.94,1.278,1.414,1.414,0,0,1,.7,1.391c-.054.462-.12,1.019-.176,1.494a1.414,1.414,0,0,0,.9,1.487q.983.378,2,.663a1.414,1.414,0,0,0,1.609-.655l.752-1.3a1.414,1.414,0,0,1,1.392-.7,18.9,18.9,0,0,0,2.319.136,1.414,1.414,0,0,1,1.3.855l.594,1.382a1.414,1.414,0,0,0,1.521.838q1.041-.164,2.062-.425a1.414,1.414,0,0,0,1.066-1.371c0-.479,0-1.04,0-1.5a1.414,1.414,0,0,1,.857-1.3,18.912,18.912,0,0,0,2.076-1.042,1.414,1.414,0,0,1,1.554.09l1.206.9a1.414,1.414,0,0,0,1.737-.035q.819-.662,1.573-1.4a1.414,1.414,0,0,0,.237-1.72l-.753-1.3a1.414,1.414,0,0,1,.092-1.555,18.933,18.933,0,0,0,1.278-1.94,1.414,1.414,0,0,1,1.391-.7l1.494.176a1.414,1.414,0,0,0,1.487-.9q.378-.983.663-2a1.414,1.414,0,0,0-.655-1.609l-1.3-.752a1.414,1.414,0,0,1-.7-1.392,18.88,18.88,0,0,0,.136-2.319,1.414,1.414,0,0,1,.856-1.3l1.382-.595a1.414,1.414,0,0,0,.838-1.521q-.164-1.041-.425-2.062a1.414,1.414,0,0,0-1.371-1.066h-1.5a1.414,1.414,0,0,1-1.3-.857,18.913,18.913,0,0,0-1.042-2.077,1.414,1.414,0,0,1,.09-1.554l.9-1.206a1.414,1.414,0,0,0-.035-1.736q-.662-.819-1.4-1.573a1.414,1.414,0,0,0-1.72-.237l-1.3.753a1.414,1.414,0,0,1-1.555-.091,18.909,18.909,0,0,0-1.94-1.278,1.414,1.414,0,0,1-.7-1.391c.054-.462.12-1.019.176-1.494a1.414,1.414,0,0,0-.9-1.487q-.983-.378-2-.663a1.414,1.414,0,0,0-1.608.655l-.752,1.3a1.414,1.414,0,0,1-1.392.7,18.9,18.9,0,0,0-2.319-.136,1.414,1.414,0,0,1-1.3-.856l-.594-1.382a1.414,1.414,0,0,0-1.521-.838q-1.04.164-2.062.425a1.414,1.414,0,0,0-1.065,1.371c0,.479,0,1.04,0,1.5a1.414,1.414,0,0,1-.857,1.3,18.869,18.869,0,0,0-2.077,1.042,1.414,1.414,0,0,1-1.554-.09l-1.206-.9a1.414,1.414,0,0,0-1.737.035q-.819.662-1.573,1.4Zm12.634,12.621a4.465,4.465,0,0,0-.369,6.3,4.465,4.465,0,0,0,6.3.369,4.465,4.465,0,0,0,.369-6.3,4.465,4.465,0,0,0-6.3-.369Z" transform="translate(649.372 -1047.791)"/>
    </clipPath>
    <clipPath id="clip-path-3">
      <path id="Trazado_1070997" data-name="Trazado 1070997" d="M-376.26,687.179a1.09,1.09,0,0,0-.183,1.326l.58,1a1.09,1.09,0,0,1-.071,1.2,14.576,14.576,0,0,0-.985,1.5,1.089,1.089,0,0,1-1.072.539l-1.152-.136a1.09,1.09,0,0,0-1.146.692q-.291.758-.511,1.54a1.09,1.09,0,0,0,.5,1.24l1,.579a1.09,1.09,0,0,1,.538,1.073,14.586,14.586,0,0,0-.1,1.787,1.09,1.09,0,0,1-.659,1l-1.065.458a1.09,1.09,0,0,0-.646,1.172q.127.8.328,1.589a1.09,1.09,0,0,0,1.057.821h1.16a1.09,1.09,0,0,1,1,.66,14.563,14.563,0,0,0,.8,1.6,1.09,1.09,0,0,1-.07,1.2l-.694.93a1.09,1.09,0,0,0,.027,1.338q.51.631,1.079,1.213a1.09,1.09,0,0,0,1.326.183l1-.58a1.09,1.09,0,0,1,1.2.071,14.547,14.547,0,0,0,1.5.984,1.089,1.089,0,0,1,.539,1.072c-.042.356-.092.785-.136,1.152a1.09,1.09,0,0,0,.692,1.146q.758.291,1.54.511a1.09,1.09,0,0,0,1.24-.5l.579-1a1.09,1.09,0,0,1,1.073-.538,14.58,14.58,0,0,0,1.787.1,1.089,1.089,0,0,1,1,.659l.458,1.065a1.09,1.09,0,0,0,1.172.646q.8-.126,1.589-.328a1.09,1.09,0,0,0,.821-1.057c0-.369,0-.8,0-1.16a1.09,1.09,0,0,1,.66-1,14.573,14.573,0,0,0,1.6-.8,1.09,1.09,0,0,1,1.2.07l.929.694a1.09,1.09,0,0,0,1.338-.027q.631-.51,1.213-1.079a1.09,1.09,0,0,0,.183-1.326l-.581-1a1.09,1.09,0,0,1,.071-1.2,14.563,14.563,0,0,0,.985-1.5,1.089,1.089,0,0,1,1.072-.539l1.152.136a1.09,1.09,0,0,0,1.146-.692q.292-.758.511-1.54a1.09,1.09,0,0,0-.5-1.24l-1-.579a1.09,1.09,0,0,1-.538-1.073,14.562,14.562,0,0,0,.1-1.788,1.09,1.09,0,0,1,.659-1l1.065-.458a1.09,1.09,0,0,0,.646-1.172q-.126-.8-.328-1.589a1.09,1.09,0,0,0-1.057-.821h-1.16a1.09,1.09,0,0,1-1-.66,14.567,14.567,0,0,0-.8-1.6,1.09,1.09,0,0,1,.07-1.2l.694-.93a1.09,1.09,0,0,0-.027-1.338q-.511-.631-1.079-1.212a1.09,1.09,0,0,0-1.326-.183l-1,.58a1.09,1.09,0,0,1-1.2-.071,14.546,14.546,0,0,0-1.5-.985,1.09,1.09,0,0,1-.539-1.072c.042-.356.093-.785.136-1.152a1.09,1.09,0,0,0-.692-1.146q-.758-.291-1.54-.511a1.09,1.09,0,0,0-1.24.5l-.579,1a1.09,1.09,0,0,1-1.073.538,14.578,14.578,0,0,0-1.787-.1,1.089,1.089,0,0,1-1-.659l-.458-1.065a1.09,1.09,0,0,0-1.172-.646q-.8.126-1.589.328a1.09,1.09,0,0,0-.821,1.057c0,.369,0,.8,0,1.16a1.09,1.09,0,0,1-.66,1,14.559,14.559,0,0,0-1.6.8,1.09,1.09,0,0,1-1.2-.07l-.929-.694a1.09,1.09,0,0,0-1.338.027q-.631.51-1.212,1.079Zm9.737,9.727a3.441,3.441,0,0,0-.284,4.856,3.441,3.441,0,0,0,4.856.284,3.441,3.441,0,0,0,.284-4.856,3.441,3.441,0,0,0-4.856-.284Z" transform="translate(381.24 -682.474)"/>
    </clipPath>
    <clipPath id="clip-path-4">
      <path id="Trazado_1071001" data-name="Trazado 1071001" d="M-261.034,1364.587a2.085,2.085,0,0,0-.35,2.537l1.111,1.921a2.085,2.085,0,0,1-.135,2.293,27.83,27.83,0,0,0-1.884,2.861,2.085,2.085,0,0,1-2.052,1.03l-2.2-.26a2.085,2.085,0,0,0-2.192,1.325q-.558,1.45-.977,2.947a2.085,2.085,0,0,0,.966,2.372l1.922,1.108a2.085,2.085,0,0,1,1.029,2.053,27.871,27.871,0,0,0-.2,3.42,2.085,2.085,0,0,1-1.262,1.918l-2.038.876a2.085,2.085,0,0,0-1.236,2.243q.242,1.534.627,3.041a2.085,2.085,0,0,0,2.022,1.571h2.219a2.085,2.085,0,0,1,1.918,1.263,27.879,27.879,0,0,0,1.536,3.062,2.085,2.085,0,0,1-.133,2.292l-1.327,1.778a2.085,2.085,0,0,0,.051,2.561q.977,1.208,2.063,2.32a2.085,2.085,0,0,0,2.537.35l1.921-1.111a2.085,2.085,0,0,1,2.293.135,27.887,27.887,0,0,0,2.861,1.884,2.085,2.085,0,0,1,1.03,2.052c-.08.681-.177,1.5-.26,2.2a2.085,2.085,0,0,0,1.325,2.192q1.45.558,2.947.977a2.085,2.085,0,0,0,2.372-.965l1.108-1.922a2.085,2.085,0,0,1,2.053-1.029,27.889,27.889,0,0,0,3.42.2,2.084,2.084,0,0,1,1.918,1.261l.877,2.038a2.085,2.085,0,0,0,2.243,1.236q1.534-.242,3.041-.627a2.085,2.085,0,0,0,1.571-2.022c0-.706,0-1.533,0-2.219a2.085,2.085,0,0,1,1.263-1.918,27.882,27.882,0,0,0,3.062-1.536,2.085,2.085,0,0,1,2.292.133l1.778,1.327a2.085,2.085,0,0,0,2.561-.051q1.208-.977,2.32-2.064a2.085,2.085,0,0,0,.35-2.537l-1.111-1.921a2.085,2.085,0,0,1,.135-2.292,27.849,27.849,0,0,0,1.884-2.861A2.085,2.085,0,0,1-211.72,1401l2.2.26a2.085,2.085,0,0,0,2.192-1.324q.558-1.45.977-2.947a2.085,2.085,0,0,0-.966-2.372l-1.922-1.108a2.085,2.085,0,0,1-1.029-2.053,27.864,27.864,0,0,0,.2-3.42,2.085,2.085,0,0,1,1.262-1.918l2.038-.877a2.085,2.085,0,0,0,1.236-2.243q-.242-1.534-.627-3.041a2.085,2.085,0,0,0-2.022-1.571H-210.4a2.085,2.085,0,0,1-1.918-1.263,27.864,27.864,0,0,0-1.536-3.062,2.085,2.085,0,0,1,.133-2.292l1.327-1.778a2.085,2.085,0,0,0-.051-2.561q-.977-1.208-2.063-2.32a2.085,2.085,0,0,0-2.537-.35l-1.921,1.111a2.085,2.085,0,0,1-2.293-.135,27.824,27.824,0,0,0-2.861-1.884,2.085,2.085,0,0,1-1.031-2.052c.08-.681.177-1.5.26-2.2a2.085,2.085,0,0,0-1.325-2.192q-1.45-.558-2.947-.977a2.085,2.085,0,0,0-2.372.966l-1.108,1.922a2.085,2.085,0,0,1-2.053,1.029,27.889,27.889,0,0,0-3.42-.2,2.085,2.085,0,0,1-1.918-1.262c-.271-.63-.6-1.389-.877-2.038a2.085,2.085,0,0,0-2.243-1.236q-1.534.242-3.041.627a2.085,2.085,0,0,0-1.571,2.022c0,.706,0,1.533,0,2.219a2.085,2.085,0,0,1-1.263,1.918,27.869,27.869,0,0,0-3.062,1.536,2.085,2.085,0,0,1-2.292-.134l-1.778-1.327a2.085,2.085,0,0,0-2.561.051q-1.208.977-2.32,2.064Zm18.629,18.61a6.584,6.584,0,0,0-.544,9.291,6.584,6.584,0,0,0,9.291.544,6.584,6.584,0,0,0,.544-9.291,6.585,6.585,0,0,0-9.291-.544Z" transform="translate(270.562 -1355.584)"/>
    </clipPath>
    <clipPath id="clip-path-5">
      <path id="Trazado_1071005" data-name="Trazado 1071005" d="M1918.256-669.76a1.414,1.414,0,0,1,1.368,1.07l.366,1.46a1.414,1.414,0,0,0,1.148,1.052,18.921,18.921,0,0,1,2.268.5,1.414,1.414,0,0,0,1.485-.467l.95-1.167a1.414,1.414,0,0,1,1.693-.39q.956.442,1.867.974a1.414,1.414,0,0,1,.649,1.611l-.413,1.447a1.414,1.414,0,0,0,.468,1.485,18.924,18.924,0,0,1,1.712,1.57,1.413,1.413,0,0,0,1.52.338l1.406-.535a1.414,1.414,0,0,1,1.661.509q.607.861,1.13,1.777a1.414,1.414,0,0,1-.243,1.72l-1.081,1.047a1.414,1.414,0,0,0-.337,1.52,18.961,18.961,0,0,1,.7,2.216,1.414,1.414,0,0,0,1.147,1.053l1.486.239a1.414,1.414,0,0,1,1.184,1.271q.094,1.049.09,2.1a1.414,1.414,0,0,1-1.07,1.368l-1.459.366a1.414,1.414,0,0,0-1.053,1.148,18.876,18.876,0,0,1-.5,2.268,1.414,1.414,0,0,0,.467,1.485l1.167.95a1.414,1.414,0,0,1,.39,1.693q-.443.956-.974,1.867a1.414,1.414,0,0,1-1.611.65l-1.447-.413a1.414,1.414,0,0,0-1.486.468,18.878,18.878,0,0,1-1.57,1.712,1.413,1.413,0,0,0-.338,1.52l.536,1.406a1.414,1.414,0,0,1-.509,1.661q-.861.606-1.777,1.13a1.414,1.414,0,0,1-1.72-.243l-1.047-1.081a1.414,1.414,0,0,0-1.521-.337,18.907,18.907,0,0,1-2.216.7,1.414,1.414,0,0,0-1.053,1.147c-.074.459-.163,1.013-.239,1.486a1.414,1.414,0,0,1-1.271,1.184q-1.049.095-2.1.091a1.414,1.414,0,0,1-1.368-1.07l-.366-1.459a1.414,1.414,0,0,0-1.148-1.052,18.894,18.894,0,0,1-2.268-.5,1.414,1.414,0,0,0-1.485.467l-.95,1.167a1.414,1.414,0,0,1-1.693.39q-.956-.443-1.867-.973a1.414,1.414,0,0,1-.65-1.611l.413-1.447a1.414,1.414,0,0,0-.468-1.485,18.886,18.886,0,0,1-1.712-1.57,1.414,1.414,0,0,0-1.52-.338l-1.406.536a1.414,1.414,0,0,1-1.661-.509q-.607-.861-1.13-1.777a1.414,1.414,0,0,1,.243-1.72l1.081-1.047a1.414,1.414,0,0,0,.338-1.52,18.883,18.883,0,0,1-.7-2.216,1.414,1.414,0,0,0-1.147-1.053l-1.486-.239a1.414,1.414,0,0,1-1.184-1.271q-.095-1.049-.09-2.1a1.414,1.414,0,0,1,1.07-1.368l1.459-.366a1.414,1.414,0,0,0,1.052-1.148,18.953,18.953,0,0,1,.5-2.268,1.414,1.414,0,0,0-.467-1.485l-1.167-.95a1.414,1.414,0,0,1-.39-1.693q.443-.956.973-1.867a1.414,1.414,0,0,1,1.611-.65l1.447.413a1.414,1.414,0,0,0,1.485-.468A18.887,18.887,0,0,1,1905-661.1a1.414,1.414,0,0,0,.338-1.52l-.536-1.406a1.414,1.414,0,0,1,.509-1.661q.861-.606,1.776-1.13a1.414,1.414,0,0,1,1.72.243l1.047,1.081a1.414,1.414,0,0,0,1.52.337,18.893,18.893,0,0,1,2.216-.7,1.413,1.413,0,0,0,1.053-1.147c.074-.459.163-1.013.24-1.486a1.414,1.414,0,0,1,1.271-1.184q1.05-.095,2.1-.09Zm-.284,17.856a4.465,4.465,0,0,1,4.651,4.267,4.465,4.465,0,0,1-4.267,4.651,4.465,4.465,0,0,1-4.651-4.267,4.465,4.465,0,0,1,4.267-4.651Z" transform="translate(-1895.849 669.76)"/>
    </clipPath>
    <clipPath id="clip-path-6">
      <path id="Trazado_1071009" data-name="Trazado 1071009" d="M1531.085-770.61a1.09,1.09,0,0,1,1.054.825l.282,1.125a1.09,1.09,0,0,0,.885.811,14.576,14.576,0,0,1,1.748.388,1.089,1.089,0,0,0,1.145-.36l.732-.9a1.09,1.09,0,0,1,1.3-.3q.737.341,1.439.75a1.09,1.09,0,0,1,.5,1.241l-.318,1.115a1.09,1.09,0,0,0,.361,1.145,14.563,14.563,0,0,1,1.319,1.21,1.09,1.09,0,0,0,1.171.261l1.084-.413a1.09,1.09,0,0,1,1.28.392q.468.664.871,1.369a1.09,1.09,0,0,1-.187,1.325l-.833.807a1.09,1.09,0,0,0-.26,1.172,14.579,14.579,0,0,1,.538,1.708,1.09,1.09,0,0,0,.884.811l1.145.185a1.09,1.09,0,0,1,.913.979q.073.809.07,1.621a1.09,1.09,0,0,1-.825,1.054l-1.125.282a1.09,1.09,0,0,0-.811.885,14.546,14.546,0,0,1-.388,1.748,1.089,1.089,0,0,0,.36,1.145l.9.732a1.09,1.09,0,0,1,.3,1.3q-.341.737-.75,1.439a1.09,1.09,0,0,1-1.241.5l-1.115-.318a1.09,1.09,0,0,0-1.145.361,14.573,14.573,0,0,1-1.21,1.32,1.089,1.089,0,0,0-.261,1.171l.413,1.084a1.09,1.09,0,0,1-.392,1.28q-.664.467-1.369.871a1.09,1.09,0,0,1-1.325-.187l-.807-.833a1.09,1.09,0,0,0-1.172-.26,14.585,14.585,0,0,1-1.708.538,1.089,1.089,0,0,0-.811.884c-.057.354-.126.78-.185,1.145a1.09,1.09,0,0,1-.979.912q-.809.073-1.621.07a1.09,1.09,0,0,1-1.054-.825l-.282-1.125a1.09,1.09,0,0,0-.885-.811,14.582,14.582,0,0,1-1.748-.388,1.089,1.089,0,0,0-1.145.36l-.732.9a1.09,1.09,0,0,1-1.3.3q-.737-.341-1.439-.75a1.089,1.089,0,0,1-.5-1.241l.318-1.115a1.09,1.09,0,0,0-.361-1.145,14.564,14.564,0,0,1-1.32-1.21,1.09,1.09,0,0,0-1.171-.261l-1.084.413a1.09,1.09,0,0,1-1.28-.392q-.467-.664-.871-1.369a1.09,1.09,0,0,1,.187-1.325l.833-.807a1.09,1.09,0,0,0,.26-1.172,14.535,14.535,0,0,1-.538-1.708,1.09,1.09,0,0,0-.884-.812l-1.145-.185a1.09,1.09,0,0,1-.913-.979q-.073-.809-.07-1.621a1.09,1.09,0,0,1,.825-1.054l1.125-.282a1.09,1.09,0,0,0,.811-.885,14.522,14.522,0,0,1,.388-1.748,1.09,1.09,0,0,0-.36-1.145l-.9-.732a1.09,1.09,0,0,1-.3-1.3q.341-.737.75-1.439a1.09,1.09,0,0,1,1.241-.5l1.115.318a1.09,1.09,0,0,0,1.145-.361,14.557,14.557,0,0,1,1.21-1.32,1.09,1.09,0,0,0,.261-1.171l-.413-1.084a1.09,1.09,0,0,1,.392-1.28q.664-.467,1.369-.871a1.09,1.09,0,0,1,1.325.187l.807.833a1.09,1.09,0,0,0,1.172.26,14.575,14.575,0,0,1,1.708-.538,1.09,1.09,0,0,0,.812-.884l.185-1.145a1.09,1.09,0,0,1,.979-.912q.808-.073,1.621-.07Zm-.22,13.762a3.441,3.441,0,0,1,3.585,3.288,3.442,3.442,0,0,1-3.288,3.585,3.441,3.441,0,0,1-3.585-3.288,3.442,3.442,0,0,1,3.288-3.585Z" transform="translate(-1513.816 770.61)"/>
    </clipPath>
    <clipPath id="clip-path-7">
      <path id="Trazado_1071013" data-name="Trazado 1071013" d="M1737.162-132.874a2.085,2.085,0,0,1,2.017,1.578c.172.685.373,1.487.54,2.152a2.086,2.086,0,0,0,1.693,1.552,27.872,27.872,0,0,1,3.344.743,2.085,2.085,0,0,0,2.19-.688l1.4-1.721a2.085,2.085,0,0,1,2.5-.575q1.41.653,2.753,1.435a2.085,2.085,0,0,1,.958,2.375l-.609,2.134a2.085,2.085,0,0,0,.69,2.19,27.866,27.866,0,0,1,2.525,2.315,2.084,2.084,0,0,0,2.241.5l2.074-.79a2.085,2.085,0,0,1,2.449.75q.894,1.27,1.667,2.62a2.085,2.085,0,0,1-.358,2.536l-1.594,1.544a2.085,2.085,0,0,0-.5,2.242,27.885,27.885,0,0,1,1.029,3.267,2.085,2.085,0,0,0,1.691,1.553l2.191.353a2.085,2.085,0,0,1,1.746,1.874q.14,1.547.133,3.1a2.085,2.085,0,0,1-1.578,2.017l-2.152.54a2.085,2.085,0,0,0-1.552,1.693,27.881,27.881,0,0,1-.743,3.344,2.084,2.084,0,0,0,.688,2.19l1.721,1.4a2.085,2.085,0,0,1,.575,2.5q-.653,1.409-1.435,2.753a2.085,2.085,0,0,1-2.375.958l-2.134-.608a2.085,2.085,0,0,0-2.19.69,27.86,27.86,0,0,1-2.315,2.525,2.084,2.084,0,0,0-.5,2.241c.244.641.538,1.413.79,2.074a2.085,2.085,0,0,1-.75,2.449q-1.27.894-2.62,1.666a2.085,2.085,0,0,1-2.536-.358l-1.544-1.594a2.085,2.085,0,0,0-2.242-.5,27.889,27.889,0,0,1-3.267,1.029,2.085,2.085,0,0,0-1.553,1.691c-.109.677-.241,1.493-.353,2.191a2.085,2.085,0,0,1-1.874,1.746q-1.547.14-3.1.133a2.085,2.085,0,0,1-2.017-1.578c-.172-.685-.373-1.487-.54-2.152a2.085,2.085,0,0,0-1.693-1.552,27.872,27.872,0,0,1-3.344-.743,2.084,2.084,0,0,0-2.19.688l-1.4,1.721a2.085,2.085,0,0,1-2.5.575q-1.409-.653-2.753-1.435a2.085,2.085,0,0,1-.958-2.375l.609-2.134a2.085,2.085,0,0,0-.69-2.19,27.864,27.864,0,0,1-2.525-2.315,2.085,2.085,0,0,0-2.241-.5l-2.074.79a2.085,2.085,0,0,1-2.449-.75q-.894-1.27-1.667-2.62a2.085,2.085,0,0,1,.358-2.536l1.594-1.544a2.085,2.085,0,0,0,.5-2.242,27.862,27.862,0,0,1-1.029-3.267,2.085,2.085,0,0,0-1.691-1.553L1706-95.13A2.085,2.085,0,0,1,1704.255-97q-.14-1.547-.133-3.1a2.085,2.085,0,0,1,1.578-2.017l2.152-.54a2.085,2.085,0,0,0,1.552-1.693,27.857,27.857,0,0,1,.743-3.344,2.085,2.085,0,0,0-.688-2.19l-1.721-1.4a2.085,2.085,0,0,1-.575-2.5q.652-1.41,1.435-2.753a2.085,2.085,0,0,1,2.375-.958l2.134.608a2.085,2.085,0,0,0,2.19-.69,27.884,27.884,0,0,1,2.315-2.525,2.085,2.085,0,0,0,.5-2.241c-.244-.641-.538-1.413-.79-2.074a2.085,2.085,0,0,1,.75-2.449q1.27-.894,2.62-1.666a2.085,2.085,0,0,1,2.536.358l1.544,1.594a2.085,2.085,0,0,0,2.242.5,27.872,27.872,0,0,1,3.268-1.029,2.085,2.085,0,0,0,1.553-1.691c.109-.677.241-1.493.353-2.191a2.085,2.085,0,0,1,1.874-1.746q1.547-.14,3.1-.133Zm-.419,26.329a6.584,6.584,0,0,1,6.858,6.291,6.584,6.584,0,0,1-6.291,6.858,6.584,6.584,0,0,1-6.858-6.291,6.584,6.584,0,0,1,6.291-6.858Z" transform="translate(-1704.122 132.874)"/>
    </clipPath>
    <clipPath id="clip-path-8">
      <path id="Trazado_1071017" data-name="Trazado 1071017" d="M276.193-598.161V-400.89a13.282,13.282,0,0,1-13.276,13.276H157.838a13.282,13.282,0,0,1-13.276-13.276V-598.161a13.282,13.282,0,0,1,13.276-13.276H262.917a13.283,13.283,0,0,1,13.277,13.276Z" transform="translate(-144.562 611.437)"/>
    </clipPath>
    <clipPath id="clip-path-10">
      <path id="Trazado_1071023" data-name="Trazado 1071023" d="M362.275-422.232V-266a11.61,11.61,0,0,1-11.6,11.6H258.819a11.61,11.61,0,0,1-11.6-11.6V-422.232a11.61,11.61,0,0,1,11.6-11.6H350.67a11.611,11.611,0,0,1,11.605,11.6Z" transform="translate(-247.214 433.837)"/>
    </clipPath>
    <clipPath id="clip-path-11">
      <path id="Trazado_1071027" data-name="Trazado 1071027" d="M-348.522-534.884v98.614a5.2,5.2,0,0,1-5.2,5.2H-421.3a5.2,5.2,0,0,1-5.2-5.2v-98.614a5.2,5.2,0,0,1,5.2-5.2h67.581a5.2,5.2,0,0,1,5.2,5.2Z" transform="translate(426.493 540.079)"/>
    </clipPath>
    <clipPath id="clip-path-19">
      <path id="Trazado_1071045" data-name="Trazado 1071045" d="M1458.418,644.779v98.614a5.2,5.2,0,0,1-5.2,5.2h-67.581a5.2,5.2,0,0,1-5.2-5.2V644.779a5.2,5.2,0,0,1,5.2-5.2h67.581a5.2,5.2,0,0,1,5.2,5.2Z" transform="translate(-1380.447 -639.584)"/>
    </clipPath>
    <clipPath id="clip-path-26">
      <path id="Trazado_1071062" data-name="Trazado 1071062" d="M-80.554,639.584a13.8,13.8,0,0,1,13.791,13.791,13.8,13.8,0,0,1-13.791,13.791,13.8,13.8,0,0,1-13.791-13.791,13.8,13.8,0,0,1,13.791-13.791Z" transform="translate(94.345 -639.584)"/>
    </clipPath>
    <clipPath id="clip-path-29">
      <path id="Trazado_1071071" data-name="Trazado 1071071" d="M1706.394,468.716a13.791,13.791,0,1,1-13.791,13.791,13.8,13.8,0,0,1,13.791-13.791Z" transform="translate(-1692.603 -468.716)"/>
    </clipPath>
    <clipPath id="clip-path-32">
      <path id="Trazado_1071080" data-name="Trazado 1071080" d="M2111.442,1055.24a5.206,5.206,0,0,1,3.576,1.4,4.661,4.661,0,0,1,1.481,3.385v32.334a4.661,4.661,0,0,1-1.481,3.385,5.205,5.205,0,0,1-3.576,1.4h-34.159a5.206,5.206,0,0,1-3.576-1.4,4.661,4.661,0,0,1-1.481-3.385v-32.334a4.661,4.661,0,0,1,1.481-3.385,5.206,5.206,0,0,1,3.576-1.4Z" transform="translate(-2072.226 -1055.24)"/>
    </clipPath>
    <clipPath id="clip-path-35">
      <path id="Trazado_1071088" data-name="Trazado 1071088" d="M-661.539-14.82a5.205,5.205,0,0,1,3.576,1.4,4.661,4.661,0,0,1,1.481,3.385V22.3a4.661,4.661,0,0,1-1.481,3.385,5.205,5.205,0,0,1-3.576,1.4H-695.7a5.205,5.205,0,0,1-3.576-1.4,4.661,4.661,0,0,1-1.481-3.385V-10.033a4.661,4.661,0,0,1,1.481-3.385,5.205,5.205,0,0,1,3.576-1.4Z" transform="translate(700.755 14.82)"/>
    </clipPath>
  </defs>
  <g id="Grupo_1236698" data-name="Grupo 1236698" transform="translate(-280 -3806)">
    <rect id="Rect치ngulo_422680" data-name="Rect치ngulo 422680" width="310" height="180" rx="13" transform="translate(280 3844)" fill="url(#linear-gradient)"/>
    <g id="Enmascarar_grupo_1211626" data-name="Enmascarar grupo 1211626" transform="translate(21.274 16.609)" clip-path="url(#clip-path)">
      <g id="Grupo_1236697" data-name="Grupo 1236697" transform="translate(280.32 3800.499)">
        <path id="Trazado_1070991" data-name="Trazado 1070991" d="M-642.91,1053.9a1.414,1.414,0,0,0-.237,1.72l.753,1.3a1.414,1.414,0,0,1-.092,1.555,18.913,18.913,0,0,0-1.278,1.94,1.414,1.414,0,0,1-1.391.7l-1.494-.176a1.414,1.414,0,0,0-1.487.9q-.378.983-.663,2a1.414,1.414,0,0,0,.655,1.609l1.3.752a1.414,1.414,0,0,1,.7,1.392,18.906,18.906,0,0,0-.136,2.319,1.414,1.414,0,0,1-.856,1.3l-1.382.595a1.414,1.414,0,0,0-.838,1.521q.164,1.041.425,2.062a1.414,1.414,0,0,0,1.371,1.066h1.5a1.414,1.414,0,0,1,1.3.857,18.9,18.9,0,0,0,1.042,2.077,1.414,1.414,0,0,1-.09,1.554l-.9,1.206a1.414,1.414,0,0,0,.035,1.737q.662.819,1.4,1.573a1.414,1.414,0,0,0,1.72.237l1.3-.753a1.414,1.414,0,0,1,1.555.092,18.9,18.9,0,0,0,1.94,1.278,1.414,1.414,0,0,1,.7,1.391c-.054.462-.12,1.019-.176,1.494a1.414,1.414,0,0,0,.9,1.487q.983.378,2,.663a1.414,1.414,0,0,0,1.609-.655l.752-1.3a1.414,1.414,0,0,1,1.392-.7,18.9,18.9,0,0,0,2.319.136,1.414,1.414,0,0,1,1.3.855l.594,1.382a1.414,1.414,0,0,0,1.521.838q1.041-.164,2.062-.425a1.414,1.414,0,0,0,1.066-1.371c0-.479,0-1.04,0-1.5a1.414,1.414,0,0,1,.857-1.3,18.912,18.912,0,0,0,2.076-1.042,1.414,1.414,0,0,1,1.554.09l1.206.9a1.414,1.414,0,0,0,1.737-.035q.819-.662,1.573-1.4a1.414,1.414,0,0,0,.237-1.72l-.753-1.3a1.414,1.414,0,0,1,.092-1.555,18.933,18.933,0,0,0,1.278-1.94,1.414,1.414,0,0,1,1.391-.7l1.494.176a1.414,1.414,0,0,0,1.487-.9q.378-.983.663-2a1.414,1.414,0,0,0-.655-1.609l-1.3-.752a1.414,1.414,0,0,1-.7-1.392,18.88,18.88,0,0,0,.136-2.319,1.414,1.414,0,0,1,.856-1.3l1.382-.595a1.414,1.414,0,0,0,.838-1.521q-.164-1.041-.425-2.062a1.414,1.414,0,0,0-1.371-1.066h-1.5a1.414,1.414,0,0,1-1.3-.857,18.913,18.913,0,0,0-1.042-2.077,1.414,1.414,0,0,1,.09-1.554l.9-1.206a1.414,1.414,0,0,0-.035-1.736q-.662-.819-1.4-1.573a1.414,1.414,0,0,0-1.72-.237l-1.3.753a1.414,1.414,0,0,1-1.555-.091,18.909,18.909,0,0,0-1.94-1.278,1.414,1.414,0,0,1-.7-1.391c.054-.462.12-1.019.176-1.494a1.414,1.414,0,0,0-.9-1.487q-.983-.378-2-.663a1.414,1.414,0,0,0-1.608.655l-.752,1.3a1.414,1.414,0,0,1-1.392.7,18.9,18.9,0,0,0-2.319-.136,1.414,1.414,0,0,1-1.3-.856l-.594-1.382a1.414,1.414,0,0,0-1.521-.838q-1.04.164-2.062.425a1.414,1.414,0,0,0-1.065,1.371c0,.479,0,1.04,0,1.5a1.414,1.414,0,0,1-.857,1.3,18.869,18.869,0,0,0-2.077,1.042,1.414,1.414,0,0,1-1.554-.09l-1.206-.9a1.414,1.414,0,0,0-1.737.035q-.819.662-1.573,1.4Zm12.634,12.621a4.465,4.465,0,0,0-.369,6.3,4.465,4.465,0,0,0,6.3.369,4.465,4.465,0,0,0,.369-6.3,4.465,4.465,0,0,0-6.3-.369Z" transform="translate(653.519 -896.327)" fill="#6f9dc5" stroke="#707070" stroke-width="1" fill-rule="evenodd"/>
        <g id="Grupo_1236648" data-name="Grupo 1236648" transform="translate(4.147 151.464)">
          <g id="Grupo_1236647" data-name="Grupo 1236647" transform="translate(0 0)" clip-path="url(#clip-path-2)">
            <path id="Trazado_1070992" data-name="Trazado 1070992" d="M-647.431,1080.306a1.414,1.414,0,0,0-.237,1.72l.753,1.3a1.414,1.414,0,0,1-.092,1.555,18.9,18.9,0,0,0-1.278,1.94,1.414,1.414,0,0,1-1.391.7l-1.494-.176a1.414,1.414,0,0,0-1.487.9q-.378.983-.663,2a1.414,1.414,0,0,0,.655,1.609l1.3.752a1.414,1.414,0,0,1,.7,1.392,18.9,18.9,0,0,0-.136,2.319,1.414,1.414,0,0,1-.856,1.3l-1.382.594a1.414,1.414,0,0,0-.838,1.521q.164,1.041.425,2.062a1.414,1.414,0,0,0,1.371,1.066h1.5a1.414,1.414,0,0,1,1.3.857,18.9,18.9,0,0,0,1.042,2.077,1.414,1.414,0,0,1-.09,1.554l-.9,1.206a1.414,1.414,0,0,0,.035,1.737q.662.819,1.4,1.573a1.414,1.414,0,0,0,1.72.237l1.3-.753a1.414,1.414,0,0,1,1.555.092,18.922,18.922,0,0,0,1.94,1.277,1.414,1.414,0,0,1,.7,1.391c-.054.462-.12,1.019-.176,1.494a1.414,1.414,0,0,0,.9,1.487q.983.378,2,.663a1.414,1.414,0,0,0,1.609-.655l.752-1.3a1.414,1.414,0,0,1,1.392-.7,18.952,18.952,0,0,0,2.319.136,1.413,1.413,0,0,1,1.3.855l.594,1.382a1.414,1.414,0,0,0,1.521.838q1.041-.164,2.062-.425a1.414,1.414,0,0,0,1.066-1.371c0-.479,0-1.039,0-1.5a1.414,1.414,0,0,1,.857-1.3,18.923,18.923,0,0,0,2.076-1.042,1.414,1.414,0,0,1,1.554.09l1.206.9a1.414,1.414,0,0,0,1.737-.035q.819-.662,1.573-1.4a1.414,1.414,0,0,0,.237-1.72l-.753-1.3a1.414,1.414,0,0,1,.092-1.555,18.9,18.9,0,0,0,1.278-1.94,1.413,1.413,0,0,1,1.391-.7l1.494.176a1.414,1.414,0,0,0,1.487-.9q.378-.983.663-2a1.414,1.414,0,0,0-.655-1.608l-1.3-.751a1.414,1.414,0,0,1-.7-1.392,18.892,18.892,0,0,0,.136-2.319,1.414,1.414,0,0,1,.856-1.3l1.382-.595a1.414,1.414,0,0,0,.838-1.521q-.164-1.041-.425-2.062a1.414,1.414,0,0,0-1.371-1.065h-1.5a1.414,1.414,0,0,1-1.3-.857,18.913,18.913,0,0,0-1.042-2.077,1.414,1.414,0,0,1,.09-1.554l.9-1.206a1.414,1.414,0,0,0-.035-1.736q-.662-.819-1.4-1.573a1.414,1.414,0,0,0-1.72-.237l-1.3.753a1.414,1.414,0,0,1-1.555-.092,18.913,18.913,0,0,0-1.94-1.277,1.414,1.414,0,0,1-.7-1.391c.054-.462.12-1.019.176-1.495a1.414,1.414,0,0,0-.9-1.486q-.983-.378-2-.663a1.414,1.414,0,0,0-1.608.655l-.752,1.3a1.414,1.414,0,0,1-1.392.7,18.879,18.879,0,0,0-2.319-.136,1.414,1.414,0,0,1-1.3-.856l-.594-1.382a1.414,1.414,0,0,0-1.521-.838q-1.04.164-2.062.425a1.414,1.414,0,0,0-1.066,1.371c0,.479,0,1.04,0,1.5a1.414,1.414,0,0,1-.857,1.3,18.87,18.87,0,0,0-2.077,1.042,1.414,1.414,0,0,1-1.554-.09l-1.206-.9a1.414,1.414,0,0,0-1.737.035q-.819.662-1.573,1.4Zm12.634,12.622a4.465,4.465,0,0,0-.369,6.3,4.465,4.465,0,0,0,6.3.369,4.465,4.465,0,0,0,.369-6.3,4.465,4.465,0,0,0-6.3-.369Z" transform="translate(653.527 -1072.069)" fill="#538aba" fill-rule="evenodd"/>
          </g>
        </g>
        <path id="Trazado_1070994" data-name="Trazado 1070994" d="M-642.91,1053.9a1.414,1.414,0,0,0-.237,1.72l.753,1.3a1.414,1.414,0,0,1-.092,1.555,18.913,18.913,0,0,0-1.278,1.94,1.414,1.414,0,0,1-1.391.7l-1.494-.176a1.414,1.414,0,0,0-1.487.9q-.378.983-.663,2a1.414,1.414,0,0,0,.655,1.609l1.3.752a1.414,1.414,0,0,1,.7,1.392,18.906,18.906,0,0,0-.136,2.319,1.414,1.414,0,0,1-.856,1.3l-1.382.595a1.414,1.414,0,0,0-.838,1.521q.164,1.041.425,2.062a1.414,1.414,0,0,0,1.371,1.066h1.5a1.414,1.414,0,0,1,1.3.857,18.9,18.9,0,0,0,1.042,2.077,1.414,1.414,0,0,1-.09,1.554l-.9,1.206a1.414,1.414,0,0,0,.035,1.737q.662.819,1.4,1.573a1.414,1.414,0,0,0,1.72.237l1.3-.753a1.414,1.414,0,0,1,1.555.092,18.9,18.9,0,0,0,1.94,1.278,1.414,1.414,0,0,1,.7,1.391c-.054.462-.12,1.019-.176,1.494a1.414,1.414,0,0,0,.9,1.487q.983.378,2,.663a1.414,1.414,0,0,0,1.609-.655l.752-1.3a1.414,1.414,0,0,1,1.392-.7,18.9,18.9,0,0,0,2.319.136,1.414,1.414,0,0,1,1.3.855l.594,1.382a1.414,1.414,0,0,0,1.521.838q1.041-.164,2.062-.425a1.414,1.414,0,0,0,1.066-1.371c0-.479,0-1.04,0-1.5a1.414,1.414,0,0,1,.857-1.3,18.912,18.912,0,0,0,2.076-1.042,1.414,1.414,0,0,1,1.554.09l1.206.9a1.414,1.414,0,0,0,1.737-.035q.819-.662,1.573-1.4a1.414,1.414,0,0,0,.237-1.72l-.753-1.3a1.414,1.414,0,0,1,.092-1.555,18.933,18.933,0,0,0,1.278-1.94,1.414,1.414,0,0,1,1.391-.7l1.494.176a1.414,1.414,0,0,0,1.487-.9q.378-.983.663-2a1.414,1.414,0,0,0-.655-1.609l-1.3-.752a1.414,1.414,0,0,1-.7-1.392,18.88,18.88,0,0,0,.136-2.319,1.414,1.414,0,0,1,.856-1.3l1.382-.595a1.414,1.414,0,0,0,.838-1.521q-.164-1.041-.425-2.062a1.414,1.414,0,0,0-1.371-1.066h-1.5a1.414,1.414,0,0,1-1.3-.857,18.913,18.913,0,0,0-1.042-2.077,1.414,1.414,0,0,1,.09-1.554l.9-1.206a1.414,1.414,0,0,0-.035-1.736q-.662-.819-1.4-1.573a1.414,1.414,0,0,0-1.72-.237l-1.3.753a1.414,1.414,0,0,1-1.555-.091,18.909,18.909,0,0,0-1.94-1.278,1.414,1.414,0,0,1-.7-1.391c.054-.462.12-1.019.176-1.494a1.414,1.414,0,0,0-.9-1.487q-.983-.378-2-.663a1.414,1.414,0,0,0-1.608.655l-.752,1.3a1.414,1.414,0,0,1-1.392.7,18.9,18.9,0,0,0-2.319-.136,1.414,1.414,0,0,1-1.3-.856l-.594-1.382a1.414,1.414,0,0,0-1.521-.838q-1.04.164-2.062.425a1.414,1.414,0,0,0-1.065,1.371c0,.479,0,1.04,0,1.5a1.414,1.414,0,0,1-.857,1.3,18.869,18.869,0,0,0-2.077,1.042,1.414,1.414,0,0,1-1.554-.09l-1.206-.9a1.414,1.414,0,0,0-1.737.035q-.819.662-1.573,1.4Zm12.634,12.621a4.465,4.465,0,0,0-.369,6.3,4.465,4.465,0,0,0,6.3.369,4.465,4.465,0,0,0,.369-6.3,4.465,4.465,0,0,0-6.3-.369Z" transform="translate(653.519 -896.327)" fill="none" stroke="#376f94" stroke-linecap="round" stroke-linejoin="round" stroke-miterlimit="10" stroke-width="1"/>
        <path id="Trazado_1070995" data-name="Trazado 1070995" d="M-376.26,687.179a1.09,1.09,0,0,0-.183,1.326l.58,1a1.09,1.09,0,0,1-.071,1.2,14.576,14.576,0,0,0-.985,1.5,1.089,1.089,0,0,1-1.072.539l-1.152-.136a1.09,1.09,0,0,0-1.146.692q-.291.758-.511,1.54a1.09,1.09,0,0,0,.5,1.24l1,.579a1.09,1.09,0,0,1,.538,1.073,14.586,14.586,0,0,0-.1,1.787,1.09,1.09,0,0,1-.659,1l-1.065.458a1.09,1.09,0,0,0-.646,1.172q.127.8.328,1.589a1.09,1.09,0,0,0,1.057.821h1.16a1.09,1.09,0,0,1,1,.66,14.563,14.563,0,0,0,.8,1.6,1.09,1.09,0,0,1-.07,1.2l-.694.93a1.09,1.09,0,0,0,.027,1.338q.51.631,1.079,1.213a1.09,1.09,0,0,0,1.326.183l1-.58a1.09,1.09,0,0,1,1.2.071,14.547,14.547,0,0,0,1.5.984,1.089,1.089,0,0,1,.539,1.072c-.042.356-.092.785-.136,1.152a1.09,1.09,0,0,0,.692,1.146q.758.291,1.54.511a1.09,1.09,0,0,0,1.24-.5l.579-1a1.09,1.09,0,0,1,1.073-.538,14.58,14.58,0,0,0,1.787.1,1.089,1.089,0,0,1,1,.659l.458,1.065a1.09,1.09,0,0,0,1.172.646q.8-.126,1.589-.328a1.09,1.09,0,0,0,.821-1.057c0-.369,0-.8,0-1.16a1.09,1.09,0,0,1,.66-1,14.573,14.573,0,0,0,1.6-.8,1.09,1.09,0,0,1,1.2.07l.929.694a1.09,1.09,0,0,0,1.338-.027q.631-.51,1.213-1.079a1.09,1.09,0,0,0,.183-1.326l-.581-1a1.09,1.09,0,0,1,.071-1.2,14.563,14.563,0,0,0,.985-1.5,1.089,1.089,0,0,1,1.072-.539l1.152.136a1.09,1.09,0,0,0,1.146-.692q.292-.758.511-1.54a1.09,1.09,0,0,0-.5-1.24l-1-.579a1.09,1.09,0,0,1-.538-1.073,14.562,14.562,0,0,0,.1-1.788,1.09,1.09,0,0,1,.659-1l1.065-.458a1.09,1.09,0,0,0,.646-1.172q-.126-.8-.328-1.589a1.09,1.09,0,0,0-1.057-.821h-1.16a1.09,1.09,0,0,1-1-.66,14.567,14.567,0,0,0-.8-1.6,1.09,1.09,0,0,1,.07-1.2l.694-.93a1.09,1.09,0,0,0-.027-1.338q-.511-.631-1.079-1.212a1.09,1.09,0,0,0-1.326-.183l-1,.58a1.09,1.09,0,0,1-1.2-.071,14.546,14.546,0,0,0-1.5-.985,1.09,1.09,0,0,1-.539-1.072c.042-.356.093-.785.136-1.152a1.09,1.09,0,0,0-.692-1.146q-.758-.291-1.54-.511a1.09,1.09,0,0,0-1.24.5l-.579,1a1.09,1.09,0,0,1-1.073.538,14.578,14.578,0,0,0-1.787-.1,1.089,1.089,0,0,1-1-.659l-.458-1.065a1.09,1.09,0,0,0-1.172-.646q-.8.126-1.589.328a1.09,1.09,0,0,0-.821,1.057c0,.369,0,.8,0,1.16a1.09,1.09,0,0,1-.66,1,14.559,14.559,0,0,0-1.6.8,1.09,1.09,0,0,1-1.2-.07l-.929-.694a1.09,1.09,0,0,0-1.338.027q-.631.51-1.212,1.079Zm9.737,9.727a3.441,3.441,0,0,0-.284,4.856,3.441,3.441,0,0,0,4.856.284,3.441,3.441,0,0,0,.284-4.856,3.441,3.441,0,0,0-4.856-.284Z" transform="translate(407.029 -560.495)" fill="#6f9dc5" stroke="#707070" stroke-width="1" fill-rule="evenodd"/>
        <g id="Grupo_1236650" data-name="Grupo 1236650" transform="translate(25.789 121.979)">
          <g id="Grupo_1236649" data-name="Grupo 1236649" transform="translate(0 0)" clip-path="url(#clip-path-3)">
            <path id="Trazado_1070996" data-name="Trazado 1070996" d="M-379.744,707.537a1.09,1.09,0,0,0-.183,1.326l.58,1a1.09,1.09,0,0,1-.071,1.2,14.558,14.558,0,0,0-.985,1.5,1.09,1.09,0,0,1-1.072.539l-1.152-.136a1.09,1.09,0,0,0-1.146.692q-.291.758-.511,1.54a1.09,1.09,0,0,0,.5,1.24l1,.579a1.09,1.09,0,0,1,.538,1.073,14.544,14.544,0,0,0-.1,1.787,1.09,1.09,0,0,1-.659,1l-1.065.458a1.09,1.09,0,0,0-.646,1.173q.126.8.328,1.589a1.09,1.09,0,0,0,1.057.821h1.16a1.09,1.09,0,0,1,1,.66,14.565,14.565,0,0,0,.8,1.6,1.09,1.09,0,0,1-.07,1.2l-.694.93a1.09,1.09,0,0,0,.027,1.338q.511.631,1.079,1.213a1.09,1.09,0,0,0,1.326.183l1-.58a1.09,1.09,0,0,1,1.2.071,14.586,14.586,0,0,0,1.5.985,1.09,1.09,0,0,1,.539,1.072c-.042.356-.093.785-.136,1.152a1.09,1.09,0,0,0,.692,1.146q.758.291,1.54.511a1.09,1.09,0,0,0,1.24-.5l.579-1a1.089,1.089,0,0,1,1.073-.538,14.579,14.579,0,0,0,1.787.1,1.09,1.09,0,0,1,1,.659l.458,1.065a1.09,1.09,0,0,0,1.172.646q.8-.127,1.589-.328a1.09,1.09,0,0,0,.821-1.057c0-.369,0-.8,0-1.16a1.09,1.09,0,0,1,.66-1,14.547,14.547,0,0,0,1.6-.8,1.09,1.09,0,0,1,1.2.07l.929.694a1.09,1.09,0,0,0,1.338-.027q.631-.51,1.212-1.079a1.09,1.09,0,0,0,.183-1.326l-.58-1a1.09,1.09,0,0,1,.071-1.2,14.547,14.547,0,0,0,.985-1.5,1.09,1.09,0,0,1,1.072-.539l1.152.136a1.09,1.09,0,0,0,1.146-.692q.291-.758.511-1.54a1.09,1.09,0,0,0-.5-1.24l-1-.579a1.09,1.09,0,0,1-.538-1.073,14.578,14.578,0,0,0,.1-1.787,1.09,1.09,0,0,1,.659-1l1.065-.458a1.09,1.09,0,0,0,.646-1.172q-.126-.8-.328-1.589a1.09,1.09,0,0,0-1.057-.821h-1.16a1.09,1.09,0,0,1-1-.66,14.558,14.558,0,0,0-.8-1.6,1.09,1.09,0,0,1,.07-1.2l.694-.93a1.09,1.09,0,0,0-.027-1.338q-.51-.631-1.079-1.213a1.09,1.09,0,0,0-1.326-.183l-1,.581a1.09,1.09,0,0,1-1.2-.071,14.566,14.566,0,0,0-1.5-.985,1.089,1.089,0,0,1-.539-1.072c.042-.356.092-.785.136-1.152a1.09,1.09,0,0,0-.692-1.146q-.758-.292-1.54-.511a1.09,1.09,0,0,0-1.24.5l-.579,1a1.09,1.09,0,0,1-1.073.538,14.53,14.53,0,0,0-1.787-.1,1.09,1.09,0,0,1-1-.659l-.458-1.065a1.09,1.09,0,0,0-1.172-.646q-.8.126-1.589.328a1.09,1.09,0,0,0-.821,1.057c0,.369,0,.8,0,1.16a1.09,1.09,0,0,1-.66,1,14.589,14.589,0,0,0-1.6.8,1.089,1.089,0,0,1-1.2-.07l-.93-.694a1.09,1.09,0,0,0-1.338.027q-.631.511-1.213,1.079Zm9.737,9.727a3.441,3.441,0,0,0-.284,4.856,3.441,3.441,0,0,0,4.856.284,3.441,3.441,0,0,0,.284-4.856,3.441,3.441,0,0,0-4.856-.284Z" transform="translate(384.443 -701.189)" fill="#538aba" fill-rule="evenodd"/>
          </g>
        </g>
        <path id="Trazado_1070998" data-name="Trazado 1070998" d="M-376.26,687.179a1.09,1.09,0,0,0-.183,1.326l.58,1a1.09,1.09,0,0,1-.071,1.2,14.576,14.576,0,0,0-.985,1.5,1.089,1.089,0,0,1-1.072.539l-1.152-.136a1.09,1.09,0,0,0-1.146.692q-.291.758-.511,1.54a1.09,1.09,0,0,0,.5,1.24l1,.579a1.09,1.09,0,0,1,.538,1.073,14.586,14.586,0,0,0-.1,1.787,1.09,1.09,0,0,1-.659,1l-1.065.458a1.09,1.09,0,0,0-.646,1.172q.127.8.328,1.589a1.09,1.09,0,0,0,1.057.821h1.16a1.09,1.09,0,0,1,1,.66,14.563,14.563,0,0,0,.8,1.6,1.09,1.09,0,0,1-.07,1.2l-.694.93a1.09,1.09,0,0,0,.027,1.338q.51.631,1.079,1.213a1.09,1.09,0,0,0,1.326.183l1-.58a1.09,1.09,0,0,1,1.2.071,14.547,14.547,0,0,0,1.5.984,1.089,1.089,0,0,1,.539,1.072c-.042.356-.092.785-.136,1.152a1.09,1.09,0,0,0,.692,1.146q.758.291,1.54.511a1.09,1.09,0,0,0,1.24-.5l.579-1a1.09,1.09,0,0,1,1.073-.538,14.58,14.58,0,0,0,1.787.1,1.089,1.089,0,0,1,1,.659l.458,1.065a1.09,1.09,0,0,0,1.172.646q.8-.126,1.589-.328a1.09,1.09,0,0,0,.821-1.057c0-.369,0-.8,0-1.16a1.09,1.09,0,0,1,.66-1,14.573,14.573,0,0,0,1.6-.8,1.09,1.09,0,0,1,1.2.07l.929.694a1.09,1.09,0,0,0,1.338-.027q.631-.51,1.213-1.079a1.09,1.09,0,0,0,.183-1.326l-.581-1a1.09,1.09,0,0,1,.071-1.2,14.563,14.563,0,0,0,.985-1.5,1.089,1.089,0,0,1,1.072-.539l1.152.136a1.09,1.09,0,0,0,1.146-.692q.292-.758.511-1.54a1.09,1.09,0,0,0-.5-1.24l-1-.579a1.09,1.09,0,0,1-.538-1.073,14.562,14.562,0,0,0,.1-1.788,1.09,1.09,0,0,1,.659-1l1.065-.458a1.09,1.09,0,0,0,.646-1.172q-.126-.8-.328-1.589a1.09,1.09,0,0,0-1.057-.821h-1.16a1.09,1.09,0,0,1-1-.66,14.567,14.567,0,0,0-.8-1.6,1.09,1.09,0,0,1,.07-1.2l.694-.93a1.09,1.09,0,0,0-.027-1.338q-.511-.631-1.079-1.212a1.09,1.09,0,0,0-1.326-.183l-1,.58a1.09,1.09,0,0,1-1.2-.071,14.546,14.546,0,0,0-1.5-.985,1.09,1.09,0,0,1-.539-1.072c.042-.356.093-.785.136-1.152a1.09,1.09,0,0,0-.692-1.146q-.758-.291-1.54-.511a1.09,1.09,0,0,0-1.24.5l-.579,1a1.09,1.09,0,0,1-1.073.538,14.578,14.578,0,0,0-1.787-.1,1.089,1.089,0,0,1-1-.659l-.458-1.065a1.09,1.09,0,0,0-1.172-.646q-.8.126-1.589.328a1.09,1.09,0,0,0-.821,1.057c0,.369,0,.8,0,1.16a1.09,1.09,0,0,1-.66,1,14.559,14.559,0,0,0-1.6.8,1.09,1.09,0,0,1-1.2-.07l-.929-.694a1.09,1.09,0,0,0-1.338.027q-.631.51-1.212,1.079Zm9.737,9.727a3.441,3.441,0,0,0-.284,4.856,3.441,3.441,0,0,0,4.856.284,3.441,3.441,0,0,0,.284-4.856,3.441,3.441,0,0,0-4.856-.284Z" transform="translate(407.029 -560.495)" fill="none" stroke="#376f94" stroke-linecap="round" stroke-linejoin="round" stroke-miterlimit="10" stroke-width="1"/>
        <path id="Trazado_1070999" data-name="Trazado 1070999" d="M-261.034,1364.587a2.085,2.085,0,0,0-.35,2.537l1.111,1.921a2.085,2.085,0,0,1-.135,2.293,27.83,27.83,0,0,0-1.884,2.861,2.085,2.085,0,0,1-2.052,1.03l-2.2-.26a2.085,2.085,0,0,0-2.192,1.325q-.558,1.45-.977,2.947a2.085,2.085,0,0,0,.966,2.372l1.922,1.108a2.085,2.085,0,0,1,1.029,2.053,27.871,27.871,0,0,0-.2,3.42,2.085,2.085,0,0,1-1.262,1.918l-2.038.876a2.085,2.085,0,0,0-1.236,2.243q.242,1.534.627,3.041a2.085,2.085,0,0,0,2.022,1.571h2.219a2.085,2.085,0,0,1,1.918,1.263,27.879,27.879,0,0,0,1.536,3.062,2.085,2.085,0,0,1-.133,2.292l-1.327,1.778a2.085,2.085,0,0,0,.051,2.561q.977,1.208,2.063,2.32a2.085,2.085,0,0,0,2.537.35l1.921-1.111a2.085,2.085,0,0,1,2.293.135,27.887,27.887,0,0,0,2.861,1.884,2.085,2.085,0,0,1,1.03,2.052c-.08.681-.177,1.5-.26,2.2a2.085,2.085,0,0,0,1.325,2.192q1.45.558,2.947.977a2.085,2.085,0,0,0,2.372-.965l1.108-1.922a2.085,2.085,0,0,1,2.053-1.029,27.889,27.889,0,0,0,3.42.2,2.084,2.084,0,0,1,1.918,1.261l.877,2.038a2.085,2.085,0,0,0,2.243,1.236q1.534-.242,3.041-.627a2.085,2.085,0,0,0,1.571-2.022c0-.706,0-1.533,0-2.219a2.085,2.085,0,0,1,1.263-1.918,27.882,27.882,0,0,0,3.062-1.536,2.085,2.085,0,0,1,2.292.133l1.778,1.327a2.085,2.085,0,0,0,2.561-.051q1.208-.977,2.32-2.064a2.085,2.085,0,0,0,.35-2.537l-1.111-1.921a2.085,2.085,0,0,1,.135-2.292,27.849,27.849,0,0,0,1.884-2.861A2.085,2.085,0,0,1-211.72,1401l2.2.26a2.085,2.085,0,0,0,2.192-1.324q.558-1.45.977-2.947a2.085,2.085,0,0,0-.966-2.372l-1.922-1.108a2.085,2.085,0,0,1-1.029-2.053,27.864,27.864,0,0,0,.2-3.42,2.085,2.085,0,0,1,1.262-1.918l2.038-.877a2.085,2.085,0,0,0,1.236-2.243q-.242-1.534-.627-3.041a2.085,2.085,0,0,0-2.022-1.571H-210.4a2.085,2.085,0,0,1-1.918-1.263,27.864,27.864,0,0,0-1.536-3.062,2.085,2.085,0,0,1,.133-2.292l1.327-1.778a2.085,2.085,0,0,0-.051-2.561q-.977-1.208-2.063-2.32a2.085,2.085,0,0,0-2.537-.35l-1.921,1.111a2.085,2.085,0,0,1-2.293-.135,27.824,27.824,0,0,0-2.861-1.884,2.085,2.085,0,0,1-1.031-2.052c.08-.681.177-1.5.26-2.2a2.085,2.085,0,0,0-1.325-2.192q-1.45-.558-2.947-.977a2.085,2.085,0,0,0-2.372.966l-1.108,1.922a2.085,2.085,0,0,1-2.053,1.029,27.889,27.889,0,0,0-3.42-.2,2.085,2.085,0,0,1-1.918-1.262c-.271-.63-.6-1.389-.877-2.038a2.085,2.085,0,0,0-2.243-1.236q-1.534.242-3.041.627a2.085,2.085,0,0,0-1.571,2.022c0,.706,0,1.533,0,2.219a2.085,2.085,0,0,1-1.263,1.918,27.869,27.869,0,0,0-3.062,1.536,2.085,2.085,0,0,1-2.292-.134l-1.778-1.327a2.085,2.085,0,0,0-2.561.051q-1.208.977-2.32,2.064Zm18.629,18.61a6.584,6.584,0,0,0-.544,9.291,6.584,6.584,0,0,0,9.291.544,6.584,6.584,0,0,0,.544-9.291,6.585,6.585,0,0,0-9.291-.544Z" transform="translate(305.284 -1179.277)" fill="#6f9dc5" stroke="#707070" stroke-width="1" fill-rule="evenodd"/>
        <g id="Grupo_1236652" data-name="Grupo 1236652" transform="translate(34.722 176.307)">
          <g id="Grupo_1236651" data-name="Grupo 1236651" transform="translate(0 0)" clip-path="url(#clip-path-4)">
            <path id="Trazado_1071000" data-name="Trazado 1071000" d="M-267.7,1403.537a2.085,2.085,0,0,0-.35,2.537l1.111,1.921a2.085,2.085,0,0,1-.135,2.292,27.867,27.867,0,0,0-1.884,2.861,2.085,2.085,0,0,1-2.052,1.031l-2.2-.26a2.085,2.085,0,0,0-2.192,1.324q-.558,1.45-.977,2.947a2.085,2.085,0,0,0,.966,2.372l1.922,1.108a2.085,2.085,0,0,1,1.029,2.053,27.883,27.883,0,0,0-.2,3.42,2.085,2.085,0,0,1-1.262,1.918l-2.038.877a2.085,2.085,0,0,0-1.236,2.243q.242,1.534.627,3.041a2.085,2.085,0,0,0,2.022,1.571h2.219a2.085,2.085,0,0,1,1.918,1.263,27.864,27.864,0,0,0,1.536,3.062,2.085,2.085,0,0,1-.133,2.292l-1.327,1.778a2.085,2.085,0,0,0,.051,2.561q.977,1.208,2.064,2.32a2.085,2.085,0,0,0,2.537.35l1.921-1.111a2.085,2.085,0,0,1,2.292.135,27.871,27.871,0,0,0,2.861,1.884,2.085,2.085,0,0,1,1.031,2.052c-.08.681-.177,1.5-.26,2.2a2.085,2.085,0,0,0,1.325,2.192q1.45.558,2.947.977a2.085,2.085,0,0,0,2.372-.966l1.108-1.922a2.085,2.085,0,0,1,2.053-1.029,27.867,27.867,0,0,0,3.42.2,2.084,2.084,0,0,1,1.918,1.261l.877,2.038a2.085,2.085,0,0,0,2.243,1.236q1.534-.242,3.041-.627a2.085,2.085,0,0,0,1.571-2.022c0-.706,0-1.533,0-2.219a2.085,2.085,0,0,1,1.263-1.918,27.845,27.845,0,0,0,3.062-1.536,2.084,2.084,0,0,1,2.292.134l1.778,1.327a2.085,2.085,0,0,0,2.561-.051q1.208-.977,2.32-2.064a2.085,2.085,0,0,0,.35-2.537l-1.111-1.921a2.085,2.085,0,0,1,.135-2.292,27.894,27.894,0,0,0,1.884-2.861,2.085,2.085,0,0,1,2.052-1.031l2.2.26a2.085,2.085,0,0,0,2.192-1.325q.558-1.45.977-2.947a2.085,2.085,0,0,0-.966-2.372l-1.922-1.108a2.085,2.085,0,0,1-1.029-2.053,27.88,27.88,0,0,0,.2-3.42,2.084,2.084,0,0,1,1.262-1.918l2.038-.877a2.085,2.085,0,0,0,1.236-2.243q-.242-1.534-.627-3.041a2.085,2.085,0,0,0-2.022-1.571h-2.219a2.085,2.085,0,0,1-1.918-1.263,27.837,27.837,0,0,0-1.536-3.062,2.085,2.085,0,0,1,.133-2.292l1.327-1.778a2.085,2.085,0,0,0-.051-2.561q-.977-1.208-2.064-2.32a2.085,2.085,0,0,0-2.537-.35l-1.921,1.111a2.085,2.085,0,0,1-2.293-.135,27.871,27.871,0,0,0-2.861-1.884,2.085,2.085,0,0,1-1.03-2.052c.08-.681.177-1.5.26-2.2a2.085,2.085,0,0,0-1.325-2.192q-1.45-.558-2.947-.977a2.085,2.085,0,0,0-2.372.966l-1.108,1.922a2.085,2.085,0,0,1-2.053,1.029,27.842,27.842,0,0,0-3.42-.2,2.085,2.085,0,0,1-1.918-1.262c-.271-.63-.6-1.389-.877-2.038a2.085,2.085,0,0,0-2.243-1.236q-1.534.242-3.041.627a2.085,2.085,0,0,0-1.571,2.022c0,.707,0,1.533,0,2.219a2.085,2.085,0,0,1-1.263,1.918,27.862,27.862,0,0,0-3.062,1.536,2.085,2.085,0,0,1-2.292-.133l-1.778-1.327a2.085,2.085,0,0,0-2.561.051q-1.208.977-2.32,2.063Zm18.629,18.61a6.584,6.584,0,0,0-.544,9.291,6.584,6.584,0,0,0,9.291.544,6.584,6.584,0,0,0,.544-9.291,6.584,6.584,0,0,0-9.291-.544Z" transform="translate(276.691 -1391.391)" fill="#538aba" fill-rule="evenodd"/>
          </g>
        </g>
        <path id="Trazado_1071002" data-name="Trazado 1071002" d="M-261.034,1364.587a2.085,2.085,0,0,0-.35,2.537l1.111,1.921a2.085,2.085,0,0,1-.135,2.293,27.83,27.83,0,0,0-1.884,2.861,2.085,2.085,0,0,1-2.052,1.03l-2.2-.26a2.085,2.085,0,0,0-2.192,1.325q-.558,1.45-.977,2.947a2.085,2.085,0,0,0,.966,2.372l1.922,1.108a2.085,2.085,0,0,1,1.029,2.053,27.871,27.871,0,0,0-.2,3.42,2.085,2.085,0,0,1-1.262,1.918l-2.038.876a2.085,2.085,0,0,0-1.236,2.243q.242,1.534.627,3.041a2.085,2.085,0,0,0,2.022,1.571h2.219a2.085,2.085,0,0,1,1.918,1.263,27.879,27.879,0,0,0,1.536,3.062,2.085,2.085,0,0,1-.133,2.292l-1.327,1.778a2.085,2.085,0,0,0,.051,2.561q.977,1.208,2.063,2.32a2.085,2.085,0,0,0,2.537.35l1.921-1.111a2.085,2.085,0,0,1,2.293.135,27.887,27.887,0,0,0,2.861,1.884,2.085,2.085,0,0,1,1.03,2.052c-.08.681-.177,1.5-.26,2.2a2.085,2.085,0,0,0,1.325,2.192q1.45.558,2.947.977a2.085,2.085,0,0,0,2.372-.965l1.108-1.922a2.085,2.085,0,0,1,2.053-1.029,27.889,27.889,0,0,0,3.42.2,2.084,2.084,0,0,1,1.918,1.261l.877,2.038a2.085,2.085,0,0,0,2.243,1.236q1.534-.242,3.041-.627a2.085,2.085,0,0,0,1.571-2.022c0-.706,0-1.533,0-2.219a2.085,2.085,0,0,1,1.263-1.918,27.882,27.882,0,0,0,3.062-1.536,2.085,2.085,0,0,1,2.292.133l1.778,1.327a2.085,2.085,0,0,0,2.561-.051q1.208-.977,2.32-2.064a2.085,2.085,0,0,0,.35-2.537l-1.111-1.921a2.085,2.085,0,0,1,.135-2.292,27.849,27.849,0,0,0,1.884-2.861A2.085,2.085,0,0,1-211.72,1401l2.2.26a2.085,2.085,0,0,0,2.192-1.324q.558-1.45.977-2.947a2.085,2.085,0,0,0-.966-2.372l-1.922-1.108a2.085,2.085,0,0,1-1.029-2.053,27.864,27.864,0,0,0,.2-3.42,2.085,2.085,0,0,1,1.262-1.918l2.038-.877a2.085,2.085,0,0,0,1.236-2.243q-.242-1.534-.627-3.041a2.085,2.085,0,0,0-2.022-1.571H-210.4a2.085,2.085,0,0,1-1.918-1.263,27.864,27.864,0,0,0-1.536-3.062,2.085,2.085,0,0,1,.133-2.292l1.327-1.778a2.085,2.085,0,0,0-.051-2.561q-.977-1.208-2.063-2.32a2.085,2.085,0,0,0-2.537-.35l-1.921,1.111a2.085,2.085,0,0,1-2.293-.135,27.824,27.824,0,0,0-2.861-1.884,2.085,2.085,0,0,1-1.031-2.052c.08-.681.177-1.5.26-2.2a2.085,2.085,0,0,0-1.325-2.192q-1.45-.558-2.947-.977a2.085,2.085,0,0,0-2.372.966l-1.108,1.922a2.085,2.085,0,0,1-2.053,1.029,27.889,27.889,0,0,0-3.42-.2,2.085,2.085,0,0,1-1.918-1.262c-.271-.63-.6-1.389-.877-2.038a2.085,2.085,0,0,0-2.243-1.236q-1.534.242-3.041.627a2.085,2.085,0,0,0-1.571,2.022c0,.706,0,1.533,0,2.219a2.085,2.085,0,0,1-1.263,1.918,27.869,27.869,0,0,0-3.062,1.536,2.085,2.085,0,0,1-2.292-.134l-1.778-1.327a2.085,2.085,0,0,0-2.561.051q-1.208.977-2.32,2.064Zm18.629,18.61a6.584,6.584,0,0,0-.544,9.291,6.584,6.584,0,0,0,9.291.544,6.584,6.584,0,0,0,.544-9.291,6.585,6.585,0,0,0-9.291-.544Z" transform="translate(305.284 -1179.277)" fill="none" stroke="#376f94" stroke-linecap="round" stroke-linejoin="round" stroke-miterlimit="10" stroke-width="1"/>
        <path id="Trazado_1071003" data-name="Trazado 1071003" d="M1918.256-669.76a1.414,1.414,0,0,1,1.368,1.07l.366,1.46a1.414,1.414,0,0,0,1.148,1.052,18.921,18.921,0,0,1,2.268.5,1.414,1.414,0,0,0,1.485-.467l.95-1.167a1.414,1.414,0,0,1,1.693-.39q.956.442,1.867.974a1.414,1.414,0,0,1,.649,1.611l-.413,1.447a1.414,1.414,0,0,0,.468,1.485,18.924,18.924,0,0,1,1.712,1.57,1.413,1.413,0,0,0,1.52.338l1.406-.535a1.414,1.414,0,0,1,1.661.509q.607.861,1.13,1.777a1.414,1.414,0,0,1-.243,1.72l-1.081,1.047a1.414,1.414,0,0,0-.337,1.52,18.961,18.961,0,0,1,.7,2.216,1.414,1.414,0,0,0,1.147,1.053l1.486.239a1.414,1.414,0,0,1,1.184,1.271q.094,1.049.09,2.1a1.414,1.414,0,0,1-1.07,1.368l-1.459.366a1.414,1.414,0,0,0-1.053,1.148,18.876,18.876,0,0,1-.5,2.268,1.414,1.414,0,0,0,.467,1.485l1.167.95a1.414,1.414,0,0,1,.39,1.693q-.443.956-.974,1.867a1.414,1.414,0,0,1-1.611.65l-1.447-.413a1.414,1.414,0,0,0-1.486.468,18.878,18.878,0,0,1-1.57,1.712,1.413,1.413,0,0,0-.338,1.52l.536,1.406a1.414,1.414,0,0,1-.509,1.661q-.861.606-1.777,1.13a1.414,1.414,0,0,1-1.72-.243l-1.047-1.081a1.414,1.414,0,0,0-1.521-.337,18.907,18.907,0,0,1-2.216.7,1.414,1.414,0,0,0-1.053,1.147c-.074.459-.163,1.013-.239,1.486a1.414,1.414,0,0,1-1.271,1.184q-1.049.095-2.1.091a1.414,1.414,0,0,1-1.368-1.07l-.366-1.459a1.414,1.414,0,0,0-1.148-1.052,18.894,18.894,0,0,1-2.268-.5,1.414,1.414,0,0,0-1.485.467l-.95,1.167a1.414,1.414,0,0,1-1.693.39q-.956-.443-1.867-.973a1.414,1.414,0,0,1-.65-1.611l.413-1.447a1.414,1.414,0,0,0-.468-1.485,18.886,18.886,0,0,1-1.712-1.57,1.414,1.414,0,0,0-1.52-.338l-1.406.536a1.414,1.414,0,0,1-1.661-.509q-.607-.861-1.13-1.777a1.414,1.414,0,0,1,.243-1.72l1.081-1.047a1.414,1.414,0,0,0,.338-1.52,18.883,18.883,0,0,1-.7-2.216,1.414,1.414,0,0,0-1.147-1.053l-1.486-.239a1.414,1.414,0,0,1-1.184-1.271q-.095-1.049-.09-2.1a1.414,1.414,0,0,1,1.07-1.368l1.459-.366a1.414,1.414,0,0,0,1.052-1.148,18.953,18.953,0,0,1,.5-2.268,1.414,1.414,0,0,0-.467-1.485l-1.167-.95a1.414,1.414,0,0,1-.39-1.693q.443-.956.973-1.867a1.414,1.414,0,0,1,1.611-.65l1.447.413a1.414,1.414,0,0,0,1.485-.468A18.887,18.887,0,0,1,1905-661.1a1.414,1.414,0,0,0,.338-1.52l-.536-1.406a1.414,1.414,0,0,1,.509-1.661q.861-.606,1.776-1.13a1.414,1.414,0,0,1,1.72.243l1.047,1.081a1.414,1.414,0,0,0,1.52.337,18.893,18.893,0,0,1,2.216-.7,1.413,1.413,0,0,0,1.053-1.147c.074-.459.163-1.013.24-1.486a1.414,1.414,0,0,1,1.271-1.184q1.05-.095,2.1-.09Zm-.284,17.856a4.465,4.465,0,0,1,4.651,4.267,4.465,4.465,0,0,1-4.267,4.651,4.465,4.465,0,0,1-4.651-4.267,4.465,4.465,0,0,1,4.267-4.651Z" transform="translate(-1686.272 682.598)" fill="#6f9dc5" stroke="#707070" stroke-width="1" fill-rule="evenodd"/>
        <g id="Grupo_1236654" data-name="Grupo 1236654" transform="translate(209.577 12.837)">
          <g id="Grupo_1236653" data-name="Grupo 1236653" transform="translate(0 0)" clip-path="url(#clip-path-5)">
            <path id="Trazado_1071004" data-name="Trazado 1071004" d="M1939.889-653.942a1.414,1.414,0,0,1,1.368,1.07l.366,1.46a1.414,1.414,0,0,0,1.148,1.052,18.9,18.9,0,0,1,2.268.5,1.414,1.414,0,0,0,1.485-.467l.95-1.167a1.414,1.414,0,0,1,1.693-.39q.956.442,1.867.973a1.414,1.414,0,0,1,.65,1.611l-.413,1.447a1.414,1.414,0,0,0,.468,1.485,18.889,18.889,0,0,1,1.712,1.57,1.413,1.413,0,0,0,1.52.338l1.406-.535a1.414,1.414,0,0,1,1.661.509q.606.861,1.13,1.777a1.414,1.414,0,0,1-.243,1.72l-1.081,1.047a1.414,1.414,0,0,0-.337,1.52,18.887,18.887,0,0,1,.7,2.216,1.414,1.414,0,0,0,1.147,1.053l1.485.239a1.414,1.414,0,0,1,1.184,1.271q.094,1.049.09,2.1a1.414,1.414,0,0,1-1.07,1.368l-1.459.366a1.414,1.414,0,0,0-1.052,1.148,18.894,18.894,0,0,1-.5,2.268,1.414,1.414,0,0,0,.467,1.485l1.167.95a1.414,1.414,0,0,1,.39,1.693q-.443.956-.973,1.867a1.414,1.414,0,0,1-1.611.649l-1.447-.413a1.414,1.414,0,0,0-1.485.468,18.859,18.859,0,0,1-1.57,1.712,1.414,1.414,0,0,0-.338,1.52l.536,1.406a1.414,1.414,0,0,1-.509,1.661q-.861.607-1.776,1.13a1.414,1.414,0,0,1-1.72-.243l-1.047-1.081a1.414,1.414,0,0,0-1.52-.338,18.861,18.861,0,0,1-2.216.7,1.414,1.414,0,0,0-1.053,1.147c-.074.459-.163,1.013-.239,1.486a1.414,1.414,0,0,1-1.271,1.184q-1.049.095-2.1.09a1.414,1.414,0,0,1-1.368-1.07l-.366-1.46a1.414,1.414,0,0,0-1.148-1.052,18.931,18.931,0,0,1-2.268-.5,1.414,1.414,0,0,0-1.485.467l-.95,1.167a1.414,1.414,0,0,1-1.693.39q-.956-.443-1.867-.973a1.414,1.414,0,0,1-.65-1.611l.413-1.447a1.415,1.415,0,0,0-.468-1.485,18.919,18.919,0,0,1-1.712-1.57,1.414,1.414,0,0,0-1.52-.339l-1.406.536a1.414,1.414,0,0,1-1.661-.509q-.607-.861-1.13-1.776a1.414,1.414,0,0,1,.243-1.72l1.081-1.047a1.414,1.414,0,0,0,.337-1.52,18.868,18.868,0,0,1-.7-2.216,1.414,1.414,0,0,0-1.147-1.053l-1.486-.239a1.414,1.414,0,0,1-1.184-1.271q-.095-1.049-.09-2.1a1.414,1.414,0,0,1,1.07-1.368l1.459-.366a1.414,1.414,0,0,0,1.053-1.148,18.873,18.873,0,0,1,.5-2.268,1.414,1.414,0,0,0-.467-1.485l-1.167-.95a1.414,1.414,0,0,1-.39-1.693q.442-.956.974-1.867a1.414,1.414,0,0,1,1.611-.649l1.447.413a1.414,1.414,0,0,0,1.485-.468,18.9,18.9,0,0,1,1.57-1.712,1.414,1.414,0,0,0,.338-1.52l-.536-1.406a1.414,1.414,0,0,1,.509-1.661q.861-.607,1.777-1.13a1.414,1.414,0,0,1,1.719.243l1.047,1.081a1.414,1.414,0,0,0,1.52.337,18.892,18.892,0,0,1,2.216-.7,1.414,1.414,0,0,0,1.053-1.147c.074-.459.163-1.013.24-1.486a1.414,1.414,0,0,1,1.271-1.184q1.05-.095,2.1-.091Zm-.284,17.856a4.465,4.465,0,0,1,4.651,4.267,4.465,4.465,0,0,1-4.267,4.651,4.465,4.465,0,0,1-4.651-4.267,4.465,4.465,0,0,1,4.267-4.651Z" transform="translate(-1915.736 655.219)" fill="#538aba" fill-rule="evenodd"/>
          </g>
        </g>
        <path id="Trazado_1071006" data-name="Trazado 1071006" d="M1918.256-669.76a1.414,1.414,0,0,1,1.368,1.07l.366,1.46a1.414,1.414,0,0,0,1.148,1.052,18.921,18.921,0,0,1,2.268.5,1.414,1.414,0,0,0,1.485-.467l.95-1.167a1.414,1.414,0,0,1,1.693-.39q.956.442,1.867.974a1.414,1.414,0,0,1,.649,1.611l-.413,1.447a1.414,1.414,0,0,0,.468,1.485,18.924,18.924,0,0,1,1.712,1.57,1.413,1.413,0,0,0,1.52.338l1.406-.535a1.414,1.414,0,0,1,1.661.509q.607.861,1.13,1.777a1.414,1.414,0,0,1-.243,1.72l-1.081,1.047a1.414,1.414,0,0,0-.337,1.52,18.961,18.961,0,0,1,.7,2.216,1.414,1.414,0,0,0,1.147,1.053l1.486.239a1.414,1.414,0,0,1,1.184,1.271q.094,1.049.09,2.1a1.414,1.414,0,0,1-1.07,1.368l-1.459.366a1.414,1.414,0,0,0-1.053,1.148,18.876,18.876,0,0,1-.5,2.268,1.414,1.414,0,0,0,.467,1.485l1.167.95a1.414,1.414,0,0,1,.39,1.693q-.443.956-.974,1.867a1.414,1.414,0,0,1-1.611.65l-1.447-.413a1.414,1.414,0,0,0-1.486.468,18.878,18.878,0,0,1-1.57,1.712,1.413,1.413,0,0,0-.338,1.52l.536,1.406a1.414,1.414,0,0,1-.509,1.661q-.861.606-1.777,1.13a1.414,1.414,0,0,1-1.72-.243l-1.047-1.081a1.414,1.414,0,0,0-1.521-.337,18.907,18.907,0,0,1-2.216.7,1.414,1.414,0,0,0-1.053,1.147c-.074.459-.163,1.013-.239,1.486a1.414,1.414,0,0,1-1.271,1.184q-1.049.095-2.1.091a1.414,1.414,0,0,1-1.368-1.07l-.366-1.459a1.414,1.414,0,0,0-1.148-1.052,18.894,18.894,0,0,1-2.268-.5,1.414,1.414,0,0,0-1.485.467l-.95,1.167a1.414,1.414,0,0,1-1.693.39q-.956-.443-1.867-.973a1.414,1.414,0,0,1-.65-1.611l.413-1.447a1.414,1.414,0,0,0-.468-1.485,18.886,18.886,0,0,1-1.712-1.57,1.414,1.414,0,0,0-1.52-.338l-1.406.536a1.414,1.414,0,0,1-1.661-.509q-.607-.861-1.13-1.777a1.414,1.414,0,0,1,.243-1.72l1.081-1.047a1.414,1.414,0,0,0,.338-1.52,18.883,18.883,0,0,1-.7-2.216,1.414,1.414,0,0,0-1.147-1.053l-1.486-.239a1.414,1.414,0,0,1-1.184-1.271q-.095-1.049-.09-2.1a1.414,1.414,0,0,1,1.07-1.368l1.459-.366a1.414,1.414,0,0,0,1.052-1.148,18.953,18.953,0,0,1,.5-2.268,1.414,1.414,0,0,0-.467-1.485l-1.167-.95a1.414,1.414,0,0,1-.39-1.693q.443-.956.973-1.867a1.414,1.414,0,0,1,1.611-.65l1.447.413a1.414,1.414,0,0,0,1.485-.468A18.887,18.887,0,0,1,1905-661.1a1.414,1.414,0,0,0,.338-1.52l-.536-1.406a1.414,1.414,0,0,1,.509-1.661q.861-.606,1.776-1.13a1.414,1.414,0,0,1,1.72.243l1.047,1.081a1.414,1.414,0,0,0,1.52.337,18.893,18.893,0,0,1,2.216-.7,1.413,1.413,0,0,0,1.053-1.147c.074-.459.163-1.013.24-1.486a1.414,1.414,0,0,1,1.271-1.184q1.05-.095,2.1-.09Zm-.284,17.856a4.465,4.465,0,0,1,4.651,4.267,4.465,4.465,0,0,1-4.267,4.651,4.465,4.465,0,0,1-4.651-4.267,4.465,4.465,0,0,1,4.267-4.651Z" transform="translate(-1686.272 682.598)" fill="none" stroke="#376f94" stroke-linecap="round" stroke-linejoin="round" stroke-miterlimit="10" stroke-width="1"/>
        <path id="Trazado_1071007" data-name="Trazado 1071007" d="M1531.085-770.61a1.09,1.09,0,0,1,1.054.825l.282,1.125a1.09,1.09,0,0,0,.885.811,14.576,14.576,0,0,1,1.748.388,1.089,1.089,0,0,0,1.145-.36l.732-.9a1.09,1.09,0,0,1,1.3-.3q.737.341,1.439.75a1.09,1.09,0,0,1,.5,1.241l-.318,1.115a1.09,1.09,0,0,0,.361,1.145,14.563,14.563,0,0,1,1.319,1.21,1.09,1.09,0,0,0,1.171.261l1.084-.413a1.09,1.09,0,0,1,1.28.392q.468.664.871,1.369a1.09,1.09,0,0,1-.187,1.325l-.833.807a1.09,1.09,0,0,0-.26,1.172,14.579,14.579,0,0,1,.538,1.708,1.09,1.09,0,0,0,.884.811l1.145.185a1.09,1.09,0,0,1,.913.979q.073.809.07,1.621a1.09,1.09,0,0,1-.825,1.054l-1.125.282a1.09,1.09,0,0,0-.811.885,14.546,14.546,0,0,1-.388,1.748,1.089,1.089,0,0,0,.36,1.145l.9.732a1.09,1.09,0,0,1,.3,1.3q-.341.737-.75,1.439a1.09,1.09,0,0,1-1.241.5l-1.115-.318a1.09,1.09,0,0,0-1.145.361,14.573,14.573,0,0,1-1.21,1.32,1.089,1.089,0,0,0-.261,1.171l.413,1.084a1.09,1.09,0,0,1-.392,1.28q-.664.467-1.369.871a1.09,1.09,0,0,1-1.325-.187l-.807-.833a1.09,1.09,0,0,0-1.172-.26,14.585,14.585,0,0,1-1.708.538,1.089,1.089,0,0,0-.811.884c-.057.354-.126.78-.185,1.145a1.09,1.09,0,0,1-.979.912q-.809.073-1.621.07a1.09,1.09,0,0,1-1.054-.825l-.282-1.125a1.09,1.09,0,0,0-.885-.811,14.582,14.582,0,0,1-1.748-.388,1.089,1.089,0,0,0-1.145.36l-.732.9a1.09,1.09,0,0,1-1.3.3q-.737-.341-1.439-.75a1.089,1.089,0,0,1-.5-1.241l.318-1.115a1.09,1.09,0,0,0-.361-1.145,14.564,14.564,0,0,1-1.32-1.21,1.09,1.09,0,0,0-1.171-.261l-1.084.413a1.09,1.09,0,0,1-1.28-.392q-.467-.664-.871-1.369a1.09,1.09,0,0,1,.187-1.325l.833-.807a1.09,1.09,0,0,0,.26-1.172,14.535,14.535,0,0,1-.538-1.708,1.09,1.09,0,0,0-.884-.812l-1.145-.185a1.09,1.09,0,0,1-.913-.979q-.073-.809-.07-1.621a1.09,1.09,0,0,1,.825-1.054l1.125-.282a1.09,1.09,0,0,0,.811-.885,14.522,14.522,0,0,1,.388-1.748,1.09,1.09,0,0,0-.36-1.145l-.9-.732a1.09,1.09,0,0,1-.3-1.3q.341-.737.75-1.439a1.09,1.09,0,0,1,1.241-.5l1.115.318a1.09,1.09,0,0,0,1.145-.361,14.557,14.557,0,0,1,1.21-1.32,1.09,1.09,0,0,0,.261-1.171l-.413-1.084a1.09,1.09,0,0,1,.392-1.28q.664-.467,1.369-.871a1.09,1.09,0,0,1,1.325.187l.807.833a1.09,1.09,0,0,0,1.172.26,14.575,14.575,0,0,1,1.708-.538,1.09,1.09,0,0,0,.812-.884l.185-1.145a1.09,1.09,0,0,1,.979-.912q.808-.073,1.621-.07Zm-.22,13.762a3.441,3.441,0,0,1,3.585,3.288,3.442,3.442,0,0,1-3.288,3.585,3.441,3.441,0,0,1-3.585-3.288,3.442,3.442,0,0,1,3.288-3.585Z" transform="translate(-1335.073 775.307)" fill="#6f9dc5" stroke="#707070" stroke-width="1" fill-rule="evenodd"/>
        <g id="Grupo_1236656" data-name="Grupo 1236656" transform="translate(178.742 4.697)">
          <g id="Grupo_1236655" data-name="Grupo 1236655" transform="translate(0)" clip-path="url(#clip-path-6)">
            <path id="Trazado_1071008" data-name="Trazado 1071008" d="M1547.755-758.419a1.09,1.09,0,0,1,1.054.825l.282,1.125a1.09,1.09,0,0,0,.885.811,14.6,14.6,0,0,1,1.748.388,1.089,1.089,0,0,0,1.145-.36l.732-.9a1.09,1.09,0,0,1,1.3-.3q.737.341,1.439.75a1.09,1.09,0,0,1,.5,1.241l-.318,1.115a1.09,1.09,0,0,0,.361,1.145,14.556,14.556,0,0,1,1.319,1.21,1.09,1.09,0,0,0,1.171.261l1.084-.413a1.09,1.09,0,0,1,1.28.392q.468.664.871,1.369a1.09,1.09,0,0,1-.187,1.325l-.833.807a1.09,1.09,0,0,0-.26,1.172,14.581,14.581,0,0,1,.537,1.708,1.09,1.09,0,0,0,.884.812l1.145.185a1.09,1.09,0,0,1,.912.979q.073.809.07,1.621a1.09,1.09,0,0,1-.825,1.054l-1.125.282a1.09,1.09,0,0,0-.811.885,14.571,14.571,0,0,1-.388,1.748,1.09,1.09,0,0,0,.36,1.145l.9.732a1.09,1.09,0,0,1,.3,1.3q-.341.737-.75,1.439a1.09,1.09,0,0,1-1.241.5l-1.115-.318a1.09,1.09,0,0,0-1.145.361,14.566,14.566,0,0,1-1.21,1.32,1.089,1.089,0,0,0-.261,1.171l.413,1.084a1.09,1.09,0,0,1-.392,1.28q-.664.467-1.369.871a1.09,1.09,0,0,1-1.325-.187l-.807-.833a1.09,1.09,0,0,0-1.172-.26,14.571,14.571,0,0,1-1.708.538,1.089,1.089,0,0,0-.812.884c-.057.354-.126.78-.184,1.145a1.09,1.09,0,0,1-.979.912q-.809.073-1.621.07a1.09,1.09,0,0,1-1.054-.825l-.282-1.125a1.09,1.09,0,0,0-.885-.811,14.562,14.562,0,0,1-1.748-.388,1.09,1.09,0,0,0-1.145.36l-.732.9a1.09,1.09,0,0,1-1.3.3q-.737-.341-1.439-.75a1.089,1.089,0,0,1-.5-1.241l.318-1.115a1.09,1.09,0,0,0-.361-1.145,14.56,14.56,0,0,1-1.32-1.21,1.09,1.09,0,0,0-1.171-.261l-1.084.413a1.09,1.09,0,0,1-1.28-.392q-.467-.664-.871-1.369a1.09,1.09,0,0,1,.187-1.325l.833-.807a1.09,1.09,0,0,0,.26-1.172,14.566,14.566,0,0,1-.538-1.708,1.09,1.09,0,0,0-.884-.812l-1.145-.184a1.09,1.09,0,0,1-.912-.98q-.073-.809-.07-1.621a1.09,1.09,0,0,1,.825-1.054l1.125-.282a1.09,1.09,0,0,0,.811-.885,14.574,14.574,0,0,1,.388-1.748,1.09,1.09,0,0,0-.36-1.145l-.9-.732a1.09,1.09,0,0,1-.3-1.3q.341-.737.75-1.439a1.09,1.09,0,0,1,1.241-.5l1.115.318a1.09,1.09,0,0,0,1.145-.361,14.538,14.538,0,0,1,1.21-1.32,1.09,1.09,0,0,0,.261-1.171l-.413-1.084a1.09,1.09,0,0,1,.392-1.28q.664-.468,1.369-.871a1.09,1.09,0,0,1,1.325.187l.807.833a1.09,1.09,0,0,0,1.172.26,14.583,14.583,0,0,1,1.708-.538,1.089,1.089,0,0,0,.812-.884c.057-.354.126-.78.184-1.145a1.09,1.09,0,0,1,.979-.913q.808-.073,1.621-.07Zm-.219,13.762a3.441,3.441,0,0,1,3.585,3.288,3.441,3.441,0,0,1-3.288,3.585,3.441,3.441,0,0,1-3.585-3.288,3.442,3.442,0,0,1,3.288-3.585Z" transform="translate(-1529.14 759.403)" fill="#538aba" fill-rule="evenodd"/>
          </g>
        </g>
        <path id="Trazado_1071010" data-name="Trazado 1071010" d="M1531.085-770.61a1.09,1.09,0,0,1,1.054.825l.282,1.125a1.09,1.09,0,0,0,.885.811,14.576,14.576,0,0,1,1.748.388,1.089,1.089,0,0,0,1.145-.36l.732-.9a1.09,1.09,0,0,1,1.3-.3q.737.341,1.439.75a1.09,1.09,0,0,1,.5,1.241l-.318,1.115a1.09,1.09,0,0,0,.361,1.145,14.563,14.563,0,0,1,1.319,1.21,1.09,1.09,0,0,0,1.171.261l1.084-.413a1.09,1.09,0,0,1,1.28.392q.468.664.871,1.369a1.09,1.09,0,0,1-.187,1.325l-.833.807a1.09,1.09,0,0,0-.26,1.172,14.579,14.579,0,0,1,.538,1.708,1.09,1.09,0,0,0,.884.811l1.145.185a1.09,1.09,0,0,1,.913.979q.073.809.07,1.621a1.09,1.09,0,0,1-.825,1.054l-1.125.282a1.09,1.09,0,0,0-.811.885,14.546,14.546,0,0,1-.388,1.748,1.089,1.089,0,0,0,.36,1.145l.9.732a1.09,1.09,0,0,1,.3,1.3q-.341.737-.75,1.439a1.09,1.09,0,0,1-1.241.5l-1.115-.318a1.09,1.09,0,0,0-1.145.361,14.573,14.573,0,0,1-1.21,1.32,1.089,1.089,0,0,0-.261,1.171l.413,1.084a1.09,1.09,0,0,1-.392,1.28q-.664.467-1.369.871a1.09,1.09,0,0,1-1.325-.187l-.807-.833a1.09,1.09,0,0,0-1.172-.26,14.585,14.585,0,0,1-1.708.538,1.089,1.089,0,0,0-.811.884c-.057.354-.126.78-.185,1.145a1.09,1.09,0,0,1-.979.912q-.809.073-1.621.07a1.09,1.09,0,0,1-1.054-.825l-.282-1.125a1.09,1.09,0,0,0-.885-.811,14.582,14.582,0,0,1-1.748-.388,1.089,1.089,0,0,0-1.145.36l-.732.9a1.09,1.09,0,0,1-1.3.3q-.737-.341-1.439-.75a1.089,1.089,0,0,1-.5-1.241l.318-1.115a1.09,1.09,0,0,0-.361-1.145,14.564,14.564,0,0,1-1.32-1.21,1.09,1.09,0,0,0-1.171-.261l-1.084.413a1.09,1.09,0,0,1-1.28-.392q-.467-.664-.871-1.369a1.09,1.09,0,0,1,.187-1.325l.833-.807a1.09,1.09,0,0,0,.26-1.172,14.535,14.535,0,0,1-.538-1.708,1.09,1.09,0,0,0-.884-.812l-1.145-.185a1.09,1.09,0,0,1-.913-.979q-.073-.809-.07-1.621a1.09,1.09,0,0,1,.825-1.054l1.125-.282a1.09,1.09,0,0,0,.811-.885,14.522,14.522,0,0,1,.388-1.748,1.09,1.09,0,0,0-.36-1.145l-.9-.732a1.09,1.09,0,0,1-.3-1.3q.341-.737.75-1.439a1.09,1.09,0,0,1,1.241-.5l1.115.318a1.09,1.09,0,0,0,1.145-.361,14.557,14.557,0,0,1,1.21-1.32,1.09,1.09,0,0,0,.261-1.171l-.413-1.084a1.09,1.09,0,0,1,.392-1.28q.664-.467,1.369-.871a1.09,1.09,0,0,1,1.325.187l.807.833a1.09,1.09,0,0,0,1.172.26,14.575,14.575,0,0,1,1.708-.538,1.09,1.09,0,0,0,.812-.884l.185-1.145a1.09,1.09,0,0,1,.979-.912q.808-.073,1.621-.07Zm-.22,13.762a3.441,3.441,0,0,1,3.585,3.288,3.442,3.442,0,0,1-3.288,3.585,3.441,3.441,0,0,1-3.585-3.288,3.442,3.442,0,0,1,3.288-3.585Z" transform="translate(-1335.073 775.307)" fill="none" stroke="#376f94" stroke-linecap="round" stroke-linejoin="round" stroke-miterlimit="10" stroke-width="1"/>
        <path id="Trazado_1071011" data-name="Trazado 1071011" d="M1737.162-132.874a2.085,2.085,0,0,1,2.017,1.578c.172.685.373,1.487.54,2.152a2.086,2.086,0,0,0,1.693,1.552,27.872,27.872,0,0,1,3.344.743,2.085,2.085,0,0,0,2.19-.688l1.4-1.721a2.085,2.085,0,0,1,2.5-.575q1.41.653,2.753,1.435a2.085,2.085,0,0,1,.958,2.375l-.609,2.134a2.085,2.085,0,0,0,.69,2.19,27.866,27.866,0,0,1,2.525,2.315,2.084,2.084,0,0,0,2.241.5l2.074-.79a2.085,2.085,0,0,1,2.449.75q.894,1.27,1.667,2.62a2.085,2.085,0,0,1-.358,2.536l-1.594,1.544a2.085,2.085,0,0,0-.5,2.242,27.885,27.885,0,0,1,1.029,3.267,2.085,2.085,0,0,0,1.691,1.553l2.191.353a2.085,2.085,0,0,1,1.746,1.874q.14,1.547.133,3.1a2.085,2.085,0,0,1-1.578,2.017l-2.152.54a2.085,2.085,0,0,0-1.552,1.693,27.881,27.881,0,0,1-.743,3.344,2.084,2.084,0,0,0,.688,2.19l1.721,1.4a2.085,2.085,0,0,1,.575,2.5q-.653,1.409-1.435,2.753a2.085,2.085,0,0,1-2.375.958l-2.134-.608a2.085,2.085,0,0,0-2.19.69,27.86,27.86,0,0,1-2.315,2.525,2.084,2.084,0,0,0-.5,2.241c.244.641.538,1.413.79,2.074a2.085,2.085,0,0,1-.75,2.449q-1.27.894-2.62,1.666a2.085,2.085,0,0,1-2.536-.358l-1.544-1.594a2.085,2.085,0,0,0-2.242-.5,27.889,27.889,0,0,1-3.267,1.029,2.085,2.085,0,0,0-1.553,1.691c-.109.677-.241,1.493-.353,2.191a2.085,2.085,0,0,1-1.874,1.746q-1.547.14-3.1.133a2.085,2.085,0,0,1-2.017-1.578c-.172-.685-.373-1.487-.54-2.152a2.085,2.085,0,0,0-1.693-1.552,27.872,27.872,0,0,1-3.344-.743,2.084,2.084,0,0,0-2.19.688l-1.4,1.721a2.085,2.085,0,0,1-2.5.575q-1.409-.653-2.753-1.435a2.085,2.085,0,0,1-.958-2.375l.609-2.134a2.085,2.085,0,0,0-.69-2.19,27.864,27.864,0,0,1-2.525-2.315,2.085,2.085,0,0,0-2.241-.5l-2.074.79a2.085,2.085,0,0,1-2.449-.75q-.894-1.27-1.667-2.62a2.085,2.085,0,0,1,.358-2.536l1.594-1.544a2.085,2.085,0,0,0,.5-2.242,27.862,27.862,0,0,1-1.029-3.267,2.085,2.085,0,0,0-1.691-1.553L1706-95.13A2.085,2.085,0,0,1,1704.255-97q-.14-1.547-.133-3.1a2.085,2.085,0,0,1,1.578-2.017l2.152-.54a2.085,2.085,0,0,0,1.552-1.693,27.857,27.857,0,0,1,.743-3.344,2.085,2.085,0,0,0-.688-2.19l-1.721-1.4a2.085,2.085,0,0,1-.575-2.5q.652-1.41,1.435-2.753a2.085,2.085,0,0,1,2.375-.958l2.134.608a2.085,2.085,0,0,0,2.19-.69,27.884,27.884,0,0,1,2.315-2.525,2.085,2.085,0,0,0,.5-2.241c-.244-.641-.538-1.413-.79-2.074a2.085,2.085,0,0,1,.75-2.449q1.27-.894,2.62-1.666a2.085,2.085,0,0,1,2.536.358l1.544,1.594a2.085,2.085,0,0,0,2.242.5,27.872,27.872,0,0,1,3.268-1.029,2.085,2.085,0,0,0,1.553-1.691c.109-.677.241-1.493.353-2.191a2.085,2.085,0,0,1,1.874-1.746q1.547-.14,3.1-.133Zm-.419,26.329a6.584,6.584,0,0,1,6.858,6.291,6.584,6.584,0,0,1-6.291,6.858,6.584,6.584,0,0,1-6.858-6.291,6.584,6.584,0,0,1,6.291-6.858Z" transform="translate(-1510.02 189.045)" fill="#6f9dc5" stroke="#707070" stroke-width="1" fill-rule="evenodd"/>
        <g id="Grupo_1236658" data-name="Grupo 1236658" transform="translate(194.102 56.17)">
          <g id="Grupo_1236657" data-name="Grupo 1236657" transform="translate(0 0)" clip-path="url(#clip-path-7)">
            <path id="Trazado_1071012" data-name="Trazado 1071012" d="M1769.061-109.551a2.085,2.085,0,0,1,2.017,1.578l.54,2.152a2.085,2.085,0,0,0,1.693,1.552,27.872,27.872,0,0,1,3.344.743,2.085,2.085,0,0,0,2.19-.688l1.4-1.721a2.085,2.085,0,0,1,2.5-.575q1.409.653,2.753,1.435a2.085,2.085,0,0,1,.958,2.375l-.609,2.134a2.085,2.085,0,0,0,.69,2.19,27.866,27.866,0,0,1,2.525,2.315,2.085,2.085,0,0,0,2.241.5l2.073-.79a2.085,2.085,0,0,1,2.449.75q.894,1.27,1.666,2.62a2.085,2.085,0,0,1-.358,2.536l-1.594,1.544a2.085,2.085,0,0,0-.5,2.242,27.862,27.862,0,0,1,1.029,3.267,2.085,2.085,0,0,0,1.691,1.553l2.191.353a2.085,2.085,0,0,1,1.746,1.874q.139,1.547.133,3.1a2.085,2.085,0,0,1-1.578,2.017l-2.152.54a2.085,2.085,0,0,0-1.552,1.693,27.886,27.886,0,0,1-.743,3.344,2.084,2.084,0,0,0,.688,2.19l1.721,1.4a2.085,2.085,0,0,1,.575,2.5q-.653,1.41-1.435,2.753a2.085,2.085,0,0,1-2.375.958l-2.134-.608a2.085,2.085,0,0,0-2.19.69,27.867,27.867,0,0,1-2.315,2.525,2.085,2.085,0,0,0-.5,2.241l.79,2.074a2.085,2.085,0,0,1-.75,2.449q-1.27.894-2.62,1.666a2.085,2.085,0,0,1-2.536-.358l-1.544-1.594a2.085,2.085,0,0,0-2.242-.5,27.869,27.869,0,0,1-3.267,1.029,2.085,2.085,0,0,0-1.553,1.691c-.109.677-.241,1.493-.353,2.191a2.085,2.085,0,0,1-1.874,1.746q-1.547.14-3.1.133a2.085,2.085,0,0,1-2.017-1.578c-.172-.685-.373-1.487-.54-2.152a2.085,2.085,0,0,0-1.693-1.552,27.845,27.845,0,0,1-3.344-.743,2.085,2.085,0,0,0-2.19.688l-1.4,1.721a2.085,2.085,0,0,1-2.5.575q-1.41-.653-2.753-1.435a2.085,2.085,0,0,1-.958-2.375l.608-2.134a2.085,2.085,0,0,0-.69-2.19,27.88,27.88,0,0,1-2.525-2.315,2.085,2.085,0,0,0-2.241-.5l-2.074.79a2.085,2.085,0,0,1-2.449-.75q-.894-1.27-1.666-2.62a2.085,2.085,0,0,1,.358-2.536l1.594-1.544a2.085,2.085,0,0,0,.5-2.242,27.883,27.883,0,0,1-1.029-3.267,2.085,2.085,0,0,0-1.691-1.553l-2.19-.353a2.085,2.085,0,0,1-1.746-1.874q-.14-1.547-.133-3.1A2.085,2.085,0,0,1,1737.6-78.8l2.152-.54a2.085,2.085,0,0,0,1.552-1.693,27.855,27.855,0,0,1,.743-3.344,2.085,2.085,0,0,0-.688-2.19l-1.721-1.4a2.085,2.085,0,0,1-.575-2.5q.653-1.409,1.435-2.753a2.085,2.085,0,0,1,2.375-.958l2.134.609a2.085,2.085,0,0,0,2.19-.69,27.857,27.857,0,0,1,2.315-2.525,2.085,2.085,0,0,0,.5-2.241c-.244-.641-.538-1.413-.79-2.074a2.086,2.086,0,0,1,.75-2.449q1.27-.894,2.62-1.666a2.085,2.085,0,0,1,2.536.358l1.544,1.594a2.085,2.085,0,0,0,2.242.5,27.869,27.869,0,0,1,3.267-1.029,2.084,2.084,0,0,0,1.553-1.691c.109-.677.241-1.493.353-2.191a2.085,2.085,0,0,1,1.874-1.746q1.548-.139,3.1-.133Zm-.419,26.329a6.584,6.584,0,0,1,6.858,6.291,6.584,6.584,0,0,1-6.291,6.858,6.584,6.584,0,0,1-6.858-6.291,6.584,6.584,0,0,1,6.292-6.858Z" transform="translate(-1733.446 111.434)" fill="#538aba" fill-rule="evenodd"/>
          </g>
        </g>
        <path id="Trazado_1071014" data-name="Trazado 1071014" d="M1737.162-132.874a2.085,2.085,0,0,1,2.017,1.578c.172.685.373,1.487.54,2.152a2.086,2.086,0,0,0,1.693,1.552,27.872,27.872,0,0,1,3.344.743,2.085,2.085,0,0,0,2.19-.688l1.4-1.721a2.085,2.085,0,0,1,2.5-.575q1.41.653,2.753,1.435a2.085,2.085,0,0,1,.958,2.375l-.609,2.134a2.085,2.085,0,0,0,.69,2.19,27.866,27.866,0,0,1,2.525,2.315,2.084,2.084,0,0,0,2.241.5l2.074-.79a2.085,2.085,0,0,1,2.449.75q.894,1.27,1.667,2.62a2.085,2.085,0,0,1-.358,2.536l-1.594,1.544a2.085,2.085,0,0,0-.5,2.242,27.885,27.885,0,0,1,1.029,3.267,2.085,2.085,0,0,0,1.691,1.553l2.191.353a2.085,2.085,0,0,1,1.746,1.874q.14,1.547.133,3.1a2.085,2.085,0,0,1-1.578,2.017l-2.152.54a2.085,2.085,0,0,0-1.552,1.693,27.881,27.881,0,0,1-.743,3.344,2.084,2.084,0,0,0,.688,2.19l1.721,1.4a2.085,2.085,0,0,1,.575,2.5q-.653,1.409-1.435,2.753a2.085,2.085,0,0,1-2.375.958l-2.134-.608a2.085,2.085,0,0,0-2.19.69,27.86,27.86,0,0,1-2.315,2.525,2.084,2.084,0,0,0-.5,2.241c.244.641.538,1.413.79,2.074a2.085,2.085,0,0,1-.75,2.449q-1.27.894-2.62,1.666a2.085,2.085,0,0,1-2.536-.358l-1.544-1.594a2.085,2.085,0,0,0-2.242-.5,27.889,27.889,0,0,1-3.267,1.029,2.085,2.085,0,0,0-1.553,1.691c-.109.677-.241,1.493-.353,2.191a2.085,2.085,0,0,1-1.874,1.746q-1.547.14-3.1.133a2.085,2.085,0,0,1-2.017-1.578c-.172-.685-.373-1.487-.54-2.152a2.085,2.085,0,0,0-1.693-1.552,27.872,27.872,0,0,1-3.344-.743,2.084,2.084,0,0,0-2.19.688l-1.4,1.721a2.085,2.085,0,0,1-2.5.575q-1.409-.653-2.753-1.435a2.085,2.085,0,0,1-.958-2.375l.609-2.134a2.085,2.085,0,0,0-.69-2.19,27.864,27.864,0,0,1-2.525-2.315,2.085,2.085,0,0,0-2.241-.5l-2.074.79a2.085,2.085,0,0,1-2.449-.75q-.894-1.27-1.667-2.62a2.085,2.085,0,0,1,.358-2.536l1.594-1.544a2.085,2.085,0,0,0,.5-2.242,27.862,27.862,0,0,1-1.029-3.267,2.085,2.085,0,0,0-1.691-1.553L1706-95.13A2.085,2.085,0,0,1,1704.255-97q-.14-1.547-.133-3.1a2.085,2.085,0,0,1,1.578-2.017l2.152-.54a2.085,2.085,0,0,0,1.552-1.693,27.857,27.857,0,0,1,.743-3.344,2.085,2.085,0,0,0-.688-2.19l-1.721-1.4a2.085,2.085,0,0,1-.575-2.5q.652-1.41,1.435-2.753a2.085,2.085,0,0,1,2.375-.958l2.134.608a2.085,2.085,0,0,0,2.19-.69,27.884,27.884,0,0,1,2.315-2.525,2.085,2.085,0,0,0,.5-2.241c-.244-.641-.538-1.413-.79-2.074a2.085,2.085,0,0,1,.75-2.449q1.27-.894,2.62-1.666a2.085,2.085,0,0,1,2.536.358l1.544,1.594a2.085,2.085,0,0,0,2.242.5,27.872,27.872,0,0,1,3.268-1.029,2.085,2.085,0,0,0,1.553-1.691c.109-.677.241-1.493.353-2.191a2.085,2.085,0,0,1,1.874-1.746q1.547-.14,3.1-.133Zm-.419,26.329a6.584,6.584,0,0,1,6.858,6.291,6.584,6.584,0,0,1-6.291,6.858,6.584,6.584,0,0,1-6.858-6.291,6.584,6.584,0,0,1,6.291-6.858Z" transform="translate(-1510.02 189.045)" fill="none" stroke="#376f94" stroke-linecap="round" stroke-linejoin="round" stroke-miterlimit="10" stroke-width="1"/>
        <path id="Trazado_1071015" data-name="Trazado 1071015" d="M276.193-598.161V-400.89a13.282,13.282,0,0,1-13.276,13.276H157.838a13.282,13.282,0,0,1-13.276-13.276V-598.161a13.282,13.282,0,0,1,13.276-13.276H262.917a13.283,13.283,0,0,1,13.277,13.276Z" transform="translate(-76.335 628.982)" fill="#2d4e73" stroke="#707070" stroke-width="1" fill-rule="evenodd"/>
        <g id="Grupo_1236661" data-name="Grupo 1236661" transform="translate(68.227 17.545)">
          <g id="Grupo_1236659" data-name="Grupo 1236659" transform="translate(0)" clip-path="url(#clip-path-8)">
            <path id="Trazado_1071016" data-name="Trazado 1071016" d="M286.279-578.807a13.26,13.26,0,0,1,5.342,10.642v197.271a13.282,13.282,0,0,1-13.276,13.276H173.265a13.283,13.283,0,0,1-11.921-7.431,13.212,13.212,0,0,0,7.934,2.634H274.357a13.282,13.282,0,0,0,13.276-13.276V-572.962a13.2,13.2,0,0,0-1.354-5.845Z" transform="translate(-159.989 581.441)" fill="#1e354e" fill-rule="evenodd"/>
          </g>
          <g id="Grupo_1236660" data-name="Grupo 1236660" transform="translate(0)" clip-path="url(#clip-path-8)">
            <path id="Trazado_1071018" data-name="Trazado 1071018" d="M149.9-390.248a13.26,13.26,0,0,1-5.342-10.642V-598.161a13.282,13.282,0,0,1,13.276-13.276H262.917a13.283,13.283,0,0,1,11.922,7.431,13.213,13.213,0,0,0-7.934-2.634H161.826a13.282,13.282,0,0,0-13.276,13.276v197.271a13.214,13.214,0,0,0,1.354,5.845Z" transform="translate(-144.562 611.437)" fill="#3d6a9c" fill-rule="evenodd"/>
          </g>
        </g>
        <path id="Trazado_1071020" data-name="Trazado 1071020" d="M276.193-598.161V-400.89a13.282,13.282,0,0,1-13.276,13.276H157.838a13.282,13.282,0,0,1-13.276-13.276V-598.161a13.282,13.282,0,0,1,13.276-13.276H262.917a13.283,13.283,0,0,1,13.277,13.276Z" transform="translate(-76.335 628.982)" fill="none" stroke="#376f94" stroke-linecap="round" stroke-linejoin="round" stroke-miterlimit="10" stroke-width="1"/>
        <path id="Trazado_1071021" data-name="Trazado 1071021" d="M362.275-422.232V-266a11.61,11.61,0,0,1-11.6,11.6H258.819a11.61,11.61,0,0,1-11.6-11.6V-422.232a11.61,11.61,0,0,1,11.6-11.6H350.67a11.611,11.611,0,0,1,11.605,11.6Z" transform="translate(-170.702 465.716)" fill="#62a7f6" stroke="#707070" stroke-width="1" fill-rule="evenodd"/>
        <g id="Grupo_1236663" data-name="Grupo 1236663" transform="translate(76.512 31.879)">
          <g id="Grupo_1236662" data-name="Grupo 1236662" transform="translate(0 0)" clip-path="url(#clip-path-10)">
            <path id="Trazado_1071022" data-name="Trazado 1071022" d="M187.2-475.953l123.346-47.652-8.285,18.85L187.2-447.661v-28.292Zm-5.269,126.72L407.4-456.039l-12.969,36.62L185.863-296l-3.932-53.235Z" transform="translate(-187.2 516.36)" fill="#85bbf8" fill-rule="evenodd"/>
          </g>
        </g>
        <path id="Trazado_1071024" data-name="Trazado 1071024" d="M362.275-422.232V-266a11.61,11.61,0,0,1-11.6,11.6H258.819a11.61,11.61,0,0,1-11.6-11.6V-422.232a11.61,11.61,0,0,1,11.6-11.6H350.67a11.611,11.611,0,0,1,11.605,11.6Z" transform="translate(-170.702 465.716)" fill="none" stroke="#376f94" stroke-linecap="round" stroke-linejoin="round" stroke-miterlimit="10" stroke-width="1"/>
        <path id="Trazado_1071025" data-name="Trazado 1071025" d="M-348.522-534.884v98.614a5.2,5.2,0,0,1-5.2,5.2H-421.3a5.2,5.2,0,0,1-5.2-5.2v-98.614a5.2,5.2,0,0,1,5.2-5.2h67.581a5.2,5.2,0,0,1,5.2,5.2Z" transform="translate(448.629 563.383)" fill="#aee0ff" stroke="#707070" stroke-width="1" fill-rule="evenodd"/>
        <g id="Grupo_1236672" data-name="Grupo 1236672" transform="translate(22.136 23.304)">
          <g id="Grupo_1236664" data-name="Grupo 1236664" transform="translate(0 0)" clip-path="url(#clip-path-11)">
            <path id="Trazado_1071026" data-name="Trazado 1071026" d="M-301.156-374.987v29.524h-68.853v-29.524Z" transform="translate(374.568 388.312)" fill="#e6f5ff" fill-rule="evenodd"/>
          </g>
          <g id="Grupo_1236665" data-name="Grupo 1236665" transform="translate(0 0)" clip-path="url(#clip-path-11)">
            <path id="Trazado_1071028" data-name="Trazado 1071028" d="M-301.156,31.873v4.32h-68.853v-4.32Z" transform="translate(374.568 14.29)" fill="#e6f5ff" fill-rule="evenodd"/>
          </g>
          <g id="Grupo_1236666" data-name="Grupo 1236666" transform="translate(0 0)" clip-path="url(#clip-path-11)">
            <path id="Trazado_1071030" data-name="Trazado 1071030" d="M-301.156-451.541v4.32h-68.853v-4.32Z" transform="translate(374.568 458.687)" fill="#e6f5ff" fill-rule="evenodd"/>
          </g>
          <g id="Grupo_1236667" data-name="Grupo 1236667" transform="translate(0 0)" clip-path="url(#clip-path-11)">
            <path id="Trazado_1071032" data-name="Trazado 1071032" d="M-301.156,108.426v4.32h-68.853v-4.32Z" transform="translate(374.568 -56.084)" fill="#e6f5ff" fill-rule="evenodd"/>
          </g>
          <g id="Grupo_1236668" data-name="Grupo 1236668" transform="translate(0 0)" clip-path="url(#clip-path-11)">
            <path id="Trazado_1071034" data-name="Trazado 1071034" d="M-301.156,184.98v4.32h-68.853v-4.32Z" transform="translate(374.568 -126.459)" fill="#e6f5ff" fill-rule="evenodd"/>
          </g>
          <g id="Grupo_1236669" data-name="Grupo 1236669" transform="translate(0 0)" clip-path="url(#clip-path-11)">
            <path id="Trazado_1071036" data-name="Trazado 1071036" d="M-301.156,650.366v4.32h-68.853v-4.32Z" transform="translate(374.568 -554.283)" fill="#e6f5ff" fill-rule="evenodd"/>
          </g>
          <g id="Grupo_1236670" data-name="Grupo 1236670" transform="translate(0 0)" clip-path="url(#clip-path-11)">
            <path id="Trazado_1071038" data-name="Trazado 1071038" d="M-338.284,261.534v29.524h-31.725V261.534Z" transform="translate(374.568 -196.834)" fill="#e6f5ff" fill-rule="evenodd"/>
          </g>
          <g id="Grupo_1236671" data-name="Grupo 1236671" transform="translate(0 0)" clip-path="url(#clip-path-11)">
            <path id="Trazado_1071040" data-name="Trazado 1071040" d="M121.722,261.534v29.524H90V261.534Z" transform="translate(-48.31 -196.834)" fill="#e6f5ff" fill-rule="evenodd"/>
          </g>
        </g>
        <path id="Trazado_1071042" data-name="Trazado 1071042" d="M-348.522-534.884v98.614a5.2,5.2,0,0,1-5.2,5.2H-421.3a5.2,5.2,0,0,1-5.2-5.2v-98.614a5.2,5.2,0,0,1,5.2-5.2h67.581a5.2,5.2,0,0,1,5.2,5.2Z" transform="translate(448.629 563.383)" fill="none" stroke="#376f94" stroke-linecap="round" stroke-linejoin="round" stroke-miterlimit="10" stroke-width="1"/>
        <path id="Trazado_1071043" data-name="Trazado 1071043" d="M1458.418,644.779v98.614a5.2,5.2,0,0,1-5.2,5.2h-67.581a5.2,5.2,0,0,1-5.2-5.2V644.779a5.2,5.2,0,0,1,5.2-5.2h67.581a5.2,5.2,0,0,1,5.2,5.2Z" transform="translate(-1212.469 -521.067)" fill="#e05529" stroke="#707070" stroke-width="1" fill-rule="evenodd"/>
        <g id="Grupo_1236680" data-name="Grupo 1236680" transform="translate(167.978 118.517)">
          <g id="Grupo_1236673" data-name="Grupo 1236673" transform="translate(0 0)" clip-path="url(#clip-path-19)">
            <path id="Trazado_1071044" data-name="Trazado 1071044" d="M1505.784,1057.61v8.687H1436.93v-8.687Z" transform="translate(-1432.371 -1023.87)" fill="#ea8b6d" fill-rule="evenodd"/>
          </g>
          <g id="Grupo_1236674" data-name="Grupo 1236674" transform="translate(0 0)" clip-path="url(#clip-path-19)">
            <path id="Trazado_1071046" data-name="Trazado 1071046" d="M1505.784,1206.67v1.614H1436.93v-1.614Z" transform="translate(-1432.371 -1160.899)" fill="#ea8b6d" fill-rule="evenodd"/>
          </g>
          <g id="Grupo_1236675" data-name="Grupo 1236675" transform="translate(0 0)" clip-path="url(#clip-path-19)">
            <path id="Trazado_1071048" data-name="Trazado 1071048" d="M1505.784,1403.03v1.614H1436.93v-1.614Z" transform="translate(-1432.371 -1341.411)" fill="#ea8b6d" fill-rule="evenodd"/>
          </g>
          <g id="Grupo_1236676" data-name="Grupo 1236676" transform="translate(0 0)" clip-path="url(#clip-path-19)">
            <path id="Trazado_1071050" data-name="Trazado 1071050" d="M1489.247,728.121v23.251H1436.93V728.121Z" transform="translate(-1432.371 -720.975)" fill="#ea8b6d" fill-rule="evenodd"/>
          </g>
          <g id="Grupo_1236677" data-name="Grupo 1236677" transform="translate(0 0)" clip-path="url(#clip-path-19)">
            <path id="Trazado_1071052" data-name="Trazado 1071052" d="M1505.784,1251.04v10.3H1436.93v-10.3Z" transform="translate(-1432.371 -1201.688)" fill="#ea8b6d" fill-rule="evenodd"/>
          </g>
          <g id="Grupo_1236678" data-name="Grupo 1236678" transform="translate(0 0)" clip-path="url(#clip-path-19)">
            <path id="Trazado_1071054" data-name="Trazado 1071054" d="M1505.784,1830.03v4.32H1436.93v-4.32Z" transform="translate(-1432.371 -1733.947)" fill="#ea8b6d" fill-rule="evenodd"/>
          </g>
          <g id="Grupo_1236679" data-name="Grupo 1236679" transform="translate(0 0)" clip-path="url(#clip-path-19)">
            <path id="Trazado_1071056" data-name="Trazado 1071056" d="M1505.784,1441.2v29.524H1436.93V1441.2Z" transform="translate(-1432.371 -1376.5)" fill="#ea8b6d" fill-rule="evenodd"/>
          </g>
        </g>
        <path id="Trazado_1071058" data-name="Trazado 1071058" d="M1458.418,644.779v98.614a5.2,5.2,0,0,1-5.2,5.2h-67.581a5.2,5.2,0,0,1-5.2-5.2V644.779a5.2,5.2,0,0,1,5.2-5.2h67.581a5.2,5.2,0,0,1,5.2,5.2Z" transform="translate(-1212.469 -521.067)" fill="none" stroke="#376f94" stroke-linecap="round" stroke-linejoin="round" stroke-miterlimit="10" stroke-width="1"/>
        <path id="Trazado_1071059" data-name="Trazado 1071059" d="M.43-947.886v-23.4H150.8v111.128" transform="translate(56.164 971.281)" fill="none" stroke="#376f94" stroke-linecap="round" stroke-linejoin="round" stroke-miterlimit="10" stroke-width="3" stroke-dasharray="20 20 0 0 0 0"/>
        <path id="Trazado_1071060" data-name="Trazado 1071060" d="M-80.554,639.584a13.8,13.8,0,0,1,13.791,13.791,13.8,13.8,0,0,1-13.791,13.791,13.8,13.8,0,0,1-13.791-13.791,13.8,13.8,0,0,1,13.791-13.791Z" transform="translate(143.29 -521.067)" fill="#42c541" stroke="#707070" stroke-width="1" fill-rule="evenodd"/>
        <g id="Grupo_1236684" data-name="Grupo 1236684" transform="translate(48.945 118.517)">
          <g id="Grupo_1236681" data-name="Grupo 1236681" transform="translate(0 0)" clip-path="url(#clip-path-26)">
            <path id="Trazado_1071061" data-name="Trazado 1071061" d="M-64.906,755.085a13.757,13.757,0,0,1,.741,4.469,13.8,13.8,0,0,1-13.791,13.791,13.8,13.8,0,0,1-13.563-11.282,13.8,13.8,0,0,0,13.05,9.322,13.8,13.8,0,0,0,13.791-13.791,13.847,13.847,0,0,0-.228-2.509Z" transform="translate(91.747 -745.763)" fill="#40973f" fill-rule="evenodd"/>
          </g>
          <g id="Grupo_1236682" data-name="Grupo 1236682" transform="translate(0 0)" clip-path="url(#clip-path-26)">
            <path id="Trazado_1071063" data-name="Trazado 1071063" d="M-93.6,657.844a13.757,13.757,0,0,1-.741-4.469,13.8,13.8,0,0,1,13.791-13.791,13.8,13.8,0,0,1,13.563,11.282,13.8,13.8,0,0,0-13.05-9.322,13.8,13.8,0,0,0-13.791,13.791,13.846,13.846,0,0,0,.228,2.509Z" transform="translate(94.345 -639.584)" fill="#97ea97" fill-rule="evenodd"/>
          </g>
          <g id="Grupo_1236683" data-name="Grupo 1236683" transform="translate(0 0)" clip-path="url(#clip-path-26)">
            <path id="Trazado_1071065" data-name="Trazado 1071065" d="M-22.768,636.887c4.419-.574,8.123-.146,8.265.954s-3.329,2.46-7.748,3.033-8.123.146-8.265-.954,3.329-2.46,7.748-3.033Z" transform="translate(35.671 -636.87)" fill="#97ea97" fill-rule="evenodd"/>
          </g>
        </g>
        <path id="Trazado_1071067" data-name="Trazado 1071067" d="M-80.554,639.584a13.8,13.8,0,0,1,13.791,13.791,13.8,13.8,0,0,1-13.791,13.791,13.8,13.8,0,0,1-13.791-13.791,13.8,13.8,0,0,1,13.791-13.791Z" transform="translate(143.29 -521.067)" fill="none" stroke="#376f94" stroke-linecap="round" stroke-linejoin="round" stroke-miterlimit="10" stroke-width="1"/>
        <path id="Trazado_1071068" data-name="Trazado 1071068" d="M11.293,756.206h2.789l.555-1.942H18.1l.555,1.942h3.169l-3.315-10.442h-3.87l-3.344,10.442Zm5.082-8.018,1.139,4.016H15.222l1.154-4.016Z" transform="translate(46.178 -618.677)" fill="#fff" stroke="#376f94" stroke-linejoin="round" stroke-miterlimit="10" stroke-width="1"/>
        <path id="Trazado_1071069" data-name="Trazado 1071069" d="M1706.394,468.716a13.791,13.791,0,1,1-13.791,13.791,13.8,13.8,0,0,1,13.791-13.791Z" transform="translate(-1499.43 -363.99)" fill="#42c541" stroke="#707070" stroke-width="1" fill-rule="evenodd"/>
        <g id="Grupo_1236688" data-name="Grupo 1236688" transform="translate(193.173 104.726)">
          <g id="Grupo_1236685" data-name="Grupo 1236685" transform="translate(0)" clip-path="url(#clip-path-29)">
            <path id="Trazado_1071070" data-name="Trazado 1071070" d="M1722.038,584.217a13.793,13.793,0,1,1-26.613,6.977,13.794,13.794,0,0,0,26.613-6.977Z" transform="translate(-1695.197 -574.895)" fill="#40973f" fill-rule="evenodd"/>
          </g>
          <g id="Grupo_1236686" data-name="Grupo 1236686" transform="translate(0)" clip-path="url(#clip-path-29)">
            <path id="Trazado_1071072" data-name="Trazado 1071072" d="M1693.347,486.976A13.793,13.793,0,1,1,1719.96,480a13.794,13.794,0,0,0-26.613,6.978Z" transform="translate(-1692.606 -468.716)" fill="#97ea97" fill-rule="evenodd"/>
          </g>
          <g id="Grupo_1236687" data-name="Grupo 1236687" transform="translate(0)" clip-path="url(#clip-path-29)">
            <path id="Trazado_1071074" data-name="Trazado 1071074" d="M1764.178,466.019c4.419-.574,8.122-.146,8.265.954s-3.329,2.46-7.748,3.033-8.123.146-8.265-.954,3.329-2.46,7.748-3.033Z" transform="translate(-1751.275 -466.003)" fill="#97ea97" fill-rule="evenodd"/>
          </g>
        </g>
        <path id="Trazado_1071076" data-name="Trazado 1071076" d="M1706.394,468.716a13.791,13.791,0,1,1-13.791,13.791,13.8,13.8,0,0,1,13.791-13.791Z" transform="translate(-1499.43 -363.99)" fill="none" stroke="#376f94" stroke-linecap="round" stroke-linejoin="round" stroke-miterlimit="10" stroke-width="1"/>
        <path id="Trazado_1071077" data-name="Trazado 1071077" d="M1810.82,585.339h4.7c2.585,0,3.8-1.037,3.8-2.906v-.058a2.269,2.269,0,0,0-2.088-2.439,2.151,2.151,0,0,0,1.767-2.249v-.058c0-1.621-1.052-2.731-3.52-2.731h-4.659v10.442Zm2.921-6.294v-2.161h1.139c.906,0,1.285.321,1.285,1.037v.058c0,.745-.351,1.066-1.285,1.066Zm0,4.294V580.87h1.154c1.052,0,1.475.409,1.475,1.2v.058c0,.774-.438,1.212-1.387,1.212Z" transform="translate(-1608.106 -461.601)" fill="#fff" stroke="#376f94" stroke-linejoin="round" stroke-miterlimit="10" stroke-width="1"/>
        <path id="Trazado_1071078" data-name="Trazado 1071078" d="M2111.442,1055.24a5.206,5.206,0,0,1,3.576,1.4,4.661,4.661,0,0,1,1.481,3.385v32.334a4.661,4.661,0,0,1-1.481,3.385,5.205,5.205,0,0,1-3.576,1.4h-34.159a5.206,5.206,0,0,1-3.576-1.4,4.661,4.661,0,0,1-1.481-3.385v-32.334a4.661,4.661,0,0,1,1.481-3.385,5.206,5.206,0,0,1,3.576-1.4Z" transform="translate(-1848.413 -903.174)" fill="#fec63d" stroke="#707070" stroke-width="1" fill-rule="evenodd"/>
        <g id="Grupo_1236692" data-name="Grupo 1236692" transform="translate(223.813 152.065)">
          <g id="Grupo_1236689" data-name="Grupo 1236689" transform="translate(0 0)" clip-path="url(#clip-path-32)">
            <path id="Trazado_1071079" data-name="Trazado 1071079" d="M2130.464,1243.394v-3.987l-5.066-2.676,5.066-2.523v-4.088l-11.224,6.208v.858Z" transform="translate(-2115.445 -1216.005)" fill="#fff"/>
          </g>
          <g id="Grupo_1236690" data-name="Grupo 1236690" transform="translate(0 0)" clip-path="url(#clip-path-32)">
            <path id="Trazado_1071081" data-name="Trazado 1071081" d="M2266.89,1193.718h3.785l8.478-23.318h-3.812Z" transform="translate(-2251.178 -1161.105)" fill="#fff"/>
          </g>
          <g id="Grupo_1236691" data-name="Grupo 1236691" transform="translate(0 0)" clip-path="url(#clip-path-32)">
            <path id="Trazado_1071083" data-name="Trazado 1071083" d="M2434.35,1243.075l11.251-6.208v-.858l-11.251-6.208v3.987l5.093,2.676-5.093,2.5Z" transform="translate(-2405.122 -1215.711)" fill="#fff"/>
          </g>
        </g>
        <path id="Trazado_1071085" data-name="Trazado 1071085" d="M2111.442,1055.24a5.206,5.206,0,0,1,3.576,1.4,4.661,4.661,0,0,1,1.481,3.385v32.334a4.661,4.661,0,0,1-1.481,3.385,5.205,5.205,0,0,1-3.576,1.4h-34.159a5.206,5.206,0,0,1-3.576-1.4,4.661,4.661,0,0,1-1.481-3.385v-32.334a4.661,4.661,0,0,1,1.481-3.385,5.206,5.206,0,0,1,3.576-1.4Z" transform="translate(-1848.413 -903.174)" fill="none" stroke="#376f94" stroke-linecap="round" stroke-linejoin="round" stroke-miterlimit="10" stroke-width="1"/>
        <path id="Trazado_1071086" data-name="Trazado 1071086" d="M-661.539-14.82a5.205,5.205,0,0,1,3.576,1.4,4.661,4.661,0,0,1,1.481,3.385V22.3a4.661,4.661,0,0,1-1.481,3.385,5.205,5.205,0,0,1-3.576,1.4H-695.7a5.205,5.205,0,0,1-3.576-1.4,4.661,4.661,0,0,1-1.481-3.385V-10.033a4.661,4.661,0,0,1,1.481-3.385,5.205,5.205,0,0,1,3.576-1.4Z" transform="translate(700.755 80.519)" fill="#fec63d" stroke="#707070" stroke-width="1" fill-rule="evenodd"/>
        <g id="Grupo_1236696" data-name="Grupo 1236696" transform="translate(0 65.699)">
          <g id="Grupo_1236693" data-name="Grupo 1236693" transform="translate(0 0)" clip-path="url(#clip-path-35)">
            <path id="Trazado_1071087" data-name="Trazado 1071087" d="M-642.523,173.333v-3.987l-5.065-2.675,5.065-2.524v-4.088l-11.224,6.208v.858Z" transform="translate(657.541 -145.944)" fill="#fff"/>
          </g>
          <g id="Grupo_1236694" data-name="Grupo 1236694" transform="translate(0 0)" clip-path="url(#clip-path-35)">
            <path id="Trazado_1071089" data-name="Trazado 1071089" d="M-506.1,123.658h3.786l8.478-23.318h-3.812Z" transform="translate(521.809 -91.045)" fill="#fff"/>
          </g>
          <g id="Grupo_1236695" data-name="Grupo 1236695" transform="translate(0 0)" clip-path="url(#clip-path-35)">
            <path id="Trazado_1071091" data-name="Trazado 1071091" d="M-338.63,173.02l11.251-6.208v-.858l-11.251-6.208v3.987l5.092,2.675-5.092,2.5Z" transform="translate(367.858 -145.656)" fill="#fff"/>
          </g>
        </g>
        <path id="Trazado_1071093" data-name="Trazado 1071093" d="M-661.539-14.82a5.205,5.205,0,0,1,3.576,1.4,4.661,4.661,0,0,1,1.481,3.385V22.3a4.661,4.661,0,0,1-1.481,3.385,5.205,5.205,0,0,1-3.576,1.4H-695.7a5.205,5.205,0,0,1-3.576-1.4,4.661,4.661,0,0,1-1.481-3.385V-10.033a4.661,4.661,0,0,1,1.481-3.385,5.205,5.205,0,0,1,3.576-1.4Z" transform="translate(700.755 80.519)" fill="none" stroke="#376f94" stroke-linecap="round" stroke-linejoin="round" stroke-miterlimit="10" stroke-width="1"/>
      </g>
    </g>
  </g>
</svg>
