<svg xmlns="http://www.w3.org/2000/svg" xmlns:xlink="http://www.w3.org/1999/xlink" width="108" height="108" viewBox="0 0 108 108">
  <defs>
    <filter id="Trazado_904820" x="0" y="0" width="108" height="108" filterUnits="userSpaceOnUse">
      <feOffset dy="3" input="SourceAlpha"/>
      <feGaussianBlur stdDeviation="3" result="blur"/>
      <feFlood flood-opacity="0.161"/>
      <feComposite operator="in" in2="blur"/>
      <feComposite in="SourceGraphic"/>
    </filter>
  </defs>
  <g id="Grupo_1233043" data-name="Grupo 1233043" transform="translate(-607.999 -4045)">
    <g id="Grupo_1228683" data-name="Grupo 1228683" transform="translate(617 4051)">
      <g id="Grupo_1173585" data-name="Grupo 1173585" transform="translate(0 0)">
        <g id="Grupo_1173428" data-name="Grupo 1173428">
          <g id="Grupo_1171958" data-name="Grupo 1171958">
            <g id="Grupo_1167341" data-name="Grupo 1167341">
              <g id="Grupo_1166792" data-name="Grupo 1166792">
                <g transform="matrix(1, 0, 0, 1, -9, -6)" filter="url(#Trazado_904820)">
                  <g id="Trazado_904820-2" data-name="Trazado 904820" transform="translate(9 6)" fill="#fef9e5">
                    <path d="M 44.99999618530273 88.50002288818359 C 39.12687301635742 88.50002288818359 33.43022155761719 87.35009765625 28.06829643249512 85.08218383789062 C 22.88852119445801 82.89133453369141 18.23629570007324 79.75460815429688 14.24084663391113 75.7591552734375 C 10.24540901184082 71.76371002197266 7.108683586120605 67.11148071289062 4.917821407318115 61.93170928955078 C 2.649921178817749 56.56978225708008 1.499996185302734 50.87313079833984 1.499996185302734 45.00000762939453 C 1.499996185302734 39.12688446044922 2.649921178817749 33.43023300170898 4.917821407318115 28.06830787658691 C 7.108683586120605 22.8885326385498 10.24540901184082 18.23630714416504 14.24084663391113 14.24085807800293 C 18.23629570007324 10.24542045593262 22.88852119445801 7.108695030212402 28.06829643249512 4.917832851409912 C 33.43022155761719 2.649932622909546 39.12687301635742 1.500007629394531 44.99999618530273 1.500007629394531 C 50.87311935424805 1.500007629394531 56.56977081298828 2.649932622909546 61.93169784545898 4.917832851409912 C 67.11147308349609 7.108695030212402 71.76369476318359 10.24542045593262 75.75914764404297 14.24085807800293 C 79.75458526611328 18.23630714416504 82.89131164550781 22.8885326385498 85.08216857910156 28.06830787658691 C 87.35007476806641 33.43023300170898 88.5 39.12688446044922 88.5 45.00000762939453 C 88.5 50.87313079833984 87.35007476806641 56.56978225708008 85.08216857910156 61.93170928955078 C 82.89131164550781 67.11148071289062 79.75458526611328 71.76371002197266 75.75914764404297 75.7591552734375 C 71.76369476318359 79.75460815429688 67.11147308349609 82.89133453369141 61.93169784545898 85.08218383789062 C 56.56977081298828 87.35009765625 50.87311935424805 88.50002288818359 44.99999618530273 88.50002288818359 Z" stroke="none"/>
                    <path d="M 44.99999618530273 2.999992370605469 C 39.32870864868164 2.999992370605469 33.82865142822266 4.110054016113281 28.65262603759766 6.299339294433594 C 23.65165710449219 8.414566040039062 19.15968322753906 11.44333648681641 15.301513671875 15.30150604248047 C 11.44333648681641 19.15967559814453 8.414566040039062 23.65164947509766 6.299339294433594 28.65262222290039 C 4.110054016113281 33.82866287231445 2.999992370605469 39.32872009277344 2.999992370605469 45.00000762939453 C 2.999992370605469 50.67129516601562 4.110054016113281 56.17133712768555 6.299339294433594 61.34738159179688 C 8.414566040039062 66.34835052490234 11.44333648681641 70.84030914306641 15.301513671875 74.69849395751953 C 19.15968322753906 78.55666351318359 23.65165710449219 81.58543395996094 28.65262603759766 83.70066833496094 C 33.82865142822266 85.88995361328125 39.32870864868164 87.00000762939453 44.99999618530273 87.00000762939453 C 50.67128372192383 87.00000762939453 56.17134094238281 85.88995361328125 61.34736633300781 83.70066833496094 C 66.34834289550781 81.58543395996094 70.84030914306641 78.55666351318359 74.69847869873047 74.69849395751953 C 78.55665588378906 70.84030914306641 81.58542633056641 66.34835052490234 83.70065307617188 61.34738159179688 C 85.88993835449219 56.17133712768555 87 50.67129516601562 87 45.00000762939453 C 87 39.32872009277344 85.88993835449219 33.82866287231445 83.70065307617188 28.65262222290039 C 81.58542633056641 23.65164947509766 78.55665588378906 19.15967559814453 74.69847869873047 15.30150604248047 C 70.84030914306641 11.44333648681641 66.34834289550781 8.414566040039062 61.34736633300781 6.299339294433594 C 56.17134094238281 4.110054016113281 50.67128372192383 2.999992370605469 44.99999618530273 2.999992370605469 M 44.99999618530273 -7.62939453125e-06 C 69.85281372070312 -7.62939453125e-06 90 20.14717864990234 90 45.00000762939453 C 90 69.85280609130859 69.85281372070312 90.00000762939453 44.99999618530273 90.00000762939453 C 20.14717864990234 90.00000762939453 -7.62939453125e-06 69.85280609130859 -7.62939453125e-06 45.00000762939453 C -7.62939453125e-06 20.14717864990234 20.14717864990234 -7.62939453125e-06 44.99999618530273 -7.62939453125e-06 Z" stroke="none" fill="#866d08"/>
                  </g>
                </g>
              </g>
            </g>
          </g>
        </g>
      </g>
    </g>
    <g id="diseno-ux_2_" data-name="diseno-ux (2)" transform="translate(581.671 4066.659)">
      <g id="Grupo_1233041" data-name="Grupo 1233041" transform="translate(62.987 0.86)">
        <path id="Trazado_1066548" data-name="Trazado 1066548" d="M104.072,11.325V60.638a3.825,3.825,0,0,1-3.825,3.825h-26.8a3.825,3.825,0,0,1-3.825-3.825V11.325A3.825,3.825,0,0,1,73.451,7.5h26.8A3.825,3.825,0,0,1,104.072,11.325Z" transform="translate(-69.626 -7.5)" fill="#bd80e1"/>
        <path id="Trazado_1066549" data-name="Trazado 1066549" d="M314.8,7.5h-2.848a3.825,3.825,0,0,1,3.825,3.825V60.638a3.825,3.825,0,0,1-3.825,3.825H314.8a3.825,3.825,0,0,0,3.825-3.825V11.325A3.825,3.825,0,0,0,314.8,7.5Z" transform="translate(-284.174 -7.5)" fill="#af66da"/>
        <path id="Trazado_1066550" data-name="Trazado 1066550" d="M157.078,7.5l-.522,2.723A3.173,3.173,0,0,1,153.44,12.8H142.034a3.173,3.173,0,0,1-3.116-2.576L138.4,7.5Z" transform="translate(-130.514 -7.5)" fill="#017297"/>
        <path id="Trazado_1066551" data-name="Trazado 1066551" d="M248.208,7.5l-.521,2.723A3.173,3.173,0,0,1,244.57,12.8h2.875a3.173,3.173,0,0,0,3.116-2.576l.521-2.723Z" transform="translate(-224.519 -7.5)" fill="#025f80"/>
        <path id="Trazado_1066552" data-name="Trazado 1066552" d="M312.694,301.7H300.131a1.983,1.983,0,1,1,0-3.967h12.563a1.983,1.983,0,1,1,0,3.967Z" transform="translate(-271.957 -264.47)" fill="#d0e7f2"/>
        <path id="Trazado_1066553" data-name="Trazado 1066553" d="M405.569,297.734h-2.524a1.983,1.983,0,0,1,0,3.967h2.524a1.983,1.983,0,1,0,0-3.967Z" transform="translate(-364.831 -264.47)" fill="#b7d9eb"/>
        <path id="Trazado_1066554" data-name="Trazado 1066554" d="M312.694,361.839H300.131a1.983,1.983,0,1,1,0-3.967h12.563a1.983,1.983,0,1,1,0,3.967Z" transform="translate(-271.957 -317.715)" fill="#edf5fa"/>
        <path id="Trazado_1066555" data-name="Trazado 1066555" d="M405.569,357.872h-2.524a1.983,1.983,0,0,1,0,3.967h2.524a1.983,1.983,0,1,0,0-3.967Z" transform="translate(-364.831 -317.715)" fill="#d0e7f2"/>
        <path id="Trazado_1066556" data-name="Trazado 1066556" d="M221.067,425.977h-7.273a1.983,1.983,0,1,1,0-3.967h7.273a1.983,1.983,0,1,1,0,3.967Z" transform="translate(-195.514 -374.502)" fill="#00f2a6"/>
        <path id="Trazado_1066557" data-name="Trazado 1066557" d="M273.077,422.01h-2.524a1.983,1.983,0,1,1,0,3.967h2.524a1.983,1.983,0,1,0,0-3.967Z" transform="translate(-247.524 -374.502)" fill="#05e39c"/>
        <path id="Trazado_1066558" data-name="Trazado 1066558" d="M108.528,363.839h-2.614a1.983,1.983,0,1,1,0-3.967h2.614a1.983,1.983,0,0,1,0,3.967Z" transform="translate(-99.999 -319.486)" fill="#30dde5"/>
        <path id="Trazado_1066559" data-name="Trazado 1066559" d="M124.545,359.872h-2.524a1.983,1.983,0,1,1,0,3.967h2.524a1.983,1.983,0,0,0,0-3.967Z" transform="translate(-116.016 -319.486)" fill="#02c7dd"/>
      </g>
      <g id="Grupo_1233042" data-name="Grupo 1233042" transform="translate(62.128 0)">
        <path id="Trazado_1066560" data-name="Trazado 1066560" d="M198.308,26.019h3.426a.86.86,0,0,0,0-1.719h-3.426a.86.86,0,1,0,0,1.719Z" transform="translate(-181.939 -21.515)"/>
        <path id="Trazado_1066561" data-name="Trazado 1066561" d="M323.767,31.8a.846.846,0,1,0,.846.846A.846.846,0,0,0,323.767,31.8Z" transform="translate(-293.031 -28.155)"/>
        <path id="Trazado_1066562" data-name="Trazado 1066562" d="M103.725,40.157H98.293V38.95h5.432a2.843,2.843,0,1,0,0-5.686H91.162a2.847,2.847,0,0,0-2.789,2.29h-7.1a2.656,2.656,0,0,0-2.653,2.653V42.37H74.226a2.848,2.848,0,0,0-2.71-1.983H68.9a2.846,2.846,0,0,0-2.843,2.843,2.94,2.94,0,0,0,3.29,2.843v2.485A2.656,2.656,0,0,0,72,51.211h3.2a.86.86,0,0,0,0-1.719H72a.935.935,0,0,1-.934-.934V46.072a3,3,0,0,0,3.157-1.983h14.31a2.847,2.847,0,0,0,2.626,1.754h5.412V54a2.968,2.968,0,0,1-2.965,2.965h-26.8A2.968,2.968,0,0,1,63.847,54V4.684a2.968,2.968,0,0,1,2.965-2.965h3.346l.388,2.025a4.038,4.038,0,0,0,3.961,3.274H85.913a4.038,4.038,0,0,0,3.961-3.274l.388-2.025h3.347a2.968,2.968,0,0,1,2.965,2.965V29.85a.86.86,0,1,0,1.719,0V4.684A4.689,4.689,0,0,0,93.609,0h-26.8a4.689,4.689,0,0,0-4.684,4.684V54a4.689,4.689,0,0,0,4.684,4.684h26.8A4.689,4.689,0,0,0,98.293,54V45.843h5.432a2.843,2.843,0,1,0,0-5.686Zm-32.209,4.2H68.9a1.124,1.124,0,1,1,0-2.248h2.614a1.124,1.124,0,1,1,0,2.248ZM88.511,1.719l-.326,1.7A2.316,2.316,0,0,1,85.913,5.3H74.507a2.316,2.316,0,0,1-2.272-1.879l-.326-1.7Zm2.651,33.264h12.563a1.124,1.124,0,1,1,0,2.248H91.162a1.124,1.124,0,0,1,0-2.248ZM80.338,38.207a.935.935,0,0,1,.934-.934h7.3a2.846,2.846,0,0,0,2.592,1.677h5.412v1.207H91.162A2.847,2.847,0,0,0,88.39,42.37H80.338V38.207Zm23.388,5.916H91.162a1.124,1.124,0,1,1,0-2.248h12.563a1.124,1.124,0,1,1,0,2.248Z" transform="translate(-62.128 0)"/>
        <path id="Trazado_1066563" data-name="Trazado 1066563" d="M214.426,420.2a2.843,2.843,0,0,0,0-5.686h-7.273a2.843,2.843,0,0,0,0,5.686Zm-8.4-2.843a1.125,1.125,0,0,1,1.124-1.124h7.273a1.124,1.124,0,0,1,0,2.248h-7.273A1.125,1.125,0,0,1,206.029,417.352Z" transform="translate(-188.014 -367.001)"/>
        <path id="Trazado_1066564" data-name="Trazado 1066564" d="M102.716,106.861a.859.859,0,0,0-.86.86v9.464c-.127,2.719,2.682,5.181,5.561,5.149,2.811.084,5.861-2.345,5.716-5.159v-9.455a.86.86,0,1,0-1.719,0v9.455c.093,1.849-1.947,3.45-4,3.44-1.8.063-3.961-1.6-3.835-3.43v-9.464A.86.86,0,0,0,102.716,106.861Z" transform="translate(-97.299 -94.613)"/>
        <path id="Trazado_1066565" data-name="Trazado 1066565" d="M226.042,121.048a.9.9,0,0,0,1.2-.169l4.759-6.311,4.976,6.557a.871.871,0,0,0,1.2.165.86.86,0,0,0,.165-1.2l-5.27-6.944,4.5-5.967a.86.86,0,0,0-1.373-1.035L232,111.718l-4.235-5.581a.86.86,0,1,0-1.369,1.039l4.529,5.968-5.051,6.7A.859.859,0,0,0,226.042,121.048Z" transform="translate(-206.953 -93.671)"/>
      </g>
    </g>
  </g>
</svg>
