<svg xmlns="http://www.w3.org/2000/svg" xmlns:xlink="http://www.w3.org/1999/xlink" width="295" height="286" viewBox="0 0 295 286">
  <defs>
    <clipPath id="clip-path">
      <rect id="Rectángulo_426547" data-name="Rectángulo 426547" width="295" height="286" transform="translate(-1416 3789)" fill="#fff" stroke="#707070" stroke-width="1"/>
    </clipPath>
  </defs>
  <g id="Enmascarar_grupo_1211627" data-name="Enmascarar grupo 1211627" transform="translate(1416 -3789)" clip-path="url(#clip-path)">
    <g id="OBJECTS" transform="translate(-1508.172 3735.33)">
      <g id="Grupo_1236722" data-name="Grupo 1236722" transform="translate(92.173 88.025)">
        <g id="Grupo_1236708" data-name="Grupo 1236708" transform="translate(26.087 16.559)">
          <rect id="Rectángulo_426551" data-name="Rectángulo 426551" width="34.899" height="51.891" transform="translate(106.224 145.989)" fill="#201d33"/>
          <rect id="Rectángulo_426552" data-name="Rectángulo 426552" width="34.899" height="15.832" transform="translate(106.224 145.989)" fill="#201d33" opacity="0.4"/>
          <path id="Trazado_1071095" data-name="Trazado 1071095" d="M376.988,113.769H135.817a3.091,3.091,0,0,0-3.088,3.088V267.091a3.092,3.092,0,0,0,3.088,3.088H376.988a3.092,3.092,0,0,0,3.088-3.088V116.857A3.091,3.091,0,0,0,376.988,113.769Z" transform="translate(-132.729 -113.769)" fill="#dedef9"/>
          <path id="Trazado_1071096" data-name="Trazado 1071096" d="M377.182,114.3H136a2.742,2.742,0,0,0-2.742,2.742V267.284A2.742,2.742,0,0,0,136,270.026H377.182a2.742,2.742,0,0,0,2.742-2.742V117.042A2.743,2.743,0,0,0,377.182,114.3Z" transform="translate(-132.919 -113.958)" fill="#201d33"/>
          <rect id="Rectángulo_426553" data-name="Rectángulo 426553" width="241.196" height="139.512" transform="translate(3.075 2.977)" fill="#201d33"/>
          <g id="Grupo_1236701" data-name="Grupo 1236701" transform="translate(8.35 9.006)">
            <g id="Grupo_1236699" data-name="Grupo 1236699">
              <rect id="Rectángulo_426554" data-name="Rectángulo 426554" width="228.86" height="125.669" transform="translate(0.893 0.893)" fill="none" stroke="#fff" stroke-miterlimit="10" stroke-width="0.25"/>
              <rect id="Rectángulo_426555" data-name="Rectángulo 426555" width="1.786" height="1.786" fill="#fff"/>
              <rect id="Rectángulo_426556" data-name="Rectángulo 426556" width="1.786" height="1.786" transform="translate(0 125.669)" fill="#fff"/>
              <rect id="Rectángulo_426557" data-name="Rectángulo 426557" width="1.786" height="1.786" transform="translate(228.86)" fill="#fff"/>
              <rect id="Rectángulo_426558" data-name="Rectángulo 426558" width="1.786" height="1.786" transform="translate(228.86 125.669)" fill="#fff"/>
            </g>
            <path id="Trazado_1071097" data-name="Trazado 1071097" d="M371.9,132.953H154.165a2.852,2.852,0,0,0-2.852,2.852v114.54a2.852,2.852,0,0,0,2.852,2.852H371.9a2.852,2.852,0,0,0,2.852-2.852V135.805A2.852,2.852,0,0,0,371.9,132.953Z" transform="translate(-147.71 -129.619)" fill="#322f51"/>
            <path id="Trazado_1071098" data-name="Trazado 1071098" d="M371.9,132.953H154.165a2.852,2.852,0,0,0-2.852,2.852V142.6h223.44v-6.791A2.852,2.852,0,0,0,371.9,132.953Z" transform="translate(-147.71 -129.619)" fill="#7676dd"/>
            <g id="Grupo_1236700" data-name="Grupo 1236700" transform="translate(6.533 7.49)">
              <circle id="Elipse_13972" data-name="Elipse 13972" cx="1.408" cy="1.408" r="1.408" fill="#ffb266"/>
              <path id="Trazado_1071099" data-name="Trazado 1071099" d="M167.025,140.823a1.408,1.408,0,1,0-1.408,1.408A1.408,1.408,0,0,0,167.025,140.823Z" transform="translate(-158.843 -139.415)" fill="#ed5160"/>
              <circle id="Elipse_13973" data-name="Elipse 13973" cx="1.408" cy="1.408" r="1.408" transform="translate(10.732)" fill="#dedef9"/>
            </g>
          </g>
          <g id="Grupo_1236702" data-name="Grupo 1236702" transform="translate(113.96 60.677)">
            <rect id="Rectángulo_426559" data-name="Rectángulo 426559" width="99.509" height="63.524" transform="translate(2.35 2.316)" fill="#fff"/>
            <rect id="Rectángulo_426560" data-name="Rectángulo 426560" width="97.298" height="61.307" transform="translate(3.455 3.425)" fill="#dedef9"/>
            <path id="Trazado_1071100" data-name="Trazado 1071100" d="M429.078,245.973a4.392,4.392,0,0,0-3.985,2.545c-.094-.006-.188-.01-.283-.01a4.347,4.347,0,0,0-4.017,2.685,3.085,3.085,0,0,0-.364-.024,3.008,3.008,0,1,0,0,6.017h17.323a2.984,2.984,0,1,0,0-5.968,3.021,3.021,0,0,0-.369.025,4.347,4.347,0,0,0-4.037-2.735c-.1,0-.189,0-.283.01a4.392,4.392,0,0,0-3.985-2.546Z" transform="translate(-348.26 -221.613)" fill="#fff"/>
            <path id="Trazado_1071101" data-name="Trazado 1071101" d="M402.392,265.166a25.8,25.8,0,0,0-51.6,0C350.794,279.414,402.392,279.414,402.392,265.166Z" transform="translate(-324.489 -219.257)" fill="#ffd766"/>
            <path id="Trazado_1071102" data-name="Trazado 1071102" d="M342.554,248.46a4.391,4.391,0,0,0-3.985,2.546c-.094-.006-.188-.01-.283-.01a4.347,4.347,0,0,0-4.017,2.685,3.093,3.093,0,0,0-.364-.024,3.008,3.008,0,0,0,0,6.017h17.323a2.984,2.984,0,1,0,0-5.968,3.04,3.04,0,0,0-.369.025A4.347,4.347,0,0,0,346.822,251c-.1,0-.189,0-.283.01a4.39,4.39,0,0,0-3.985-2.546Z" transform="translate(-317.39 -222.501)" fill="#fff"/>
            <path id="Trazado_1071103" data-name="Trazado 1071103" d="M367.8,225.718a2.008,2.008,0,0,0-1.821,1.163c-.042,0-.086,0-.129,0a1.987,1.987,0,0,0-1.836,1.227,1.423,1.423,0,0,0-.167-.011,1.375,1.375,0,0,0,0,2.749h7.915a1.364,1.364,0,0,0,0-2.727,1.326,1.326,0,0,0-.169.012,1.987,1.987,0,0,0-1.845-1.25c-.044,0-.087,0-.129,0a2,2,0,0,0-1.82-1.163Z" transform="translate(-328.654 -214.387)" fill="#fff"/>
            <path id="Trazado_1071104" data-name="Trazado 1071104" d="M397.077,223.31a1.068,1.068,0,0,0-.969.619l-.069,0a1.057,1.057,0,0,0-.977.653.671.671,0,0,0-.089-.006.731.731,0,0,0,0,1.463h4.213a.726.726,0,1,0,0-1.451.683.683,0,0,0-.089.006,1.057,1.057,0,0,0-.982-.665l-.069,0a1.067,1.067,0,0,0-.969-.619Z" transform="translate(-339.99 -213.528)" fill="#fff"/>
            <path id="Trazado_1071105" data-name="Trazado 1071105" d="M447.688,229.445a1.068,1.068,0,0,0-.969.619l-.069,0a1.057,1.057,0,0,0-.977.653.675.675,0,0,0-.089-.006.731.731,0,0,0,0,1.463H449.8a.726.726,0,0,0,0-1.451.681.681,0,0,0-.089.006,1.057,1.057,0,0,0-.982-.665l-.069,0a1.068,1.068,0,0,0-.969-.619Z" transform="translate(-358.047 -215.717)" fill="#fff"/>
            <path id="Trazado_1071106" data-name="Trazado 1071106" d="M330.108,234.429a1.068,1.068,0,0,0-.969.619l-.069,0a1.057,1.057,0,0,0-.977.653.674.674,0,0,0-.089-.006.731.731,0,0,0,0,1.463h4.212a.726.726,0,0,0,0-1.451.835.835,0,0,0-.09.006,1.057,1.057,0,0,0-.982-.665l-.069,0a1.066,1.066,0,0,0-.968-.618Z" transform="translate(-316.097 -217.495)" fill="#fff"/>
            <rect id="Rectángulo_426561" data-name="Rectángulo 426561" width="97.298" height="18.98" transform="translate(3.455 45.751)" fill="#7676dd"/>
            <rect id="Rectángulo_426562" data-name="Rectángulo 426562" width="102.423" height="65.984" transform="translate(0.893 1.086)" fill="none" stroke="#fff" stroke-miterlimit="10" stroke-width="0.25"/>
            <rect id="Rectángulo_426563" data-name="Rectángulo 426563" width="1.786" height="1.786" transform="translate(0)" fill="#fff"/>
            <rect id="Rectángulo_426564" data-name="Rectángulo 426564" width="1.786" height="1.786" transform="translate(0 66.177)" fill="#fff"/>
            <rect id="Rectángulo_426565" data-name="Rectángulo 426565" width="1.786" height="1.786" transform="translate(102.423)" fill="#fff"/>
            <rect id="Rectángulo_426566" data-name="Rectángulo 426566" width="1.786" height="1.786" transform="translate(102.423 66.177)" fill="#fff"/>
          </g>
          <g id="Grupo_1236703" data-name="Grupo 1236703" transform="translate(113.96 27.456)">
            <rect id="Rectángulo_426567" data-name="Rectángulo 426567" width="26.806" height="26.966" transform="translate(2.35 2.734)" fill="#ffd766"/>
            <rect id="Rectángulo_426568" data-name="Rectángulo 426568" width="26.806" height="10.516" transform="translate(2.35 2.734)" fill="#201d33" opacity="0.1"/>
            <rect id="Rectángulo_426569" data-name="Rectángulo 426569" width="26.806" height="26.966" transform="translate(38.702 2.734)" fill="#7676dd"/>
            <rect id="Rectángulo_426570" data-name="Rectángulo 426570" width="26.806" height="26.966" transform="translate(75.053 2.734)" fill="#ed5160"/>
            <rect id="Rectángulo_426571" data-name="Rectángulo 426571" width="102.423" height="30.238" transform="translate(0.893 1.086)" fill="none" stroke="#fff" stroke-miterlimit="10" stroke-width="0.25"/>
            <rect id="Rectángulo_426572" data-name="Rectángulo 426572" width="1.786" height="1.786" transform="translate(0)" fill="#fff"/>
            <rect id="Rectángulo_426573" data-name="Rectángulo 426573" width="1.786" height="1.786" transform="translate(0 30.431)" fill="#fff"/>
            <rect id="Rectángulo_426574" data-name="Rectángulo 426574" width="1.786" height="1.786" transform="translate(102.423)" fill="#fff"/>
            <rect id="Rectángulo_426575" data-name="Rectángulo 426575" width="1.786" height="1.786" transform="translate(102.423 30.431)" fill="#fff"/>
            <circle id="Elipse_13974" data-name="Elipse 13974" cx="6.782" cy="6.782" r="6.782" transform="translate(8.97 6.468)" fill="#fff"/>
            <path id="Trazado_1071107" data-name="Trazado 1071107" d="M331.791,184.335a6.757,6.757,0,0,0,4.73-1.927,4.817,4.817,0,0,0-9.461,0A6.754,6.754,0,0,0,331.791,184.335Z" transform="translate(-316.021 -164.321)" fill="#dedef9"/>
            <path id="Trazado_1071108" data-name="Trazado 1071108" d="M333.346,178.5a4.534,4.534,0,0,0-1.927.432,3.358,3.358,0,0,0,1.91.538,3.278,3.278,0,0,0,1.926-.547A4.543,4.543,0,0,0,333.346,178.5Z" transform="translate(-317.576 -164.321)" fill="#201d33" opacity="0.1"/>
            <path id="Trazado_1071109" data-name="Trazado 1071109" d="M335.692,173.723a2.925,2.925,0,1,0-2.925,2.925A2.925,2.925,0,0,0,335.692,173.723Z" transform="translate(-317.013 -161.572)" fill="#dedef9"/>
            <path id="Trazado_1071110" data-name="Trazado 1071110" d="M331.443,190.411H320.5a.646.646,0,0,0-.646.646h0a.646.646,0,0,0,.646.646h10.944a.646.646,0,0,0,.646-.646h0A.646.646,0,0,0,331.443,190.411Z" transform="translate(-313.45 -168.569)" fill="#201d33"/>
            <path id="Trazado_1071111" data-name="Trazado 1071111" d="M329.057,194.075H322.41a.457.457,0,0,0-.457.457h0a.457.457,0,0,0,.457.457h6.648a.457.457,0,0,0,.457-.457h0A.456.456,0,0,0,329.057,194.075Z" transform="translate(-314.199 -169.876)" fill="#fff"/>
            <path id="Trazado_1071112" data-name="Trazado 1071112" d="M342.224,194.075h-6.648a.457.457,0,0,0-.457.457h0a.457.457,0,0,0,.457.457h6.648a.457.457,0,0,0,.457-.457h0A.456.456,0,0,0,342.224,194.075Z" transform="translate(-318.897 -169.876)" fill="#fff"/>
            <path id="Trazado_1071113" data-name="Trazado 1071113" d="M322.42,196.42h-2.237a.457.457,0,0,0-.457.457h0a.457.457,0,0,0,.457.457h2.237a.457.457,0,0,0,.457-.457h0A.457.457,0,0,0,322.42,196.42Z" transform="translate(-313.404 -170.713)" fill="#fff"/>
            <path id="Trazado_1071114" data-name="Trazado 1071114" d="M329.131,196.42h-3.177a.457.457,0,0,0-.457.457h0a.457.457,0,0,0,.457.457h3.177a.457.457,0,0,0,.457-.457h0A.456.456,0,0,0,329.131,196.42Z" transform="translate(-315.463 -170.713)" fill="#fff"/>
            <path id="Trazado_1071115" data-name="Trazado 1071115" d="M342.815,196.42h-9.6a.457.457,0,0,0-.457.457h0a.457.457,0,0,0,.457.457h9.6a.457.457,0,0,0,.457-.457h0A.457.457,0,0,0,342.815,196.42Z" transform="translate(-318.054 -170.713)" fill="#fff"/>
            <path id="Trazado_1071116" data-name="Trazado 1071116" d="M345.566,190.411h-3.692a.646.646,0,0,0-.646.646h0a.646.646,0,0,0,.646.646h3.692a.646.646,0,0,0,.646-.646h0A.646.646,0,0,0,345.566,190.411Z" transform="translate(-321.076 -168.569)" fill="#201d33"/>
            <rect id="Rectángulo_426576" data-name="Rectángulo 426576" width="26.806" height="10.516" transform="translate(38.702 2.734)" fill="#201d33" opacity="0.1"/>
            <circle id="Elipse_13975" data-name="Elipse 13975" cx="6.782" cy="6.782" r="6.782" transform="translate(45.322 6.468)" fill="#fff"/>
            <path id="Trazado_1071117" data-name="Trazado 1071117" d="M388.305,184.335a6.757,6.757,0,0,0,4.73-1.927,4.817,4.817,0,0,0-9.461,0A6.755,6.755,0,0,0,388.305,184.335Z" transform="translate(-336.184 -164.321)" fill="#dedef9"/>
            <path id="Trazado_1071118" data-name="Trazado 1071118" d="M389.86,178.5a4.534,4.534,0,0,0-1.927.432,3.358,3.358,0,0,0,1.91.538,3.278,3.278,0,0,0,1.926-.547A4.54,4.54,0,0,0,389.86,178.5Z" transform="translate(-337.739 -164.321)" fill="#201d33" opacity="0.1"/>
            <path id="Trazado_1071119" data-name="Trazado 1071119" d="M392.206,173.723a2.925,2.925,0,1,0-2.925,2.925A2.925,2.925,0,0,0,392.206,173.723Z" transform="translate(-337.176 -161.572)" fill="#dedef9"/>
            <path id="Trazado_1071120" data-name="Trazado 1071120" d="M387.957,190.411H377.013a.646.646,0,0,0-.646.646h0a.646.646,0,0,0,.646.646h10.944a.646.646,0,0,0,.646-.646h0A.646.646,0,0,0,387.957,190.411Z" transform="translate(-333.612 -168.569)" fill="#201d33"/>
            <path id="Trazado_1071121" data-name="Trazado 1071121" d="M385.572,194.075h-6.648a.457.457,0,0,0-.457.457h0a.457.457,0,0,0,.457.457h6.648a.457.457,0,0,0,.457-.457h0A.457.457,0,0,0,385.572,194.075Z" transform="translate(-334.362 -169.876)" fill="#fff"/>
            <path id="Trazado_1071122" data-name="Trazado 1071122" d="M398.739,194.075h-6.648a.457.457,0,0,0-.457.457h0a.457.457,0,0,0,.457.457h6.648a.457.457,0,0,0,.457-.457h0A.456.456,0,0,0,398.739,194.075Z" transform="translate(-339.06 -169.876)" fill="#fff"/>
            <path id="Trazado_1071123" data-name="Trazado 1071123" d="M378.935,196.42H376.7a.457.457,0,0,0-.457.457h0a.457.457,0,0,0,.457.457h2.237a.457.457,0,0,0,.457-.457h0A.457.457,0,0,0,378.935,196.42Z" transform="translate(-333.568 -170.713)" fill="#fff"/>
            <path id="Trazado_1071124" data-name="Trazado 1071124" d="M385.646,196.42h-3.178a.457.457,0,0,0-.457.457h0a.457.457,0,0,0,.457.457h3.178a.457.457,0,0,0,.457-.457h0A.456.456,0,0,0,385.646,196.42Z" transform="translate(-335.627 -170.713)" fill="#fff"/>
            <path id="Trazado_1071125" data-name="Trazado 1071125" d="M399.33,196.42h-9.6a.457.457,0,0,0-.457.457h0a.457.457,0,0,0,.457.457h9.6a.457.457,0,0,0,.457-.457h0A.457.457,0,0,0,399.33,196.42Z" transform="translate(-338.217 -170.713)" fill="#fff"/>
            <path id="Trazado_1071126" data-name="Trazado 1071126" d="M402.081,190.411h-3.692a.646.646,0,0,0-.646.646h0a.646.646,0,0,0,.646.646h3.692a.646.646,0,0,0,.646-.646h0A.646.646,0,0,0,402.081,190.411Z" transform="translate(-341.239 -168.569)" fill="#201d33"/>
            <rect id="Rectángulo_426577" data-name="Rectángulo 426577" width="26.806" height="10.516" transform="translate(75.053 2.734)" fill="#201d33" opacity="0.1"/>
            <circle id="Elipse_13976" data-name="Elipse 13976" cx="6.782" cy="6.782" r="6.782" transform="translate(81.674 6.468)" fill="#fff"/>
            <path id="Trazado_1071127" data-name="Trazado 1071127" d="M444.82,184.335a6.757,6.757,0,0,0,4.73-1.927,4.817,4.817,0,0,0-9.461,0A6.755,6.755,0,0,0,444.82,184.335Z" transform="translate(-356.347 -164.321)" fill="#dedef9"/>
            <path id="Trazado_1071128" data-name="Trazado 1071128" d="M446.375,178.5a4.534,4.534,0,0,0-1.927.432,3.358,3.358,0,0,0,1.91.538,3.278,3.278,0,0,0,1.926-.547A4.541,4.541,0,0,0,446.375,178.5Z" transform="translate(-357.902 -164.321)" fill="#201d33" opacity="0.1"/>
            <path id="Trazado_1071129" data-name="Trazado 1071129" d="M448.721,173.723a2.925,2.925,0,1,0-2.925,2.925A2.925,2.925,0,0,0,448.721,173.723Z" transform="translate(-357.339 -161.572)" fill="#dedef9"/>
            <path id="Trazado_1071130" data-name="Trazado 1071130" d="M444.473,190.411H433.529a.646.646,0,0,0-.646.646h0a.646.646,0,0,0,.646.646h10.944a.646.646,0,0,0,.646-.646h0A.646.646,0,0,0,444.473,190.411Z" transform="translate(-353.776 -168.569)" fill="#201d33"/>
            <path id="Trazado_1071131" data-name="Trazado 1071131" d="M442.087,194.075H435.44a.457.457,0,0,0-.457.457h0a.457.457,0,0,0,.457.457h6.648a.457.457,0,0,0,.457-.457h0A.457.457,0,0,0,442.087,194.075Z" transform="translate(-354.525 -169.876)" fill="#fff"/>
            <path id="Trazado_1071132" data-name="Trazado 1071132" d="M455.254,194.075h-6.648a.457.457,0,0,0-.457.457h0a.457.457,0,0,0,.457.457h6.648a.457.457,0,0,0,.457-.457h0A.457.457,0,0,0,455.254,194.075Z" transform="translate(-359.223 -169.876)" fill="#fff"/>
            <path id="Trazado_1071133" data-name="Trazado 1071133" d="M435.45,196.42h-2.237a.457.457,0,0,0-.457.457h0a.457.457,0,0,0,.457.457h2.237a.457.457,0,0,0,.457-.457h0A.457.457,0,0,0,435.45,196.42Z" transform="translate(-353.731 -170.713)" fill="#fff"/>
            <path id="Trazado_1071134" data-name="Trazado 1071134" d="M442.161,196.42h-3.178a.457.457,0,0,0-.457.457h0a.457.457,0,0,0,.457.457h3.178a.457.457,0,0,0,.457-.457h0A.457.457,0,0,0,442.161,196.42Z" transform="translate(-355.789 -170.713)" fill="#fff"/>
            <path id="Trazado_1071135" data-name="Trazado 1071135" d="M455.844,196.42h-9.6a.457.457,0,0,0-.457.457h0a.457.457,0,0,0,.457.457h9.6a.457.457,0,0,0,.457-.457h0A.456.456,0,0,0,455.844,196.42Z" transform="translate(-358.38 -170.713)" fill="#fff"/>
            <path id="Trazado_1071136" data-name="Trazado 1071136" d="M458.595,190.411H454.9a.646.646,0,0,0-.646.646h0a.646.646,0,0,0,.646.646h3.692a.646.646,0,0,0,.646-.646h0A.646.646,0,0,0,458.595,190.411Z" transform="translate(-361.401 -168.569)" fill="#201d33"/>
          </g>
          <g id="Grupo_1236705" data-name="Grupo 1236705" transform="translate(29.018 28.705)">
            <path id="Trazado_1071137" data-name="Trazado 1071137" d="M177.842,158.4v97.812h70.622V178.53L228.331,158.4Z" transform="translate(-177.842 -158.396)" fill="#dedef9"/>
            <path id="Trazado_1071138" data-name="Trazado 1071138" d="M256.335,178.53h20.134L256.335,158.4Z" transform="translate(-205.846 -158.396)" fill="#fff"/>
            <text id="CMS" transform="translate(12.037 48.973)" fill="#322f51" font-size="19" font-family="Montserrat-ExtraBold, Montserrat" font-weight="800"><tspan x="0" y="0">CMS</tspan></text>
            <g id="Grupo_1236704" data-name="Grupo 1236704" transform="translate(7.657 56.983)">
              <path id="Trazado_1071139" data-name="Trazado 1071139" d="M222.658,246.986h-25.6a1.7,1.7,0,0,0-1.7,1.7h0a1.7,1.7,0,0,0,1.7,1.7h25.6a1.7,1.7,0,0,0,1.7-1.7h0A1.7,1.7,0,0,0,222.658,246.986Z" transform="translate(-191.746 -246.986)" fill="#ed5160"/>
              <path id="Trazado_1071140" data-name="Trazado 1071140" d="M259.821,246.986H247.708a1.7,1.7,0,0,0-1.7,1.7h0a1.7,1.7,0,0,0,1.7,1.7h12.113a1.7,1.7,0,0,0,1.7-1.7h0A1.7,1.7,0,0,0,259.821,246.986Z" transform="translate(-209.819 -246.986)" fill="#ed5160"/>
              <path id="Trazado_1071141" data-name="Trazado 1071141" d="M222.282,258.227H190.5a.751.751,0,0,0-.751.751h0a.751.751,0,0,0,.751.751h31.786a.75.75,0,0,0,.751-.751h0A.751.751,0,0,0,222.282,258.227Z" transform="translate(-189.746 -250.997)" fill="#fff"/>
              <path id="Trazado_1071142" data-name="Trazado 1071142" d="M216.123,264.439H198.944a.75.75,0,0,0-.751.751h0a.751.751,0,0,0,.751.751h17.179a.75.75,0,0,0,.751-.751h0A.75.75,0,0,0,216.123,264.439Z" transform="translate(-192.76 -253.213)" fill="#fff"/>
              <path id="Trazado_1071143" data-name="Trazado 1071143" d="M250.738,264.439H229.776a.751.751,0,0,0-.751.751h0a.751.751,0,0,0,.751.751h20.963a.75.75,0,0,0,.751-.751h0A.751.751,0,0,0,250.738,264.439Z" transform="translate(-203.76 -253.213)" fill="#fff"/>
              <path id="Trazado_1071144" data-name="Trazado 1071144" d="M216.123,283.189H198.944a.75.75,0,0,0-.751.751h0a.75.75,0,0,0,.751.751h17.179a.75.75,0,0,0,.751-.751h0A.75.75,0,0,0,216.123,283.189Z" transform="translate(-192.76 -259.902)" fill="#fff"/>
              <path id="Trazado_1071145" data-name="Trazado 1071145" d="M250.738,283.189H229.776a.751.751,0,0,0-.751.751h0a.751.751,0,0,0,.751.751h20.963a.75.75,0,0,0,.751-.751h0A.751.751,0,0,0,250.738,283.189Z" transform="translate(-203.76 -259.902)" fill="#fff"/>
              <path id="Trazado_1071146" data-name="Trazado 1071146" d="M225.6,270.65H193.811a.751.751,0,0,0-.751.751h0a.75.75,0,0,0,.751.751H225.6a.75.75,0,0,0,.751-.751h0A.751.751,0,0,0,225.6,270.65Z" transform="translate(-190.928 -255.429)" fill="#fff"/>
              <path id="Trazado_1071147" data-name="Trazado 1071147" d="M262.146,270.65H247.874a.75.75,0,0,0-.751.751h0a.75.75,0,0,0,.751.751h14.272a.75.75,0,0,0,.751-.751h0A.751.751,0,0,0,262.146,270.65Z" transform="translate(-210.217 -255.429)" fill="#fff"/>
              <path id="Trazado_1071148" data-name="Trazado 1071148" d="M219.391,276.862H204.27a.75.75,0,0,0-.751.751h0a.75.75,0,0,0,.751.751h15.122a.75.75,0,0,0,.751-.751h0A.751.751,0,0,0,219.391,276.862Z" transform="translate(-194.66 -257.645)" fill="#fff"/>
              <path id="Trazado_1071149" data-name="Trazado 1071149" d="M240.75,276.862h-8.636a.75.75,0,0,0-.751.751h0a.75.75,0,0,0,.751.751h8.636a.75.75,0,0,0,.751-.751h0A.75.75,0,0,0,240.75,276.862Z" transform="translate(-204.594 -257.645)" fill="#fff"/>
              <path id="Trazado_1071150" data-name="Trazado 1071150" d="M254.193,276.862h-4.128a.751.751,0,0,0-.751.751h0a.75.75,0,0,0,.751.751h4.128a.75.75,0,0,0,.751-.751h0A.75.75,0,0,0,254.193,276.862Z" transform="translate(-210.999 -257.645)" fill="#fff"/>
              <path id="Trazado_1071151" data-name="Trazado 1071151" d="M232.974,291.16H248.1a.75.75,0,0,0,.751-.751h0a.751.751,0,0,0-.751-.751H232.974a.751.751,0,0,0-.751.751h0A.75.75,0,0,0,232.974,291.16Z" transform="translate(-204.901 -262.211)" fill="#fff"/>
              <path id="Trazado_1071152" data-name="Trazado 1071152" d="M215.212,291.16h8.636a.75.75,0,0,0,.751-.751h0a.751.751,0,0,0-.751-.751h-8.636a.751.751,0,0,0-.751.751h0A.751.751,0,0,0,215.212,291.16Z" transform="translate(-198.564 -262.211)" fill="#fff"/>
              <path id="Trazado_1071153" data-name="Trazado 1071153" d="M204.269,291.16H208.4a.751.751,0,0,0,.751-.751h0a.751.751,0,0,0-.751-.751h-4.128a.751.751,0,0,0-.751.751h0A.751.751,0,0,0,204.269,291.16Z" transform="translate(-194.66 -262.211)" fill="#fff"/>
              <path id="Trazado_1071154" data-name="Trazado 1071154" d="M263.763,258.227H245.036a.75.75,0,0,0-.751.751h0a.751.751,0,0,0,.751.751h18.727a.751.751,0,0,0,.751-.751h0A.751.751,0,0,0,263.763,258.227Z" transform="translate(-209.204 -250.997)" fill="#fff"/>
            </g>
          </g>
          <g id="Grupo_1236706" data-name="Grupo 1236706" transform="translate(3.075 2.977)" opacity="0.05">
            <path id="Trazado_1071155" data-name="Trazado 1071155" d="M156.838,118.4,137.51,137.726V257.91h13.117L290.139,118.4Z" transform="translate(-137.51 -118.398)" fill="#fff"/>
            <path id="Trazado_1071156" data-name="Trazado 1071156" d="M313.92,118.4,174.408,257.91h23.058L336.977,118.4Z" transform="translate(-150.674 -118.398)" fill="#fff"/>
            <path id="Trazado_1071157" data-name="Trazado 1071157" d="M366.272,118.4,226.76,257.91h133.3l50.488-50.488V118.4Z" transform="translate(-169.352 -118.398)" fill="#fff"/>
            <path id="Trazado_1071158" data-name="Trazado 1071158" d="M473.561,313.177l16.814-16.814V273.3L450.5,313.177Z" transform="translate(-249.178 -173.665)" fill="#fff"/>
          </g>
          <path id="Trazado_1071159" data-name="Trazado 1071159" d="M378.61,118.494V257.813h-241V118.494h241m.1-.1H137.51V257.91h241.2V118.4Z" transform="translate(-134.435 -115.421)" fill="#7676dd"/>
          <path id="Trazado_1071160" data-name="Trazado 1071160" d="M133.261,347.413a2.747,2.747,0,0,0,2.747,2.747h241.17a2.747,2.747,0,0,0,2.747-2.747V338.9H133.261Z" transform="translate(-132.919 -194.091)" fill="#fff"/>
          <path id="Trazado_1071161" data-name="Trazado 1071161" d="M345.108,416.972H247.7a2.852,2.852,0,0,0-2.852,2.852h0a2.852,2.852,0,0,0,2.852,2.852h97.411a2.852,2.852,0,0,0,2.852-2.852h0A2.852,2.852,0,0,0,345.108,416.972Z" transform="translate(-172.729 -221.944)" fill="#322f51"/>
          <path id="Trazado_1071162" data-name="Trazado 1071162" d="M247.7,417.17h97.411a2.847,2.847,0,0,1,2.842,2.753c0-.033.01-.065.01-.1a2.852,2.852,0,0,0-2.852-2.852H247.7a2.852,2.852,0,0,0-2.852,2.852c0,.034.009.066.01.1A2.846,2.846,0,0,1,247.7,417.17Z" transform="translate(-172.729 -221.944)" fill="#7676dd"/>
          <path id="Trazado_1071163" data-name="Trazado 1071163" d="M345.108,422.434H247.7a2.846,2.846,0,0,1-2.751-2.138,2.814,2.814,0,0,0-.1.714,2.852,2.852,0,0,0,2.852,2.852h97.411a2.818,2.818,0,0,0,2.751-3.566A2.846,2.846,0,0,1,345.108,422.434Z" transform="translate(-172.729 -223.13)" fill="#201d33"/>
        </g>
        <g id="Grupo_1236721" data-name="Grupo 1236721">
          <g id="Grupo_1236709" data-name="Grupo 1236709" transform="translate(1.172 49.956)">
            <path id="Trazado_1071166" data-name="Trazado 1071166" d="M131.992,268.432a11.5,11.5,0,0,1,10.394,6.641,2.86,2.86,0,0,0,2.593,1.656c.061,0,.123,0,.185-.006.288-.019.523-.027.738-.027a11.256,11.256,0,0,1,10.5,7.117,2.861,2.861,0,0,0,2.655,1.8,2.816,2.816,0,0,0,.352-.022,6.863,6.863,0,1,1,.852,13.672H103.8a6.946,6.946,0,0,1,0-13.891,7.062,7.062,0,0,1,.844.058,2.831,2.831,0,0,0,.345.021,2.86,2.86,0,0,0,2.641-1.766,11.279,11.279,0,0,1,10.451-6.987c.215,0,.45.008.738.027.062,0,.123.006.185.006a2.861,2.861,0,0,0,2.593-1.656,11.5,11.5,0,0,1,10.395-6.641m0-2.86a14.315,14.315,0,0,0-12.989,8.3c-.306-.02-.612-.033-.922-.033a14.17,14.17,0,0,0-13.094,8.754,9.8,9.8,0,1,0-1.187,19.533h56.462a9.726,9.726,0,1,0-1.2-19.371,14.169,14.169,0,0,0-13.158-8.916c-.31,0-.617.014-.922.033a14.313,14.313,0,0,0-12.988-8.3Z" transform="translate(-93.994 -201.325)" fill="#fff"/>
            <path id="Trazado_1071167" data-name="Trazado 1071167" d="M484.185,168.006a9.312,9.312,0,0,1,8.417,5.377,2.316,2.316,0,0,0,2.1,1.341c.05,0,.1,0,.149,0,.234-.015.424-.022.6-.022a9.115,9.115,0,0,1,8.5,5.763,2.316,2.316,0,0,0,2.15,1.457,2.361,2.361,0,0,0,.285-.017,5.557,5.557,0,1,1,.69,11.071h-45.72a5.625,5.625,0,1,1,.683-11.2,2.261,2.261,0,0,0,.279.017,2.317,2.317,0,0,0,2.139-1.43,9.133,9.133,0,0,1,8.463-5.658c.174,0,.365.007.6.022.05,0,.1,0,.149,0a2.317,2.317,0,0,0,2.1-1.341,9.31,9.31,0,0,1,8.416-5.378m0-2.316a11.591,11.591,0,0,0-10.517,6.718c-.247-.016-.5-.027-.747-.027a11.475,11.475,0,0,0-10.6,7.088,8.027,8.027,0,0,0-.961-.064,7.94,7.94,0,1,0,0,15.88h45.72a7.876,7.876,0,0,0,0-15.751,7.971,7.971,0,0,0-.974.066,11.473,11.473,0,0,0-10.654-7.22c-.252,0-.5.011-.747.027a11.59,11.59,0,0,0-10.517-6.718Z" transform="translate(-222.227 -165.69)" fill="#fff"/>
          </g>
          <g id="Grupo_1236714" data-name="Grupo 1236714" transform="translate(195.019 102.415)">
            <g id="Grupo_1236712" data-name="Grupo 1236712" transform="translate(0 20.778)">
              <g id="Grupo_1236710" data-name="Grupo 1236710">
                <path id="Trazado_1071168" data-name="Trazado 1071168" d="M455.309,310.282a27.547,27.547,0,0,0-2-9.042l3.349-3.016-6.5-9.312-3.985,2.107a27.575,27.575,0,0,0-7.8-4.989l.235-4.5-11.182-1.986-1.327,4.3a27.578,27.578,0,0,0-9.042,2l-3.016-3.35-9.312,6.5,2.107,3.985a27.54,27.54,0,0,0-4.989,7.8l-4.5-.235-1.986,11.182,4.3,1.326a27.548,27.548,0,0,0,2,9.042l-3.35,3.017,6.5,9.311,3.985-2.107a27.549,27.549,0,0,0,7.8,4.989l-.235,4.5L427.55,343.8l1.327-4.3a27.548,27.548,0,0,0,9.042-2l3.017,3.351,9.311-6.5-2.107-3.985a27.548,27.548,0,0,0,4.989-7.8l4.5.235,1.986-11.182Zm-8.17,4.8A20.3,20.3,0,1,1,430.7,291.555,20.319,20.319,0,0,1,447.139,315.086Z" transform="translate(-395.362 -279.549)" fill="#d13d52"/>
                <path id="Trazado_1071169" data-name="Trazado 1071169" d="M438.105,302.192a17.6,17.6,0,1,0,14.251,20.4A17.618,17.618,0,0,0,438.105,302.192Z" transform="translate(-403.235 -287.53)" fill="#d13d52"/>
              </g>
              <g id="Grupo_1236711" data-name="Grupo 1236711" transform="translate(1.099 1.099)">
                <path id="Trazado_1071170" data-name="Trazado 1071170" d="M454.979,311.612a26.725,26.725,0,0,0-2.214-10.021l3.226-2.9-5.527-7.914-3.837,2.029a26.737,26.737,0,0,0-8.646-5.529l.226-4.329-9.5-1.687-1.277,4.142a26.737,26.737,0,0,0-10.021,2.214l-2.9-3.226-7.914,5.527,2.029,3.837a26.737,26.737,0,0,0-5.529,8.646l-4.329-.226-1.687,9.5,4.142,1.277a26.726,26.726,0,0,0,2.214,10.021l-3.226,2.9,5.527,7.914,3.837-2.029a26.73,26.73,0,0,0,8.646,5.529l-.226,4.329,9.5,1.687,1.277-4.142a26.737,26.737,0,0,0,10.021-2.214l2.9,3.226,7.914-5.527-2.029-3.837a26.737,26.737,0,0,0,5.529-8.646l4.329.226,1.687-9.5Zm-30.93,21.469a21.26,21.26,0,1,1,24.65-17.217A21.261,21.261,0,0,1,424.049,333.081Z" transform="translate(-397.071 -281.257)" fill="#ed5160"/>
                <circle id="Elipse_13977" data-name="Elipse 13977" cx="16.634" cy="16.634" r="16.634" transform="translate(12.271 45.498) rotate(-83.443)" fill="#ed5160"/>
              </g>
            </g>
            <g id="Grupo_1236713" data-name="Grupo 1236713" transform="translate(56.23)">
              <path id="Trazado_1071171" data-name="Trazado 1071171" d="M523.616,269.77l2.916-.989-1.649-8-3.068.246a18.787,18.787,0,0,0-3.29-4.856l1.361-2.756-6.825-4.492-1.993,2.34a18.808,18.808,0,0,0-5.762-1.1l-.989-2.916-8,1.649.246,3.069a18.778,18.778,0,0,0-4.857,3.29l-2.758-1.361-4.49,6.823,2.34,1.995a18.763,18.763,0,0,0-1.1,5.762l-2.916.987,1.649,8,3.068-.246a18.8,18.8,0,0,0,3.291,4.857l-1.362,2.757,6.825,4.492,1.994-2.341a18.774,18.774,0,0,0,5.761,1.1L505,291l8-1.649-.246-3.068a18.757,18.757,0,0,0,4.856-3.29l2.758,1.361,4.49-6.825-2.34-1.993A18.772,18.772,0,0,0,523.616,269.77Zm-8.561,6.135a12.649,12.649,0,1,1-3.612-17.52A12.665,12.665,0,0,1,515.055,275.906Z" transform="translate(-482.781 -247.246)" fill="#ffbb43"/>
              <path id="Trazado_1071172" data-name="Trazado 1071172" d="M521.991,276.445a17.891,17.891,0,0,0,1.29-6.75l2.753-.933-1.305-6.331-2.9.232a17.9,17.9,0,0,0-3.855-5.689l1.285-2.6-5.4-3.554-1.883,2.21a17.889,17.889,0,0,0-6.75-1.29l-.933-2.753-6.331,1.305.232,2.9a17.9,17.9,0,0,0-5.689,3.855l-2.6-1.285-3.554,5.4,2.21,1.882a17.9,17.9,0,0,0-1.29,6.75l-2.753.933,1.305,6.331,2.9-.232a17.9,17.9,0,0,0,3.855,5.689l-1.285,2.6,5.4,3.554,1.882-2.21a17.9,17.9,0,0,0,6.75,1.29l.933,2.753,6.331-1.305-.232-2.9a17.9,17.9,0,0,0,5.689-3.855l2.6,1.285,3.554-5.4Zm-24.367,4.5a13.614,13.614,0,1,1,18.857-3.888A13.614,13.614,0,0,1,497.624,280.944Z" transform="translate(-483.401 -247.866)" fill="#ffd766"/>
            </g>
          </g>
          <g id="Grupo_1236718" data-name="Grupo 1236718" transform="translate(78.424)">
            <g id="Grupo_1236716" data-name="Grupo 1236716">
              <path id="Trazado_1071173" data-name="Trazado 1071173" d="M254.285,88.025H217.831A3.735,3.735,0,0,0,214.1,91.76v25.647a3.735,3.735,0,0,0,3.735,3.735h36.453a3.735,3.735,0,0,0,3.735-3.735V91.76A3.735,3.735,0,0,0,254.285,88.025Z" transform="translate(-214.096 -88.025)" fill="#ed5160"/>
              <rect id="Rectángulo_426578" data-name="Rectángulo 426578" width="39.899" height="24.627" transform="translate(2.013 6.35)" fill="#fff"/>
              <g id="Grupo_1236715" data-name="Grupo 1236715" transform="translate(7.711 10.115)">
                <path id="Trazado_1071174" data-name="Trazado 1071174" d="M235.34,112.988l-5.5,1.889,5.5,1.887v3.086l-9.256-3.357v-3.23l9.256-3.357Z" transform="translate(-226.084 -105.947)" fill="#7676dd"/>
                <path id="Trazado_1071175" data-name="Trazado 1071175" d="M246.9,103.751h3.629l-5.989,17.095h-3.629Z" transform="translate(-231.372 -103.751)" fill="#7676dd"/>
                <path id="Trazado_1071176" data-name="Trazado 1071176" d="M265.262,113.261v3.23l-9.256,3.357v-3.086l5.5-1.887-5.5-1.889V109.9Z" transform="translate(-236.759 -105.946)" fill="#7676dd"/>
              </g>
              <circle id="Elipse_13978" data-name="Elipse 13978" cx="0.921" cy="0.921" r="0.921" transform="translate(10.186 2.729)" fill="#7676dd"/>
              <circle id="Elipse_13979" data-name="Elipse 13979" cx="0.921" cy="0.921" r="0.921" transform="translate(6.1 2.729)" fill="#fff"/>
              <circle id="Elipse_13980" data-name="Elipse 13980" cx="0.921" cy="0.921" r="0.921" transform="translate(2.013 2.729)" fill="#ffb266"/>
            </g>
            <g id="Grupo_1236717" data-name="Grupo 1236717" transform="translate(49.384)">
              <path id="Trazado_1071177" data-name="Trazado 1071177" d="M331.06,88.025H294.606a3.735,3.735,0,0,0-3.735,3.735v25.647a3.735,3.735,0,0,0,3.735,3.735H331.06a3.735,3.735,0,0,0,3.735-3.735V91.76A3.735,3.735,0,0,0,331.06,88.025Z" transform="translate(-290.871 -88.025)" fill="#fff"/>
              <rect id="Rectángulo_426579" data-name="Rectángulo 426579" width="39.899" height="24.627" transform="translate(2.013 6.35)" fill="#322f51"/>
              <path id="Trazado_1071178" data-name="Trazado 1071178" d="M306.707,93.189a.921.921,0,1,1,.921.921A.921.921,0,0,1,306.707,93.189Z" transform="translate(-296.521 -89.539)" fill="#7676dd"/>
              <circle id="Elipse_13981" data-name="Elipse 13981" cx="0.921" cy="0.921" r="0.921" transform="translate(6.099 2.729)" fill="#ed5160"/>
              <circle id="Elipse_13982" data-name="Elipse 13982" cx="0.921" cy="0.921" r="0.921" transform="translate(2.013 2.729)" fill="#ffb266"/>
              <path id="Trazado_1071179" data-name="Trazado 1071179" d="M319.366,105.735h-18.15a1.072,1.072,0,0,0-1.072,1.072h0a1.072,1.072,0,0,0,1.072,1.072h18.15a1.072,1.072,0,0,0,1.072-1.072h0A1.071,1.071,0,0,0,319.366,105.735Z" transform="translate(-294.179 -94.343)" fill="#7676dd"/>
              <path id="Trazado_1071180" data-name="Trazado 1071180" d="M315.41,111.811H304.386a.757.757,0,0,0-.758.758h0a.757.757,0,0,0,.758.758H315.41a.757.757,0,0,0,.758-.758h0A.757.757,0,0,0,315.41,111.811Z" transform="translate(-295.422 -96.511)" fill="#fff"/>
              <path id="Trazado_1071181" data-name="Trazado 1071181" d="M337.247,111.811H326.223a.757.757,0,0,0-.758.758h0a.757.757,0,0,0,.758.758h11.024a.757.757,0,0,0,.758-.758h0A.757.757,0,0,0,337.247,111.811Z" transform="translate(-303.213 -96.511)" fill="#fff"/>
              <path id="Trazado_1071182" data-name="Trazado 1071182" d="M304.4,115.7h-3.71a.757.757,0,0,0-.758.758h0a.757.757,0,0,0,.758.758h3.71a.757.757,0,0,0,.758-.758h0A.758.758,0,0,0,304.4,115.7Z" transform="translate(-294.104 -97.898)" fill="#fff"/>
              <path id="Trazado_1071183" data-name="Trazado 1071183" d="M315.532,115.7h-5.271a.757.757,0,0,0-.758.758h0a.757.757,0,0,0,.758.758h5.271a.757.757,0,0,0,.758-.758h0A.758.758,0,0,0,315.532,115.7Z" transform="translate(-297.519 -97.898)" fill="#fff"/>
              <path id="Trazado_1071184" data-name="Trazado 1071184" d="M338.225,115.7H322.3a.757.757,0,0,0-.758.758h0a.757.757,0,0,0,.758.758h15.92a.757.757,0,0,0,.758-.758h0A.758.758,0,0,0,338.225,115.7Z" transform="translate(-301.815 -97.898)" fill="#fff"/>
              <path id="Trazado_1071185" data-name="Trazado 1071185" d="M326.223,125.57h11.024a.757.757,0,0,0,.758-.758h0a.758.758,0,0,0-.758-.758H326.223a.758.758,0,0,0-.758.758h0A.757.757,0,0,0,326.223,125.57Z" transform="translate(-303.213 -100.88)" fill="#fff"/>
              <path id="Trazado_1071186" data-name="Trazado 1071186" d="M304.386,125.57H315.41a.757.757,0,0,0,.758-.758h0a.758.758,0,0,0-.758-.758H304.386a.758.758,0,0,0-.758.758h0A.757.757,0,0,0,304.386,125.57Z" transform="translate(-295.422 -100.88)" fill="#fff"/>
              <path id="Trazado_1071187" data-name="Trazado 1071187" d="M341.288,121.682H345a.757.757,0,0,0,.758-.758h0a.757.757,0,0,0-.758-.758h-3.71a.757.757,0,0,0-.758.758h0A.758.758,0,0,0,341.288,121.682Z" transform="translate(-308.588 -99.492)" fill="#fff"/>
              <path id="Trazado_1071188" data-name="Trazado 1071188" d="M329.292,121.682h5.27a.757.757,0,0,0,.758-.758h0a.757.757,0,0,0-.758-.758h-5.27a.757.757,0,0,0-.758.758h0A.758.758,0,0,0,329.292,121.682Z" transform="translate(-304.308 -99.492)" fill="#fff"/>
              <path id="Trazado_1071189" data-name="Trazado 1071189" d="M300.692,121.682h15.92a.757.757,0,0,0,.758-.758h0a.757.757,0,0,0-.758-.758h-15.92a.757.757,0,0,0-.758.758h0A.758.758,0,0,0,300.692,121.682Z" transform="translate(-294.104 -99.492)" fill="#fff"/>
              <path id="Trazado_1071190" data-name="Trazado 1071190" d="M342.34,105.735h-6.929a1.072,1.072,0,0,0-1.072,1.072h0a1.072,1.072,0,0,0,1.072,1.072h6.929a1.072,1.072,0,0,0,1.072-1.072h0A1.071,1.071,0,0,0,342.34,105.735Z" transform="translate(-306.38 -94.343)" fill="#7676dd"/>
            </g>
          </g>
          <g id="Grupo_1236720" data-name="Grupo 1236720" transform="translate(0 48.788)">
            <path id="Trazado_1071191" data-name="Trazado 1071191" d="M139.488,187.647l-44.558,41.4a8.635,8.635,0,0,0-.448,12.2h0a8.635,8.635,0,0,0,12.2.448l44.558-41.4a8.635,8.635,0,0,0,.448-12.2h0A8.633,8.633,0,0,0,139.488,187.647Z" transform="translate(-92.173 -171.531)" fill="#7676dd"/>
            <path id="Trazado_1071192" data-name="Trazado 1071192" d="M142.677,191.271,98.435,232.378a6,6,0,0,0-.311,8.474h0a6,6,0,0,0,8.474.311l44.242-41.107a6,6,0,0,0,.311-8.474h0A6,6,0,0,0,142.677,191.271Z" transform="translate(-93.724 -173.076)" fill="#322f51"/>
            <path id="Trazado_1071193" data-name="Trazado 1071193" d="M102.5,256.367h0a1.134,1.134,0,0,0-.059,1.6l4.413,4.749a1.134,1.134,0,0,0,1.6.059h0a1.134,1.134,0,0,0,.059-1.6l-4.413-4.749A1.134,1.134,0,0,0,102.5,256.367Z" transform="translate(-95.727 -196.765)" fill="#7676dd"/>
            <path id="Trazado_1071194" data-name="Trazado 1071194" d="M113.543,246.1h0a1.134,1.134,0,0,0-.059,1.6l4.413,4.749a1.134,1.134,0,0,0,1.6.059h0a1.134,1.134,0,0,0,.059-1.6l-4.413-4.749A1.134,1.134,0,0,0,113.543,246.1Z" transform="translate(-99.668 -193.103)" fill="#7676dd"/>
            <path id="Trazado_1071195" data-name="Trazado 1071195" d="M124.589,235.839h0a1.134,1.134,0,0,0-.059,1.6l4.413,4.749a1.134,1.134,0,0,0,1.6.059h0a1.134,1.134,0,0,0,.059-1.6l-4.413-4.749A1.134,1.134,0,0,0,124.589,235.839Z" transform="translate(-103.609 -189.441)" fill="#7676dd"/>
            <path id="Trazado_1071196" data-name="Trazado 1071196" d="M135.634,225.575h0a1.134,1.134,0,0,0-.059,1.6l4.413,4.749a1.134,1.134,0,0,0,1.6.059h0a1.134,1.134,0,0,0,.059-1.6l-4.413-4.749A1.134,1.134,0,0,0,135.634,225.575Z" transform="translate(-107.549 -185.779)" fill="#7676dd"/>
            <path id="Trazado_1071197" data-name="Trazado 1071197" d="M146.679,215.311h0a1.134,1.134,0,0,0-.059,1.6l4.413,4.749a1.134,1.134,0,0,0,1.6.059h0a1.134,1.134,0,0,0,.059-1.6l-4.413-4.749A1.134,1.134,0,0,0,146.679,215.311Z" transform="translate(-111.49 -182.117)" fill="#7676dd"/>
            <path id="Trazado_1071198" data-name="Trazado 1071198" d="M157.725,205.047h0a1.134,1.134,0,0,0-.059,1.6l4.413,4.749a1.134,1.134,0,0,0,1.6.059h0a1.134,1.134,0,0,0,.059-1.6l-4.413-4.749A1.134,1.134,0,0,0,157.725,205.047Z" transform="translate(-115.431 -178.455)" fill="#7676dd"/>
            <path id="Trazado_1071199" data-name="Trazado 1071199" d="M163.018,187.647l-4.894,4.547a17.629,17.629,0,0,0,11.754,12.651l4.894-4.547a8.634,8.634,0,1,0-11.754-12.651Z" transform="translate(-115.702 -171.532)" fill="#201d33" opacity="0.2"/>
            <path id="Trazado_1071200" data-name="Trazado 1071200" d="M181.526,185.767,170.64,174.051,180.7,164.7a16.566,16.566,0,1,0,10.886,11.717Z" transform="translate(-115.997 -163.874)" fill="#7676dd"/>
            <g id="Grupo_1236719" data-name="Grupo 1236719" transform="translate(19.377 28.082)" opacity="0.2">
              <path id="Trazado_1071201" data-name="Trazado 1071201" d="M136.6,217.895,122.513,230.98a.677.677,0,1,0,.922.992l14.083-13.085a.677.677,0,0,0-.922-.993Z" transform="translate(-122.297 -211.165)" fill="#fff"/>
              <path id="Trazado_1071202" data-name="Trazado 1071202" d="M152.534,207.713l-5.107,4.744a.677.677,0,1,0,.922.992l5.107-4.744a.677.677,0,0,0-.922-.993Z" transform="translate(-131.185 -207.532)" fill="#fff"/>
            </g>
          </g>
        </g>
      </g>
      <g id="Grupo_1236725" data-name="Grupo 1236725" transform="translate(120.921 277.048)">
        <g id="Grupo_1236723" data-name="Grupo 1236723" transform="translate(0)">
          <path id="Trazado_1071203" data-name="Trazado 1071203" d="M194.911,387.33H177.666a1.359,1.359,0,1,1,0-2.718h7.372a1.359,1.359,0,1,0,0-2.718H138.226a1.359,1.359,0,1,0,0,2.718h12.446a1.359,1.359,0,1,1,0,2.718H148.1a1.359,1.359,0,1,0,0,2.718h46.812a1.359,1.359,0,0,0,0-2.718Z" transform="translate(-136.867 -381.893)" fill="#dedef9"/>
          <path id="Trazado_1071204" data-name="Trazado 1071204" d="M237.521,390.345h-4.035a1.359,1.359,0,0,0,0,2.718h4.035a1.359,1.359,0,0,0,0-2.718Z" transform="translate(-170.853 -384.908)" fill="#dedef9"/>
        </g>
      </g>
    </g>
  </g>
</svg>
