<svg xmlns="http://www.w3.org/2000/svg" width="85" height="78" viewBox="0 0 85 78">
  <g id="Grupo_1232540" data-name="Grupo 1232540" transform="translate(-180 -5351.146)">
    <rect id="Rectángulo_423328" data-name="Rectángulo 423328" width="85" height="78" rx="15" transform="translate(180 5351.146)" fill="#eddbfd"/>
    <g id="servidor-en-la-nube" transform="translate(193.751 5361.4)">
      <circle id="Elipse_13927" data-name="Elipse 13927" cx="0.955" cy="0.955" r="0.955" transform="translate(23.015 49.759)" fill="#aa52f9"/>
      <circle id="Elipse_13928" data-name="Elipse 13928" cx="0.955" cy="0.955" r="0.955" transform="translate(15.374 49.759)" fill="#aa52f9"/>
      <circle id="Elipse_13929" data-name="Elipse 13929" cx="0.955" cy="0.955" r="0.955" transform="translate(23.015 26.835)" fill="#aa52f9"/>
      <path id="Trazado_1065616" data-name="Trazado 1065616" d="M12,55.642a1.91,1.91,0,0,0,1.91,1.91H44.476a1.91,1.91,0,0,0,1.91-1.91V49.91A1.91,1.91,0,0,0,44.476,48H13.91A1.91,1.91,0,0,0,12,49.91ZM42.566,49.91h.955a.955.955,0,1,1,0,1.91h-.955a.955.955,0,1,1,0-1.91Zm0,3.821h.955a.955.955,0,1,1,0,1.91h-.955a.955.955,0,1,1,0-1.91ZM37.79,49.91h.955a.955.955,0,1,1,0,1.91H37.79a.955.955,0,1,1,0-1.91Zm0,3.821h.955a.955.955,0,1,1,0,1.91H37.79a.955.955,0,1,1,0-1.91ZM33.014,49.91h.955a.955.955,0,0,1,0,1.91h-.955a.955.955,0,0,1,0-1.91Zm0,3.821h.955a.955.955,0,0,1,0,1.91h-.955a.955.955,0,0,1,0-1.91Zm-8.6-3.821a2.866,2.866,0,1,1-2.866,2.866,2.866,2.866,0,0,1,2.866-2.866Zm-7.642,0a2.866,2.866,0,1,1-2.866,2.866,2.866,2.866,0,0,1,2.866-2.866Z" transform="translate(-0.447 -2.061)" fill="#aa52f9"/>
      <path id="Trazado_1065617" data-name="Trazado 1065617" d="M13.91,33.552H44.476a1.91,1.91,0,0,0,1.91-1.91V25.91A1.91,1.91,0,0,0,44.476,24H13.91A1.91,1.91,0,0,0,12,25.91v5.731A1.91,1.91,0,0,0,13.91,33.552ZM42.566,25.91h.955a.955.955,0,1,1,0,1.91h-.955a.955.955,0,1,1,0-1.91Zm0,3.821h.955a.955.955,0,1,1,0,1.91h-.955a.955.955,0,1,1,0-1.91ZM37.79,25.91h.955a.955.955,0,1,1,0,1.91H37.79a.955.955,0,1,1,0-1.91Zm0,3.821h.955a.955.955,0,1,1,0,1.91H37.79a.955.955,0,1,1,0-1.91ZM33.014,25.91h.955a.955.955,0,0,1,0,1.91h-.955a.955.955,0,0,1,0-1.91Zm0,3.821h.955a.955.955,0,0,1,0,1.91h-.955a.955.955,0,0,1,0-1.91Zm-8.6-3.821a2.866,2.866,0,1,1-2.866,2.866,2.866,2.866,0,0,1,2.866-2.866Zm-7.642,0a2.866,2.866,0,1,1-2.866,2.866A2.866,2.866,0,0,1,16.776,25.91Z" transform="translate(-0.447 -0.986)" fill="#aa52f9"/>
      <path id="Trazado_1065618" data-name="Trazado 1065618" d="M12,43.642a1.91,1.91,0,0,0,1.91,1.91H44.476a1.91,1.91,0,0,0,1.91-1.91V37.91A1.91,1.91,0,0,0,44.476,36H13.91A1.91,1.91,0,0,0,12,37.91ZM42.566,37.91h.955a.955.955,0,1,1,0,1.91h-.955a.955.955,0,1,1,0-1.91Zm0,3.821h.955a.955.955,0,1,1,0,1.91h-.955a.955.955,0,1,1,0-1.91ZM37.79,37.91h.955a.955.955,0,1,1,0,1.91H37.79a.955.955,0,1,1,0-1.91Zm0,3.821h.955a.955.955,0,1,1,0,1.91H37.79a.955.955,0,1,1,0-1.91ZM33.014,37.91h.955a.955.955,0,0,1,0,1.91h-.955a.955.955,0,0,1,0-1.91Zm0,3.821h.955a.955.955,0,0,1,0,1.91h-.955a.955.955,0,0,1,0-1.91Zm-8.6-3.821a2.866,2.866,0,1,1-2.866,2.866,2.866,2.866,0,0,1,2.866-2.866Zm-7.642,0a2.866,2.866,0,1,1-2.866,2.866A2.866,2.866,0,0,1,16.776,37.91Z" transform="translate(-0.447 -1.524)" fill="#aa52f9"/>
      <circle id="Elipse_13930" data-name="Elipse 13930" cx="0.955" cy="0.955" r="0.955" transform="translate(15.374 38.297)" fill="#aa52f9"/>
      <circle id="Elipse_13931" data-name="Elipse 13931" cx="0.955" cy="0.955" r="0.955" transform="translate(23.015 38.297)" fill="#aa52f9"/>
      <path id="Trazado_1065619" data-name="Trazado 1065619" d="M45.371,14.426A1.433,1.433,0,0,1,44,13.157,12.438,12.438,0,0,0,20.676,8.537a1.441,1.441,0,0,1-1.78.66,6.837,6.837,0,0,0-3.5-.451A6.662,6.662,0,0,0,9.677,14.7a6.985,6.985,0,0,0,.108,2.062,1.44,1.44,0,0,1-1.093,1.689,8.6,8.6,0,0,0,1.1,16.936,3.8,3.8,0,0,1,1.172-1.869,3.8,3.8,0,0,1-1.32-2.866V24.925A3.821,3.821,0,0,1,13.463,21.1H44.029a3.821,3.821,0,0,1,3.821,3.821v5.731a3.8,3.8,0,0,1-1.32,2.866A3.815,3.815,0,0,1,47.61,35.1a10.507,10.507,0,0,0-2.239-20.669ZM24.644,16.608a.955.955,0,1,1-1.351,1.351l-2.865-2.866a.955.955,0,0,1,0-1.351l2.866-2.866a.955.955,0,1,1,1.351,1.351l-2.188,2.19ZM30.6,11.854l-1.91,5.731a.956.956,0,1,1-1.815-.6l1.91-5.731a.956.956,0,1,1,1.815.6Zm6.456,3.239L34.2,17.958a.955.955,0,1,1-1.351-1.351l2.192-2.19-2.19-2.19A.955.955,0,1,1,34.2,10.876l2.865,2.866a.955.955,0,0,1,0,1.351Z" transform="translate(0 0)" fill="#aa52f9"/>
      <circle id="Elipse_13932" data-name="Elipse 13932" cx="0.955" cy="0.955" r="0.955" transform="translate(15.374 26.835)" fill="#aa52f9"/>
    </g>
  </g>
</svg>
