<svg xmlns="http://www.w3.org/2000/svg" width="85" height="78" viewBox="0 0 85 78">
  <g id="Grupo_1230788" data-name="Grupo 1230788" transform="translate(-180 -4400)">
    <rect id="Rectángulo_423328" data-name="Rectángulo 423328" width="85" height="78" rx="15" transform="translate(180 4400)" fill="#eddbfd"/>
    <path id="web" d="M30.642,1.79A23.685,23.685,0,0,1,41.587,8.128,18.557,18.557,0,0,1,35.5,10.818c-.411.095-.828.167-1.242.251A29.141,29.141,0,0,0,30.642,1.79ZM18.208,37.8c1.542,6.485,4.091,10.6,6.464,10.6s4.922-4.118,6.464-10.6a48.138,48.138,0,0,0-12.93,0ZM32.542,26.281H16.8a59.333,59.333,0,0,0,.782,8.417,51.266,51.266,0,0,1,14.177,0,59.565,59.565,0,0,0,.782-8.417ZM31.76,14.7a50.969,50.969,0,0,1-7.088.517,50.726,50.726,0,0,1-7.088-.515A59.3,59.3,0,0,0,16.8,23.12H32.544a59.311,59.311,0,0,0-.782-8.417Zm4.454-.807c-.446.1-.9.18-1.345.272A63.891,63.891,0,0,1,35.7,23.12h12.59a23.524,23.524,0,0,0-4.633-12.543A21.728,21.728,0,0,1,36.215,13.9ZM35.7,26.281a63.891,63.891,0,0,1-.834,8.953c.449.092.9.169,1.345.273a21.757,21.757,0,0,1,7.447,3.318,23.542,23.542,0,0,0,4.633-12.544ZM13.641,23.12a63.823,63.823,0,0,1,.834-8.947c-.223-.046-.447-.079-.668-.126a23.081,23.081,0,0,1-8.09-3.514A23.527,23.527,0,0,0,1.053,23.12h12.59Zm1.446,15.207c-.2.041-.406.071-.608.115a19.927,19.927,0,0,0-6.711,2.844A23.692,23.692,0,0,0,18.7,47.612a29.128,29.128,0,0,1-3.617-9.285Zm20.412.258c-.411-.095-.828-.167-1.242-.251a29.113,29.113,0,0,1-3.617,9.28,23.685,23.685,0,0,0,10.945-6.338A18.612,18.612,0,0,0,35.5,38.585ZM14.476,35.23a63.823,63.823,0,0,1-.834-8.948H1.051A23.54,23.54,0,0,0,5.715,38.869a23.078,23.078,0,0,1,8.09-3.513c.221-.049.446-.081.668-.126Zm0-24.269c.2.044.406.074.608.115a29.128,29.128,0,0,1,3.617-9.285A23.692,23.692,0,0,0,7.771,8.117,19.906,19.906,0,0,0,14.48,10.961Zm16.657.642C29.6,5.118,27.047,1,24.674,1S19.752,5.12,18.209,11.6a48.061,48.061,0,0,0,12.928,0Z" transform="translate(197.827 4414.298)" fill="#aa52f9"/>
  </g>
</svg>
