<svg xmlns="http://www.w3.org/2000/svg" width="85" height="78" viewBox="0 0 85 78">
  <g id="Grupo_1234902" data-name="Grupo 1234902" transform="translate(-180 -5879)">
    <rect id="Rectángulo_423244" data-name="Rectángulo 423244" width="85" height="78" rx="15" transform="translate(180 5879)" fill="#f6ecfe"/>
    <path id="head_2427263" d="M37.291,44.967h0Zm33.177,6.087a1.708,1.708,0,0,1-.736,1.568c-.619.426,1.151.3-28.841.3a1.707,1.707,0,0,1-1.684-1.986l.187-1.129a1.707,1.707,0,0,1,1.684-1.429h6.285A14.272,14.272,0,0,0,59.5,41.611l2.187-3.539a1.707,1.707,0,0,0-2.9-1.795l-2.187,3.539a10.783,10.783,0,0,1-9.231,5.147c-10.067,0-10.078,0-10.072,0a5.127,5.127,0,0,1-5.121-5.121v-5c-3.859,0-4.114.107-4.711-.365a1.708,1.708,0,0,1-.6-1.763L29.586,22a22.221,22.221,0,0,1,44.44.414,26.275,26.275,0,0,1-4.813,15.231ZM48.711,8.536a1.707,1.707,0,1,0,3.414,0V7.469a1.707,1.707,0,0,0-3.414,0ZM40.282,20.379a1.707,1.707,0,0,0-1.707-1.707H37.508a1.707,1.707,0,1,0,0,3.414h1.067A1.707,1.707,0,0,0,40.282,20.379Zm1.228-7.2a1.709,1.709,0,0,0,1.207-2.914l-.754-.754a1.707,1.707,0,0,0-2.414,2.414c.734.734,1.1,1.254,1.961,1.254ZM55.457,26.724a8.109,8.109,0,1,0-10.086-.005,1.7,1.7,0,0,1,.636,1.329v1.471a4.415,4.415,0,0,0,4.516,4.409,4.464,4.464,0,0,0,4.3-4.492V28.048a1.689,1.689,0,0,1,.63-1.324Zm5.83-14.8a1.707,1.707,0,0,0-2.414-2.414l-.754.754a1.709,1.709,0,0,0,1.207,2.914c.861,0,1.227-.52,1.961-1.254Zm3.748,8.455a1.707,1.707,0,0,0-1.707-1.707H62.261a1.707,1.707,0,1,0,0,3.414h1.067A1.707,1.707,0,0,0,65.035,20.379Z" transform="translate(172.082 5891.531)" fill="#aa52f9"/>
  </g>
</svg>
