<svg xmlns="http://www.w3.org/2000/svg" xmlns:xlink="http://www.w3.org/1999/xlink" width="295" height="308.775" viewBox="0 0 295 308.775">
  <defs>
    <linearGradient id="linear-gradient" x1="0.5" x2="0.5" y2="1" gradientUnits="objectBoundingBox">
      <stop offset="0" stop-color="#903cdf"/>
      <stop offset="1" stop-color="#481e70"/>
    </linearGradient>
    <clipPath id="clip-path">
      <rect id="Rect치ngulo_426231" data-name="Rect치ngulo 426231" width="295" height="286" transform="translate(8974 6064)" fill="#fff" stroke="#707070" stroke-width="1"/>
    </clipPath>
    <linearGradient id="linear-gradient-2" y1="0.5" x2="1" y2="0.5" gradientUnits="objectBoundingBox">
      <stop offset="0" stop-color="#4d4d4d"/>
      <stop offset="1" stop-color="#1f2125"/>
    </linearGradient>
  </defs>
  <g id="Grupo_1235441" data-name="Grupo 1235441" transform="translate(-8974 -6272.225)">
    <rect id="Rect치ngulo_423279" data-name="Rect치ngulo 423279" width="155" height="286" rx="13" transform="translate(9044 6272.225)" fill="url(#linear-gradient)"/>
    <g id="Enmascarar_grupo_1211623" data-name="Enmascarar grupo 1211623" transform="translate(0 231)" clip-path="url(#clip-path)">
      <g id="_26762190_2112.i301.035.F.m004.c9.UI_and_UX_designers_concepts_isometric_background" data-name="26762190_2112.i301.035.F.m004.c9.UI and UX designers concepts isometric background" transform="translate(8940.734 6004.333)">
        <ellipse id="Elipse_13969" data-name="Elipse 13969" cx="51.082" cy="88.479" rx="51.082" ry="88.479" transform="translate(95.786 344.711) rotate(-89.691)" fill="#949494"/>
        <g id="Grupo_1235100" data-name="Grupo 1235100" transform="translate(166.986 59.666)">
          <g id="Grupo_1235099" data-name="Grupo 1235099">
            <path id="Trazado_1069396" data-name="Trazado 1069396" d="M294.594,372.614,224.746,332.3c-1.495-.863-1.308-2.371.419-3.368l3.965-2.289a6.484,6.484,0,0,1,5.833-.242l69.848,40.312c1.495.863,1.308,2.371-.419,3.368l-3.965,2.289A6.488,6.488,0,0,1,294.594,372.614Z" transform="translate(-223.737 -136.886)" fill="#707070"/>
            <path id="Trazado_1069397" data-name="Trazado 1069397" d="M303.087,97.339,238.815,60.231A3.074,3.074,0,0,0,235.67,60l-6.341,3.668,7.464,5.8,1.825-.462V221.312c0,3.572,2.172,7.722,4.851,9.269l56.354,41.251v2.543l6.559-3.83v-.026c.951-.632,1.555-1.954,1.555-3.823V106.607C307.937,103.035,305.766,98.885,303.087,97.339Z" transform="translate(-225.36 -59.666)" fill="#707070"/>
            <path id="Trazado_1069398" data-name="Trazado 1069398" d="M293.26,110.938V103.75L286.94,108.5,259.317,96.922l-20.7-15.064V69.005l-1.834.459-7.45-5.8L235.673,60a3.107,3.107,0,0,1,3.144.229l64.268,37.12a10.487,10.487,0,0,1,4.143,5.518Z" transform="translate(-225.362 -59.668)" fill="#e6e6e6"/>
            <g id="Grupo_1235094" data-name="Grupo 1235094" transform="translate(2.225 3.702)">
              <path id="Trazado_1069399" data-name="Trazado 1069399" d="M295.994,275.595l-64.272-37.107c-2.679-1.547-4.851-5.7-4.851-9.269V69.131c0-3.572,2.171-5.214,4.851-3.667l64.272,37.107c2.679,1.547,4.851,5.7,4.851,9.269V271.927C300.845,275.5,298.673,277.141,295.994,275.595Z" transform="translate(-226.872 -64.882)" fill="#ccc"/>
              <path id="Trazado_1069400" data-name="Trazado 1069400" d="M228.868,230.917V70.576c0-2.6,1.583-3.8,3.535-2.673l64.067,36.989c1.953,1.127,3.535,4.151,3.535,6.755V271.989c0,2.6-1.583,3.8-3.535,2.673L232.4,237.672C230.451,236.545,228.868,233.521,228.868,230.917Z" transform="translate(-227.451 -65.635)" fill="#333"/>
              <path id="Trazado_1069401" data-name="Trazado 1069401" d="M298.891,115.144V270.457c0,2.311-1.631,3.224-3.63,2.07l-60.11-34.7a8.031,8.031,0,0,1-3.644-6.286V76.239c0-2.31,1.631-3.24,3.644-2.078L246.132,80.5a2.3,2.3,0,0,1,.988,1.424l.509,2.321a9.2,9.2,0,0,0,4.169,5.873l26.8,15.474c2.042,1.179,3.8.73,4.169-1.059l.509-1.733c.127-.432.53-.547.988-.283l11,6.348A8.019,8.019,0,0,1,298.891,115.144Z" transform="translate(-228.216 -67.429)" fill="#80c5ff"/>
              <g id="Grupo_1235093" data-name="Grupo 1235093" transform="translate(22.133 16.808)">
                <path id="Trazado_1069402" data-name="Trazado 1069402" d="M261.951,92.191c0,1.236-.873,1.734-1.95,1.112a4.3,4.3,0,0,1-1.95-3.363c0-1.236.872-1.734,1.95-1.112A4.3,4.3,0,0,1,261.951,92.191Z" transform="translate(-258.051 -88.56)" fill="#666"/>
                <path id="Trazado_1069403" data-name="Trazado 1069403" d="M261.431,92.146c0,.677-.478.95-1.068.609a2.356,2.356,0,0,1-1.068-1.843c0-.677.478-.95,1.068-.609A2.353,2.353,0,0,1,261.431,92.146Z" transform="translate(-258.412 -89.023)" fill="#333"/>
              </g>
              <path id="Trazado_1069404" data-name="Trazado 1069404" d="M284.141,100.869,265.072,89.86a1.361,1.361,0,0,1-.569-1.087V88c0-.419.255-.611.569-.429l19.069,11.009a1.362,1.362,0,0,1,.569,1.087v.772C284.709,100.858,284.455,101.051,284.141,100.869Z" transform="translate(-237.79 -71.445)"/>
            </g>
            <g id="Grupo_1235098" data-name="Grupo 1235098" transform="translate(77.242 71.472)">
              <g id="Grupo_1235097" data-name="Grupo 1235097">
                <path id="Trazado_1069405" data-name="Trazado 1069405" d="M336.1,160.491a1.467,1.467,0,0,0-1.481.146,4.567,4.567,0,0,0-2.074,3.592l.054,19.028a1.456,1.456,0,0,0,.609,1.332l1.154.671a1.456,1.456,0,0,1-.609-1.332L333.7,164.9a4.569,4.569,0,0,1,2.074-3.592,1.467,1.467,0,0,1,1.481-.146Z" transform="translate(-332.549 -160.35)" fill="#e6e6e6"/>
                <g id="Grupo_1235095" data-name="Grupo 1235095" transform="translate(1.154 0.671)">
                  <path id="Trazado_1069406" data-name="Trazado 1069406" d="M336.249,161.581c1.15-.664,2.083-.132,2.087,1.19l.054,19.028a4.585,4.585,0,0,1-2.073,3.591c-1.15.664-2.083.12-2.087-1.19l-.054-19.028A4.565,4.565,0,0,1,336.249,161.581Z" transform="translate(-334.175 -161.295)" fill="#bfbfbf"/>
                </g>
                <g id="Grupo_1235096" data-name="Grupo 1235096" transform="translate(1.866 2.861)">
                  <path id="Trazado_1069407" data-name="Trazado 1069407" d="M336.878,164.615c.943-.544,1.709-.109,1.712.975l.045,15.609a3.761,3.761,0,0,1-1.7,2.946c-.943.544-1.709.1-1.712-.976l-.044-15.609A3.742,3.742,0,0,1,336.878,164.615Z" transform="translate(-335.178 -164.381)" fill="#ccc"/>
                </g>
              </g>
            </g>
          </g>
        </g>
        <g id="Grupo_1235140" data-name="Grupo 1235140" transform="translate(226.927 133.583)">
          <g id="Grupo_1235104" data-name="Grupo 1235104" transform="translate(0 0)">
            <g id="Grupo_1235103" data-name="Grupo 1235103">
              <path id="Trazado_1069408" data-name="Trazado 1069408" d="M367.84,194.725l-52.783-30.474a2.357,2.357,0,0,0-2.378-.231l-2.655,1.543a2.357,2.357,0,0,1,2.378.231l52.783,30.474a7.341,7.341,0,0,1,3.333,5.773l-.336,118.751a2.334,2.334,0,0,1-.971,2.139l2.656-1.543a2.334,2.334,0,0,0,.971-2.139l.336-118.751A7.345,7.345,0,0,0,367.84,194.725Z" transform="translate(-308.713 -163.793)" fill="#fff"/>
              <g id="Grupo_1235101" data-name="Grupo 1235101" transform="translate(0 1.541)">
                <path id="Trazado_1069409" data-name="Trazado 1069409" d="M367.981,202.671l-.02,7.718-.314,111.036c-.01,2.118-1.5,2.972-3.354,1.9l-52.782-30.48a7.284,7.284,0,0,1-3.334-5.757l.314-111.036.019-7.718c.01-2.118,1.511-2.981,3.354-1.912l52.782,30.47A7.336,7.336,0,0,1,367.981,202.671Z" transform="translate(-308.177 -165.964)" fill="#ccc"/>
              </g>
              <g id="Grupo_1235102" data-name="Grupo 1235102" transform="translate(1.491 5.476)">
                <path id="Trazado_1069410" data-name="Trazado 1069410" d="M367.1,206.384l-.018,7.333-.3,105.5c-.009,2.012-1.425,2.824-3.187,1.807l-50.15-28.961a6.922,6.922,0,0,1-3.168-5.47l.3-105.5.018-7.334c.009-2.012,1.435-2.832,3.187-1.817l50.15,28.951A6.97,6.97,0,0,1,367.1,206.384Z" transform="translate(-310.278 -171.507)" fill="#333"/>
              </g>
            </g>
          </g>
          <g id="Grupo_1235107" data-name="Grupo 1235107" transform="translate(2.641 24.266)">
            <g id="Grupo_1235106" data-name="Grupo 1235106">
              <g id="Grupo_1235105" data-name="Grupo 1235105">
                <path id="Trazado_1069411" data-name="Trazado 1069411" d="M328.714,206.9a3.753,3.753,0,0,1,1.7,2.948l-.046,16.245c0,1.082-.771,1.52-1.715.975L313.6,218.379a3.754,3.754,0,0,1-1.7-2.948l.046-16.245c0-1.082.771-1.519,1.715-.975Z" transform="translate(-311.897 -197.977)" fill="#ccc"/>
              </g>
              <path id="Trazado_1069412" data-name="Trazado 1069412" d="M322.26,210.689c-2.65-1.53-4.8-.307-4.8,2.734a10.568,10.568,0,0,0,4.8,8.272c2.648,1.528,4.8.3,4.8-2.734A10.565,10.565,0,0,0,322.26,210.689Zm-1.171,7.363V213.1l3.734,4.63Z" transform="translate(-313.512 -201.474)" fill="#4d4bb7"/>
            </g>
          </g>
          <g id="Grupo_1235112" data-name="Grupo 1235112" transform="translate(3.578 58.482)">
            <g id="Grupo_1235111" data-name="Grupo 1235111">
              <g id="Grupo_1235108" data-name="Grupo 1235108">
                <path id="Trazado_1069413" data-name="Trazado 1069413" d="M324.971,252.4a2.7,2.7,0,0,1,1.226,2.123l-.034,12.053c0,.78-.555,1.092-1.234.7l-10.489-6.056a2.693,2.693,0,0,1-1.223-2.119l.034-12.052c0-.78.552-1.1,1.231-.7Z" transform="translate(-313.217 -246.177)" fill="#ccc"/>
              </g>
              <g id="Grupo_1235110" data-name="Grupo 1235110" transform="translate(0.65 4.853)">
                <g id="Grupo_1235109" data-name="Grupo 1235109" transform="translate(0 2.635)">
                  <path id="Trazado_1069414" data-name="Trazado 1069414" d="M319.222,260.6l-.985,2.645-4.105-2.37,2.548-3.595c.358-.5,1.252.012,1.611.93Z" transform="translate(-314.132 -256.83)" fill="#57b2ff"/>
                  <path id="Trazado_1069415" data-name="Trazado 1069415" d="M322.517,266.188l-2.6-1.5.985-2.646Z" transform="translate(-315.81 -258.268)" fill="#4d4bb7"/>
                  <path id="Trazado_1069416" data-name="Trazado 1069416" d="M327.025,267.016l-4.105-2.37L321.3,260.5l1.245-3.341c.373-1,1.872-.135,2.245,1.3Z" transform="translate(-316.213 -256.726)" fill="#57b2ff"/>
                </g>
                <path id="Trazado_1069417" data-name="Trazado 1069417" d="M320.58,254.72c0,.581-.41.815-.916.522a2.02,2.02,0,0,1-.916-1.581c0-.581.41-.815.916-.522A2.02,2.02,0,0,1,320.58,254.72Z" transform="translate(-315.471 -253.014)" fill="#4d4bb7"/>
              </g>
            </g>
          </g>
          <g id="Grupo_1235115" data-name="Grupo 1235115" transform="translate(26.853 37.107)">
            <g id="Grupo_1235114" data-name="Grupo 1235114">
              <g id="Grupo_1235113" data-name="Grupo 1235113">
                <path id="Trazado_1069418" data-name="Trazado 1069418" d="M373.071,231.123a2.794,2.794,0,0,1,1.269,2.2l-.012,4.4c0,.809-.574,1.137-1.277.731L347.274,223.57a2.8,2.8,0,0,1-1.269-2.2l.013-4.4c0-.812.573-1.137,1.277-.731Z" transform="translate(-346.005 -216.066)" fill="#ccc"/>
              </g>
              <path id="Trazado_1069419" data-name="Trazado 1069419" d="M373.065,235.44l-23.64-13.716c-.27-.156-.491.01-.491.371h0a1.175,1.175,0,0,0,.491.937l23.64,13.716c.27.156.491-.009.491-.371h0A1.177,1.177,0,0,0,373.065,235.44Z" transform="translate(-346.855 -217.69)" fill="#4d4bb7"/>
            </g>
          </g>
          <g id="Grupo_1235118" data-name="Grupo 1235118" transform="translate(26.853 52.489)">
            <g id="Grupo_1235117" data-name="Grupo 1235117">
              <g id="Grupo_1235116" data-name="Grupo 1235116">
                <path id="Trazado_1069420" data-name="Trazado 1069420" d="M373.071,252.793a2.8,2.8,0,0,1,1.269,2.2l-.012,4.4c0,.809-.574,1.134-1.277.728l-25.777-14.882a2.8,2.8,0,0,1-1.269-2.2l.013-4.4c0-.809.573-1.137,1.277-.731Z" transform="translate(-346.005 -237.736)" fill="#ccc"/>
              </g>
              <path id="Trazado_1069421" data-name="Trazado 1069421" d="M373.065,256.762l-23.64-13.716c-.27-.156-.491.01-.491.371h0a1.173,1.173,0,0,0,.491.937l23.64,13.716c.27.156.491-.01.491-.371h0A1.177,1.177,0,0,0,373.065,256.762Z" transform="translate(-346.855 -239.259)" fill="#4d4bb7"/>
            </g>
          </g>
          <g id="Grupo_1235122" data-name="Grupo 1235122" transform="translate(3.578 86.704)">
            <g id="Grupo_1235121" data-name="Grupo 1235121">
              <g id="Grupo_1235119" data-name="Grupo 1235119">
                <path id="Trazado_1069422" data-name="Trazado 1069422" d="M324.971,292.158a2.7,2.7,0,0,1,1.226,2.123l-.034,12.053c0,.779-.555,1.092-1.234.7l-10.489-6.056a2.693,2.693,0,0,1-1.223-2.119l.034-12.053c0-.779.552-1.1,1.231-.7Z" transform="translate(-313.217 -285.934)" fill="#ccc"/>
              </g>
              <g id="Grupo_1235120" data-name="Grupo 1235120" transform="translate(1.342 4.287)">
                <path id="Trazado_1069423" data-name="Trazado 1069423" d="M325.176,298.006v.017l-5,.42-5.071-6.25h0c0-.2.138-.275.31-.177l9.449,5.455A.683.683,0,0,1,325.176,298.006Z" transform="translate(-315.108 -291.973)" fill="#4d4bb7"/>
                <path id="Trazado_1069424" data-name="Trazado 1069424" d="M320.179,299.088l5-.421v6.084c0,.2-.138.275-.31.176l-9.449-5.455a.682.682,0,0,1-.31-.534v-6.1l5,6.16Z" transform="translate(-315.108 -292.223)" fill="#4d4bb7"/>
              </g>
            </g>
          </g>
          <g id="Grupo_1235125" data-name="Grupo 1235125" transform="translate(5.095 114.211)">
            <g id="Grupo_1235124" data-name="Grupo 1235124">
              <g id="Grupo_1235123" data-name="Grupo 1235123">
                <path id="Trazado_1069425" data-name="Trazado 1069425" d="M363.745,351.861a3.746,3.746,0,0,1,1.7,2.947l-.01,3.512c0,1.085-.768,1.524-1.712.979l-46.668-26.944a3.756,3.756,0,0,1-1.7-2.95l.01-3.512c0-1.085.771-1.519,1.712-.976Z" transform="translate(-315.355 -324.684)" fill="#ccc"/>
              </g>
              <path id="Trazado_1069426" data-name="Trazado 1069426" d="M363.23,356.011,318.31,329.92c-.27-.156-.491.01-.491.371h0a1.173,1.173,0,0,0,.491.937l44.921,26.091c.271.156.491-.009.491-.371h0A1.173,1.173,0,0,0,363.23,356.011Z" transform="translate(-316.07 -326.186)" fill="#4d4bb7"/>
            </g>
          </g>
          <g id="Grupo_1235132" data-name="Grupo 1235132" transform="translate(22.727 97.74)">
            <g id="Grupo_1235131" data-name="Grupo 1235131">
              <g id="Grupo_1235126" data-name="Grupo 1235126">
                <path id="Trazado_1069427" data-name="Trazado 1069427" d="M351.947,307.7a2.7,2.7,0,0,1,1.226,2.123l-.034,12.052c0,.78-.555,1.092-1.234.7l-10.489-6.056a2.693,2.693,0,0,1-1.223-2.119l.034-12.052c0-.78.552-1.1,1.231-.7Z" transform="translate(-340.193 -301.481)" fill="#ccc"/>
              </g>
              <g id="Grupo_1235130" data-name="Grupo 1235130" transform="translate(1.203 4.814)">
                <g id="Grupo_1235127" data-name="Grupo 1235127" transform="translate(0 0.163)">
                  <path id="Trazado_1069428" data-name="Trazado 1069428" d="M351.5,320.572l-8.663-5a2.091,2.091,0,0,1-.948-1.635v-4.774c0-.6.425-.842.948-.54l8.663,5a2.091,2.091,0,0,1,.948,1.635v4.774C352.446,320.631,352.02,320.873,351.5,320.572Zm-8.663-11.5c-.3-.176-.553-.035-.553.315v4.774a1.22,1.22,0,0,0,.553.954l8.663,5c.305.176.553.034.553-.315V315.03a1.22,1.22,0,0,0-.553-.954Z" transform="translate(-341.887 -308.491)" fill="#4d4bb7"/>
                </g>
                <g id="Grupo_1235128" data-name="Grupo 1235128" transform="translate(2.975 3.362)">
                  <path id="Trazado_1069429" data-name="Trazado 1069429" d="M348.382,318.6a5.084,5.084,0,0,1-2.3-3.974c0-1.457,1.034-2.047,2.3-1.313a5.085,5.085,0,0,1,2.3,3.974C350.686,318.745,349.652,319.334,348.382,318.6Zm0-4.834c-1.053-.608-1.91-.119-1.91,1.088a4.211,4.211,0,0,0,1.91,3.293c1.052.608,1.909.119,1.909-1.088A4.214,4.214,0,0,0,348.382,313.766Z" transform="translate(-346.078 -312.998)" fill="#4d4bb7"/>
                </g>
                <g id="Grupo_1235129" data-name="Grupo 1235129" transform="translate(2.543)">
                  <path id="Trazado_1069430" data-name="Trazado 1069430" d="M350.94,313l-5.47-3.158V308.7c0-.394.279-.553.622-.355l4.226,2.44a1.373,1.373,0,0,1,.622,1.073V313Zm-5.075-3.384,4.68,2.7v-.691a.5.5,0,0,0-.227-.392l-4.226-2.44c-.125-.072-.227-.014-.227.129v.691Z" transform="translate(-345.47 -308.262)" fill="#4d4bb7"/>
                </g>
              </g>
            </g>
          </g>
          <g id="Grupo_1235135" data-name="Grupo 1235135" transform="translate(42.207 108.967)">
            <g id="Grupo_1235134" data-name="Grupo 1235134">
              <g id="Grupo_1235133" data-name="Grupo 1235133">
                <path id="Trazado_1069431" data-name="Trazado 1069431" d="M379.392,323.521a2.7,2.7,0,0,1,1.223,2.122l-.034,12.052c0,.78-.552,1.094-1.231.7l-10.489-6.056a2.7,2.7,0,0,1-1.226-2.12l.034-12.053c0-.78.555-1.095,1.234-.7Z" transform="translate(-367.635 -317.297)" fill="#ccc"/>
              </g>
              <path id="Trazado_1069432" data-name="Trazado 1069432" d="M375.068,325.408c-2.4-1.384-4.341-.661-4.341,1.615a7.8,7.8,0,0,0,2.043,4.672c-.057.385-.307,1.19-1.4.571,0,0,1.514,1.67,2.949.884a7.8,7.8,0,0,0,.752.5c2.4,1.384,4.341.661,4.341-1.615S377.465,326.792,375.068,325.408Z" transform="translate(-368.532 -319.446)" fill="#4d4bb7"/>
            </g>
          </g>
          <g id="Grupo_1235139" data-name="Grupo 1235139" transform="translate(21.424 69.072)">
            <g id="Grupo_1235138" data-name="Grupo 1235138">
              <g id="Grupo_1235136" data-name="Grupo 1235136">
                <path id="Trazado_1069433" data-name="Trazado 1069433" d="M370.145,278.556a4.357,4.357,0,0,1,1.976,3.425l-.029,10.317c0,1.258-.894,1.765-1.989,1.134l-29.77-17.188a4.358,4.358,0,0,1-1.976-3.422l.029-10.317c0-1.261.894-1.768,1.989-1.137Z" transform="translate(-338.357 -261.096)" fill="#ccc"/>
              </g>
              <g id="Grupo_1235137" data-name="Grupo 1235137" transform="translate(2.479 3.606)">
                <path id="Trazado_1069434" data-name="Trazado 1069434" d="M370.409,282.507l-28.07-16.272c-.271-.156-.491.01-.491.371h0a1.172,1.172,0,0,0,.491.936l28.07,16.272c.27.156.491-.009.491-.371h0A1.173,1.173,0,0,0,370.409,282.507Z" transform="translate(-341.849 -266.176)" fill="#4d4bb7"/>
                <path id="Trazado_1069435" data-name="Trazado 1069435" d="M370.409,287.995l-28.07-16.272c-.271-.156-.491.01-.491.371h0a1.175,1.175,0,0,0,.491.937l28.07,16.272c.27.156.491-.009.491-.371h0A1.174,1.174,0,0,0,370.409,287.995Z" transform="translate(-341.849 -267.768)" fill="#4d4bb7"/>
                <path id="Trazado_1069436" data-name="Trazado 1069436" d="M370.409,293.484l-28.07-16.272c-.271-.156-.491.009-.491.371h0a1.173,1.173,0,0,0,.491.936l28.07,16.272c.27.156.491-.01.491-.371h0A1.173,1.173,0,0,0,370.409,293.484Z" transform="translate(-341.849 -269.361)" fill="#4d4bb7"/>
              </g>
            </g>
          </g>
          <path id="Trazado_1069437" data-name="Trazado 1069437" d="M368.109,202.671l-.02,7.718-59.47-34.334.019-7.718c.01-2.118,1.511-2.981,3.354-1.912l52.782,30.47A7.334,7.334,0,0,1,368.109,202.671Z" transform="translate(-308.305 -164.424)" fill="#ccc"/>
        </g>
        <g id="Grupo_1235183" data-name="Grupo 1235183" transform="translate(117.662 70.32)">
          <g id="Grupo_1235144" data-name="Grupo 1235144">
            <g id="Grupo_1235143" data-name="Grupo 1235143">
              <path id="Trazado_1069438" data-name="Trazado 1069438" d="M213.918,105.606,161.135,75.132a2.357,2.357,0,0,0-2.378-.231L156.1,76.444a2.357,2.357,0,0,1,2.378.231l52.783,30.474a7.34,7.34,0,0,1,3.333,5.773l-.336,118.751a2.334,2.334,0,0,1-.971,2.139l2.656-1.543a2.333,2.333,0,0,0,.971-2.139l.336-118.751A7.343,7.343,0,0,0,213.918,105.606Z" transform="translate(-154.791 -74.674)" fill="#ffdd8c"/>
              <g id="Grupo_1235141" data-name="Grupo 1235141" transform="translate(0 1.541)">
                <path id="Trazado_1069439" data-name="Trazado 1069439" d="M214.059,113.552l-.02,7.718-.314,111.036c-.01,2.118-1.5,2.972-3.354,1.9l-52.782-30.48a7.284,7.284,0,0,1-3.334-5.757l.314-111.036.02-7.718c.01-2.118,1.511-2.981,3.354-1.912l52.782,30.47A7.337,7.337,0,0,1,214.059,113.552Z" transform="translate(-154.255 -76.845)" fill="#ffad66"/>
              </g>
              <g id="Grupo_1235142" data-name="Grupo 1235142" transform="translate(1.491 5.475)">
                <path id="Trazado_1069440" data-name="Trazado 1069440" d="M213.177,117.264l-.018,7.334-.3,105.5c-.009,2.012-1.425,2.823-3.187,1.807l-50.15-28.961a6.922,6.922,0,0,1-3.168-5.47l.3-105.5.018-7.334c.009-2.012,1.435-2.833,3.187-1.817l50.15,28.951A6.971,6.971,0,0,1,213.177,117.264Z" transform="translate(-156.356 -82.388)" fill="#333"/>
              </g>
            </g>
          </g>
          <g id="Grupo_1235147" data-name="Grupo 1235147" transform="translate(3.923 47.818)">
            <g id="Grupo_1235146" data-name="Grupo 1235146">
              <g id="Grupo_1235145" data-name="Grupo 1235145">
                <path id="Trazado_1069441" data-name="Trazado 1069441" d="M176.6,150.962a3.753,3.753,0,0,1,1.7,2.948l-.046,16.245c0,1.082-.771,1.519-1.715.975l-15.056-8.692a3.753,3.753,0,0,1-1.7-2.948l.046-16.245c0-1.082.771-1.519,1.715-.975Z" transform="translate(-159.781 -142.036)" fill="#ffad66"/>
              </g>
              <path id="Trazado_1069442" data-name="Trazado 1069442" d="M170.145,154.746c-2.65-1.53-4.8-.307-4.8,2.734a10.568,10.568,0,0,0,4.8,8.272c2.648,1.528,4.8.3,4.8-2.734A10.566,10.566,0,0,0,170.145,154.746Zm-1.171,7.363v-4.948l3.734,4.63Z" transform="translate(-161.396 -145.532)" fill="#fff"/>
            </g>
          </g>
          <g id="Grupo_1235152" data-name="Grupo 1235152" transform="translate(4.788 20.343)">
            <g id="Grupo_1235151" data-name="Grupo 1235151">
              <g id="Grupo_1235148" data-name="Grupo 1235148">
                <path id="Trazado_1069443" data-name="Trazado 1069443" d="M177.9,112.283a3.886,3.886,0,0,1,1.763,3.053l-.049,17.334c0,1.122-.8,1.57-1.775,1.007l-15.085-8.709A3.872,3.872,0,0,1,161,121.92l.049-17.334c0-1.122.794-1.577,1.77-1.013Z" transform="translate(-161 -103.331)" fill="#ffad66"/>
              </g>
              <g id="Grupo_1235150" data-name="Grupo 1235150" transform="translate(0.934 6.98)">
                <g id="Grupo_1235149" data-name="Grupo 1235149" transform="translate(0 3.791)">
                  <path id="Trazado_1069444" data-name="Trazado 1069444" d="M169.637,124.078l-1.417,3.8-5.9-3.409,3.665-5.17c.515-.725,1.8.017,2.316,1.337Z" transform="translate(-162.316 -118.654)" fill="#fff"/>
                  <path id="Trazado_1069445" data-name="Trazado 1069445" d="M174.376,132.111l-3.743-2.161,1.417-3.8Z" transform="translate(-164.729 -120.721)" fill="#e6e6e6"/>
                  <path id="Trazado_1069446" data-name="Trazado 1069446" d="M180.859,133.3l-5.9-3.409-2.326-5.965,1.791-4.8c.537-1.439,2.693-.194,3.229,1.865Z" transform="translate(-165.308 -118.504)" fill="#fff"/>
                </g>
                <path id="Trazado_1069447" data-name="Trazado 1069447" d="M171.589,115.619c0,.836-.59,1.172-1.318.752a2.9,2.9,0,0,1-1.318-2.274c0-.836.59-1.172,1.318-.752A2.9,2.9,0,0,1,171.589,115.619Z" transform="translate(-164.242 -113.164)" fill="#e6e6e6"/>
              </g>
            </g>
          </g>
          <g id="Grupo_1235155" data-name="Grupo 1235155" transform="translate(26.852 36.159)">
            <g id="Grupo_1235154" data-name="Grupo 1235154">
              <g id="Grupo_1235153" data-name="Grupo 1235153">
                <path id="Trazado_1069448" data-name="Trazado 1069448" d="M219.148,140.67a2.794,2.794,0,0,1,1.269,2.2l-.012,4.4c0,.809-.573,1.137-1.277.73l-25.777-14.882a2.8,2.8,0,0,1-1.269-2.2l.013-4.4c0-.812.574-1.137,1.278-.731Z" transform="translate(-192.082 -125.612)" fill="#ffad66"/>
              </g>
              <path id="Trazado_1069449" data-name="Trazado 1069449" d="M219.143,144.987,195.5,131.271c-.27-.156-.491.01-.491.371h0a1.173,1.173,0,0,0,.491.936l23.64,13.716c.27.156.491-.009.491-.371h0A1.177,1.177,0,0,0,219.143,144.987Z" transform="translate(-192.932 -127.237)" fill="#fff"/>
            </g>
          </g>
          <g id="Grupo_1235158" data-name="Grupo 1235158" transform="translate(26.852 46.533)">
            <g id="Grupo_1235157" data-name="Grupo 1235157">
              <g id="Grupo_1235156" data-name="Grupo 1235156">
                <path id="Trazado_1069450" data-name="Trazado 1069450" d="M219.148,155.282a2.8,2.8,0,0,1,1.269,2.2l-.012,4.4c0,.809-.573,1.134-1.277.728l-25.777-14.882a2.8,2.8,0,0,1-1.269-2.2l.013-4.4c0-.809.574-1.137,1.278-.73Z" transform="translate(-192.082 -140.226)" fill="#ffad66"/>
              </g>
              <path id="Trazado_1069451" data-name="Trazado 1069451" d="M219.143,159.251,195.5,145.535c-.27-.156-.491.01-.491.371h0a1.175,1.175,0,0,0,.491.937l23.64,13.716c.27.156.491-.01.491-.371h0A1.177,1.177,0,0,0,219.143,159.251Z" transform="translate(-192.932 -141.749)" fill="#fff"/>
            </g>
          </g>
          <g id="Grupo_1235162" data-name="Grupo 1235162" transform="translate(3.578 77.814)">
            <g id="Grupo_1235161" data-name="Grupo 1235161">
              <g id="Grupo_1235159" data-name="Grupo 1235159">
                <path id="Trazado_1069452" data-name="Trazado 1069452" d="M171.049,190.517a2.7,2.7,0,0,1,1.226,2.123l-.034,12.052c0,.78-.555,1.092-1.234.7l-10.489-6.056a2.693,2.693,0,0,1-1.223-2.119l.034-12.053c0-.78.552-1.1,1.231-.7Z" transform="translate(-159.295 -184.291)" fill="#ffad66"/>
              </g>
              <g id="Grupo_1235160" data-name="Grupo 1235160" transform="translate(1.342 4.288)">
                <path id="Trazado_1069453" data-name="Trazado 1069453" d="M171.254,196.364v.017l-5,.42-5.071-6.25h0c0-.2.138-.275.31-.177l9.449,5.455A.684.684,0,0,1,171.254,196.364Z" transform="translate(-161.186 -190.331)" fill="#fff"/>
                <path id="Trazado_1069454" data-name="Trazado 1069454" d="M166.257,197.448l5-.421v6.084c0,.2-.138.275-.31.177l-9.449-5.455a.682.682,0,0,1-.31-.534v-6.1l5,6.16Z" transform="translate(-161.186 -190.582)" fill="#fff"/>
              </g>
            </g>
          </g>
          <g id="Grupo_1235165" data-name="Grupo 1235165" transform="translate(5.095 114.118)">
            <g id="Grupo_1235164" data-name="Grupo 1235164">
              <g id="Grupo_1235163" data-name="Grupo 1235163">
                <path id="Trazado_1069455" data-name="Trazado 1069455" d="M209.823,262.612a3.745,3.745,0,0,1,1.7,2.947l-.01,3.512c0,1.085-.769,1.524-1.712.979l-46.668-26.944a3.756,3.756,0,0,1-1.7-2.95l.01-3.512c0-1.085.771-1.52,1.713-.976Z" transform="translate(-161.433 -235.434)" fill="#ffad66"/>
              </g>
              <path id="Trazado_1069456" data-name="Trazado 1069456" d="M209.308,266.763l-44.921-26.091c-.27-.156-.491.01-.491.371h0a1.173,1.173,0,0,0,.491.937l44.921,26.091c.27.156.491-.009.491-.371h0A1.173,1.173,0,0,0,209.308,266.763Z" transform="translate(-162.148 -236.937)" fill="#fff"/>
            </g>
          </g>
          <g id="Grupo_1235168" data-name="Grupo 1235168" transform="translate(5.095 102.39)">
            <g id="Grupo_1235167" data-name="Grupo 1235167">
              <g id="Grupo_1235166" data-name="Grupo 1235166">
                <path id="Trazado_1069457" data-name="Trazado 1069457" d="M209.823,246.089a3.746,3.746,0,0,1,1.7,2.947l-.01,3.512c0,1.085-.769,1.524-1.712.979l-46.668-26.944a3.756,3.756,0,0,1-1.7-2.95l.01-3.512c0-1.085.771-1.519,1.713-.975Z" transform="translate(-161.433 -218.912)" fill="#ffad66"/>
              </g>
              <path id="Trazado_1069458" data-name="Trazado 1069458" d="M209.308,250.239l-44.921-26.091c-.27-.157-.491.01-.491.371h0a1.175,1.175,0,0,0,.491.937l44.921,26.092c.27.156.491-.009.491-.371h0A1.173,1.173,0,0,0,209.308,250.239Z" transform="translate(-162.148 -220.414)" fill="#fff"/>
            </g>
          </g>
          <g id="Grupo_1235175" data-name="Grupo 1235175" transform="translate(22.727 88.85)">
            <g id="Grupo_1235174" data-name="Grupo 1235174">
              <g id="Grupo_1235169" data-name="Grupo 1235169">
                <path id="Trazado_1069459" data-name="Trazado 1069459" d="M198.025,206.062a2.7,2.7,0,0,1,1.226,2.123l-.034,12.053c0,.78-.555,1.092-1.234.7l-10.489-6.056a2.693,2.693,0,0,1-1.223-2.119l.034-12.052c0-.78.552-1.1,1.231-.7Z" transform="translate(-186.271 -199.838)" fill="#ffad66"/>
              </g>
              <g id="Grupo_1235173" data-name="Grupo 1235173" transform="translate(1.202 4.814)">
                <g id="Grupo_1235170" data-name="Grupo 1235170" transform="translate(0 0.163)">
                  <path id="Trazado_1069460" data-name="Trazado 1069460" d="M197.575,218.93l-8.663-5a2.091,2.091,0,0,1-.948-1.635V207.52c0-.6.425-.843.948-.54l8.663,5a2.091,2.091,0,0,1,.948,1.635v4.774C198.523,218.99,198.1,219.232,197.575,218.93Zm-8.663-11.5c-.3-.176-.553-.035-.553.315v4.774a1.22,1.22,0,0,0,.553.954l8.663,5c.3.176.553.035.553-.315v-4.774a1.22,1.22,0,0,0-.553-.954Z" transform="translate(-187.964 -206.85)" fill="#fff"/>
                </g>
                <g id="Grupo_1235171" data-name="Grupo 1235171" transform="translate(2.975 3.362)">
                  <path id="Trazado_1069461" data-name="Trazado 1069461" d="M194.459,216.959a5.084,5.084,0,0,1-2.3-3.974c0-1.458,1.034-2.047,2.3-1.313a5.084,5.084,0,0,1,2.3,3.974C196.763,217.1,195.73,217.693,194.459,216.959Zm0-4.834c-1.053-.608-1.909-.119-1.909,1.088a4.215,4.215,0,0,0,1.909,3.293c1.053.608,1.909.119,1.909-1.088A4.213,4.213,0,0,0,194.459,212.125Z" transform="translate(-192.155 -211.356)" fill="#fff"/>
                </g>
                <g id="Grupo_1235172" data-name="Grupo 1235172" transform="translate(2.544)">
                  <path id="Trazado_1069462" data-name="Trazado 1069462" d="M197.018,211.363l-5.47-3.158V207.06c0-.393.279-.553.622-.355l4.226,2.44a1.373,1.373,0,0,1,.622,1.073v1.144Zm-5.075-3.383,4.68,2.7v-.691a.5.5,0,0,0-.227-.392l-4.226-2.44c-.126-.072-.227-.014-.227.129v.691Z" transform="translate(-191.548 -206.62)" fill="#fff"/>
                </g>
              </g>
            </g>
          </g>
          <g id="Grupo_1235178" data-name="Grupo 1235178" transform="translate(42.207 100.079)">
            <g id="Grupo_1235177" data-name="Grupo 1235177">
              <g id="Grupo_1235176" data-name="Grupo 1235176">
                <path id="Trazado_1069463" data-name="Trazado 1069463" d="M225.47,221.88A2.7,2.7,0,0,1,226.693,224l-.034,12.053c0,.78-.552,1.093-1.232.7L214.938,230.7a2.7,2.7,0,0,1-1.226-2.12l.034-12.052c0-.78.555-1.095,1.234-.7Z" transform="translate(-213.712 -215.657)" fill="#ffad66"/>
              </g>
              <path id="Trazado_1069464" data-name="Trazado 1069464" d="M221.146,223.767c-2.4-1.384-4.341-.661-4.341,1.615a7.8,7.8,0,0,0,2.043,4.672c-.057.385-.307,1.19-1.4.571,0,0,1.514,1.669,2.949.885a7.888,7.888,0,0,0,.752.5c2.4,1.384,4.341.661,4.341-1.615S223.543,225.15,221.146,223.767Z" transform="translate(-214.609 -217.806)" fill="#fff"/>
            </g>
          </g>
          <g id="Grupo_1235182" data-name="Grupo 1235182" transform="translate(25.132 64.809)">
            <g id="Grupo_1235181" data-name="Grupo 1235181">
              <g id="Grupo_1235179" data-name="Grupo 1235179">
                <path id="Trazado_1069465" data-name="Trazado 1069465" d="M217.739,181.249a4.355,4.355,0,0,1,1.976,3.426l-.029,10.317c0,1.258-.894,1.765-1.989,1.134l-26.061-15.006a4.356,4.356,0,0,1-1.976-3.422l.029-10.317c0-1.261.894-1.768,1.989-1.137Z" transform="translate(-189.659 -165.971)" fill="#ffad66"/>
              </g>
              <g id="Grupo_1235180" data-name="Grupo 1235180" transform="translate(2.48 3.605)">
                <path id="Trazado_1069466" data-name="Trazado 1069466" d="M218,185.2l-24.36-14.09c-.271-.156-.491.01-.491.371h0a1.173,1.173,0,0,0,.491.937L218,186.507c.27.156.491-.009.491-.371h0A1.173,1.173,0,0,0,218,185.2Z" transform="translate(-193.153 -171.05)" fill="#fff"/>
                <path id="Trazado_1069467" data-name="Trazado 1069467" d="M218,190.688l-24.36-14.09c-.271-.156-.491.01-.491.371h0a1.174,1.174,0,0,0,.491.937L218,192c.27.156.491-.01.491-.371h0A1.173,1.173,0,0,0,218,190.688Z" transform="translate(-193.153 -172.643)" fill="#fff"/>
                <path id="Trazado_1069468" data-name="Trazado 1069468" d="M218,196.176l-24.36-14.09c-.271-.157-.491.01-.491.371h0a1.173,1.173,0,0,0,.491.936L218,197.483c.27.156.491-.01.491-.371h0A1.174,1.174,0,0,0,218,196.176Z" transform="translate(-193.153 -174.235)" fill="#fff"/>
              </g>
            </g>
          </g>
          <path id="Trazado_1069469" data-name="Trazado 1069469" d="M214.187,113.552l-.02,7.718L154.7,86.935l.02-7.718c.01-2.118,1.511-2.981,3.354-1.912l52.782,30.47A7.335,7.335,0,0,1,214.187,113.552Z" transform="translate(-154.383 -75.305)" fill="#ffad66"/>
        </g>
        <g id="Grupo_1235223" data-name="Grupo 1235223" transform="translate(132.942 143.048)">
          <g id="Grupo_1235187" data-name="Grupo 1235187" transform="translate(0)">
            <g id="Grupo_1235186" data-name="Grupo 1235186">
              <path id="Trazado_1069470" data-name="Trazado 1069470" d="M235.443,208.06,182.66,177.585a2.357,2.357,0,0,0-2.378-.231l-2.656,1.543a2.357,2.357,0,0,1,2.378.231L232.787,209.6a7.342,7.342,0,0,1,3.333,5.773l-.336,118.751a2.333,2.333,0,0,1-.971,2.139l2.656-1.543a2.334,2.334,0,0,0,.971-2.139l.336-118.751A7.34,7.34,0,0,0,235.443,208.06Z" transform="translate(-176.316 -177.127)" fill="#7981f2"/>
              <g id="Grupo_1235184" data-name="Grupo 1235184" transform="translate(0 1.542)">
                <path id="Trazado_1069471" data-name="Trazado 1069471" d="M235.584,216.006l-.02,7.718L235.25,334.76c-.01,2.118-1.5,2.972-3.354,1.9l-52.782-30.48a7.284,7.284,0,0,1-3.334-5.757l.314-111.036.019-7.718c.01-2.118,1.511-2.981,3.354-1.912l52.782,30.47A7.335,7.335,0,0,1,235.584,216.006Z" transform="translate(-175.78 -179.299)" fill="#4d4bb7"/>
              </g>
              <g id="Grupo_1235185" data-name="Grupo 1235185" transform="translate(1.491 5.476)">
                <path id="Trazado_1069472" data-name="Trazado 1069472" d="M234.7,219.718l-.018,7.333-.3,105.5c-.009,2.012-1.425,2.823-3.187,1.807L181.049,305.4a6.922,6.922,0,0,1-3.168-5.47l.3-105.5.018-7.334c.009-2.012,1.435-2.832,3.187-1.817l50.15,28.951A6.969,6.969,0,0,1,234.7,219.718Z" transform="translate(-177.881 -184.841)" fill="#333"/>
              </g>
            </g>
          </g>
          <g id="Grupo_1235190" data-name="Grupo 1235190" transform="translate(4.158 47.271)">
            <g id="Grupo_1235189" data-name="Grupo 1235189">
              <g id="Grupo_1235188" data-name="Grupo 1235188">
                <path id="Trazado_1069473" data-name="Trazado 1069473" d="M198.455,252.645a3.753,3.753,0,0,1,1.7,2.948l-.046,16.245c0,1.082-.771,1.52-1.715.975l-15.056-8.692a3.753,3.753,0,0,1-1.7-2.948l.046-16.245c0-1.082.771-1.519,1.715-.975Z" transform="translate(-181.638 -243.718)" fill="#4d4bb7"/>
              </g>
              <path id="Trazado_1069474" data-name="Trazado 1069474" d="M192,256.43c-2.65-1.53-4.8-.307-4.8,2.734a10.565,10.565,0,0,0,4.8,8.271c2.648,1.528,4.8.3,4.8-2.734A10.566,10.566,0,0,0,192,256.43Zm-1.171,7.363v-4.948l3.734,4.63Z" transform="translate(-183.253 -247.215)" fill="#fff"/>
            </g>
          </g>
          <g id="Grupo_1235195" data-name="Grupo 1235195" transform="translate(5.095 23.082)">
            <g id="Grupo_1235194" data-name="Grupo 1235194">
              <g id="Grupo_1235191" data-name="Grupo 1235191">
                <path id="Trazado_1069475" data-name="Trazado 1069475" d="M194.712,215.868a2.7,2.7,0,0,1,1.226,2.123l-.034,12.052c0,.78-.555,1.092-1.234.7l-10.489-6.056a2.693,2.693,0,0,1-1.223-2.119l.034-12.053c0-.78.552-1.1,1.231-.7Z" transform="translate(-182.958 -209.643)" fill="#4d4bb7"/>
              </g>
              <g id="Grupo_1235193" data-name="Grupo 1235193" transform="translate(0.65 4.853)">
                <g id="Grupo_1235192" data-name="Grupo 1235192" transform="translate(0 2.636)">
                  <path id="Trazado_1069476" data-name="Trazado 1069476" d="M188.963,224.069l-.985,2.645-4.105-2.37,2.548-3.595c.358-.5,1.252.012,1.611.93Z" transform="translate(-183.873 -220.298)" fill="#fff"/>
                  <path id="Trazado_1069477" data-name="Trazado 1069477" d="M192.258,229.655l-2.6-1.5.985-2.645Z" transform="translate(-185.551 -221.735)" fill="#e6e6e6"/>
                  <path id="Trazado_1069478" data-name="Trazado 1069478" d="M196.766,230.484l-4.105-2.37-1.617-4.148,1.246-3.34c.373-1,1.872-.135,2.245,1.3Z" transform="translate(-185.954 -220.194)" fill="#fff"/>
                </g>
                <path id="Trazado_1069479" data-name="Trazado 1069479" d="M190.321,218.187c0,.581-.41.815-.916.522a2.02,2.02,0,0,1-.916-1.581c0-.581.41-.815.916-.522A2.02,2.02,0,0,1,190.321,218.187Z" transform="translate(-185.212 -216.481)" fill="#e6e6e6"/>
              </g>
            </g>
          </g>
          <g id="Grupo_1235198" data-name="Grupo 1235198" transform="translate(26.852 59.284)">
            <g id="Grupo_1235197" data-name="Grupo 1235197">
              <g id="Grupo_1235196" data-name="Grupo 1235196">
                <path id="Trazado_1069480" data-name="Trazado 1069480" d="M240.673,275.7a2.8,2.8,0,0,1,1.269,2.2l-.012,4.4c0,.809-.573,1.137-1.277.731l-25.777-14.882a2.8,2.8,0,0,1-1.269-2.2l.012-4.4c0-.812.574-1.137,1.277-.731Z" transform="translate(-213.607 -260.641)" fill="#4d4bb7"/>
              </g>
              <path id="Trazado_1069481" data-name="Trazado 1069481" d="M240.668,280.015,217.028,266.3c-.27-.156-.491.009-.491.371h0a1.173,1.173,0,0,0,.491.936l23.64,13.716c.27.156.491-.009.491-.371h0A1.177,1.177,0,0,0,240.668,280.015Z" transform="translate(-214.457 -262.265)" fill="#fff"/>
            </g>
          </g>
          <g id="Grupo_1235201" data-name="Grupo 1235201" transform="translate(26.852 74.666)">
            <g id="Grupo_1235200" data-name="Grupo 1235200">
              <g id="Grupo_1235199" data-name="Grupo 1235199">
                <path id="Trazado_1069482" data-name="Trazado 1069482" d="M240.673,297.367a2.8,2.8,0,0,1,1.269,2.2l-.012,4.4c0,.809-.573,1.134-1.277.728l-25.777-14.882a2.8,2.8,0,0,1-1.269-2.2l.012-4.4c0-.809.574-1.137,1.277-.731Z" transform="translate(-213.607 -282.31)" fill="#4d4bb7"/>
              </g>
              <path id="Trazado_1069483" data-name="Trazado 1069483" d="M240.668,301.336l-23.64-13.716c-.27-.156-.491.01-.491.371h0a1.173,1.173,0,0,0,.491.937l23.64,13.715c.27.156.491-.009.491-.371h0A1.177,1.177,0,0,0,240.668,301.336Z" transform="translate(-214.457 -283.833)" fill="#fff"/>
            </g>
          </g>
          <g id="Grupo_1235205" data-name="Grupo 1235205" transform="translate(3.578 98.649)">
            <g id="Grupo_1235204" data-name="Grupo 1235204">
              <g id="Grupo_1235202" data-name="Grupo 1235202">
                <path id="Trazado_1069484" data-name="Trazado 1069484" d="M192.574,322.318a2.7,2.7,0,0,1,1.226,2.123l-.034,12.053c0,.779-.555,1.092-1.234.7l-10.489-6.056a2.693,2.693,0,0,1-1.223-2.118l.034-12.053c0-.779.552-1.1,1.231-.7Z" transform="translate(-180.82 -316.095)" fill="#4d4bb7"/>
              </g>
              <g id="Grupo_1235203" data-name="Grupo 1235203" transform="translate(1.342 4.286)">
                <path id="Trazado_1069485" data-name="Trazado 1069485" d="M192.779,328.165v.017l-5,.42-5.071-6.25h0c0-.2.138-.275.31-.177l9.449,5.455A.684.684,0,0,1,192.779,328.165Z" transform="translate(-182.711 -322.132)" fill="#fff"/>
                <path id="Trazado_1069486" data-name="Trazado 1069486" d="M187.782,329.248l5-.421v6.084c0,.2-.138.275-.31.177l-9.449-5.455a.682.682,0,0,1-.309-.534v-6.1l5,6.16Z" transform="translate(-182.711 -322.383)" fill="#fff"/>
              </g>
            </g>
          </g>
          <g id="Grupo_1235208" data-name="Grupo 1235208" transform="translate(5.096 80.03)">
            <g id="Grupo_1235207" data-name="Grupo 1235207">
              <g id="Grupo_1235206" data-name="Grupo 1235206">
                <path id="Trazado_1069487" data-name="Trazado 1069487" d="M231.348,317.044a3.746,3.746,0,0,1,1.7,2.947l-.01,3.512c0,1.085-.769,1.524-1.712.979L184.66,297.538a3.756,3.756,0,0,1-1.7-2.95l.01-3.512c0-1.085.771-1.519,1.712-.976Z" transform="translate(-182.958 -289.867)" fill="#4d4bb7"/>
              </g>
              <path id="Trazado_1069488" data-name="Trazado 1069488" d="M230.833,321.195,185.913,295.1c-.27-.156-.491.01-.491.371h0a1.172,1.172,0,0,0,.491.936L230.833,322.5c.271.156.491-.009.491-.371h0A1.173,1.173,0,0,0,230.833,321.195Z" transform="translate(-183.673 -291.369)" fill="#fff"/>
            </g>
          </g>
          <g id="Grupo_1235215" data-name="Grupo 1235215" transform="translate(22.727 109.683)">
            <g id="Grupo_1235214" data-name="Grupo 1235214">
              <g id="Grupo_1235209" data-name="Grupo 1235209">
                <path id="Trazado_1069489" data-name="Trazado 1069489" d="M219.55,337.863a2.7,2.7,0,0,1,1.226,2.123l-.034,12.052c0,.78-.555,1.092-1.234.7l-10.489-6.056a2.693,2.693,0,0,1-1.223-2.119l.034-12.052c0-.78.552-1.1,1.231-.7Z" transform="translate(-207.796 -331.638)" fill="#4d4bb7"/>
              </g>
              <g id="Grupo_1235213" data-name="Grupo 1235213" transform="translate(1.202 4.815)">
                <g id="Grupo_1235210" data-name="Grupo 1235210" transform="translate(0 0.163)">
                  <path id="Trazado_1069490" data-name="Trazado 1069490" d="M219.1,350.732l-8.663-5a2.091,2.091,0,0,1-.948-1.635v-4.774c0-.6.425-.842.948-.54l8.663,5a2.091,2.091,0,0,1,.948,1.635v4.774C220.048,350.791,219.623,351.033,219.1,350.732Zm-8.663-11.5c-.3-.176-.553-.034-.553.315v4.774a1.22,1.22,0,0,0,.553.954l8.663,5c.3.176.553.035.553-.315v-4.774a1.22,1.22,0,0,0-.553-.954Z" transform="translate(-209.489 -338.651)" fill="#fff"/>
                </g>
                <g id="Grupo_1235211" data-name="Grupo 1235211" transform="translate(2.975 3.362)">
                  <path id="Trazado_1069491" data-name="Trazado 1069491" d="M215.984,348.76a5.084,5.084,0,0,1-2.3-3.974c0-1.458,1.034-2.047,2.3-1.313a5.082,5.082,0,0,1,2.3,3.974C218.288,348.9,217.255,349.493,215.984,348.76Zm0-4.835c-1.053-.608-1.909-.119-1.909,1.088a4.215,4.215,0,0,0,1.909,3.293c1.053.608,1.909.119,1.909-1.088A4.211,4.211,0,0,0,215.984,343.925Z" transform="translate(-213.68 -343.157)" fill="#fff"/>
                </g>
                <g id="Grupo_1235212" data-name="Grupo 1235212" transform="translate(2.545)">
                  <path id="Trazado_1069492" data-name="Trazado 1069492" d="M218.544,343.164l-5.47-3.158v-1.144c0-.393.279-.553.622-.355l4.227,2.44a1.373,1.373,0,0,1,.622,1.073Zm-5.076-3.383,4.68,2.7v-.691a.5.5,0,0,0-.227-.392l-4.227-2.44c-.125-.072-.227-.014-.227.129v.691Z" transform="translate(-213.074 -338.421)" fill="#fff"/>
                </g>
              </g>
            </g>
          </g>
          <g id="Grupo_1235218" data-name="Grupo 1235218" transform="translate(42.207 120.911)">
            <g id="Grupo_1235217" data-name="Grupo 1235217">
              <g id="Grupo_1235216" data-name="Grupo 1235216">
                <path id="Trazado_1069493" data-name="Trazado 1069493" d="M246.995,353.68a2.7,2.7,0,0,1,1.223,2.122l-.034,12.053c0,.78-.552,1.093-1.232.7L236.463,362.5a2.7,2.7,0,0,1-1.226-2.12l.034-12.052c0-.78.555-1.1,1.234-.7Z" transform="translate(-235.237 -347.456)" fill="#4d4bb7"/>
              </g>
              <path id="Trazado_1069494" data-name="Trazado 1069494" d="M242.671,355.567c-2.4-1.384-4.341-.661-4.341,1.615a7.8,7.8,0,0,0,2.043,4.672c-.057.385-.307,1.19-1.4.571,0,0,1.514,1.67,2.949.884a7.786,7.786,0,0,0,.752.5c2.4,1.384,4.341.661,4.341-1.615S245.068,356.951,242.671,355.567Z" transform="translate(-236.134 -349.605)" fill="#fff"/>
            </g>
          </g>
          <g id="Grupo_1235222" data-name="Grupo 1235222" transform="translate(21.423 32.846)">
            <g id="Grupo_1235221" data-name="Grupo 1235221">
              <g id="Grupo_1235219" data-name="Grupo 1235219">
                <path id="Trazado_1069495" data-name="Trazado 1069495" d="M237.748,240.857a4.355,4.355,0,0,1,1.976,3.426l-.029,10.317c0,1.258-.894,1.765-1.989,1.134l-29.77-17.187a4.356,4.356,0,0,1-1.976-3.422l.029-10.317c0-1.261.894-1.768,1.989-1.137Z" transform="translate(-205.959 -223.398)" fill="#4d4bb7"/>
              </g>
              <g id="Grupo_1235220" data-name="Grupo 1235220" transform="translate(2.48 3.605)">
                <path id="Trazado_1069496" data-name="Trazado 1069496" d="M238.012,244.807l-28.07-16.272c-.27-.156-.491.009-.491.371h0a1.173,1.173,0,0,0,.491.937l28.07,16.272c.27.157.491-.01.491-.371h0A1.173,1.173,0,0,0,238.012,244.807Z" transform="translate(-209.452 -228.476)" fill="#fff"/>
                <path id="Trazado_1069497" data-name="Trazado 1069497" d="M238.012,250.3l-28.07-16.272c-.27-.156-.491.009-.491.371h0a1.173,1.173,0,0,0,.491.937l28.07,16.272c.27.156.491-.01.491-.371h0A1.173,1.173,0,0,0,238.012,250.3Z" transform="translate(-209.452 -230.069)" fill="#fff"/>
                <path id="Trazado_1069498" data-name="Trazado 1069498" d="M238.012,255.784l-28.07-16.272c-.27-.156-.491.01-.491.371h0a1.174,1.174,0,0,0,.491.937l28.07,16.272c.27.156.491-.01.491-.371h0A1.173,1.173,0,0,0,238.012,255.784Z" transform="translate(-209.452 -231.661)" fill="#fff"/>
              </g>
            </g>
          </g>
          <path id="Trazado_1069499" data-name="Trazado 1069499" d="M235.712,216.006l-.02,7.718-59.47-34.334.019-7.718c.01-2.118,1.511-2.981,3.354-1.912l52.782,30.47A7.333,7.333,0,0,1,235.712,216.006Z" transform="translate(-175.908 -177.758)" fill="#4d4bb7"/>
        </g>
        <g id="Grupo_1235225" data-name="Grupo 1235225" transform="translate(83.493 201.741)">
          <g id="Grupo_1235224" data-name="Grupo 1235224">
            <ellipse id="Elipse_13970" data-name="Elipse 13970" cx="11.221" cy="19.436" rx="11.221" ry="19.436" transform="translate(11.082 123.167) rotate(-89.691)" fill="#707070"/>
            <path id="Trazado_1069500" data-name="Trazado 1069500" d="M125.185,313.24a.2.2,0,0,0-.157-.03,6.108,6.108,0,0,0-2.032.566,15.651,15.651,0,0,1-1.5.736,1.458,1.458,0,0,1-.85.167,1.335,1.335,0,0,1-.271-.141,15.642,15.642,0,0,1-3.745-3.921c-.612-.877-1.17-1.79-1.718-2.708-.275-.459-.547-.92-.821-1.378-.321-.534-.677-.941-.2-1.506q2.149-2.52,4.163-5.153a8.279,8.279,0,0,0,1.325-2.18,8.554,8.554,0,0,0,.361-1.781c.141-1.084.287-2.171.322-3.265.029-.9-.8-1.225-1.611-1.292a5.2,5.2,0,0,0-5.2,2.984c-.284.642-.5,1.316-.836,1.934a15.868,15.868,0,0,1-1.963,2.522,35.139,35.139,0,0,0-3.994,6.326,1.891,1.891,0,0,0-.229,1.649,7.1,7.1,0,0,0,1.32,1.714q2.241,2.448,4.646,4.74a21.439,21.439,0,0,0,3.948,3.153,21.164,21.164,0,0,0,2.675,1.25,10.388,10.388,0,0,0,5.07,1.062,2.39,2.39,0,0,1,.231-1.448c.253-.346.647-.59.809-1a2.508,2.508,0,0,0,.118-.674q.088-1.081.176-2.162A.208.208,0,0,0,125.185,313.24Z" transform="translate(-106.12 -268.956)" fill="#ffb78c"/>
            <path id="Trazado_1069501" data-name="Trazado 1069501" d="M120.829,287.193q-.449.184-.882.407a15.439,15.439,0,0,0-3.975,3.194,28.739,28.739,0,0,0-1.966,2.24,18.9,18.9,0,0,0-2.1,3.334c-.366.754.587,1.723,1.084,2.2a7.254,7.254,0,0,0,3.5,2,8.135,8.135,0,0,0,2.463.057,5.01,5.01,0,0,0,1.812-.451.138.138,0,0,0,.074-.066.141.141,0,0,0-.019-.1,2.36,2.36,0,0,1-.356-1.066,3.284,3.284,0,0,1,.456-.991,22.882,22.882,0,0,0,.96-2.326c.387-1.1.689-2.24,1.158-3.312a7.761,7.761,0,0,0,.574-1.5,5.531,5.531,0,0,0,.046-1.457,4.47,4.47,0,0,0-.256-1.558c-.089-.2-.223-.322-.239-.54a2.469,2.469,0,0,1,.082-.755q-.233.038-.464.087A11.384,11.384,0,0,0,120.829,287.193Z" transform="translate(-107.776 -267.554)" fill="#f2f2f2"/>
            <path id="Trazado_1069502" data-name="Trazado 1069502" d="M127.844,414.173c-.034,1.014.153,2.38,1.122,2.874a2.536,2.536,0,0,0,2,.1,8.68,8.68,0,0,0,2.56-2.084,5.047,5.047,0,0,1,1.982-1.172,12.636,12.636,0,0,1,1.778-.267,15.156,15.156,0,0,0,5.446-2.114,1.605,1.605,0,0,0,.284-2.59,3.238,3.238,0,0,0-2.113-.582,32.6,32.6,0,0,0-8.343.429,5.69,5.69,0,0,0-1.605.567,4.778,4.778,0,0,0-1.019.8c-.16.164-.21.3-.449.218-.055-.02-.376-.263-.306-.342a4.1,4.1,0,0,0-.728,1.379,9.413,9.413,0,0,0-.607,2.641Q127.847,414.1,127.844,414.173Z" transform="translate(-112.422 -302.88)" fill="#4d4bb7"/>
            <path id="Trazado_1069503" data-name="Trazado 1069503" d="M136.2,327.208a6.539,6.539,0,0,0-.9-2.011,6.13,6.13,0,0,0-1.608-1.359c-1.34-.876-3.491-1.65-4.662-.056a8.794,8.794,0,0,0-.8,1.837c-.456,1.082-.976,2.135-1.413,3.226a27.334,27.334,0,0,0-1.278,3.953,14.171,14.171,0,0,0,.526,8.924A15.17,15.17,0,0,1,127,343.89a8.692,8.692,0,0,1,.209,2.189c0,.06,0,.121,0,.181q.042,4.523-.04,9.046c-.027,1.508-.071,3.014-.112,4.521a14.28,14.28,0,0,1-.079,1.927c-.111.694-.281,1.376-.416,2.066-.232,1.183-.459,2.367-.6,3.565a23.515,23.515,0,0,0-.175,3.576,53.671,53.671,0,0,0,1.458,8.756,31.781,31.781,0,0,1,.629,4.419c.041.716-.006,1.42-.009,2.134,0,.635.512.96,1.143,1.073a3.643,3.643,0,0,0,1.577-.138,8.742,8.742,0,0,0,2.016-.828A2.557,2.557,0,0,0,133.9,385a2.97,2.97,0,0,0,.03-1.129,63.09,63.09,0,0,1-.045-15.76c.1-.672.18-1.348.334-2.01a8.437,8.437,0,0,1,.678-1.635,22.242,22.242,0,0,0,1.265-3.784,67.2,67.2,0,0,0,1.25-8c.133-1.1.272-2.2.444-3.3a70.962,70.962,0,0,0,1.111-7.6C139.211,336.821,137.7,331.953,136.2,327.208Z" transform="translate(-111.619 -278.101)" fill="#333"/>
            <path id="Trazado_1069504" data-name="Trazado 1069504" d="M147.244,418.145a3.284,3.284,0,0,0,.077,2.768,2.552,2.552,0,0,0,1.945.956,2.949,2.949,0,0,0,1.034-.083,5.919,5.919,0,0,0,1.278-.649,5.114,5.114,0,0,1,1.5-.606,12.219,12.219,0,0,1,2.554-.042,14.421,14.421,0,0,0,2.4-.22,10.87,10.87,0,0,0,3.236-.933,4.7,4.7,0,0,0,2.3-2.374,2.107,2.107,0,0,0-1.313-2.9,7.485,7.485,0,0,0-2.331-.449c-1.743-.156-3.483-.373-5.232-.392a14.061,14.061,0,0,0-5.158.787,2.934,2.934,0,0,0-1.006.569c-.463.441-.357,1.009-.579,1.548A21.375,21.375,0,0,0,147.244,418.145Z" transform="translate(-117.974 -304.319)" fill="#80c5ff"/>
            <path id="Trazado_1069505" data-name="Trazado 1069505" d="M149.5,354.2a30.376,30.376,0,0,0-.269-10.287,159.424,159.424,0,0,1-2.945-16.71c.116,1.251-1.186,3.489-2.183,4.209a3.613,3.613,0,0,1-1.626.361,7.935,7.935,0,0,1-3.459-.54,35.1,35.1,0,0,1-4.215-2.282c-1.079-.6-2.2-1.716-3.343-.74-2.133,1.826-3.124,5.455-3.157,8.141-.083,6.772,6.018,10.887,8.117,16.92a42.485,42.485,0,0,1,1.376,5.465q.462,2.246.922,4.493a20.084,20.084,0,0,1,.554,4.5c-.038,1.538-.287,3.062-.344,4.6a18.375,18.375,0,0,0,.388,3.745c.2,1.154.46,2.3.75,3.433a106.694,106.694,0,0,1,2.618,10.591,2.336,2.336,0,0,0,.21.929c.158.208.466.226.731.26a4.637,4.637,0,0,0,2-.2A6.984,6.984,0,0,0,148,389.7a2.034,2.034,0,0,0,.919-1.955c-.214-1.036-.452-2.064-.626-3.109a45.866,45.866,0,0,1-.6-6.122c-.076-2.519.106-5.037.04-7.555-.039-1.485-.094-3.047-.029-4.562a40.949,40.949,0,0,1,.668-4.64C148.773,359.239,149.167,356.721,149.5,354.2Z" transform="translate(-112.555 -279.36)" fill="#424242"/>
            <path id="Trazado_1069506" data-name="Trazado 1069506" d="M144.375,304.314a9.923,9.923,0,0,1,.788-2.649,9.656,9.656,0,0,0,.533-2.989,2.858,2.858,0,0,0-.208-1.3,3.323,3.323,0,0,0-1.161-1.172q-.581-.415-1.168-.822c-1.954-1.357-3.949-2.656-5.964-3.92q-1.512-.949-3.037-1.875a4.964,4.964,0,0,0-1.3-.652,10.889,10.889,0,0,1-1.477-.613,25.894,25.894,0,0,0-3.186-.987,9.606,9.606,0,0,0-1.555-.358,5.768,5.768,0,0,0-3.506.649,5.39,5.39,0,0,0-2.278,2.494,7.958,7.958,0,0,0-.626,2.476c-.038.381-.056.762-.058,1.137a10.656,10.656,0,0,0,1.2,4.819,47.34,47.34,0,0,0,3.312,5.465,11.971,11.971,0,0,1,1.617,5.837,38.223,38.223,0,0,1-.673,7.939,4.578,4.578,0,0,0-.061,1.411,4.318,4.318,0,0,0,2.322,2.658,20.214,20.214,0,0,0,7.364,2.873,12.275,12.275,0,0,0,7.725-1.186,3.162,3.162,0,0,0,1.257-1.071,3.779,3.779,0,0,0,.334-2.023c-.045-2.409-.168-4.818-.133-7.228.023-1.567.283-3.116.393-4.677a6.262,6.262,0,0,0-.06-2.157A6.022,6.022,0,0,1,144.375,304.314Z" transform="translate(-110.198 -267.678)" fill="#d9d9d9"/>
            <path id="Trazado_1069507" data-name="Trazado 1069507" d="M128.407,284.8a3.4,3.4,0,0,0-.006.51c-.018.248-.157.475-.187.723a1.322,1.322,0,0,0,.148.718,2.858,2.858,0,0,0,1.276,1.259,5.523,5.523,0,0,0,1.738.522,20.873,20.873,0,0,0,2.259.179,13.907,13.907,0,0,0,2.013-.012,1.982,1.982,0,0,0,1.193-.441c.388-.373.294-.716.272-1.183-.032-.665-.021-1.335-.054-2a26.978,26.978,0,0,1,.074-3.764.368.368,0,0,0-.038-.252.359.359,0,0,0-.164-.1,16.541,16.541,0,0,1-2.43-1.207,14.325,14.325,0,0,0-1.635-.954,6.117,6.117,0,0,0-1.609-.437,3.536,3.536,0,0,0-1.786.114,1.837,1.837,0,0,0-1.046,1.044,2.714,2.714,0,0,0,.018,1.293A12.85,12.85,0,0,1,128.407,284.8Z" transform="translate(-112.529 -265.173)" fill="#ffb78c"/>
            <path id="Trazado_1069508" data-name="Trazado 1069508" d="M139.524,266.959a1.85,1.85,0,0,1,.25.772c.015.411-.3.767-.352,1.174a1.641,1.641,0,0,0,.686,1.364,5.373,5.373,0,0,1,1.149,1.092.387.387,0,0,1,.072.2c0,.191-.223.285-.393.372a1.811,1.811,0,0,0-.851,1.167,6.842,6.842,0,0,0-.157,1.476q-.033.68-.121,1.357a8.334,8.334,0,0,0-.034,1.191.444.444,0,0,1-.018.159.422.422,0,0,1-.145.174,4.257,4.257,0,0,1-1.9.84,9.868,9.868,0,0,1-2.093.131,1.257,1.257,0,0,1-.485-.076c-.273-.12-.224-.347-.357-.553a2.161,2.161,0,0,0-.62-.522,3.192,3.192,0,0,0-1.523-.515c-.67-.044-1.339.125-2.01.1a7.063,7.063,0,0,1-2.423-.686,9.441,9.441,0,0,1-2.557-1.4,6.48,6.48,0,0,1-2.011-4.271,8.189,8.189,0,0,1,2.558-7.087,8.33,8.33,0,0,1,2.751-1.5c1.326-.445,3.275-.892,4.585-.269a13.744,13.744,0,0,1,3.764,2.456,11.93,11.93,0,0,1,1.5,1.749A10.785,10.785,0,0,1,139.524,266.959Z" transform="translate(-111.186 -260.256)" fill="#ffe5cc"/>
            <path id="Trazado_1069509" data-name="Trazado 1069509" d="M126.608,261.35a10.393,10.393,0,0,1,5.857-.752A5.4,5.4,0,0,1,137,265.641a5.743,5.743,0,0,1-.875,3.083,5.494,5.494,0,0,1-1.961,2.159c-.379.176-.8.246-1.169.445a1.6,1.6,0,0,0-.574,2.227,7.337,7.337,0,0,0,.865,1.224,12.486,12.486,0,0,1,1.817,3.212.588.588,0,0,1,.056.283.568.568,0,0,1-.224.327,6.242,6.242,0,0,1-2.987,1.362,12.315,12.315,0,0,1-3.312.084,17.352,17.352,0,0,1-6.3-1.672c-.658-.332-1.631-.865-1.854-1.633a7.668,7.668,0,0,1-.123-2.3,24.746,24.746,0,0,1,.754-5.318c.2-.752.273-1.534.532-2.283A8.8,8.8,0,0,1,126.608,261.35Z" transform="translate(-110.243 -259.996)" fill="#733118"/>
            <path id="Trazado_1069510" data-name="Trazado 1069510" d="M181.836,263.835a1.159,1.159,0,0,0-.383-.752.5.5,0,0,0-.737.137q-.087-.773-.176-1.547a.824.824,0,0,0-.152-.466c-.069-.078-.166-.128-.233-.209-.175-.214-.071-.539-.157-.8a.563.563,0,0,0-1.1.146,1.015,1.015,0,0,0-.928.462,2.975,2.975,0,0,0-.4,1.008l-1.619,6.2a13.655,13.655,0,0,1-.305,1.365c-.206,1.277.094,2.749-.733,3.862-.623.837-8.428,9.316-8.885,9.761a7.564,7.564,0,0,1-2.147,1.677,16.742,16.742,0,0,1-2.446.657,33.953,33.953,0,0,1-4.39.855,19.113,19.113,0,0,1-4.221.063c-1.041-.107-2.071-.317-3.116-.375a6.022,6.022,0,0,0-3.583.765,3.8,3.8,0,0,0-1.715,2.841c-.109,1.812-.035,3.681,1.48,4.934a5.464,5.464,0,0,0,3.561,1.009,17.376,17.376,0,0,0,4.339-.586,94.559,94.559,0,0,0,13.113-4.392c2.169-.863,3.643-2.9,4.916-4.769q1.294-1.9,2.472-3.875c1.166-1.952,2.245-3.956,3.449-5.884.911-1.458,2.19-2.524,2.708-4.228.312-1.026.392-2.106.625-3.153C181.428,266.974,182.126,265.41,181.836,263.835Z" transform="translate(-117.221 -259.809)" fill="#ffe5cc"/>
            <path id="Trazado_1069511" data-name="Trazado 1069511" d="M147.177,296.116a5.938,5.938,0,0,0-2.151.722,4.379,4.379,0,0,0-1.863,2.582,5.117,5.117,0,0,0,1.226,4.7c1.382,1.53,3.205,1.721,5.149,1.9a25.989,25.989,0,0,0,7.39-.385,2.332,2.332,0,0,0,.513-.146,1.921,1.921,0,0,0,.567-.436,6.029,6.029,0,0,0,1.508-3.9,12.952,12.952,0,0,0-.354-3.333c-.192-.89-.221-1.681-1.273-1.647-2.294.075-4.558-.163-6.848-.246A19.073,19.073,0,0,0,147.177,296.116Z" transform="translate(-116.822 -270.282)" fill="#f2f2f2"/>
          </g>
        </g>
        <g id="Grupo_1235252" data-name="Grupo 1235252" transform="translate(83.573 63.541)">
          <g id="Grupo_1235239" data-name="Grupo 1235239" transform="translate(0 77.54)">
            <g id="Grupo_1235238" data-name="Grupo 1235238">
              <g id="Grupo_1235237" data-name="Grupo 1235237">
                <g id="Grupo_1235226" data-name="Grupo 1235226" transform="translate(14.518 34.328)">
                  <path id="Trazado_1069512" data-name="Trazado 1069512" d="M128.234,224.723v-1.114l-1.549-.894v1.115Z" transform="translate(-126.685 -222.715)" fill="#fff" fill-rule="evenodd"/>
                  <path id="Trazado_1069513" data-name="Trazado 1069513" d="M132.148,226.983v-1.115l-1.549-.894v1.115Z" transform="translate(-127.821 -223.37)" fill="#fff" fill-rule="evenodd"/>
                  <path id="Trazado_1069514" data-name="Trazado 1069514" d="M136.167,229.285l-.47-1.369-1.349-.779.168,1.211C135.068,228.668,135.624,228.993,136.167,229.285Z" transform="translate(-128.908 -223.998)" fill="#fff" fill-rule="evenodd"/>
                </g>
                <g id="Grupo_1235227" data-name="Grupo 1235227" transform="translate(6.173 29.509)">
                  <path id="Trazado_1069515" data-name="Trazado 1069515" d="M116.478,217.936v-1.115l-1.549-.894v1.114Z" transform="translate(-114.929 -215.927)" fill="#fff" fill-rule="evenodd"/>
                  <path id="Trazado_1069516" data-name="Trazado 1069516" d="M120.392,220.2v-1.114l-1.549-.894V219.3Z" transform="translate(-116.065 -216.583)" fill="#fff" fill-rule="evenodd"/>
                  <path id="Trazado_1069517" data-name="Trazado 1069517" d="M124.293,222.448v-1.114l-1.549-.894v1.114Z" transform="translate(-117.196 -217.236)" fill="#fff" fill-rule="evenodd"/>
                </g>
                <g id="Grupo_1235228" data-name="Grupo 1235228" transform="translate(0 23.001)">
                  <path id="Trazado_1069518" data-name="Trazado 1069518" d="M106.28,208.656l.928-.144,0-1.55-.971-.2C106.236,207.393,106.249,208.026,106.28,208.656Z" transform="translate(-106.233 -206.758)" fill="#fff" fill-rule="evenodd"/>
                  <path id="Trazado_1069519" data-name="Trazado 1069519" d="M108.42,213.169l.584-.731a3.368,3.368,0,0,1-1.186-1.318l-.818.427A4.393,4.393,0,0,0,108.42,213.169Z" transform="translate(-106.456 -208.024)" fill="#fff" fill-rule="evenodd"/>
                  <path id="Trazado_1069520" data-name="Trazado 1069520" d="M112.465,215.7l.055-1.083-1.349-.779-.363.9Z" transform="translate(-107.56 -208.814)" fill="#fff" fill-rule="evenodd"/>
                </g>
                <g id="Grupo_1235229" data-name="Grupo 1235229" transform="translate(0 13.297)">
                  <path id="Trazado_1069521" data-name="Trazado 1069521" d="M106.233,194.867l.971.56V193.65l-.971-.561Z" transform="translate(-106.233 -193.089)" fill="#fff" fill-rule="evenodd"/>
                  <path id="Trazado_1069522" data-name="Trazado 1069522" d="M106.233,199.359l.971.561v-1.778l-.971-.56Z" transform="translate(-106.233 -194.392)" fill="#fff" fill-rule="evenodd"/>
                  <path id="Trazado_1069523" data-name="Trazado 1069523" d="M106.233,203.859l.971.491v-1.733l-.971-.561Z" transform="translate(-106.233 -195.691)" fill="#fff" fill-rule="evenodd"/>
                </g>
                <g id="Grupo_1235230" data-name="Grupo 1235230" transform="translate(0 3.631)">
                  <path id="Trazado_1069524" data-name="Trazado 1069524" d="M106.233,181.34l.971.561v-1.613l-.971-.816Z" transform="translate(-106.233 -179.472)" fill="#fff" fill-rule="evenodd"/>
                  <path id="Trazado_1069525" data-name="Trazado 1069525" d="M106.233,185.868l.971.561v-1.778l-.971-.561Z" transform="translate(-106.233 -180.812)" fill="#fff" fill-rule="evenodd"/>
                  <path id="Trazado_1069526" data-name="Trazado 1069526" d="M106.233,190.345l.971.561v-1.778l-.971-.56Z" transform="translate(-106.233 -182.111)" fill="#fff" fill-rule="evenodd"/>
                </g>
                <g id="Grupo_1235231" data-name="Grupo 1235231" transform="translate(0.014)">
                  <path id="Trazado_1069527" data-name="Trazado 1069527" d="M112.027,176.339l.2,1.231,1.418.819v-1.115Z" transform="translate(-107.928 -174.932)" fill="#fff" fill-rule="evenodd"/>
                  <path id="Trazado_1069528" data-name="Trazado 1069528" d="M107.941,174.357l.7,1.413a3.615,3.615,0,0,1,1.329.607l-.444-1.359A4.15,4.15,0,0,0,107.941,174.357Z" transform="translate(-106.743 -174.357)" fill="#fff" fill-rule="evenodd"/>
                  <path id="Trazado_1069529" data-name="Trazado 1069529" d="M106.253,176.659l.957,1.086c0-.256,0-.519,0-.771a1.344,1.344,0,0,1,.18-.636l-.865-1.329a1.615,1.615,0,0,0-.24.743C106.266,176.046,106.263,176.352,106.253,176.659Z" transform="translate(-106.253 -174.546)" fill="#fff" fill-rule="evenodd"/>
                </g>
                <g id="Grupo_1235232" data-name="Grupo 1235232" transform="translate(6.983 3.063)">
                  <path id="Trazado_1069530" data-name="Trazado 1069530" d="M123.885,183.184V184.3l1.549.894v-1.115Z" transform="translate(-118.337 -179.981)" fill="#fff" fill-rule="evenodd"/>
                  <path id="Trazado_1069531" data-name="Trazado 1069531" d="M119.971,180.925v1.114l1.549.894v-1.114Z" transform="translate(-117.202 -179.326)" fill="#fff" fill-rule="evenodd"/>
                  <path id="Trazado_1069532" data-name="Trazado 1069532" d="M116.07,178.672v1.115l1.549.894v-1.114Z" transform="translate(-116.07 -178.672)" fill="#fff" fill-rule="evenodd"/>
                </g>
                <g id="Grupo_1235233" data-name="Grupo 1235233" transform="translate(15.328 7.882)">
                  <path id="Trazado_1069533" data-name="Trazado 1069533" d="M135.67,190.068l-.329.923c.449.263.9.51,1.349.788l.608-.707C136.766,190.716,136.223,190.395,135.67,190.068Z" transform="translate(-130.006 -186.797)" fill="#fff" fill-rule="evenodd"/>
                  <path id="Trazado_1069534" data-name="Trazado 1069534" d="M131.727,187.712v1.114l1.495.863.084-1.066Z" transform="translate(-128.958 -186.113)" fill="#fff" fill-rule="evenodd"/>
                  <path id="Trazado_1069535" data-name="Trazado 1069535" d="M127.826,185.46v1.114l1.549.894v-1.114Z" transform="translate(-127.826 -185.46)" fill="#fff" fill-rule="evenodd"/>
                </g>
                <g id="Grupo_1235234" data-name="Grupo 1235234" transform="translate(22.977 13.48)">
                  <path id="Trazado_1069536" data-name="Trazado 1069536" d="M140.244,202.767l-.971-.561v1.778l.971.561Z" transform="translate(-138.796 -195.917)" fill="#fff" fill-rule="evenodd"/>
                  <path id="Trazado_1069537" data-name="Trazado 1069537" d="M140.243,198.241l-.97-.169v1.548l.971.525Z" transform="translate(-138.796 -194.717)" fill="#fff" fill-rule="evenodd"/>
                  <path id="Trazado_1069538" data-name="Trazado 1069538" d="M139.4,193.346l-.8.46a3.229,3.229,0,0,1,.476,1.675l.936-.106A4.224,4.224,0,0,0,139.4,193.346Z" transform="translate(-138.601 -193.346)" fill="#fff" fill-rule="evenodd"/>
                </g>
                <g id="Grupo_1235235" data-name="Grupo 1235235" transform="translate(23.454 22.98)">
                  <path id="Trazado_1069539" data-name="Trazado 1069539" d="M140.244,216.258l-.971-.561v1.778l.971.561Z" transform="translate(-139.273 -209.331)" fill="#fff" fill-rule="evenodd"/>
                  <path id="Trazado_1069540" data-name="Trazado 1069540" d="M140.244,211.766l-.971-.56v1.778l.971.561Z" transform="translate(-139.273 -208.028)" fill="#fff" fill-rule="evenodd"/>
                  <path id="Trazado_1069541" data-name="Trazado 1069541" d="M140.244,207.29l-.971-.561v1.777l.971.561Z" transform="translate(-139.273 -206.729)" fill="#fff" fill-rule="evenodd"/>
                </g>
                <g id="Grupo_1235236" data-name="Grupo 1235236" transform="translate(22.384 32.557)">
                  <path id="Trazado_1069542" data-name="Trazado 1069542" d="M139.6,229.592l-.882-1.308a.822.822,0,0,1-.951.483l.68,1.415A1.05,1.05,0,0,0,139.6,229.592Z" transform="translate(-137.765 -222.56)" fill="#fff" fill-rule="evenodd"/>
                  <path id="Trazado_1069543" data-name="Trazado 1069543" d="M140.244,225.277l-.971-.78v1.548l.953,1.114C140.245,226.548,140.245,225.912,140.244,225.277Z" transform="translate(-138.203 -221.461)" fill="#fff" fill-rule="evenodd"/>
                  <path id="Trazado_1069544" data-name="Trazado 1069544" d="M140.244,220.781l-.971-.561V222l.971.561Z" transform="translate(-138.203 -220.22)" fill="#fff" fill-rule="evenodd"/>
                </g>
              </g>
            </g>
          </g>
          <g id="Grupo_1235242" data-name="Grupo 1235242" transform="translate(2.883 83.685)">
            <path id="Trazado_1069545" data-name="Trazado 1069545" d="M128.094,191.4l-14.3-8.256a.691.691,0,0,0-.7-.067l-2.335,1.357a.691.691,0,0,1,.7.067l14.3,8.256a2.147,2.147,0,0,1,.977,1.692l-.047,16.431a.679.679,0,0,1-.283.622l2.335-1.357a.678.678,0,0,0,.283-.622l.047-16.431A2.146,2.146,0,0,0,128.094,191.4Z" transform="translate(-110.43 -183.013)" fill="#a3a9ff"/>
            <g id="Grupo_1235240" data-name="Grupo 1235240" transform="translate(0 1.357)">
              <path id="Trazado_1069546" data-name="Trazado 1069546" d="M125.624,193.314a2.147,2.147,0,0,1,.977,1.692l-.047,16.431c0,.615-.44.865-.983.552l-14.3-8.256a2.157,2.157,0,0,1-.977-1.684l.047-16.431c0-.624.447-.87.983-.56Z" transform="translate(-110.294 -184.925)" fill="#7981f2"/>
            </g>
            <g id="Grupo_1235241" data-name="Grupo 1235241" transform="translate(3.182 8.488)">
              <path id="Trazado_1069547" data-name="Trazado 1069547" d="M120.134,203.62l-3.006-1.736-1.168,3.087,1.139.657v.331l-2.322-1.341v-.332l.713.412,3.871-9.73,1.244.718,3.825,14.173.7.4v.331l-4.963-2.866V207.4l1.078.622Zm-2.868-2.04,2.747,1.586-1.321-5.325Z" transform="translate(-114.777 -194.97)"/>
            </g>
          </g>
          <g id="Grupo_1235245" data-name="Grupo 1235245" transform="translate(2.883 55.7)">
            <path id="Trazado_1069548" data-name="Trazado 1069548" d="M128.094,151.979l-14.3-8.256a.691.691,0,0,0-.7-.067l-2.335,1.357a.691.691,0,0,1,.7.067l14.3,8.256a2.146,2.146,0,0,1,.977,1.692l-.047,16.431a.68.68,0,0,1-.283.622l2.335-1.357a.678.678,0,0,0,.283-.622l.047-16.431A2.146,2.146,0,0,0,128.094,151.979Z" transform="translate(-110.43 -143.59)" fill="#a3a9ff"/>
            <g id="Grupo_1235243" data-name="Grupo 1235243" transform="translate(0 1.358)">
              <path id="Trazado_1069549" data-name="Trazado 1069549" d="M125.624,153.891a2.147,2.147,0,0,1,.977,1.692l-.047,16.431c0,.615-.44.865-.983.552l-14.3-8.256a2.157,2.157,0,0,1-.977-1.684l.047-16.431c0-.624.447-.87.983-.56Z" transform="translate(-110.294 -145.503)" fill="#7981f2"/>
            </g>
            <g id="Grupo_1235244" data-name="Grupo 1235244" transform="translate(3.461 7.6)">
              <path id="Trazado_1069550" data-name="Trazado 1069550" d="M121.643,164.2l-4.108-2.372-1.653,4.261-.712-.411,4.42-11.378L124,170.773l-.7-.407Zm-.245-.907-1.809-6.754-1.809,4.665Z" transform="translate(-115.17 -154.296)"/>
            </g>
          </g>
          <g id="Grupo_1235248" data-name="Grupo 1235248" transform="translate(2.883)">
            <path id="Trazado_1069551" data-name="Trazado 1069551" d="M128.094,73.514l-14.3-8.256a.691.691,0,0,0-.7-.067l-2.335,1.357a.692.692,0,0,1,.7.067l14.3,8.256a2.147,2.147,0,0,1,.977,1.692L126.689,93a.678.678,0,0,1-.283.622l2.335-1.357a.678.678,0,0,0,.283-.621l.047-16.431A2.147,2.147,0,0,0,128.094,73.514Z" transform="translate(-110.43 -65.125)" fill="#a3a9ff"/>
            <g id="Grupo_1235246" data-name="Grupo 1235246" transform="translate(0 1.358)">
              <path id="Trazado_1069552" data-name="Trazado 1069552" d="M125.624,75.426a2.147,2.147,0,0,1,.977,1.692l-.047,16.431c0,.615-.44.865-.983.552l-14.3-8.256a2.157,2.157,0,0,1-.977-1.684l.047-16.431c0-.624.447-.87.983-.56Z" transform="translate(-110.294 -67.038)" fill="#7981f2"/>
            </g>
            <g id="Grupo_1235247" data-name="Grupo 1235247" transform="translate(3.576 8.469)">
              <path id="Trazado_1069553" data-name="Trazado 1069553" d="M122.181,88.052l-4.222-2.438L116.79,88.25l-1.459-.842,4.8-10.352.092.053L125.02,93l-1.7-.982Zm-.5-1.753-1.565-5.5-1.625,3.662Z" transform="translate(-115.331 -77.056)"/>
            </g>
          </g>
          <g id="Grupo_1235251" data-name="Grupo 1235251" transform="translate(2.883 27.715)">
            <path id="Trazado_1069554" data-name="Trazado 1069554" d="M128.094,112.556l-14.3-8.256a.691.691,0,0,0-.7-.067l-2.335,1.357a.691.691,0,0,1,.7.067l14.3,8.256a2.146,2.146,0,0,1,.977,1.692l-.047,16.431a.679.679,0,0,1-.283.622l2.335-1.357a.678.678,0,0,0,.283-.622l.047-16.431A2.146,2.146,0,0,0,128.094,112.556Z" transform="translate(-110.43 -104.167)" fill="#a3a9ff"/>
            <g id="Grupo_1235249" data-name="Grupo 1235249" transform="translate(0 1.358)">
              <path id="Trazado_1069555" data-name="Trazado 1069555" d="M125.624,114.469a2.147,2.147,0,0,1,.977,1.692l-.047,16.431c0,.615-.44.865-.983.552l-14.3-8.256a2.157,2.157,0,0,1-.977-1.684l.047-16.431c0-.624.447-.87.983-.56Z" transform="translate(-110.294 -106.08)" fill="#7981f2"/>
            </g>
            <g id="Grupo_1235250" data-name="Grupo 1235250" transform="translate(5.236 7.327)">
              <path id="Trazado_1069556" data-name="Trazado 1069556" d="M119.65,114.489l1.846,1.066,2.158,16.222-1.446-.835-.371-3.073-2.365-1.366-.341,2.662-1.461-.843Zm-.008,10.684,2,1.156-1.031-8.508-.023-.013Z" transform="translate(-117.67 -114.489)"/>
            </g>
          </g>
        </g>
        <g id="Grupo_1235259" data-name="Grupo 1235259" transform="translate(297.872 155.499)">
          <g id="Grupo_1235254" data-name="Grupo 1235254" transform="translate(0 61.537)">
            <path id="Trazado_1069557" data-name="Trazado 1069557" d="M421.292,282.636c-2.595-1.5-4.949-1.638-6.649-.65l-2.684,1.56c1.7-.988,4.054-.849,6.649.65,5.163,2.981,9.331,10.2,9.314,16.133-.009,2.941-1.047,5.012-2.723,5.986l2.684-1.56c1.676-.974,2.715-3.044,2.723-5.986C430.623,292.836,426.454,285.616,421.292,282.636Z" transform="translate(-409.232 -281.355)" fill="#7981f2"/>
            <g id="Grupo_1235253" data-name="Grupo 1235253" transform="translate(0 1.56)">
              <path id="Trazado_1069558" data-name="Trazado 1069558" d="M417.493,284.833c5.163,2.981,9.331,10.2,9.314,16.133s-4.212,8.314-9.375,5.333-9.331-10.2-9.314-16.124S412.339,281.857,417.493,284.833Z" transform="translate(-408.118 -283.552)" fill="#4d4bb7"/>
            </g>
            <path id="Trazado_1069559" data-name="Trazado 1069559" d="M419.276,291.137c-3.246-1.874-5.874-.376-5.874,3.349a12.943,12.943,0,0,0,5.874,10.132c3.243,1.873,5.874.372,5.874-3.349A12.945,12.945,0,0,0,419.276,291.137Zm-1.435,9.02V294.1l4.574,5.673Z" transform="translate(-409.651 -283.959)" fill="#fff"/>
          </g>
          <g id="Grupo_1235256" data-name="Grupo 1235256" transform="translate(0.062 32.179)">
            <path id="Trazado_1069560" data-name="Trazado 1069560" d="M425.275,245.747l-8.778-5.068a3.5,3.5,0,0,0-3.532-.346l-2.684,1.56a3.5,3.5,0,0,1,3.532.346l8.778,5.068a10.889,10.889,0,0,1,4.936,8.55l-.028,10.1a3.464,3.464,0,0,1-1.446,3.174l2.684-1.56a3.464,3.464,0,0,0,1.446-3.174l.028-10.1A10.889,10.889,0,0,0,425.275,245.747Z" transform="translate(-408.808 -239.998)" fill="#ffd166"/>
            <g id="Grupo_1235255" data-name="Grupo 1235255" transform="translate(0 1.56)">
              <path id="Trazado_1069561" data-name="Trazado 1069561" d="M421.989,247.944a10.89,10.89,0,0,1,4.936,8.55l-.028,10.1c-.009,3.138-2.237,4.408-4.968,2.831l-8.778-5.068a10.9,10.9,0,0,1-4.944-8.554l.028-10.1c.009-3.138,2.237-4.408,4.976-2.827Z" transform="translate(-408.206 -242.195)" fill="#ffad66"/>
            </g>
            <path id="Trazado_1069562" data-name="Trazado 1069562" d="M419.276,252.244c-3.246-1.874-5.874-.376-5.874,3.349a12.942,12.942,0,0,0,5.874,10.132c3.243,1.873,5.874.372,5.874-3.349A12.943,12.943,0,0,0,419.276,252.244Zm-1.435,9.02V255.2l4.574,5.673Z" transform="translate(-409.714 -243.317)" fill="#fff"/>
          </g>
          <g id="Grupo_1235258" data-name="Grupo 1235258" transform="translate(0.129)">
            <path id="Trazado_1069563" data-name="Trazado 1069563" d="M428.76,204.31l-16.436-9.49a.794.794,0,0,0-.8-.077l-2.684,1.56a.8.8,0,0,1,.8.077l16.436,9.49a2.468,2.468,0,0,1,1.123,1.945l-.054,18.887a.78.78,0,0,1-.326.715l2.684-1.56a.779.779,0,0,0,.326-.714l.054-18.887A2.469,2.469,0,0,0,428.76,204.31Z" transform="translate(-408.455 -194.667)" fill="#fff"/>
            <g id="Grupo_1235257" data-name="Grupo 1235257" transform="translate(0 1.56)">
              <path id="Trazado_1069564" data-name="Trazado 1069564" d="M425.919,206.507a2.468,2.468,0,0,1,1.123,1.945l-.054,18.887c0,.708-.506,1-1.13.635l-16.436-9.49a2.48,2.48,0,0,1-1.123-1.936l.053-18.887c0-.717.514-1,1.13-.644Z" transform="translate(-408.299 -196.864)" fill="#d6d6d6"/>
            </g>
            <path id="Trazado_1069565" data-name="Trazado 1069565" d="M419.276,209.017c-3.246-1.874-5.874-.376-5.874,3.349a12.943,12.943,0,0,0,5.874,10.132c3.243,1.873,5.874.372,5.874-3.349A12.943,12.943,0,0,0,419.276,209.017Zm-1.435,9.02v-6.06l4.574,5.673Z" transform="translate(-409.78 -198.596)" fill="url(#linear-gradient-2)"/>
          </g>
        </g>
        <g id="Grupo_1235263" data-name="Grupo 1235263" transform="translate(41.265 242.103)">
          <g id="Grupo_1235260" data-name="Grupo 1235260" transform="translate(0 1.441)">
            <path id="Trazado_1069566" data-name="Trazado 1069566" d="M72.749,346.891a3.389,3.389,0,0,1-3.082,0L47.259,333.868c-.84-.488-.835-1.284.021-1.779l22.555-13.023a3.4,3.4,0,0,1,3.071-.006l22.408,13.023a.944.944,0,0,1-.01,1.785Z" transform="translate(-46.634 -318.697)" fill="#707070"/>
          </g>
          <path id="Trazado_1069567" data-name="Trazado 1069567" d="M73.561,349.6l20.461-11.813a.988.988,0,0,0,.581-.816l-.011-2.065a.991.991,0,0,1-.581.816L73.55,347.533a3.071,3.071,0,0,1-2.8,0L50.426,335.72a.971.971,0,0,1-.567-.8l.011,2.065a.97.97,0,0,0,.567.8L70.765,349.6A3.071,3.071,0,0,0,73.561,349.6Z" transform="translate(-47.57 -321.958)" fill="#ffad66"/>
          <g id="Grupo_1235261" data-name="Grupo 1235261" transform="translate(2.288)">
            <path id="Trazado_1069568" data-name="Trazado 1069568" d="M73.549,342.242a3.072,3.072,0,0,1-2.8,0L50.425,330.429c-.762-.443-.757-1.165.019-1.614L70.906,317A3.085,3.085,0,0,1,73.691,317L94.02,328.81a.857.857,0,0,1-.009,1.619Z" transform="translate(-49.858 -316.667)" fill="#ffd166"/>
          </g>
          <g id="Grupo_1235262" data-name="Grupo 1235262" transform="translate(11.007 5.095)">
            <path id="Trazado_1069569" data-name="Trazado 1069569" d="M92.048,334.445l-.758.438-11.133-3.561-6.312-6.857.459-.265a3.3,3.3,0,0,1,2.989.006l14.746,8.513A.91.91,0,0,1,92.048,334.445Z" transform="translate(-65.536 -323.844)" fill="#333"/>
            <path id="Trazado_1069570" data-name="Trazado 1069570" d="M76.3,331.948l11.133,3.561L80.5,339.516a3.3,3.3,0,0,1-2.985-.008l-14.746-8.513c-.83-.479-.833-1.25-.013-1.724l7.234-4.177Z" transform="translate(-62.14 -324.207)" fill="#333"/>
          </g>
        </g>
        <g id="Grupo_1235266" data-name="Grupo 1235266" transform="translate(197.91 302.915)">
          <g id="Grupo_1235264" data-name="Grupo 1235264" transform="translate(0 1.443)">
            <path id="Trazado_1069571" data-name="Trazado 1069571" d="M293.416,432.558a3.39,3.39,0,0,1-3.082,0l-22.408-13.023c-.84-.488-.835-1.284.021-1.778L290.5,404.735a3.4,3.4,0,0,1,3.071-.006l22.408,13.023a.944.944,0,0,1-.01,1.785Z" transform="translate(-267.3 -404.365)" fill="#707070"/>
          </g>
          <path id="Trazado_1069572" data-name="Trazado 1069572" d="M294.227,435.264l20.461-11.813a.988.988,0,0,0,.581-.816l-.011-2.065a.991.991,0,0,1-.581.816L294.216,433.2a3.071,3.071,0,0,1-2.8,0l-20.329-11.814a.971.971,0,0,1-.567-.8l.011,2.065a.97.97,0,0,0,.567.8l20.329,11.814A3.071,3.071,0,0,0,294.227,435.264Z" transform="translate(-268.236 -407.624)" fill="#d6d6d6"/>
          <g id="Grupo_1235265" data-name="Grupo 1235265" transform="translate(2.289)">
            <path id="Trazado_1069573" data-name="Trazado 1069573" d="M294.216,427.908a3.072,3.072,0,0,1-2.8,0l-20.328-11.814c-.762-.443-.757-1.165.019-1.614l20.461-11.813a3.086,3.086,0,0,1,2.786-.006l20.328,11.814a.857.857,0,0,1-.009,1.619Z" transform="translate(-270.525 -402.333)" fill="#fff"/>
          </g>
          <path id="Trazado_1069574" data-name="Trazado 1069574" d="M304.434,422.274c3.334-1.925,2.433-5.567-2.013-8.134s-10.755-3.088-14.089-1.163c-2.528,1.46-2.617,3.9-.578,6.121-2.249.439-5.311.627-7.522-.831a12.922,12.922,0,0,0,10.654,3.134C295.29,423.711,301.231,424.123,304.434,422.274Z" transform="translate(-271.052 -405.084)" fill="#ffad66"/>
        </g>
      </g>
    </g>
  </g>
</svg>
