<svg xmlns="http://www.w3.org/2000/svg" xmlns:xlink="http://www.w3.org/1999/xlink" width="108" height="108" viewBox="0 0 108 108">
  <defs>
    <filter id="Trazado_904820" x="0" y="0" width="108" height="108" filterUnits="userSpaceOnUse">
      <feOffset dy="3" input="SourceAlpha"/>
      <feGaussianBlur stdDeviation="3" result="blur"/>
      <feFlood flood-opacity="0.161"/>
      <feComposite operator="in" in2="blur"/>
      <feComposite in="SourceGraphic"/>
    </filter>
  </defs>
  <g id="Grupo_1229061" data-name="Grupo 1229061" transform="translate(-199.999 -520.309)">
    <g id="Grupo_1229052" data-name="Grupo 1229052">
      <g id="Grupo_1226088" data-name="Grupo 1226088" transform="translate(208.999 526.309)">
        <g id="Grupo_1173585" data-name="Grupo 1173585" transform="translate(0 0)">
          <g id="Grupo_1173428" data-name="Grupo 1173428">
            <g id="Grupo_1171958" data-name="Grupo 1171958">
              <g id="Grupo_1167341" data-name="Grupo 1167341">
                <g id="Grupo_1166792" data-name="Grupo 1166792">
                  <g transform="matrix(1, 0, 0, 1, -9, -6)" filter="url(#Trazado_904820)">
                    <g id="Trazado_904820-2" data-name="Trazado 904820" transform="translate(9 6)" fill="#e5fdfa">
                      <path d="M 44.99999618530273 88.50002288818359 C 39.12687301635742 88.50002288818359 33.43022155761719 87.35009765625 28.06829643249512 85.08218383789062 C 22.88852119445801 82.89133453369141 18.23629570007324 79.75460815429688 14.24084663391113 75.7591552734375 C 10.24540901184082 71.76371002197266 7.108683586120605 67.11148071289062 4.917821407318115 61.93170928955078 C 2.649921178817749 56.56978225708008 1.499996185302734 50.87313079833984 1.499996185302734 45.00000762939453 C 1.499996185302734 39.12688446044922 2.649921178817749 33.43023300170898 4.917821407318115 28.06830787658691 C 7.108683586120605 22.8885326385498 10.24540901184082 18.23630714416504 14.24084663391113 14.24085807800293 C 18.23629570007324 10.24542045593262 22.88852119445801 7.108695030212402 28.06829643249512 4.917832851409912 C 33.43022155761719 2.649932622909546 39.12687301635742 1.500007629394531 44.99999618530273 1.500007629394531 C 50.87311935424805 1.500007629394531 56.56977081298828 2.649932622909546 61.93169784545898 4.917832851409912 C 67.11147308349609 7.108695030212402 71.76369476318359 10.24542045593262 75.75914764404297 14.24085807800293 C 79.75458526611328 18.23630714416504 82.89131164550781 22.8885326385498 85.08216857910156 28.06830787658691 C 87.35007476806641 33.43023300170898 88.5 39.12688446044922 88.5 45.00000762939453 C 88.5 50.87313079833984 87.35007476806641 56.56978225708008 85.08216857910156 61.93170928955078 C 82.89131164550781 67.11148071289062 79.75458526611328 71.76371002197266 75.75914764404297 75.7591552734375 C 71.76369476318359 79.75460815429688 67.11147308349609 82.89133453369141 61.93169784545898 85.08218383789062 C 56.56977081298828 87.35009765625 50.87311935424805 88.50002288818359 44.99999618530273 88.50002288818359 Z" stroke="none"/>
                      <path d="M 44.99999618530273 2.999992370605469 C 39.32870864868164 2.999992370605469 33.82865142822266 4.110054016113281 28.65262603759766 6.299339294433594 C 23.65165710449219 8.414566040039062 19.15968322753906 11.44333648681641 15.301513671875 15.30150604248047 C 11.44333648681641 19.15967559814453 8.414566040039062 23.65164947509766 6.299339294433594 28.65262222290039 C 4.110054016113281 33.82866287231445 2.999992370605469 39.32872009277344 2.999992370605469 45.00000762939453 C 2.999992370605469 50.67129516601562 4.110054016113281 56.17133712768555 6.299339294433594 61.34738159179688 C 8.414566040039062 66.34835052490234 11.44333648681641 70.84030914306641 15.301513671875 74.69849395751953 C 19.15968322753906 78.55666351318359 23.65165710449219 81.58543395996094 28.65262603759766 83.70066833496094 C 33.82865142822266 85.88995361328125 39.32870864868164 87.00000762939453 44.99999618530273 87.00000762939453 C 50.67128372192383 87.00000762939453 56.17134094238281 85.88995361328125 61.34736633300781 83.70066833496094 C 66.34834289550781 81.58543395996094 70.84030914306641 78.55666351318359 74.69847869873047 74.69849395751953 C 78.55665588378906 70.84030914306641 81.58542633056641 66.34835052490234 83.70065307617188 61.34738159179688 C 85.88993835449219 56.17133712768555 87 50.67129516601562 87 45.00000762939453 C 87 39.32872009277344 85.88993835449219 33.82866287231445 83.70065307617188 28.65262222290039 C 81.58542633056641 23.65164947509766 78.55665588378906 19.15967559814453 74.69847869873047 15.30150604248047 C 70.84030914306641 11.44333648681641 66.34834289550781 8.414566040039062 61.34736633300781 6.299339294433594 C 56.17134094238281 4.110054016113281 50.67128372192383 2.999992370605469 44.99999618530273 2.999992370605469 M 44.99999618530273 -7.62939453125e-06 C 69.85281372070312 -7.62939453125e-06 90 20.14717864990234 90 45.00000762939453 C 90 69.85280609130859 69.85281372070312 90.00000762939453 44.99999618530273 90.00000762939453 C 20.14717864990234 90.00000762939453 -7.62939453125e-06 69.85280609130859 -7.62939453125e-06 45.00000762939453 C -7.62939453125e-06 20.14717864990234 20.14717864990234 -7.62939453125e-06 44.99999618530273 -7.62939453125e-06 Z" stroke="none" fill="#098576"/>
                    </g>
                  </g>
                </g>
              </g>
            </g>
          </g>
        </g>
      </g>
    </g>
    <g id="programador_4_" data-name="programador (4)" transform="translate(225.242 540.59)">
      <path id="Trazado_1063200" data-name="Trazado 1063200" d="M130.145,223.847v6.513l7.173.225v0l.008,0v-6.761A8.6,8.6,0,0,1,130.145,223.847Z" transform="translate(-115.507 -198.708)" fill="#eab883"/>
      <path id="Trazado_1063201" data-name="Trazado 1063201" d="M133.512,224.852a8.3,8.3,0,0,1-3.367-.77V230.6l4.118.129-.521-1.441C133.37,228.255,133.567,227.69,133.512,224.852Z" transform="translate(-115.507 -198.943)" fill="#dda36f"/>
      <path id="Trazado_1063202" data-name="Trazado 1063202" d="M141.077,268.774a5.134,5.134,0,0,1-6.024-.036l-.046-.034v7.184h6.167V268.7Z" transform="translate(-119.824 -238.559)" fill="#efefef"/>
      <path id="Trazado_1063203" data-name="Trazado 1063203" d="M140.082,274.492l-1.724-4.767a5.349,5.349,0,0,1-3.35-1.02v7.184H138.4C138.984,275.459,140.082,274.492,140.082,274.492Z" transform="translate(-119.824 -238.56)" fill="#ddd"/>
      <path id="Trazado_1063204" data-name="Trazado 1063204" d="M42.183,287.449l-2.959-18.393a4.042,4.042,0,0,0-3.087-3.137h0L32.832,265l-.4-.238-6.627,5.94,0,0a.989.989,0,0,1-1.851,0l0,0-6.626-5.94-.4.238-3.305.915h0a4.042,4.042,0,0,0-3.087,3.137L7.574,287.449a3.569,3.569,0,0,0,3.5,4.212h27.61A3.569,3.569,0,0,0,42.183,287.449Z" transform="translate(-6.642 -235.064)" fill="#70b5e8"/>
      <g id="Grupo_1229056" data-name="Grupo 1229056" transform="translate(0.882 27.371)">
        <path id="Trazado_1063205" data-name="Trazado 1063205" d="M10.933,293.914l2.959-19.963a3.879,3.879,0,0,1,.94-1.9l-1.212.336h0a4.042,4.042,0,0,0-3.087,3.137L7.574,293.914a3.569,3.569,0,0,0,3.5,4.212h3.359A3.569,3.569,0,0,1,10.933,293.914Z" transform="translate(-7.524 -268.9)" fill="#52a5d8"/>
        <path id="Trazado_1063206" data-name="Trazado 1063206" d="M98.356,252.257l-7.03-5.7,4.355-2.569v1.364Z" transform="translate(-81.925 -243.985)" fill="#52a5d8"/>
        <path id="Trazado_1063207" data-name="Trazado 1063207" d="M170.455,252.257l7.03-5.7-4.37-2.569v1.364Z" transform="translate(-152.176 -243.985)" fill="#52a5d8"/>
      </g>
      <path id="Trazado_1063208" data-name="Trazado 1063208" d="M109.188,415.461v4.1h8.688v-4.1a2.424,2.424,0,0,1,1.837-2.348,4.922,4.922,0,0,1-2.342-3.481,1.011,1.011,0,0,0-.988-.809h-5.765a1.012,1.012,0,0,0-.988.81,4.934,4.934,0,0,1-2.32,3.47A2.425,2.425,0,0,1,109.188,415.461Z" transform="translate(-95.232 -362.959)" fill="#a4d9f4"/>
      <path id="Trazado_1063209" data-name="Trazado 1063209" d="M112.091,419.557v-4a2.587,2.587,0,0,0-.49-1.518,2.115,2.115,0,0,1,.02-2.422,6.615,6.615,0,0,0,.944-2.328,1.1,1.1,0,0,1,.221-.466h-2.168a1.012,1.012,0,0,0-.988.81,4.934,4.934,0,0,1-2.32,3.47,2.425,2.425,0,0,1,1.879,2.359v4.1Z" transform="translate(-95.233 -362.959)" fill="#84c7ef"/>
      <g id="Grupo_1229057" data-name="Grupo 1229057" transform="translate(13.339 51.907)">
        <path id="Trazado_1063210" data-name="Trazado 1063210" d="M167.133,462.688h-.221a4.7,4.7,0,0,0-4.691,4.691h4.911v-4.691Z" transform="translate(-157.323 -462.688)" fill="#eab883"/>
        <path id="Trazado_1063211" data-name="Trazado 1063211" d="M118.563,462.688v4.691h4.9a4.7,4.7,0,0,0-4.691-4.691Z" transform="translate(-118.563 -462.688)" fill="#eab883"/>
      </g>
      <g id="Grupo_1229058" data-name="Grupo 1229058" transform="translate(13.339 54.252)">
        <path id="Trazado_1063212" data-name="Trazado 1063212" d="M162.222,485.939h4.911v-2.345h-4.277A4.649,4.649,0,0,0,162.222,485.939Z" transform="translate(-157.324 -483.594)" fill="#dda36f"/>
        <path id="Trazado_1063213" data-name="Trazado 1063213" d="M118.563,483.594v2.345h4.9a4.651,4.651,0,0,0-.634-2.345Z" transform="translate(-118.563 -483.594)" fill="#dda36f"/>
      </g>
      <path id="Trazado_1063214" data-name="Trazado 1063214" d="M83.48,10.581a1.311,1.311,0,0,1-.745-.456c-2.919-3.637-10.68-3.336-14.716.7-3.718,3.718-1.662,9.652-1.662,9.652H86.92C88.717,12.934,84.859,10.883,83.48,10.581Z" transform="translate(-58.371 -6.735)" fill="#93482b"/>
      <path id="Trazado_1063215" data-name="Trazado 1063215" d="M73.12,10.827a11.411,11.411,0,0,1,5.711-2.964,12.139,12.139,0,0,0-10.812,2.964c-3.718,3.719-1.662,9.652-1.662,9.652h5.1S69.4,14.545,73.12,10.827Z" transform="translate(-58.371 -6.736)" fill="#843d26"/>
      <g id="Grupo_1229059" data-name="Grupo 1229059" transform="translate(6.995 12.729)">
        <path id="Trazado_1063216" data-name="Trazado 1063216" d="M63.022,113.954l0,0a2.032,2.032,0,0,0,0,3.5l0,0a3,3,0,0,0,1.673.492v-4.48h0A3,3,0,0,0,63.022,113.954Z" transform="translate(-62.018 -113.462)" fill="#eab883"/>
        <path id="Trazado_1063217" data-name="Trazado 1063217" d="M240.747,113.956l0,0a2.195,2.195,0,0,1,.97,1.409l0,.009c.006.033.011.067.015.1,0,.009,0,.019,0,.028,0,.029.006.057.008.086s0,.051,0,.077,0,.026,0,.039v.005c0,.013,0,.026,0,.039s0,.051,0,.077,0,.058-.008.086c0,.009,0,.019,0,.028,0,.034-.009.067-.015.1l0,.009a2.194,2.194,0,0,1-.97,1.409l0,0a3,3,0,0,1-1.673.492v-4.48A3.034,3.034,0,0,1,240.747,113.956Z" transform="translate(-219.211 -113.464)" fill="#eab883"/>
      </g>
      <g id="Grupo_1229060" data-name="Grupo 1229060" transform="translate(6.995 13.961)">
        <path id="Trazado_1063218" data-name="Trazado 1063218" d="M63.014,125.189a2.377,2.377,0,0,1-.714-.743,2.013,2.013,0,0,0,.714,2.758l0,0a3,3,0,0,0,1.673.492v-2.016a3,3,0,0,1-1.673-.492Z" transform="translate(-62.013 -124.446)" fill="#dda36f"/>
        <path id="Trazado_1063219" data-name="Trazado 1063219" d="M241.751,125.411c0-.026,0-.051,0-.077s0-.058-.008-.086c0-.009,0-.019,0-.028,0-.034-.009-.067-.015-.1l0-.009a1.98,1.98,0,0,0-.256-.666,2.373,2.373,0,0,1-.714.743l0,0a3,3,0,0,1-1.673.492v2.016a3,3,0,0,0,1.673-.492l0,0a2.193,2.193,0,0,0,.97-1.409l0-.009c.006-.033.011-.067.015-.1,0-.009,0-.019,0-.028,0-.029.006-.057.008-.086s0-.051,0-.077,0-.026,0-.039v-.005C241.752,125.437,241.751,125.424,241.751,125.411Z" transform="translate(-219.21 -124.445)" fill="#dda36f"/>
      </g>
      <path id="Trazado_1063220" data-name="Trazado 1063220" d="M102.883,103.43v-2.885a3.7,3.7,0,0,1-3.418-1.333.763.763,0,0,0-1.05-.156c-2.034,1.474-7.765,3.755-12.743,1.489v1.648h-.01a35.19,35.19,0,0,0,.241,5.589,8.606,8.606,0,0,0,16.977-1.99c0-.974,0-1.745,0-2.362h0Z" transform="translate(-76.01 -87.817)" fill="#f7cf9c"/>
      <path id="Trazado_1063221" data-name="Trazado 1063221" d="M89.24,120.7A35.189,35.189,0,0,1,89,115.111h.01v-.757a10.681,10.681,0,0,1-3.336-.891v1.648h-.01A35.2,35.2,0,0,0,85.9,120.7a8.54,8.54,0,0,0,9.952,6.453A8.647,8.647,0,0,1,89.24,120.7Z" transform="translate(-76.01 -100.734)" fill="#eab883"/>
      <path id="Trazado_1063222" data-name="Trazado 1063222" d="M259.135,229.264c-30.326,0-28.306-.059-28.721.167a1.382,1.382,0,0,0-.723,1.216V252.74a1.383,1.383,0,0,0,1.383,1.383h28.062a1.383,1.383,0,0,0,1.383-1.383V230.647A1.567,1.567,0,0,0,259.135,229.264Z" transform="translate(-203.885 -203.538)" fill="#efefef"/>
      <path id="Trazado_1063223" data-name="Trazado 1063223" d="M234.5,252.75V230.657a1.382,1.382,0,0,1,1.383-1.383c-4.872.056-4.928-.127-5.468.167a1.382,1.382,0,0,0-.723,1.216V252.75a1.383,1.383,0,0,0,1.383,1.383h4.809A1.383,1.383,0,0,1,234.5,252.75Z" transform="translate(-203.885 -203.548)" fill="#ddd"/>
      <path id="Trazado_1063224" data-name="Trazado 1063224" d="M318.894,79.936h-17.97a1.35,1.35,0,0,0-1.346,1.346v9.085a1.35,1.35,0,0,0,1.346,1.346h15.818a1.478,1.478,0,0,1,.994.384l1.311,1.191a.713.713,0,0,0,1.193-.528V81.282A1.35,1.35,0,0,0,318.894,79.936Z" transform="translate(-265.932 -70.968)" fill="#ffb70d"/>
      <path id="Trazado_1063225" data-name="Trazado 1063225" d="M303.319,90.368V81.282a1.35,1.35,0,0,1,1.346-1.346h-3.74a1.35,1.35,0,0,0-1.346,1.346v9.085a1.35,1.35,0,0,0,1.346,1.346h3.74A1.35,1.35,0,0,1,303.319,90.368Z" transform="translate(-265.933 -70.968)" fill="#f4a403"/>
      <circle id="Elipse_13860" data-name="Elipse 13860" cx="1.825" cy="1.825" r="1.825" transform="translate(39.374 30.24)" fill="#ccc"/>
      <path id="Trazado_1063226" data-name="Trazado 1063226" d="M352.441,269.56a1.824,1.824,0,1,0,1.579,2.734A1.823,1.823,0,0,1,352.441,269.56Z" transform="translate(-311.242 -239.319)" fill="#bcbbb8"/>
      <path id="Trazado_1063227" data-name="Trazado 1063227" d="M346.148,355.531V338.425a0,0,0,0,0,0,0h-6.311a0,0,0,0,0,0,0v17.106Z" transform="translate(-301.669 -300.456)" fill="#ddd"/>
      <path id="Trazado_1063228" data-name="Trazado 1063228" d="M342.989,338.425a0,0,0,0,1,0,0h-3.158a0,0,0,0,0,0,0v17.106h3.158Z" transform="translate(-301.669 -300.456)" fill="#ccc"/>
      <path id="Trazado_1063229" data-name="Trazado 1063229" d="M325.941,478.881h0a1.523,1.523,0,0,0-1.523-1.523h-8.856a1.523,1.523,0,0,0-1.523,1.523h0a1.523,1.523,0,0,0,1.523,1.523h8.856A1.523,1.523,0,0,0,325.941,478.881Z" transform="translate(-278.772 -423.805)" fill="#efefef"/>
      <path id="Trazado_1063230" data-name="Trazado 1063230" d="M318.568,478.881h0a1.523,1.523,0,0,1,1.523-1.523h-4.527a1.523,1.523,0,0,0-1.523,1.523h0a1.523,1.523,0,0,0,1.523,1.523h4.527A1.523,1.523,0,0,1,318.568,478.881Z" transform="translate(-278.773 -423.805)" fill="#ddd"/>
      <path id="Trazado_1063231" data-name="Trazado 1063231" d="M343.117,264.714a2.666,2.666,0,1,0,2.666-2.666A2.669,2.669,0,0,0,343.117,264.714Zm3.65,0a.984.984,0,1,1-.984-.984A.985.985,0,0,1,346.767,264.714Z" transform="translate(-304.587 -232.65)"/>
      <path id="Trazado_1063232" data-name="Trazado 1063232" d="M254.342,410.5a.841.841,0,0,0,0,1.683h2.589a.841.841,0,0,0,0-1.683Z" transform="translate(-225.024 -364.451)"/>
      <path id="Trazado_1063233" data-name="Trazado 1063233" d="M303.39,410.751a.849.849,0,0,0-.759-.23.839.839,0,0,0-.157.048.864.864,0,0,0-.146.077.82.82,0,0,0-.232.232.867.867,0,0,0-.126.3.838.838,0,0,0,.5.941.839.839,0,0,0,1.1-1.1A1.123,1.123,0,0,0,303.39,410.751Z" transform="translate(-268.042 -364.452)"/>
      <path id="Trazado_1063234" data-name="Trazado 1063234" d="M336.406,105.016a.841.841,0,0,0-1.19,0l-2.076,2.076a.841.841,0,0,0,0,1.19l2.076,2.076a.841.841,0,0,0,1.19-1.19l-1.481-1.481,1.481-1.481A.841.841,0,0,0,336.406,105.016Z" transform="translate(-295.51 -93.016)"/>
      <path id="Trazado_1063235" data-name="Trazado 1063235" d="M414.075,110.6c.6,0,.651-.412,2.671-2.323a.841.841,0,0,0,0-1.19l-2.076-2.076a.841.841,0,1,0-1.19,1.19l1.481,1.481-1.481,1.481A.842.842,0,0,0,414.075,110.6Z" transform="translate(-366.836 -93.016)"/>
      <path id="Trazado_1063236" data-name="Trazado 1063236" d="M373.5,96.926l-2.332,6.407a.841.841,0,1,0,1.581.575L375.08,97.5a.841.841,0,1,0-1.581-.575Z" transform="translate(-329.444 -85.561)"/>
      <path id="Trazado_1063237" data-name="Trazado 1063237" d="M55.248,24.885c-29.244.094-28.2-.235-29.123.269a2.223,2.223,0,0,0-1.163,1.955V28.3l-2.3-1.4v-.592a9.267,9.267,0,0,0,5.035-8.332v-.013a3.73,3.73,0,0,0,1.22-.494A.834.834,0,0,0,29,17.417a2.963,2.963,0,0,0,1.371-2.374,2.832,2.832,0,0,0-.907-2.148c.667-3.14.443-5.63-.673-7.406a5.531,5.531,0,0,0-3.522-2.464A.473.473,0,0,1,25,2.864C22.631-.09,17.368-.871,12.758,1.048A.841.841,0,1,0,13.405,2.6C17.284.987,21.8,1.564,23.689,3.917a2.161,2.161,0,0,0,1.222.751,3.858,3.858,0,0,1,2.457,1.716c.819,1.3,1,3.2.554,5.647a3.571,3.571,0,0,0-1.282-.121A2.837,2.837,0,0,1,24.1,10.875a1.6,1.6,0,0,0-2.2-.316C20.022,11.915,14.7,14.031,10.1,12.011a.832.832,0,0,0-.448-.123.549.549,0,0,0-.071,0,3.966,3.966,0,0,0-1.079.163A7.642,7.642,0,0,1,10.353,4.56h0A.841.841,0,1,0,9.189,3.346C6.554,5.872,6.022,9.5,6.994,12.934c-1.739,1.739-.743,4.5,1.839,5.034a13.5,13.5,0,0,0,.224,2.192,9.339,9.339,0,0,0,2.023,3.967,9.625,9.625,0,0,0,2.715,2.2v.562L9.95,29.16l-3.26.9a4.808,4.808,0,0,0-3.625,3.765l-.006.031L.1,52.252A4.477,4.477,0,0,0,4.52,57.439H32.04a4.379,4.379,0,0,0,2.808-1.017,2.362,2.362,0,0,0,1.94,1.017h8.856a2.364,2.364,0,0,0,0-4.728h-.327V51.426h3.375a.841.841,0,1,0,0-1.683H45.318V38.694a.842.842,0,0,0-.415-1.573H37.634a.842.842,0,0,0-.316,1.621v11c-11.185,0-10.307.049-10.515-.159-.229-.229-.158,1.126-.158-22.476a.541.541,0,0,1,.541-.541c29.9.023,28.093-.058,28.32.065a.542.542,0,0,1,.284.476V49.2a.541.541,0,0,1-.284.476c-.209.114-.144.044-2.887.065a.841.841,0,0,0,0,1.683c2.5-.069,3.285.266,4.2-.651a2.209,2.209,0,0,0,.651-1.573V27.109A2.224,2.224,0,0,0,55.248,24.885ZM22.566,51.078a5.535,5.535,0,0,0-4.331,2.592,5.535,5.535,0,0,0-4.317-2.59,2.437,2.437,0,0,0-.612-.774,6.259,6.259,0,0,0,1.909-3.6h6.04a6.253,6.253,0,0,0,1.916,3.607A2.435,2.435,0,0,0,22.566,51.078ZM18.092,35.33l-1.361-3.515a5.932,5.932,0,0,0,3.055,0L18.4,35.336a.151.151,0,0,1-.154.105C18.135,35.441,18.12,35.4,18.092,35.33ZM20.977,27v1.794l-.318.807a4.283,4.283,0,0,1-4.784,0l-.4-1.026V27.031A9.407,9.407,0,0,0,20.977,27Zm3.771,3.138-3.63,2.89C22.7,29,22.68,29.161,22.66,28.867ZM27.7,16.208v-2.48A1.27,1.27,0,0,1,27.7,16.208ZM8.8,13.729c-.012.657-.021,1.549-.013,2.474A1.268,1.268,0,0,1,8.8,13.729Zm3.554,9.3c-2.312-2.693-1.809-5.169-1.871-9.077a15.188,15.188,0,0,0,12.331-1.986,4.394,4.394,0,0,0,3.2,1.629c0,.41-.005,1.943,0,4.379A7.775,7.775,0,0,1,12.357,23.03Zm1.445,5.81c.03.235.118.313,1.582,4.156L11.752,30.05Zm-7.1,1.22q-.035.012-.07.028A.6.6,0,0,1,6.7,30.061ZM1.762,52.519,4.718,34.143c.523-2.566,2.928-2.455,5.37-3.276l2.867,2.326v5.4a.841.841,0,0,0,1.683,0V34.558l2,1.621a1.849,1.849,0,0,0,3.223,0l2-1.593V38.6a.841.841,0,1,0,1.683,0V33.25l1.42-1.131c.008,18.232-.017,17.065.019,17.358A3.184,3.184,0,0,1,23.4,47.894a5.977,5.977,0,0,1-.575-2.073.841.841,0,0,0-.84-.8H14.482a.844.844,0,0,0-.84.8,5.977,5.977,0,0,1-.575,2.075c-1.243,2.47-3.5,1.707-4.386,1.849l1.608-10.87a.841.841,0,0,0-1.664-.246L6.98,49.743H6.113a.841.841,0,1,0,0,1.683h5.644a.74.74,0,0,1,.74.737v3.593H4.52A2.794,2.794,0,0,1,1.762,52.519Zm12.417,3.237V52.8A3.861,3.861,0,0,1,17.3,55.756ZM22.305,52.8v2.958H19.169A3.861,3.861,0,0,1,22.305,52.8Zm24.021,2.277a.682.682,0,0,1-.681.681H36.789a.681.681,0,1,1,0-1.362h8.856A.682.682,0,0,1,46.326,55.075ZM39,52.711v-13.9h4.634v13.9Zm-1.683,0a5.467,5.467,0,0,0-.9.033c-.025-.354-.059-.455-.193-1.318h1.1Zm-2.8-1.285.193,1.2a2.7,2.7,0,0,1-2.67,3.134H23.988V52.163a.74.74,0,0,1,.74-.737Z" transform="translate(0 0)"/>
      <path id="Trazado_1063238" data-name="Trazado 1063238" d="M294.246,85.9h15.818c.417,0,.5.294,1.74,1.357a1.555,1.555,0,0,0,2.6-1.151V81.242a.841.841,0,1,0-1.683,0v4.572c-.814-.626-1.349-1.6-2.657-1.6H294.246a.512.512,0,0,1-.5-.5V74.624a.512.512,0,0,1,.5-.5h17.97a.512.512,0,0,1,.5.5v2.692a.841.841,0,0,0,1.683,0V74.624a2.19,2.19,0,0,0-2.187-2.187h-17.97a2.19,2.19,0,0,0-2.187,2.187V83.71A2.19,2.19,0,0,0,294.246,85.9Z" transform="translate(-259.257 -64.311)"/>
    </g>
  </g>
</svg>
