<svg xmlns="http://www.w3.org/2000/svg" xmlns:xlink="http://www.w3.org/1999/xlink" width="108" height="108" viewBox="0 0 108 108">
  <defs>
    <filter id="Trazado_904820" x="0" y="0" width="108" height="108" filterUnits="userSpaceOnUse">
      <feOffset dy="3" input="SourceAlpha"/>
      <feGaussianBlur stdDeviation="3" result="blur"/>
      <feFlood flood-opacity="0.161"/>
      <feComposite operator="in" in2="blur"/>
      <feComposite in="SourceGraphic"/>
    </filter>
  </defs>
  <g id="Grupo_1231331" data-name="Grupo 1231331" transform="translate(9 6)">
    <g id="Grupo_1226088" data-name="Grupo 1226088" transform="translate(0 0)">
      <g id="Grupo_1173585" data-name="Grupo 1173585">
        <g id="Grupo_1173428" data-name="Grupo 1173428">
          <g id="Grupo_1171958" data-name="Grupo 1171958">
            <g id="Grupo_1167341" data-name="Grupo 1167341">
              <g id="Grupo_1166792" data-name="Grupo 1166792">
                <g transform="matrix(1, 0, 0, 1, -9, -6)" filter="url(#Trazado_904820)">
                  <g id="Trazado_904820-2" data-name="Trazado 904820" transform="translate(9 6)" fill="#fef9e5">
                    <path d="M 44.99999618530273 88.50002288818359 C 39.12687301635742 88.50002288818359 33.43022155761719 87.35009765625 28.06829643249512 85.08218383789062 C 22.88852119445801 82.89133453369141 18.23629570007324 79.75460815429688 14.24084663391113 75.7591552734375 C 10.24540901184082 71.76371002197266 7.108683586120605 67.11148071289062 4.917821407318115 61.93170928955078 C 2.649921178817749 56.56978225708008 1.499996185302734 50.87313079833984 1.499996185302734 45.00000762939453 C 1.499996185302734 39.12688446044922 2.649921178817749 33.43023300170898 4.917821407318115 28.06830787658691 C 7.108683586120605 22.8885326385498 10.24540901184082 18.23630714416504 14.24084663391113 14.24085807800293 C 18.23629570007324 10.24542045593262 22.88852119445801 7.108695030212402 28.06829643249512 4.917832851409912 C 33.43022155761719 2.649932622909546 39.12687301635742 1.500007629394531 44.99999618530273 1.500007629394531 C 50.87311935424805 1.500007629394531 56.56977081298828 2.649932622909546 61.93169784545898 4.917832851409912 C 67.11147308349609 7.108695030212402 71.76369476318359 10.24542045593262 75.75914764404297 14.24085807800293 C 79.75458526611328 18.23630714416504 82.89131164550781 22.8885326385498 85.08216857910156 28.06830787658691 C 87.35007476806641 33.43023300170898 88.5 39.12688446044922 88.5 45.00000762939453 C 88.5 50.87313079833984 87.35007476806641 56.56978225708008 85.08216857910156 61.93170928955078 C 82.89131164550781 67.11148071289062 79.75458526611328 71.76371002197266 75.75914764404297 75.7591552734375 C 71.76369476318359 79.75460815429688 67.11147308349609 82.89133453369141 61.93169784545898 85.08218383789062 C 56.56977081298828 87.35009765625 50.87311935424805 88.50002288818359 44.99999618530273 88.50002288818359 Z" stroke="none"/>
                    <path d="M 44.99999618530273 2.999992370605469 C 39.32870864868164 2.999992370605469 33.82865142822266 4.110054016113281 28.65262603759766 6.299339294433594 C 23.65165710449219 8.414566040039062 19.15968322753906 11.44333648681641 15.301513671875 15.30150604248047 C 11.44333648681641 19.15967559814453 8.414566040039062 23.65164947509766 6.299339294433594 28.65262222290039 C 4.110054016113281 33.82866287231445 2.999992370605469 39.32872009277344 2.999992370605469 45.00000762939453 C 2.999992370605469 50.67129516601562 4.110054016113281 56.17133712768555 6.299339294433594 61.34738159179688 C 8.414566040039062 66.34835052490234 11.44333648681641 70.84030914306641 15.301513671875 74.69849395751953 C 19.15968322753906 78.55666351318359 23.65165710449219 81.58543395996094 28.65262603759766 83.70066833496094 C 33.82865142822266 85.88995361328125 39.32870864868164 87.00000762939453 44.99999618530273 87.00000762939453 C 50.67128372192383 87.00000762939453 56.17134094238281 85.88995361328125 61.34736633300781 83.70066833496094 C 66.34834289550781 81.58543395996094 70.84030914306641 78.55666351318359 74.69847869873047 74.69849395751953 C 78.55665588378906 70.84030914306641 81.58542633056641 66.34835052490234 83.70065307617188 61.34738159179688 C 85.88993835449219 56.17133712768555 87 50.67129516601562 87 45.00000762939453 C 87 39.32872009277344 85.88993835449219 33.82866287231445 83.70065307617188 28.65262222290039 C 81.58542633056641 23.65164947509766 78.55665588378906 19.15967559814453 74.69847869873047 15.30150604248047 C 70.84030914306641 11.44333648681641 66.34834289550781 8.414566040039062 61.34736633300781 6.299339294433594 C 56.17134094238281 4.110054016113281 50.67128372192383 2.999992370605469 44.99999618530273 2.999992370605469 M 44.99999618530273 -7.62939453125e-06 C 69.85281372070312 -7.62939453125e-06 90 20.14717864990234 90 45.00000762939453 C 90 69.85280609130859 69.85281372070312 90.00000762939453 44.99999618530273 90.00000762939453 C 20.14717864990234 90.00000762939453 -7.62939453125e-06 69.85280609130859 -7.62939453125e-06 45.00000762939453 C -7.62939453125e-06 20.14717864990234 20.14717864990234 -7.62939453125e-06 44.99999618530273 -7.62939453125e-06 Z" stroke="none" fill="#866d08"/>
                  </g>
                </g>
              </g>
            </g>
          </g>
        </g>
      </g>
    </g>
    <g id="tecnologia_4_" data-name="tecnologia (4)" transform="translate(18.219 18.219)">
      <g id="Grupo_1231329" data-name="Grupo 1231329" transform="translate(0.864 0.864)">
        <g id="Grupo_1231318" data-name="Grupo 1231318" transform="translate(35.42)">
          <path id="Trazado_1065250" data-name="Trazado 1065250" d="M50.639,1V7.911H42V1Z" transform="translate(-42 -1)" fill="#f0d0b4"/>
        </g>
        <g id="Grupo_1231319" data-name="Grupo 1231319" transform="translate(7.775)">
          <path id="Trazado_1065251" data-name="Trazado 1065251" d="M18.639,1V7.911H10V1Z" transform="translate(-10 -1)" fill="#f0d0b4"/>
        </g>
        <g id="Grupo_1231320" data-name="Grupo 1231320" transform="translate(21.597)">
          <path id="Trazado_1065252" data-name="Trazado 1065252" d="M34.639,1V7.911H26V1Z" transform="translate(-26 -1)" fill="#f0d0b4"/>
        </g>
        <g id="Grupo_1231321" data-name="Grupo 1231321" transform="translate(3.456 12.095)">
          <path id="Trazado_1065253" data-name="Trazado 1065253" d="M49.923,47.828H5V18.456A3.456,3.456,0,0,1,8.456,15H46.467a3.456,3.456,0,0,1,3.456,3.456Z" transform="translate(-5 -15)" fill="#ccd1d9"/>
        </g>
        <g id="Grupo_1231322" data-name="Grupo 1231322" transform="translate(6.911 15.55)">
          <path id="Trazado_1065254" data-name="Trazado 1065254" d="M46.148,44.917H9.864A.864.864,0,0,1,9,44.053V19.864A.864.864,0,0,1,9.864,19H46.148a.864.864,0,0,1,.864.864V44.053A.864.864,0,0,1,46.148,44.917Z" transform="translate(-9 -19)" fill="#69d6f4"/>
        </g>
        <g id="Grupo_1231323" data-name="Grupo 1231323" transform="translate(0 44.923)">
          <path id="Trazado_1065255" data-name="Trazado 1065255" d="M51.106,53H2.728a1.689,1.689,0,0,0-1.218.51A1.689,1.689,0,0,0,1,54.728a5.188,5.188,0,0,0,5.183,5.183H47.651a5.191,5.191,0,0,0,5.183-5.183A1.733,1.733,0,0,0,51.106,53Z" transform="translate(-1 -53)" fill="#969faa"/>
        </g>
        <g id="Grupo_1231324" data-name="Grupo 1231324" transform="translate(43.195 48.378)">
          <path id="Trazado_1065256" data-name="Trazado 1065256" d="M51,57h3.456v3.456H51Z" transform="translate(-51 -57)" fill="#ff826e"/>
        </g>
        <g id="Grupo_1231325" data-name="Grupo 1231325" transform="translate(36.284 48.378)">
          <path id="Trazado_1065257" data-name="Trazado 1065257" d="M43,57h3.456v3.456H43Z" transform="translate(-43 -57)" fill="#ff826e"/>
        </g>
        <g id="Grupo_1231326" data-name="Grupo 1231326" transform="translate(19.87 44.923)">
          <path id="Trazado_1065258" data-name="Trazado 1065258" d="M36.095,53v1.728a1.733,1.733,0,0,1-1.728,1.728H25.728A1.733,1.733,0,0,1,24,54.728V53Z" transform="translate(-24 -53)" fill="#ff826e"/>
        </g>
        <g id="Grupo_1231327" data-name="Grupo 1231327" transform="translate(12.095 25.053)">
          <path id="Trazado_1065259" data-name="Trazado 1065259" d="M42.645,41.231v5.183H37.073v-.026a8.639,8.639,0,1,0-16.889-2.566,8.56,8.56,0,0,0,.4,2.592H15V41.231l2.194-.7a12.551,12.551,0,0,1,1.071-2.609l-1.054-2.039,3.672-3.672,2.039,1.054a12.552,12.552,0,0,1,2.609-1.071l.7-2.194h5.183l.7,2.194a12.552,12.552,0,0,1,2.609,1.071l2.039-1.054,3.672,3.672-1.054,2.039a12.552,12.552,0,0,1,1.071,2.609Z" transform="translate(-15 -30)" fill="#ffc729"/>
        </g>
        <g id="Grupo_1231328" data-name="Grupo 1231328" transform="translate(17.278 30.236)">
          <path id="Trazado_1065260" data-name="Trazado 1065260" d="M38.278,44.639a8.66,8.66,0,0,1-.389,2.566v.026H31.92a3.412,3.412,0,0,0,1.175-2.592,3.456,3.456,0,0,0-6.911,0,3.412,3.412,0,0,0,1.175,2.592H21.4a8.639,8.639,0,1,1,16.881-2.592Z" transform="translate(-21 -36)" fill="#fcd770"/>
        </g>
      </g>
      <g id="Grupo_1231330" data-name="Grupo 1231330">
        <path id="Trazado_1065261" data-name="Trazado 1065261" d="M50.97,46.828h-.864V18.319A4.324,4.324,0,0,0,45.787,14H43.195v1.728h2.592a2.6,2.6,0,0,1,2.592,2.592V46.828H5.183V18.319a2.6,2.6,0,0,1,2.592-2.592h2.592V14H7.775a4.324,4.324,0,0,0-4.319,4.319V46.828H2.592A2.6,2.6,0,0,0,0,49.42a6.055,6.055,0,0,0,6.047,6.047H47.514a6.055,6.055,0,0,0,6.047-6.047A2.6,2.6,0,0,0,50.97,46.828ZM21.6,48.556H31.964v.864a.864.864,0,0,1-.864.864H22.461a.864.864,0,0,1-.864-.864Zm18.142,5.183H38.012V52.012h1.728Zm6.911,0H44.923V52.012h1.728Zm1.728-.087V50.284H43.195v3.456H41.467V50.284H36.284v3.456H6.047A4.324,4.324,0,0,1,1.728,49.42a.864.864,0,0,1,.864-.864H19.87v.864a2.6,2.6,0,0,0,2.592,2.592H31.1a2.6,2.6,0,0,0,2.592-2.592v-.864H50.97a.864.864,0,0,1,.864.864,4.328,4.328,0,0,1-3.456,4.232Z" transform="translate(0 -1.905)"/>
        <path id="Trazado_1065262" data-name="Trazado 1065262" d="M20.095,19.728V18H9.728A1.73,1.73,0,0,0,8,19.728V43.917a1.73,1.73,0,0,0,1.728,1.728H46.012a1.73,1.73,0,0,0,1.728-1.728V19.728A1.73,1.73,0,0,0,46.012,18H35.645v1.728H46.012V43.917H42.556V38.968l-2.362-.757a13.011,13.011,0,0,0-.794-1.926l1.133-2.2-4.556-4.556-2.2,1.133a13.049,13.049,0,0,0-1.926-.794L31.091,27.5H24.647l-.757,2.362a13.011,13.011,0,0,0-1.926.794l-2.2-1.133-4.556,4.556,1.133,2.2a13.049,13.049,0,0,0-.794,1.926l-2.363.759v4.949H9.728V19.728Zm0,22.461A7.776,7.776,0,1,1,35.43,43.917h-3.6a4.32,4.32,0,1,0-7.912,0h-3.6A7.781,7.781,0,0,1,20.095,42.189Zm5.183,0a2.592,2.592,0,1,1,4.5,1.728H25.958A2.583,2.583,0,0,1,25.278,42.189ZM14.911,40.227l2.035-.651.126-.447a11.136,11.136,0,0,1,1-2.416l.226-.405-.976-1.9,2.775-2.775,1.9.976.405-.226a11.136,11.136,0,0,1,2.416-1l.447-.126.651-2.034h3.923l.651,2.035.447.126a11.136,11.136,0,0,1,2.416,1l.405.226,1.9-.976,2.775,2.775-.976,1.9.226.405a11.136,11.136,0,0,1,1,2.416l.126.447,2.035.651v3.69H37.209a9.5,9.5,0,1,0-18.679,0H14.911Z" transform="translate(-1.089 -2.45)"/>
        <path id="Trazado_1065263" data-name="Trazado 1065263" d="M13,4h3.456V5.728H13Z" transform="translate(-1.769 -0.544)"/>
        <path id="Trazado_1065264" data-name="Trazado 1065264" d="M29,4h3.456V5.728H29Z" transform="translate(-3.947 -0.544)"/>
        <path id="Trazado_1065265" data-name="Trazado 1065265" d="M45,4h3.456V5.728H45Z" transform="translate(-6.125 -0.544)"/>
        <path id="Trazado_1065266" data-name="Trazado 1065266" d="M29.319,23.325h1.728V8.639h4.319V0H25V8.639h4.319Zm-2.592-21.6h6.911V6.911H26.728Z" transform="translate(-3.403)"/>
        <path id="Trazado_1065267" data-name="Trazado 1065267" d="M44.639,12.095H36V23.325h1.728v-9.5h8.639V8.639h4.319V0H40.319V8.639h4.319ZM42.047,1.728h6.911V6.911H42.047Z" transform="translate(-4.9)"/>
        <path id="Trazado_1065268" data-name="Trazado 1065268" d="M13.319,13.822h8.639v9.5h1.728V12.095H15.047V8.639h4.319V0H9V8.639h4.319ZM10.728,1.728h6.911V6.911H10.728Z" transform="translate(-1.225)"/>
      </g>
    </g>
  </g>
</svg>
