<svg xmlns="http://www.w3.org/2000/svg" xmlns:xlink="http://www.w3.org/1999/xlink" width="108" height="108" viewBox="0 0 108 108">
  <defs>
    <filter id="Trazado_904820" x="0" y="0" width="108" height="108" filterUnits="userSpaceOnUse">
      <feOffset dy="3" input="SourceAlpha"/>
      <feGaussianBlur stdDeviation="3" result="blur"/>
      <feFlood flood-opacity="0.161"/>
      <feComposite operator="in" in2="blur"/>
      <feComposite in="SourceGraphic"/>
    </filter>
  </defs>
  <g id="Grupo_1229054" data-name="Grupo 1229054" transform="translate(-200 -947.355)">
    <g id="Grupo_1229050" data-name="Grupo 1229050" transform="translate(209 953.355)">
      <g id="Grupo_1173585" data-name="Grupo 1173585" transform="translate(0 0)">
        <g id="Grupo_1173428" data-name="Grupo 1173428">
          <g id="Grupo_1171958" data-name="Grupo 1171958">
            <g id="Grupo_1167341" data-name="Grupo 1167341">
              <g id="Grupo_1166792" data-name="Grupo 1166792">
                <g transform="matrix(1, 0, 0, 1, -9, -6)" filter="url(#Trazado_904820)">
                  <g id="Trazado_904820-2" data-name="Trazado 904820" transform="translate(9 6)" fill="#e5fdfa">
                    <path d="M 44.99999618530273 88.50002288818359 C 39.12687301635742 88.50002288818359 33.43022155761719 87.35009765625 28.06829643249512 85.08218383789062 C 22.88852119445801 82.89133453369141 18.23629570007324 79.75460815429688 14.24084663391113 75.7591552734375 C 10.24540901184082 71.76371002197266 7.108683586120605 67.11148071289062 4.917821407318115 61.93170928955078 C 2.649921178817749 56.56978225708008 1.499996185302734 50.87313079833984 1.499996185302734 45.00000762939453 C 1.499996185302734 39.12688446044922 2.649921178817749 33.43023300170898 4.917821407318115 28.06830787658691 C 7.108683586120605 22.8885326385498 10.24540901184082 18.23630714416504 14.24084663391113 14.24085807800293 C 18.23629570007324 10.24542045593262 22.88852119445801 7.108695030212402 28.06829643249512 4.917832851409912 C 33.43022155761719 2.649932622909546 39.12687301635742 1.500007629394531 44.99999618530273 1.500007629394531 C 50.87311935424805 1.500007629394531 56.56977081298828 2.649932622909546 61.93169784545898 4.917832851409912 C 67.11147308349609 7.108695030212402 71.76369476318359 10.24542045593262 75.75914764404297 14.24085807800293 C 79.75458526611328 18.23630714416504 82.89131164550781 22.8885326385498 85.08216857910156 28.06830787658691 C 87.35007476806641 33.43023300170898 88.5 39.12688446044922 88.5 45.00000762939453 C 88.5 50.87313079833984 87.35007476806641 56.56978225708008 85.08216857910156 61.93170928955078 C 82.89131164550781 67.11148071289062 79.75458526611328 71.76371002197266 75.75914764404297 75.7591552734375 C 71.76369476318359 79.75460815429688 67.11147308349609 82.89133453369141 61.93169784545898 85.08218383789062 C 56.56977081298828 87.35009765625 50.87311935424805 88.50002288818359 44.99999618530273 88.50002288818359 Z" stroke="none"/>
                    <path d="M 44.99999618530273 2.999992370605469 C 39.32870864868164 2.999992370605469 33.82865142822266 4.110054016113281 28.65262603759766 6.299339294433594 C 23.65165710449219 8.414566040039062 19.15968322753906 11.44333648681641 15.301513671875 15.30150604248047 C 11.44333648681641 19.15967559814453 8.414566040039062 23.65164947509766 6.299339294433594 28.65262222290039 C 4.110054016113281 33.82866287231445 2.999992370605469 39.32872009277344 2.999992370605469 45.00000762939453 C 2.999992370605469 50.67129516601562 4.110054016113281 56.17133712768555 6.299339294433594 61.34738159179688 C 8.414566040039062 66.34835052490234 11.44333648681641 70.84030914306641 15.301513671875 74.69849395751953 C 19.15968322753906 78.55666351318359 23.65165710449219 81.58543395996094 28.65262603759766 83.70066833496094 C 33.82865142822266 85.88995361328125 39.32870864868164 87.00000762939453 44.99999618530273 87.00000762939453 C 50.67128372192383 87.00000762939453 56.17134094238281 85.88995361328125 61.34736633300781 83.70066833496094 C 66.34834289550781 81.58543395996094 70.84030914306641 78.55666351318359 74.69847869873047 74.69849395751953 C 78.55665588378906 70.84030914306641 81.58542633056641 66.34835052490234 83.70065307617188 61.34738159179688 C 85.88993835449219 56.17133712768555 87 50.67129516601562 87 45.00000762939453 C 87 39.32872009277344 85.88993835449219 33.82866287231445 83.70065307617188 28.65262222290039 C 81.58542633056641 23.65164947509766 78.55665588378906 19.15967559814453 74.69847869873047 15.30150604248047 C 70.84030914306641 11.44333648681641 66.34834289550781 8.414566040039062 61.34736633300781 6.299339294433594 C 56.17134094238281 4.110054016113281 50.67128372192383 2.999992370605469 44.99999618530273 2.999992370605469 M 44.99999618530273 -7.62939453125e-06 C 69.85281372070312 -7.62939453125e-06 90 20.14717864990234 90 45.00000762939453 C 90 69.85280609130859 69.85281372070312 90.00000762939453 44.99999618530273 90.00000762939453 C 20.14717864990234 90.00000762939453 -7.62939453125e-06 69.85280609130859 -7.62939453125e-06 45.00000762939453 C -7.62939453125e-06 20.14717864990234 20.14717864990234 -7.62939453125e-06 44.99999618530273 -7.62939453125e-06 Z" stroke="none" fill="#098576"/>
                  </g>
                </g>
              </g>
            </g>
          </g>
        </g>
      </g>
    </g>
    <g id="datos_1_" data-name="datos (1)" transform="translate(227.962 972.845)">
      <path id="Trazado_1063145" data-name="Trazado 1063145" d="M55.394,50.054H10.084a2.592,2.592,0,0,1-2.592-2.592V10.585a2.592,2.592,0,0,1,2.592-2.592h45.31a2.592,2.592,0,0,1,2.592,2.592V47.462A2.592,2.592,0,0,1,55.394,50.054Zm0,0" transform="translate(-6.73 -6.73)" fill="#ffd86e"/>
      <path id="Trazado_1063146" data-name="Trazado 1063146" d="M453.082,10.588V47.466a2.592,2.592,0,0,1-2.592,2.592h-3.167a2.592,2.592,0,0,0,2.592-2.592V10.588A2.592,2.592,0,0,0,447.324,8h3.167A2.592,2.592,0,0,1,453.082,10.588Zm0,0" transform="translate(-401.826 -6.734)" fill="#ffb509"/>
      <path id="Trazado_1063147" data-name="Trazado 1063147" d="M57.988,360.129H7.493v3.653a2.592,2.592,0,0,0,2.592,2.592H55.4a2.592,2.592,0,0,0,2.592-2.592Zm0,0" transform="translate(-6.731 -323.05)" fill="#838383"/>
      <path id="Trazado_1063148" data-name="Trazado 1063148" d="M453.082,360.129v3.653a2.592,2.592,0,0,1-2.592,2.592h-3.167a2.592,2.592,0,0,0,2.592-2.592v-3.653Zm0,0" transform="translate(-401.826 -323.05)" fill="#5a5a5a"/>
      <path id="Trazado_1063149" data-name="Trazado 1063149" d="M58.543,16.835H8.047V10.584a2.592,2.592,0,0,1,2.592-2.592H55.951a2.592,2.592,0,0,1,2.592,2.592Zm0,0" transform="translate(-7.229 -6.73)" fill="#acacac"/>
      <path id="Trazado_1063150" data-name="Trazado 1063150" d="M453.141,10.587v6.252h-3.225V10.587A2.592,2.592,0,0,0,447.325,8h3.224A2.592,2.592,0,0,1,453.141,10.587Zm0,0" transform="translate(-401.826 -6.734)" fill="#9c9c9c"/>
      <path id="Trazado_1063151" data-name="Trazado 1063151" d="M186.277,421.531H200.4v4.258H186.277Zm0,0" transform="translate(-167.331 -378.207)" fill="#5a5a5a"/>
      <path id="Trazado_1063152" data-name="Trazado 1063152" d="M160.069,467.567H136.789a.508.508,0,0,1-.508-.508v-1.646a2.022,2.022,0,0,1,2.022-2.022h20.252a2.022,2.022,0,0,1,2.022,2.022v1.646a.508.508,0,0,1-.508.508Zm0,0" transform="translate(-122.42 -415.809)" fill="#838383"/>
      <path id="Trazado_1063153" data-name="Trazado 1063153" d="M336.971,465.416v1.647a.508.508,0,0,1-.508.508h-1.793v-2.155a2.022,2.022,0,0,0-2.021-2.021h2.3A2.021,2.021,0,0,1,336.971,465.416Zm0,0" transform="translate(-298.814 -415.813)" fill="#5a5a5a"/>
      <path id="Trazado_1063154" data-name="Trazado 1063154" d="M295.477,275.613h16.5v3.128h-16.5Zm0,0" transform="translate(-265.424 -247.131)" fill="#64dcfc"/>
      <path id="Trazado_1063155" data-name="Trazado 1063155" d="M295.477,357.273h16.5V360.4h-16.5Zm0,0" transform="translate(-265.424 -320.485)" fill="#64dcfc"/>
      <path id="Trazado_1063156" data-name="Trazado 1063156" d="M438.551,275.613H440.5v3.128h-1.951Zm0,0" transform="translate(-393.945 -247.131)" fill="#00d1fc"/>
      <path id="Trazado_1063157" data-name="Trazado 1063157" d="M438.551,357.273H440.5V360.4h-1.951Zm0,0" transform="translate(-393.945 -320.485)" fill="#00d1fc"/>
      <g id="Grupo_1229055" data-name="Grupo 1229055" transform="translate(27.95 23.305)">
        <path id="Trazado_1063158" data-name="Trazado 1063158" d="M294.771,229.885H275.534a.737.737,0,0,1-.737-.737v-3.7a.737.737,0,0,1,.737-.737h19.237a.737.737,0,0,1,.737.737v3.7A.737.737,0,0,1,294.771,229.885Zm0,0" transform="translate(-274.797 -224.707)" fill="#0396fd"/>
        <path id="Trazado_1063159" data-name="Trazado 1063159" d="M294.771,311.545H275.534a.737.737,0,0,1-.737-.737v-3.7a.737.737,0,0,1,.737-.737h19.237a.737.737,0,0,1,.737.737v3.7A.737.737,0,0,1,294.771,311.545Zm0,0" transform="translate(-274.797 -298.061)" fill="#0396fd"/>
        <path id="Trazado_1063160" data-name="Trazado 1063160" d="M294.771,393.206H275.534a.737.737,0,0,1-.737-.737v-3.7a.737.737,0,0,1,.737-.737h19.237a.737.737,0,0,1,.737.737v3.7A.737.737,0,0,1,294.771,393.206Zm0,0" transform="translate(-274.797 -371.416)" fill="#0396fd"/>
      </g>
      <path id="Trazado_1063161" data-name="Trazado 1063161" d="M456.813,225.447v3.7a.736.736,0,0,1-.737.737h-1.709a.736.736,0,0,0,.737-.737v-3.7a.736.736,0,0,0-.737-.737h1.709A.736.736,0,0,1,456.813,225.447Zm0,0" transform="translate(-408.153 -201.406)" fill="#0077f0"/>
      <path id="Trazado_1063162" data-name="Trazado 1063162" d="M456.813,307.1v3.7a.736.736,0,0,1-.737.737h-1.709a.736.736,0,0,0,.737-.737v-3.7a.736.736,0,0,0-.737-.737h1.709A.736.736,0,0,1,456.813,307.1Zm0,0" transform="translate(-408.153 -274.756)" fill="#0077f0"/>
      <path id="Trazado_1063163" data-name="Trazado 1063163" d="M456.813,388.768v3.7a.737.737,0,0,1-.737.737h-1.709a.737.737,0,0,0,.737-.737v-3.7a.736.736,0,0,0-.737-.737h1.709A.736.736,0,0,1,456.813,388.768Zm0,0" transform="translate(-408.153 -348.114)" fill="#0077f0"/>
      <path id="Trazado_1063164" data-name="Trazado 1063164" d="M43.714,38.228a1.474,1.474,0,1,1-1.474-1.474A1.475,1.475,0,0,1,43.714,38.228Zm0,0" transform="translate(-36.62 -32.567)" fill="#ff6b81"/>
      <path id="Trazado_1063165" data-name="Trazado 1063165" d="M99.7,38.228a1.475,1.475,0,1,1-1.474-1.474A1.475,1.475,0,0,1,99.7,38.228Zm0,0" transform="translate(-86.91 -32.567)" fill="#ffd86e"/>
      <path id="Trazado_1063166" data-name="Trazado 1063166" d="M155.687,38.228a1.474,1.474,0,1,1-1.474-1.474A1.475,1.475,0,0,1,155.687,38.228Zm0,0" transform="translate(-137.203 -32.567)" fill="#80e0dc"/>
      <path id="Trazado_1063167" data-name="Trazado 1063167" d="M47.756,38.233A1.474,1.474,0,0,1,45.266,39.3a1.473,1.473,0,0,0,.983-2.54h.035a1.474,1.474,0,0,1,1.474,1.475Zm0,0" transform="translate(-40.662 -32.57)" fill="#ff435f"/>
      <path id="Trazado_1063168" data-name="Trazado 1063168" d="M103.737,38.233a1.474,1.474,0,0,1-2.492,1.066,1.473,1.473,0,0,0,.984-2.54h.033a1.474,1.474,0,0,1,1.474,1.475Zm0,0" transform="translate(-90.948 -32.57)" fill="#ffb509"/>
      <path id="Trazado_1063169" data-name="Trazado 1063169" d="M159.726,38.233a1.475,1.475,0,0,1-2.492,1.066,1.473,1.473,0,0,0,.983-2.54h.035a1.475,1.475,0,0,1,1.475,1.475Zm0,0" transform="translate(-141.242 -32.57)" fill="#00a8b0"/>
      <path id="Trazado_1063170" data-name="Trazado 1063170" d="M35.886,133.351a.762.762,0,1,0,1.078-1.078l-1.851-1.851,1.851-1.85a.762.762,0,1,0-1.078-1.078L33.5,129.883a.762.762,0,0,0,0,1.078Zm0,0" transform="translate(-29.889 -113.876)"/>
      <path id="Trazado_1063171" data-name="Trazado 1063171" d="M115,130.418l-1.851,1.851a.762.762,0,1,0,1.078,1.078l2.39-2.39a.762.762,0,0,0,0-1.078l-2.39-2.39a.762.762,0,0,0-1.078,1.078Zm0,0" transform="translate(-101.445 -113.873)"/>
      <path id="Trazado_1063172" data-name="Trazado 1063172" d="M76.9,133.516a.762.762,0,0,0,.988-.431l1.877-4.779a.762.762,0,1,0-1.418-.557l-1.878,4.779A.762.762,0,0,0,76.9,133.516Zm0,0" transform="translate(-68.645 -113.872)"/>
      <path id="Trazado_1063173" data-name="Trazado 1063173" d="M38.278,219.739h5.135a.762.762,0,0,0,0-1.525H38.278a.762.762,0,0,0,0,1.525Zm0,0" transform="translate(-33.7 -195.57)"/>
      <path id="Trazado_1063174" data-name="Trazado 1063174" d="M125.3,218.215h-9.027a.762.762,0,0,0,0,1.525H125.3a.762.762,0,1,0,0-1.525Zm0,0" transform="translate(-103.763 -195.571)"/>
      <path id="Trazado_1063175" data-name="Trazado 1063175" d="M38.278,251.345h2.187a.762.762,0,0,0,0-1.524H38.278a.762.762,0,0,0,0,1.524Zm0,0" transform="translate(-33.7 -223.962)"/>
      <path id="Trazado_1063176" data-name="Trazado 1063176" d="M177.61,249.82a.762.762,0,0,0,0,1.524h1.332a.762.762,0,1,0,0-1.524Zm0,0" transform="translate(-158.861 -223.961)"/>
      <path id="Trazado_1063177" data-name="Trazado 1063177" d="M93.379,250.583a.762.762,0,0,0-.762-.762H86.074a.762.762,0,0,0,0,1.525h6.542A.762.762,0,0,0,93.379,250.583Zm0,0" transform="translate(-76.635 -223.962)"/>
      <path id="Trazado_1063178" data-name="Trazado 1063178" d="M213.7,250.583a.762.762,0,0,0,.762.762h2.495a.762.762,0,1,0,0-1.525h-2.495A.762.762,0,0,0,213.7,250.583Zm0,0" transform="translate(-191.967 -223.962)"/>
      <path id="Trazado_1063179" data-name="Trazado 1063179" d="M166.161,150.8h2.631a.762.762,0,1,0,0-1.525h-2.631a.762.762,0,1,0,0,1.525Zm0,0" transform="translate(-148.576 -133.645)"/>
      <path id="Trazado_1063180" data-name="Trazado 1063180" d="M221.008,150.8h16.056a.762.762,0,0,0,0-1.525H221.008a.762.762,0,1,0,0,1.525Zm0,0" transform="translate(-197.845 -133.645)"/>
      <path id="Trazado_1063181" data-name="Trazado 1063181" d="M297.45,182.246h-6.5a.762.762,0,0,0,0,1.524h6.5a.762.762,0,0,0,0-1.524Zm0,0" transform="translate(-260.669 -163.26)"/>
      <path id="Trazado_1063182" data-name="Trazado 1063182" d="M247.224,182.246h-2.236a.762.762,0,0,0,0,1.524h2.236a.762.762,0,0,0,0-1.524Zm0,0" transform="translate(-219.386 -163.26)"/>
      <path id="Trazado_1063183" data-name="Trazado 1063183" d="M166.161,183.77h5.477a.762.762,0,0,0,0-1.524h-5.477a.762.762,0,1,0,0,1.524Zm0,0" transform="translate(-148.576 -163.26)"/>
      <path id="Trazado_1063184" data-name="Trazado 1063184" d="M105.143,281.16h-5.134a.762.762,0,1,0,0,1.524h5.134a.762.762,0,1,0,0-1.524Zm0,0" transform="translate(-89.152 -252.113)"/>
      <path id="Trazado_1063185" data-name="Trazado 1063185" d="M42.222,281.16H38.278a.762.762,0,0,0,0,1.524h3.945a.762.762,0,0,0,0-1.524Zm0,0" transform="translate(-33.7 -252.113)"/>
      <path id="Trazado_1063186" data-name="Trazado 1063186" d="M182.759,281.16h-6.707a.762.762,0,0,0,0,1.524h6.707a.762.762,0,1,0,0-1.524Zm0,0" transform="translate(-157.461 -252.113)"/>
      <path id="Trazado_1063187" data-name="Trazado 1063187" d="M298.777,242.668h-3.668a.762.762,0,0,0,0,1.525h3.668a.762.762,0,0,0,0-1.525Zm0,0" transform="translate(-264.409 -217.537)"/>
      <path id="Trazado_1063188" data-name="Trazado 1063188" d="M393.739,244.192h5.177a.762.762,0,1,0,0-1.525h-5.177a.762.762,0,0,0,0,1.525Zm0,0" transform="translate(-353.007 -217.536)"/>
      <path id="Trazado_1063189" data-name="Trazado 1063189" d="M357.8,242.668h-1.186a.762.762,0,1,0,0,1.525H357.8a.762.762,0,0,0,0-1.525Zm0,0" transform="translate(-319.661 -217.537)"/>
      <path id="Trazado_1063190" data-name="Trazado 1063190" d="M295.11,325.853h3.668a.762.762,0,1,0,0-1.524H295.11a.762.762,0,0,0,0,1.524Zm0,0" transform="translate(-264.409 -290.891)"/>
      <path id="Trazado_1063191" data-name="Trazado 1063191" d="M393.739,325.853h5.177a.762.762,0,1,0,0-1.524h-5.177a.762.762,0,0,0,0,1.524Zm0,0" transform="translate(-353.007 -290.891)"/>
      <path id="Trazado_1063192" data-name="Trazado 1063192" d="M356.622,325.853h1.186a.762.762,0,1,0,0-1.524h-1.186a.762.762,0,1,0,0,1.524Zm0,0" transform="translate(-319.665 -290.891)"/>
      <path id="Trazado_1063193" data-name="Trazado 1063193" d="M298.777,405.988h-3.668a.762.762,0,0,0,0,1.524h3.668a.762.762,0,1,0,0-1.524Zm0,0" transform="translate(-264.409 -364.245)"/>
      <path id="Trazado_1063194" data-name="Trazado 1063194" d="M398.916,405.988h-5.177a.762.762,0,1,0,0,1.524h5.177a.762.762,0,1,0,0-1.524Zm0,0" transform="translate(-353.006 -364.245)"/>
      <path id="Trazado_1063195" data-name="Trazado 1063195" d="M357.8,405.988h-1.186a.762.762,0,1,0,0,1.524H357.8a.762.762,0,0,0,0-1.524Zm0,0" transform="translate(-319.661 -364.245)"/>
      <path id="Trazado_1063196" data-name="Trazado 1063196" d="M48.722.5H3.354A3.358,3.358,0,0,0,0,3.854V40.732a3.358,3.358,0,0,0,3.355,3.354H6.222a.762.762,0,1,0,0-1.524H3.354a1.832,1.832,0,0,1-1.83-1.83V37.841H29.291v1.314h-.6a1.5,1.5,0,0,0-1.5,1.5v1.909H10.856a.762.762,0,1,0,0,1.524h7.328V46.82h-2.3A2.787,2.787,0,0,0,13.1,49.6V51.25a1.272,1.272,0,0,0,1.27,1.27h23.28a1.272,1.272,0,0,0,1.27-1.27V49.6a2.787,2.787,0,0,0-2.784-2.784h-2.3v-.963h14.09a1.5,1.5,0,0,0,1.5-1.5V44a3.359,3.359,0,0,0,2.6-3.266l.058-36.878A3.357,3.357,0,0,0,48.722.5ZM28.712,36.026V32.373H47.9v3.653Zm2.1-5.178v-1.6h14.98v1.6Zm14.98,6.7v1.6H30.815v-1.6ZM19.708,44.086h7.479v.271a1.5,1.5,0,0,0,1.5,1.5H32.31v.963h-12.6Zm16.427,4.258A1.261,1.261,0,0,1,37.395,49.6V51H14.623V49.6a1.261,1.261,0,0,1,1.26-1.259ZM47.9,44.332H28.712V40.679H47.9Zm2.6-3.6A1.83,1.83,0,0,1,49.423,42.4V40.653a1.5,1.5,0,0,0-1.5-1.5h-.6V37.841h3.175Zm0-4.415H49.4c.015-.086.025-3.969.025-3.969a1.5,1.5,0,0,0-1.5-1.5h-.6v-1.6h.6a1.5,1.5,0,0,0,1.5-1.5v-3.7a1.5,1.5,0,0,0-1.5-1.5h-4.3a.762.762,0,0,0,0,1.524H47.9V27.72H28.712V24.067H38.876a.762.762,0,0,0,0-1.524H28.687a1.5,1.5,0,0,0-1.5,1.5v3.7a1.5,1.5,0,0,0,1.5,1.5h.6v1.6h-.6a1.5,1.5,0,0,0-1.5,1.5s.01,3.883.025,3.969H1.524V10.867h48.97Zm0-26.974H1.58V3.854a1.832,1.832,0,0,1,1.83-1.83H48.664a1.832,1.832,0,0,1,1.83,1.83Zm0,0"/>
      <path id="Trazado_1063197" data-name="Trazado 1063197" d="M35.51,29.262A2.237,2.237,0,1,0,37.747,31.5,2.239,2.239,0,0,0,35.51,29.262Zm0,2.949a.712.712,0,1,1,.712-.712A.713.713,0,0,1,35.51,32.211Zm0,0" transform="translate(-29.89 -25.836)"/>
      <path id="Trazado_1063198" data-name="Trazado 1063198" d="M91.495,29.262A2.237,2.237,0,1,0,93.731,31.5,2.239,2.239,0,0,0,91.495,29.262Zm0,2.949a.712.712,0,1,1,.712-.712A.713.713,0,0,1,91.495,32.211Zm0,0" transform="translate(-80.18 -25.836)"/>
      <path id="Trazado_1063199" data-name="Trazado 1063199" d="M147.482,29.262a2.237,2.237,0,1,0,2.237,2.236A2.239,2.239,0,0,0,147.482,29.262Zm0,2.949a.712.712,0,1,1,.712-.712A.713.713,0,0,1,147.482,32.211Zm0,0" transform="translate(-130.473 -25.836)"/>
    </g>
  </g>
</svg>
