<svg xmlns="http://www.w3.org/2000/svg" width="85" height="78" viewBox="0 0 85 78">
  <g id="Grupo_1233037" data-name="Grupo 1233037" transform="translate(-180 -1220)">
    <rect id="Rectángulo_423328" data-name="Rectángulo 423328" width="85" height="78" rx="15" transform="translate(180 1220)" fill="#f6ecfe"/>
    <g id="programacion-web_2_" data-name="programacion-web (2)" transform="translate(198.651 1235.151)">
      <path id="Trazado_1066344" data-name="Trazado 1066344" d="M.5,6.948v33.8A6.5,6.5,0,0,0,6.948,47.2h33.8A6.5,6.5,0,0,0,47.2,40.749V6.948A6.5,6.5,0,0,0,40.749.5H6.948A6.5,6.5,0,0,0,.5,6.948Zm42.985,9.378V40.749a2.586,2.586,0,0,1-2.54,2.54h-34a2.586,2.586,0,0,1-2.54-2.54V16.326a2.586,2.586,0,0,1,2.54-2.54h33.8A2.633,2.633,0,0,1,43.485,16.326ZM22.383,5.58h17a2.1,2.1,0,0,1,1.954,1.954,2.1,2.1,0,0,1-1.954,1.954h-17a1.954,1.954,0,1,1,0-3.908Zm-8.6,0a1.954,1.954,0,1,1-1.954,1.954A1.958,1.958,0,0,1,13.786,5.58ZM10.269,7.534A1.958,1.958,0,0,1,8.315,9.488,2.1,2.1,0,0,1,6.362,7.534,2.1,2.1,0,0,1,8.315,5.58,1.958,1.958,0,0,1,10.269,7.534Z" fill="#aa52f9"/>
      <path id="Trazado_1066345" data-name="Trazado 1066345" d="M19.222,11.886a1.934,1.934,0,0,0-2.735,2.735l2.931,2.931-2.931,2.931a1.934,1.934,0,0,0,2.735,2.735l4.494-4.3a1.886,1.886,0,0,0,0-2.735Z" transform="translate(14.689 10.302)" fill="#aa52f9"/>
      <path id="Trazado_1066346" data-name="Trazado 1066346" d="M12.615,11.986a1.889,1.889,0,0,0-2.735,0l-4.494,4.3a1.886,1.886,0,0,0,0,2.735l4.494,4.3a1.934,1.934,0,0,0,2.735-2.735L9.685,17.652l2.931-2.931a1.889,1.889,0,0,0,0-2.735Z" transform="translate(4.102 10.397)" fill="#aa52f9"/>
      <path id="Trazado_1066347" data-name="Trazado 1066347" d="M17.748,9.018A2.009,2.009,0,0,0,15.4,10.386L10.518,27.971a2.009,2.009,0,0,0,1.368,2.345,2.009,2.009,0,0,0,2.345-1.368l4.885-17.585a2.122,2.122,0,0,0-1.368-2.345Z" transform="translate(9.52 8.089)" fill="#aa52f9"/>
    </g>
  </g>
</svg>
