<svg xmlns="http://www.w3.org/2000/svg" xmlns:xlink="http://www.w3.org/1999/xlink" width="400" height="617" viewBox="0 0 400 617">
  <defs>
    <clipPath id="clip-path">
      <rect id="Rectángulo_424558" data-name="Rectángulo 424558" width="400" height="617" transform="translate(180 1380)" fill="#fff" stroke="#707070" stroke-width="1"/>
    </clipPath>
    <linearGradient id="linear-gradient" x1="0.5" x2="0.5" y2="1" gradientUnits="objectBoundingBox">
      <stop offset="0" stop-color="#903cdf"/>
      <stop offset="1" stop-color="#481e70"/>
    </linearGradient>
  </defs>
  <g id="Enmascarar_grupo_1211609" data-name="Enmascarar grupo 1211609" transform="translate(-180 -1380)" clip-path="url(#clip-path)">
    <g id="Grupo_1231451" data-name="Grupo 1231451">
      <g id="Grupo_1231364" data-name="Grupo 1231364" transform="translate(-16)">
        <rect id="Rectángulo_423389" data-name="Rectángulo 423389" width="278" height="617" rx="13" transform="translate(252 1380)" fill="url(#linear-gradient)"/>
      </g>
      <g id="OBJECTS" transform="translate(104.891 1418.037)">
        <g id="Grupo_1231446" data-name="Grupo 1231446" transform="translate(65.109 -26.32)">
          <ellipse id="Elipse_13891" data-name="Elipse 13891" cx="116.968" cy="35.076" rx="116.968" ry="35.076" transform="translate(95.953 522.676)" fill="#34dce7" opacity="0.1"/>
          <ellipse id="Elipse_13892" data-name="Elipse 13892" cx="85.576" cy="25.661" rx="85.576" ry="25.661" transform="translate(126.891 522.898)" fill="#34dce7" opacity="0.1"/>
          <ellipse id="Elipse_13893" data-name="Elipse 13893" cx="64.078" cy="19.215" rx="64.078" ry="19.215" transform="translate(148.39 527.502)" fill="#34dce7" opacity="0.1"/>
          <rect id="Rectángulo_424532" data-name="Rectángulo 424532" width="345.296" height="7.642" transform="translate(40.273 380.239)" fill="#224dc2"/>
          <path id="Trazado_1065345" data-name="Trazado 1065345" d="M387.544,300.492H165.863a6.58,6.58,0,0,1-6.58-6.58V146.975a6.58,6.58,0,0,1,6.58-6.58H387.546a6.58,6.58,0,0,1,6.58,6.58V293.912A6.582,6.582,0,0,1,387.544,300.492Z" transform="translate(-36.574 62.286)" fill="#224dc2"/>
          <path id="Trazado_1065346" data-name="Trazado 1065346" d="M387.544,140.4H165.863a6.58,6.58,0,0,0-6.58,6.58V284.106H394.125V146.975A6.58,6.58,0,0,0,387.544,140.4Z" transform="translate(-36.574 62.286)" fill="#226fcd"/>
          <path id="Trazado_1065347" data-name="Trazado 1065347" d="M387.544,140.4H165.863a6.58,6.58,0,0,0-6.58,6.58v.474a6.58,6.58,0,0,1,6.58-6.58H387.544a6.58,6.58,0,0,1,6.58,6.58v-.474A6.58,6.58,0,0,0,387.544,140.4Z" transform="translate(-36.574 62.286)" fill="#479ee8"/>
          <rect id="Rectángulo_424533" data-name="Rectángulo 424533" width="216.588" height="128.195" transform="translate(131.835 212.769)" fill="#15081f"/>
          <g id="Grupo_1231365" data-name="Grupo 1231365" transform="translate(138.955 219.003)">
            <path id="Trazado_1065348" data-name="Trazado 1065348" d="M312.086,163.716h-122.5a1.519,1.519,0,0,1-1.514-1.514h0a1.519,1.519,0,0,1,1.514-1.514h122.5A1.519,1.519,0,0,1,313.6,162.2h0A1.52,1.52,0,0,1,312.086,163.716Z" transform="translate(-166.807 -150.568)" fill="#80ffff"/>
            <path id="Trazado_1065349" data-name="Trazado 1065349" d="M251.709,156.809H173.7a1.95,1.95,0,0,1-1.944-1.944h0a1.95,1.95,0,0,1,1.944-1.944h78.013a1.95,1.95,0,0,1,1.944,1.944h0A1.95,1.95,0,0,1,251.709,156.809Z" transform="translate(-171.751 -152.921)" fill="#34dce7"/>
            <path id="Trazado_1065350" data-name="Trazado 1065350" d="M181.131,163.716h-7.866a1.519,1.519,0,0,1-1.514-1.514h0a1.519,1.519,0,0,1,1.514-1.514h7.866a1.519,1.519,0,0,1,1.514,1.514h0A1.52,1.52,0,0,1,181.131,163.716Z" transform="translate(-171.751 -150.568)" fill="#34dce7"/>
            <path id="Trazado_1065351" data-name="Trazado 1065351" d="M236.744,169.823H173.667a.945.945,0,0,1-.942-.942h0a.945.945,0,0,1,.942-.942h63.077a.945.945,0,0,1,.942.942h0A.944.944,0,0,1,236.744,169.823Z" transform="translate(-171.456 -148.37)" fill="#dbff0e"/>
            <path id="Trazado_1065352" data-name="Trazado 1065352" d="M236.744,175.709H173.667a.945.945,0,0,1-.942-.942h0a.945.945,0,0,1,.942-.942h63.077a.945.945,0,0,1,.942.942h0A.944.944,0,0,1,236.744,175.709Z" transform="translate(-171.456 -146.587)" fill="#dbff0e"/>
            <path id="Trazado_1065353" data-name="Trazado 1065353" d="M236.744,181.6H173.667a.945.945,0,0,1-.942-.942h0a.945.945,0,0,1,.942-.942h63.077a.945.945,0,0,1,.942.942h0A.944.944,0,0,1,236.744,181.6Z" transform="translate(-171.456 -144.803)" fill="#dbff0e"/>
            <path id="Trazado_1065354" data-name="Trazado 1065354" d="M236.744,187.482H173.667a.945.945,0,0,1-.942-.942h0a.945.945,0,0,1,.942-.942h63.077a.945.945,0,0,1,.942.942h0A.944.944,0,0,1,236.744,187.482Z" transform="translate(-171.456 -143.02)" fill="#dbff0e"/>
            <path id="Trazado_1065355" data-name="Trazado 1065355" d="M183.291,193.368h-9.624a.945.945,0,0,1-.942-.942h0a.945.945,0,0,1,.942-.942h9.624a.945.945,0,0,1,.942.942h0A.946.946,0,0,1,183.291,193.368Z" transform="translate(-171.456 -141.236)" fill="#dbff0e"/>
            <path id="Trazado_1065356" data-name="Trazado 1065356" d="M196.183,193.368h-9.624a.945.945,0,0,1-.942-.942h0a.945.945,0,0,1,.942-.942h9.624a.945.945,0,0,1,.942.942h0A.946.946,0,0,1,196.183,193.368Z" transform="translate(-167.55 -141.236)" fill="#dbff0e"/>
            <path id="Trazado_1065357" data-name="Trazado 1065357" d="M209.075,193.368h-9.624a.945.945,0,0,1-.942-.942h0a.945.945,0,0,1,.942-.942h9.624a.945.945,0,0,1,.942.942h0A.946.946,0,0,1,209.075,193.368Z" transform="translate(-163.643 -141.236)" fill="#dbff0e"/>
            <path id="Trazado_1065358" data-name="Trazado 1065358" d="M221.967,193.368h-9.624a.945.945,0,0,1-.942-.942h0a.945.945,0,0,1,.942-.942h9.624a.945.945,0,0,1,.942.942h0A.946.946,0,0,1,221.967,193.368Z" transform="translate(-159.737 -141.236)" fill="#dbff0e"/>
            <path id="Trazado_1065359" data-name="Trazado 1065359" d="M234.859,193.368h-9.624a.945.945,0,0,1-.942-.942h0a.945.945,0,0,1,.942-.942h9.624a.945.945,0,0,1,.942.942h0A.945.945,0,0,1,234.859,193.368Z" transform="translate(-155.831 -141.236)" fill="#dbff0e"/>
            <path id="Trazado_1065360" data-name="Trazado 1065360" d="M247.751,193.368h-9.624a.945.945,0,0,1-.942-.942h0a.945.945,0,0,1,.942-.942h9.624a.945.945,0,0,1,.942.942h0A.945.945,0,0,1,247.751,193.368Z" transform="translate(-151.924 -141.236)" fill="#dbff0e"/>
            <path id="Trazado_1065361" data-name="Trazado 1065361" d="M236.744,199.255H173.667a.945.945,0,0,1-.942-.942h0a.945.945,0,0,1,.942-.942h63.077a.945.945,0,0,1,.942.942h0A.944.944,0,0,1,236.744,199.255Z" transform="translate(-171.456 -139.452)" fill="#dbff0e"/>
            <path id="Trazado_1065362" data-name="Trazado 1065362" d="M339.705,179.854H262.339a1.316,1.316,0,0,1-1.312-1.312h0a1.316,1.316,0,0,1,1.312-1.312h77.366a1.316,1.316,0,0,1,1.312,1.312h0A1.316,1.316,0,0,1,339.705,179.854Z" transform="translate(-144.7 -145.555)" fill="#ff551f"/>
            <path id="Trazado_1065363" data-name="Trazado 1065363" d="M339.705,188.661H262.339a1.316,1.316,0,0,1-1.312-1.312h0a1.316,1.316,0,0,1,1.312-1.312h77.366a1.316,1.316,0,0,1,1.312,1.312h0A1.316,1.316,0,0,1,339.705,188.661Z" transform="translate(-144.7 -142.887)" fill="#ff2995"/>
            <path id="Trazado_1065364" data-name="Trazado 1065364" d="M339.705,196.909H262.339a1.316,1.316,0,0,1-1.312-1.312h0a1.316,1.316,0,0,1,1.312-1.312h77.366a1.316,1.316,0,0,1,1.312,1.312h0A1.316,1.316,0,0,1,339.705,196.909Z" transform="translate(-144.7 -140.388)" fill="#ff2995"/>
            <path id="Trazado_1065365" data-name="Trazado 1065365" d="M339.705,205.157H262.339a1.316,1.316,0,0,1-1.312-1.312h0a1.316,1.316,0,0,1,1.312-1.312h77.366a1.316,1.316,0,0,1,1.312,1.312h0A1.316,1.316,0,0,1,339.705,205.157Z" transform="translate(-144.7 -137.888)" fill="#ff2995"/>
            <path id="Trazado_1065366" data-name="Trazado 1065366" d="M339.705,213.405H262.339a1.316,1.316,0,0,1-1.312-1.312h0a1.316,1.316,0,0,1,1.312-1.312h77.366a1.316,1.316,0,0,1,1.312,1.312h0A1.316,1.316,0,0,1,339.705,213.405Z" transform="translate(-144.7 -135.389)" fill="#ff2995"/>
            <path id="Trazado_1065367" data-name="Trazado 1065367" d="M302.091,221.653H262.339a1.316,1.316,0,0,1-1.312-1.312h0a1.316,1.316,0,0,1,1.312-1.312h39.752a1.316,1.316,0,0,1,1.312,1.312h0A1.317,1.317,0,0,1,302.091,221.653Z" transform="translate(-144.7 -132.89)" fill="#ff2995"/>
            <path id="Trazado_1065368" data-name="Trazado 1065368" d="M322.038,227.267H282.286a1.316,1.316,0,0,1-1.312-1.312h0a1.316,1.316,0,0,1,1.312-1.312h39.752a1.316,1.316,0,0,1,1.312,1.312h0A1.317,1.317,0,0,1,322.038,227.267Z" transform="translate(-138.656 -131.189)" fill="#ff2995"/>
            <path id="Trazado_1065369" data-name="Trazado 1065369" d="M322.038,233.081H282.286a1.316,1.316,0,0,1-1.312-1.312h0a1.316,1.316,0,0,1,1.312-1.312h39.752a1.316,1.316,0,0,1,1.312,1.312h0A1.316,1.316,0,0,1,322.038,233.081Z" transform="translate(-138.656 -129.427)" fill="#ff2995"/>
            <path id="Trazado_1065370" data-name="Trazado 1065370" d="M199.793,233.081h-18.53a1.316,1.316,0,0,1-1.312-1.312h0a1.316,1.316,0,0,1,1.312-1.312h18.53a1.316,1.316,0,0,1,1.312,1.312h0A1.316,1.316,0,0,1,199.793,233.081Z" transform="translate(-169.266 -129.427)" fill="#ff2995"/>
            <path id="Trazado_1065371" data-name="Trazado 1065371" d="M199.793,228.274h-18.53a1.316,1.316,0,0,1-1.312-1.312h0a1.316,1.316,0,0,1,1.312-1.312h18.53a1.316,1.316,0,0,1,1.312,1.312h0A1.316,1.316,0,0,1,199.793,228.274Z" transform="translate(-169.266 -130.884)" fill="#ff2995"/>
            <path id="Trazado_1065372" data-name="Trazado 1065372" d="M199.793,223.467h-18.53a1.316,1.316,0,0,1-1.312-1.312h0a1.316,1.316,0,0,1,1.312-1.312h18.53a1.316,1.316,0,0,1,1.312,1.312h0A1.317,1.317,0,0,1,199.793,223.467Z" transform="translate(-169.266 -132.34)" fill="#ff2995"/>
            <path id="Trazado_1065373" data-name="Trazado 1065373" d="M199.793,218.659h-18.53a1.316,1.316,0,0,1-1.312-1.312h0a1.316,1.316,0,0,1,1.312-1.312h18.53a1.316,1.316,0,0,1,1.312,1.312h0A1.316,1.316,0,0,1,199.793,218.659Z" transform="translate(-169.266 -133.797)" fill="#ff2995"/>
            <path id="Trazado_1065374" data-name="Trazado 1065374" d="M210.223,218.659H204.6a1.316,1.316,0,0,1-1.312-1.312h0a1.316,1.316,0,0,1,1.312-1.312h5.626a1.316,1.316,0,0,1,1.312,1.312h0A1.316,1.316,0,0,1,210.223,218.659Z" transform="translate(-162.196 -133.797)" fill="#ff2995"/>
            <path id="Trazado_1065375" data-name="Trazado 1065375" d="M210.223,229.289H204.6a1.316,1.316,0,0,1-1.312-1.312h0a1.316,1.316,0,0,1,1.312-1.312h5.626a1.316,1.316,0,0,1,1.312,1.312h0A1.316,1.316,0,0,1,210.223,229.289Z" transform="translate(-162.196 -130.576)" fill="#ff2995"/>
          </g>
          <g id="Grupo_1231366" data-name="Grupo 1231366" transform="translate(131.835 212.769)" opacity="0.17">
            <path id="Trazado_1065376" data-name="Trazado 1065376" d="M348.762,215.882v-23L278.87,262.774h23Z" transform="translate(-132.174 -134.579)" fill="#479ee8"/>
            <path id="Trazado_1065377" data-name="Trazado 1065377" d="M254.431,276.332,374.764,156v-7.86H321.249L193.054,276.332Z" transform="translate(-158.176 -148.137)" fill="#479ee8"/>
            <path id="Trazado_1065378" data-name="Trazado 1065378" d="M166.287,203.889v51.8L273.845,148.137H222.039Z" transform="translate(-166.287 -148.137)" fill="#479ee8"/>
          </g>
          <g id="Grupo_1231399" data-name="Grupo 1231399" transform="translate(131.719 212.769)">
            <rect id="Rectángulo_424534" data-name="Rectángulo 424534" width="25.263" height="19.016" transform="translate(69.333 73.951)" fill="#feb187"/>
            <path id="Trazado_1065379" data-name="Trazado 1065379" d="M240.721,225.649a36.314,36.314,0,0,0,25.263,0v5.527l-6.945,1.269-5.686,1.156-12.631-4.173v-3.779Z" transform="translate(-171.388 -136.79)" fill="#f88b65"/>
            <path id="Trazado_1065380" data-name="Trazado 1065380" d="M291.344,334.306H231.025a11.865,11.865,0,0,1-11.83-11.83V310.8a11.865,11.865,0,0,1,11.83-11.83h60.319a11.865,11.865,0,0,1,11.83,11.83v11.673A11.866,11.866,0,0,1,291.344,334.306Z" transform="translate(-179.306 -109.819)" fill="#b7ffe7"/>
            <path id="Trazado_1065381" data-name="Trazado 1065381" d="M302.719,314.827c-43.335,12.781-83.255-.1-83.274-.1a17.249,17.249,0,0,0,16.842,13.785H285.9A17.249,17.249,0,0,0,302.719,314.827Z" transform="translate(-179.214 -104.024)" fill="#96d2e7"/>
            <g id="Grupo_1231368" data-name="Grupo 1231368" transform="translate(19.009 0)">
              <g id="Grupo_1231367" data-name="Grupo 1231367" transform="translate(34.121)">
                <path id="Trazado_1065382" data-name="Trazado 1065382" d="M252.946,178.324l17.638-17.638a19.585,19.585,0,0,1-.622,17.638l7.276-7.276s3.276,9.812-3.366,15.184l6.006-6.008s3.781,11.156-10.156,19.711Z" transform="translate(-220.021 -160.686)" fill="#34dce7"/>
                <path id="Trazado_1065383" data-name="Trazado 1065383" d="M267.378,193.2l5.558.729.042-.036c.044-.434,1.466-15.819-16.2-23.115l-3.83,3.83Z" transform="translate(-220.02 -156.973)" fill="#14c3e7"/>
                <circle id="Elipse_13894" data-name="Elipse 13894" cx="7.84" cy="7.84" r="7.84" transform="translate(42.155 47.334)" fill="#feb187"/>
                <circle id="Elipse_13895" data-name="Elipse 13895" cx="7.84" cy="7.84" r="7.84" transform="translate(0 47.334)" fill="#feb187"/>
                <path id="Trazado_1065384" data-name="Trazado 1065384" d="M256.505,241.252h0a24.43,24.43,0,0,1-24.358-24.358V197.7a24.43,24.43,0,0,1,24.358-24.358h0A24.43,24.43,0,0,1,280.864,197.7v19.192A24.429,24.429,0,0,1,256.505,241.252Z" transform="translate(-227.671 -156.03)" fill="#34dce7"/>
                <path id="Trazado_1065385" data-name="Trazado 1065385" d="M235.782,202.843v5.934l2.994-3,2.476,2.476,2.355-2.357,2.184,2.184V201.26l-.769,4.172-1.4-1.516-2.368,2.722-2.532-2.769-1.823,1.987Z" transform="translate(-226.334 -145.761)" fill="#14afe7"/>
                <path id="Trazado_1065386" data-name="Trazado 1065386" d="M244.161,195.057v7.609L248,198.824,251.175,202l3.022-3.022,2.8,2.8v-8.751l-.986,5.35-1.79-1.942-3.035,3.491-3.249-3.552-2.336,2.55Z" transform="translate(-223.252 -148.79)" fill="#14afe7"/>
                <path id="Trazado_1065387" data-name="Trazado 1065387" d="M258.1,208.02v4.746l2.4-2.4,1.979,1.979,1.885-1.884,1.747,1.747v-5.458l-.615,3.336-1.116-1.212-1.893,2.178-2.026-2.214L259,210.432Z" transform="translate(-218.125 -143.74)" fill="#14afe7"/>
                <path id="Trazado_1065388" data-name="Trazado 1065388" d="M246.2,220.844V227.2l1.778-1.777,1.938,1.938,1.829-1.829,1.885,1.885v-6.572Z" transform="translate(-222.501 -138.558)" fill="#34dce7"/>
                <path id="Trazado_1065389" data-name="Trazado 1065389" d="M250.955,220.5l.93,5.377,1.473-1.473,1.606,1.607,1.516-1.516,1.562,1.562v-5.447Z" transform="translate(-220.753 -138.685)" fill="#34dce7"/>
                <path id="Trazado_1065390" data-name="Trazado 1065390" d="M241.7,220.609v5.266l1.472-1.473,1.607,1.607,1.516-1.516,1.561,1.562.57-5.557Z" transform="translate(-224.156 -138.685)" fill="#34dce7"/>
                <path id="Trazado_1065391" data-name="Trazado 1065391" d="M241.32,180l-5.448-5.447V180H230.74l3.845,3.845H230.74L234.9,188h6.418Z" transform="translate(-228.189 -155.587)" fill="#34dce7"/>
              </g>
              <path id="Trazado_1065392" data-name="Trazado 1065392" d="M209.2,265.461l-2.734,16.983h16.045v-19.1l-11.36-2.373" transform="translate(-202.998 -123.799)" fill="#feb187"/>
              <path id="Trazado_1065393" data-name="Trazado 1065393" d="M219.015,267.711H208.056l.557-3.459Z" transform="translate(-202.412 -122.591)" fill="#dc9266"/>
              <path id="Trazado_1065394" data-name="Trazado 1065394" d="M238.539,232.349c-11.488,5.622-21.709,7.338-34.609,41.575l19.531,6.494S236.32,248.414,238.539,232.349Z" transform="translate(-203.93 -134.326)" fill="#0c2898"/>
              <path id="Trazado_1065395" data-name="Trazado 1065395" d="M294.052,265.461l2.734,16.983H280.742v-19.1l11.36-2.373" transform="translate(-175.676 -123.799)" fill="#feb187"/>
              <path id="Trazado_1065396" data-name="Trazado 1065396" d="M282.869,267.711h10.958l-.557-3.459Z" transform="translate(-174.893 -122.591)" fill="#dc9266"/>
              <path id="Trazado_1065397" data-name="Trazado 1065397" d="M269.7,232.349c11.488,5.622,21.709,7.338,34.609,41.575l-19.531,6.494S271.923,248.414,269.7,232.349Z" transform="translate(-179.736 -134.326)" fill="#0c2898"/>
              <path id="Trazado_1065398" data-name="Trazado 1065398" d="M267.955,346.746H255.348c-21.489,0-34.829-10.177-34.829-33.818l-4.242-46.185a39.186,39.186,0,0,1,39.071-39.071h12.607a39.186,39.186,0,0,1,39.071,39.071l-6.683,43.4C300.343,337.423,289.444,346.746,267.955,346.746Z" transform="translate(-199.388 -136.046)" fill="#224dc2"/>
              <path id="Trazado_1065399" data-name="Trazado 1065399" d="M293.173,234.765c-25.026,3.913-58.359.569-63.84-.027A39.2,39.2,0,0,0,217.4,253.423l3.887.4,15.816,2.23,20.259,3.18,18.692,1.183,21.479-2.366,6.908-6.593A39.287,39.287,0,0,0,293.173,234.765Z" transform="translate(-198.974 -133.447)" fill="#133aaf"/>
            </g>
            <g id="Grupo_1231369" data-name="Grupo 1231369" transform="translate(45.015 224.487)">
              <path id="Trazado_1065400" data-name="Trazado 1065400" d="M228.03,402.838c0,3.473,4.885,2.946,10.91,2.946s10.91.527,10.91-2.946-4.885-6.289-10.91-6.289S228.03,399.365,228.03,402.838Z" transform="translate(-221.072 -298.414)" fill="#224dc2"/>
              <path id="Trazado_1065401" data-name="Trazado 1065401" d="M222.943,324.8,240.6,427.572a18.63,18.63,0,0,0,11.086,0V349.547Z" transform="translate(-222.943 -324.804)" fill="#b7ffe7"/>
              <path id="Trazado_1065402" data-name="Trazado 1065402" d="M250.743,345.3l-.94-1.725-1.038-.149-23.27-2.4,3.431,18.1c2.856.145,15.77-5.811,21.619,9.13l.2-1.035V345.3Z" transform="translate(-222.004 -318.837)" fill="#96d2e7"/>
              <path id="Trazado_1065403" data-name="Trazado 1065403" d="M277.654,402.838c0,3.473-4.885,2.946-10.91,2.946s-10.91.527-10.91-2.946,4.885-6.289,10.91-6.289S277.654,399.365,277.654,402.838Z" transform="translate(-210.844 -298.414)" fill="#224dc2"/>
              <path id="Trazado_1065404" data-name="Trazado 1065404" d="M284.6,324.8,266.949,427.572a18.631,18.631,0,0,1-11.086,0V349.547Z" transform="translate(-210.834 -324.804)" fill="#b7ffe7"/>
              <path id="Trazado_1065405" data-name="Trazado 1065405" d="M255.862,345.3l.94-1.725,1.038-.149,23.27-2.4-3.431,18.1c-2.856.145-15.77-5.811-21.619,9.13l-.2-1.035V345.3Z" transform="translate(-210.835 -318.837)" fill="#96d2e7"/>
            </g>
            <g id="Grupo_1231398" data-name="Grupo 1231398" transform="translate(0 106.31)">
              <path id="Trazado_1065406" data-name="Trazado 1065406" d="M253.445,341.611v66.356a1.933,1.933,0,0,1-1.927,1.927h-1.744a1.933,1.933,0,0,1-1.927-1.927V341.611a1.933,1.933,0,0,1,1.927-1.927h1.744A1.935,1.935,0,0,1,253.445,341.611Z" transform="translate(-168.767 -201.154)" fill="#2273db"/>
              <path id="Trazado_1065407" data-name="Trazado 1065407" d="M252.362,372.328h0a9.207,9.207,0,0,1-9.18-9.18v-15.7a9.207,9.207,0,0,1,9.18-9.18h1.819a7.381,7.381,0,0,1,7.36,7.36v17.517A9.206,9.206,0,0,1,252.362,372.328Z" transform="translate(-170.483 -201.673)" fill="#22a4fd"/>
              <path id="Trazado_1065408" data-name="Trazado 1065408" d="M261.53,347.451a22.61,22.61,0,0,0-18.317,0v-6.533a22.61,22.61,0,0,1,18.317,0Z" transform="translate(-170.471 -201.412)" fill="#224dc2" opacity="0.65"/>
              <g id="Grupo_1231375" data-name="Grupo 1231375" transform="translate(0 59.932)">
                <g id="Grupo_1231370" data-name="Grupo 1231370" transform="translate(0 3.134)">
                  <path id="Trazado_1065409" data-name="Trazado 1065409" d="M229.889,340.918H218.235a28.2,28.2,0,0,1-1.529-56.364,3.265,3.265,0,0,1,.509-.041h1.02a3.145,3.145,0,0,1,0,6.289,21.912,21.912,0,1,0,0,43.824h11.654a3.146,3.146,0,0,1,0,6.292Z" transform="translate(-190.033 -284.513)" fill="#224dc2"/>
                </g>
                <g id="Grupo_1231374" data-name="Grupo 1231374" transform="translate(15.768)">
                  <g id="Grupo_1231373" data-name="Grupo 1231373">
                    <g id="Grupo_1231371" data-name="Grupo 1231371" transform="translate(0.001)">
                      <path id="Trazado_1065410" data-name="Trazado 1065410" d="M216.964,292.735H206.819a5.271,5.271,0,0,1-5.257-5.257h0a5.271,5.271,0,0,1,5.257-5.257h10.145a5.271,5.271,0,0,1,5.257,5.257h0A5.271,5.271,0,0,1,216.964,292.735Z" transform="translate(-201.562 -282.222)" fill="#34dce7"/>
                    </g>
                    <g id="Grupo_1231372" data-name="Grupo 1231372">
                      <path id="Trazado_1065411" data-name="Trazado 1065411" d="M206.819,282.827h10.145a5.257,5.257,0,0,1,5.225,4.954c.005-.1.03-.2.03-.3a5.271,5.271,0,0,0-5.257-5.257H206.818a5.272,5.272,0,0,0-5.257,5.257c0,.1.025.2.03.3A5.262,5.262,0,0,1,206.819,282.827Z" transform="translate(-201.561 -282.222)" fill="#52fffd"/>
                    </g>
                  </g>
                </g>
              </g>
              <g id="Grupo_1231381" data-name="Grupo 1231381" transform="translate(119.404 59.932)">
                <g id="Grupo_1231376" data-name="Grupo 1231376" transform="translate(0 3.134)">
                  <path id="Trazado_1065412" data-name="Trazado 1065412" d="M280.472,340.918h11.654a28.2,28.2,0,0,0,1.529-56.364,3.266,3.266,0,0,0-.509-.041h-1.02a3.145,3.145,0,1,0,0,6.289,21.912,21.912,0,1,1,0,43.824H280.472a3.146,3.146,0,0,0,0,6.292Z" transform="translate(-277.327 -284.513)" fill="#224dc2"/>
                </g>
                <g id="Grupo_1231380" data-name="Grupo 1231380" transform="translate(6.572)">
                  <g id="Grupo_1231379" data-name="Grupo 1231379">
                    <g id="Grupo_1231377" data-name="Grupo 1231377">
                      <path id="Trazado_1065413" data-name="Trazado 1065413" d="M287.389,292.735h10.145a5.271,5.271,0,0,0,5.257-5.257h0a5.271,5.271,0,0,0-5.257-5.257H287.389a5.271,5.271,0,0,0-5.257,5.257h0A5.271,5.271,0,0,0,287.389,292.735Z" transform="translate(-282.132 -282.222)" fill="#34dce7"/>
                    </g>
                    <g id="Grupo_1231378" data-name="Grupo 1231378" transform="translate(0.001)">
                      <path id="Trazado_1065414" data-name="Trazado 1065414" d="M297.533,282.827H287.388a5.258,5.258,0,0,0-5.225,4.954c-.005-.1-.03-.2-.03-.3a5.271,5.271,0,0,1,5.257-5.257h10.145a5.272,5.272,0,0,1,5.257,5.257c0,.1-.025.2-.03.3A5.262,5.262,0,0,0,297.533,282.827Z" transform="translate(-282.133 -282.222)" fill="#52fffd"/>
                    </g>
                  </g>
                </g>
              </g>
              <path id="Trazado_1065415" data-name="Trazado 1065415" d="M311.04,344.543H220.022A12.679,12.679,0,0,1,207.38,331.9h0a12.679,12.679,0,0,1,12.642-12.642H311.04A12.679,12.679,0,0,1,323.682,331.9h0A12.679,12.679,0,0,1,311.04,344.543Z" transform="translate(-183.652 -208.666)" fill="#34dce7"/>
              <path id="Trazado_1065416" data-name="Trazado 1065416" d="M220.022,320.445H311.04a12.67,12.67,0,0,1,12.611,12.049c.01-.2.03-.393.03-.592A12.679,12.679,0,0,0,311.04,319.26H220.022A12.679,12.679,0,0,0,207.38,331.9c0,.2.021.394.03.592A12.67,12.67,0,0,1,220.022,320.445Z" transform="translate(-183.652 -208.666)" fill="#70ffe7"/>
              <path id="Trazado_1065417" data-name="Trazado 1065417" d="M278.013,337.683H245.178a23.911,23.911,0,0,1-23.841-23.841l-5.961-51.593a23.911,23.911,0,0,1,23.841-23.841h46.743A23.911,23.911,0,0,1,309.8,262.248l-7.947,51.593A23.911,23.911,0,0,1,278.013,337.683Z" transform="translate(-180.711 -238.407)" fill="#34dce7"/>
              <path id="Trazado_1065418" data-name="Trazado 1065418" d="M239.218,239.41h46.743a23.9,23.9,0,0,1,23.806,23.141l.036-.3a23.911,23.911,0,0,0-23.841-23.841H239.218a23.911,23.911,0,0,0-23.841,23.841l.033.367A23.9,23.9,0,0,1,239.218,239.41Z" transform="translate(-180.711 -238.407)" fill="#52fffd"/>
              <path id="Trazado_1065419" data-name="Trazado 1065419" d="M302.347,344.234H222.042a5.609,5.609,0,0,1-5.592-5.592h0a5.609,5.609,0,0,1,5.592-5.592h80.306a5.609,5.609,0,0,1,5.592,5.592h0A5.609,5.609,0,0,1,302.347,344.234Z" transform="translate(-180.316 -203.593)" fill="#224dc2"/>
              <path id="Trazado_1065420" data-name="Trazado 1065420" d="M276.936,352.268H235.943a3.86,3.86,0,0,1-3.849-3.849v-3.484a3.86,3.86,0,0,1,3.849-3.849h40.993a3.86,3.86,0,0,1,3.849,3.849v3.484A3.859,3.859,0,0,1,276.936,352.268Z" transform="translate(-174.561 -200.638)" fill="#224dc2"/>
              <path id="Trazado_1065421" data-name="Trazado 1065421" d="M222.042,333.408h80.306a5.6,5.6,0,0,1,5.574,5.413c0-.06.018-.118.018-.178a5.609,5.609,0,0,0-5.592-5.592H222.042a5.609,5.609,0,0,0-5.592,5.592c0,.062.016.118.018.178A5.6,5.6,0,0,1,222.042,333.408Z" transform="translate(-180.316 -203.593)" fill="#2293f0"/>
              <path id="Trazado_1065422" data-name="Trazado 1065422" d="M295.421,344.948H224.849a2.807,2.807,0,0,1-2.8-2.8h0a2.807,2.807,0,0,1,2.8-2.8h70.572a2.807,2.807,0,0,1,2.8,2.8h0A2.807,2.807,0,0,1,295.421,344.948Z" transform="translate(-178.256 -201.276)" fill="#2273db"/>
              <path id="Trazado_1065423" data-name="Trazado 1065423" d="M224.849,339.532h70.572a2.8,2.8,0,0,1,2.789,2.708c0-.032.01-.06.01-.09a2.807,2.807,0,0,0-2.8-2.8H224.849a2.807,2.807,0,0,0-2.8,2.8c0,.031.008.06.01.09A2.8,2.8,0,0,1,224.849,339.532Z" transform="translate(-178.256 -201.276)" fill="#22b2ff"/>
              <path id="Trazado_1065424" data-name="Trazado 1065424" d="M246.171,397.9v-8.693a5.106,5.106,0,0,1,5.091-5.091h0a5.106,5.106,0,0,1,5.091,5.091V397.9" transform="translate(-169.383 -184.811)" fill="#22a4fd"/>
              <g id="Grupo_1231382" data-name="Grupo 1231382" transform="translate(41.818 210.131)">
                <path id="Trazado_1065425" data-name="Trazado 1065425" d="M222.594,404.419a1.987,1.987,0,0,1-.819-3.8,97,97,0,0,1,79.826,0,1.986,1.986,0,1,1-1.635,3.621,93.06,93.06,0,0,0-76.555,0A1.972,1.972,0,0,1,222.594,404.419Z" transform="translate(-220.605 -392.03)" fill="#2273db"/>
              </g>
              <path id="Trazado_1065426" data-name="Trazado 1065426" d="M259.062,397.592H246.028a2.271,2.271,0,0,1-2.264-2.264v-2.049a2.271,2.271,0,0,1,2.264-2.264h13.034a2.271,2.271,0,0,1,2.264,2.264v2.049A2.269,2.269,0,0,1,259.062,397.592Z" transform="translate(-170.269 -182.272)" fill="#224dc2"/>
              <path id="Trazado_1065427" data-name="Trazado 1065427" d="M250.557,411.054h0a1.4,1.4,0,0,1-1.4-1.4v-14.84a1.4,1.4,0,0,1,1.4-1.4h0a1.4,1.4,0,0,1,1.4,1.4v14.838A1.4,1.4,0,0,1,250.557,411.054Z" transform="translate(-168.284 -181.388)" fill="#2273db"/>
              <path id="Trazado_1065428" data-name="Trazado 1065428" d="M251.2,416.863h0a3.8,3.8,0,0,1-3.792-3.792V405.9a3.8,3.8,0,0,1,3.792-3.792h0A3.8,3.8,0,0,1,255,405.9v7.167A3.8,3.8,0,0,1,251.2,416.863Z" transform="translate(-168.927 -178.19)" fill="#34dce7"/>
              <g id="Grupo_1231383" data-name="Grupo 1231383" transform="translate(118.27 217.598)">
                <circle id="Elipse_13896" data-name="Elipse 13896" cx="7.157" cy="7.157" r="7.157" transform="translate(0 0.001)" fill="#34dce7"/>
                <path id="Trazado_1065429" data-name="Trazado 1065429" d="M283.654,397.672a7.15,7.15,0,0,1,7.147,7.065c0-.031.01-.06.01-.092a7.157,7.157,0,1,0-14.313,0c0,.031.008.06.01.092A7.151,7.151,0,0,1,283.654,397.672Z" transform="translate(-276.498 -397.489)" fill="#7ff"/>
                <circle id="Elipse_13897" data-name="Elipse 13897" cx="4.268" cy="4.268" r="4.268" transform="translate(2.889 2.89)" fill="#27b0d7"/>
                <circle id="Elipse_13898" data-name="Elipse 13898" cx="1.714" cy="1.714" r="1.714" transform="translate(5.443 5.444)" fill="#2273db"/>
                <path id="Trazado_1065430" data-name="Trazado 1065430" d="M282.191,401.561a1.709,1.709,0,0,1,1.7,1.667c0-.016.01-.029.01-.045a1.714,1.714,0,0,0-3.428,0,.452.452,0,0,0,.009.045A1.709,1.709,0,0,1,282.191,401.561Z" transform="translate(-275.034 -396.025)" fill="#5fffff"/>
              </g>
              <g id="Grupo_1231384" data-name="Grupo 1231384" transform="translate(34.661 217.598)">
                <circle id="Elipse_13899" data-name="Elipse 13899" cx="7.157" cy="7.157" r="7.157" transform="translate(0 0.001)" fill="#34dce7"/>
                <path id="Trazado_1065431" data-name="Trazado 1065431" d="M222.53,397.672a7.15,7.15,0,0,1,7.147,7.065c0-.031.01-.06.01-.092a7.157,7.157,0,1,0-14.313,0c0,.031.008.06.01.092A7.151,7.151,0,0,1,222.53,397.672Z" transform="translate(-215.373 -397.489)" fill="#7ff"/>
                <circle id="Elipse_13900" data-name="Elipse 13900" cx="4.268" cy="4.268" r="4.268" transform="translate(2.889 2.89)" fill="#27b0d7"/>
                <circle id="Elipse_13901" data-name="Elipse 13901" cx="1.714" cy="1.714" r="1.714" transform="translate(5.443 5.444)" fill="#2273db"/>
                <path id="Trazado_1065432" data-name="Trazado 1065432" d="M221.066,401.561a1.709,1.709,0,0,1,1.7,1.667c0-.016.01-.029.01-.045a1.714,1.714,0,0,0-3.428,0,.428.428,0,0,0,.01.045A1.709,1.709,0,0,1,221.066,401.561Z" transform="translate(-213.909 -396.025)" fill="#5fffff"/>
              </g>
              <path id="Trazado_1065433" data-name="Trazado 1065433" d="M269.111,285.725H243.769A11.709,11.709,0,0,1,232.1,274.051h0a11.709,11.709,0,0,1,11.674-11.674h25.342a11.709,11.709,0,0,1,11.674,11.674h0A11.709,11.709,0,0,1,269.111,285.725Z" transform="translate(-174.561 -229.59)" fill="#224dc2"/>
              <path id="Trazado_1065434" data-name="Trazado 1065434" d="M269.111,262.376H243.769A11.709,11.709,0,0,0,232.1,274.051h0c0,.066.008.129.01.193a11.7,11.7,0,0,1,11.665-11.482h25.342a11.7,11.7,0,0,1,11.665,11.482c0-.064.01-.129.01-.193h0A11.709,11.709,0,0,0,269.111,262.376Z" transform="translate(-174.561 -229.59)" fill="#226ee5"/>
              <path id="Trazado_1065435" data-name="Trazado 1065435" d="M253.109,362.266h-3.452a3.826,3.826,0,0,1-3.815-3.815V272.645a3.826,3.826,0,0,1,3.815-3.815h3.452a3.826,3.826,0,0,1,3.815,3.815v85.806A3.826,3.826,0,0,1,253.109,362.266Z" transform="translate(-169.504 -227.216)" fill="#111f9a"/>
              <g id="Grupo_1231385" data-name="Grupo 1231385" transform="translate(77.525 47.437)">
                <path id="Trazado_1065436" data-name="Trazado 1065436" d="M254.631,275.494H247.5a.789.789,0,0,1-.787-.786v-.833a.789.789,0,0,1,.787-.787h7.135a.789.789,0,0,1,.787.787v.833A.79.79,0,0,1,254.631,275.494Z" transform="translate(-246.71 -273.087)" fill="#1159c9"/>
                <path id="Trazado_1065437" data-name="Trazado 1065437" d="M254.631,275.371H247.5a.789.789,0,0,1-.787-.787v-.711a.789.789,0,0,1,.787-.787h7.135a.789.789,0,0,1,.787.787v.711A.789.789,0,0,1,254.631,275.371Z" transform="translate(-246.71 -273.087)" fill="#111b54"/>
              </g>
              <g id="Grupo_1231386" data-name="Grupo 1231386" transform="translate(77.525 54.06)">
                <path id="Trazado_1065438" data-name="Trazado 1065438" d="M254.631,280.335H247.5a.789.789,0,0,1-.787-.786v-.833a.789.789,0,0,1,.787-.787h7.135a.789.789,0,0,1,.787.787v.833A.789.789,0,0,1,254.631,280.335Z" transform="translate(-246.71 -277.929)" fill="#1159c9"/>
                <path id="Trazado_1065439" data-name="Trazado 1065439" d="M254.631,280.213H247.5a.789.789,0,0,1-.787-.787v-.711a.789.789,0,0,1,.787-.787h7.135a.789.789,0,0,1,.787.787v.711A.79.79,0,0,1,254.631,280.213Z" transform="translate(-246.71 -277.929)" fill="#111b54"/>
              </g>
              <g id="Grupo_1231387" data-name="Grupo 1231387" transform="translate(77.525 60.35)">
                <path id="Trazado_1065440" data-name="Trazado 1065440" d="M254.631,284.935H247.5a.789.789,0,0,1-.787-.787v-.833a.789.789,0,0,1,.787-.787h7.135a.789.789,0,0,1,.787.787v.833A.79.79,0,0,1,254.631,284.935Z" transform="translate(-246.71 -282.528)" fill="#1159c9"/>
                <path id="Trazado_1065441" data-name="Trazado 1065441" d="M254.631,284.812H247.5a.789.789,0,0,1-.787-.787v-.711a.789.789,0,0,1,.787-.786h7.135a.789.789,0,0,1,.787.786v.711A.789.789,0,0,1,254.631,284.812Z" transform="translate(-246.71 -282.528)" fill="#111b54"/>
              </g>
              <g id="Grupo_1231388" data-name="Grupo 1231388" transform="translate(77.525 66.642)">
                <path id="Trazado_1065442" data-name="Trazado 1065442" d="M254.631,289.534H247.5a.789.789,0,0,1-.787-.786v-.833a.789.789,0,0,1,.787-.787h7.135a.789.789,0,0,1,.787.787v.833A.789.789,0,0,1,254.631,289.534Z" transform="translate(-246.71 -287.128)" fill="#1159c9"/>
                <path id="Trazado_1065443" data-name="Trazado 1065443" d="M254.631,289.412H247.5a.789.789,0,0,1-.787-.786v-.711a.789.789,0,0,1,.787-.786h7.135a.789.789,0,0,1,.787.786v.711A.79.79,0,0,1,254.631,289.412Z" transform="translate(-246.71 -287.128)" fill="#111b54"/>
              </g>
              <g id="Grupo_1231389" data-name="Grupo 1231389" transform="translate(77.525 72.933)">
                <path id="Trazado_1065444" data-name="Trazado 1065444" d="M254.631,294.134H247.5a.789.789,0,0,1-.787-.786v-.833a.789.789,0,0,1,.787-.787h7.135a.789.789,0,0,1,.787.787v.833A.79.79,0,0,1,254.631,294.134Z" transform="translate(-246.71 -291.727)" fill="#1159c9"/>
                <path id="Trazado_1065445" data-name="Trazado 1065445" d="M254.631,294.011H247.5a.789.789,0,0,1-.787-.787v-.711a.789.789,0,0,1,.787-.787h7.135a.789.789,0,0,1,.787.787v.711A.789.789,0,0,1,254.631,294.011Z" transform="translate(-246.71 -291.727)" fill="#111b54"/>
              </g>
              <g id="Grupo_1231390" data-name="Grupo 1231390" transform="translate(77.525 79.225)">
                <path id="Trazado_1065446" data-name="Trazado 1065446" d="M254.631,298.733H247.5a.789.789,0,0,1-.787-.787v-.833a.789.789,0,0,1,.787-.786h7.135a.789.789,0,0,1,.787.786v.833A.789.789,0,0,1,254.631,298.733Z" transform="translate(-246.71 -296.327)" fill="#1159c9"/>
                <path id="Trazado_1065447" data-name="Trazado 1065447" d="M254.631,298.611H247.5a.789.789,0,0,1-.787-.787v-.711a.789.789,0,0,1,.787-.787h7.135a.789.789,0,0,1,.787.787v.711A.79.79,0,0,1,254.631,298.611Z" transform="translate(-246.71 -296.327)" fill="#111b54"/>
              </g>
              <g id="Grupo_1231391" data-name="Grupo 1231391" transform="translate(77.525 85.516)">
                <path id="Trazado_1065448" data-name="Trazado 1065448" d="M254.631,303.333H247.5a.789.789,0,0,1-.787-.787v-.833a.789.789,0,0,1,.787-.786h7.135a.789.789,0,0,1,.787.786v.833A.79.79,0,0,1,254.631,303.333Z" transform="translate(-246.71 -300.926)" fill="#1159c9"/>
                <path id="Trazado_1065449" data-name="Trazado 1065449" d="M254.631,303.21H247.5a.789.789,0,0,1-.787-.787v-.711a.789.789,0,0,1,.787-.786h7.135a.789.789,0,0,1,.787.786v.711A.789.789,0,0,1,254.631,303.21Z" transform="translate(-246.71 -300.926)" fill="#111b54"/>
              </g>
              <g id="Grupo_1231392" data-name="Grupo 1231392" transform="translate(77.525 91.808)">
                <path id="Trazado_1065450" data-name="Trazado 1065450" d="M254.631,307.932H247.5a.789.789,0,0,1-.787-.787v-.833a.789.789,0,0,1,.787-.786h7.135a.789.789,0,0,1,.787.786v.833A.79.79,0,0,1,254.631,307.932Z" transform="translate(-246.71 -305.526)" fill="#1159c9"/>
                <path id="Trazado_1065451" data-name="Trazado 1065451" d="M254.631,307.81H247.5a.789.789,0,0,1-.787-.787v-.711a.789.789,0,0,1,.787-.787h7.135a.789.789,0,0,1,.787.787v.711A.79.79,0,0,1,254.631,307.81Z" transform="translate(-246.71 -305.526)" fill="#111b54"/>
              </g>
              <g id="Grupo_1231393" data-name="Grupo 1231393" transform="translate(77.525 98.099)">
                <path id="Trazado_1065452" data-name="Trazado 1065452" d="M254.631,312.532H247.5a.789.789,0,0,1-.787-.787v-.834a.789.789,0,0,1,.787-.787h7.135a.789.789,0,0,1,.787.787v.833A.791.791,0,0,1,254.631,312.532Z" transform="translate(-246.71 -310.125)" fill="#1159c9"/>
                <path id="Trazado_1065453" data-name="Trazado 1065453" d="M254.631,312.409H247.5a.789.789,0,0,1-.787-.786v-.711a.789.789,0,0,1,.787-.787h7.135a.789.789,0,0,1,.787.787v.711A.789.789,0,0,1,254.631,312.409Z" transform="translate(-246.71 -310.125)" fill="#111b54"/>
              </g>
              <g id="Grupo_1231394" data-name="Grupo 1231394" transform="translate(77.525 104.391)">
                <path id="Trazado_1065454" data-name="Trazado 1065454" d="M254.631,317.131H247.5a.789.789,0,0,1-.787-.787v-.833a.789.789,0,0,1,.787-.786h7.135a.789.789,0,0,1,.787.786v.833A.79.79,0,0,1,254.631,317.131Z" transform="translate(-246.71 -314.725)" fill="#1159c9"/>
                <path id="Trazado_1065455" data-name="Trazado 1065455" d="M254.631,317.009H247.5a.789.789,0,0,1-.787-.787v-.711a.789.789,0,0,1,.787-.786h7.135a.789.789,0,0,1,.787.786v.711A.79.79,0,0,1,254.631,317.009Z" transform="translate(-246.71 -314.725)" fill="#111b54"/>
              </g>
              <g id="Grupo_1231395" data-name="Grupo 1231395" transform="translate(77.525 110.681)">
                <path id="Trazado_1065456" data-name="Trazado 1065456" d="M254.631,321.731H247.5a.789.789,0,0,1-.787-.787v-.833a.789.789,0,0,1,.787-.787h7.135a.789.789,0,0,1,.787.787v.833A.79.79,0,0,1,254.631,321.731Z" transform="translate(-246.71 -319.324)" fill="#1159c9"/>
                <path id="Trazado_1065457" data-name="Trazado 1065457" d="M254.631,321.608H247.5a.789.789,0,0,1-.787-.787v-.711a.789.789,0,0,1,.787-.787h7.135a.789.789,0,0,1,.787.787v.711A.789.789,0,0,1,254.631,321.608Z" transform="translate(-246.71 -319.324)" fill="#111b54"/>
              </g>
              <g id="Grupo_1231396" data-name="Grupo 1231396" transform="translate(77.525 116.973)">
                <path id="Trazado_1065458" data-name="Trazado 1065458" d="M254.631,326.33H247.5a.789.789,0,0,1-.787-.787v-.833a.789.789,0,0,1,.787-.786h7.135a.789.789,0,0,1,.787.786v.833A.79.79,0,0,1,254.631,326.33Z" transform="translate(-246.71 -323.924)" fill="#1159c9"/>
                <path id="Trazado_1065459" data-name="Trazado 1065459" d="M254.631,326.208H247.5a.789.789,0,0,1-.787-.787v-.711a.789.789,0,0,1,.787-.786h7.135a.789.789,0,0,1,.787.786v.711A.79.79,0,0,1,254.631,326.208Z" transform="translate(-246.71 -323.924)" fill="#111b54"/>
              </g>
              <g id="Grupo_1231397" data-name="Grupo 1231397" transform="translate(77.525 123.264)">
                <path id="Trazado_1065460" data-name="Trazado 1065460" d="M254.631,330.93H247.5a.789.789,0,0,1-.787-.787v-.833a.789.789,0,0,1,.787-.787h7.135a.789.789,0,0,1,.787.787v.833A.79.79,0,0,1,254.631,330.93Z" transform="translate(-246.71 -328.523)" fill="#1159c9"/>
                <path id="Trazado_1065461" data-name="Trazado 1065461" d="M254.631,330.807H247.5a.789.789,0,0,1-.787-.787v-.711a.789.789,0,0,1,.787-.787h7.135a.789.789,0,0,1,.787.787v.711A.789.789,0,0,1,254.631,330.807Z" transform="translate(-246.71 -328.523)" fill="#111b54"/>
              </g>
            </g>
          </g>
          <g id="Grupo_1231401" data-name="Grupo 1231401" transform="translate(329.171 355.201)">
            <g id="Grupo_1231400" data-name="Grupo 1231400" transform="translate(14.876 2.667)">
              <path id="Trazado_1065462" data-name="Trazado 1065462" d="M335.653,272.5a6.5,6.5,0,1,1,6.5-6.5A6.51,6.51,0,0,1,335.653,272.5Zm0-11.078A4.576,4.576,0,1,0,340.229,266,4.581,4.581,0,0,0,335.653,261.42Z" transform="translate(-329.151 -259.494)" fill="#34c6e7"/>
            </g>
            <path id="Trazado_1065463" data-name="Trazado 1065463" d="M338.935,257.447v13.065a10.576,10.576,0,0,1-10.545,10.545h0a10.576,10.576,0,0,1-10.545-10.545V257.447Z" transform="translate(-317.7 -257.447)" fill="#34dce7"/>
            <path id="Trazado_1065464" data-name="Trazado 1065464" d="M337.938,277.337h-19.03a1.178,1.178,0,0,1-1.174-1.174v-.526a1.176,1.176,0,0,1,1.174-1.173h19.03a1.176,1.176,0,0,1,1.173,1.173v.526A1.175,1.175,0,0,1,337.938,277.337Z" transform="translate(-317.734 -252.291)" fill="#34c6e7"/>
          </g>
          <g id="Grupo_1231404" data-name="Grupo 1231404" transform="translate(26.907 30)">
            <g id="Grupo_1231402" data-name="Grupo 1231402">
              <path id="Trazado_1065465" data-name="Trazado 1065465" d="M229.981,111.729H90.378l-.128-.629a15.686,15.686,0,0,1,24.541-15.874,39.913,39.913,0,0,1,76.48-6.189,23.486,23.486,0,0,1,39.313,17.359,23.678,23.678,0,0,1-.473,4.705Zm-138.3-1.571h137.01a22.224,22.224,0,0,0,.323-3.763A21.912,21.912,0,0,0,191.5,91l-.893.9-.41-1.2a38.339,38.339,0,0,0-74.091,6.08l-.229,1.376-1.058-.908a14.112,14.112,0,0,0-23.312,10.712A14.322,14.322,0,0,0,91.677,110.158Z" transform="translate(-89.935 -63.191)" fill="#dcb9fc"/>
            </g>
            <g id="Grupo_1231403" data-name="Grupo 1231403" transform="translate(49.962 12.173)">
              <path id="Trazado_1065466" data-name="Trazado 1065466" d="M150.072,101.495H137.414a3.021,3.021,0,0,1-3.018-3.016V90.733h-3.341a2.769,2.769,0,0,1-1.958-4.727l12.687-12.687a2.835,2.835,0,0,1,3.917,0l12.687,12.687a2.769,2.769,0,0,1-1.958,4.727h-3.341v7.745A3.022,3.022,0,0,1,150.072,101.495Zm-6.329-27.417a1.186,1.186,0,0,0-.847.352L130.209,87.117a1.2,1.2,0,0,0,.846,2.044h4.914v9.316a1.448,1.448,0,0,0,1.445,1.445H150.07a1.447,1.447,0,0,0,1.445-1.445V89.162h4.914a1.2,1.2,0,0,0,.847-2.044L144.589,74.43A1.186,1.186,0,0,0,143.743,74.078Z" transform="translate(-128.279 -72.533)" fill="#dcb9fc"/>
            </g>
          </g>
          <g id="Grupo_1231410" data-name="Grupo 1231410" transform="translate(252.267 447.786)">
            <g id="Grupo_1231408" data-name="Grupo 1231408">
              <path id="Trazado_1065469" data-name="Trazado 1065469" d="M475.036,344.125H328.345l-.134-.66A16.481,16.481,0,0,1,354,326.785a41.939,41.939,0,0,1,80.361-6.5,24.679,24.679,0,0,1,41.308,18.24,24.862,24.862,0,0,1-.5,4.944ZM329.71,342.474H473.676a23.35,23.35,0,0,0,.34-3.953A23.025,23.025,0,0,0,434.6,322.34l-.939.948-.432-1.262a40.286,40.286,0,0,0-77.854,6.39l-.24,1.446-1.112-.954a14.835,14.835,0,0,0-24.315,13.565Z" transform="translate(-327.878 -293.125)" fill="#dcb9fc"/>
            </g>
            <g id="Grupo_1231409" data-name="Grupo 1231409" transform="translate(52.501 12.788)">
              <path id="Trazado_1065470" data-name="Trazado 1065470" d="M378.119,330.217h-13.3a3.173,3.173,0,0,1-3.17-3.17V318.91h-3.51a2.911,2.911,0,0,1-2.056-4.969l13.331-13.331a2.98,2.98,0,0,1,4.117,0l13.333,13.331a2.912,2.912,0,0,1-2.058,4.969h-3.51v8.137A3.181,3.181,0,0,1,378.119,330.217Zm-6.649-28.808a1.252,1.252,0,0,0-.891.369l-13.331,13.331a1.259,1.259,0,0,0,.891,2.148H363.3v9.79a1.521,1.521,0,0,0,1.519,1.519h13.3a1.521,1.521,0,0,0,1.519-1.519v-9.79H384.8a1.26,1.26,0,0,0,.891-2.15L372.36,301.776A1.273,1.273,0,0,0,371.469,301.409Z" transform="translate(-355.222 -299.785)" fill="#dcb9fc"/>
            </g>
          </g>
          <rect id="Rectángulo_424535" data-name="Rectángulo 424535" width="194.463" height="0.945" transform="translate(0 137.152)" fill="#34dce7" opacity="0.3"/>
          <g id="Grupo_1231411" data-name="Grupo 1231411" transform="translate(10.341 106.079)">
            <path id="Trazado_1065471" data-name="Trazado 1065471" d="M249.776,208.748H74.9a9.794,9.794,0,0,1-9.795-9.795V90.1H259.571V198.952A9.8,9.8,0,0,1,249.776,208.748Z" transform="translate(-65.109 -90.104)" fill="#34dce7" opacity="0.3"/>
            <rect id="Rectángulo_424536" data-name="Rectángulo 424536" width="103.551" height="37.171" transform="translate(17.381 24.936)" fill="#34dce7" opacity="0.3"/>
            <rect id="Rectángulo_424537" data-name="Rectángulo 424537" width="36.411" height="11.532" transform="translate(17.381 69.034)" fill="#34dce7" opacity="0.3"/>
            <rect id="Rectángulo_424538" data-name="Rectángulo 424538" width="61.674" height="11.532" transform="translate(59.257 69.034)" fill="#34dce7" opacity="0.3"/>
            <rect id="Rectángulo_424539" data-name="Rectángulo 424539" width="56.369" height="16.092" transform="translate(127.8 24.936)" fill="#34dce7" opacity="0.3"/>
            <rect id="Rectángulo_424540" data-name="Rectángulo 424540" width="166.788" height="16.092" transform="translate(17.381 87.494)" fill="#34dce7" opacity="0.3"/>
            <rect id="Rectángulo_424541" data-name="Rectángulo 424541" width="56.369" height="36.617" transform="translate(127.8 45.232)" fill="#34dce7" opacity="0.3"/>
            <rect id="Rectángulo_424542" data-name="Rectángulo 424542" width="194.463" height="19.399" fill="#34dce7" opacity="0.3"/>
            <circle id="Elipse_13902" data-name="Elipse 13902" cx="4.024" cy="4.024" r="4.024" transform="translate(3.788 5.187)" fill="#34dce7" opacity="0.3"/>
            <path id="Trazado_1065472" data-name="Trazado 1065472" d="M72.04,101.187A4.021,4.021,0,0,1,68.02,97.2c0,.014,0,.027,0,.042a4.024,4.024,0,1,0,8.047,0c0-.014,0-.027,0-.042A4.023,4.023,0,0,1,72.04,101.187Z" transform="translate(-64.228 -87.953)" fill="#34dce7"/>
            <circle id="Elipse_13903" data-name="Elipse 13903" cx="4.024" cy="4.024" r="4.024" transform="translate(13.357 5.187)" fill="#34dce7" opacity="0.3"/>
            <path id="Trazado_1065473" data-name="Trazado 1065473" d="M79.384,101.187a4.021,4.021,0,0,1-4.02-3.983c0,.014,0,.027,0,.042a4.024,4.024,0,1,0,8.047,0c0-.014,0-.027,0-.042A4.022,4.022,0,0,1,79.384,101.187Z" transform="translate(-62.003 -87.953)" fill="#34dce7"/>
            <circle id="Elipse_13904" data-name="Elipse 13904" cx="4.024" cy="4.024" r="4.024" transform="translate(22.852 5.187)" fill="#34dce7" opacity="0.3"/>
            <path id="Trazado_1065474" data-name="Trazado 1065474" d="M86.671,101.187a4.021,4.021,0,0,1-4.02-3.983c0,.014,0,.027,0,.042a4.024,4.024,0,1,0,8.047,0c0-.014,0-.027,0-.042A4.021,4.021,0,0,1,86.671,101.187Z" transform="translate(-59.795 -87.953)" fill="#34dce7"/>
            <rect id="Rectángulo_424543" data-name="Rectángulo 424543" width="194.463" height="0.374" transform="translate(0 19.025)" fill="#34dce7" opacity="0.66"/>
            <circle id="Elipse_13905" data-name="Elipse 13905" cx="3.19" cy="3.19" r="3.19" transform="translate(4.622 6.021)" fill="#34dce7"/>
            <circle id="Elipse_13906" data-name="Elipse 13906" cx="3.19" cy="3.19" r="3.19" transform="translate(14.191 6.021)" fill="#dbff0e"/>
            <circle id="Elipse_13907" data-name="Elipse 13907" cx="3.19" cy="3.19" r="3.19" transform="translate(23.686 6.021)" fill="#ff2995"/>
            <path id="Trazado_1065475" data-name="Trazado 1065475" d="M71.846,195.921h0a3.2,3.2,0,0,1-3.19-3.19V110.31a3.2,3.2,0,0,1,3.19-3.19h0a3.2,3.2,0,0,1,3.19,3.19v82.421A3.2,3.2,0,0,1,71.846,195.921Z" transform="translate(-64.034 -84.948)" fill="#34dce7" opacity="0.3"/>
            <path id="Trazado_1065476" data-name="Trazado 1065476" d="M71.227,132.543h0a1.278,1.278,0,0,1-1.274-1.274V110.515a1.278,1.278,0,0,1,1.274-1.274h0a1.278,1.278,0,0,1,1.274,1.274v20.753A1.279,1.279,0,0,1,71.227,132.543Z" transform="translate(-63.641 -84.305)" fill="#34dce7"/>
            <line id="Línea_4218" data-name="Línea 4218" x2="43.604" transform="translate(21.404 30.248)" fill="none" stroke="#34fbe7" stroke-linecap="round" stroke-linejoin="round" stroke-miterlimit="10" stroke-width="1"/>
            <line id="Línea_4219" data-name="Línea 4219" x2="7.091" transform="translate(69.156 30.248)" fill="none" stroke="#34fbe7" stroke-linecap="round" stroke-linejoin="round" stroke-miterlimit="10" stroke-width="1"/>
            <line id="Línea_4220" data-name="Línea 4220" x2="30.946" transform="translate(84.065 30.248)" fill="none" stroke="#34fbe7" stroke-linecap="round" stroke-linejoin="round" stroke-miterlimit="10" stroke-width="1"/>
            <line id="Línea_4221" data-name="Línea 4221" x2="52.725" transform="translate(21.404 34.72)" fill="none" stroke="#34fbe7" stroke-linecap="round" stroke-linejoin="round" stroke-miterlimit="10" stroke-width="1"/>
            <line id="Línea_4222" data-name="Línea 4222" x2="21.433" transform="translate(79.341 33.905)" fill="none" stroke="#34fbe7" stroke-linecap="round" stroke-linejoin="round" stroke-miterlimit="10" stroke-width="1"/>
            <line id="Línea_4223" data-name="Línea 4223" x2="10.913" transform="translate(104.75 33.905)" fill="none" stroke="#34fbe7" stroke-linecap="round" stroke-linejoin="round" stroke-miterlimit="10" stroke-width="1"/>
            <line id="Línea_4224" data-name="Línea 4224" x2="62.333" transform="translate(23.686 40.258)" fill="none" stroke="#34fbe7" stroke-linecap="round" stroke-linejoin="round" stroke-miterlimit="10" stroke-width="1"/>
            <line id="Línea_4225" data-name="Línea 4225" x2="16.858" transform="translate(93.348 40.258)" fill="none" stroke="#34fbe7" stroke-linecap="round" stroke-linejoin="round" stroke-miterlimit="10" stroke-width="1"/>
            <line id="Línea_4226" data-name="Línea 4226" x1="48.211" transform="translate(67.451 45.232)" fill="none" stroke="#34fbe7" stroke-linecap="round" stroke-linejoin="round" stroke-miterlimit="10" stroke-width="1"/>
            <line id="Línea_4227" data-name="Línea 4227" x1="66.732" transform="translate(21.404 51.985)" fill="none" stroke="#34fbe7" stroke-linecap="round" stroke-linejoin="round" stroke-miterlimit="10" stroke-width="1"/>
            <line id="Línea_4228" data-name="Línea 4228" x2="49.351" transform="translate(67.451 56.219)" fill="none" stroke="#34fbe7" stroke-linecap="round" stroke-linejoin="round" stroke-miterlimit="10" stroke-width="1"/>
            <line id="Línea_4229" data-name="Línea 4229" x1="40.594" transform="translate(32.107 58.337)" fill="none" stroke="#34fbe7" stroke-linecap="round" stroke-linejoin="round" stroke-miterlimit="10" stroke-width="1"/>
            <line id="Línea_4230" data-name="Línea 4230" x2="17.707" transform="translate(21.404 45.232)" fill="none" stroke="#34fbe7" stroke-linecap="round" stroke-linejoin="round" stroke-miterlimit="10" stroke-width="1"/>
            <line id="Línea_4231" data-name="Línea 4231" x1="12.216" transform="translate(37.645 71.693)" fill="none" stroke="#34fbe7" stroke-linecap="round" stroke-linejoin="round" stroke-miterlimit="10" stroke-width="1"/>
            <line id="Línea_4232" data-name="Línea 4232" x1="28.177" transform="translate(20.543 77.067)" fill="none" stroke="#34fbe7" stroke-linecap="round" stroke-linejoin="round" stroke-miterlimit="10" stroke-width="1"/>
            <line id="Línea_4233" data-name="Línea 4233" x2="5.049" transform="translate(62.402 71.693)" fill="none" stroke="#34fbe7" stroke-linecap="round" stroke-linejoin="round" stroke-miterlimit="10" stroke-width="1"/>
            <line id="Línea_4234" data-name="Línea 4234" x2="5.049" transform="translate(71.605 71.693)" fill="none" stroke="#34fbe7" stroke-linecap="round" stroke-linejoin="round" stroke-miterlimit="10" stroke-width="1"/>
            <line id="Línea_4235" data-name="Línea 4235" x2="5.049" transform="translate(80.807 71.693)" fill="none" stroke="#34fbe7" stroke-linecap="round" stroke-linejoin="round" stroke-miterlimit="10" stroke-width="1"/>
            <line id="Línea_4236" data-name="Línea 4236" x2="5.049" transform="translate(90.01 71.693)" fill="none" stroke="#34fbe7" stroke-linecap="round" stroke-linejoin="round" stroke-miterlimit="10" stroke-width="1"/>
            <line id="Línea_4237" data-name="Línea 4237" x2="5.049" transform="translate(99.212 71.693)" fill="none" stroke="#34fbe7" stroke-linecap="round" stroke-linejoin="round" stroke-miterlimit="10" stroke-width="1"/>
            <line id="Línea_4238" data-name="Línea 4238" x2="5.049" transform="translate(108.415 71.693)" fill="none" stroke="#34fbe7" stroke-linecap="round" stroke-linejoin="round" stroke-miterlimit="10" stroke-width="1"/>
            <line id="Línea_4239" data-name="Línea 4239" x2="3.258" transform="translate(62.402 75.617)" fill="none" stroke="#34fbe7" stroke-linecap="round" stroke-linejoin="round" stroke-miterlimit="10" stroke-width="1"/>
            <line id="Línea_4240" data-name="Línea 4240" x2="3.258" transform="translate(69.977 75.617)" fill="none" stroke="#34fbe7" stroke-linecap="round" stroke-linejoin="round" stroke-miterlimit="10" stroke-width="1"/>
            <line id="Línea_4241" data-name="Línea 4241" x2="3.258" transform="translate(77.55 75.617)" fill="none" stroke="#34fbe7" stroke-linecap="round" stroke-linejoin="round" stroke-miterlimit="10" stroke-width="1"/>
            <line id="Línea_4242" data-name="Línea 4242" x2="3.258" transform="translate(85.124 75.617)" fill="none" stroke="#34fbe7" stroke-linecap="round" stroke-linejoin="round" stroke-miterlimit="10" stroke-width="1"/>
            <line id="Línea_4243" data-name="Línea 4243" x2="3.258" transform="translate(92.697 75.617)" fill="none" stroke="#34fbe7" stroke-linecap="round" stroke-linejoin="round" stroke-miterlimit="10" stroke-width="1"/>
            <line id="Línea_4244" data-name="Línea 4244" x2="3.258" transform="translate(100.271 75.617)" fill="none" stroke="#34fbe7" stroke-linecap="round" stroke-linejoin="round" stroke-miterlimit="10" stroke-width="1"/>
            <line id="Línea_4245" data-name="Línea 4245" x2="3.258" transform="translate(107.844 75.617)" fill="none" stroke="#34fbe7" stroke-linecap="round" stroke-linejoin="round" stroke-miterlimit="10" stroke-width="1"/>
            <path id="Trazado_1065477" data-name="Trazado 1065477" d="M84.766,160.406l-3.586,3.586,3.446,3.446" transform="translate(-60.239 -68.802)" fill="none" stroke="#34fbe7" stroke-linecap="round" stroke-linejoin="round" stroke-miterlimit="10" stroke-width="1"/>
            <path id="Trazado_1065478" data-name="Trazado 1065478" d="M87.518,160.406l-3.586,3.586,3.446,3.446" transform="translate(-59.406 -68.802)" fill="none" stroke="#34fbe7" stroke-linecap="round" stroke-linejoin="round" stroke-miterlimit="10" stroke-width="1"/>
            <path id="Trazado_1065479" data-name="Trazado 1065479" d="M171.253,112.717l-3.586,3.586,3.445,3.446" transform="translate(-34.034 -83.252)" fill="none" stroke="#34fbe7" stroke-linecap="round" stroke-linejoin="round" stroke-miterlimit="10" stroke-width="1"/>
            <line id="Línea_4246" data-name="Línea 4246" x2="28.381" transform="translate(131.835 49.409)" fill="none" stroke="#34fbe7" stroke-linecap="round" stroke-linejoin="round" stroke-miterlimit="10" stroke-width="1"/>
            <line id="Línea_4247" data-name="Línea 4247" x2="11.151" transform="translate(131.835 52.882)" fill="none" stroke="#34fbe7" stroke-linecap="round" stroke-linejoin="round" stroke-miterlimit="10" stroke-width="1"/>
            <line id="Línea_4248" data-name="Línea 4248" x2="11.151" transform="translate(131.835 58.337)" fill="none" stroke="#34fbe7" stroke-linecap="round" stroke-linejoin="round" stroke-miterlimit="10" stroke-width="1"/>
            <line id="Línea_4249" data-name="Línea 4249" x2="11.151" transform="translate(131.835 63.791)" fill="none" stroke="#34fbe7" stroke-linecap="round" stroke-linejoin="round" stroke-miterlimit="10" stroke-width="1"/>
            <line id="Línea_4250" data-name="Línea 4250" x2="11.151" transform="translate(131.835 69.244)" fill="none" stroke="#34fbe7" stroke-linecap="round" stroke-linejoin="round" stroke-miterlimit="10" stroke-width="1"/>
            <line id="Línea_4251" data-name="Línea 4251" x1="7.56" transform="translate(168.529 56.219)" fill="none" stroke="#34fbe7" stroke-linecap="round" stroke-linejoin="round" stroke-miterlimit="10" stroke-width="1"/>
            <line id="Línea_4252" data-name="Línea 4252" x1="7.56" transform="translate(168.529 59.322)" fill="none" stroke="#34fbe7" stroke-linecap="round" stroke-linejoin="round" stroke-miterlimit="10" stroke-width="1"/>
            <line id="Línea_4253" data-name="Línea 4253" x1="7.56" transform="translate(168.529 62.424)" fill="none" stroke="#34fbe7" stroke-linecap="round" stroke-linejoin="round" stroke-miterlimit="10" stroke-width="1"/>
            <line id="Línea_4254" data-name="Línea 4254" x1="7.56" transform="translate(168.529 65.527)" fill="none" stroke="#34fbe7" stroke-linecap="round" stroke-linejoin="round" stroke-miterlimit="10" stroke-width="1"/>
            <line id="Línea_4255" data-name="Línea 4255" x1="7.56" transform="translate(168.529 68.629)" fill="none" stroke="#34fbe7" stroke-linecap="round" stroke-linejoin="round" stroke-miterlimit="10" stroke-width="1"/>
            <line id="Línea_4256" data-name="Línea 4256" x1="7.56" transform="translate(168.529 71.732)" fill="none" stroke="#34fbe7" stroke-linecap="round" stroke-linejoin="round" stroke-miterlimit="10" stroke-width="1"/>
            <line id="Línea_4257" data-name="Línea 4257" x1="7.56" transform="translate(168.529 74.834)" fill="none" stroke="#34fbe7" stroke-linecap="round" stroke-linejoin="round" stroke-miterlimit="10" stroke-width="1"/>
            <line id="Línea_4258" data-name="Línea 4258" x1="7.56" transform="translate(168.529 77.937)" fill="none" stroke="#34fbe7" stroke-linecap="round" stroke-linejoin="round" stroke-miterlimit="10" stroke-width="1"/>
            <line id="Línea_4259" data-name="Línea 4259" x2="76.469" transform="translate(36.995 91.604)" fill="none" stroke="#34fbe7" stroke-linecap="round" stroke-linejoin="round" stroke-miterlimit="10" stroke-width="1"/>
            <line id="Línea_4260" data-name="Línea 4260" x2="46.337" transform="translate(36.995 95.119)" fill="none" stroke="#34fbe7" stroke-linecap="round" stroke-linejoin="round" stroke-miterlimit="10" stroke-width="1"/>
            <line id="Línea_4261" data-name="Línea 4261" x2="46.337" transform="translate(36.995 100.069)" fill="none" stroke="#34fbe7" stroke-linecap="round" stroke-linejoin="round" stroke-miterlimit="10" stroke-width="1"/>
          </g>
          <g id="Grupo_1231412" data-name="Grupo 1231412" transform="translate(70.829 268.329)">
            <path id="Trazado_1065480" data-name="Trazado 1065480" d="M201.62,277.123H129.262a9.794,9.794,0,0,1-9.795-9.795V190.777h91.948v76.551A9.8,9.8,0,0,1,201.62,277.123Z" transform="translate(-119.467 -190.777)" fill="#34dce7" opacity="0.3"/>
            <rect id="Rectángulo_424544" data-name="Rectángulo 424544" width="75.362" height="27.052" transform="translate(12.65 18.148)" fill="#34dce7" opacity="0.3"/>
            <rect id="Rectángulo_424545" data-name="Rectángulo 424545" width="26.499" height="8.393" transform="translate(12.65 50.243)" fill="#34dce7" opacity="0.3"/>
            <rect id="Rectángulo_424546" data-name="Rectángulo 424546" width="44.885" height="8.393" transform="translate(43.127 50.243)" fill="#34dce7" opacity="0.3"/>
            <rect id="Rectángulo_424547" data-name="Rectángulo 424547" width="91.948" height="14.118" transform="translate(0 0.001)" fill="#34dce7" opacity="0.3"/>
            <circle id="Elipse_13908" data-name="Elipse 13908" cx="2.928" cy="2.928" r="2.928" transform="translate(2.757 3.776)" fill="#34dce7" opacity="0.3"/>
            <path id="Trazado_1065481" data-name="Trazado 1065481" d="M124.511,198.844a2.927,2.927,0,0,1-2.925-2.9c0,.01,0,.02,0,.03a2.928,2.928,0,1,0,5.856,0c0-.01,0-.02,0-.03A2.926,2.926,0,0,1,124.511,198.844Z" transform="translate(-118.826 -189.211)" fill="#34dce7"/>
            <circle id="Elipse_13909" data-name="Elipse 13909" cx="2.928" cy="2.928" r="2.928" transform="translate(9.722 3.776)" fill="#34dce7" opacity="0.3"/>
            <path id="Trazado_1065482" data-name="Trazado 1065482" d="M129.856,198.844a2.927,2.927,0,0,1-2.925-2.9c0,.01,0,.02,0,.03a2.928,2.928,0,1,0,5.856,0c0-.01,0-.02,0-.03A2.926,2.926,0,0,1,129.856,198.844Z" transform="translate(-117.206 -189.211)" fill="#34dce7"/>
            <circle id="Elipse_13910" data-name="Elipse 13910" cx="2.928" cy="2.928" r="2.928" transform="translate(16.633 3.776)" fill="#34dce7" opacity="0.3"/>
            <path id="Trazado_1065483" data-name="Trazado 1065483" d="M135.16,198.844a2.927,2.927,0,0,1-2.925-2.9c0,.01,0,.02,0,.03a2.928,2.928,0,1,0,5.856,0c0-.01,0-.02,0-.03A2.928,2.928,0,0,1,135.16,198.844Z" transform="translate(-115.599 -189.211)" fill="#34dce7"/>
            <rect id="Rectángulo_424548" data-name="Rectángulo 424548" width="91.948" height="0.272" transform="translate(0 13.847)" fill="#34dce7" opacity="0.66"/>
            <circle id="Elipse_13911" data-name="Elipse 13911" cx="2.322" cy="2.322" r="2.322" transform="translate(3.363 4.382)" fill="#34dce7"/>
            <circle id="Elipse_13912" data-name="Elipse 13912" cx="2.322" cy="2.322" r="2.322" transform="translate(10.328 4.382)" fill="#dbff0e"/>
            <circle id="Elipse_13913" data-name="Elipse 13913" cx="2.322" cy="2.322" r="2.322" transform="translate(17.239 4.382)" fill="#ff2995"/>
            <path id="Trazado_1065484" data-name="Trazado 1065484" d="M124.629,267.788h-.517a2.068,2.068,0,0,1-2.063-2.063v-60.5a2.068,2.068,0,0,1,2.063-2.063h.517a2.068,2.068,0,0,1,2.063,2.063v60.5A2.069,2.069,0,0,1,124.629,267.788Z" transform="translate(-118.685 -187.024)" fill="#34dce7" opacity="0.3"/>
            <path id="Trazado_1065485" data-name="Trazado 1065485" d="M124.023,221.664h-.206a.826.826,0,0,1-.824-.825v-15.31a.826.826,0,0,1,.824-.824h.206a.826.826,0,0,1,.823.824v15.31A.826.826,0,0,1,124.023,221.664Z" transform="translate(-118.398 -186.557)" fill="#34dce7"/>
            <line id="Línea_4262" data-name="Línea 4262" x2="31.735" transform="translate(15.577 22.014)" fill="none" stroke="#34fbe7" stroke-linecap="round" stroke-linejoin="round" stroke-miterlimit="10" stroke-width="1"/>
            <line id="Línea_4263" data-name="Línea 4263" x2="5.16" transform="translate(50.331 22.014)" fill="none" stroke="#34fbe7" stroke-linecap="round" stroke-linejoin="round" stroke-miterlimit="10" stroke-width="1"/>
            <line id="Línea_4264" data-name="Línea 4264" x2="22.522" transform="translate(61.181 22.014)" fill="none" stroke="#34fbe7" stroke-linecap="round" stroke-linejoin="round" stroke-miterlimit="10" stroke-width="1"/>
            <line id="Línea_4265" data-name="Línea 4265" x2="38.372" transform="translate(15.577 25.269)" fill="none" stroke="#34fbe7" stroke-linecap="round" stroke-linejoin="round" stroke-miterlimit="10" stroke-width="1"/>
            <line id="Línea_4266" data-name="Línea 4266" x2="15.598" transform="translate(57.744 24.676)" fill="none" stroke="#34fbe7" stroke-linecap="round" stroke-linejoin="round" stroke-miterlimit="10" stroke-width="1"/>
            <line id="Línea_4267" data-name="Línea 4267" x2="7.942" transform="translate(76.235 24.676)" fill="none" stroke="#34fbe7" stroke-linecap="round" stroke-linejoin="round" stroke-miterlimit="10" stroke-width="1"/>
            <line id="Línea_4268" data-name="Línea 4268" x2="45.364" transform="translate(17.239 29.299)" fill="none" stroke="#34fbe7" stroke-linecap="round" stroke-linejoin="round" stroke-miterlimit="10" stroke-width="1"/>
            <line id="Línea_4269" data-name="Línea 4269" x2="12.269" transform="translate(67.937 29.299)" fill="none" stroke="#34fbe7" stroke-linecap="round" stroke-linejoin="round" stroke-miterlimit="10" stroke-width="1"/>
            <line id="Línea_4270" data-name="Línea 4270" x1="35.086" transform="translate(49.091 32.92)" fill="none" stroke="#34fbe7" stroke-linecap="round" stroke-linejoin="round" stroke-miterlimit="10" stroke-width="1"/>
            <line id="Línea_4271" data-name="Línea 4271" x1="48.567" transform="translate(15.577 37.834)" fill="none" stroke="#34fbe7" stroke-linecap="round" stroke-linejoin="round" stroke-miterlimit="10" stroke-width="1"/>
            <line id="Línea_4272" data-name="Línea 4272" x2="35.916" transform="translate(49.091 40.916)" fill="none" stroke="#34fbe7" stroke-linecap="round" stroke-linejoin="round" stroke-miterlimit="10" stroke-width="1"/>
            <line id="Línea_4273" data-name="Línea 4273" x1="29.543" transform="translate(23.368 42.457)" fill="none" stroke="#34fbe7" stroke-linecap="round" stroke-linejoin="round" stroke-miterlimit="10" stroke-width="1"/>
            <line id="Línea_4274" data-name="Línea 4274" x2="12.887" transform="translate(15.577 32.92)" fill="none" stroke="#34fbe7" stroke-linecap="round" stroke-linejoin="round" stroke-miterlimit="10" stroke-width="1"/>
            <line id="Línea_4275" data-name="Línea 4275" x1="8.89" transform="translate(27.398 52.177)" fill="none" stroke="#34fbe7" stroke-linecap="round" stroke-linejoin="round" stroke-miterlimit="10" stroke-width="1"/>
            <line id="Línea_4276" data-name="Línea 4276" x1="20.507" transform="translate(14.952 56.089)" fill="none" stroke="#34fbe7" stroke-linecap="round" stroke-linejoin="round" stroke-miterlimit="10" stroke-width="1"/>
            <line id="Línea_4277" data-name="Línea 4277" x2="3.676" transform="translate(45.415 52.177)" fill="none" stroke="#34fbe7" stroke-linecap="round" stroke-linejoin="round" stroke-miterlimit="10" stroke-width="1"/>
            <line id="Línea_4278" data-name="Línea 4278" x2="3.676" transform="translate(52.112 52.177)" fill="none" stroke="#34fbe7" stroke-linecap="round" stroke-linejoin="round" stroke-miterlimit="10" stroke-width="1"/>
            <line id="Línea_4279" data-name="Línea 4279" x2="3.674" transform="translate(58.81 52.177)" fill="none" stroke="#34fbe7" stroke-linecap="round" stroke-linejoin="round" stroke-miterlimit="10" stroke-width="1"/>
            <line id="Línea_4280" data-name="Línea 4280" x2="3.674" transform="translate(65.507 52.177)" fill="none" stroke="#34fbe7" stroke-linecap="round" stroke-linejoin="round" stroke-miterlimit="10" stroke-width="1"/>
            <line id="Línea_4281" data-name="Línea 4281" x2="3.674" transform="translate(72.205 52.177)" fill="none" stroke="#34fbe7" stroke-linecap="round" stroke-linejoin="round" stroke-miterlimit="10" stroke-width="1"/>
            <line id="Línea_4282" data-name="Línea 4282" x2="3.674" transform="translate(78.902 52.177)" fill="none" stroke="#34fbe7" stroke-linecap="round" stroke-linejoin="round" stroke-miterlimit="10" stroke-width="1"/>
            <line id="Línea_4283" data-name="Línea 4283" x2="2.371" transform="translate(45.415 55.034)" fill="none" stroke="#34fbe7" stroke-linecap="round" stroke-linejoin="round" stroke-miterlimit="10" stroke-width="1"/>
            <line id="Línea_4284" data-name="Línea 4284" x2="2.37" transform="translate(50.928 55.034)" fill="none" stroke="#34fbe7" stroke-linecap="round" stroke-linejoin="round" stroke-miterlimit="10" stroke-width="1"/>
            <line id="Línea_4285" data-name="Línea 4285" x2="2.37" transform="translate(56.44 55.034)" fill="none" stroke="#34fbe7" stroke-linecap="round" stroke-linejoin="round" stroke-miterlimit="10" stroke-width="1"/>
            <line id="Línea_4286" data-name="Línea 4286" x2="2.371" transform="translate(61.951 55.034)" fill="none" stroke="#34fbe7" stroke-linecap="round" stroke-linejoin="round" stroke-miterlimit="10" stroke-width="1"/>
            <line id="Línea_4287" data-name="Línea 4287" x2="2.371" transform="translate(67.463 55.034)" fill="none" stroke="#34fbe7" stroke-linecap="round" stroke-linejoin="round" stroke-miterlimit="10" stroke-width="1"/>
            <line id="Línea_4288" data-name="Línea 4288" x2="2.37" transform="translate(72.976 55.034)" fill="none" stroke="#34fbe7" stroke-linecap="round" stroke-linejoin="round" stroke-miterlimit="10" stroke-width="1"/>
            <line id="Línea_4289" data-name="Línea 4289" x2="2.37" transform="translate(78.488 55.034)" fill="none" stroke="#34fbe7" stroke-linecap="round" stroke-linejoin="round" stroke-miterlimit="10" stroke-width="1"/>
            <path id="Trazado_1065486" data-name="Trazado 1065486" d="M133.774,241.942l-2.61,2.61,2.508,2.507" transform="translate(-115.923 -175.274)" fill="none" stroke="#34fbe7" stroke-linecap="round" stroke-linejoin="round" stroke-miterlimit="10" stroke-width="1"/>
            <path id="Trazado_1065487" data-name="Trazado 1065487" d="M135.776,241.942l-2.609,2.61,2.507,2.507" transform="translate(-115.316 -175.274)" fill="none" stroke="#34fbe7" stroke-linecap="round" stroke-linejoin="round" stroke-miterlimit="10" stroke-width="1"/>
            <line id="Línea_4290" data-name="Línea 4290" x2="55.653" transform="translate(26.924 66.668)" fill="none" stroke="#34fbe7" stroke-linecap="round" stroke-linejoin="round" stroke-miterlimit="10" stroke-width="1"/>
            <line id="Línea_4291" data-name="Línea 4291" x2="33.723" transform="translate(26.924 69.227)" fill="none" stroke="#34fbe7" stroke-linecap="round" stroke-linejoin="round" stroke-miterlimit="10" stroke-width="1"/>
            <line id="Línea_4292" data-name="Línea 4292" x2="33.723" transform="translate(26.924 72.829)" fill="none" stroke="#34fbe7" stroke-linecap="round" stroke-linejoin="round" stroke-miterlimit="10" stroke-width="1"/>
          </g>
          <g id="Grupo_1231427" data-name="Grupo 1231427" transform="translate(329.655 315.237)">
            <path id="Trazado_1065488" data-name="Trazado 1065488" d="M381.626,264.014H327.9a9.794,9.794,0,0,1-9.795-9.795V226.777h73.316V254.22A9.8,9.8,0,0,1,381.626,264.014Z" transform="translate(-318.105 -226.777)" fill="#34dce7" opacity="0.3"/>
            <rect id="Rectángulo_424549" data-name="Rectángulo 424549" width="42.602" height="16.178" transform="translate(7.565 10.853)" fill="#34dce7" opacity="0.3"/>
            <rect id="Rectángulo_424550" data-name="Rectángulo 424550" width="73.316" height="8.443" fill="#34dce7" opacity="0.3"/>
            <circle id="Elipse_13914" data-name="Elipse 13914" cx="1.751" cy="1.751" r="1.751" transform="translate(1.648 2.258)" fill="#34dce7" opacity="0.3"/>
            <path id="Trazado_1065489" data-name="Trazado 1065489" d="M321.121,231.6a1.749,1.749,0,0,1-1.749-1.733c0,.007,0,.012,0,.018a1.752,1.752,0,1,0,3.5,0c0-.007,0-.012,0-.018A1.753,1.753,0,0,1,321.121,231.6Z" transform="translate(-317.721 -225.84)" fill="#34dce7"/>
            <circle id="Elipse_13915" data-name="Elipse 13915" cx="1.751" cy="1.751" r="1.751" transform="translate(5.814 2.258)" fill="#34dce7" opacity="0.3"/>
            <path id="Trazado_1065490" data-name="Trazado 1065490" d="M324.318,231.6a1.749,1.749,0,0,1-1.749-1.733c0,.007,0,.012,0,.018a1.752,1.752,0,1,0,3.5,0c0-.007,0-.012,0-.018A1.754,1.754,0,0,1,324.318,231.6Z" transform="translate(-316.753 -225.84)" fill="#34dce7"/>
            <circle id="Elipse_13916" data-name="Elipse 13916" cx="1.751" cy="1.751" r="1.751" transform="translate(9.946 2.258)" fill="#34dce7" opacity="0.3"/>
            <path id="Trazado_1065491" data-name="Trazado 1065491" d="M327.489,231.6a1.749,1.749,0,0,1-1.749-1.733c0,.007,0,.012,0,.018a1.752,1.752,0,1,0,3.5,0c0-.007,0-.012,0-.018A1.752,1.752,0,0,1,327.489,231.6Z" transform="translate(-315.792 -225.84)" fill="#34dce7"/>
            <rect id="Rectángulo_424551" data-name="Rectángulo 424551" width="73.316" height="0.163" transform="translate(0 8.281)" fill="#34dce7" opacity="0.66"/>
            <circle id="Elipse_13917" data-name="Elipse 13917" cx="1.388" cy="1.388" r="1.388" transform="translate(2.012 2.622)" fill="#34dce7"/>
            <circle id="Elipse_13918" data-name="Elipse 13918" cx="1.388" cy="1.388" r="1.388" transform="translate(6.178 2.622)" fill="#dbff0e"/>
            <circle id="Elipse_13919" data-name="Elipse 13919" cx="1.388" cy="1.388" r="1.388" transform="translate(10.309 2.622)" fill="#ff2995"/>
            <path id="Trazado_1065492" data-name="Trazado 1065492" d="M321.037,258.432h0a1.391,1.391,0,0,1-1.388-1.388V235.572a1.391,1.391,0,0,1,1.388-1.388h0a1.391,1.391,0,0,1,1.388,1.388v21.472A1.391,1.391,0,0,1,321.037,258.432Z" transform="translate(-317.637 -224.533)" fill="#34dce7" opacity="0.3"/>
            <path id="Trazado_1065493" data-name="Trazado 1065493" d="M320.768,245.248h0a.557.557,0,0,1-.555-.555V235.66a.557.557,0,0,1,.555-.555h0a.557.557,0,0,1,.555.555v9.032A.556.556,0,0,1,320.768,245.248Z" transform="translate(-317.466 -224.254)" fill="#34dce7"/>
            <g id="Grupo_1231426" data-name="Grupo 1231426" transform="translate(8.926 12.131)">
              <g id="Grupo_1231413" data-name="Grupo 1231413">
                <path id="Trazado_1065494" data-name="Trazado 1065494" d="M338.6,236.543H325.183a.228.228,0,0,1,0-.456H338.6a.228.228,0,0,1,0,.456Z" transform="translate(-324.955 -236.087)" fill="#34fbe7"/>
              </g>
              <g id="Grupo_1231414" data-name="Grupo 1231414" transform="translate(14.469)">
                <path id="Trazado_1065495" data-name="Trazado 1065495" d="M338.09,236.543h-1.8a.228.228,0,1,1,0-.456h1.8a.228.228,0,0,1,0,.456Z" transform="translate(-336.059 -236.087)" fill="#34fbe7"/>
              </g>
              <g id="Grupo_1231415" data-name="Grupo 1231415" transform="translate(18.262)">
                <path id="Trazado_1065496" data-name="Trazado 1065496" d="M355.462,236.543H339.2a.228.228,0,1,1,0-.456h16.264a.228.228,0,1,1,0,.456Z" transform="translate(-338.97 -236.087)" fill="#34fbe7"/>
              </g>
              <g id="Grupo_1231416" data-name="Grupo 1231416" transform="translate(0.001 1.138)">
                <path id="Trazado_1065497" data-name="Trazado 1065497" d="M340.916,237.416H325.184a.228.228,0,0,1,0-.456h15.732a.228.228,0,1,1,0,.456Z" transform="translate(-324.956 -236.96)" fill="#34fbe7"/>
              </g>
              <g id="Grupo_1231417" data-name="Grupo 1231417" transform="translate(17.06 0.93)">
                <path id="Trazado_1065498" data-name="Trazado 1065498" d="M352.12,237.257H338.276a.228.228,0,1,1,0-.456H352.12a.228.228,0,1,1,0,.456Z" transform="translate(-338.048 -236.801)" fill="#34fbe7"/>
              </g>
              <g id="Grupo_1231418" data-name="Grupo 1231418" transform="translate(31.916 0.93)">
                <path id="Trazado_1065499" data-name="Trazado 1065499" d="M352.452,237.257h-2.775a.228.228,0,1,1,0-.456h2.775a.228.228,0,1,1,0,.456Z" transform="translate(-349.449 -236.801)" fill="#34fbe7"/>
              </g>
              <g id="Grupo_1231419" data-name="Grupo 1231419" transform="translate(0.581 2.547)">
                <path id="Trazado_1065500" data-name="Trazado 1065500" d="M343.806,238.5H325.629a.228.228,0,0,1,0-.456h18.177a.228.228,0,0,1,0,.456Z" transform="translate(-325.401 -238.042)" fill="#34fbe7"/>
              </g>
              <g id="Grupo_1231420" data-name="Grupo 1231420" transform="translate(29.015 2.547)">
                <path id="Trazado_1065501" data-name="Trazado 1065501" d="M351.739,238.5h-4.288a.228.228,0,0,1,0-.456h4.288a.228.228,0,0,1,0,.456Z" transform="translate(-347.223 -238.042)" fill="#34fbe7"/>
              </g>
              <g id="Grupo_1231421" data-name="Grupo 1231421" transform="translate(14.035 3.813)">
                <path id="Trazado_1065502" data-name="Trazado 1065502" d="M356.611,239.469H335.954a.228.228,0,0,1,0-.456h20.657a.228.228,0,0,1,0,.456Z" transform="translate(-335.726 -239.013)" fill="#34fbe7"/>
              </g>
              <g id="Grupo_1231422" data-name="Grupo 1231422" transform="translate(0.001 5.53)">
                <path id="Trazado_1065503" data-name="Trazado 1065503" d="M344.48,240.787h-19.3a.228.228,0,0,1,0-.456h19.3a.228.228,0,0,1,0,.456Z" transform="translate(-324.956 -240.331)" fill="#34fbe7"/>
              </g>
              <g id="Grupo_1231423" data-name="Grupo 1231423" transform="translate(14.035 6.608)">
                <path id="Trazado_1065504" data-name="Trazado 1065504" d="M356.9,241.614H335.954a.228.228,0,0,1,0-.456H356.9a.228.228,0,1,1,0,.456Z" transform="translate(-335.726 -241.158)" fill="#34fbe7"/>
              </g>
              <g id="Grupo_1231424" data-name="Grupo 1231424" transform="translate(2.723 7.146)">
                <path id="Trazado_1065505" data-name="Trazado 1065505" d="M333.039,242.027h-5.766a.228.228,0,0,1,0-.456h5.766a.228.228,0,0,1,0,.456Z" transform="translate(-327.045 -241.571)" fill="#34fbe7"/>
              </g>
              <g id="Grupo_1231425" data-name="Grupo 1231425" transform="translate(0 3.813)">
                <path id="Trazado_1065506" data-name="Trazado 1065506" d="M329.687,239.469h-4.5a.228.228,0,0,1,0-.456h4.5a.228.228,0,0,1,0,.456Z" transform="translate(-324.955 -239.013)" fill="#34fbe7"/>
              </g>
            </g>
          </g>
          <g id="Grupo_1231429" data-name="Grupo 1231429" transform="translate(269.328 100.917)">
            <g id="Grupo_1231428" data-name="Grupo 1231428">
              <path id="Trazado_1065507" data-name="Trazado 1065507" d="M416.154,255.983H305.017a9.794,9.794,0,0,1-9.795-9.795V66.257H425.948V246.19A9.794,9.794,0,0,1,416.154,255.983Z" transform="translate(-295.222 -66.257)" fill="#34dce7" opacity="0.3"/>
              <rect id="Rectángulo_424552" data-name="Rectángulo 424552" width="103.551" height="90.604" transform="translate(17.382 24.934)" fill="#34dce7" opacity="0.3"/>
              <rect id="Rectángulo_424553" data-name="Rectángulo 424553" width="36.411" height="11.532" transform="translate(17.382 140.119)" fill="#34dce7" opacity="0.3"/>
              <rect id="Rectángulo_424554" data-name="Rectángulo 424554" width="61.674" height="11.532" transform="translate(59.258 140.119)" fill="#34dce7" opacity="0.3"/>
              <rect id="Rectángulo_424555" data-name="Rectángulo 424555" width="103.551" height="16.092" transform="translate(17.382 158.578)" fill="#34dce7" opacity="0.3"/>
              <rect id="Rectángulo_424556" data-name="Rectángulo 424556" width="130.726" height="19.399" fill="#34dce7" opacity="0.3"/>
              <circle id="Elipse_13920" data-name="Elipse 13920" cx="4.024" cy="4.024" r="4.024" transform="translate(3.788 5.187)" fill="#34dce7" opacity="0.3"/>
              <path id="Trazado_1065508" data-name="Trazado 1065508" d="M302.153,77.34a4.021,4.021,0,0,1-4.02-3.983c0,.014,0,.027,0,.042a4.024,4.024,0,1,0,8.047,0c0-.014,0-.027,0-.042A4.022,4.022,0,0,1,302.153,77.34Z" transform="translate(-294.341 -64.106)" fill="#34dce7"/>
              <circle id="Elipse_13921" data-name="Elipse 13921" cx="4.024" cy="4.024" r="4.024" transform="translate(13.358 5.187)" fill="#34dce7" opacity="0.3"/>
              <path id="Trazado_1065509" data-name="Trazado 1065509" d="M309.5,77.34a4.021,4.021,0,0,1-4.02-3.983c0,.014,0,.027,0,.042a4.024,4.024,0,1,0,8.047,0c0-.014,0-.027,0-.042A4.024,4.024,0,0,1,309.5,77.34Z" transform="translate(-292.116 -64.106)" fill="#34dce7"/>
              <circle id="Elipse_13922" data-name="Elipse 13922" cx="4.024" cy="4.024" r="4.024" transform="translate(22.853 5.187)" fill="#34dce7" opacity="0.3"/>
              <path id="Trazado_1065510" data-name="Trazado 1065510" d="M316.785,77.34a4.021,4.021,0,0,1-4.02-3.983c0,.014,0,.027,0,.042a4.024,4.024,0,1,0,8.047,0c0-.014,0-.027,0-.042A4.023,4.023,0,0,1,316.785,77.34Z" transform="translate(-289.908 -64.106)" fill="#34dce7"/>
              <rect id="Rectángulo_424557" data-name="Rectángulo 424557" width="130.726" height="0.374" transform="translate(0 19.025)" fill="#34dce7" opacity="0.66"/>
              <circle id="Elipse_13923" data-name="Elipse 13923" cx="3.19" cy="3.19" r="3.19" transform="translate(4.622 6.021)" fill="#34dce7"/>
              <circle id="Elipse_13924" data-name="Elipse 13924" cx="3.19" cy="3.19" r="3.19" transform="translate(14.192 6.021)" fill="#dbff0e"/>
              <circle id="Elipse_13925" data-name="Elipse 13925" cx="3.19" cy="3.19" r="3.19" transform="translate(23.687 6.021)" fill="#ff2995"/>
              <path id="Trazado_1065511" data-name="Trazado 1065511" d="M301.959,243.158h0a3.2,3.2,0,0,1-3.19-3.19V86.463a3.2,3.2,0,0,1,3.19-3.19h0a3.2,3.2,0,0,1,3.19,3.19V239.968A3.2,3.2,0,0,1,301.959,243.158Z" transform="translate(-294.147 -61.101)" fill="#34dce7" opacity="0.3"/>
              <path id="Trazado_1065512" data-name="Trazado 1065512" d="M301.341,108.695h0a1.278,1.278,0,0,1-1.274-1.274V86.667a1.278,1.278,0,0,1,1.274-1.274h0a1.278,1.278,0,0,1,1.274,1.274V107.42A1.278,1.278,0,0,1,301.341,108.695Z" transform="translate(-293.754 -60.459)" fill="#34dce7"/>
              <line id="Línea_4293" data-name="Línea 4293" x2="43.605" transform="translate(21.404 30.248)" fill="none" stroke="#34fbe7" stroke-linecap="round" stroke-linejoin="round" stroke-miterlimit="10" stroke-width="1"/>
              <line id="Línea_4294" data-name="Línea 4294" x2="7.091" transform="translate(69.157 30.248)" fill="none" stroke="#34fbe7" stroke-linecap="round" stroke-linejoin="round" stroke-miterlimit="10" stroke-width="1"/>
              <line id="Línea_4295" data-name="Línea 4295" x2="30.946" transform="translate(84.066 30.248)" fill="none" stroke="#34fbe7" stroke-linecap="round" stroke-linejoin="round" stroke-miterlimit="10" stroke-width="1"/>
              <line id="Línea_4296" data-name="Línea 4296" x2="52.726" transform="translate(21.404 34.72)" fill="none" stroke="#34fbe7" stroke-linecap="round" stroke-linejoin="round" stroke-miterlimit="10" stroke-width="1"/>
              <line id="Línea_4297" data-name="Línea 4297" x2="21.433" transform="translate(79.343 33.905)" fill="none" stroke="#34fbe7" stroke-linecap="round" stroke-linejoin="round" stroke-miterlimit="10" stroke-width="1"/>
              <line id="Línea_4298" data-name="Línea 4298" x2="10.913" transform="translate(104.751 33.905)" fill="none" stroke="#34fbe7" stroke-linecap="round" stroke-linejoin="round" stroke-miterlimit="10" stroke-width="1"/>
              <line id="Línea_4299" data-name="Línea 4299" x2="62.333" transform="translate(23.687 40.258)" fill="none" stroke="#34fbe7" stroke-linecap="round" stroke-linejoin="round" stroke-miterlimit="10" stroke-width="1"/>
              <line id="Línea_4300" data-name="Línea 4300" x2="16.857" transform="translate(93.35 40.258)" fill="none" stroke="#34fbe7" stroke-linecap="round" stroke-linejoin="round" stroke-miterlimit="10" stroke-width="1"/>
              <line id="Línea_4301" data-name="Línea 4301" x1="48.211" transform="translate(67.453 45.231)" fill="none" stroke="#34fbe7" stroke-linecap="round" stroke-linejoin="round" stroke-miterlimit="10" stroke-width="1"/>
              <line id="Línea_4302" data-name="Línea 4302" x1="66.733" transform="translate(21.404 51.985)" fill="none" stroke="#34fbe7" stroke-linecap="round" stroke-linejoin="round" stroke-miterlimit="10" stroke-width="1"/>
              <line id="Línea_4303" data-name="Línea 4303" x2="49.351" transform="translate(67.453 56.219)" fill="none" stroke="#34fbe7" stroke-linecap="round" stroke-linejoin="round" stroke-miterlimit="10" stroke-width="1"/>
              <line id="Línea_4304" data-name="Línea 4304" x1="40.595" transform="translate(22.909 68.733)" fill="none" stroke="#34fbe7" stroke-linecap="round" stroke-linejoin="round" stroke-miterlimit="10" stroke-width="1"/>
              <line id="Línea_4305" data-name="Línea 4305" x2="17.708" transform="translate(21.404 45.231)" fill="none" stroke="#34fbe7" stroke-linecap="round" stroke-linejoin="round" stroke-miterlimit="10" stroke-width="1"/>
              <line id="Línea_4306" data-name="Línea 4306" x1="12.216" transform="translate(37.646 142.777)" fill="none" stroke="#34fbe7" stroke-linecap="round" stroke-linejoin="round" stroke-miterlimit="10" stroke-width="1"/>
              <line id="Línea_4307" data-name="Línea 4307" x1="28.177" transform="translate(20.544 148.152)" fill="none" stroke="#34fbe7" stroke-linecap="round" stroke-linejoin="round" stroke-miterlimit="10" stroke-width="1"/>
              <line id="Línea_4308" data-name="Línea 4308" x2="5.049" transform="translate(62.403 142.777)" fill="none" stroke="#34fbe7" stroke-linecap="round" stroke-linejoin="round" stroke-miterlimit="10" stroke-width="1"/>
              <line id="Línea_4309" data-name="Línea 4309" x2="5.049" transform="translate(71.605 142.777)" fill="none" stroke="#34fbe7" stroke-linecap="round" stroke-linejoin="round" stroke-miterlimit="10" stroke-width="1"/>
              <line id="Línea_4310" data-name="Línea 4310" x2="5.049" transform="translate(80.808 142.777)" fill="none" stroke="#34fbe7" stroke-linecap="round" stroke-linejoin="round" stroke-miterlimit="10" stroke-width="1"/>
              <line id="Línea_4311" data-name="Línea 4311" x2="5.049" transform="translate(90.01 142.777)" fill="none" stroke="#34fbe7" stroke-linecap="round" stroke-linejoin="round" stroke-miterlimit="10" stroke-width="1"/>
              <line id="Línea_4312" data-name="Línea 4312" x2="5.049" transform="translate(99.213 142.777)" fill="none" stroke="#34fbe7" stroke-linecap="round" stroke-linejoin="round" stroke-miterlimit="10" stroke-width="1"/>
              <line id="Línea_4313" data-name="Línea 4313" x2="5.049" transform="translate(108.415 142.777)" fill="none" stroke="#34fbe7" stroke-linecap="round" stroke-linejoin="round" stroke-miterlimit="10" stroke-width="1"/>
              <line id="Línea_4314" data-name="Línea 4314" x2="3.258" transform="translate(62.403 146.701)" fill="none" stroke="#34fbe7" stroke-linecap="round" stroke-linejoin="round" stroke-miterlimit="10" stroke-width="1"/>
              <line id="Línea_4315" data-name="Línea 4315" x2="3.258" transform="translate(69.977 146.701)" fill="none" stroke="#34fbe7" stroke-linecap="round" stroke-linejoin="round" stroke-miterlimit="10" stroke-width="1"/>
              <line id="Línea_4316" data-name="Línea 4316" x2="3.258" transform="translate(77.551 146.701)" fill="none" stroke="#34fbe7" stroke-linecap="round" stroke-linejoin="round" stroke-miterlimit="10" stroke-width="1"/>
              <line id="Línea_4317" data-name="Línea 4317" x2="3.258" transform="translate(85.124 146.701)" fill="none" stroke="#34fbe7" stroke-linecap="round" stroke-linejoin="round" stroke-miterlimit="10" stroke-width="1"/>
              <line id="Línea_4318" data-name="Línea 4318" x2="3.258" transform="translate(92.698 146.701)" fill="none" stroke="#34fbe7" stroke-linecap="round" stroke-linejoin="round" stroke-miterlimit="10" stroke-width="1"/>
              <line id="Línea_4319" data-name="Línea 4319" x2="3.258" transform="translate(100.271 146.701)" fill="none" stroke="#34fbe7" stroke-linecap="round" stroke-linejoin="round" stroke-miterlimit="10" stroke-width="1"/>
              <line id="Línea_4320" data-name="Línea 4320" x2="3.258" transform="translate(107.846 146.701)" fill="none" stroke="#34fbe7" stroke-linecap="round" stroke-linejoin="round" stroke-miterlimit="10" stroke-width="1"/>
              <path id="Trazado_1065513" data-name="Trazado 1065513" d="M314.88,191.113l-3.586,3.586,3.446,3.445" transform="translate(-290.352 -28.425)" fill="none" stroke="#34fbe7" stroke-linecap="round" stroke-linejoin="round" stroke-miterlimit="10" stroke-width="1"/>
              <path id="Trazado_1065514" data-name="Trazado 1065514" d="M317.632,191.113l-3.586,3.586,3.447,3.445" transform="translate(-289.518 -28.425)" fill="none" stroke="#34fbe7" stroke-linecap="round" stroke-linejoin="round" stroke-miterlimit="10" stroke-width="1"/>
              <path id="Trazado_1065515" data-name="Trazado 1065515" d="M341.552,125.31l-8.063,8.064,7.749,7.749" transform="translate(-283.627 -48.364)" fill="none" stroke="#34fbe7" stroke-linecap="round" stroke-linejoin="round" stroke-miterlimit="10" stroke-width="1"/>
              <path id="Trazado_1065516" data-name="Trazado 1065516" d="M347.741,125.31l-8.064,8.064,7.75,7.749" transform="translate(-281.752 -48.364)" fill="none" stroke="#34fbe7" stroke-linecap="round" stroke-linejoin="round" stroke-miterlimit="10" stroke-width="1"/>
              <line id="Línea_4321" data-name="Línea 4321" x2="76.469" transform="translate(36.995 162.688)" fill="none" stroke="#34fbe7" stroke-linecap="round" stroke-linejoin="round" stroke-miterlimit="10" stroke-width="1"/>
              <line id="Línea_4322" data-name="Línea 4322" x2="46.337" transform="translate(36.995 166.203)" fill="none" stroke="#34fbe7" stroke-linecap="round" stroke-linejoin="round" stroke-miterlimit="10" stroke-width="1"/>
              <line id="Línea_4323" data-name="Línea 4323" x2="46.337" transform="translate(36.995 171.153)" fill="none" stroke="#34fbe7" stroke-linecap="round" stroke-linejoin="round" stroke-miterlimit="10" stroke-width="1"/>
            </g>
            <circle id="Elipse_13926" data-name="Elipse 13926" cx="15.962" cy="15.962" r="15.962" transform="translate(71.605 64.857)" fill="none" stroke="#34fbe7" stroke-linecap="round" stroke-linejoin="round" stroke-miterlimit="10" stroke-width="1"/>
            <path id="Trazado_1065517" data-name="Trazado 1065517" d="M357.521,131.378a6.393,6.393,0,1,0,12.785,0Z" transform="translate(-276.345 -46.525)" fill="none" stroke="#34fbe7" stroke-linecap="round" stroke-linejoin="round" stroke-miterlimit="10" stroke-width="1"/>
            <path id="Trazado_1065518" data-name="Trazado 1065518" d="M355.141,126.994a3.1,3.1,0,1,1,6.2,0" transform="translate(-277.066 -48.793)" fill="none" stroke="#34fbe7" stroke-linecap="round" stroke-linejoin="round" stroke-miterlimit="10" stroke-width="1"/>
            <path id="Trazado_1065519" data-name="Trazado 1065519" d="M364.953,126.994a3.1,3.1,0,0,1,6.2,0" transform="translate(-274.093 -48.793)" fill="none" stroke="#34fbe7" stroke-linecap="round" stroke-linejoin="round" stroke-miterlimit="10" stroke-width="1"/>
            <line id="Línea_4324" data-name="Línea 4324" x2="13.159" transform="translate(101.028 96.253)" fill="none" stroke="#34fbe7" stroke-linecap="round" stroke-linejoin="round" stroke-miterlimit="10" stroke-width="1"/>
          </g>
          <g id="Grupo_1231431" data-name="Grupo 1231431" transform="translate(58.915 231.94)">
            <path id="Trazado_1065521" data-name="Trazado 1065521" d="M100.108,211.582a7.913,7.913,0,1,1,7.913-7.913A7.922,7.922,0,0,1,100.108,211.582Zm0-14.4a6.488,6.488,0,1,0,6.489,6.488A6.495,6.495,0,0,0,100.108,197.18Z" transform="translate(-92.195 -195.756)" fill="#dcb9fc"/>
          </g>
          <g id="Grupo_1231435" data-name="Grupo 1231435" transform="translate(91.416 429.224)">
            <path id="Trazado_1065522" data-name="Trazado 1065522" d="M153.828,351.381,135.267,332.82l18.561-18.563L172.39,332.82ZM138.952,332.82,153.828,347.7,168.7,332.82l-14.876-14.878Z" transform="translate(-135.267 -314.257)" fill="#dcb9fc"/>
          </g>
          <g id="Grupo_1231444" data-name="Grupo 1231444" transform="translate(223.921 161.646)">
            <path id="Trazado_1065529" data-name="Trazado 1065529" d="M241.784,126.671h-7.6a1.993,1.993,0,0,1-1.991-1.991v-4.472h-1.827a1.843,1.843,0,0,1-1.3-3.147l7.62-7.62a1.845,1.845,0,0,1,2.606,0l7.619,7.62a1.842,1.842,0,0,1-1.3,3.145h-1.827v4.472A2,2,0,0,1,241.784,126.671Zm-3.8-16.465a.543.543,0,0,0-.382.158l-7.62,7.62a.54.54,0,0,0,.382.921h3.13v5.775a.688.688,0,0,0,.688.688h7.6a.688.688,0,0,0,.688-.688v-5.775h3.13a.54.54,0,0,0,.38-.921l-7.619-7.62A.527.527,0,0,0,237.983,110.206Z" transform="translate(-228.517 -108.902)" fill="#dcb9fc"/>
          </g>
        </g>
      </g>
    </g>
  </g>
</svg>
