<svg xmlns="http://www.w3.org/2000/svg" xmlns:xlink="http://www.w3.org/1999/xlink" width="295" height="287" viewBox="0 0 295 287">
  <defs>
    <linearGradient id="linear-gradient" x1="0.5" x2="0.5" y2="1" gradientUnits="objectBoundingBox">
      <stop offset="0" stop-color="#903cdf"/>
      <stop offset="1" stop-color="#481e70"/>
    </linearGradient>
    <clipPath id="clip-path">
      <rect id="Rectángulo_424329" data-name="Rectángulo 424329" width="295" height="287" transform="translate(285 3790)" fill="#fff" stroke="#707070" stroke-width="1"/>
    </clipPath>
    <clipPath id="clip-path-2">
      <rect id="Rectángulo_424334" data-name="Rectángulo 424334" width="326" height="326" transform="translate(0 0)"/>
    </clipPath>
  </defs>
  <g id="Grupo_1230893" data-name="Grupo 1230893" transform="translate(-285 -3790)">
    <rect id="Rectángulo_422715" data-name="Rectángulo 422715" width="155" height="286" rx="13" transform="translate(355 3791)" fill="url(#linear-gradient)"/>
    <g id="Enmascarar_grupo_1211602" data-name="Enmascarar grupo 1211602" clip-path="url(#clip-path)">
      <g id="OBJECTS" transform="translate(269.999 3750.999)">
        <g id="Grupo_1230797" data-name="Grupo 1230797" transform="translate(22.344 8.732)">
          <g id="Grupo_1230796" data-name="Grupo 1230796">
            <g id="Grupo_1230792" data-name="Grupo 1230792" transform="translate(204.094 198.804)">
              <path id="Trazado_1064741" data-name="Trazado 1064741" d="M439.792,165.243a2.1,2.1,0,1,0,2.445,1.7A2.1,2.1,0,0,0,439.792,165.243Z" transform="translate(-430.884 -158.028)" fill="#9fbaf4"/>
              <path id="Trazado_1064742" data-name="Trazado 1064742" d="M445.62,163.317l-.531-2.935-2.837-.014a6.653,6.653,0,0,0-.63-.977l1.164-2.59-2.451-1.7-2.018,2a6.647,6.647,0,0,0-1.136-.248l-1.007-2.653-2.935.531-.014,2.838a6.651,6.651,0,0,0-.977.63l-2.59-1.164-1.7,2.451,2,2.018a6.646,6.646,0,0,0-.248,1.136l-2.653,1.007.531,2.935,2.838.014a6.655,6.655,0,0,0,.63.977l-1.164,2.59,2.451,1.7,2.018-2a6.646,6.646,0,0,0,1.136.248l1.007,2.653,2.935-.531.014-2.838a6.6,6.6,0,0,0,.977-.63l2.59,1.164,1.7-2.451-2-2.018a6.643,6.643,0,0,0,.248-1.136Zm-8.513,4.428a4.334,4.334,0,1,1,3.493-5.036A4.334,4.334,0,0,1,437.107,167.745Z" transform="translate(-427.052 -154.196)" fill="#9fbaf4"/>
            </g>
            <g id="Grupo_1230794" data-name="Grupo 1230794" transform="translate(186.3 132.828)">
              <path id="Trazado_1064745" data-name="Trazado 1064745" d="M328.521,224.5a1.406,1.406,0,1,0,1.633,1.133A1.406,1.406,0,0,0,328.521,224.5Z" transform="translate(-322.566 -219.677)" fill="#9fbaf4"/>
              <path id="Trazado_1064746" data-name="Trazado 1064746" d="M332.415,223.211l-.355-1.962-1.9-.01a4.4,4.4,0,0,0-.422-.653l.778-1.731-1.638-1.136-1.348,1.335a4.507,4.507,0,0,0-.76-.166l-.673-1.773-1.962.355-.01,1.9a4.487,4.487,0,0,0-.653.421l-1.731-.778-1.136,1.638L321.944,222a4.5,4.5,0,0,0-.166.76l-1.773.673.355,1.962,1.9.01a4.489,4.489,0,0,0,.421.653l-.779,1.731,1.638,1.136,1.349-1.335a4.492,4.492,0,0,0,.76.166l.673,1.773,1.962-.355.01-1.9a4.451,4.451,0,0,0,.653-.421l1.731.778,1.136-1.638-1.335-1.348a4.5,4.5,0,0,0,.166-.76Zm-5.689,2.959a2.9,2.9,0,1,1,2.335-3.366A2.9,2.9,0,0,1,326.725,226.17Z" transform="translate(-320.005 -217.115)" fill="#9fbaf4"/>
            </g>
            <g id="Grupo_1230795" data-name="Grupo 1230795" transform="translate(81.246 37.895)">
              <path id="Trazado_1064747" data-name="Trazado 1064747" d="M86.391,88.1a1.406,1.406,0,1,0,1.633,1.133A1.405,1.405,0,0,0,86.391,88.1Z" transform="translate(-80.436 -83.276)" fill="#9fbaf4"/>
              <path id="Trazado_1064748" data-name="Trazado 1064748" d="M90.285,86.81l-.355-1.962-1.9-.01a4.451,4.451,0,0,0-.421-.653l.778-1.731-1.638-1.136L85.4,82.653a4.427,4.427,0,0,0-.76-.166l-.673-1.773-1.962.355-.01,1.9a4.484,4.484,0,0,0-.653.421l-1.731-.778-1.136,1.638L79.814,85.6a4.5,4.5,0,0,0-.166.76l-1.773.673.355,1.962,1.9.01a4.487,4.487,0,0,0,.421.653l-.778,1.731,1.638,1.136,1.348-1.335a4.49,4.49,0,0,0,.76.166l.673,1.773,1.962-.355.01-1.9a4.45,4.45,0,0,0,.653-.421l1.731.778,1.136-1.638-1.335-1.348a4.428,4.428,0,0,0,.166-.76ZM84.6,89.769A2.9,2.9,0,1,1,86.93,86.4,2.9,2.9,0,0,1,84.6,89.769Z" transform="translate(-77.875 -80.715)" fill="#9fbaf4"/>
            </g>
            <path id="Trazado_1064750" data-name="Trazado 1064750" d="M158.756,225.587h-4.213v-4.213h-1.3v4.213h-4.213v1.3h4.213V231.1h1.3v-4.213h4.213Z" transform="translate(-74.205 -85.769)" fill="#9fbaf4"/>
          </g>
        </g>
        <g id="Grupo_1230839" data-name="Grupo 1230839" transform="translate(43.302 42.538)">
          <g id="Grupo_1230828" data-name="Grupo 1230828" transform="translate(0 0)">
            <g id="Grupo_1230800" data-name="Grupo 1230800" transform="translate(7.031 71.493)">
              <circle id="Elipse_13868" data-name="Elipse 13868" cx="14.753" cy="14.753" r="14.753" transform="translate(0.652 0.652)" fill="#ed59b9"/>
              <g id="Grupo_1230798" data-name="Grupo 1230798">
                <path id="Trazado_1064755" data-name="Trazado 1064755" d="M92.6,242.513a15.405,15.405,0,1,1,15.405-15.4A15.423,15.423,0,0,1,92.6,242.513Zm0-29.506a14.1,14.1,0,1,0,14.1,14.1A14.117,14.117,0,0,0,92.6,213.007Z" transform="translate(-77.197 -211.703)" fill="#fff"/>
              </g>
              <g id="Grupo_1230799" data-name="Grupo 1230799" transform="translate(9.522 7.399)">
                <path id="Trazado_1064756" data-name="Trazado 1064756" d="M105.5,230.417l-12.584-7.265a.739.739,0,0,0-1.109.64v14.531a.739.739,0,0,0,1.109.64L105.5,231.7A.739.739,0,0,0,105.5,230.417Z" transform="translate(-91.802 -223.051)" fill="#fff"/>
              </g>
            </g>
            <g id="Grupo_1230802" data-name="Grupo 1230802" transform="translate(164.062 25.834)">
              <circle id="Elipse_13869" data-name="Elipse 13869" cx="14.065" cy="14.065" r="14.065" transform="translate(0.652 0.652)" fill="#ed59b9"/>
              <g id="Grupo_1230801" data-name="Grupo 1230801">
                <path id="Trazado_1064757" data-name="Trazado 1064757" d="M332.758,171.108a14.717,14.717,0,1,1,14.716-14.717A14.734,14.734,0,0,1,332.758,171.108Zm0-28.13a13.413,13.413,0,1,0,13.412,13.413A13.428,13.428,0,0,0,332.758,142.978Z" transform="translate(-318.041 -141.674)" fill="#fff"/>
              </g>
              <path id="XMLID_168_" d="M344.882,159.472c0-5.057-5.92-7.78-9.156-2.41-3.236-5.371-9.156-2.647-9.156,2.41s6.058,7.5,9.156,10.326h0C338.824,166.975,344.882,164.529,344.882,159.472Z" transform="translate(-321.009 -146.008)" fill="#fff"/>
            </g>
            <g id="Grupo_1230804" data-name="Grupo 1230804" transform="translate(0 123.104)">
              <circle id="Elipse_13870" data-name="Elipse 13870" cx="20.459" cy="20.459" r="20.459" transform="translate(0.652 0.653)" fill="#fab856"/>
              <g id="Grupo_1230803" data-name="Grupo 1230803">
                <path id="Trazado_1064758" data-name="Trazado 1064758" d="M87.523,333.083a21.111,21.111,0,1,1,21.111-21.111A21.135,21.135,0,0,1,87.523,333.083Zm0-40.918a19.807,19.807,0,1,0,19.807,19.806A19.829,19.829,0,0,0,87.523,292.165Z" transform="translate(-66.413 -290.861)" fill="#fff"/>
              </g>
              <g id="XMLID_123_" transform="translate(6.18 8.788)">
                <path id="XMLID_166_" d="M105.752,315.031c0-5.9-6.684-10.691-14.93-10.691s-14.93,4.786-14.93,10.691,6.684,10.691,14.93,10.691a20.759,20.759,0,0,0,3.088-.23v3.493l4.6-4.787C102.847,322.328,105.752,318.923,105.752,315.031Z" transform="translate(-75.892 -304.34)" fill="#f5fcfc"/>
                <path id="XMLID_165_" d="M88.258,319.745a1.858,1.858,0,1,1-1.858-1.858A1.858,1.858,0,0,1,88.258,319.745Z" transform="translate(-78.902 -309.054)" fill="#506def"/>
                <path id="XMLID_130_" d="M99.657,319.745a1.858,1.858,0,1,1-1.858-1.858A1.858,1.858,0,0,1,99.657,319.745Z" transform="translate(-82.869 -309.054)" fill="#506def"/>
                <path id="XMLID_126_" d="M111.056,319.745a1.858,1.858,0,1,1-1.858-1.858A1.858,1.858,0,0,1,111.056,319.745Z" transform="translate(-86.836 -309.054)" fill="#506def"/>
              </g>
            </g>
            <g id="Grupo_1230813" data-name="Grupo 1230813" transform="translate(187.125 64.272)">
              <circle id="Elipse_13871" data-name="Elipse 13871" cx="19.278" cy="19.278" r="19.278" transform="matrix(0.582, -0.813, 0.813, 0.582, 0, 31.346)" fill="#fab856"/>
              <g id="Grupo_1230805" data-name="Grupo 1230805" transform="translate(7.083 7.097)">
                <path id="Trazado_1064759" data-name="Trazado 1064759" d="M384.1,251.14h-.223a19.814,19.814,0,0,1,.211-39.627h.223a19.837,19.837,0,0,1,19.6,20.029l-.537-.006.537.006a19.813,19.813,0,0,1-19.807,19.6Zm-.012-38.555a18.758,18.758,0,1,0,.211,0Z" transform="translate(-364.277 -211.512)" fill="#fff"/>
              </g>
              <path id="Trazado_1064760" data-name="Trazado 1064760" d="M389.672,256.647a2.924,2.924,0,1,1-2.892-2.956A2.923,2.923,0,0,1,389.672,256.647Z" transform="translate(-363.997 -219.093)" fill="#506def"/>
              <path id="Trazado_1064761" data-name="Trazado 1064761" d="M404.545,256.81a2.923,2.923,0,1,1-2.891-2.956A2.924,2.924,0,0,1,404.545,256.81Z" transform="translate(-369.173 -219.15)" fill="#506def"/>
              <path id="Trazado_1064762" data-name="Trazado 1064762" d="M378.634,230.34l3.432,10.5,16.67.183,3.147-12.049Z" transform="translate(-362.19 -210.492)" fill="#fff"/>
              <g id="Grupo_1230806" data-name="Grupo 1230806" transform="translate(12.205 16.993)">
                <path id="Trazado_1064763" data-name="Trazado 1064763" d="M396.474,240.229a24.456,24.456,0,0,1-4.877.289c-3.014.055-7.182.065-11.8.016l-.35,0-.108-.334-.085-.261c-1.675-5.176-3.1-9.805-3.94-12.79l.354.2a15.461,15.461,0,0,1-3.536.535,15.461,15.461,0,0,1,3.4-1.118l.256-.071.1.27c1.063,2.914,2.624,7.5,4.3,12.674l.085.261-.458-.337c4.616.053,8.782.153,11.795.275A24.56,24.56,0,0,1,396.474,240.229Z" transform="translate(-372.133 -226.69)" fill="#506def"/>
              </g>
              <g id="Grupo_1230807" data-name="Grupo 1230807" transform="translate(20.743 32.397)">
                <path id="Trazado_1064764" data-name="Trazado 1064764" d="M398.949,250.884c0,.269-3.077.454-6.866.412s-6.858-.293-6.855-.563,3.077-.454,6.866-.412S398.952,250.614,398.949,250.884Z" transform="translate(-385.228 -250.315)" fill="#506def"/>
              </g>
              <g id="Grupo_1230808" data-name="Grupo 1230808" transform="translate(19.04 27.135)">
                <path id="Trazado_1064765" data-name="Trazado 1064765" d="M400.911,242.621c0,.269-4.089.544-9.14.615s-9.15-.091-9.154-.36,4.089-.544,9.14-.615S400.907,242.352,400.911,242.621Z" transform="translate(-382.616 -242.244)" fill="#506def"/>
              </g>
              <g id="Grupo_1230809" data-name="Grupo 1230809" transform="translate(17.775 23.127)">
                <path id="Trazado_1064766" data-name="Trazado 1064766" d="M401.295,236.426c.005.269-4.606.576-10.3.686s-10.314-.02-10.319-.289,4.606-.576,10.3-.686S401.289,236.157,401.295,236.426Z" transform="translate(-380.675 -236.098)" fill="#506def"/>
              </g>
              <g id="Grupo_1230810" data-name="Grupo 1230810" transform="translate(20.78 19.181)">
                <path id="Trazado_1064767" data-name="Trazado 1064767" d="M387.335,241.246c-.265.046-.914-2.424-1.449-5.517s-.754-5.638-.488-5.684.914,2.424,1.449,5.517S387.6,241.2,387.335,241.246Z" transform="translate(-385.284 -230.045)" fill="#506def"/>
              </g>
              <g id="Grupo_1230811" data-name="Grupo 1230811" transform="translate(27.378 19.184)">
                <path id="Trazado_1064768" data-name="Trazado 1064768" d="M396.036,241.3c-.269.006-.544-2.508-.615-5.616s.09-5.632.359-5.639.544,2.508.616,5.616S396.3,241.3,396.036,241.3Z" transform="translate(-395.404 -230.05)" fill="#506def"/>
              </g>
              <g id="Grupo_1230812" data-name="Grupo 1230812" transform="translate(33.631 18.756)">
                <path id="Trazado_1064769" data-name="Trazado 1064769" d="M405.16,241.14c-.267-.029-.2-2.681.142-5.925s.844-5.85,1.112-5.821.2,2.681-.142,5.925S405.428,241.168,405.16,241.14Z" transform="translate(-404.994 -229.394)" fill="#506def"/>
              </g>
            </g>
            <g id="Grupo_1230816" data-name="Grupo 1230816" transform="translate(32.873 16.731)">
              <circle id="Elipse_13872" data-name="Elipse 13872" cx="17.112" cy="17.112" r="17.112" transform="matrix(0.91, -0.414, 0.414, 0.91, 0, 14.155)" fill="#506def"/>
              <g id="Grupo_1230814" data-name="Grupo 1230814" transform="translate(5.033 5.034)">
                <path id="Trazado_1064770" data-name="Trazado 1064770" d="M142.179,170.674h-.219a17.621,17.621,0,1,1,17.834-17.406h0a17.621,17.621,0,0,1-17.614,17.408Zm-.011-34.225a16.611,16.611,0,1,0,.207,0Z" transform="translate(-124.552 -135.433)" fill="#fff"/>
              </g>
              <g id="Grupo_1230815" data-name="Grupo 1230815" transform="translate(12.718 13.096)">
                <path id="Trazado_1064771" data-name="Trazado 1064771" d="M156.15,157.079c-.044,3.618-1.576,5.775-4.085,5.745a2.532,2.532,0,0,1-2.634-1.852,4.294,4.294,0,0,1-3.787,1.774,5.321,5.321,0,0,1,.128-10.625,4.356,4.356,0,0,1,3.475,1.527l.016-1.359,2.322.028-.086,7.111c-.013,1.067.484,1.429,1.071,1.436,1.129.014,1.773-1.3,1.8-3.765.054-4.476-3.173-7.527-7.941-7.585-4.852-.059-8.112,3.144-8.168,7.7-.056,4.622,3.085,7.881,7.9,7.939a9.232,9.232,0,0,0,4.068-.871l.544,1.68a10.9,10.9,0,0,1-4.634.927c-5.94-.072-9.865-4.157-9.8-9.7.066-5.48,4.13-9.468,10.113-9.4C152.223,147.87,156.214,151.746,156.15,157.079Zm-6.908.377a3.1,3.1,0,1,0-3.135,3.267A3,3,0,0,0,149.242,157.456Z" transform="translate(-136.338 -147.799)" fill="#fff"/>
              </g>
            </g>
            <g id="Grupo_1230825" data-name="Grupo 1230825" transform="translate(100.355)">
              <circle id="Elipse_13873" data-name="Elipse 13873" cx="18.227" cy="18.227" r="18.227" transform="translate(0 35.456) rotate(-76.556)" fill="#e58435"/>
              <g id="Grupo_1230817" data-name="Grupo 1230817" transform="translate(3.091 3.09)">
                <path id="Trazado_1064772" data-name="Trazado 1064772" d="M243.951,144.551a18.88,18.88,0,1,1,18.879-18.88A18.9,18.9,0,0,1,243.951,144.551Zm0-36.456a17.576,17.576,0,1,0,17.575,17.576A17.6,17.6,0,0,0,243.951,108.1Z" transform="translate(-225.072 -106.791)" fill="#fff"/>
              </g>
              <g id="Grupo_1230824" data-name="Grupo 1230824" transform="translate(8.798 9.025)">
                <g id="Grupo_1230818" data-name="Grupo 1230818">
                  <path id="Trazado_1064773" data-name="Trazado 1064773" d="M247,116.04c0,.059-.273.13-.782.212a7.436,7.436,0,0,0-.932.177,9.993,9.993,0,0,0-1.243.323,12.463,12.463,0,0,0-6.454,4.57,11.835,11.835,0,0,0-1.537,11.134,10.981,10.981,0,0,0,1.607,2.933,13.267,13.267,0,0,0,1.129,1.312,13.406,13.406,0,0,0,1.353,1.131,11.614,11.614,0,0,0,13.719,0,10.652,10.652,0,0,0,2.482-2.444,10.963,10.963,0,0,0,1.607-2.933,11.835,11.835,0,0,0-1.537-11.134,12.456,12.456,0,0,0-6.454-4.569,9.877,9.877,0,0,0-1.243-.323,7.436,7.436,0,0,0-.932-.177c-.509-.081-.782-.153-.782-.213s.273-.1.8-.132a5.062,5.062,0,0,1,.981.018,8.191,8.191,0,0,1,1.334.181,11.562,11.562,0,0,1,3.48,1.282,12.6,12.6,0,0,1,3.772,3.2,12.814,12.814,0,0,1,2.548,5.469,13.107,13.107,0,0,1-.492,6.935,12.375,12.375,0,0,1-1.776,3.368,12.114,12.114,0,0,1-2.8,2.821,12.807,12.807,0,0,1-3.656,1.912,13.094,13.094,0,0,1-8.39,0,12.807,12.807,0,0,1-3.656-1.912,12.129,12.129,0,0,1-2.8-2.821,12.4,12.4,0,0,1-1.776-3.368,13.1,13.1,0,0,1-.492-6.935,12.822,12.822,0,0,1,2.548-5.469,12.6,12.6,0,0,1,3.772-3.2,11.526,11.526,0,0,1,3.48-1.282,8.191,8.191,0,0,1,1.334-.181,5.062,5.062,0,0,1,.981-.018C246.724,115.938,247,115.982,247,116.04Z" transform="translate(-233.826 -115.893)" fill="#fff"/>
                </g>
                <g id="Grupo_1230819" data-name="Grupo 1230819" transform="translate(3.486 17.109)">
                  <path id="Trazado_1064774" data-name="Trazado 1064774" d="M258.351,145.657c-.15.2-1.136-.324-2.817-.825a24.04,24.04,0,0,0-6.74-.989,24.718,24.718,0,0,0-6.765.858c-1.7.462-2.7.953-2.843.745-.13-.174.692-1.069,2.422-1.876a16.956,16.956,0,0,1,7.2-1.434,16.665,16.665,0,0,1,7.174,1.576C257.7,144.561,258.487,145.49,258.351,145.657Z" transform="translate(-239.172 -142.133)" fill="#fff"/>
                </g>
                <g id="Grupo_1230820" data-name="Grupo 1230820" transform="translate(3.494 4.505)">
                  <path id="Trazado_1064775" data-name="Trazado 1064775" d="M258.355,122.847c.136.168-.655,1.1-2.367,1.947a16.655,16.655,0,0,1-7.171,1.576,16.926,16.926,0,0,1-7.2-1.434c-1.729-.808-2.551-1.7-2.421-1.876.142-.209,1.148.282,2.842.745a24.672,24.672,0,0,0,6.762.858,24.052,24.052,0,0,0,6.738-.989C257.219,123.17,258.2,122.642,258.355,122.847Z" transform="translate(-239.185 -122.802)" fill="#fff"/>
                </g>
                <g id="Grupo_1230821" data-name="Grupo 1230821" transform="translate(12.318 0.148)">
                  <ellipse id="Elipse_13874" data-name="Elipse 13874" cx="0.854" cy="12.445" rx="0.854" ry="12.445" fill="#fff"/>
                </g>
                <g id="Grupo_1230822" data-name="Grupo 1230822" transform="translate(0.727 11.738)">
                  <ellipse id="Elipse_13875" data-name="Elipse 13875" cx="12.445" cy="0.854" rx="12.445" ry="0.854" fill="#fff"/>
                </g>
                <g id="Grupo_1230823" data-name="Grupo 1230823" transform="translate(6.161 0.039)">
                  <path id="Trazado_1064776" data-name="Trazado 1064776" d="M250.286,116.061c.02.168-.9.1-2,1.063a7.393,7.393,0,0,0-1.609,2.062,14.379,14.379,0,0,0-1.259,3.308,23.832,23.832,0,0,0-.4,9.236,17.465,17.465,0,0,0,1.551,5.154,8.427,8.427,0,0,0,1.564,2.2,2.777,2.777,0,0,0,4.3,0,8.426,8.426,0,0,0,1.564-2.2,17.464,17.464,0,0,0,1.551-5.154,23.832,23.832,0,0,0-.4-9.236,14.355,14.355,0,0,0-1.259-3.308,7.393,7.393,0,0,0-1.609-2.062c-1.093-.966-2.015-.9-2-1.063,0-.059.211-.1.643-.108a5.059,5.059,0,0,1,.776.155,4.438,4.438,0,0,1,.97.481,7.262,7.262,0,0,1,2.032,2.1,14,14,0,0,1,1.6,3.467,23.378,23.378,0,0,1,.8,9.79,18.382,18.382,0,0,1-1.613,5.684,9.891,9.891,0,0,1-1.885,2.674,4.435,4.435,0,0,1-6.646,0,9.93,9.93,0,0,1-1.885-2.674,18.371,18.371,0,0,1-1.613-5.684,23.379,23.379,0,0,1,.8-9.79,13.954,13.954,0,0,1,1.6-3.467,7.278,7.278,0,0,1,2.032-2.1,4.437,4.437,0,0,1,.97-.481,5.089,5.089,0,0,1,.776-.155C250.075,115.965,250.287,116,250.286,116.061Z" transform="translate(-243.275 -115.953)" fill="#fff"/>
                </g>
              </g>
            </g>
            <g id="Grupo_1230827" data-name="Grupo 1230827" transform="translate(198.289 129.628)">
              <circle id="Elipse_13876" data-name="Elipse 13876" cx="17.727" cy="17.727" r="17.727" transform="translate(0.652 0.651)" fill="#506def"/>
              <g id="Grupo_1230826" data-name="Grupo 1230826">
                <path id="Trazado_1064777" data-name="Trazado 1064777" d="M388.916,337.625A18.379,18.379,0,1,1,407.3,319.246,18.4,18.4,0,0,1,388.916,337.625Zm0-35.455a17.075,17.075,0,1,0,17.075,17.075A17.095,17.095,0,0,0,388.916,302.17Z" transform="translate(-370.537 -300.867)" fill="#fff"/>
              </g>
              <g id="XMLID_169_" transform="translate(9.846 9.668)">
                <path id="XMLID_193_" d="M398.311,321.186l-.025-5.491-5.041.023.025,5.491-2.856.013,5.407,6.519,5.346-6.569Z" transform="translate(-387.3 -315.695)" fill="#fab856"/>
                <path id="XMLID_192_" d="M401.1,331.332l.022,4.531-13.89.065-.022-4.53-1.568.007.022,4.531.007,1.493,17.025-.08-.007-1.494-.021-4.53Z" transform="translate(-385.638 -321.134)" fill="#fff"/>
              </g>
            </g>
          </g>
          <g id="Grupo_1230838" data-name="Grupo 1230838" transform="translate(20.458 22.01)">
            <g id="Grupo_1230829" data-name="Grupo 1230829" transform="translate(0 79.642)">
              <path id="Trazado_1064778" data-name="Trazado 1064778" d="M99.1,280.063h-1.3V276.8h1.3Zm0-6.52h-1.3v-3.26h1.3Zm0-6.52h-1.3v-3.26h1.3Zm0-6.52h-1.3v-2.545h1.3Z" transform="translate(-97.791 -257.958)" fill="#fff"/>
            </g>
            <g id="Grupo_1230830" data-name="Grupo 1230830" transform="translate(9.549 33.953)">
              <path id="Trazado_1064779" data-name="Trazado 1064779" d="M113.478,206.874l-1.041-.786,1.966-2.6,1.041.786Zm3.932-5.2-1.041-.786,1.966-2.6,1.041.786Zm3.932-5.2-1.041-.786,1.966-2.6,1.041.786Zm3.932-5.2-1.041-.786,1.966-2.6,1.041.786Z" transform="translate(-112.437 -187.883)" fill="#fff"/>
            </g>
            <g id="Grupo_1230831" data-name="Grupo 1230831" transform="translate(58.925)">
              <path id="Trazado_1064780" data-name="Trazado 1064780" d="M188.5,142.965l-.337-1.26,3.149-.842.337,1.26Zm6.3-1.685-.337-1.26,3.15-.842.337,1.26Zm6.3-1.685-.337-1.26,3.149-.842.337,1.26Zm6.3-1.685-.337-1.26,3.149-.842.337,1.26Z" transform="translate(-188.167 -135.808)" fill="#fff"/>
            </g>
            <g id="Grupo_1230832" data-name="Grupo 1230832" transform="translate(119.912 1.649)">
              <path id="Trazado_1064781" data-name="Trazado 1064781" d="M307.461,149.244l-1.346-.506.458-1.221,1.345.506Zm-4.4-1.653-3.051-1.148.46-1.221,3.051,1.148Zm-6.1-2.3-3.051-1.148.46-1.221,3.051,1.148Zm-6.1-2.3-3.051-1.148.46-1.221,3.051,1.148Zm-6.1-2.3-3.051-1.148.46-1.221,3.051,1.148Z" transform="translate(-281.704 -138.337)" fill="#fff"/>
            </g>
            <g id="Grupo_1230833" data-name="Grupo 1230833" transform="translate(168.068 27.758)">
              <path id="Trazado_1064782" data-name="Trazado 1064782" d="M370.131,196.779l-2.081-2.51,1-.832,2.081,2.51Zm-4.162-5.019-2.081-2.51,1-.832,2.081,2.51Zm-4.162-5.018-2.081-2.51,1-.832,2.081,2.51Zm-4.162-5.018-2.081-2.51,1-.832,2.081,2.51Z" transform="translate(-355.564 -178.381)" fill="#fff"/>
            </g>
            <g id="Grupo_1230837" data-name="Grupo 1230837" transform="translate(195.484 93.272)">
              <g id="Grupo_1230834" data-name="Grupo 1230834" transform="translate(0 0)">
                <rect id="Rectángulo_424331" data-name="Rectángulo 424331" width="1.304" height="1.63" transform="translate(0 0.007) rotate(-0.292)" fill="#fff"/>
              </g>
              <g id="Grupo_1230835" data-name="Grupo 1230835" transform="translate(0.033 5.538)">
                <rect id="Rectángulo_424332" data-name="Rectángulo 424332" width="1.304" height="3.911" transform="translate(0 0.007) rotate(-0.309)" fill="#fff"/>
              </g>
              <g id="Grupo_1230836" data-name="Grupo 1230836" transform="translate(0.073 13.362)">
                <rect id="Rectángulo_424333" data-name="Rectángulo 424333" width="1.304" height="1.63" transform="matrix(1, -0.005, 0.005, 1, 0, 0.007)" fill="#fff"/>
              </g>
            </g>
          </g>
        </g>
        <g id="Grupo_1230853" data-name="Grupo 1230853" transform="translate(0.001 0.001)">
          <g id="Grupo_1230852" data-name="Grupo 1230852" clip-path="url(#clip-path-2)">
            <g id="Grupo_1230851" data-name="Grupo 1230851" transform="translate(45.795 215.195)">
              <g id="Grupo_1230850" data-name="Grupo 1230850">
                <g id="Grupo_1230849" data-name="Grupo 1230849">
                  <path id="Trazado_1064783" data-name="Trazado 1064783" d="M302.223,459.269c-13.035,58.172-74.991,95.634-138.382,83.672S59.629,474.123,72.664,415.951a101.172,101.172,0,0,1,6.772-20.075c9.971-21.822,27.338-39.51,48.746-51.037a125.8,125.8,0,0,1,82.865-12.56c30.388,5.734,55.575,21.777,72.147,43.35a101.284,101.284,0,0,1,21.444,63.14l0,.009A99.388,99.388,0,0,1,302.223,459.269Z" transform="translate(-70.239 -330.055)" fill="#7095d6"/>
                  <g id="Grupo_1230847" data-name="Grupo 1230847" transform="translate(9.198 14.298)">
                    <g id="Grupo_1230840" data-name="Grupo 1230840" transform="translate(0 0.488)">
                      <path id="Trazado_1064784" data-name="Trazado 1064784" d="M179.063,367.92c-.909-.03-1.491-.508-2.214.1-.925.779-.321,1.525-1.68,1.807-1.909.4-3.581-.959-5.4-1.028-1.869-.06-2.831.514-4.06-1.531-1.925-3.158,6.4-4.551,3.328-6.4-1.106-.662-2.57-.145-3.781-.251-.747-.065-1.092-.451-1.688.05-.659.555-.343,1.8-.819,2.508-.957,1.424-2.079.419-3.552.519a1.644,1.644,0,0,0-1.446.577c-.462.545.145,1.878-.364,2.31-1.166.979-4.848-.537-6.043-1.263-1.859-1.116-4.449-2.595-6.749-1.282-1.487.852-.586,2.523-2.765,2.518-1.573,0-4.825-1.42-4.833,1.183-.007,2.094,3.171,3.156,4.867,3.713,1.3.425,4.164.465,5.215,1.286,1.477,1.166-.471,2.791-.782,3.949-.563,2.055,2.735,3.952,3.587,1.668.49-1.314.312-2.263,2.163-2.49.783-.1,2.349.443,3.028-.155.362-.328.284-1.636.357-2.094.393-2.352,1.822-3.356,4.388-3.883.692-.153,2.079-.419,2.739-.012,1.022.627.506,2.011.653,2.965.432,2.753,3.309,2.172,5.22.758,1.61.71,2.371,1.354,1.245,2.755-.3.359-.976.363-.977.92s1.314,1.069,1.727,1.336c1.734,1.12,2.8,1.775,3.143,3.784.263,1.532-.222,2.045-1.791,2.485.183,1.894,4.054,5.825.042,6.7-1.753.387-2.836-.611-4.337-1.073-1.395-.433-3.242-.036-4.709-.01a2.621,2.621,0,0,1,.4-2.323c.273-.392.924-.449,1.079-.958.62-1.988-3.9-2.341-5.19-2.594-.145,1.247.209,3.655-.989,4.552.344.716,1.245.735,1.775,1.26a2.407,2.407,0,0,1-.769,3.48c-1.218.478-2.7-.378-3.758-.765-1.149-.424-3.932-1.365-5.074-1.089-1.4.331-1.494,2.125-3,2.626-2.512.838-5.093-.867-7.515-.295-1.684.4-2.081,1.892-2.532,3.222-.509,1.49-1.3,3.588-2.986,4.327-2.213.97-5.77-.966-7.426,1.053-1.119,1.365-1.962,10.684-5.011,6.294-.77-1.108-.512-3.042-1.32-3.978a5.929,5.929,0,0,0-2.882-1.138c-1.221-.155-1.572.449-2.617.8-2.772.94-5.314-1.673-8.1-1.585-3.427.1-4.081,2.42-4.674,5.112a13.2,13.2,0,0,1-.605,2.746c-.51,1.084-2,1.936-2.161,3.17-.3,2.369,3.039,3.7,5.048,3.775a5.365,5.365,0,0,0,3.107-.782c1.138-.72,1.138-1.909,2.022-2.734,1.1-1.019,2.221-.591,3.52-.006,2.225,1,3.006,1.228,1.393,2.783-.785.749-2.721,2.139-2.47,3.357.321,1.5,2,1.105,3,1.859,1.609,1.219-.23,2.77-.968,4.226-.971,1.9-.211,2.226.594,3.869.875.363,2.978,2.545,1.768,3.355,1.528.2,1.3,1.577-.059,1.962-2.318.658-3.347-1.727-4.618-3.033-1.063-1.088-2.834-1.4-3.589-2.622-1.217-1.957.192-3.522-.467-5.441-.612-1.768-2.763-1.258-4.413-1.654-2.021-.485-2.855-2.455-4.8-2.972-2.555-.671-5.33-.5-7.154-2.6-1.69-1.961-.939-4.944-1.076-7.273-.218-3.846-3.967-4.147-5.917-6.554,9.971-21.822,27.338-39.51,48.746-51.037a5.032,5.032,0,0,1,1.97,2.363c.608,1.464,1.057,1.71,2.856,1.624a4.957,4.957,0,0,1,2.515.068c1.076.477,1.724,1.58,2.8,2.1,1.734.846,5.44.743,6.445-1.219.66-1.292.258-2.066,2.528-2.1,1.834-.013,2.056,1.52,3.379,2.365a1.718,1.718,0,0,0,2.573-.327c.8-1.039.426-.892,1.555-1.614,1-.633,1.231-1.731,2.414-1.867,1.845-.2,3.543,1.405,5.2,1.821,2.7.67,8.122-2.092,9.011,2.342.2.953-.421,1.374.132,2.347.88,1.535,2.911,2.711,4.076,4.12C181.829,366.318,181.461,368,179.063,367.92Z" transform="translate(-84.347 -352.733)" fill="#4874b5"/>
                    </g>
                    <g id="Grupo_1230841" data-name="Grupo 1230841" transform="translate(25.691 78.129)">
                      <path id="Trazado_1064785" data-name="Trazado 1064785" d="M141.106,472.274c-1.533.868-1.876,2.738-3.727,3.011-1.086.16-2.281-.087-3.378.438-1.924.92-.379,1.573-.022,2.893.217.8-.254,1.2-.777,1.8a7.926,7.926,0,0,0-1.588,1.865c-.263.585-.17,1.243-.531,1.8-1.254,1.953-3.952,2.111-5.843,3.067-.681.344-1.612,1.258-1.477,2.088.151.922,1.041.883,1.443,1.6.787,1.411-.735,2.347-1.192,3.534s.085,2.135.614,3.208c1.628,3.3,3.649,5.874,3.949,9.589.176,2.178.709,3.091,2.875,4.1,2.2,1.022,4.325,1.8,4.713,4.306.342,2.216-.733,3.864-1.531,5.824-.964,2.367-.134,3.421.582,5.694.885,2.812.053,3.834-1.84,5.947a3.654,3.654,0,0,0-1.039,3.638,8.913,8.913,0,0,1,0,4.438c-.274,1.208.13,2.347-.12,3.466-.519,2.324.238,4.286,1.466,6.292,1.213,1.981.886,3.665.561,5.873-.25,1.7-.4,4.039,1.177,5.288,1.513,1.2,3.87,1.42,5.455,2.64a15.066,15.066,0,0,1,1.959,1.565c.563.657.729,1.49,1.492,2.045,1.262.918,4.16.867,3.568-1.105-.23-.765-1.037-1.121-1.606-1.623a13.455,13.455,0,0,1-2.729-3.029,3.512,3.512,0,0,1,.216-3.832c1.162-1.572,2.549-2.229,2.154-4.4-.539-2.952-4.475-5.878-.125-8.223,1.093-.589,2.03-.265,3.16-.63,1.217-.394,2.124-1.667,3.1-2.387,1.951-1.433,3.288-2.553,3.421-4.912.154-2.734,2.772-2.448,5.292-3.057,3.42-.827,2.444-3.187,3.839-5.528.716-1.2,1.758-1.165,3.113-1.235a17.792,17.792,0,0,0,3.622-.5,19.385,19.385,0,0,0,4.632-1.444c1.942-1.206,2.092-4.434,1.946-6.346-.2-2.583.483-4.324,3.276-5.3a7.327,7.327,0,0,0,5.224-6.424,6.528,6.528,0,0,0-1.337-4.4,17.326,17.326,0,0,0-3.394-3.292,7.22,7.22,0,0,0-2.5-.674,20.616,20.616,0,0,1-9.367-4.609c-2.438-2.027-1.218-4.564-2.517-7.061-1.324-2.545-4-3.218-6.686-4.065a11.525,11.525,0,0,1-6.541-6.022c-.549-1.518.056-2.521-1.592-3.632-2.019-1.36-3.633-.322-5.717-.867C144.627,473.129,143.62,470.85,141.106,472.274Z" transform="translate(-123.75 -471.813)" fill="#4874b5"/>
                    </g>
                    <g id="Grupo_1230842" data-name="Grupo 1230842" transform="translate(116.289 63.224)">
                      <path id="Trazado_1064786" data-name="Trazado 1064786" d="M290.428,536.876c.139,2.771,3.09,4.992,3.092,7.805,0,2.2-3.259,6.4.864,7.164a11.005,11.005,0,0,0,7.779-1.433c1.565-1.1,2.854-2.478,4.722-3.148,2.219-.8,4.48-.747,6.2-2.521,1.687-1.739,2.468-4.785,2.905-7.052.2-1.058-.188-2.9.578-3.742.78-.861,3.21-1.333,4.252-1.856a13,13,0,0,0,2.422-1.575,13.678,13.678,0,0,0,3.055-3.134c1.241-2.308-.089-4.867-.314-7.185-.461-4.744,2.564-6.828,6.839-8.518a21.773,21.773,0,0,0,4.561-2.043c1.339-.984,1.642-2.568,2.391-3.881,1.35-2.367,4.3-1.959,5.9-3.984,1.262-1.59,3.031-3.861,3.259-5.862-1.384-.436-2.907.493-4.353.341a5.166,5.166,0,0,1-3.1-2c-1-1.127-1.172-2.474-1.993-3.694a5.541,5.541,0,0,0-2.551-2.089c-.826-.341-1.927-.385-2.588-.993-.79-.726-1.232-2.952-1.58-3.9-.734-2-1.457-3.977-2.356-5.918-.977-2.109-2.525-4.161-2-6.518.348-1.578,2.1-3.264,1.672-4.9-.655-2.474-4.211-3.294-6.569-3.636a11.627,11.627,0,0,1-1.845-.189c-1.687-.533-3.033-2.055-4.507-2.962-2.446-1.5-1.665-.88-3.38.738-1.358,1.281-2.345.4-3.654-.711-1.075-.91-2.476-1.863-2.924-3.218-.477-1.444.045-2.788-1.03-4.118-1.2-1.487-3.237-1.456-5.145-1.61-5.631-.457-11.745-2.857-17.214-.709-1.82.715-3.15,2.136-4.882,2.97-1.861.9-3.306,1.456-4.166,3.369-.658,1.464-.781,2.4-2.436,3.162-2.3,1.057-4.567,1.266-5.545,3.763-.529,1.35-.068,2.956-.82,4.2-1.028,1.709-2.841,2.665-3.218,4.818-.379,2.174,1.79,4.411,2.21,6.607.651,3.4-.658,7.066.593,10.355,1.3,3.417,4.074,3.366,7.429,3.524,4,.188,8.012.229,11.974.707.937.113,2.283.474,3.183.107,1.107-.452.882-1.395,1.6-2.12,1.321-1.336,2.129-.06,2.8,1.232.722,1.385,1.1,2.164.246,3.365-.562.79-1.126,1.207-1.294,2.235-.115.7.246,1.473-.094,2.157-.5,1-1.773,1.335-1.492,2.659.158.745.82,1.093,1.377,1.568a12.7,12.7,0,0,1,3.46,3.78,5.156,5.156,0,0,1-.425,5.111c-1.371,2.113-3.312,4.107-3.926,6.583-.5,2,1.067,3.27,1.473,5.107.439,1.991-.7,2.725-1.635,4.373-1.6,2.817,2.045,5.6.851,8.611" transform="translate(-262.704 -448.953)" fill="#4874b5"/>
                    </g>
                    <g id="Grupo_1230843" data-name="Grupo 1230843" transform="translate(132.343 24.531)">
                      <path id="Trazado_1064787" data-name="Trazado 1064787" d="M380.182,459.493l0,.009a13.446,13.446,0,0,1-4.855.273c-2.154-.256-3.328-1.629-5.037-2.631-1.865-1.088-3.883-1.356-5.792-2.566a21.74,21.74,0,0,1-5-4.455c-.536-.639-.612-1.031-1.442-1.188-1.856-.35-2.4,1.058-1.9,2.275a12,12,0,0,0,2.73,3.47c1.49,1.612,2.447,5.238,5.166,3.25,1.768-1.281,1.554-1.057,2.581.968.871,1.713,2.886,1.121,3.99,2.622,2.191,2.981-.616,3.669-3.227,4.394-2.282.636-3.748,2.361-5.565,3.717-1.509,1.131-4.59,2.305-6.67,1.856-1.717-.371-2.212-2.57-3.02-3.874-1.329-2.148-3.519-1.419-5.551-2.728-2.124-1.354-2.338-4.3-3.27-6.337-1.555-3.39-5.755-7.694-2.419-11.331,1.253-1.369,3.269-2.1,4.426-3.592.9-1.153,1.855-3.275.835-4.506-1.044-1.264-3.55-1.415-5.076-1.723-1.553-.321-3.141-.536-4.69-.876a9.392,9.392,0,0,1-3.475-1.2,1.434,1.434,0,0,1-.793-1.094,4.65,4.65,0,0,1,.142-2.012c.263-.809,1.035-1.362.519-2.177-.3-.462-1.544-1.236-2.18-1.015-.334.116-.619.742-.761,1.008a2.266,2.266,0,0,0-.182,1.637,3.708,3.708,0,0,1-.328,2.336,2.044,2.044,0,0,1-2.322.723,2,2,0,0,1-1.221-1.807,2.067,2.067,0,0,0-.032-.912c-.16-.436-.42-.835-.544-1.292-.488-1.678-.3-3.512-1.273-5.064-.756-1.219-1.893-3.029-3.342-3.538-.828-.3-2.267-.258-2.3.888-.016.715,1.531,2.12,1.963,2.674.565.739,1.055,1.03,1.09,1.886.053,1.228-1,2.5-1.309,3.68-.1.387-.023,1.157-.263,1.5-.311.47-1.782.608-2.285.465A2.2,2.2,0,0,1,316,430.738c.229-.655,1.009-.924,1.161-1.6a6.423,6.423,0,0,0-.731-3.394,4.594,4.594,0,0,0-1.191-1.9c-2.6-2.047-5.893-4.18-8.96-1.88-1.509,1.131-2.61,3.293-4.509,3.917-2.518.818-4.945-1.386-7.519-.645-2.472.7-3.206,1.085-5.6-.367-1.513-.918-1.442-2.15-1.181-3.772.726-4.432,5.256-2.615,8.614-2.178,1.279.166,2.815.106,3.077-1.383.184-1.051-.842-1.707-1.386-2.584-3.433-5.519,5.892-1.324,7.322-2.149,1.594-.917,1.892-3.532,3.463-4.576,1.244-.823,2.4-.322,3.857.048a12.444,12.444,0,0,0,2.131-2.581c.349-.595.519-1.95,1.354-2.048,2.1-.245,1.787,2.169,2,3.2a2.634,2.634,0,0,0,1.972,2.081,2.809,2.809,0,0,0,1.85.141c.672-.241.749-1,1.243-1.276.742-.417,1.554-.094,2.536-.022a8.972,8.972,0,0,0,3.491-.2c1.028-.363,1.458-1.414,2.464-1.631a3.157,3.157,0,0,0,.642-2.314c-.246-.925-1.672-1.26-1.929-2.271-.39-1.518,1.37-2.026,2.234-2.9,1.135-1.164.232-1.5-1.04-1.556-1.434-.072-3.947.218-3.636,2.042.1.557.61,1.04.817,1.542a2.477,2.477,0,0,1-.052,2.02c-.484,1.24-1.545,1.521-2.875,1.676a7.212,7.212,0,0,0-2.347.331c-.917.421-1.046,1.086-1.576,1.846-1.1,1.587-1.9.406-2.088-1.008-.157-1.181.649-2.851-.361-3.579-1.263-.928-3.048.246-4.336.022a4.386,4.386,0,0,1-2.45-2.652c-.262-1.126.591-2.409,1.388-3.212,1.487-1.494,4.378-1.081,6.339-1.664,1.136-.342,1.185-.654,1.7-1.644.733-1.438,2.062-2.914,3.973-2.856,2,.075,3.6,1.614,5.656,1.247.953-.17,1.545-.832,2.429-1.156a7.728,7.728,0,0,1,4.555.284,8.771,8.771,0,0,1,3.728,1.817c.792.782,1.123,1.826,1.844,2.651,1.2,1.379,3.221,1.693,4.971,2.1,2.247.528,4.275-.119,6.548-.256,1.105-.065,2.133-.108,3.149-.1A101.273,101.273,0,0,1,380.182,459.493Z" transform="translate(-287.326 -389.609)" fill="#4874b5"/>
                    </g>
                    <g id="Grupo_1230844" data-name="Grupo 1230844" transform="translate(138.919 30.421)">
                      <path id="Trazado_1064788" data-name="Trazado 1064788" d="M309.006,402.165a3.636,3.636,0,0,0-.284,3.2c.325.947.82,1.846,1.156,2.793a3.075,3.075,0,0,1-.1,2.4c-.55,1.2-1.333,2.816-2.939,2.893a2.9,2.9,0,0,1-2.834-1.519,2.126,2.126,0,0,1,.1-1.508,4.222,4.222,0,0,0,.471-.914c.07-.4-.079-.5-.479-.59-.632-.139-.836.155-1.228.584-.375.41-.5,1.082-1.046,1.32a2.477,2.477,0,0,1-1.253.091,5.6,5.6,0,0,1-2.481-.592,2.965,2.965,0,0,1-.259-3.412c.929-1.173,2.7-1.326,4.128-1.514.663-.087,1.108-.093,1.354-.715.407-1.027.079-2.139.158-3.192a3.182,3.182,0,0,1,4.656-2.453C309.33,399.723,309.222,401.176,309.006,402.165Z" transform="translate(-297.412 -398.642)" fill="#4874b5"/>
                    </g>
                    <g id="Grupo_1230845" data-name="Grupo 1230845" transform="translate(100.062)">
                      <path id="Trazado_1064789" data-name="Trazado 1064789" d="M289.507,359.982c-4.649-1.329-9.14-3.068-13.833-4.3-3.917-1.029-7.755-2.189-11.748-2.944A64.006,64.006,0,0,0,253,351.988c-2.845-.027-5.676.095-8.513.28-1.112.072-6.154.556-6.172,2.245-.016,1.508,2.478,2.278,3.585,2.744,1.006.422,3.6,1.557,3.081,3.021-.364,1.029-1.753.553-1.91,1.839-.173,1.415.443,2.571-.9,3.634-1.764,1.393-3.656,2.362-4.232,4.679-.835,3.358,2.923,5.175,5.886,5.715a7.62,7.62,0,0,0,5.489-1.046c.9-.517,2.078-1.817,3.12-2a10.387,10.387,0,0,1,2.179.29c1.97.159,3.9.437,5.041-1.223,1.414-2.056.931-5.292,3.357-6.785,2.675-1.646,4.273.676,6.326,1.85,1.4.8,3.39,1.829,5.028.992a10,10,0,0,0,2.25-1.845c1.237-1.2,2.377-2.063,4.308-1.976,2.558.115,4.334.668,6.35-.922A6.4,6.4,0,0,0,289.507,359.982Z" transform="translate(-237.817 -351.984)" fill="#4874b5"/>
                    </g>
                    <g id="Grupo_1230846" data-name="Grupo 1230846" transform="translate(178.192 141.121)">
                      <path id="Trazado_1064790" data-name="Trazado 1064790" d="M375.7,571.2c-1.359,2.02-2.076,4.231-3.284,6.293-.78,1.331-1.828,1.943-2.838,3.077-1.674,1.88-2.793,4.2-4.532,6.013a7.718,7.718,0,0,1-3.3,2.063c-.84.2-2.934.3-3.6-.261-.616-.514-.556-2.206-.353-2.883.425-1.42,2.083-2.332,3.036-3.443a5.545,5.545,0,0,0,1.228-2.313,7.184,7.184,0,0,0-.228-2.484c-.087-.986-.106-3.433.569-4.169.574-.625,2.182-.845,2.987-1.076,1.148-.33,2.446-.486,3.56-.888a5.1,5.1,0,0,0,1.676-1.3c1.206-1.044,2.752-1.959,4.255-.994C376.12,569.636,375.8,570.241,375.7,571.2Z" transform="translate(-357.647 -568.428)" fill="#4874b5"/>
                    </g>
                  </g>
                  <g id="Grupo_1230848" data-name="Grupo 1230848" transform="translate(0 65.333)" opacity="0.3">
                    <path id="Trazado_1064791" data-name="Trazado 1064791" d="M304.634,473.648l0-.009a99.329,99.329,0,0,0-9.436-43.381q-.262,1.339-.561,2.678c-13.035,58.172-74.991,95.634-138.382,83.671-39.072-7.373-69.563-31.805-84.16-63.086-11.2,57.22,29.336,112.512,91.744,124.288,63.39,11.962,125.347-25.5,138.382-83.671A99.327,99.327,0,0,0,304.634,473.648Z" transform="translate(-70.239 -430.258)" fill="#7095d6"/>
                  </g>
                </g>
              </g>
            </g>
          </g>
        </g>
        <g id="Grupo_1230892" data-name="Grupo 1230892" transform="translate(103.001 120.509)">
          <ellipse id="Elipse_13877" data-name="Elipse 13877" cx="68.892" cy="33.892" rx="68.892" ry="33.892" transform="translate(0 117.93)" fill="#7095d6" opacity="0.6"/>
          <g id="Grupo_1230891" data-name="Grupo 1230891" transform="translate(2.244 -28.438)">
            <g id="Grupo_1230890" data-name="Grupo 1230890">
              <path id="Trazado_1064792" data-name="Trazado 1064792" d="M219.03,248.16c-1.973-.206-3.037-2.687-2.474-4.589s2.2-3.27,3.826-4.408A38.174,38.174,0,0,1,240.959,232a28.881,28.881,0,0,1,20.3,7.258A6.427,6.427,0,0,1,263.5,242.7c.23,1.377-.626,3.011-2.017,3.137,3.454,1.188,7.264,3.482,7.417,7.131a6.689,6.689,0,0,1-2.48,5.125,16.366,16.366,0,0,1-5.159,2.771,63.12,63.12,0,0,1-28.265,3.6c-5.788-.582-13.785-.8-17.179-6.259C213.569,254.584,213.989,249.106,219.03,248.16Z" transform="translate(-182.358 -196.074)" fill="#ed59b9"/>
              <g id="Grupo_1230855" data-name="Grupo 1230855" transform="translate(11.107 47.308)">
                <path id="Trazado_1064793" data-name="Trazado 1064793" d="M212.017,263.759s-13,6.916-14.984,10.544-3.181,32.013-3.578,33.412S185.5,326.9,187.092,330.9,194.9,341.3,199.445,342.5s13.494-1,13.494-1L219,293.189Z" transform="translate(-186.872 -250.959)" fill="#ed59b9"/>
                <path id="Trazado_1064794" data-name="Trazado 1064794" d="M199.8,336.109a7.091,7.091,0,0,0-2.473,4.3c-.308,2.569,1.282,4.97,3.026,6.881,1.334,1.462,3.05,2.895,5.025,2.76a4.964,4.964,0,0,0,3.864-2.913,13.659,13.659,0,0,0,1.092-4.916c.212-2.387.264-5.072-1.349-6.844C206.067,332.177,202.54,333.666,199.8,336.109Z" transform="translate(-189.356 -267.601)" fill="#ffa07f"/>
                <path id="Trazado_1064795" data-name="Trazado 1064795" d="M280.2,263.9s13,6.916,14.984,10.543,3.181,32.013,3.579,33.412,7.953,19.19,6.362,23.188-7.806,10.394-12.353,11.594-13.494-1-13.494-1l-6.062-48.307Z" transform="translate(-207.461 -250.993)" fill="#ed59b9"/>
                <g id="Grupo_1230854" data-name="Grupo 1230854" transform="translate(18.554 31.601)">
                  <path id="Trazado_1064796" data-name="Trazado 1064796" d="M290.6,295.135c-.471-2.241-1.136-5.11-2.965-6.638a.194.194,0,0,0-.327.136c0,2.3,1.126,4.587,1.468,6.872.312,2.09-.147,4.48.741,6.4a.622.622,0,0,0,1.066,0C291.717,299.987,291.038,297.225,290.6,295.135Z" transform="translate(-229.377 -288.448)" fill="#d11e7d"/>
                  <path id="Trazado_1064797" data-name="Trazado 1064797" d="M214.213,290.819c-1.411,1.511-1.917,3.938-2.337,5.922s-1.054,4.578-.258,6.485c.207.5,1.06.83,1.342.175.807-1.878.571-4.091.928-6.105s1.317-4.029,1.342-6.055A.6.6,0,0,0,214.213,290.819Z" transform="translate(-211.237 -288.972)" fill="#d11e7d"/>
                </g>
                <path id="Trazado_1064798" data-name="Trazado 1064798" d="M300.975,336.109a7.091,7.091,0,0,1,2.473,4.3c.308,2.569-1.282,4.97-3.026,6.881-1.334,1.462-3.05,2.895-5.025,2.76a4.964,4.964,0,0,1-3.864-2.913,13.658,13.658,0,0,1-1.092-4.916c-.212-2.387-.264-5.072,1.349-6.844C294.706,332.177,298.234,333.666,300.975,336.109Z" transform="translate(-211.544 -267.601)" fill="#ffa07f"/>
                <path id="Trazado_1064799" data-name="Trazado 1064799" d="M235.666,254.139s-14.807,6.415-15.873,7.193.921,72.94.921,72.94h43.344s3.92-71.914,3.324-72.83-18.495-7.861-18.495-7.861Z" transform="translate(-194.648 -248.532)" fill="#ed59b9"/>
                <path id="Trazado_1064800" data-name="Trazado 1064800" d="M227.484,258.331s5.843-11.38,16.838-11.38,16.837,10.664,16.837,10.664Z" transform="translate(-196.557 -246.951)" fill="#d11e7d"/>
              </g>
              <g id="Grupo_1230857" data-name="Grupo 1230857" transform="translate(23.65 88.189)">
                <g id="Grupo_1230856" data-name="Grupo 1230856">
                  <path id="Trazado_1064801" data-name="Trazado 1064801" d="M273.625,300.633H206.986a3.643,3.643,0,0,0-3.643,3.643v43.345a3.643,3.643,0,0,0,3.643,3.643h66.639a3.643,3.643,0,0,0,3.643-3.643V304.276A3.643,3.643,0,0,0,273.625,300.633Z" transform="translate(-203.343 -300.633)" fill="#fff"/>
                  <path id="Trazado_1064802" data-name="Trazado 1064802" d="M255.233,332.149a4.664,4.664,0,0,1-3.667-7.577,7.3,7.3,0,1,0,5.33,7.258A4.644,4.644,0,0,1,255.233,332.149Z" transform="translate(-212.631 -306.27)" fill="#d2e0ff"/>
                </g>
              </g>
              <g id="Grupo_1230858" data-name="Grupo 1230858" transform="translate(24.548 136.736)">
                <path id="Trazado_1064803" data-name="Trazado 1064803" d="M204.523,366.466s36.331-6.232,75.123,2.854l-40.053,22.569Z" transform="translate(-204.523 -364.382)" fill="#c96a24"/>
              </g>
              <g id="Grupo_1230867" data-name="Grupo 1230867" transform="translate(0 133.272)">
                <g id="Grupo_1230860" data-name="Grupo 1230860" transform="translate(75.66 34.538)">
                  <g id="Grupo_1230859" data-name="Grupo 1230859">
                    <path id="Trazado_1064804" data-name="Trazado 1064804" d="M302.8,409.384s1.531,10.823.6,13.085-9.653,12.166-11.1,11.425c-.507-.26-2.175-1.424-4.16-2.879-3.682-2.7-8.45-6.405-8.913-7.235-.715-1.277-7.591-3.887-7.591-3.887s3.3-13.14,4.68-14.487c1.061-1.043,16.262,1.894,23.142,3.288C301.494,409.106,302.8,409.384,302.8,409.384Z" transform="translate(-271.639 -405.186)" fill="#d11e7d"/>
                    <path id="Trazado_1064805" data-name="Trazado 1064805" d="M307.97,410.482s1.531,10.823.6,13.085-9.653,12.166-11.1,11.425c-.507-.26-2.175-1.424-4.16-2.879,3.35-2.961,10.289-9.424,10.689-12.523.27-2.1.483-6.26.628-9.8C306.662,410.2,307.97,410.482,307.97,410.482Z" transform="translate(-276.807 -406.284)" fill="#fff"/>
                  </g>
                  <path id="Trazado_1064806" data-name="Trazado 1064806" d="M290.591,416.516c.042-.035.085-.069.127-.1.322-.25.845-.456,1.126-.014a1.337,1.337,0,0,1,.142.778,8.529,8.529,0,0,1-.616,2.654,6.421,6.421,0,0,1-1.46,2.567c-.76.695-1.666.023-1.613-.975A7.33,7.33,0,0,1,290.591,416.516Z" transform="translate(-275.611 -407.798)" fill="#fff"/>
                  <path id="Trazado_1064807" data-name="Trazado 1064807" d="M294.705,418.623c.042-.035.085-.069.127-.1.322-.25.845-.456,1.126-.014a1.331,1.331,0,0,1,.142.778,8.528,8.528,0,0,1-.616,2.654,6.422,6.422,0,0,1-1.46,2.567c-.76.695-1.666.023-1.613-.975A7.33,7.33,0,0,1,294.705,418.623Z" transform="translate(-276.592 -408.301)" fill="#fff"/>
                  <path id="Trazado_1064808" data-name="Trazado 1064808" d="M298.678,420.149c.042-.035.085-.069.127-.1.322-.25.845-.456,1.126-.014a1.329,1.329,0,0,1,.142.777,8.529,8.529,0,0,1-.616,2.654,6.423,6.423,0,0,1-1.46,2.567c-.76.694-1.666.023-1.613-.976A7.329,7.329,0,0,1,298.678,420.149Z" transform="translate(-277.54 -408.665)" fill="#fff"/>
                </g>
                <g id="Grupo_1230862" data-name="Grupo 1230862">
                  <g id="Grupo_1230861" data-name="Grupo 1230861">
                    <path id="Trazado_1064809" data-name="Trazado 1064809" d="M204.251,362.773c-5.019-2.724-10.429-3.273-15.995-2.774-4.688.42-12.29,2.858-15.2,7.216-2.4,3.585,1.393,9.889,3.38,13.043,2.309,3.665,5.626,6.41,9.04,9,6.61,5.018,46.229,17.972,64.221,22.2l10.936-17.524C244.015,384.252,209.1,365.407,204.251,362.773Z" transform="translate(-172.288 -359.833)" fill="#e58435"/>
                  </g>
                </g>
                <g id="Grupo_1230864" data-name="Grupo 1230864" transform="translate(10.15 35.692)">
                  <g id="Grupo_1230863" data-name="Grupo 1230863">
                    <path id="Trazado_1064810" data-name="Trazado 1064810" d="M186.517,410.9s-1.531,10.823-.6,13.085,9.653,12.166,11.1,11.425c.507-.26,2.175-1.424,4.16-2.879,3.682-2.7,8.45-6.405,8.913-7.235.715-1.277,7.591-3.887,7.591-3.887s-3.3-13.14-4.68-14.487c-1.061-1.043-16.263,1.894-23.142,3.288C187.824,410.622,186.517,410.9,186.517,410.9Z" transform="translate(-185.616 -406.702)" fill="#d11e7d"/>
                    <path id="Trazado_1064811" data-name="Trazado 1064811" d="M186.517,412s-1.531,10.823-.6,13.085,9.653,12.166,11.1,11.425c.507-.26,2.175-1.424,4.16-2.879-3.35-2.961-10.289-9.424-10.689-12.523-.27-2.1-.483-6.259-.628-9.8C187.824,411.72,186.517,412,186.517,412Z" transform="translate(-185.616 -407.8)" fill="#fff"/>
                  </g>
                  <path id="Trazado_1064812" data-name="Trazado 1064812" d="M207.611,418.032c-.042-.035-.085-.069-.127-.1-.322-.25-.845-.456-1.126-.014a1.335,1.335,0,0,0-.142.777,8.527,8.527,0,0,0,.616,2.654,6.413,6.413,0,0,0,1.46,2.567c.76.694,1.666.023,1.613-.975A7.33,7.33,0,0,0,207.611,418.032Z" transform="translate(-190.527 -409.314)" fill="#fff"/>
                  <path id="Trazado_1064813" data-name="Trazado 1064813" d="M203.5,420.138c-.042-.035-.085-.069-.127-.1-.322-.25-.845-.456-1.126-.014a1.337,1.337,0,0,0-.142.778,8.528,8.528,0,0,0,.616,2.654,6.413,6.413,0,0,0,1.46,2.567c.76.695,1.666.023,1.613-.975A7.333,7.333,0,0,0,203.5,420.138Z" transform="translate(-189.546 -409.817)" fill="#fff"/>
                  <path id="Trazado_1064814" data-name="Trazado 1064814" d="M199.524,421.665c-.042-.035-.085-.069-.127-.1-.322-.25-.845-.456-1.126-.014a1.335,1.335,0,0,0-.142.778,8.528,8.528,0,0,0,.616,2.654,6.422,6.422,0,0,0,1.46,2.567c.76.695,1.666.023,1.613-.975A7.326,7.326,0,0,0,199.524,421.665Z" transform="translate(-188.599 -410.181)" fill="#fff"/>
                </g>
                <g id="Grupo_1230866" data-name="Grupo 1230866" transform="translate(32.883)">
                  <g id="Grupo_1230865" data-name="Grupo 1230865">
                    <path id="Trazado_1064815" data-name="Trazado 1064815" d="M269.057,362.773c5.019-2.724,10.429-3.273,15.995-2.774,4.688.42,12.29,2.858,15.2,7.216,2.4,3.585-1.393,9.889-3.38,13.043-2.31,3.665-5.626,6.41-9.04,9-6.61,5.018-47.536,17.972-65.528,22.2l-6.836-16.157C232.088,385.62,264.2,365.407,269.057,362.773Z" transform="translate(-215.468 -359.833)" fill="#fab856"/>
                  </g>
                </g>
              </g>
              <g id="Grupo_1230889" data-name="Grupo 1230889" transform="translate(35.307)">
                <g id="Grupo_1230888" data-name="Grupo 1230888">
                  <path id="Trazado_1064816" data-name="Trazado 1064816" d="M260.594,231.661c-.79,1.7-2.052,3.586-3.931,3.568-1.906-.018-3.123-1.979-3.968-3.7.545,1.4-.88,2.968-2.37,3.023a4.765,4.765,0,0,1-3.741-2.152c-.908-1.19-1.516-2.588-2.415-3.786a4.866,4.866,0,0,0-3.7-2.224,4.267,4.267,0,0,0-3.232,1.834,12.031,12.031,0,0,0-1.616,3.477c-.5,1.516-1.217,3.278-2.769,3.641a3.133,3.133,0,0,1-2.769-.9,9.251,9.251,0,0,1-1.707-2.487,12.738,12.738,0,0,1-2.687,5.175c-3.377-3.913-4.494-9.242-5.42-14.326a74.235,74.235,0,0,1-1.607-14.689,32.99,32.99,0,0,1,.663-6.11A23.862,23.862,0,0,1,222.463,194a17.792,17.792,0,0,1,2.914-3.514c5.638-5.274,14.117-6.382,21.726-5.266a21.857,21.857,0,0,1,8.089,2.769,15.352,15.352,0,0,1,3.332,2.651,18.327,18.327,0,0,1,3.6,5.838,30.888,30.888,0,0,1,1.271,3.886A46.66,46.66,0,0,1,260.594,231.661Z" transform="translate(-218.651 -184.829)" fill="#506def"/>
                  <g id="Grupo_1230887" data-name="Grupo 1230887" transform="translate(4.054 2.27)">
                    <path id="Trazado_1064817" data-name="Trazado 1064817" d="M250.365,250.69a13.472,13.472,0,0,1-8.349-1.324c.159-3.33.148-7.352.148-7.352l11.245.139a57.777,57.777,0,0,0,.085,6.911A6.245,6.245,0,0,1,250.365,250.69Z" transform="translate(-228.276 -200.735)" fill="#ff7d6f"/>
                    <path id="Trazado_1064818" data-name="Trazado 1064818" d="M251.758,259.825a12.746,12.746,0,0,0,2.65-3.278l-.053-.043c-.892-.732-1.321-2.916-1.518-5.233a6.239,6.239,0,0,1-3.13,1.626,13.469,13.469,0,0,1-8.348-1.324,21.563,21.563,0,0,1-.432,4.036,4.619,4.619,0,0,1-1.666,1.53c1.982,2.01,4.132,3.791,6.723,4.423C247.95,262.079,249.935,261.118,251.758,259.825Z" transform="translate(-227.619 -202.943)" fill="#ffa07f"/>
                    <g id="Grupo_1230879" data-name="Grupo 1230879" transform="translate(0.721 3.375)">
                      <g id="Grupo_1230878" data-name="Grupo 1230878">
                        <g id="Grupo_1230869" data-name="Grupo 1230869" transform="translate(0 20.138)">
                          <path id="Trazado_1064819" data-name="Trazado 1064819" d="M231.322,230.813a6.778,6.778,0,0,1-5.071-2.981,7.366,7.366,0,0,1-.551-.867c-.766-1.439-1.365-6.6.207-7.931,1.1-.934,2.049.219,2.518.994v0a5.56,5.56,0,0,1,.313.59Z" transform="translate(-224.921 -218.685)" fill="#ffbf90"/>
                          <path id="Trazado_1064820" data-name="Trazado 1064820" d="M231.421,230.959a6.778,6.778,0,0,1-5.071-2.981c-.088-.14-.166-.273-.233-.4-.767-1.439-1.365-6.6.207-7.929.892-.758,1.683-.145,2.2.527v0a5.558,5.558,0,0,1,.313.59Z" transform="translate(-225.02 -218.831)" fill="#ffa07f"/>
                          <path id="Trazado_1064821" data-name="Trazado 1064821" d="M225.951,224.282a2.8,2.8,0,0,0,.176,1.247c.594,1.7,2.065,2.914,3.47,4.039a5.362,5.362,0,0,1-.675-2.681c0-.324.031-.649.008-.972C228.837,224.613,226.251,221.8,225.951,224.282Z" transform="translate(-225.163 -219.784)" fill="#ff7d6f"/>
                          <g id="Grupo_1230868" data-name="Grupo 1230868" transform="translate(1.083 3.467)">
                            <path id="Trazado_1064822" data-name="Trazado 1064822" d="M230.391,230l-.078-.047c-.05-.033-.13-.075-.223-.143a3.359,3.359,0,0,1-.7-.688,3.771,3.771,0,0,1-.64-1.336,3.612,3.612,0,0,1,.019-1.836,1.812,1.812,0,0,1,.077-.235l.021-.057c.005-.014,0-.005,0-.007v0h0l0-.009-.025-.048-.052-.1c-.036-.062-.07-.125-.107-.186-.144-.244-.3-.472-.451-.684s-.314-.4-.469-.579a4.335,4.335,0,0,0-.452-.455.839.839,0,0,0-.442-.2.551.551,0,0,0-.354.1.392.392,0,0,0-.145.2.416.416,0,0,0-.016.089.271.271,0,0,1,0-.093.426.426,0,0,1,.116-.247.636.636,0,0,1,.4-.2.982.982,0,0,1,.576.158,3.768,3.768,0,0,1,.546.423,6.279,6.279,0,0,1,1.073,1.252c.042.063.081.129.121.194l.059.1.078.142.054.1c-.009.035-.024.071-.037.107l-.055.152a1.727,1.727,0,0,0-.066.2,3.8,3.8,0,0,0-.083,1.629,4.1,4.1,0,0,0,.451,1.289,3.851,3.851,0,0,0,.557.761c.077.083.145.139.188.182Z" transform="translate(-226.343 -223.237)" fill="#cf4a57"/>
                          </g>
                        </g>
                        <g id="Grupo_1230871" data-name="Grupo 1230871" transform="translate(32.633 17.461)">
                          <path id="Trazado_1064823" data-name="Trazado 1064823" d="M267.772,227.882a6.776,6.776,0,0,0,4.534-3.748,7.363,7.363,0,0,0,.406-.943c.529-1.543.3-6.728-1.461-7.8-1.235-.748-1.989.541-2.329,1.38v0a5.57,5.57,0,0,0-.215.632Z" transform="translate(-267.772 -215.17)" fill="#ffbf90"/>
                          <path id="Trazado_1064824" data-name="Trazado 1064824" d="M267.772,228.042a6.776,6.776,0,0,0,4.534-3.748c.065-.152.12-.3.167-.433.529-1.543.3-6.728-1.461-7.8-1-.607-1.685.123-2.09.869v0a5.567,5.567,0,0,0-.216.632Z" transform="translate(-267.772 -215.33)" fill="#ffa07f"/>
                          <path id="Trazado_1064825" data-name="Trazado 1064825" d="M272.6,220.531a2.8,2.8,0,0,1,.024,1.259c-.318,1.772-1.576,3.2-2.786,4.538a5.359,5.359,0,0,0,.241-2.754c-.054-.32-.134-.636-.162-.959C269.8,221.315,271.909,218.125,272.6,220.531Z" transform="translate(-268.264 -216.24)" fill="#ff7d6f"/>
                          <g id="Grupo_1230870" data-name="Grupo 1230870" transform="translate(0.953 3.403)">
                            <path id="Trazado_1064826" data-name="Trazado 1064826" d="M269.024,226.869l.07-.059c.044-.04.117-.094.2-.177a3.343,3.343,0,0,0,.586-.791,3.774,3.774,0,0,0,.42-1.42,3.6,3.6,0,0,0-.31-1.809,1.763,1.763,0,0,0-.113-.22l-.03-.053,0-.007v0h0s0,0,0-.009l.018-.052.036-.1c.025-.068.05-.135.075-.2a8.16,8.16,0,0,1,.337-.746c.12-.233.245-.449.371-.647a4.267,4.267,0,0,1,.375-.521.839.839,0,0,1,.4-.271.549.549,0,0,1,.366.047A.4.4,0,0,1,272,220a.377.377,0,0,1,.03.085.4.4,0,0,0-.011-.092.427.427,0,0,0-.154-.225.636.636,0,0,0-.426-.132.983.983,0,0,0-.544.248,3.806,3.806,0,0,0-.472.5,6.254,6.254,0,0,0-.861,1.407c-.031.069-.06.139-.089.211l-.042.108-.055.152-.038.107c.014.034.036.066.053.1l.078.142a1.651,1.651,0,0,1,.1.191,3.784,3.784,0,0,1,.34,1.6,4.11,4.11,0,0,1-.241,1.343,3.8,3.8,0,0,1-.43.839c-.062.094-.121.16-.156.209S269.024,226.869,269.024,226.869Z" transform="translate(-269.024 -219.638)" fill="#cf4a57"/>
                          </g>
                        </g>
                        <path id="Trazado_1064827" data-name="Trazado 1064827" d="M259.529,210.994s.391,10.085-1.976,14.028c-1.985,3.3-4.754,8.528-9.686,10.626a4.844,4.844,0,0,1-3.056.244c-5.2-1.29-8.765-6.012-11.247-8.956-2.962-3.518-4.174-13.537-4.174-13.537-.075-.667-.133-1.311-.173-1.936l0-.02c-1.215-19.054,13.654-19.191,13.654-19.191s14.575-1.027,16.567,17.757C259.472,210.331,259.5,210.659,259.529,210.994Z" transform="translate(-225.928 -192.241)" fill="#ffbf90"/>
                        <path id="Trazado_1064828" data-name="Trazado 1064828" d="M259.436,210.009c.042,1.614.158,10.2-1.983,13.763-1.984,3.3-4.754,8.528-9.686,10.626a4.842,4.842,0,0,1-3.055.244c-5.2-1.29-8.765-6.012-11.247-8.956-2.962-3.517-4.174-13.537-4.174-13.537-.027-.232-.05-.459-.073-.685l0-.02C228,192.389,242.87,192.252,242.87,192.252S257.445,191.225,259.436,210.009Z" transform="translate(-225.928 -192.241)" fill="#ffa07f"/>
                        <g id="Grupo_1230872" data-name="Grupo 1230872" transform="translate(14.105 31.979)">
                          <path id="Trazado_1064829" data-name="Trazado 1064829" d="M252.748,234.234a9.1,9.1,0,0,1-9.305.375,5.9,5.9,0,0,0,4.6,2.3A6.509,6.509,0,0,0,252.748,234.234Z" transform="translate(-243.443 -234.234)" fill="#fc5b68"/>
                          <path id="Trazado_1064830" data-name="Trazado 1064830" d="M251.96,238.811a4.941,4.941,0,0,1-5.052.2,3.2,3.2,0,0,0,2.5,1.247A3.537,3.537,0,0,0,251.96,238.811Z" transform="translate(-244.269 -235.325)" fill="#fc5b68"/>
                        </g>
                        <g id="Grupo_1230876" data-name="Grupo 1230876" transform="translate(7.22 18.521)">
                          <g id="Grupo_1230875" data-name="Grupo 1230875">
                            <g id="Grupo_1230873" data-name="Grupo 1230873" transform="translate(0 1.918)">
                              <path id="Trazado_1064831" data-name="Trazado 1064831" d="M235.869,219.08a3.27,3.27,0,0,0,1.711,1.262,1.377,1.377,0,0,1,.987-.6c.976-.071,1.858,1.142,1.972,2.71s-.586,2.894-1.561,2.965-1.858-1.142-1.972-2.71a4.274,4.274,0,0,1,.113-1.356A5.234,5.234,0,0,1,235.869,219.08Z" transform="translate(-234.752 -219.08)" fill="#2a3863"/>
                              <path id="Trazado_1064832" data-name="Trazado 1064832" d="M238.535,223.7a3.644,3.644,0,0,1-4.133-.839,3.647,3.647,0,0,1,4.133.839Z" transform="translate(-234.402 -219.908)" fill="#fff0e7"/>
                            </g>
                            <g id="Grupo_1230874" data-name="Grupo 1230874" transform="translate(17.856)">
                              <path id="Trazado_1064833" data-name="Trazado 1064833" d="M261.943,216.562a3.264,3.264,0,0,1-1.49,1.517,1.38,1.38,0,0,0-1.07-.439c-.975.085-1.654,1.423-1.517,2.988s1.037,2.764,2.011,2.68,1.654-1.423,1.518-2.988a4.271,4.271,0,0,0-.327-1.321A5.235,5.235,0,0,0,261.943,216.562Z" transform="translate(-257.849 -216.562)" fill="#2a3863"/>
                              <path id="Trazado_1064834" data-name="Trazado 1064834" d="M260.1,221.6a3.643,3.643,0,0,0,3.947-1.483A3.643,3.643,0,0,0,260.1,221.6Z" transform="translate(-258.387 -217.385)" fill="#fff0e7"/>
                            </g>
                          </g>
                        </g>
                        <path id="Trazado_1064835" data-name="Trazado 1064835" d="M248.695,229.161a2.123,2.123,0,0,1,1.9,1.053.4.4,0,0,1,.069.269c-.029.139-.178.214-.311.264a7.16,7.16,0,0,1-2.952.446C245.595,231.085,247.81,229.2,248.695,229.161Z" transform="translate(-230.117 -201.045)" fill="#ff7d6f"/>
                        <g id="Grupo_1230877" data-name="Grupo 1230877" transform="translate(17.04 22.405)">
                          <path id="Trazado_1064836" data-name="Trazado 1064836" d="M248,228.913s0-.109-.005-.3c0-.1,0-.212,0-.347s0-.286-.01-.453-.009-.348-.021-.542-.023-.4-.034-.614c-.031-.43-.069-.9-.114-1.385s-.1-.953-.155-1.381c-.031-.212-.053-.418-.085-.608s-.056-.371-.084-.536-.056-.314-.078-.446-.044-.247-.062-.341c-.037-.188-.053-.3-.053-.3s.069.082.186.238c.059.078.129.174.2.29s.162.248.243.4.174.322.255.51.163.392.24.611a6.562,6.562,0,0,1,.289,2.972c-.034.229-.068.445-.117.646s-.1.384-.152.55-.11.313-.161.441-.1.237-.143.324C248.054,228.819,248,228.913,248,228.913Z" transform="translate(-247.296 -221.662)" fill="#fc5b68"/>
                        </g>
                      </g>
                    </g>
                    <g id="Grupo_1230886" data-name="Grupo 1230886" transform="translate(3.648 15.272)">
                      <g id="Grupo_1230883" data-name="Grupo 1230883">
                        <g id="Grupo_1230880" data-name="Grupo 1230880" transform="translate(29.808)">
                          <path id="Trazado_1064837" data-name="Trazado 1064837" d="M267.906,223.648s.019-.231.065-.637c.012-.1.025-.213.039-.337s.024-.257.037-.4c.026-.288.066-.61.09-.97q.023-.268.048-.56c.018-.194.026-.4.042-.607.036-.417.051-.864.081-1.33.042-.936.077-1.956.1-3.028s.006-2.1-.009-3.034c-.017-.468-.02-.917-.043-1.336-.01-.21-.012-.415-.024-.61s-.022-.385-.032-.564c-.014-.363-.045-.688-.062-.979-.009-.145-.018-.281-.026-.405s-.021-.238-.03-.34c-.034-.41-.047-.643-.047-.643s.1.2.256.578c.04.094.084.2.133.314s.091.244.142.38c.1.275.216.588.317.944q.078.267.164.559c.055.2.1.4.152.615.107.426.188.888.273,1.377a19.888,19.888,0,0,1,.234,3.219,19.447,19.447,0,0,1-.325,3.189c-.1.479-.193.932-.311,1.346-.058.207-.109.408-.169.6l-.179.541c-.11.345-.238.645-.343.909-.054.132-.1.254-.152.365s-.1.209-.141.3C268.007,223.456,267.906,223.648,267.906,223.648Z" transform="translate(-267.906 -207.864)" fill="#506def"/>
                        </g>
                        <g id="Grupo_1230881" data-name="Grupo 1230881" transform="translate(0 5.383)">
                          <path id="Trazado_1064838" data-name="Trazado 1064838" d="M232.272,230.482s-.111-.191-.3-.545-.452-.872-.749-1.53-.621-1.457-.935-2.366a28.667,28.667,0,0,1-.853-3.021,29.431,29.431,0,0,1-.506-3.119c-.1-.969-.148-1.846-.16-2.583s0-1.334.024-1.746.039-.64.039-.64.068.219.177.612.266.963.449,1.662.4,1.528.624,2.448.468,1.925.7,2.988.445,2.077.625,3.009.338,1.777.469,2.491.227,1.3.3,1.705S232.272,230.482,232.272,230.482Z" transform="translate(-228.764 -214.932)" fill="#506def"/>
                        </g>
                        <g id="Grupo_1230882" data-name="Grupo 1230882" transform="translate(0.398 11.523)">
                          <path id="Trazado_1064839" data-name="Trazado 1064839" d="M236.712,228.819c-.194.679-2.01.755-4.057.17s-3.547-1.611-3.353-2.289,2.01-.755,4.057-.17S236.907,228.14,236.712,228.819Z" transform="translate(-229.286 -223.744)" fill="#ff7d6f"/>
                          <path id="Trazado_1064840" data-name="Trazado 1064840" d="M268.129,223.331c.322.628-.951,1.926-2.844,2.9s-3.69,1.25-4.013.621.951-1.925,2.844-2.9S267.807,222.7,268.129,223.331Z" transform="translate(-236.901 -222.995)" fill="#ff7d6f"/>
                        </g>
                      </g>
                      <g id="Grupo_1230885" data-name="Grupo 1230885" transform="translate(1.342 1.971)">
                        <g id="Grupo_1230884" data-name="Grupo 1230884">
                          <path id="Trazado_1064841" data-name="Trazado 1064841" d="M230.526,215.043s7.605-3.135,9.518-.95c1.116,1.276-.107,1.683-.107,1.683Z" transform="translate(-230.526 -211.136)" fill="#506def"/>
                          <path id="Trazado_1064842" data-name="Trazado 1064842" d="M261.239,211.146s-8.006-1.89-9.549.57c-.9,1.436.373,1.645.373,1.645Z" transform="translate(-235.496 -210.452)" fill="#506def"/>
                        </g>
                      </g>
                    </g>
                    <path id="Trazado_1064843" data-name="Trazado 1064843" d="M231.669,191.246a17.269,17.269,0,0,0-6.438,20.869c.883.119,1.68.04,2.563.158a12.361,12.361,0,0,1,2.944-8.55,21.869,21.869,0,0,0,6.325-1.273,13.206,13.206,0,0,0,1.121-5.054,35.854,35.854,0,0,1,2.078,5.031c1.981-.487,4.069-1.164,6.05-1.652.248-1.135.886-2.383,1.134-3.519a14.386,14.386,0,0,1,1.637,4.835c1.988.105,4,.175,5.986.28a20.752,20.752,0,0,1,3.133,6.794c.679-.244,1.525-.353,2.2-.6a18.641,18.641,0,0,0-7.908-18.341C246.63,186.421,237.493,187.371,231.669,191.246Z" transform="translate(-223.974 -187.81)" fill="#506def"/>
                  </g>
                  <path id="Trazado_1064844" data-name="Trazado 1064844" d="M262.33,197.471c-.2-.045-.4-.109-.6-.163-3.568-1.035-7.117-2.451-10.831-2.352-2.106.063-4.167.608-6.264.726-2.769.155-5.565-.436-8.289.046-4.1.717-7.39,3.7-11.14,5.52A20,20,0,0,1,219.533,203a23.862,23.862,0,0,1,3.141-8.008,17.794,17.794,0,0,1,2.914-3.514,19.47,19.47,0,0,0,3.968-.554c3.413-.808,6.818-2.17,10.3-1.771,2.5.281,4.821,1.461,7.318,1.707a16.032,16.032,0,0,0,8.235-1.879,15.353,15.353,0,0,1,3.332,2.651A18.339,18.339,0,0,1,262.33,197.471Z" transform="translate(-218.861 -185.819)" fill="#506def"/>
                  <path id="Trazado_1064845" data-name="Trazado 1064845" d="M257.3,187.992a16.047,16.047,0,0,1-8.234,1.879c-2.5-.245-4.821-1.426-7.318-1.707-3.477-.4-6.881.963-10.3,1.771a19.465,19.465,0,0,1-3.968.554c5.638-5.274,14.117-6.382,21.726-5.266A21.856,21.856,0,0,1,257.3,187.992Z" transform="translate(-220.757 -184.829)" fill="#6687ff"/>
                </g>
                <path id="Trazado_1064846" data-name="Trazado 1064846" d="M238.55,254.86l-11.067,5.357s7.555,11.477,18.189,9.037a26.437,26.437,0,0,0,15.486-9.753l-10.742-4.641H238.55Z" transform="translate(-220.757 -201.529)" fill="#ffa07f"/>
              </g>
              <path id="Trazado_1064847" data-name="Trazado 1064847" d="M240.146,278.905c-2.108.118-4.1.772-6.251.637a16.4,16.4,0,0,1-11.636-5.744c-1.48-1.713-2.128-3.785-3.4-5.579-.144-.2-.513-.152-.5.136.141,4.124,4.49,8.3,7.834,10.2,3.777,2.145,10.2,3.511,14.157,1.1A.4.4,0,0,0,240.146,278.905Z" transform="translate(-183.274 -204.685)" fill="#d11e7d"/>
              <path id="Trazado_1064848" data-name="Trazado 1064848" d="M274.19,267.793a27.131,27.131,0,0,1-10.141,7.681,26.779,26.779,0,0,1-5.842,1.769c-2.036.37-4.084.256-6.109.563-.365.056-.324.614,0,.7,3.879,1.005,8.841-.43,12.405-1.954a26.835,26.835,0,0,0,10.47-7.974C275.409,268.027,274.648,267.24,274.19,267.793Z" transform="translate(-191.258 -204.568)" fill="#d11e7d"/>
              <path id="Trazado_1064849" data-name="Trazado 1064849" d="M235.822,276.816c-2.578-.407-5.671,1.94-7.494,3.594a20.9,20.9,0,0,0-5.309,7.758,1.56,1.56,0,0,0,2.272,1.746l.369-.264a1.331,1.331,0,0,0,.58-1.167,18.314,18.314,0,0,1,4.184-5.978,22.241,22.241,0,0,1,2.84-2.291c.991-.663,2.182-1.067,2.926-2.01C236.525,277.775,236.509,276.925,235.822,276.816Z" transform="translate(-184.364 -206.753)" fill="#fff"/>
              <path id="Trazado_1064850" data-name="Trazado 1064850" d="M266.546,282.585a20.9,20.9,0,0,0-6.974-6.989,1.2,1.2,0,0,0-1.428.184.7.7,0,0,0-.226.292l-.077.227a1.144,1.144,0,0,0,.3,1.147,23.927,23.927,0,0,1,5.919,6.59A20.758,20.758,0,0,1,265.9,288.1c.371,1.148.372,1.745,1.513,2.247a.813.813,0,0,0,.954-.123C270.08,288.213,267.7,284.464,266.546,282.585Z" transform="translate(-192.678 -206.436)" fill="#fff"/>
              <path id="Trazado_1064851" data-name="Trazado 1064851" d="M304.066,331.169c-.281-.107-.4.3-.192.454a9.257,9.257,0,0,1,4.188,8.027c-.13,3.412-2.1,5.959-3.813,8.732-.09.146.1.359.248.248C309.724,344.751,311.315,333.941,304.066,331.169Z" transform="translate(-203.641 -219.721)" fill="#d11e7d"/>
              <path id="Trazado_1064852" data-name="Trazado 1064852" d="M199.233,332.724c.217-.168-.027-.465-.245-.421-2.852.575-5.118,3.7-5.733,6.408a9.33,9.33,0,0,0,2.808,8.879.511.511,0,0,0,.722-.723c-2.093-2.375-3.2-5.32-2.308-8.475C195.25,335.67,197.132,334.356,199.233,332.724Z" transform="translate(-177.235 -219.995)" fill="#d11e7d"/>
            </g>
          </g>
        </g>
      </g>
    </g>
  </g>
</svg>
