<svg xmlns="http://www.w3.org/2000/svg" xmlns:xlink="http://www.w3.org/1999/xlink" width="295" height="286" viewBox="0 0 295 286">
  <defs>
    <clipPath id="clip-path">
      <rect id="Rectángulo_424329" data-name="Rectángulo 424329" width="295" height="286" transform="translate(-1402 3783)" fill="#fff" stroke="#707070" stroke-width="1"/>
    </clipPath>
    <linearGradient id="linear-gradient" x1="0.5" x2="0.5" y2="1" gradientUnits="objectBoundingBox">
      <stop offset="0" stop-color="#903cdf"/>
      <stop offset="1" stop-color="#481e70"/>
    </linearGradient>
    <clipPath id="clip-path-2">
      <rect id="Rectángulo_424338" data-name="Rectángulo 424338" width="334.363" height="334.363" fill="none"/>
    </clipPath>
  </defs>
  <g id="Enmascarar_grupo_1211603" data-name="Enmascarar grupo 1211603" transform="translate(1402 -3783)" clip-path="url(#clip-path)">
    <rect id="Rectángulo_422735" data-name="Rectángulo 422735" width="155" height="286" rx="13" transform="translate(-1332 3783)" fill="url(#linear-gradient)"/>
    <g id="Grupo_1230899" data-name="Grupo 1230899" transform="translate(766.796 677.296)">
      <path id="Trazado_1064856" data-name="Trazado 1064856" d="M425.4,141.016c0,1.519-6,2.751-13.412,2.751s-13.411-1.232-13.411-2.751,6-2.751,13.411-2.751S425.4,139.5,425.4,141.016" transform="translate(-2320.038 3012.538)" fill="#97b4e8"/>
      <path id="Trazado_1064857" data-name="Trazado 1064857" d="M411.391,83.5a14.615,14.615,0,0,0-14.616,14.615c0,9.071,14.616,24.287,14.616,24.287s14.615-15.217,14.615-24.287A14.615,14.615,0,0,0,411.391,83.5" transform="translate(-2319.441 3030.681)" fill="#fab856"/>
      <path id="Trazado_1064858" data-name="Trazado 1064858" d="M421.754,102.157a6.19,6.19,0,1,1-6.19-6.19,6.19,6.19,0,0,1,6.19,6.19" transform="translate(-2323.615 3026.55)" fill="#fff"/>
      <path id="Trazado_1064859" data-name="Trazado 1064859" d="M103.33,449.8c0,1.519-6,2.751-13.412,2.751s-13.411-1.232-13.411-2.751,6-2.751,13.411-2.751,13.412,1.232,13.412,2.751" transform="translate(-2213.345 2910.244)" fill="#97b4e8"/>
      <path id="Trazado_1064860" data-name="Trazado 1064860" d="M89.323,392.285A14.615,14.615,0,0,0,74.707,406.9c0,9.07,14.616,24.287,14.616,24.287s14.615-15.217,14.615-24.287a14.615,14.615,0,0,0-14.615-14.616" transform="translate(-2212.749 2928.387)" fill="#e58435"/>
      <path id="Trazado_1064861" data-name="Trazado 1064861" d="M99.686,410.946a6.19,6.19,0,1,1-6.19-6.19,6.19,6.19,0,0,1,6.19,6.19" transform="translate(-2216.922 2924.256)" fill="#fff"/>
      <path id="Trazado_1064862" data-name="Trazado 1064862" d="M82.667,165.087c0,1.519-6,2.751-13.412,2.751s-13.412-1.232-13.412-2.751,6.005-2.751,13.412-2.751,13.412,1.232,13.412,2.751" transform="translate(-2206.499 3004.564)" fill="#97b4e8"/>
      <path id="Trazado_1064863" data-name="Trazado 1064863" d="M68.659,107.568a14.616,14.616,0,0,0-14.616,14.616c0,9.07,14.616,24.287,14.616,24.287s14.616-15.217,14.616-24.287a14.615,14.615,0,0,0-14.616-14.616" transform="translate(-2205.903 3022.707)" fill="#506def"/>
      <path id="Trazado_1064864" data-name="Trazado 1064864" d="M79.023,126.228a6.19,6.19,0,1,1-6.19-6.19,6.19,6.19,0,0,1,6.19,6.19" transform="translate(-2210.077 3018.576)" fill="#fff"/>
      <path id="Trazado_1064865" data-name="Trazado 1064865" d="M427.839,418.413c0,1.519-6,2.752-13.412,2.752s-13.412-1.232-13.412-2.752,6.005-2.75,13.412-2.75,13.412,1.232,13.412,2.75" transform="translate(-2320.846 2920.643)" fill="#97b4e8"/>
      <path id="Trazado_1064866" data-name="Trazado 1064866" d="M413.831,360.895a14.615,14.615,0,0,0-14.616,14.615c0,9.071,14.616,24.287,14.616,24.287s14.616-15.217,14.616-24.287a14.615,14.615,0,0,0-14.616-14.615" transform="translate(-2320.25 2938.786)" fill="#ed59b9"/>
      <path id="Trazado_1064867" data-name="Trazado 1064867" d="M424.2,379.555a6.19,6.19,0,1,1-6.19-6.19,6.19,6.19,0,0,1,6.19,6.19" transform="translate(-2324.424 2934.655)" fill="#fff"/>
      <path id="Trazado_1064868" data-name="Trazado 1064868" d="M69.337,196.206l-21.645,6.7a1.9,1.9,0,0,0-1.253,2.377l4.19,13.536a1.9,1.9,0,0,0,2.377,1.253l21.645-6.7a1.9,1.9,0,0,0,1.253-2.377l-4.19-13.535a1.9,1.9,0,0,0-2.377-1.253" transform="translate(-2203.356 2993.372)" fill="#ed59b9"/>
      <path id="Trazado_1064869" data-name="Trazado 1064869" d="M71.275,209.721l-10.133-2.3a.529.529,0,0,0-.622.672l3.073,9.926a.528.528,0,0,0,.893.2l7.06-7.624a.528.528,0,0,0-.271-.875" transform="translate(-2208.041 2989.633)" fill="#fff"/>
      <path id="Trazado_1064870" data-name="Trazado 1064870" d="M372.08,204.678l-9.9-5.569-1.984-1.116-1.741,3.092-3.947,7.015a5.624,5.624,0,0,0-1.676-1.424c-2.135-1.2-4.593-.883-5.49.711s.106,3.861,2.242,5.062,4.593.883,5.49-.712l5.366-9.536,9.9,5.569-3.947,7.014a5.616,5.616,0,0,0-1.676-1.424c-2.135-1.2-4.593-.883-5.49.712s.107,3.861,2.242,5.062,4.593.883,5.49-.711l5.366-9.536,1.741-3.093Z" transform="translate(-2302.958 2992.751)" fill="#fab856"/>
      <path id="Trazado_1064871" data-name="Trazado 1064871" d="M424.935,202.254l-9.731-2.219a10.222,10.222,0,0,1-7.658-12.391h0a10.221,10.221,0,0,1,11.828-7.619l9.8,1.852a10.222,10.222,0,0,1,8.162,11.854l-.066.368a10.222,10.222,0,0,1-12.333,8.156" transform="translate(-2322.912 2998.763)" fill="#ed59b9"/>
      <path id="Trazado_1064872" data-name="Trazado 1064872" d="M412.8,205.617l-2.115,7.648,9.87-5.595Z" transform="translate(-2324.051 2990.226)" fill="#ed59b9"/>
      <path id="Trazado_1064873" data-name="Trazado 1064873" d="M425.953,188.325c1.817-1.349,3.624-2.189,5.248-1.9a3.236,3.236,0,0,1,2.648,4.034c-.278,1.544-1.935,2.575-3.706,3.893a2.574,2.574,0,0,0-1.2,1.543,2.109,2.109,0,0,0-.011.631l-1.648-.5a1.236,1.236,0,0,1-.441-1.184c.149-.832.953-1.546,2.147-2.5,1.17-.934,2.371-1.7,2.516-2.512a.86.86,0,0,0-.734-1.033c-.714-.128-1.909.5-3.284,1.434Zm2.934,9.26a2.491,2.491,0,0,1-.01,1.307,5.194,5.194,0,0,1-.648,1.785l-2.275-.879a7.548,7.548,0,0,0,.576-2.064c.043-.238.073-.519.1-.8Z" transform="translate(-2329.107 2996.602)" fill="#fff"/>
      <path id="Trazado_1064874" data-name="Trazado 1064874" d="M430.239,221.984l9.851,1.6a10.222,10.222,0,0,0,3.658-20.111l-9.774-1.967a10.223,10.223,0,0,0-12.02,7.916l-.077.365a10.223,10.223,0,0,0,8.362,12.195" transform="translate(-2327.684 2991.654)" fill="#506def"/>
      <path id="Trazado_1064875" data-name="Trazado 1064875" d="M451.846,232.015l-.915,7.882L443.888,231Z" transform="translate(-2335.049 2981.816)" fill="#506def"/>
      <path id="Trazado_1064876" data-name="Trazado 1064876" d="M450.421,209.9c-.049.255-4.155-.312-9.173-1.269s-9.045-1.939-9-2.194,4.156.312,9.174,1.269,9.045,1.939,9,2.194" transform="translate(-2331.194 2989.973)" fill="#fff"/>
      <path id="Trazado_1064877" data-name="Trazado 1064877" d="M450.79,214.655c-.047.256-5.146-.475-11.387-1.632s-11.263-2.3-11.215-2.559,5.145.475,11.387,1.632,11.263,2.3,11.215,2.559" transform="translate(-2329.848 2988.637)" fill="#fff"/>
      <path id="Trazado_1064878" data-name="Trazado 1064878" d="M450.04,219.218c-.047.257-5.146-.475-11.387-1.632s-11.263-2.3-11.215-2.559,5.145.475,11.387,1.632,11.263,2.3,11.215,2.559" transform="translate(-2329.599 2987.125)" fill="#fff"/>
      <path id="Trazado_1064879" data-name="Trazado 1064879" d="M449.291,223.782c-.048.256-5.146-.475-11.387-1.632s-11.263-2.3-11.215-2.558,5.145.475,11.387,1.632,11.263,2.3,11.215,2.559" transform="translate(-2329.351 2985.613)" fill="#fff"/>
      <path id="Trazado_1064880" data-name="Trazado 1064880" d="M447.423,228.157c-.049.255-4.155-.312-9.173-1.269s-9.045-1.939-9-2.194,4.156.312,9.173,1.269,9.046,1.939,9,2.194" transform="translate(-2330.2 2983.926)" fill="#fff"/>
      <path id="Trazado_1064881" data-name="Trazado 1064881" d="M415.328,279.919l-4.457,17.256,26.6,9.767,8.249-17.016Z" transform="translate(-2324.111 2965.611)" fill="#e58435"/>
      <path id="Trazado_1064882" data-name="Trazado 1064882" d="M436.31,263.971l-18.774,10.664,30.394,10.007Z" transform="translate(-2326.319 2970.894)" fill="#fab856"/>
      <path id="Trazado_1064883" data-name="Trazado 1064883" d="M416.664,286.665,422,261.975l26.342,6.22-8.566,26.356Z" transform="translate(-2326.03 2971.555)" fill="#fff"/>
      <path id="Trazado_1064884" data-name="Trazado 1064884" d="M446.892,271.991c-.051.2-4.468-.766-9.866-2.152s-9.733-2.671-9.682-2.869,4.468.765,9.866,2.152,9.733,2.671,9.682,2.869" transform="translate(-2329.568 2969.909)" fill="#b3c7ff"/>
      <path id="Trazado_1064885" data-name="Trazado 1064885" d="M445.886,276.918c-.051.2-4.468-.766-9.866-2.152s-9.733-2.671-9.682-2.869,4.468.765,9.866,2.152,9.733,2.671,9.682,2.869" transform="translate(-2329.235 2968.277)" fill="#b3c7ff"/>
      <path id="Trazado_1064886" data-name="Trazado 1064886" d="M448.372,275.085c-.052.2-4.9-.89-10.839-2.429s-10.7-2.948-10.653-3.146,4.9.889,10.839,2.429,10.7,2.948,10.653,3.146" transform="translate(-2329.414 2969.067)" fill="#b3c7ff"/>
      <path id="Trazado_1064887" data-name="Trazado 1064887" d="M447.083,282.74c-.051.2-4.9-.89-10.839-2.43s-10.7-2.947-10.653-3.145,4.9.889,10.839,2.43,10.7,2.947,10.653,3.145" transform="translate(-2328.988 2966.531)" fill="#b3c7ff"/>
      <path id="Trazado_1064888" data-name="Trazado 1064888" d="M443.326,278.887c-.051.2-4.009-.657-8.839-1.911s-8.7-2.429-8.653-2.627,4.008.658,8.839,1.911,8.7,2.43,8.653,2.627" transform="translate(-2329.068 2967.466)" fill="#b3c7ff"/>
      <path id="Trazado_1064889" data-name="Trazado 1064889" d="M440.766,284.258c-.051.2-3.663-.568-8.067-1.709s-7.932-2.23-7.88-2.427,3.663.568,8.067,1.709,7.932,2.229,7.88,2.427" transform="translate(-2328.731 2965.555)" fill="#b3c7ff"/>
      <path id="Trazado_1064890" data-name="Trazado 1064890" d="M428.711,290.9l-1.638.039-8.187-7.415-2.224,10.28,23.115,7.888,3.587-11.038L432.6,292.44Z" transform="translate(-2326.03 2964.417)" fill="#b3c7ff"/>
      <path id="Trazado_1064891" data-name="Trazado 1064891" d="M415.328,279.919l11.334,14.749,19.06-4.743-8.249,17.016-26.6-9.767Z" transform="translate(-2324.111 2965.611)" fill="#fab856"/>
      <path id="Trazado_1064892" data-name="Trazado 1064892" d="M410.87,302.922l14.5-5.655,3.956,1.568,8.151,13.853Z" transform="translate(-2324.111 2959.864)" fill="#e58435"/>
      <path id="Trazado_1064893" data-name="Trazado 1064893" d="M61.22,330.729l-3.486-2.982-8.13,2.074-1.735,4.006L55.1,354.55l24.4-5.829-.584-22.1Z" transform="translate(-2203.858 2950.14)" fill="#506def"/>
      <path id="Trazado_1064894" data-name="Trazado 1064894" d="M77.572,349.036l-2.016-18.128L45.332,338.15l10.917,15.979Z" transform="translate(-2203.017 2948.72)" fill="#ed59b9"/>
      <path id="Trazado_1064895" data-name="Trazado 1064895" d="M77.212,351l-6.181-17.492-30.085,8.5,11.863,14.821Z" transform="translate(-2201.565 2947.857)" fill="#fab856"/>
      <path id="Trazado_1064896" data-name="Trazado 1064896" d="M56.973,355.142c-7.551-1.5-11.653-7.138-13.317-10.064l-2.71.766,11.863,14.821,24.4-5.829-1.941-5.493c-4.188,3-11.488,7.156-18.3,5.8" transform="translate(-2201.564 2944.026)" fill="#e58435"/>
      <path id="Trazado_1064897" data-name="Trazado 1064897" d="M48.652,266.724l-2.582-7.777-7.14,2.371,2.582,7.777-4.046,1.343,10.694,6.741,4.538-11.8Z" transform="translate(-2200.412 2972.559)" fill="#fab856"/>
      <path id="Trazado_1064898" data-name="Trazado 1064898" d="M56.044,277.116l2.131,6.418L38.5,290.065l-2.131-6.418-2.221.738,2.131,6.418.7,2.115L61.1,284.911l-.7-2.115-2.131-6.418Z" transform="translate(-2199.313 2966.784)" fill="#506def"/>
      <g id="Grupo_1230898" data-name="Grupo 1230898" transform="translate(-2188 3058.341)">
        <path id="Trazado_1064854" data-name="Trazado 1064854" d="M311.85,322.257a.669.669,0,0,1-.657-.546c-.048-.264-.1-.528-.15-.791a.669.669,0,1,1,1.313-.255c.052.267.1.535.152.8a.669.669,0,0,1-.536.779.637.637,0,0,1-.122.011m-1.6-7.323a.668.668,0,0,1-.648-.506c-.526-2.1-1.124-4.259-1.777-6.414a.669.669,0,1,1,1.28-.388c.659,2.175,1.263,4.354,1.794,6.477a.668.668,0,0,1-.486.81.657.657,0,0,1-.163.021m-3.869-12.8a.671.671,0,0,1-.631-.447c-.724-2.054-1.513-4.151-2.345-6.234a.669.669,0,0,1,1.242-.5c.839,2.1,1.633,4.214,2.364,6.285a.669.669,0,0,1-.631.891m-4.954-12.424a.67.67,0,0,1-.612-.4c-.887-2-1.834-4.032-2.813-6.041a.669.669,0,0,1,1.2-.586c.986,2.023,1.94,4.071,2.834,6.085a.669.669,0,0,1-.34.882.662.662,0,0,1-.271.058m-5.854-12.024a.668.668,0,0,1-.591-.356c-1.033-1.951-2.115-3.916-3.214-5.842a.669.669,0,1,1,1.161-.663c1.107,1.939,2.2,3.917,3.235,5.88a.668.668,0,0,1-.59.981m-6.629-11.619a.67.67,0,0,1-.571-.32c-1.145-1.872-2.344-3.768-3.564-5.637a.668.668,0,1,1,1.119-.731c1.227,1.879,2.433,3.787,3.586,5.67a.669.669,0,0,1-.222.919.662.662,0,0,1-.348.1m-7.312-11.2a.667.667,0,0,1-.55-.287c-1.266-1.822-2.574-3.649-3.887-5.431a.669.669,0,1,1,1.076-.794c1.321,1.793,2.637,3.631,3.909,5.462a.668.668,0,0,1-.548,1.05m-7.944-10.782a.666.666,0,0,1-.528-.257c-1.363-1.747-2.769-3.5-4.178-5.205a.669.669,0,1,1,1.032-.851c1.416,1.717,2.83,3.478,4.2,5.233a.669.669,0,0,1-.526,1.08m-8.519-10.319a.665.665,0,0,1-.5-.229c-1.455-1.668-2.953-3.338-4.453-4.965a.668.668,0,1,1,.983-.906c1.508,1.636,3.015,3.316,4.478,4.993a.669.669,0,0,1-.5,1.108m-9.065-9.83a.664.664,0,0,1-.479-.2c-1.561-1.6-3.148-3.182-4.719-4.7a.669.669,0,0,1,.931-.962c1.58,1.531,3.176,3.124,4.746,4.732a.669.669,0,0,1-.479,1.136m-9.6-9.3a.67.67,0,0,1-.451-.175c-1.646-1.5-3.325-2.995-4.989-4.426a.669.669,0,0,1,.872-1.014c1.674,1.441,3.364,2.939,5.019,4.452a.669.669,0,0,1-.451,1.163m-10.143-8.723a.667.667,0,0,1-.419-.148c-1.733-1.4-3.5-2.78-5.256-4.1a.669.669,0,0,1,.806-1.067c1.765,1.332,3.545,2.721,5.289,4.13a.668.668,0,0,1-.421,1.188m-10.674-8.057a.664.664,0,0,1-.387-.123c-1.8-1.275-3.649-2.548-5.494-3.784a.669.669,0,1,1,.744-1.111c1.856,1.243,3.714,2.522,5.524,3.8a.668.668,0,0,1-.387,1.214m-11.115-7.444a.662.662,0,0,1-.357-.1c-1.869-1.183-3.78-2.359-5.681-3.5a.669.669,0,1,1,.686-1.148c1.911,1.142,3.832,2.324,5.71,3.513a.669.669,0,0,1-.358,1.234m-11.479-6.86a.658.658,0,0,1-.327-.087c-1.93-1.087-3.9-2.161-5.853-3.2a.668.668,0,1,1,.626-1.181c1.964,1.039,3.943,2.12,5.883,3.212a.669.669,0,0,1-.329,1.252M191.278,177.3a.664.664,0,0,1-.3-.07c-1.993-.988-4.016-1.957-6.011-2.881a.669.669,0,0,1,.562-1.214c2.007.929,4.04,1.9,6.043,2.9a.669.669,0,0,1-.3,1.268m-12.129-5.615a.672.672,0,0,1-.264-.054c-2.038-.877-4.109-1.735-6.157-2.548a.669.669,0,0,1,.494-1.243c2.06.819,4.143,1.681,6.192,2.563a.669.669,0,0,1-.265,1.283m-12.418-4.933a.652.652,0,0,1-.229-.041c-2.091-.761-4.21-1.5-6.3-2.189a.669.669,0,0,1,.42-1.27c2.1.695,4.233,1.436,6.336,2.2a.669.669,0,0,1-.229,1.3m-12.7-4.2a.666.666,0,0,1-.19-.028c-2.136-.633-4.3-1.235-6.421-1.791a.668.668,0,1,1,.338-1.293c2.139.558,4.313,1.165,6.463,1.8a.67.67,0,0,1-.19,1.311m-12.939-3.378a.694.694,0,0,1-.147-.016c-2.182-.491-4.377-.944-6.526-1.346a.669.669,0,0,1,.246-1.315c2.165.406,4.376.862,6.573,1.356a.668.668,0,0,1-.146,1.321m-13.144-2.458a.842.842,0,0,1-.1-.007c-2.209-.327-4.432-.611-6.606-.843a.669.669,0,1,1,.141-1.33c2.192.233,4.433.519,6.661.85a.669.669,0,0,1-.1,1.33M94.609,155.5a.669.669,0,0,1-.058-1.335c2.2-.193,4.454-.329,6.71-.405a.669.669,0,0,1,.045,1.337c-2.233.075-4.466.209-6.638.4l-.059,0m20.043-.193h-.043c-2.228-.14-4.465-.23-6.65-.265a.669.669,0,0,1,.01-1.337h.011c2.205.035,4.464.126,6.713.267a.669.669,0,0,1-.041,1.336" transform="translate(-31.12 -50.919)" fill="#fff"/>
        <path id="Trazado_1064855" data-name="Trazado 1064855" d="M96.232,348.666a.681.681,0,0,1-.132-.013.669.669,0,0,1-.524-.787c.439-2.192.908-4.4,1.395-6.553a.669.669,0,1,1,1.3.294c-.484,2.146-.952,4.34-1.388,6.521a.669.669,0,0,1-.655.537m2.944-13.039a.69.69,0,0,1-.164-.02.669.669,0,0,1-.485-.812c.545-2.161,1.123-4.341,1.719-6.477a.669.669,0,1,1,1.288.359c-.592,2.125-1.168,4.294-1.709,6.444a.669.669,0,0,1-.648.506m3.59-12.875a.646.646,0,0,1-.2-.029.668.668,0,0,1-.443-.835c.653-2.133,1.342-4.28,2.046-6.381a.669.669,0,0,1,1.269.425c-.7,2.09-1.385,4.226-2.036,6.348a.668.668,0,0,1-.639.473m4.245-12.675a.668.668,0,0,1-.629-.9c.764-2.1,1.563-4.207,2.376-6.267A.669.669,0,1,1,110,303.4c-.808,2.048-1.6,4.145-2.363,6.233a.67.67,0,0,1-.629.44m4.9-12.436a.656.656,0,0,1-.261-.054.668.668,0,0,1-.354-.877c.869-2.044,1.779-4.108,2.7-6.132a.669.669,0,0,1,1.217.555c-.92,2.015-1.825,4.067-2.69,6.1a.67.67,0,0,1-.616.407m5.555-12.159a.662.662,0,0,1-.294-.068.669.669,0,0,1-.306-.895c.977-1.995,2-4.007,3.028-5.98a.669.669,0,0,1,1.185.621c-1.027,1.961-2.04,3.964-3.012,5.947a.668.668,0,0,1-.6.375m6.2-11.846a.669.669,0,0,1-.583-.994c1.086-1.946,2.211-3.9,3.344-5.809a.669.669,0,0,1,1.15.683c-1.127,1.9-2.247,3.842-3.327,5.777a.669.669,0,0,1-.584.343m6.825-11.495a.67.67,0,0,1-.565-1.026c1.191-1.889,2.419-3.78,3.651-5.621a.668.668,0,0,1,1.111.743c-1.225,1.832-2.447,3.713-3.631,5.592a.668.668,0,0,1-.566.312m7.432-11.115a.669.669,0,0,1-.546-1.055c1.281-1.809,2.608-3.633,3.945-5.419a.668.668,0,1,1,1.071.8c-1.33,1.778-2.65,3.592-3.924,5.393a.668.668,0,0,1-.546.282m8.011-10.706a.669.669,0,0,1-.524-1.083c1.379-1.745,2.8-3.5,4.224-5.205a.669.669,0,1,1,1.028.857c-1.417,1.7-2.831,3.441-4.2,5.177a.666.666,0,0,1-.525.254m8.561-10.273a.669.669,0,0,1-.5-1.11c1.458-1.66,2.968-3.336,4.488-4.979a.669.669,0,1,1,.982.907c-1.512,1.636-3.015,3.3-4.466,4.955a.668.668,0,0,1-.5.227m9.08-9.817a.669.669,0,0,1-.479-1.135c1.548-1.59,3.142-3.187,4.736-4.745a.668.668,0,0,1,.934.956c-1.586,1.551-3.171,3.139-4.712,4.722a.668.668,0,0,1-.479.2m9.565-9.348a.668.668,0,0,1-.455-1.158c1.624-1.51,3.295-3.025,4.966-4.5a.669.669,0,0,1,.887,1c-1.663,1.471-3.326,2.979-4.942,4.482a.667.667,0,0,1-.455.179m10.018-8.863a.669.669,0,0,1-.431-1.18c1.7-1.431,3.443-2.863,5.181-4.256a.669.669,0,1,1,.837,1.043c-1.729,1.387-3.464,2.812-5.156,4.236a.665.665,0,0,1-.43.157m10.437-8.366a.669.669,0,0,1-.407-1.2c1.764-1.346,3.573-2.693,5.378-4a.669.669,0,1,1,.786,1.082c-1.8,1.3-3.6,2.645-5.352,3.984a.662.662,0,0,1-.4.138m10.823-7.86a.669.669,0,0,1-.381-1.219c1.827-1.261,3.7-2.522,5.561-3.746a.669.669,0,1,1,.734,1.118c-1.854,1.218-3.717,2.473-5.534,3.728a.663.663,0,0,1-.38.119M215.6,178.45a.668.668,0,0,1-.354-1.236c1.879-1.173,3.806-2.345,5.729-3.483a.669.669,0,0,1,.681,1.151c-1.914,1.133-3.833,2.3-5.7,3.467a.665.665,0,0,1-.352.1m11.513-6.816a.669.669,0,0,1-.328-1.252c1.951-1.095,3.931-2.176,5.885-3.214a.669.669,0,0,1,.628,1.182c-1.945,1.033-3.917,2.108-5.859,3.2a.657.657,0,0,1-.326.086m11.818-6.274a.669.669,0,0,1-.3-1.267c1.993-1,4.022-1.986,6.031-2.934a.669.669,0,0,1,.571,1.209c-2,.944-4.018,1.926-6,2.921a.678.678,0,0,1-.3.071m12.1-5.711a.669.669,0,0,1-.271-1.281c2.044-.9,4.118-1.794,6.166-2.641a.669.669,0,0,1,.512,1.235c-2.038.844-4.1,1.728-6.136,2.629a.669.669,0,0,1-.271.058m12.366-5.115a.669.669,0,0,1-.24-1.294c2.094-.8,4.212-1.587,6.295-2.325a.669.669,0,1,1,.447,1.261c-2.072.734-4.179,1.513-6.262,2.314a.666.666,0,0,1-.239.045m12.616-4.469a.669.669,0,0,1-.205-1.305c2.143-.693,4.3-1.357,6.417-1.972a.669.669,0,0,1,.374,1.284c-2.1.612-4.248,1.271-6.38,1.961a.678.678,0,0,1-.205.032m12.854-3.735a.669.669,0,0,1-.165-1.317c2.2-.565,4.4-1.088,6.537-1.553a.669.669,0,0,1,.284,1.307c-2.117.461-4.3.98-6.489,1.541a.646.646,0,0,1-.167.021m13.083-2.841a.669.669,0,0,1-.115-1.327c2.282-.4,4.521-.733,6.655-.994a.669.669,0,1,1,.161,1.327c-2.111.258-4.327.589-6.586.984a.674.674,0,0,1-.115.01" transform="translate(-31.658 -46.764)" fill="#fff"/>
        <g id="Grupo_1230897" data-name="Grupo 1230897">
          <g id="Grupo_1230896" data-name="Grupo 1230896" clip-path="url(#clip-path-2)">
            <path id="Trazado_1064899" data-name="Trazado 1064899" d="M108.3,204.028c-.52,2.165.351,4.4,1.214,6.448,1.563,3.744,2.795,7.783,4.361,11.521l1.129,9.364,11.667-.882,3.43-.259-1.275-9.089a45.609,45.609,0,0,0,10.883-14.083,64.441,64.441,0,0,1,2.889-6.55c1.582-2.6,4-4.58,5.875-6.985a2.94,2.94,0,0,0,.807-1.888,2.094,2.094,0,0,0-1.774-1.761,5.054,5.054,0,0,0-2.633.379c-.091.033-.191.068-.278.11a18.946,18.946,0,0,0-9.315,7.681,2.71,2.71,0,0,1-1.049,1.151,2.228,2.228,0,0,1-1.39,0,12.971,12.971,0,0,1-6.874-5,6.559,6.559,0,0,0-2.576-2.441c-1.634-.607-3.4.379-4.815,1.394a51.179,51.179,0,0,0-7.7,6.8,9.618,9.618,0,0,0-2.575,4.093" transform="translate(-35.826 -62.879)" fill="#ff7d6f"/>
            <path id="Trazado_1064900" data-name="Trazado 1064900" d="M123.448,221.417l2.116,9.531,9.608-.728-1.274-9.088a45.629,45.629,0,0,0,10.883-14.084,64.221,64.221,0,0,1,2.889-6.549c1.582-2.6,4-4.581,5.875-6.986a2.944,2.944,0,0,0,.807-1.888,2.1,2.1,0,0,0-1.774-1.761,5.054,5.054,0,0,0-2.633.379c-.091.033-.191.068-.279.11a3.9,3.9,0,0,1,1.421.913c.863,1.19-.629,2.607-1.737,3.564-2.644,2.292-3.779,5.815-5.264,8.984-2.855,6.1-15.044,13.857-20.639,17.6" transform="translate(-40.895 -62.879)" fill="#ffa07f"/>
            <path id="Trazado_1064901" data-name="Trazado 1064901" d="M125.695,213.639a20.215,20.215,0,0,0-5.326,7.8,16.129,16.129,0,0,1,3.379-8.561,9.588,9.588,0,0,1,8.222-3.553,4.276,4.276,0,0,1,1.694.449c-.825.782-2.894.844-3.994,1.326a15.514,15.514,0,0,0-3.975,2.539" transform="translate(-39.875 -69.325)" fill="#cf4a57"/>
            <path id="Trazado_1064902" data-name="Trazado 1064902" d="M128.645,196.7c-.555.863-3.223-.267-3.223-.267-.3.495,1.658,1.243.836,3.082-1.137,2.541-4.166.944-4.34.85a2.653,2.653,0,0,1,.127,3.791c-.883,1.01-5.651-.033-5.651-.033s1.819,1.337,1,3.176c-.716,1.6-2.775,1.076-4.848-.415q-.231-.171-.441-.3H112.1a4.742,4.742,0,0,0-.736-.4.517.517,0,0,0-.067-.034l-.007-.006c-3-1.285-2.066,3.363-3.658-.1-2.775-6.019.869-6.38.869-6.38-1.8-4.548,2.675-4.694,2.675-4.694-1.451-4.554,3.584-4.02,3.584-4.02-1.043-2.708,1.966-3.711,3.772-3.023a35.939,35.939,0,0,1,7.008,3,16.793,16.793,0,0,1,1.879,1.251,10.155,10.155,0,0,1,1.224,1.09s1.458,1.157,0,3.43" transform="translate(-35.311 -62.185)" fill="#ff7d6f"/>
            <path id="Trazado_1064903" data-name="Trazado 1064903" d="M110.75,212.875s2.842,2.591,3.344,4.347.752,2.98.752,2.98.744-3.4,2.337-3.983a16.088,16.088,0,0,1-6.432-3.344" transform="translate(-36.689 -70.52)" fill="#cf4a57"/>
            <path id="Trazado_1064904" data-name="Trazado 1064904" d="M130.023,198.678c-.555.863-3.223-.267-3.223-.267-.3.495,1.658,1.243.836,3.082-1.137,2.541-4.166.944-4.34.85a2.653,2.653,0,0,1,.127,3.791c-.883,1.01-5.651-.033-5.651-.033s1.819,1.337,1,3.176c-.716,1.6-2.775,1.076-4.848-.415-.154-.114-3.036-2.257-3.176-2.344.512.267,4,2.266,4.6,2.508a6.379,6.379,0,0,0,1.421.251c.414.09,2.006,0,.415-2.341-1.491-2.194-4.741-3.852-5.143-4.052.415.174,5.835,2.257,8.657,2.966,3.009.749,2.789-2.26,2.341-2.989-.435-.709-9.238-5.274-9.827-5.608.629.267,10.693,4.6,11.582,5.049.916.461,2.682-1.8,1.839-2.972-.776-1.1-7.851-5.153-8.687-5.641.93.495,9.606,5.171,10.944,4.387,2.424-1.421-.251-3.845-.251-3.845l.161-.074a10.154,10.154,0,0,1,1.224,1.09s1.458,1.157,0,3.43" transform="translate(-36.689 -64.165)" fill="#cf4a57"/>
            <path id="Trazado_1064905" data-name="Trazado 1064905" d="M116.9,192.539a4.555,4.555,0,0,0-3.584,4.02c-1.451-4.554,3.584-4.02,3.584-4.02" transform="translate(-37.453 -63.777)" fill="#ffa07f"/>
            <path id="Trazado_1064906" data-name="Trazado 1064906" d="M129.484,190.928c-10.345-4.654-10.78.02-10.78.02-1.043-2.708,1.966-3.711,3.772-3.023a35.961,35.961,0,0,1,7.008,3" transform="translate(-39.253 -62.185)" fill="#ffa07f"/>
            <path id="Trazado_1064907" data-name="Trazado 1064907" d="M123.9,250.969l9.606-.726,10.713,24.311a.045.045,0,0,1,.031-.005c1.018-.451,31.039-13.657,38.27-16.9v25.441a83.648,83.648,0,0,1-13.6,6.4s-7.8,3.9-16.685,7.4c-9.656,3.794-18.918,6.055-22.475,3.382-6.84-5.138-11.343-48.89-11.343-48.89Z" transform="translate(-39.228 -82.899)" fill="#ffa07f"/>
            <path id="Trazado_1064908" data-name="Trazado 1064908" d="M118.414,251.739s4.5,43.751,11.343,48.89c3.558,2.672,12.819.412,22.475-3.382-6.737.286-17.97.6-19.321-.409-1.943-1.453-9.014-45.509-9.014-45.509Z" transform="translate(-39.228 -83.259)" fill="#ff7d6f"/>
            <path id="Trazado_1064909" data-name="Trazado 1064909" d="M195.314,261.323v4.61c-7.359,2.781-37.241,11.961-38.27,12.285,1.019-.451,31.039-13.657,38.27-16.9" transform="translate(-52.025 -86.57)" fill="#ffbf90"/>
            <path id="Trazado_1064910" data-name="Trazado 1064910" d="M114.725,240.164c.021,1.2,5.088,57.027,14.983,59.3,7.064,1.624,32.169-8.988,45.9-15.154,5.472-2.469,9.137-4.222,9.137-4.222l3.057-20.84-6.648-5.857-1.229-1.079a.192.192,0,0,1-.1.043c-2,.79-33.975,13.476-35.7,15.048,0,0-10.558-28.845-11.36-29.315a30.282,30.282,0,0,0-5.889.128c-5.269.374-12.162,1.2-12.162,1.945" transform="translate(-38.005 -78.842)" fill="#fab856"/>
            <path id="Trazado_1064911" data-name="Trazado 1064911" d="M288.872,361.87c.727,1.036,8.774,1.6,18.457,1.283,14.332-.47,32.243-2.843,35.193-8.4a3.541,3.541,0,0,0,.342-.876c2.4-10.153-17.634-71.338-23.159-79.171s-14.172-12.729-14.172-12.729l-3.088,6.284-3.356,6.808,6.135,37.534v.011l6.915,22.689s-3.612,1.1-7.973,2.5c-6.263,2-14.086,4.6-15.069,5.386-1.668,1.336-.225,18.682-.225,18.682" transform="translate(-95.504 -86.786)" fill="#fab856"/>
            <path id="Trazado_1064912" data-name="Trazado 1064912" d="M284.129,597.545c-.378.153-.76.3-1.138.438a64.071,64.071,0,0,1-36.369,2.323l-2.494-88.825L232.151,442.2l-.683-4.352-.21,4.378-3.151,66.114,5.825,93.862a32.633,32.633,0,0,1-3.5,1.258c-16.137,4.821-36.923-1.258-36.923-1.258s2.344-82.4,1.915-88.532c-.279-3.988,2.34-45.971,4.212-74.9,1.008-15.6,1.8-27.405,1.8-27.405h70.4l-.219,23.93,1.782,73.048s12.148,88.637,10.732,89.2" transform="translate(-64.104 -136.275)" fill="#506def"/>
            <path id="Trazado_1064913" data-name="Trazado 1064913" d="M274.868,411.363l-.219,23.93a151.8,151.8,0,0,1-39.464,6.907l-.683-4.352-.211,4.379a108.57,108.57,0,0,1-31.625-3.458c1.009-15.6,1.8-27.406,1.8-27.406Z" transform="translate(-67.138 -136.274)" fill="#3350bc"/>
            <path id="Trazado_1064914" data-name="Trazado 1064914" d="M248.867,610.745a32.715,32.715,0,0,1-3.5,1.258l-6.774-95.119,6.555-79.732,1.258,9.239-.21,4.378-3.151,66.114Z" transform="translate(-79.039 -144.817)" fill="#3350bc"/>
            <path id="Trazado_1064915" data-name="Trazado 1064915" d="M320.877,597.545c-.378.153-.76.3-1.138.438l-14.36-89.641-.945-96.977h4.147l-.219,23.93,1.782,73.048s12.148,88.637,10.732,89.2" transform="translate(-100.852 -136.275)" fill="#3350bc"/>
            <path id="Trazado_1064916" data-name="Trazado 1064916" d="M197.193,365.071c2.33,5.076,29.689,8.646,39.692,8.646s38.089-4.905,40.227-8.646c.683-1.186.513-3.259-.032-5.536a60.413,60.413,0,0,0-4.093-10.613c.32-4.018.631-9.073.93-14.737.4-7.652.759-16.405,1.058-25.19v-.011c.514-15.176.823-30.448.759-40.28a76.068,76.068,0,0,0-.449-10.345s-10.153-4.382-16.138-5.675c-.481-.107-.93-.182-1.347-.246l-34.947-1.39s-1.005.3-2.544.78a.132.132,0,0,1-.032.021,127.008,127.008,0,0,0-13.1,4.788.192.192,0,0,1-.1.043,7.884,7.884,0,0,0-2.95,1.955,4.64,4.64,0,0,0-.246,1.325c-.427,3.794-.8,15.058-1.026,28.674-.352,21.32-.331,48.412.481,61.622-1.432,2.575-7.6,11.66-6.145,14.812" transform="translate(-65.252 -83.166)" fill="#fab856"/>
            <path id="Trazado_1064917" data-name="Trazado 1064917" d="M282.52,203a11.323,11.323,0,0,0,7.831-4.414,9.056,9.056,0,0,0,.772-1.175c1.044-1.935,1.289-8.613-1.457-10.14-1.925-1.069-3.3.519-3.958,1.568v0a6.342,6.342,0,0,0-.425.794Z" transform="translate(-93.592 -61.922)" fill="#ffbf90"/>
            <path id="Trazado_1064918" data-name="Trazado 1064918" d="M282.52,203.319a11.323,11.323,0,0,0,7.831-4.414q.186-.285.324-.542c1.043-1.934,1.289-8.613-1.458-10.138a2.624,2.624,0,0,0-3.508.932v0a6.34,6.34,0,0,0-.425.794Z" transform="translate(-93.592 -62.237)" fill="#ffa07f"/>
            <path id="Trazado_1064919" data-name="Trazado 1064919" d="M292,194.78a2.865,2.865,0,0,1-.111,1.618c-.726,2.247-2.948,3.976-5.076,5.583a5.625,5.625,0,0,0,.72-3.514,12.528,12.528,0,0,1-.151-1.245c-.031-1.68,3.78-5.591,4.618-2.442" transform="translate(-95.013 -64.131)" fill="#ff7d6f"/>
            <path id="Trazado_1064920" data-name="Trazado 1064920" d="M285.21,202.612l.121-.07c.077-.047.2-.11.343-.209a4.853,4.853,0,0,0,1.049-.964,4.312,4.312,0,0,0,.853-1.786,3.715,3.715,0,0,0-.292-2.351,2.106,2.106,0,0,0-.158-.293l-.043-.071c-.011-.018,0-.007-.006-.009v0h0s0,0,.006-.012l.034-.065.071-.128c.049-.084.1-.169.148-.251a10.011,10.011,0,0,1,.637-.928c.223-.289.453-.554.681-.8a6.2,6.2,0,0,1,.671-.637,1.5,1.5,0,0,1,.691-.312,1.1,1.1,0,0,1,.591.092.565.565,0,0,1,.265.235.432.432,0,0,1,.038.112.277.277,0,0,0-.007-.12.527.527,0,0,0-.223-.3,1.2,1.2,0,0,0-.679-.207,1.881,1.881,0,0,0-.916.271,5.948,5.948,0,0,0-.829.605,9.014,9.014,0,0,0-.816.78,8.146,8.146,0,0,0-.753.951c-.059.086-.114.174-.169.263l-.082.134-.107.191-.074.134c.019.044.05.088.075.132l.11.189a1.719,1.719,0,0,1,.136.254,3.932,3.932,0,0,1,.365,2.078,4.442,4.442,0,0,1-.552,1.7,4.893,4.893,0,0,1-.8,1.041c-.113.115-.217.195-.28.255l-.1.089" transform="translate(-94.483 -64.116)" fill="#cf4a57"/>
            <path id="Trazado_1064921" data-name="Trazado 1064921" d="M231.537,203a11.323,11.323,0,0,1-7.831-4.414,9.054,9.054,0,0,1-.772-1.175c-1.045-1.935-1.289-8.613,1.457-10.14,1.925-1.069,3.3.519,3.958,1.568v0a6.34,6.34,0,0,1,.425.794Z" transform="translate(-73.61 -61.922)" fill="#ffbf90"/>
            <path id="Trazado_1064922" data-name="Trazado 1064922" d="M231.76,203.319a11.323,11.323,0,0,1-7.831-4.414q-.186-.285-.323-.542c-1.044-1.934-1.289-8.613,1.458-10.138a2.624,2.624,0,0,1,3.508.932v0a6.342,6.342,0,0,1,.425.794Z" transform="translate(-73.833 -62.237)" fill="#ffa07f"/>
            <path id="Trazado_1064923" data-name="Trazado 1064923" d="M224.077,194.78a2.865,2.865,0,0,0,.111,1.618c.726,2.247,2.948,3.976,5.076,5.583a5.625,5.625,0,0,1-.72-3.514,12.524,12.524,0,0,0,.151-1.245c.031-1.68-3.78-5.591-4.618-2.442" transform="translate(-74.207 -64.131)" fill="#ff7d6f"/>
            <path id="Trazado_1064924" data-name="Trazado 1064924" d="M230.645,202.612l-.121-.07c-.077-.047-.2-.11-.343-.209a4.854,4.854,0,0,1-1.049-.964,4.312,4.312,0,0,1-.853-1.786,3.72,3.72,0,0,1,.292-2.351,2.042,2.042,0,0,1,.158-.293l.043-.071c.011-.018,0-.007.006-.009v0h0l-.006-.012-.035-.065-.072-.128c-.048-.084-.1-.169-.146-.251a10.294,10.294,0,0,0-.637-.928c-.223-.289-.453-.554-.681-.8a6.2,6.2,0,0,0-.671-.637,1.5,1.5,0,0,0-.691-.312,1.1,1.1,0,0,0-.591.092.568.568,0,0,0-.265.235.5.5,0,0,0-.039.112.287.287,0,0,1,.008-.12.53.53,0,0,1,.223-.3,1.2,1.2,0,0,1,.679-.207,1.881,1.881,0,0,1,.915.271,5.912,5.912,0,0,1,.829.605,9.014,9.014,0,0,1,.816.78,8.146,8.146,0,0,1,.753.951c.059.086.114.174.17.263l.081.134.107.191.074.134c-.019.044-.05.088-.075.132l-.11.189a1.718,1.718,0,0,0-.136.254,3.932,3.932,0,0,0-.365,2.078,4.442,4.442,0,0,0,.552,1.7,4.894,4.894,0,0,0,.8,1.041c.113.115.217.195.28.255l.1.089" transform="translate(-74.518 -64.116)" fill="#cf4a57"/>
            <path id="Trazado_1064925" data-name="Trazado 1064925" d="M234.521,253.273l.534.8,3.965,6a28.6,28.6,0,0,0,5.964,1.657h.011l5.4-5.772,3.666,5.761a24.767,24.767,0,0,0,10.409-4.393c1.358-1.283,2.522-2.5,3.452-3.495.374-.4.706-.759.984-1.079l-7.823-4.029h-.011l-1.56-.812-1.069-.043-.449-.021-12.718-.459-.972-.042-.972.587-.78.481Z" transform="translate(-77.691 -81.938)" fill="#ffa07f"/>
            <path id="Trazado_1064926" data-name="Trazado 1064926" d="M252.822,235.782a16.959,16.959,0,0,0,10.511-1.668c-.2-4.193-.187-9.256-.187-9.256l-14.158.176a72.776,72.776,0,0,1-.108,8.7,7.853,7.853,0,0,0,3.941,2.047" transform="translate(-82.448 -74.49)" fill="#ff7d6f"/>
            <path id="Trazado_1064927" data-name="Trazado 1064927" d="M249.26,248.9c-1.493-1.09-2.331-2.7-3.337-4.127l.067-.053c1.123-.922,1.664-3.671,1.911-6.589a7.851,7.851,0,0,0,3.941,2.047,16.958,16.958,0,0,0,10.51-1.668,27.1,27.1,0,0,0,.544,5.082,5.809,5.809,0,0,0,2.1,1.926c-2.494,2.53-5.2,4.773-8.463,5.57-2.476.651-4.974-.559-7.27-2.187" transform="translate(-81.468 -78.887)" fill="#ffa07f"/>
            <path id="Trazado_1064928" data-name="Trazado 1064928" d="M234.026,245.4l.32.5h.011l.535.8c3.131-1.817,6.23-3.645,8.09-4.767.342-.214.651-.4.9-.556.193-.118.352-.225.481-.31a2.283,2.283,0,0,0,.748-1.058,18.049,18.049,0,0,0,.887-4.787v-.011c.139-1.721.193-3.591.193-5.3v-.641c-.011-1.7-.043-3.2-.086-4.179v-.011l-2.03.032s.011.15.021.428c0,.106,0,.235.011.385a1.8,1.8,0,0,0,.011.235c.011.588.031,1.4.031,2.341v1.432q-.015.545-.031,1.122v.138c-.021.332-.032.673-.043,1.016-.011.1-.011.193-.021.288-.021.364-.043.738-.075,1.111,0,.064-.011.139-.011.2a1.6,1.6,0,0,0-.021.235v.011c-.011.011-.011.011-.011.021-.011.1-.011.192-.021.278,0,.043-.011.075-.011.118v.021c-.011.075-.021.15-.032.213-.011.139-.021.278-.043.407a.064.064,0,0,1-.011.043c-.021.181-.043.352-.064.524s-.043.342-.075.513c-.011.086-.032.171-.043.245-.01.043-.01.075-.021.107-.032.235-.086.471-.138.695a.182.182,0,0,1-.011.075l-.064.288c-.064.257-.128.5-.2.738-.021.075-.043.139-.064.2a.655.655,0,0,1-.053.128.953.953,0,0,1-.053.16,5.419,5.419,0,0,1-.32.716c-.021.053-.054.1-.075.139s-.064.106-.1.15a.885.885,0,0,0-.085.128,1.6,1.6,0,0,1-.171.2c-.021.021-.043.053-.064.075a2.048,2.048,0,0,1-.16.15.284.284,0,0,1-.064.054h-.011a87.778,87.778,0,0,1-7.951,4.948" transform="translate(-77.527 -74.563)" fill="#ffbf90"/>
            <path id="Trazado_1064929" data-name="Trazado 1064929" d="M268.578,229.557c0,1.624.021,3.409.118,5.076v.011a19.946,19.946,0,0,0,.877,5.44c.053.118.1.225.149.331a1.888,1.888,0,0,0,.257.407,6.677,6.677,0,0,0,1.528,1.261.011.011,0,0,0,.011.011,80.961,80.961,0,0,0,7.684,4.285c.374-.4.7-.759.983-1.079.053-.053.1-.107.139-.15a96.252,96.252,0,0,1-9.918-5.953c-.021-.075-.043-.149-.064-.235l-.032-.128c-.011-.043-.021-.1-.032-.139s-.021-.1-.032-.149a.939.939,0,0,1-.021-.182.535.535,0,0,1-.021-.128c-.01-.032-.01-.075-.021-.107-.042-.289-.074-.6-.106-.94a6.966,6.966,0,0,1-.064-.695.252.252,0,0,1-.011-.086c-.021-.224-.031-.438-.053-.673-.011-.192-.021-.385-.032-.588s-.021-.406-.032-.619c-.011-.107-.011-.214-.021-.321v-.1c-.011-.106-.011-.224-.021-.342s-.011-.246-.011-.374c-.011-.235-.021-.47-.032-.694s-.011-.481-.021-.716v-.043c0-.1-.011-.193-.011-.288v-.033c0-.117-.011-.235-.011-.352s-.011-.213-.011-.32c0-.214-.011-.417-.011-.62,0-.064-.011-.128-.011-.182v-.438c-.011-.128-.011-.267-.011-.4a.973.973,0,0,0-.011-.181.231.231,0,0,0,0-.086c0-.363-.011-.706-.011-1.037v-.15c-.01-.374-.01-.727-.01-1.047v-.342c-.011-.994-.011-1.614-.011-1.614l-.951.011c-.043.866-.1,2.138-.118,3.6-.011.352-.011.706-.011,1.079Z" transform="translate(-88.973 -74.489)" fill="#ffbf90"/>
            <path id="Trazado_1064930" data-name="Trazado 1064930" d="M232.885,184.7s3.016,15.336,6.412,19.126,11.285,4.507,11.285,4.507,7.889-.718,11.279-4.507,5.941-19.168,5.941-19.168a20,20,0,0,0,.837-4.472v-.028a61.327,61.327,0,0,0,.021-8.916s-.176-8.909-4.493-12.7c-1.849-1.624-4.605-1.856-7.158-1.59a62.336,62.336,0,0,1-12.86,0c-2.553-.267-5.308-.035-7.158,1.59-2.173,1.905-3.3,5.112-3.875,7.819a28.438,28.438,0,0,0-.619,4.88s-1.167,8.909.387,13.458" transform="translate(-76.881 -51.965)" fill="#ffa07f"/>
            <path id="Trazado_1064931" data-name="Trazado 1064931" d="M239.532,204.087c4.3,7.287,16.805,5.63,21.656.779,7.628-11.607,7.254-27.6,4.631-42.545,2.713,4.256,2.841,10.73,2.841,10.73s.7,8.864-.859,13.418c0,0-2.547,15.379-5.939,19.167s-11.283,4.51-11.283,4.51-7.89-.722-11.283-4.51-6.408-19.122-6.408-19.122c-1.071-3.129-.855-8.313-.614-11.251.87,9.571,1.436,18.95,7.258,28.825" transform="translate(-76.881 -53.773)" fill="#ffd39c"/>
            <path id="Trazado_1064932" data-name="Trazado 1064932" d="M274.229,201.9c.3.8,2.5.718,4.908-.185s4.123-2.283,3.823-3.083-2.5-.717-4.908.185-4.123,2.283-3.823,3.083" transform="translate(-90.834 -65.619)" fill="#ff7d6f"/>
            <path id="Trazado_1064933" data-name="Trazado 1064933" d="M230.623,198.42c-.328.789,1.332,2.23,3.709,3.22s4.569,1.153,4.9.364-1.331-2.231-3.709-3.22-4.569-1.153-4.9-.364" transform="translate(-76.386 -65.566)" fill="#ff7d6f"/>
            <path id="Trazado_1064934" data-name="Trazado 1064934" d="M238.239,176.971s8.142-6.543,10.4-3.288c1.32,1.9,0,2.795,0,2.795Z" transform="translate(-78.923 -57.236)" fill="#d11e7d"/>
            <path id="Trazado_1064935" data-name="Trazado 1064935" d="M253.6,201.282a6.876,6.876,0,0,0,7.373.595,3.923,3.923,0,0,1-3.918,3.094,4.01,4.01,0,0,1-3.455-3.689" transform="translate(-84.012 -66.68)" fill="#ff7d6f"/>
            <path id="Trazado_1064936" data-name="Trazado 1064936" d="M258.752,199.708a5.046,5.046,0,0,0,1.62-.6,2.25,2.25,0,0,0,1.145-1.362,1.323,1.323,0,0,0-.639-1.4,2.455,2.455,0,0,0-1.088-.41,2.652,2.652,0,0,0-.437-.029c-.009-.181-.006-.377-.006-.6a18.19,18.19,0,0,1,.445-3.585,17.739,17.739,0,0,1,1.892-4.887,33.785,33.785,0,0,1-.769,5.138c-.276,1.253-.611,2.373-.893,3.249a2.576,2.576,0,0,1,1.337.28,2.513,2.513,0,0,1,1.04.92,2.084,2.084,0,0,1,.239,1.566A2.9,2.9,0,0,1,260.8,200a4.284,4.284,0,0,1-2.036.284,3.9,3.9,0,0,1-1.3-.34c-.209-.1-.344-.181-.405-.215a4.891,4.891,0,0,0,1.693-.017" transform="translate(-85.157 -61.893)" fill="#fc5b68"/>
            <path id="Trazado_1064937" data-name="Trazado 1064937" d="M248.14,209.779s5.657-.144,13.525,4.159c0,0-3.861,5.157-8.669,3.349s-4.856-7.508-4.856-7.508" transform="translate(-82.202 -69.494)" fill="#fff"/>
            <path id="Trazado_1064938" data-name="Trazado 1064938" d="M276.926,174.717s-10.2-2.231-10.779,1.691c-.335,2.29,1.242,2.5,1.242,2.5Z" transform="translate(-88.153 -57.67)" fill="#d11e7d"/>
            <path id="Trazado_1064939" data-name="Trazado 1064939" d="M274.484,189.451c-.041,1.917-1.043,3.451-2.237,3.425s-2.129-1.6-2.087-3.519,1.043-3.451,2.238-3.425,2.128,1.6,2.086,3.519" transform="translate(-89.497 -61.594)" fill="#2a3863"/>
            <path id="Trazado_1064940" data-name="Trazado 1064940" d="M277.392,188.3a4.45,4.45,0,0,1-4.813,1.828,4.448,4.448,0,0,1,4.813-1.828" transform="translate(-90.298 -62.339)" fill="#fff0e7"/>
            <path id="Trazado_1064941" data-name="Trazado 1064941" d="M243.082,189.451c.041,1.917,1.043,3.451,2.238,3.425s2.128-1.6,2.086-3.519-1.043-3.451-2.237-3.425-2.129,1.6-2.087,3.519" transform="translate(-80.527 -61.594)" fill="#2a3863"/>
            <path id="Trazado_1064942" data-name="Trazado 1064942" d="M239.933,188.3a4.45,4.45,0,0,0,4.813,1.828,4.448,4.448,0,0,0-4.813-1.828" transform="translate(-79.484 -62.339)" fill="#fff0e7"/>
            <path id="Trazado_1064943" data-name="Trazado 1064943" d="M292.82,187.8a.5.5,0,0,0,.133-.122c.1-.036.2-.083.3-.117l-.429.239" transform="translate(-97.004 -62.135)" fill="#3f0727"/>
            <path id="Trazado_1064944" data-name="Trazado 1064944" d="M225.44,166.039a43.474,43.474,0,0,0,.225,6.145c1.421,1.721,2.5,2.907,3.911,4.628a63.908,63.908,0,0,1-.075-12.044,21.685,21.685,0,0,0,2.084-1.165c3.057-1.923,5.91-4.382,9.426-5.226,6.712-1.6,14.033,3.2,20.434.631a40.5,40.5,0,0,1,3.409,16.031,15.025,15.025,0,0,1,4.424-2.565c.556-.663,1.079-3.409,1.3-4.072.513-1.56,1.015-3.142,1.41-4.735.2-.78.407-1.635.6-2.512a15.031,15.031,0,0,0,.2-6.84,11.515,11.515,0,0,0-5.258-6.647c-3.238-1.924-5.845-1.582-9.277-.534-4.093-6.124-12.942-6.273-19.322-4.425a19.129,19.129,0,0,0-12.782,11.8c-.887,2.629-1.261,5.653-2.426,8.08a7.646,7.646,0,0,1-2.362,2.95,7.579,7.579,0,0,0,4.072.5" transform="translate(-73.334 -46.932)" fill="#d11e7d"/>
            <path id="Trazado_1064945" data-name="Trazado 1064945" d="M224.9,162.586c1.3-.79,2.543-1.689,3.74-2.586,3.591-2.694,7.225-5.654,11.617-6.584,3.73-.78,7.588,0,11.372.481s8.25.738,11.553-1.176c2.276,1.7,3.965,4.05,6.091,5.932a11.2,11.2,0,0,0,4.488,2.5,15.032,15.032,0,0,0,.2-6.84,10.044,10.044,0,0,0-.78-1.967,11.861,11.861,0,0,0-4.478-4.681c-3.239-1.924-5.846-1.582-9.277-.534-4.093-6.124-12.943-6.273-19.322-4.425a19.131,19.131,0,0,0-12.782,11.8c-.107.31-.2.631-.3.962-.684,2.383-1.1,4.981-2.127,7.118" transform="translate(-74.504 -46.932)" fill="#d11e7d"/>
            <path id="Trazado_1064946" data-name="Trazado 1064946" d="M228.081,155.469a22.03,22.03,0,0,0,3.655-2.276c3.74-2.821,7.118-6.391,11.585-7.8a13.887,13.887,0,0,1,15.175,5.173,18.1,18.1,0,0,1,15.742,1.785,11.86,11.86,0,0,0-4.478-4.681c-3.239-1.924-5.846-1.582-9.277-.534-4.093-6.124-12.942-6.273-19.323-4.425a19.128,19.128,0,0,0-12.781,11.8c-.107.31-.2.631-.3.962" transform="translate(-75.557 -46.932)" fill="#ed59b9"/>
            <path id="Trazado_1064947" data-name="Trazado 1064947" d="M258.254,255.611l3.666,5.76,1.582,2.469a52.269,52.269,0,0,0,8.828-6.861c1.358-1.283,2.522-2.5,3.452-3.495.374-.4.7-.759.983-1.079.053-.053.1-.107.139-.15.759-.866,1.186-1.39,1.186-1.39l-11.1-4.563-.833.887-.3.31-6.027,6.444Z" transform="translate(-85.553 -81.594)" fill="#fff"/>
            <path id="Trazado_1064948" data-name="Trazado 1064948" d="M231.869,250.537l1.442,2.169.321.5h.011l.534.8,3.965,6,3.12,4.7,2.843-3.046h.011l5.4-5.771-2.052-2.33-4.3-4.874-.716-.823-.631-.716Z" transform="translate(-76.812 -81.874)" fill="#fff"/>
            <path id="Trazado_1064949" data-name="Trazado 1064949" d="M305.593,374.358c.6-1.15,2.37-.125,1.745,1.02-3.835,7.028-2.792,17.72,1.79,24.124.194.271-.2.671-.469.468-6.959-5.187-6.723-18.612-3.066-25.612" transform="translate(-100.4 -123.849)" fill="#e58435"/>
            <rect id="Rectángulo_424337" data-name="Rectángulo 424337" width="75.642" height="46.582" transform="translate(133.808 205.033)" fill="#2a3863"/>
            <path id="Trazado_1064950" data-name="Trazado 1064950" d="M250.378,339.472a3.5,3.5,0,0,0,2.771-5.651,5.558,5.558,0,1,1-4.828,5.5c0-.166.034-.321.048-.483a3.492,3.492,0,0,0,2.01.637" transform="translate(-82.262 -110.562)" fill="#fff"/>
            <path id="Trazado_1064951" data-name="Trazado 1064951" d="M282.482,384.857a39.093,39.093,0,0,1-8.092.763h-.007a129.3,129.3,0,0,1-14.177-.769S252.7,382,250.1,380.344c-1.337-.856-8.165-6.606-9.7-8.78-.916-1.3,1.5-1.94,2.628-1.94,3.725-4.834,9.824,1.378,11.75,2.522,1.043.615,7.356,1.8,8.526,1.759,2.508-.087,4.139-.221,4.9-.6a.7.7,0,0,0,.468-.882c-.609-2.133-6-4.361-7.7-4.868-1.625-.481-4.674-4.394-3.5-6.594l.02-.033.194-.294a1.414,1.414,0,0,1,1.378-.529v.007c2.04.24,5.443,3.263,10.887,3.263,1.264,0,7.383,2.246,8.693,3.229a40.614,40.614,0,0,1,5.1,5.591,42.2,42.2,0,0,0-1.251,12.665" transform="translate(-79.571 -119.287)" fill="#ff7d6f"/>
            <path id="Trazado_1064952" data-name="Trazado 1064952" d="M244.428,374.349l8.655,7.791,12.291,3.427c-1.087-2.006-11.9-4.43-11.9-4.43s-6.157-6.771-9.047-6.788" transform="translate(-80.973 -124.012)" fill="#cf4a57"/>
            <path id="Trazado_1064953" data-name="Trazado 1064953" d="M274.485,391.307a129.113,129.113,0,0,1-14.177-.769s-7.51-2.855-10.111-4.507c-1.337-.856-8.165-6.607-9.7-8.78l11.435,8.513,8.74,3.578Z" transform="translate(-79.672 -124.973)" fill="#cf4a57"/>
            <path id="Trazado_1064954" data-name="Trazado 1064954" d="M276.62,373.572a.7.7,0,0,0,.468-.882c-.609-2.133-6-4.361-7.7-4.868-1.625-.481-4.674-4.394-3.5-6.594l.02-.033.194-.294s.334,4.748,6.3,6.974,6.36,5.25,4.226,5.7" transform="translate(-87.993 -119.557)" fill="#cf4a57"/>
            <path id="Trazado_1064955" data-name="Trazado 1064955" d="M316.191,273.339c-2.431-6.056-26.249-19.849-26.249-19.849,5.985,1.293,16.138,5.675,16.138,5.675s8.657,4.884,14.172,12.728,25.563,69.018,23.159,79.171c-2.108-23.27-24.788-71.669-27.219-77.725" transform="translate(-96.05 -83.975)" fill="#e58435"/>
            <path id="Trazado_1064956" data-name="Trazado 1064956" d="M140.8,273.956c.673.994,6.754-1.475,6.754-1.475s2.533,5.279,3.334,5.012-.417-5.354-.417-5.354c.427-.631,18.254-9.576,32.19-16.5,1.572-.78,3.089-1.539,4.521-2.244,6.519-3.239,11.414-5.643,11.874-5.867a126.854,126.854,0,0,0-13.1,4.788.2.2,0,0,1-.1.042c-2,.791-33.975,13.477-35.7,15.048,0,0-10.559-28.845-11.36-29.315a30.251,30.251,0,0,0-5.889.128l13.434,29.39s-6.209,5.344-5.546,6.348" transform="translate(-44.03 -78.842)" fill="#e58435"/>
            <path id="Trazado_1064957" data-name="Trazado 1064957" d="M293.073,372.2a38.3,38.3,0,0,0-16.029-7.262,16.877,16.877,0,0,1-8.653-4.821c2.04.24,5.443,3.263,10.887,3.263,1.264,0,7.383,2.246,8.693,3.229a40.647,40.647,0,0,1,5.1,5.591" transform="translate(-88.911 -119.299)" fill="#ffa07f"/>
          </g>
        </g>
      </g>
    </g>
  </g>
</svg>
