<svg xmlns="http://www.w3.org/2000/svg" xmlns:xlink="http://www.w3.org/1999/xlink" width="295" height="286" viewBox="0 0 295 286">
  <defs>
    <clipPath id="clip-path">
      <rect id="Rectángulo_424342" data-name="Rectángulo 424342" width="295" height="286" transform="translate(-1402 4312)" fill="#fff" stroke="#707070" stroke-width="1"/>
    </clipPath>
    <linearGradient id="linear-gradient" x1="0.5" x2="0.5" y2="1" gradientUnits="objectBoundingBox">
      <stop offset="0" stop-color="#903cdf"/>
      <stop offset="1" stop-color="#481e70"/>
    </linearGradient>
    <linearGradient id="linear-gradient-2" x1="0.5" y1="1" x2="0.5" gradientUnits="objectBoundingBox">
      <stop offset="0.14" stop-color="#fff"/>
      <stop offset="0.897" stop-color="#fff" stop-opacity="0"/>
    </linearGradient>
    <linearGradient id="linear-gradient-3" x1="0.5" y1="1" x2="0.5" gradientUnits="objectBoundingBox">
      <stop offset="0.297" stop-color="#fff"/>
      <stop offset="0.897" stop-color="#fff" stop-opacity="0"/>
    </linearGradient>
    <linearGradient id="linear-gradient-4" x1="0.5" y1="1" x2="0.5" gradientUnits="objectBoundingBox">
      <stop offset="0.189" stop-color="#d4d4d4"/>
      <stop offset="0.681" stop-color="#fff" stop-opacity="0"/>
    </linearGradient>
    <linearGradient id="linear-gradient-5" x1="0.5" y1="1" x2="0.5" gradientUnits="objectBoundingBox">
      <stop offset="0.168" stop-color="#fff"/>
      <stop offset="0.897" stop-color="#fff" stop-opacity="0"/>
    </linearGradient>
    <linearGradient id="linear-gradient-6" x1="0.5" y1="1" x2="0.5" y2="0" xlink:href="#linear-gradient-3"/>
    <linearGradient id="linear-gradient-7" x1="4.862" y1="0.865" x2="-3.862" y2="0.135" gradientUnits="objectBoundingBox">
      <stop offset="0.189" stop-color="#fff"/>
      <stop offset="0.681" stop-color="#fff" stop-opacity="0"/>
    </linearGradient>
    <linearGradient id="linear-gradient-12" x1="0.5" y1="1" x2="0.5" y2="0" xlink:href="#linear-gradient-5"/>
    <linearGradient id="linear-gradient-14" x1="13.806" y1="1" x2="13.806" y2="0" xlink:href="#linear-gradient-3"/>
    <linearGradient id="linear-gradient-15" x1="54.545" y1="0.865" x2="45.818" y2="0.135" xlink:href="#linear-gradient-7"/>
    <linearGradient id="linear-gradient-16" x1="4.517" y1="1" x2="4.517" y2="0" xlink:href="#linear-gradient-2"/>
    <linearGradient id="linear-gradient-17" x1="3.834" y1="1" x2="3.834" y2="0" xlink:href="#linear-gradient-5"/>
    <linearGradient id="linear-gradient-18" x1="8.349" y1="1" x2="8.349" y2="0" xlink:href="#linear-gradient-4"/>
    <linearGradient id="linear-gradient-19" x1="0.176" y1="1" x2="0.176" y2="0" xlink:href="#linear-gradient-3"/>
    <linearGradient id="linear-gradient-20" x1="1.064" y1="1" x2="1.064" y2="0" xlink:href="#linear-gradient-5"/>
    <linearGradient id="linear-gradient-21" x1="1.747" y1="1" x2="1.747" y2="0" xlink:href="#linear-gradient-2"/>
  </defs>
  <g id="Enmascarar_grupo_1211604" data-name="Enmascarar grupo 1211604" transform="translate(1402 -4312)" clip-path="url(#clip-path)">
    <g id="Grupo_1230944" data-name="Grupo 1230944" transform="translate(0 4)">
      <rect id="Rectángulo_422755" data-name="Rectángulo 422755" width="155" height="286" rx="13" transform="translate(-1332 4308)" fill="url(#linear-gradient)"/>
      <g id="OBJECTS" transform="translate(-1445.978 4216.707)">
        <g id="Grupo_1230943" data-name="Grupo 1230943" transform="translate(55.978 116.293)">
          <g id="Grupo_1230901" data-name="Grupo 1230901" transform="translate(29.882 128.539)">
            <path id="Trazado_1064965" data-name="Trazado 1064965" d="M316.612,358.611a15.43,15.43,0,0,0-6.213-8.563,13.675,13.675,0,0,0,4.66-4.641c2.481-4.224,1.717-9.06-2.044-12.938L303.147,322.3c-5.637-5.812-15.605-6.7-18.526-6.832l-2.061-.094c-1.3-4.419-5.71-7.9-12.172-9.586l-16.552-4.317a34.252,34.252,0,0,0-8.513-1.046,29.877,29.877,0,0,0-7.685.937l-3.6.962c-3.458-3.257-9.195-5.135-16.02-5.135H200.4c-6.961,0-12.68,1.861-16.151,5.18l-3.629-.987a29.574,29.574,0,0,0-7.737-.957,34.636,34.636,0,0,0-8.476,1.028l-16.834,4.317c-6.526,1.673-11,5.155-12.342,9.579l-2.628.119c-2.861.13-12.648.988-18.414,6.558L103.652,332.2c-4.006,3.87-4.946,8.761-2.513,13.085a13.238,13.238,0,0,0,4.131,4.4c-3.595,2.47-5.973,5.482-6.865,8.778a11.142,11.142,0,0,0,3.21,10.939l14.229,14.252c3.916,3.922,10.3,6.171,17.527,6.171a38.5,38.5,0,0,0,13.47-2.483l9.591-3.625a3.49,3.49,0,0,1,4.718,3.475h0c-.285,4.683,1.88,9.139,6.1,12.547,4.585,3.706,11.017,5.747,18.111,5.747h42.051c13.787,0,24.622-7.794,24.668-17.743l.006-1.118a3.491,3.491,0,0,1,4.752-3.237l10.077,3.906a37.763,37.763,0,0,0,13.508,2.531c7.05,0,13.384-2.152,17.377-5.9l15.162-14.252A11.345,11.345,0,0,0,316.612,358.611Zm-73.639-19.253c-3.722,4.238-16.4,8.8-35.432,8.8-19.929,0-31.383-5.032-34.219-8.415-.743-.886-.588-1.152-.331-1.592,2.351-4.031,17.15-9.653,35.911-9.653,19.871,0,32.9,5.912,34.619,9.222C243.681,338.033,243.85,338.358,242.972,339.358Z" transform="translate(-98.031 -297.186)" fill="none" stroke="#352b5b" stroke-miterlimit="10" stroke-width="0.22"/>
            <path id="Trazado_1064966" data-name="Trazado 1064966" d="M313.744,360.876c-.874-3.617-4.2-6.851-9.365-9.107l-2.058-.9c4.814-.578,8.5-2.539,10.229-5.485,1.722-2.93,1.162-6.316-1.5-9.056l-9.869-10.175c-3.459-3.566-9.932-5.076-14.836-5.3l-6.441-.294a6.136,6.136,0,0,0-.109-2.534c-.476-1.881-2.275-5.3-8.983-7.048l-16.551-4.317a27.841,27.841,0,0,0-6.92-.843,23.575,23.575,0,0,0-6.057.726l-6.176,1.65q-.768-.108-1.535-.207l-.038-.061c-2.093-3.4-7.014-5.344-13.5-5.344H202.418c-2.991,0-10.286.5-13.418,5.089l-.192.281q-.9.115-1.81.241l-6.014-1.635a23.306,23.306,0,0,0-6.084-.739,28.244,28.244,0,0,0-6.905.832l-16.834,4.317c-6.755,1.732-8.613,5.125-9.12,6.994a6.124,6.124,0,0,0-.146,2.576l-6.981.318c-4.828.22-11.257,1.681-14.82,5.122L109.56,336.152c-2.837,2.741-3.524,6.166-1.837,9.164.79,1.4,3.225,4.534,9.517,5.468l-2.223.944c-5.293,2.248-8.746,5.473-9.722,9.081a7.856,7.856,0,0,0,2.282,7.815l14.229,14.252c2.967,2.971,7.919,4.675,13.586,4.675a32.258,32.258,0,0,0,11.281-2.091l16.958-6.411a3.485,3.485,0,0,1,2.195-.086l.176.05a3.485,3.485,0,0,1,2.523,3.562l-.384,6.358c-.22,3.626,1.458,7.078,4.725,9.719,3.637,2.94,8.791,4.559,14.513,4.559h42.051c11.008,0,19.658-6.115,19.694-13.921l.033-6.755a3.477,3.477,0,0,1,2.546-3.34l.838-.232a3.483,3.483,0,0,1,2.2.1l16.421,6.365a31.526,31.526,0,0,0,11.275,2.122c5.637,0,10.443-1.6,13.532-4.5L311.132,368.8A8.015,8.015,0,0,0,313.744,360.876Zm-64.632-17.8c-4.583,5.218-18.589,10.483-39.55,10.483-20.634,0-34.152-5.107-38.4-10.168-1.961-2.339-1.4-4.034-.691-5.249,3.342-5.731,19.756-11.916,40.447-11.916,20.515,0,36.34,6.039,39.237,11.635C250.722,338.944,251.225,340.666,249.112,343.073Z" transform="translate(-100.053 -298.748)" fill="none" stroke="#352b5b" stroke-miterlimit="10" stroke-width="0.439"/>
            <path id="Trazado_1064967" data-name="Trazado 1064967" d="M289.569,330.868l-14.657-.669a59.375,59.375,0,0,0-6.341-3.43l5.476-3.64c1.163-.773.1-1.843-2.424-2.5l-16.552-4.317a15.65,15.65,0,0,0-6.994-.134l-8.507,2.272c-2.753-.426-5.568-.789-8.452-1.072l-2.154-3.489c-.455-.739-2.662-1.281-5.159-1.281H206.182c-2.5,0-4.739.542-5.243,1.281l-2.382,3.489c-2.9.282-5.741.645-8.523,1.072l-8.358-2.272a15.7,15.7,0,0,0-7,.134l-16.834,4.317c-2.564.658-3.7,1.727-2.588,2.5l5.238,3.64a64.327,64.327,0,0,0-6.565,3.43l-14.7.669c-3.356.153-6.836,1.19-8.145,2.455L120.543,343.5c-1.7,1.647-.323,3.083,3.294,3.3l16.2.977a13.991,13.991,0,0,0,.743,5.643l-17.546,7.451c-4.311,1.83-6.345,4.537-4.576,6.309l14.229,14.251c2.3,2.305,8.17,2.541,13.483.533l21.763-8.227a113.9,113.9,0,0,0,13.889,3.679l-.892,14.751c-.232,3.82,4.052,6.822,10.011,6.822h42.051c5.958,0,10.439-3,10.457-6.822l.072-14.751a119.354,119.354,0,0,0,14.129-3.679l21.225,8.227c5.181,2.008,11.064,1.772,13.517-.533l15.161-14.251c1.885-1.773.028-4.479-4.163-6.309l-17.059-7.451a14.409,14.409,0,0,0,1.112-5.643l16.267-.977c3.631-.218,5.107-1.654,3.51-3.3l-9.869-10.175C296.327,332.058,292.915,331.021,289.569,330.868Zm-76.243,32.714c-34.442,0-54.771-13.017-47.511-25.464,5.656-9.7,27.072-16.117,48.871-16.117s42.795,6.419,47.816,16.117C268.948,350.565,247.767,363.582,213.326,363.582Z" transform="translate(-103.817 -301.65)" fill="#352b5b"/>
            <path id="Trazado_1064968" data-name="Trazado 1064968" d="M311.291,362.818c-.63-2.608-3.281-5.1-7.274-6.849l-13.806-6.03.028-.155,12.034-.723c5.378-.323,7.4-2.453,8.133-3.694,1.086-1.849.712-3.937-1.027-5.73l-9.869-10.175c-2.587-2.667-7.906-3.815-11.674-3.987l-13.1-.6-.044-.026.57-.379A4.158,4.158,0,0,0,277.353,320c-.3-1.182-1.5-3.345-6.164-4.563l-16.552-4.317a22.705,22.705,0,0,0-5.554-.67,18.744,18.744,0,0,0-4.662.545l-7.241,1.934c-1.591-.233-3.179-.441-4.752-.624l-1-1.622c-1.93-3.13-7.391-3.468-9.65-3.468H204.156c-2.217,0-7.594.325-9.645,3.332l-1.189,1.742c-1.63.186-3.279.4-4.932.64L181.3,311a18.475,18.475,0,0,0-4.666-.552,23.1,23.1,0,0,0-5.56.664l-16.834,4.317c-4.731,1.213-5.973,3.37-6.292,4.546a4.091,4.091,0,0,0,1.943,4.445l.451.313-.255.145-13.188.6a24.9,24.9,0,0,0-13.919,6l-8.355,8.07c-1.862,1.8-2.321,3.914-1.258,5.8.7,1.249,2.683,3.392,8.05,3.716l11.77.71c.006.035,0,.029.011.065l-14.392,6.112c-4.126,1.752-6.9,4.257-7.605,6.873a5.159,5.159,0,0,0,1.487,5.137l14.229,14.251c2.185,2.188,5.81,3.393,10.207,3.393a26.909,26.909,0,0,0,9.405-1.755l18.623-7.04a3.487,3.487,0,0,1,2.242-.072q2.3.7,4.669,1.306a3.48,3.48,0,0,1,2.6,3.583l-.532,8.8a8.68,8.68,0,0,0,3.551,7.3,18.182,18.182,0,0,0,11.428,3.541h42.051c8.625,0,15.4-4.676,15.431-10.645l.045-9.1a3.478,3.478,0,0,1,2.623-3.361q2.638-.66,5.215-1.423a3.482,3.482,0,0,1,2.251.087l18.086,7.011a26.173,26.173,0,0,0,9.36,1.772c4.337,0,7.972-1.172,10.236-3.3l15.161-14.251A5.294,5.294,0,0,0,311.291,362.818Zm-56.912-16.562c-4.833,5.5-19.015,11.927-43.08,11.927-23.76,0-37.462-6.287-41.976-11.671-2.3-2.748-2.641-5.569-1-8.383,2.163-3.709,7.758-7.163,15.755-9.727a96.4,96.4,0,0,1,28.579-4.128,93.562,93.562,0,0,1,28.255,4.116c7.748,2.538,13.054,5.943,14.941,9.587C257.283,340.731,256.785,343.517,254.379,346.256Z" transform="translate(-101.791 -300.087)" fill="none" stroke="#352b5b" stroke-miterlimit="10" stroke-width="0.878"/>
          </g>
          <g id="Grupo_1230902" data-name="Grupo 1230902" transform="translate(41.426)">
            <path id="Trazado_1064969" data-name="Trazado 1064969" d="M298.782,239.105H118.629a4.352,4.352,0,0,1-4.352-4.352V120.645a4.352,4.352,0,0,1,4.352-4.352H298.782a4.352,4.352,0,0,1,4.352,4.352V234.752A4.353,4.353,0,0,1,298.782,239.105Z" transform="translate(-114.277 -116.293)" fill="#c3e1ed"/>
            <rect id="Rectángulo_424344" data-name="Rectángulo 424344" width="177.488" height="111.206" transform="translate(5.685 5.803)" fill="#305063"/>
          </g>
          <g id="Grupo_1230916" data-name="Grupo 1230916" transform="translate(62.811 17.646)">
            <g id="Grupo_1230903" data-name="Grupo 1230903">
              <path id="Trazado_1064970" data-name="Trazado 1064970" d="M169.166,143.673h-23.52a1.277,1.277,0,0,1-1.273-1.273h0a1.277,1.277,0,0,1,1.273-1.273h23.52a1.277,1.277,0,0,1,1.273,1.273h0A1.277,1.277,0,0,1,169.166,143.673Z" transform="translate(-144.372 -141.126)" fill="#bb82f9"/>
              <path id="Trazado_1064971" data-name="Trazado 1064971" d="M273.507,143.673h-83.04a1.277,1.277,0,0,1-1.273-1.273h0a1.277,1.277,0,0,1,1.273-1.273h83.04a1.277,1.277,0,0,1,1.273,1.273h0A1.278,1.278,0,0,1,273.507,143.673Z" transform="translate(-157.344 -141.126)" fill="#49ccea"/>
            </g>
            <g id="Grupo_1230904" data-name="Grupo 1230904" transform="translate(0 31.621)">
              <path id="Trazado_1064972" data-name="Trazado 1064972" d="M169.166,188.173h-23.52a1.277,1.277,0,0,1-1.273-1.273h0a1.277,1.277,0,0,1,1.273-1.273h23.52a1.277,1.277,0,0,1,1.273,1.273h0A1.277,1.277,0,0,1,169.166,188.173Z" transform="translate(-144.372 -185.626)" fill="#bb82f9"/>
              <path id="Trazado_1064973" data-name="Trazado 1064973" d="M273.507,188.173h-83.04a1.277,1.277,0,0,1-1.273-1.273h0a1.277,1.277,0,0,1,1.273-1.273h83.04a1.277,1.277,0,0,1,1.273,1.273h0A1.278,1.278,0,0,1,273.507,188.173Z" transform="translate(-157.344 -185.626)" fill="#49ccea"/>
            </g>
            <g id="Grupo_1230905" data-name="Grupo 1230905" transform="translate(4.747 38.135)">
              <path id="Trazado_1064974" data-name="Trazado 1064974" d="M175.847,197.34h-23.52a1.277,1.277,0,0,1-1.273-1.273h0a1.277,1.277,0,0,1,1.273-1.273h23.52a1.277,1.277,0,0,1,1.273,1.273h0A1.278,1.278,0,0,1,175.847,197.34Z" transform="translate(-151.053 -194.793)" fill="#bb82f9"/>
              <path id="Trazado_1064975" data-name="Trazado 1064975" d="M280.187,197.34h-83.04a1.277,1.277,0,0,1-1.273-1.273h0a1.277,1.277,0,0,1,1.273-1.273h83.04a1.277,1.277,0,0,1,1.273,1.273h0A1.278,1.278,0,0,1,280.187,197.34Z" transform="translate(-164.025 -194.793)" fill="#49ccea"/>
            </g>
            <g id="Grupo_1230906" data-name="Grupo 1230906" transform="translate(9.494 44.648)">
              <path id="Trazado_1064976" data-name="Trazado 1064976" d="M182.527,206.506h-23.52a1.277,1.277,0,0,1-1.273-1.273h0a1.277,1.277,0,0,1,1.273-1.273h23.52a1.277,1.277,0,0,1,1.273,1.273h0A1.277,1.277,0,0,1,182.527,206.506Z" transform="translate(-157.733 -203.959)" fill="#bb82f9"/>
              <path id="Trazado_1064977" data-name="Trazado 1064977" d="M286.867,206.506h-83.04a1.277,1.277,0,0,1-1.273-1.273h0a1.277,1.277,0,0,1,1.273-1.273h83.04a1.277,1.277,0,0,1,1.273,1.273h0A1.277,1.277,0,0,1,286.867,206.506Z" transform="translate(-170.705 -203.959)" fill="#49ccea"/>
            </g>
            <g id="Grupo_1230907" data-name="Grupo 1230907" transform="translate(14.241 51.162)">
              <path id="Trazado_1064978" data-name="Trazado 1064978" d="M189.207,215.673h-23.52a1.277,1.277,0,0,1-1.273-1.273h0a1.277,1.277,0,0,1,1.273-1.273h23.52a1.277,1.277,0,0,1,1.273,1.273h0A1.277,1.277,0,0,1,189.207,215.673Z" transform="translate(-164.413 -213.126)" fill="#bb82f9"/>
              <path id="Trazado_1064979" data-name="Trazado 1064979" d="M293.548,215.673h-83.04a1.277,1.277,0,0,1-1.273-1.273h0a1.277,1.277,0,0,1,1.273-1.273h83.04a1.277,1.277,0,0,1,1.273,1.273h0A1.278,1.278,0,0,1,293.548,215.673Z" transform="translate(-177.385 -213.126)" fill="#49ccea"/>
            </g>
            <g id="Grupo_1230908" data-name="Grupo 1230908" transform="translate(1.968 59.084)">
              <path id="Trazado_1064980" data-name="Trazado 1064980" d="M171.935,226.822h-23.52a1.277,1.277,0,0,1-1.273-1.273h0a1.277,1.277,0,0,1,1.273-1.273h23.52a1.277,1.277,0,0,1,1.273,1.273h0A1.278,1.278,0,0,1,171.935,226.822Z" transform="translate(-147.141 -224.275)" fill="#bb82f9"/>
              <path id="Trazado_1064981" data-name="Trazado 1064981" d="M276.275,226.822h-83.04a1.277,1.277,0,0,1-1.273-1.273h0a1.277,1.277,0,0,1,1.273-1.273h83.04a1.277,1.277,0,0,1,1.273,1.273h0A1.277,1.277,0,0,1,276.275,226.822Z" transform="translate(-160.113 -224.275)" fill="#49ccea"/>
            </g>
            <g id="Grupo_1230909" data-name="Grupo 1230909" transform="translate(1.968 68.142)">
              <path id="Trazado_1064982" data-name="Trazado 1064982" d="M171.935,239.57h-23.52a1.277,1.277,0,0,1-1.273-1.273h0a1.277,1.277,0,0,1,1.273-1.273h23.52a1.277,1.277,0,0,1,1.273,1.273h0A1.278,1.278,0,0,1,171.935,239.57Z" transform="translate(-147.141 -237.023)" fill="#bb82f9"/>
              <path id="Trazado_1064983" data-name="Trazado 1064983" d="M276.275,239.57h-83.04a1.277,1.277,0,0,1-1.273-1.273h0a1.277,1.277,0,0,1,1.273-1.273h83.04a1.277,1.277,0,0,1,1.273,1.273h0A1.277,1.277,0,0,1,276.275,239.57Z" transform="translate(-160.113 -237.023)" fill="#49ccea"/>
            </g>
            <g id="Grupo_1230910" data-name="Grupo 1230910" transform="translate(1.968 77.201)">
              <path id="Trazado_1064984" data-name="Trazado 1064984" d="M171.935,252.318h-23.52a1.277,1.277,0,0,1-1.273-1.273h0a1.277,1.277,0,0,1,1.273-1.273h23.52a1.277,1.277,0,0,1,1.273,1.273h0A1.278,1.278,0,0,1,171.935,252.318Z" transform="translate(-147.141 -249.771)" fill="#bb82f9"/>
              <path id="Trazado_1064985" data-name="Trazado 1064985" d="M276.275,252.318h-83.04a1.277,1.277,0,0,1-1.273-1.273h0a1.277,1.277,0,0,1,1.273-1.273h83.04a1.277,1.277,0,0,1,1.273,1.273h0A1.278,1.278,0,0,1,276.275,252.318Z" transform="translate(-160.113 -249.771)" fill="#49ccea"/>
            </g>
            <g id="Grupo_1230911" data-name="Grupo 1230911" transform="translate(1.968 86.259)">
              <path id="Trazado_1064986" data-name="Trazado 1064986" d="M171.935,265.065h-23.52a1.277,1.277,0,0,1-1.273-1.273h0a1.277,1.277,0,0,1,1.273-1.273h23.52a1.277,1.277,0,0,1,1.273,1.273h0A1.278,1.278,0,0,1,171.935,265.065Z" transform="translate(-147.141 -262.518)" fill="#bb82f9"/>
              <path id="Trazado_1064987" data-name="Trazado 1064987" d="M276.275,265.065h-83.04a1.277,1.277,0,0,1-1.273-1.273h0a1.277,1.277,0,0,1,1.273-1.273h83.04a1.277,1.277,0,0,1,1.273,1.273h0A1.277,1.277,0,0,1,276.275,265.065Z" transform="translate(-160.113 -262.518)" fill="#49ccea"/>
            </g>
            <g id="Grupo_1230912" data-name="Grupo 1230912" transform="translate(22.736 7.639)">
              <path id="Trazado_1064988" data-name="Trazado 1064988" d="M201.162,154.423h-23.52a1.277,1.277,0,0,1-1.273-1.273h0a1.277,1.277,0,0,1,1.273-1.273h23.52a1.277,1.277,0,0,1,1.273,1.273h0A1.278,1.278,0,0,1,201.162,154.423Z" transform="translate(-176.368 -151.876)" fill="#bb82f9"/>
              <path id="Trazado_1064989" data-name="Trazado 1064989" d="M260.1,154.423H222.461a1.277,1.277,0,0,1-1.273-1.273h0a1.277,1.277,0,0,1,1.273-1.273H260.1a1.277,1.277,0,0,1,1.273,1.273h0A1.277,1.277,0,0,1,260.1,154.423Z" transform="translate(-189.34 -151.876)" fill="#49ccea"/>
            </g>
            <g id="Grupo_1230913" data-name="Grupo 1230913" transform="translate(22.736 12.968)">
              <path id="Trazado_1064990" data-name="Trazado 1064990" d="M201.162,161.923h-23.52a1.277,1.277,0,0,1-1.273-1.273h0a1.277,1.277,0,0,1,1.273-1.273h23.52a1.277,1.277,0,0,1,1.273,1.273h0A1.278,1.278,0,0,1,201.162,161.923Z" transform="translate(-176.368 -159.376)" fill="#bb82f9"/>
              <path id="Trazado_1064991" data-name="Trazado 1064991" d="M260.1,161.923H222.461a1.277,1.277,0,0,1-1.273-1.273h0a1.277,1.277,0,0,1,1.273-1.273H260.1a1.277,1.277,0,0,1,1.273,1.273h0A1.277,1.277,0,0,1,260.1,161.923Z" transform="translate(-189.34 -159.376)" fill="#49ccea"/>
            </g>
            <g id="Grupo_1230914" data-name="Grupo 1230914" transform="translate(22.736 18.297)">
              <path id="Trazado_1064992" data-name="Trazado 1064992" d="M201.162,169.423h-23.52a1.277,1.277,0,0,1-1.273-1.273h0a1.277,1.277,0,0,1,1.273-1.273h23.52a1.277,1.277,0,0,1,1.273,1.273h0A1.278,1.278,0,0,1,201.162,169.423Z" transform="translate(-176.368 -166.876)" fill="#bb82f9"/>
              <path id="Trazado_1064993" data-name="Trazado 1064993" d="M260.1,169.423H222.461a1.277,1.277,0,0,1-1.273-1.273h0a1.277,1.277,0,0,1,1.273-1.273H260.1a1.277,1.277,0,0,1,1.273,1.273h0A1.277,1.277,0,0,1,260.1,169.423Z" transform="translate(-189.34 -166.876)" fill="#49ccea"/>
            </g>
            <g id="Grupo_1230915" data-name="Grupo 1230915" transform="translate(22.736 23.627)">
              <path id="Trazado_1064994" data-name="Trazado 1064994" d="M201.162,176.923h-23.52a1.277,1.277,0,0,1-1.273-1.273h0a1.277,1.277,0,0,1,1.273-1.273h23.52a1.277,1.277,0,0,1,1.273,1.273h0A1.278,1.278,0,0,1,201.162,176.923Z" transform="translate(-176.368 -174.376)" fill="#bb82f9"/>
              <path id="Trazado_1064995" data-name="Trazado 1064995" d="M260.1,176.923H222.461a1.277,1.277,0,0,1-1.273-1.273h0a1.277,1.277,0,0,1,1.273-1.273H260.1a1.277,1.277,0,0,1,1.273,1.273h0A1.277,1.277,0,0,1,260.1,176.923Z" transform="translate(-189.34 -174.376)" fill="#49ccea"/>
            </g>
          </g>
          <g id="Grupo_1230919" data-name="Grupo 1230919" transform="translate(0 122.812)">
            <path id="Trazado_1064996" data-name="Trazado 1064996" d="M327.687,354.856H55.978L94.55,292.768a7.709,7.709,0,0,1,6.548-3.641H282.567a7.709,7.709,0,0,1,6.548,3.641Z" transform="translate(-55.978 -289.127)" fill="#afccdb"/>
            <rect id="Rectángulo_424345" data-name="Rectángulo 424345" width="271.709" height="5.685" transform="translate(0 65.729)" fill="#6aacc6"/>
            <g id="Grupo_1230918" data-name="Grupo 1230918" transform="translate(20.675 24.544)">
              <path id="Trazado_1064997" data-name="Trazado 1064997" d="M315.052,362.957H85.074l20.37-39.289H294.682Z" transform="translate(-85.074 -323.668)" fill="#8dbacc"/>
              <g id="Grupo_1230917" data-name="Grupo 1230917" transform="translate(7.746 2.545)">
                <path id="Trazado_1064998" data-name="Trazado 1064998" d="M136.79,330.094H116.72l1.4-2.845h19.766Z" transform="translate(-101.979 -327.249)" fill="#3294b2"/>
                <path id="Trazado_1064999" data-name="Trazado 1064999" d="M132.913,338.263H112.136l2.781-5.648H135.09Z" transform="translate(-100.652 -328.802)" fill="#3294b2"/>
                <path id="Trazado_1065000" data-name="Trazado 1065000" d="M167.043,338.263H146.267l2.076-5.648h20.173Z" transform="translate(-110.531 -328.802)" fill="#3294b2"/>
                <path id="Trazado_1065001" data-name="Trazado 1065001" d="M201.174,338.263H180.4l1.372-5.648h20.173Z" transform="translate(-120.409 -328.802)" fill="#3294b2"/>
                <path id="Trazado_1065002" data-name="Trazado 1065002" d="M235.3,338.263H214.528l.668-5.648h20.173Z" transform="translate(-130.287 -328.802)" fill="#3294b2"/>
                <path id="Trazado_1065003" data-name="Trazado 1065003" d="M269.42,338.263H248.644l-.036-5.648h20.173Z" transform="translate(-140.15 -328.802)" fill="#3294b2"/>
                <path id="Trazado_1065004" data-name="Trazado 1065004" d="M303.264,338.263H282.488l-.741-5.648H301.92Z" transform="translate(-149.741 -328.802)" fill="#3294b2"/>
                <path id="Trazado_1065005" data-name="Trazado 1065005" d="M337.108,338.263H316.332l-1.445-5.648H335.06Z" transform="translate(-159.333 -328.802)" fill="#3294b2"/>
                <path id="Trazado_1065006" data-name="Trazado 1065006" d="M370.952,338.263H350.176l-2.149-5.648H368.2Z" transform="translate(-168.924 -328.802)" fill="#3294b2"/>
                <path id="Trazado_1065007" data-name="Trazado 1065007" d="M128.693,348.225H107.148l2.987-6.068h20.9Z" transform="translate(-99.209 -331.564)" fill="#3294b2"/>
                <path id="Trazado_1065008" data-name="Trazado 1065008" d="M164.087,348.225H142.542l2.23-6.068h20.9Z" transform="translate(-109.452 -331.564)" fill="#3294b2"/>
                <path id="Trazado_1065009" data-name="Trazado 1065009" d="M199.481,348.225H177.936l1.474-6.068h20.9Z" transform="translate(-119.696 -331.564)" fill="#3294b2"/>
                <path id="Trazado_1065010" data-name="Trazado 1065010" d="M234.875,348.225H213.33l.718-6.068h20.9Z" transform="translate(-129.94 -331.564)" fill="#3294b2"/>
                <path id="Trazado_1065011" data-name="Trazado 1065011" d="M270.254,348.225H248.708l-.039-6.068h20.9Z" transform="translate(-140.168 -331.564)" fill="#3294b2"/>
                <path id="Trazado_1065012" data-name="Trazado 1065012" d="M305.34,348.225H283.794l-.8-6.068h20.9Z" transform="translate(-150.104 -331.564)" fill="#3294b2"/>
                <path id="Trazado_1065013" data-name="Trazado 1065013" d="M340.425,348.225H318.88l-1.552-6.068h20.9Z" transform="translate(-160.039 -331.564)" fill="#3294b2"/>
                <path id="Trazado_1065014" data-name="Trazado 1065014" d="M375.511,348.225H353.966l-2.309-6.068h20.9Z" transform="translate(-169.975 -331.564)" fill="#3294b2"/>
                <path id="Trazado_1065015" data-name="Trazado 1065015" d="M124.149,358.945H101.776l3.217-6.535h21.675Z" transform="translate(-97.654 -334.531)" fill="#3294b2"/>
                <path id="Trazado_1065016" data-name="Trazado 1065016" d="M160.9,358.945H138.531l2.4-6.535h21.676Z" transform="translate(-108.292 -334.531)" fill="#3294b2"/>
                <path id="Trazado_1065017" data-name="Trazado 1065017" d="M197.658,358.945H175.285l1.588-6.535h21.675Z" transform="translate(-118.929 -334.531)" fill="#3294b2"/>
                <path id="Trazado_1065018" data-name="Trazado 1065018" d="M234.413,358.945H212.04l.772-6.535h21.676Z" transform="translate(-129.567 -334.531)" fill="#3294b2"/>
                <path id="Trazado_1065019" data-name="Trazado 1065019" d="M271.15,358.945H248.777l-.042-6.535h21.676Z" transform="translate(-140.187 -334.531)" fill="#3294b2"/>
                <path id="Trazado_1065020" data-name="Trazado 1065020" d="M307.573,358.945H285.2l-.857-6.535h21.675Z" transform="translate(-150.493 -334.531)" fill="#3294b2"/>
                <path id="Trazado_1065021" data-name="Trazado 1065021" d="M344,358.945H321.622l-1.671-6.535h21.675Z" transform="translate(-160.798 -334.531)" fill="#3294b2"/>
                <path id="Trazado_1065022" data-name="Trazado 1065022" d="M380.418,358.945H358.045l-2.487-6.535h21.675Z" transform="translate(-171.104 -334.531)" fill="#3294b2"/>
                <path id="Trazado_1065023" data-name="Trazado 1065023" d="M119.243,370.515H95.975l3.475-7.059h22.514Z" transform="translate(-95.975 -337.728)" fill="#3294b2"/>
                <path id="Trazado_1065024" data-name="Trazado 1065024" d="M266.111,370.515H134.2l2.6-7.059H264.431Z" transform="translate(-107.038 -337.728)" fill="#3294b2"/>
                <path id="Trazado_1065025" data-name="Trazado 1065025" d="M347.85,370.515H324.582l-1.806-7.059H345.29Z" transform="translate(-161.616 -337.728)" fill="#3294b2"/>
                <path id="Trazado_1065026" data-name="Trazado 1065026" d="M385.715,370.515H362.447l-2.686-7.059h22.514Z" transform="translate(-172.32 -337.728)" fill="#3294b2"/>
                <path id="Trazado_1065027" data-name="Trazado 1065027" d="M169.76,330.094H149.69l1.046-2.845H170.5Z" transform="translate(-111.521 -327.249)" fill="#3294b2"/>
                <path id="Trazado_1065028" data-name="Trazado 1065028" d="M202.729,330.094H182.66l.691-2.845h19.766Z" transform="translate(-121.063 -327.249)" fill="#3294b2"/>
                <path id="Trazado_1065029" data-name="Trazado 1065029" d="M235.7,330.094h-20.07l.337-2.845h19.765Z" transform="translate(-130.605 -327.249)" fill="#3294b2"/>
                <path id="Trazado_1065030" data-name="Trazado 1065030" d="M268.661,330.094h-20.07l-.018-2.845h19.765Z" transform="translate(-140.14 -327.249)" fill="#3294b2"/>
                <path id="Trazado_1065031" data-name="Trazado 1065031" d="M301.487,330.094h-20.07l-.373-2.845h19.765Z" transform="translate(-149.538 -327.249)" fill="#3294b2"/>
                <path id="Trazado_1065032" data-name="Trazado 1065032" d="M334.311,330.094H314.242l-.728-2.845h19.765Z" transform="translate(-158.935 -327.249)" fill="#3294b2"/>
                <path id="Trazado_1065033" data-name="Trazado 1065033" d="M367.137,330.094h-20.07l-1.082-2.845H365.75Z" transform="translate(-168.333 -327.249)" fill="#3294b2"/>
              </g>
            </g>
          </g>
          <g id="Grupo_1230923" data-name="Grupo 1230923" transform="translate(30.222 127.823)">
            <g id="Grupo_1230920" data-name="Grupo 1230920" transform="translate(43.988)">
              <path id="Trazado_1065034" data-name="Trazado 1065034" d="M160.819,351.873l6.225,8.084h19.888l5.433-2.663a59.726,59.726,0,0,0,7.5,2.663h42.063a62.593,62.593,0,0,0,7.639-2.663l5.3,2.663h19.888l6.633-8.084c1.2-1.465.018-3.7-2.655-5.216l-10.878-6.16a15.04,15.04,0,0,0,.709-4.665l10.372-.808c2.315-.181,3.257-1.367,2.238-2.729l-6.293-8.412c-.782-1.045-2.957-1.9-5.091-2.03l-9.346-.553a36.251,36.251,0,0,0-4.043-2.836l3.491-3.009c.742-.639.062-1.523-1.546-2.067L247.8,309.819a7.766,7.766,0,0,0-4.46-.111l-5.424,1.879c-1.756-.352-3.551-.653-5.39-.886l-1.373-2.884c-.291-.61-1.7-1.059-3.289-1.059H216.625c-1.592,0-3.021.448-3.343,1.059l-1.519,2.884c-1.851.233-3.661.534-5.434.886L201,309.708a7.79,7.79,0,0,0-4.465.111L185.8,313.388c-1.635.544-2.36,1.428-1.65,2.067l3.34,3.009A38.732,38.732,0,0,0,183.3,321.3l-9.374.553c-2.14.127-4.359.984-5.194,2.03l-6.717,8.412c-1.087,1.361-.206,2.549,2.1,2.729l10.332.808a14.78,14.78,0,0,0,.474,4.665l-11.188,6.16C160.989,348.17,159.692,350.408,160.819,351.873Zm30.067-24.027c3.607-8.018,17.262-13.325,31.162-13.325s27.287,5.307,30.49,13.325c4.11,10.291-9.4,21.052-31.356,21.052S186.257,338.137,190.886,327.846Z" transform="translate(-160.413 -299.24)" fill="#6657a0" opacity="0.2"/>
              <path id="Trazado_1065035" data-name="Trazado 1065035" d="M269.8,311.273l-9.346-.553a36.162,36.162,0,0,0-4.043-2.835l3.491-3.009c.742-.639.062-1.523-1.546-2.067L247.8,299.24a7.766,7.766,0,0,0-4.46-.111l-5.424,1.879c-1.756-.352-3.551-.653-5.39-.886l-1.373-2.884c-.291-.61-1.7-1.059-3.289-1.059H216.627c-1.592,0-3.021.448-3.343,1.059l-1.518,2.884c-1.851.233-3.661.534-5.434.886L201,299.129a7.79,7.79,0,0,0-4.465.111L185.8,302.809c-1.635.544-2.36,1.428-1.651,2.067l3.34,3.009a38.842,38.842,0,0,0-4.186,2.835l-9.374.553c-2.14.126-4.359.984-5.194,2.03l-6.717,8.412c-1.087,1.361-.206,2.549,2.1,2.729l10.332.808a14.78,14.78,0,0,0,.474,4.665l-11.188,6.16c-2.749,1.514-4.046,3.75-2.918,5.216l9.073,11.782c1.468,1.906,5.209,2.1,8.6.441l13.877-6.8a59.822,59.822,0,0,0,8.856,3.042l-.569,12.195c-.148,3.159,2.584,5.64,6.383,5.64H233.85c3.8,0,6.656-2.481,6.667-5.64l.046-12.195a62.678,62.678,0,0,0,9.009-3.042l13.534,6.8c3.3,1.66,7.055,1.465,8.619-.441l9.667-11.782c1.2-1.465.018-3.7-2.655-5.216l-10.878-6.16a15.04,15.04,0,0,0,.709-4.665l10.372-.808c2.315-.18,3.257-1.367,2.238-2.729l-6.293-8.412C274.1,312.257,271.93,311.4,269.8,311.273Zm-48.615,27.045c-21.961,0-34.924-10.762-30.294-21.052,3.607-8.018,17.262-13.325,31.162-13.325s27.287,5.307,30.49,13.325C256.647,327.556,243.142,338.318,221.181,338.318Z" transform="translate(-160.413 -296.178)" fill="#3b5b9b"/>
            </g>
            <g id="Grupo_1230921" data-name="Grupo 1230921" transform="translate(165.22 26.687)">
              <path id="Trazado_1065036" data-name="Trazado 1065036" d="M378.488,345.84l-3.993-.43a15.571,15.571,0,0,0-1.673-1.3l1.558-1.217c.331-.259.058-.652-.62-.918l-4.448-1.747a3.332,3.332,0,0,0-1.909-.14l-2.363.693c-.745-.188-1.508-.353-2.291-.491l-.529-1.264c-.112-.268-.706-.489-1.388-.522l-4.814-.232c-.682-.033-1.3.129-1.455.385l-.711,1.2c-.8.062-1.58.153-2.346.267l-2.245-.915a3.336,3.336,0,0,0-1.916-.045l-4.673,1.307c-.712.2-1.04.564-.75.852l1.369,1.358a16.7,16.7,0,0,0-1.852,1.128l-4.028.043a3.4,3.4,0,0,0-2.267.762l-3.052,3.466c-.494.561-.141,1.088.843,1.213l4.41.56a6.322,6.322,0,0,0,.107,2.009l-4.921,2.408c-1.209.592-1.811,1.523-1.358,2.174l3.644,5.236c.59.847,2.189,1.008,3.674.367l6.086-2.627a25.691,25.691,0,0,0,3.731,1.487l-.5,5.214a2.475,2.475,0,0,0,2.618,2.548l11.489.554a2.627,2.627,0,0,0,2.974-2.279l.272-5.224a26.841,26.841,0,0,0,3.923-1.117l5.658,3.194c1.381.779,2.992.774,3.7-.011l4.386-4.848c.545-.6.085-1.586-1.03-2.289l-4.533-2.864a6.458,6.458,0,0,0,.4-1.984l4.461-.131c1-.029,1.423-.519,1.015-1.123l-2.522-3.734A3.224,3.224,0,0,0,378.488,345.84ZM357.1,356.422c-9.409-.454-14.741-5.333-12.545-9.647,1.711-3.361,7.671-5.352,13.628-5.065s11.582,2.838,12.788,6.34C372.517,352.545,366.509,356.877,357.1,356.422Z" transform="translate(-331.024 -335.047)" fill="#6657a0" opacity="0.2"/>
              <path id="Trazado_1065037" data-name="Trazado 1065037" d="M378.707,341.306l-3.993-.43a15.568,15.568,0,0,0-1.673-1.3l1.558-1.217c.331-.259.058-.652-.62-.918l-4.448-1.747a3.333,3.333,0,0,0-1.909-.14l-2.363.693c-.745-.188-1.508-.353-2.291-.491l-.529-1.264c-.112-.268-.706-.489-1.388-.522l-4.814-.232c-.682-.033-1.3.129-1.454.385l-.711,1.2c-.8.062-1.58.153-2.347.267l-2.245-.915a3.337,3.337,0,0,0-1.916-.045l-4.673,1.307c-.712.2-1.04.563-.75.852l1.369,1.358a16.6,16.6,0,0,0-1.852,1.128l-4.028.043a3.405,3.405,0,0,0-2.267.762l-3.052,3.466c-.494.561-.141,1.088.843,1.213l4.41.56a6.322,6.322,0,0,0,.107,2.009l-4.921,2.408c-1.209.592-1.811,1.523-1.358,2.174l3.644,5.236c.59.847,2.189,1.008,3.674.367l6.086-2.627a25.7,25.7,0,0,0,3.731,1.487l-.5,5.213a2.475,2.475,0,0,0,2.619,2.548l11.489.554a2.627,2.627,0,0,0,2.974-2.279l.272-5.224a26.844,26.844,0,0,0,3.923-1.117l5.658,3.194c1.381.78,2.992.774,3.7-.011l4.386-4.848c.545-.6.084-1.586-1.03-2.29l-4.533-2.864a6.435,6.435,0,0,0,.4-1.984l4.461-.131c1-.029,1.423-.519,1.015-1.123l-2.522-3.734A3.231,3.231,0,0,0,378.707,341.306Zm-21.388,10.583c-9.409-.454-14.741-5.333-12.545-9.647,1.711-3.361,7.671-5.352,13.628-5.065s11.582,2.838,12.788,6.34C372.737,348.011,366.728,352.343,357.319,351.889Z" transform="translate(-331.087 -333.735)" fill="#3b5b9b"/>
            </g>
            <g id="Grupo_1230922" data-name="Grupo 1230922" transform="translate(0 25.385)">
              <path id="Trazado_1065038" data-name="Trazado 1065038" d="M133.633,339.637l-3.03-.052a11.834,11.834,0,0,0-1.346-.862l1.088-1.02c.231-.217,0-.493-.528-.647l-3.461-1.01a2.508,2.508,0,0,0-1.444.025l-1.729.681c-.573-.09-1.157-.163-1.755-.213l-.483-.914c-.1-.193-.563-.32-1.078-.3l-3.633.153c-.515.022-.971.186-1.067.388l-.452.954c-.6.1-1.177.222-1.745.36l-1.749-.535a2.522,2.522,0,0,0-1.442.1l-3.423,1.3c-.522.2-.743.494-.505.691l1.121.927a12.486,12.486,0,0,0-1.315.974l-3.024.306a2.565,2.565,0,0,0-1.652.727l-2.058,2.812c-.333.455-.032.827.716.854l3.352.121a4.774,4.774,0,0,0,.217,1.5L99.673,349.1c-.868.527-1.258,1.268-.873,1.727l3.094,3.686c.5.6,1.713.609,2.786.026l4.395-2.388a19.429,19.429,0,0,0,2.906.863l-.018,3.952A1.867,1.867,0,0,0,114.1,358.7l8.67-.365a1.982,1.982,0,0,0,2.079-1.914l-.151-3.944a20.334,20.334,0,0,0,2.872-1.106l4.469,2.015a2.391,2.391,0,0,0,2.781-.259l2.966-3.942c.369-.49-.045-1.2-.929-1.651l-3.6-1.844a4.888,4.888,0,0,0,.166-1.518l3.343-.4c.746-.09,1.035-.487.686-.913l-2.15-2.635A2.434,2.434,0,0,0,133.633,339.637Zm-15.354,9.407c-7.1.3-11.44-3.005-10.083-6.4,1.057-2.642,5.4-4.543,9.9-4.732s8.9,1.345,10.041,3.895C129.6,345.082,125.382,348.746,118.28,349.044Z" transform="translate(-98.55 -332.893)" fill="#6657a0" opacity="0.2"/>
              <path id="Trazado_1065039" data-name="Trazado 1065039" d="M133.49,336.215l-3.03-.052a11.738,11.738,0,0,0-1.346-.862l1.088-1.02c.231-.217,0-.494-.528-.647l-3.461-1.01a2.507,2.507,0,0,0-1.444.025l-1.729.681c-.573-.09-1.157-.163-1.755-.213l-.483-.914c-.1-.193-.563-.32-1.078-.3l-3.633.153c-.515.021-.971.186-1.067.388l-.452.954c-.6.1-1.177.222-1.745.36l-1.749-.535a2.522,2.522,0,0,0-1.442.1l-3.423,1.3c-.522.2-.744.494-.505.691l1.121.927a12.58,12.58,0,0,0-1.315.974l-3.024.306a2.565,2.565,0,0,0-1.652.727l-2.058,2.812c-.333.455-.032.827.716.854l3.352.121a4.774,4.774,0,0,0,.217,1.5L99.53,345.68c-.868.527-1.258,1.268-.873,1.727l3.094,3.687c.5.6,1.713.608,2.786.026l4.395-2.388a19.429,19.429,0,0,0,2.906.863l-.018,3.952a1.868,1.868,0,0,0,2.141,1.737l8.67-.365A1.982,1.982,0,0,0,124.71,353l-.151-3.944a20.252,20.252,0,0,0,2.872-1.106l4.469,2.016a2.39,2.39,0,0,0,2.781-.26l2.966-3.942c.369-.49-.045-1.2-.929-1.651l-3.6-1.844a4.888,4.888,0,0,0,.166-1.519l3.343-.4c.746-.09,1.035-.487.686-.913l-2.15-2.635A2.437,2.437,0,0,0,133.49,336.215Zm-15.353,9.407c-7.1.3-11.44-3.005-10.083-6.4,1.057-2.642,5.4-4.543,9.9-4.732s8.9,1.345,10.04,3.895C129.459,341.66,125.238,345.324,118.137,345.623Z" transform="translate(-98.509 -331.902)" fill="#3b5b9b"/>
            </g>
          </g>
          <g id="Grupo_1230942" data-name="Grupo 1230942" transform="translate(37.855 91.167)">
            <g id="Grupo_1230925" data-name="Grupo 1230925">
              <rect id="Rectángulo_424346" data-name="Rectángulo 424346" width="26.077" height="36.242" transform="translate(12.731)" fill="url(#linear-gradient-2)"/>
              <path id="Trazado_1065040" data-name="Trazado 1065040" d="M123.282,244.592v36.242l-9.541,17.278V261.87Z" transform="translate(-110.551 -244.592)" fill="url(#linear-gradient-3)"/>
              <path id="Trazado_1065041" data-name="Trazado 1065041" d="M161.168,244.592v36.242l-6.623,17.278V261.87Z" transform="translate(-122.361 -244.592)" opacity="0.7" fill="url(#linear-gradient-4)"/>
              <rect id="Rectángulo_424347" data-name="Rectángulo 424347" width="28.994" height="36.242" transform="translate(3.19 17.278)" fill="url(#linear-gradient-5)"/>
              <path id="Trazado_1065042" data-name="Trazado 1065042" d="M109.252,313.71h33.726l7.7-20.1H120.349Z" transform="translate(-109.252 -258.78)" fill="none" stroke="#fff" stroke-miterlimit="10" stroke-width="0.25"/>
              <path id="Trazado_1065043" data-name="Trazado 1065043" d="M142.735,261.87H113.741l9.541-17.278h26.077Z" transform="translate(-110.551 -244.592)" fill="#fff" opacity="0.74"/>
              <g id="Grupo_1230924" data-name="Grupo 1230924" transform="translate(9.624 4.357)">
                <path id="Trazado_1065044" data-name="Trazado 1065044" d="M127.663,256.389h-1.542l1.312-2.363h-1.754l-1.34,2.363H122.8l3.272-5.666h1.483l-1.162,2.049h1.74l1.137-2.049h1.483Z" transform="translate(-122.796 -250.723)" fill="#009eff"/>
                <path id="Trazado_1065045" data-name="Trazado 1065045" d="M134.273,256.389h-1.534l2.358-4.452h-1.345l.654-1.214h4.138l-.619,1.214h-1.341Z" transform="translate(-125.674 -250.723)" fill="#009eff"/>
                <path id="Trazado_1065046" data-name="Trazado 1065046" d="M140.46,256.389l.883-4.125h-.034c-.287.686-.527,1.224-.718,1.609l-1.246,2.515h-1.359l2.857-5.666h1.965l-.78,3.977h.031l3.034-3.977h1.968l-2.609,5.666h-1.41l1.193-2.539q.092-.2.207-.431c.078-.157.275-.541.59-1.148H145l-3.08,4.118H140.46Z" transform="translate(-127.192 -250.723)" fill="#009eff"/>
                <path id="Trazado_1065047" data-name="Trazado 1065047" d="M148.808,256.389l2.562-5.666h1.476l-1.94,4.391h2.167l-.544,1.275Z" transform="translate(-130.324 -250.723)" fill="#009eff"/>
              </g>
            </g>
            <g id="Grupo_1230929" data-name="Grupo 1230929" transform="translate(40.887)">
              <path id="Trazado_1065048" data-name="Trazado 1065048" d="M170.253,261.87l5.5-17.278v36.242l-5.5,17.278Z" transform="translate(-167.794 -244.592)" fill="url(#linear-gradient-6)"/>
              <path id="Trazado_1065049" data-name="Trazado 1065049" d="M211.057,298.112V261.87l2.582-17.278v36.242Z" transform="translate(-179.603 -244.592)" opacity="0.7" fill="url(#linear-gradient-7)"/>
              <g id="Grupo_1230928" data-name="Grupo 1230928">
                <path id="Trazado_1065050" data-name="Trazado 1065050" d="M199.247,261.87H170.253l5.5-17.278H201.83Z" transform="translate(-167.794 -244.592)" fill="#fff" opacity="0.74"/>
                <g id="Grupo_1230927" data-name="Grupo 1230927">
                  <rect id="Rectángulo_424348" data-name="Rectángulo 424348" width="26.077" height="36.242" transform="translate(7.958)" fill="url(#linear-gradient-2)"/>
                  <rect id="Rectángulo_424349" data-name="Rectángulo 424349" width="28.994" height="36.242" transform="translate(2.459 17.278)" fill="url(#linear-gradient-5)"/>
                  <path id="Trazado_1065051" data-name="Trazado 1065051" d="M166.792,313.71h33.725l3-20.1H173.189Z" transform="translate(-166.792 -258.78)" fill="none" stroke="#fff" stroke-miterlimit="10" stroke-width="0.25"/>
                  <g id="Grupo_1230926" data-name="Grupo 1230926" transform="translate(6.804 3.679)">
                    <path id="Trazado_1065052" data-name="Trazado 1065052" d="M182.114,251.531a2.416,2.416,0,0,0-1.653.637,3.793,3.793,0,0,0-1.072,1.779c-.492,1.6-.012,2.415,1.448,2.415a5.816,5.816,0,0,0,1.327-.156q.664-.157,1.352-.376l-.546,1.948a9.145,9.145,0,0,1-2.987.478,3.732,3.732,0,0,1-3.14-1.131,3.4,3.4,0,0,1-.181-3.189,5.938,5.938,0,0,1,1.285-2.224,5.78,5.78,0,0,1,2.081-1.443,6.82,6.82,0,0,1,2.633-.5,6.944,6.944,0,0,1,2.82.556l-1.278,1.7a7.851,7.851,0,0,0-.976-.352A4.053,4.053,0,0,0,182.114,251.531Z" transform="translate(-176.368 -249.769)" fill="#009eff"/>
                    <path id="Trazado_1065053" data-name="Trazado 1065053" d="M195.322,255.548a2.876,2.876,0,0,1-.8,1.4,4.185,4.185,0,0,1-1.6.963,6.543,6.543,0,0,1-2.186.345,9.28,9.28,0,0,1-1.656-.122,5.587,5.587,0,0,1-1.3-.422l.558-2.049a6.984,6.984,0,0,0,1.459.523,6.312,6.312,0,0,0,1.477.189,1.958,1.958,0,0,0,.924-.177.722.722,0,0,0,.392-.453.383.383,0,0,0-.037-.3.9.9,0,0,0-.294-.261,12.384,12.384,0,0,0-1.179-.537,4.773,4.773,0,0,1-1.258-.714,1.549,1.549,0,0,1-.5-.786,2.053,2.053,0,0,1,.051-1.04,2.746,2.746,0,0,1,1.437-1.723,5.87,5.87,0,0,1,2.815-.61,7.755,7.755,0,0,1,2.908.567L195.343,252a5.843,5.843,0,0,0-2.225-.517,1.659,1.659,0,0,0-.781.148.609.609,0,0,0-.327.37.4.4,0,0,0,.188.426,9.216,9.216,0,0,0,1.441.691,3.307,3.307,0,0,1,1.515,1.026A1.74,1.74,0,0,1,195.322,255.548Z" transform="translate(-179.672 -249.769)" fill="#009eff"/>
                    <path id="Trazado_1065054" data-name="Trazado 1065054" d="M206.652,255.548a2.717,2.717,0,0,1-.734,1.4,3.942,3.942,0,0,1-1.553.963,6.408,6.408,0,0,1-2.17.345,9.383,9.383,0,0,1-1.662-.122,5.816,5.816,0,0,1-1.323-.422l.465-2.049a7.3,7.3,0,0,0,1.482.523,6.419,6.419,0,0,0,1.486.189,1.9,1.9,0,0,0,.915-.177.677.677,0,0,0,.372-.453.387.387,0,0,0-.05-.3.942.942,0,0,0-.306-.261,12.9,12.9,0,0,0-1.2-.537,5.061,5.061,0,0,1-1.291-.714,1.64,1.64,0,0,1-.535-.786,2.049,2.049,0,0,1,0-1.04,2.581,2.581,0,0,1,1.359-1.723,5.706,5.706,0,0,1,2.788-.61,7.951,7.951,0,0,1,2.933.567L206.511,252a6.014,6.014,0,0,0-2.248-.517,1.614,1.614,0,0,0-.774.148.573.573,0,0,0-.311.37.413.413,0,0,0,.207.426,9.733,9.733,0,0,0,1.472.691,3.519,3.519,0,0,1,1.562,1.026A1.772,1.772,0,0,1,206.652,255.548Z" transform="translate(-182.979 -249.769)" fill="#009eff"/>
                  </g>
                </g>
              </g>
            </g>
            <g id="Grupo_1230933" data-name="Grupo 1230933" transform="translate(81.137)">
              <path id="Trazado_1065055" data-name="Trazado 1065055" d="M257.161,313.71H223.436l1.7-20.1h30.331Z" transform="translate(-223.436 -258.78)" fill="none" stroke="#fff" stroke-miterlimit="10" stroke-width="0.25"/>
              <path id="Trazado_1065056" data-name="Trazado 1065056" d="M255.759,261.87h-29l1.46-17.278H254.3Z" transform="translate(-224.399 -244.592)" fill="#fff" opacity="0.74"/>
              <g id="Grupo_1230932" data-name="Grupo 1230932" transform="translate(2.365)">
                <g id="Grupo_1230930" data-name="Grupo 1230930">
                  <rect id="Rectángulo_424350" data-name="Rectángulo 424350" width="26.077" height="36.242" transform="translate(1.46)" fill="url(#linear-gradient-5)"/>
                  <path id="Trazado_1065057" data-name="Trazado 1065057" d="M226.764,298.112V261.87l1.46-17.278v36.242Z" transform="translate(-226.764 -244.592)" fill="url(#linear-gradient-5)"/>
                  <path id="Trazado_1065058" data-name="Trazado 1065058" d="M265.516,280.834V244.592l1.459,17.278v36.242Z" transform="translate(-237.98 -244.592)" fill="url(#linear-gradient-12)"/>
                  <rect id="Rectángulo_424351" data-name="Rectángulo 424351" width="28.994" height="36.242" transform="translate(0 17.278)" fill="url(#linear-gradient-5)"/>
                </g>
                <g id="Grupo_1230931" data-name="Grupo 1230931" transform="translate(4.919 1.658)">
                  <path id="Trazado_1065059" data-name="Trazado 1065059" d="M235.5,260.944a9.559,9.559,0,0,1-1.811-.163l.127-2.354c.185.03.382.065.59.1a3.834,3.834,0,0,0,.68.057,1.564,1.564,0,0,0,1.246-.448,2.466,2.466,0,0,0,.426-1.511l.362-9.507h3.259l-.174,9.255a4.179,4.179,0,0,1-4.7,4.568Z" transform="translate(-233.686 -246.982)" fill="#009eff"/>
                  <path id="Trazado_1065060" data-name="Trazado 1065060" d="M254.645,254.12a2.713,2.713,0,0,1-.52,1.76,3.656,3.656,0,0,1-1.683,1.216,7.268,7.268,0,0,1-2.645.437,12.482,12.482,0,0,1-2.136-.153,8.846,8.846,0,0,1-1.791-.534l.018-2.582a11.321,11.321,0,0,0,2.014.657,8.785,8.785,0,0,0,1.927.237,2.1,2.1,0,0,0,1.1-.223.638.638,0,0,0,.34-.57.573.573,0,0,0-.15-.379,1.662,1.662,0,0,0-.46-.328q-.314-.165-1.666-.674a8.424,8.424,0,0,1-1.823-.893,2.827,2.827,0,0,1-.891-.981,2.713,2.713,0,0,1-.282-1.3,2.41,2.41,0,0,1,1.225-2.137,6.231,6.231,0,0,1,3.314-.754,11.363,11.363,0,0,1,3.827.7l-.92,2.068a8.73,8.73,0,0,0-2.965-.642,1.792,1.792,0,0,0-.928.183.53.53,0,0,0-.285.459.663.663,0,0,0,.379.53,15.848,15.848,0,0,0,2.043.86,6,6,0,0,1,2.256,1.281A2.632,2.632,0,0,1,254.645,254.12Z" transform="translate(-237.212 -246.925)" fill="#009eff"/>
                </g>
              </g>
            </g>
            <g id="Grupo_1230937" data-name="Grupo 1230937" transform="translate(119.087)">
              <path id="Trazado_1065061" data-name="Trazado 1065061" d="M322.191,261.87l-5.5-17.278v36.242l5.5,17.278Z" transform="translate(-288.376 -244.592)" fill="url(#linear-gradient-14)"/>
              <path id="Trazado_1065062" data-name="Trazado 1065062" d="M282.575,298.112V261.87l-2.582-17.278v36.242Z" transform="translate(-277.755 -244.592)" opacity="0.7" fill="url(#linear-gradient-15)"/>
              <g id="Grupo_1230936" data-name="Grupo 1230936">
                <rect id="Rectángulo_424352" data-name="Rectángulo 424352" width="26.077" height="36.242" transform="translate(2.238)" fill="url(#linear-gradient-16)"/>
                <rect id="Rectángulo_424353" data-name="Rectángulo 424353" width="28.994" height="36.242" transform="translate(4.82 17.278)" fill="url(#linear-gradient-17)"/>
                <g id="Grupo_1230935" data-name="Grupo 1230935">
                  <path id="Trazado_1065063" data-name="Trazado 1065063" d="M313.571,313.71H279.846l-3-20.1h30.331Z" transform="translate(-276.843 -258.78)" fill="none" stroke="#fff" stroke-miterlimit="10" stroke-width="0.25"/>
                  <path id="Trazado_1065064" data-name="Trazado 1065064" d="M311.22,261.87h-29l-2.582-17.278H305.72Z" transform="translate(-277.653 -244.592)" fill="#fff" opacity="0.74"/>
                  <g id="Grupo_1230934" data-name="Grupo 1230934" transform="translate(5.113 4.357)">
                    <path id="Trazado_1065065" data-name="Trazado 1065065" d="M290.553,252.924a1.82,1.82,0,0,1-.456,1.838,3.282,3.282,0,0,1-2.274.659h-.652l.456,2.437h-2.354l-1.234-7.133h2.885a4.682,4.682,0,0,1,2.488.567A2.437,2.437,0,0,1,290.553,252.924Zm-3.678.917h.419a1.1,1.1,0,0,0,.775-.242.675.675,0,0,0,.173-.665c-.093-.473-.453-.706-1.083-.706h-.588Z" transform="translate(-284.038 -250.723)" fill="#009eff"/>
                    <path id="Trazado_1065066" data-name="Trazado 1065066" d="M303.457,257.856h-2.366l-.749-2.985h-2.687l.7,2.985H295.99l-1.569-7.133h2.263l.6,2.571h2.66l-.645-2.571h2.263Z" transform="translate(-287.043 -250.723)" fill="#009eff"/>
                    <path id="Trazado_1065067" data-name="Trazado 1065067" d="M313.75,252.924a1.719,1.719,0,0,1-.266,1.838,3.016,3.016,0,0,1-2.206.659h-.652l.709,2.437h-2.354l-1.975-7.133h2.885a5.009,5.009,0,0,1,2.547.567A2.81,2.81,0,0,1,313.75,252.924Zm-3.583.917h.419a1,1,0,0,0,.75-.242.637.637,0,0,0,.1-.665c-.142-.473-.527-.706-1.156-.706H309.7Z" transform="translate(-290.686 -250.723)" fill="#009eff"/>
                  </g>
                </g>
              </g>
            </g>
            <g id="Grupo_1230941" data-name="Grupo 1230941" transform="translate(155.273)">
              <path id="Trazado_1065068" data-name="Trazado 1065068" d="M330.818,244.592v36.242l6.623,17.278V261.87Z" transform="translate(-328.651 -244.592)" opacity="0.7" fill="url(#linear-gradient-18)"/>
              <g id="Grupo_1230940" data-name="Grupo 1230940">
                <path id="Trazado_1065069" data-name="Trazado 1065069" d="M367.516,244.592v36.242l9.54,17.278V261.87Z" transform="translate(-339.272 -244.592)" fill="url(#linear-gradient-19)"/>
                <rect id="Rectángulo_424354" data-name="Rectángulo 424354" width="28.994" height="36.242" transform="translate(8.79 17.278)" fill="url(#linear-gradient-20)"/>
                <g id="Grupo_1230939" data-name="Grupo 1230939">
                  <rect id="Rectángulo_424355" data-name="Rectángulo 424355" width="26.077" height="36.242" transform="translate(2.167)" fill="url(#linear-gradient-21)"/>
                  <path id="Trazado_1065070" data-name="Trazado 1065070" d="M369.2,313.71H335.471l-7.7-20.1H358.1Z" transform="translate(-327.768 -258.78)" fill="none" stroke="#fff" stroke-miterlimit="10" stroke-width="0.25"/>
                  <path id="Trazado_1065071" data-name="Trazado 1065071" d="M365.474,261.87H336.479l-6.623-17.278h26.078Z" transform="translate(-328.372 -244.592)" fill="#fff" opacity="0.74"/>
                  <g id="Grupo_1230938" data-name="Grupo 1230938" transform="translate(7.228 3.281)">
                    <path id="Trazado_1065072" data-name="Trazado 1065072" d="M341.752,250.851q-.875,0-1.1.594a2.271,2.271,0,0,0,.231,1.661,3.225,3.225,0,0,0,3.036,2.258,4.184,4.184,0,0,0,1.135-.146,9.166,9.166,0,0,0,1.005-.352l.847,1.824a5.919,5.919,0,0,1-2.469.448,6.59,6.59,0,0,1-3.733-1.059,6.483,6.483,0,0,1-2.384-2.984,3.726,3.726,0,0,1-.338-2.076,1.887,1.887,0,0,1,.946-1.344,4.132,4.132,0,0,1,2.116-.465,9.638,9.638,0,0,1,3.022.517l-.013,1.585q-.595-.2-1.158-.329A4.923,4.923,0,0,0,341.752,250.851Z" transform="translate(-337.939 -249.21)" fill="#009eff"/>
                    <path id="Trazado_1065073" data-name="Trazado 1065073" d="M352.54,254.366h-2.356l-.668-1.413h2.334l-.924-1.894h1.666l.945,1.894h2.333l.727,1.413h-2.354l.971,1.946h-1.725Z" transform="translate(-341.29 -249.745)" fill="#009eff"/>
                    <path id="Trazado_1065074" data-name="Trazado 1065074" d="M362.838,254.366h-2.356l-.736-1.413h2.334l-1.015-1.894h1.666l1.036,1.894H366.1l.8,1.413h-2.354l1.064,1.946h-1.725Z" transform="translate(-344.251 -249.745)" fill="#009eff"/>
                  </g>
                </g>
              </g>
            </g>
          </g>
        </g>
      </g>
    </g>
  </g>
</svg>
